<svg width="171" height="26" viewBox="0 0 171 26" fill="none" xmlns="http://www.w3.org/2000/svg">
<g clip-path="url(#clip0_3510_14734)">
<path d="M5.10161 11.2056L5.48724 11.2156L8.06313 12.6582L9.18163 13.0453C9.59063 13.186 9.90448 13.5194 10.023 13.9349L10.3869 15.215L10.9161 17.0195C10.9479 17.1301 11.0363 17.2138 11.1465 17.2406L11.8877 17.4233C11.9946 17.4467 12.0931 17.5054 12.1682 17.5925L12.2316 17.6645L12.9244 19.6299L12.1081 20.8245C11.9445 21.0641 11.9896 21.3841 12.2116 21.5684L13.1615 22.3542C13.4202 22.0258 13.8877 21.4176 14.6239 20.4458C14.6923 20.3554 14.7341 20.2448 14.7391 20.1308L14.8275 18.514L17.1547 18.0633L18.9226 16.6559C19.1413 16.2638 19.567 14.7928 19.8708 13.5228L19.8992 13.4038L21.7706 11.2458C21.8557 11.1469 21.8974 11.0213 21.8874 10.8906L21.799 9.72615C21.7906 9.60719 21.7238 9.49828 21.622 9.43629L19.5937 8.18806C19.2264 8.08251 17.0746 7.50112 15.1264 6.97669C14.5337 6.81752 14.1665 6.22608 14.275 5.62961C14.1898 5.48552 14.0429 5.2409 13.8426 4.91586C13.7741 4.98456 13.709 5.05157 13.6523 5.11357C13.4419 5.33641 13.1732 5.48217 12.8743 5.53579L9.98795 6.05518L9.2701 4.51877C9.25007 4.47521 9.19999 4.45343 9.15325 4.46851L8.07815 4.82874C7.99635 4.85554 7.94126 4.93094 7.93959 5.01639L7.93124 5.29787C7.92123 5.60951 7.7643 5.89936 7.51056 6.07529C7.12826 6.33834 6.64748 6.3819 6.22679 6.19425L6.04816 6.11383V8.29697L4.47559 9.8183L5.10161 11.2056Z" fill="black"/>
<path d="M13.841 4.91248C13.841 4.91248 13.841 4.91415 13.8427 4.91583H13.8394L13.841 4.91248Z" fill="black"/>
<path d="M5.05673 0H4.65107C2.0852 0 0.00512695 2.08764 0.00512695 4.66284V5.3146L5.05673 5.29115V0Z" fill="black"/>
<path d="M21.2281 0H21.2331H6.04991V5.08171C6.1651 5.09512 6.27861 5.12527 6.38879 5.17386L6.63253 5.28277C6.73436 5.32801 6.84788 5.31963 6.94137 5.25931L6.94804 4.98789C6.96307 4.48357 7.29194 4.03957 7.76605 3.88207L8.84114 3.52185C9.36533 3.34592 9.93627 3.59222 10.17 4.09318L10.564 4.93595L12.6991 4.55226C12.7876 4.53551 12.8677 4.49195 12.9312 4.42493C12.9913 4.36126 13.0614 4.28921 13.1315 4.21549C13.3469 3.99265 13.6457 3.88542 13.9528 3.91893C14.26 3.95244 14.5288 4.12334 14.6907 4.38807C15.088 5.03647 15.29 5.4101 15.2984 5.50728C15.3084 5.60111 15.2884 5.67651 15.2583 5.78876C15.2333 5.88594 15.29 5.98479 15.3869 6.0116C19.8809 7.22129 19.9777 7.2481 20.0662 7.30507L22.1429 8.58345C22.5152 8.81299 22.7573 9.21008 22.7907 9.64738L22.8775 10.8102C22.9075 11.2022 22.7773 11.5976 22.5202 11.8959L20.8074 13.8696C20.6421 14.5465 20.0946 16.7162 19.7023 17.2741L19.6605 17.3328L17.5805 18.9898L15.7742 19.3383L15.7291 20.1777C15.7124 20.4927 15.6022 20.791 15.4119 21.0423C14.1982 22.644 13.5171 23.4633 13.3652 23.4985H13.3552C13.3085 23.5102 13.2567 23.5153 13.22 23.5169L13.0263 23.5287L11.579 22.3324C10.9546 21.818 10.8294 20.9233 11.2868 20.2548L11.8177 19.4791L11.412 18.328L10.9095 18.204C10.4555 18.0951 10.0915 17.7466 9.95964 17.2959L9.43044 15.4864L9.06651 14.203C9.03813 14.0991 8.958 14.017 8.85617 13.9818L7.6542 13.5663L5.21354 12.2008L4.45062 12.1807L3.2787 9.58539L5.05161 7.8697V6.2847L0.0033388 6.30816L0 5.31125V21.302C0 23.8772 2.08007 25.9648 4.64594 25.9648H21.2281C23.794 25.9648 25.874 23.8772 25.874 21.302V4.66452C25.874 2.08932 23.794 0 21.2281 0Z" fill="black"/>
<path d="M42.1958 2.70422H37.7234L31.8254 16.2471H36.4513L37.3578 13.8863H42.4846L43.391 16.2471H48.0937L48.0787 16.2119H48.2807V13.1475H46.7432L42.1958 2.70422ZM38.6099 10.5974L39.9204 7.19282L41.2308 10.5974H38.6099Z" fill="black"/>
<path d="M60.6627 15.2686C60.9883 15.0525 61.2571 14.8062 61.4741 14.5297L62.3422 14.9486L63.9565 11.5826L61.3706 10.3343C60.9415 9.82834 60.3606 9.43795 59.6244 9.16485C60.2404 8.85656 60.7062 8.44942 61.0217 7.94678C61.3372 7.44414 61.4941 6.87615 61.4941 6.2445C61.4941 5.17387 61.0334 4.31603 60.1152 3.67097C59.197 3.02759 57.8381 2.70422 56.0385 2.70422H48.8284V16.2454H56.4225C58.2722 16.2454 59.6862 15.9204 60.6627 15.2686ZM53.299 5.896H55.4192C56.4091 5.896 56.9033 6.22942 56.9033 6.90129C56.9033 7.57315 56.4091 7.90825 55.4192 7.90825H53.299V5.896ZM53.2974 13.0536V10.9258H56.0352C57.0385 10.9258 57.5393 11.281 57.5393 11.9897C57.5393 12.0601 57.5326 12.1271 57.5226 12.1908L57.3557 12.5409L57.3891 12.556C57.172 12.8878 56.7213 13.0536 56.0368 13.0536H53.299H53.2974Z" fill="black"/>
<path d="M72.4169 8.44098C71.7091 8.18966 70.8426 7.96682 69.8143 7.77415C69.0163 7.61833 68.4454 7.47424 68.0981 7.33852C67.7509 7.20281 67.5773 7.00008 67.5773 6.72865C67.5773 6.16066 68.1482 5.87751 69.3318 5.87751C70.5154 5.87751 71.7675 6.2126 73.0913 6.88279L74.4602 3.57541C73.7791 3.18837 72.9928 2.89517 72.0997 2.69578C71.2066 2.4964 70.2967 2.39587 69.3719 2.39587C68.023 2.39587 66.8761 2.59526 65.9313 2.99569C64.9864 3.39446 64.2769 3.94234 63.8011 4.63933C63.3253 5.33633 63.0883 6.1104 63.0883 6.96154C63.0883 7.94169 63.3454 8.71911 63.8595 9.29212C64.372 9.86681 64.9764 10.279 65.6708 10.5303C66.3653 10.7816 67.2334 11.0162 68.2734 11.2357C69.0831 11.4032 69.664 11.5574 70.018 11.6998C70.3719 11.8422 70.5488 12.055 70.5488 12.3381C70.5488 12.5828 70.4153 12.7671 70.1448 12.8894C69.8761 13.0117 69.4253 13.0737 68.796 13.0737C68.0631 13.0737 67.2985 12.9614 66.5022 12.7352C65.7059 12.509 64.9864 12.2091 64.3437 11.8355L62.8779 15.163C63.559 15.5886 64.4305 15.927 65.4905 16.1783H65.4889C66.5489 16.4313 67.6374 16.557 68.7559 16.557C70.1048 16.557 71.2516 16.3526 72.1965 15.9471C73.1414 15.5416 73.8509 14.9938 74.3267 14.3035C74.8008 13.6132 75.0395 12.8425 75.0395 11.9913C75.0395 11.0112 74.7791 10.2371 74.2582 9.66911C73.7374 9.1028 73.123 8.6923 72.4169 8.44098Z" fill="black"/>
<path d="M97.0373 2.70422H92.565L86.667 16.2471H91.2929L92.1994 13.8863H97.3261L98.2326 16.2471H102.935L97.0373 2.70422ZM93.4514 10.5974L94.7619 7.19282L96.0724 10.5974H93.4514Z" fill="black"/>
<path d="M113.766 12.0701C114.589 11.6446 115.219 11.0699 115.656 10.3477C116.093 9.62561 116.312 8.77949 116.312 7.81274C116.312 6.78065 116.062 5.87757 115.561 5.1035C115.06 4.32943 114.345 3.73632 113.421 3.32415C112.496 2.91031 111.411 2.70422 110.164 2.70422H103.668V16.2454H108.217V12.8408H109.451L109.447 12.8442L111.741 16.2488H116.599L113.766 12.0701ZM111.262 8.98222C110.955 9.25868 110.492 9.39774 109.875 9.39774H108.217V6.22439H109.875C110.491 6.22439 110.953 6.36346 111.262 6.63991C111.571 6.91804 111.724 7.30675 111.724 7.81107C111.724 8.31539 111.571 8.70577 111.262 8.98222Z" fill="black"/>
<path d="M116.815 6.2445H120.766V16.2471H125.315V6.2445H129.267V2.70422H116.815V6.2445Z" fill="black"/>
<path d="M132.36 14.8732C133.517 15.9958 135.13 16.557 137.198 16.557C139.266 16.557 140.879 15.9958 142.036 14.8732C143.193 13.7523 143.771 12.179 143.771 10.1534V2.70422H139.298V10.0177C139.298 11.0112 139.121 11.7334 138.767 12.1841C138.413 12.6348 137.903 12.8609 137.235 12.8609C136.567 12.8609 136.056 12.6364 135.702 12.1841C135.348 11.7334 135.171 11.0112 135.171 10.0177V2.70422H130.622V10.1534C130.622 12.1774 131.2 13.7506 132.357 14.8732H132.36Z" fill="black"/>
<path d="M149.912 12.9179H151.859C153.104 12.9179 154.191 12.7118 155.116 12.2997C156.042 11.8875 156.755 11.2944 157.256 10.5203C157.757 9.74624 158.007 8.84316 158.007 7.81107C158.007 6.77898 157.757 5.8759 157.256 5.10183C156.755 4.32776 156.041 3.73464 155.116 3.32247C154.191 2.91031 153.106 2.70422 151.859 2.70422H145.363V16.2454H149.912V12.9179ZM149.912 6.22439H151.57C152.186 6.22439 152.648 6.36346 152.957 6.63991C153.266 6.91804 153.42 7.30675 153.42 7.81107C153.42 8.31539 153.266 8.70577 152.957 8.98222C152.65 9.25868 152.188 9.39774 151.57 9.39774H149.912V6.22439Z" fill="black"/>
<path d="M170.219 9.66911C169.698 9.1028 169.083 8.6923 168.377 8.44098C167.669 8.18966 166.803 7.96682 165.775 7.77415C164.977 7.61833 164.406 7.47424 164.059 7.33852C163.711 7.20281 163.538 7.00008 163.538 6.72865C163.538 6.16066 164.109 5.87751 165.292 5.87751C166.476 5.87751 167.728 6.2126 169.052 6.88279L170.421 3.57541C169.738 3.18837 168.952 2.89517 168.058 2.69578C167.165 2.4964 166.255 2.39587 165.331 2.39587C163.982 2.39587 162.835 2.59526 161.89 2.99569C160.945 3.39446 160.236 3.94234 159.76 4.63933C159.284 5.33633 159.047 6.1104 159.047 6.96154C159.047 7.94169 159.304 8.71911 159.818 9.29212C160.331 9.86681 160.935 10.279 161.63 10.5303C162.324 10.7816 163.192 11.0162 164.232 11.2357C165.042 11.4032 165.623 11.5574 165.977 11.6998C166.331 11.8422 166.508 12.055 166.508 12.3381C166.508 12.5828 166.374 12.7671 166.104 12.8894C165.835 13.0117 165.384 13.0737 164.755 13.0737C164.022 13.0737 163.257 12.9614 162.461 12.7352C161.665 12.509 160.945 12.2091 160.302 11.8355L158.837 15.163C159.518 15.5886 160.389 15.927 161.449 16.1783C162.509 16.4313 163.598 16.557 164.716 16.557C166.065 16.557 167.212 16.3526 168.157 15.9471C169.102 15.5416 169.811 14.9938 170.287 14.3035C170.763 13.6132 171 12.8425 171 11.9913C171 11.0112 170.739 10.2371 170.219 9.66911Z" fill="black"/>
<path d="M79.1297 6.44219V16.2471H83.6788V6.44219H90.0793L91.7971 2.61206H75.1916V2.70421H75.1782V6.24449H75.1916V6.44219H79.1297Z" fill="black"/>
<path d="M57.9081 20.3906C57.8914 20.3487 57.8697 20.3168 57.843 20.2967C57.8163 20.2749 57.7779 20.2649 57.7278 20.2649H57.5158C57.4657 20.2649 57.4273 20.2766 57.4006 20.2967C57.3739 20.3185 57.3522 20.3487 57.3355 20.3906L55.7646 24.4351C55.7563 24.4603 55.7529 24.4837 55.7529 24.5038C55.7529 24.5374 55.7646 24.5658 55.7897 24.591C55.8147 24.6161 55.8431 24.6278 55.8765 24.6278H56C56.0417 24.6278 56.0735 24.6161 56.0968 24.5926C56.1185 24.5709 56.1336 24.5508 56.1369 24.534L56.5225 23.5371H58.7211L59.1068 24.534C59.1151 24.5508 59.1301 24.5692 59.1502 24.5926C59.1719 24.6161 59.2019 24.6278 59.2436 24.6278H59.3672C59.4006 24.6278 59.429 24.6161 59.454 24.591C59.479 24.5658 59.4907 24.5374 59.4907 24.5038C59.4907 24.4837 59.4874 24.4603 59.479 24.4351L57.9081 20.3906ZM56.6711 23.1635L57.621 20.7072L58.5709 23.1635H56.6711Z" fill="black"/>
<path d="M62.4239 22.5736C62.2219 22.4731 61.9648 22.3743 61.6543 22.2737C61.3589 22.1782 61.1201 22.0894 60.9332 22.009C60.7462 21.9286 60.6093 21.8348 60.5225 21.7292C60.4357 21.622 60.3923 21.4863 60.3923 21.3204C60.3923 21.0624 60.4891 20.873 60.6844 20.7524C60.8781 20.6318 61.1301 20.5715 61.4356 20.5715C61.7411 20.5715 61.9916 20.6385 62.1835 20.7742C62.3755 20.9099 62.484 21.0808 62.5091 21.2886C62.5174 21.3388 62.5358 21.3723 62.5675 21.3891C62.5975 21.4058 62.6243 21.4142 62.6443 21.4142H62.7678C62.8146 21.4142 62.848 21.4008 62.868 21.374C62.8897 21.3472 62.8997 21.3187 62.8997 21.2902C62.8947 21.1696 62.863 21.0473 62.7995 20.92C62.7361 20.7926 62.646 20.6753 62.5258 20.5647C62.4056 20.4542 62.2537 20.367 62.0717 20.3C61.8897 20.2347 61.676 20.2012 61.4323 20.2012C61.1251 20.2012 60.8664 20.2514 60.6527 20.3503C60.439 20.4508 60.2771 20.5849 60.1652 20.7524C60.0534 20.92 59.9983 21.111 59.9983 21.3221C59.9983 21.5516 60.0434 21.7376 60.1318 21.8833C60.2203 22.0291 60.3605 22.1514 60.5509 22.2536C60.7412 22.3558 60.9832 22.4547 61.2771 22.5502C61.5876 22.6507 61.843 22.7412 62.0416 22.8216C62.2403 22.9037 62.3889 22.9942 62.4857 23.0964C62.5825 23.1986 62.6309 23.3326 62.6309 23.4985C62.6309 23.7481 62.5391 23.9459 62.3521 24.0933C62.1652 24.2407 61.8697 24.3145 61.464 24.3145C61.1952 24.3145 60.9766 24.2759 60.8063 24.1989C60.636 24.1218 60.5075 24.0263 60.4206 23.9123C60.3338 23.7984 60.2821 23.6828 60.2654 23.5672C60.2621 23.5337 60.2487 23.5052 60.2253 23.4801C60.202 23.4549 60.1702 23.4432 60.1285 23.4432H60.005C59.9666 23.4432 59.9365 23.4549 59.9115 23.4801C59.8864 23.5052 59.8748 23.5337 59.8748 23.5672C59.8831 23.7582 59.9499 23.9392 60.0734 24.1101C60.1986 24.2809 60.3772 24.42 60.611 24.5272C60.8463 24.6362 61.1301 24.6898 61.4657 24.6898H61.4674C61.7912 24.6881 62.0683 24.6412 62.3004 24.5473C62.5324 24.4535 62.7111 24.3178 62.8379 24.1419C62.9631 23.966 63.0266 23.7498 63.0266 23.4968C63.0266 23.269 62.9782 23.083 62.878 22.9389C62.7778 22.7948 62.6259 22.6725 62.4239 22.5736Z" fill="black"/>
<path d="M66.1817 22.5736C65.9797 22.4731 65.7227 22.3743 65.4121 22.2737C65.1167 22.1782 64.8779 22.0894 64.691 22.009C64.504 21.9286 64.3671 21.8348 64.2803 21.7292C64.1935 21.622 64.1501 21.4863 64.1501 21.3204C64.1501 21.0624 64.2469 20.873 64.4422 20.7524C64.6359 20.6318 64.888 20.5715 65.1935 20.5715C65.499 20.5715 65.7494 20.6385 65.9413 20.7742C66.1333 20.9099 66.2418 21.0808 66.2669 21.2886C66.2752 21.3388 66.2936 21.3723 66.3253 21.3891C66.3554 21.4058 66.3821 21.4142 66.4021 21.4142H66.5256C66.5724 21.4142 66.6058 21.4008 66.6258 21.374C66.6475 21.3472 66.6575 21.3187 66.6575 21.2902C66.6525 21.1696 66.6208 21.0473 66.5574 20.92C66.4939 20.7926 66.4038 20.6753 66.2836 20.5647C66.1634 20.4542 66.0115 20.367 65.8295 20.3C65.6475 20.2347 65.4338 20.2012 65.1901 20.2012C64.8829 20.2012 64.6242 20.2514 64.4105 20.3503C64.1968 20.4508 64.0349 20.5849 63.923 20.7524C63.8112 20.92 63.7561 21.111 63.7561 21.3221C63.7561 21.5516 63.8012 21.7376 63.8897 21.8833C63.9781 22.0291 64.1184 22.1514 64.3087 22.2536C64.499 22.3558 64.741 22.4547 65.0349 22.5502C65.3454 22.6507 65.6008 22.7412 65.7994 22.8216C65.9981 22.9037 66.1467 22.9942 66.2435 23.0964C66.3403 23.1986 66.3887 23.3326 66.3887 23.4985C66.3887 23.7481 66.2969 23.9459 66.11 24.0933C65.923 24.2407 65.6275 24.3145 65.2218 24.3145C64.9531 24.3145 64.7344 24.2759 64.5641 24.1989C64.3938 24.1218 64.2653 24.0263 64.1785 23.9123C64.0917 23.7984 64.0399 23.6828 64.0232 23.5672C64.0199 23.5337 64.0065 23.5052 63.9831 23.4801C63.9598 23.4549 63.9281 23.4432 63.8863 23.4432H63.7628C63.7244 23.4432 63.6943 23.4549 63.6693 23.4801C63.6443 23.5052 63.6326 23.5337 63.6326 23.5672C63.6409 23.7582 63.7077 23.9392 63.8312 24.1101C63.9564 24.2809 64.1351 24.42 64.3688 24.5272C64.6042 24.6362 64.888 24.6898 65.2235 24.6898H65.2252C65.549 24.6881 65.8262 24.6412 66.0582 24.5473C66.2903 24.4535 66.4689 24.3178 66.5958 24.1419C66.721 23.966 66.7844 23.7498 66.7844 23.4968C66.7844 23.269 66.736 23.083 66.6358 22.9389C66.5357 22.7948 66.3837 22.6725 66.1817 22.5736Z" fill="black"/>
<path d="M70.5672 20.9602C70.4287 20.7055 70.2383 20.5145 69.9963 20.3905C69.7542 20.2649 69.4721 20.2029 69.1482 20.2029C68.8244 20.2029 68.5422 20.2665 68.3002 20.3905C68.0581 20.5145 67.8695 20.7055 67.7326 20.9602C67.5957 21.2165 67.5206 21.5366 67.5089 21.9236C67.5039 22.1096 67.5022 22.2855 67.5022 22.4463C67.5022 22.6072 67.5039 22.7814 67.5089 22.9691C67.5206 23.3611 67.5907 23.6828 67.7192 23.9392C67.8478 24.1939 68.0314 24.3832 68.2718 24.5055C68.5122 24.6278 68.8043 24.6898 69.1466 24.6898C69.4905 24.6898 69.7826 24.6278 70.0213 24.5055C70.2617 24.3832 70.447 24.1939 70.5772 23.9392C70.7091 23.6828 70.7776 23.3595 70.7859 22.9691C70.7943 22.7831 70.7976 22.6072 70.7976 22.4463C70.7976 22.2855 70.7943 22.1112 70.7859 21.9236C70.7776 21.5366 70.7041 21.2165 70.5655 20.9602H70.5672ZM70.3953 22.9389C70.3786 23.4265 70.2567 23.7767 70.0263 23.9928C69.7976 24.2089 69.5038 24.3162 69.1482 24.3162H69.1466C68.7943 24.3162 68.5022 24.2089 68.2701 23.9928C68.0381 23.7767 67.9145 23.4248 67.8978 22.9389C67.8928 22.7513 67.8912 22.5871 67.8912 22.4463C67.8912 22.3056 67.8928 22.1414 67.8978 21.9538C67.9112 21.6304 67.9713 21.3673 68.0815 21.1629C68.1917 20.9585 68.3386 20.8111 68.5222 20.7173C68.7058 20.6234 68.9095 20.5765 69.1466 20.5765C69.3836 20.5765 69.594 20.6234 69.7776 20.7173C69.9612 20.8111 70.1081 20.9602 70.2183 21.1629C70.3285 21.3657 70.3869 21.6304 70.3953 21.9538C70.4036 22.1414 70.407 22.3039 70.407 22.4463C70.407 22.5888 70.4036 22.7513 70.3953 22.9389Z" fill="black"/>
<path d="M72.3601 20.8949C72.5821 20.6804 72.8809 20.5732 73.2582 20.5732C73.5888 20.5732 73.8642 20.6419 74.0812 20.7792C74.2983 20.9166 74.4468 21.1696 74.5253 21.5399C74.5336 21.5885 74.5503 21.6237 74.5754 21.6421C74.6004 21.6605 74.6288 21.6706 74.6622 21.6706H74.7857C74.8241 21.6706 74.8558 21.6605 74.8825 21.6371C74.9093 21.6136 74.9193 21.5835 74.9159 21.5466C74.9076 21.3975 74.8709 21.245 74.8074 21.0892C74.7423 20.9334 74.6455 20.7876 74.5153 20.6536C74.3851 20.5195 74.2164 20.409 74.0094 20.3269C73.8024 20.2448 73.552 20.2029 73.2582 20.2029C72.8826 20.2029 72.5754 20.2749 72.3367 20.4207C72.098 20.5665 71.921 20.7675 71.8058 21.0222C71.6906 21.2769 71.6255 21.5684 71.6139 21.8918C71.6088 22.071 71.6072 22.2587 71.6072 22.453C71.6072 22.6474 71.6105 22.83 71.6139 23.0009C71.6255 23.3243 71.6906 23.6141 71.8058 23.8671C71.921 24.1201 72.098 24.3212 72.3367 24.4686C72.5738 24.6161 72.8809 24.6898 73.2582 24.6898V24.6848C73.552 24.6848 73.8024 24.6429 74.0094 24.5608C74.2164 24.4787 74.3851 24.3698 74.5153 24.2341C74.6455 24.1 74.744 23.9543 74.8074 23.7984C74.8709 23.6426 74.9076 23.4902 74.9159 23.341C74.9209 23.3042 74.9093 23.274 74.8825 23.2506C74.8558 23.2288 74.8224 23.2171 74.7857 23.2171H74.6622C74.6288 23.2171 74.6004 23.2271 74.5754 23.2455C74.5503 23.264 74.5336 23.2975 74.5253 23.3477C74.4468 23.718 74.2983 23.971 74.0812 24.1084C73.8642 24.2458 73.5888 24.3145 73.2582 24.3145C72.8809 24.3145 72.5821 24.2073 72.3601 23.9928C72.138 23.7783 72.0195 23.4365 72.0028 22.9674C71.9911 22.6105 71.9911 22.2604 72.0028 21.9202C72.0195 21.4511 72.138 21.1093 72.3601 20.8949Z" fill="black"/>
<path d="M76.0845 20.2665H75.966C75.9243 20.2665 75.8909 20.2782 75.8658 20.3033C75.8408 20.3285 75.8291 20.362 75.8291 20.4039V24.492C75.8291 24.5322 75.8408 24.5657 75.8658 24.5909C75.8909 24.616 75.9243 24.6277 75.966 24.6277H76.0845C76.1263 24.6277 76.1596 24.616 76.1847 24.5909C76.2097 24.5674 76.2214 24.5339 76.2214 24.492V20.4039C76.2214 20.362 76.2097 20.3285 76.1847 20.3033C76.1596 20.2782 76.1263 20.2665 76.0845 20.2665Z" fill="black"/>
<path d="M79.1095 20.3906C79.0928 20.3487 79.0711 20.3168 79.0444 20.2967C79.0177 20.2749 78.9793 20.2649 78.9292 20.2649H78.7172C78.6672 20.2649 78.6288 20.2766 78.602 20.2967C78.5753 20.3185 78.5536 20.3487 78.5369 20.3906L76.966 24.4351C76.9577 24.4603 76.9543 24.4837 76.9543 24.5038C76.9543 24.5374 76.966 24.5658 76.9911 24.591C77.0161 24.6161 77.0445 24.6278 77.0779 24.6278H77.2014C77.2432 24.6278 77.2749 24.6161 77.2982 24.5926C77.3199 24.5709 77.335 24.5508 77.3383 24.534L77.7239 23.5371H79.9225L80.3082 24.534C80.3165 24.5508 80.3315 24.5692 80.3516 24.5926C80.3733 24.6161 80.4033 24.6278 80.4451 24.6278H80.5686C80.602 24.6278 80.6304 24.6161 80.6554 24.591C80.6804 24.5658 80.6921 24.5374 80.6921 24.5038C80.6921 24.4837 80.6888 24.4603 80.6804 24.4351L79.1095 20.3906ZM77.8725 23.1635L78.8224 20.7072L79.7723 23.1635H77.8725Z" fill="black"/>
<path d="M81.9209 20.8949C82.1429 20.6804 82.4417 20.5732 82.819 20.5732C83.1495 20.5732 83.425 20.6419 83.642 20.7792C83.859 20.9166 84.0076 21.1696 84.0861 21.5399C84.0944 21.5885 84.1111 21.6237 84.1362 21.6421C84.1612 21.6605 84.1896 21.6706 84.223 21.6706H84.3465C84.3849 21.6706 84.4166 21.6605 84.4433 21.6371C84.47 21.6136 84.4801 21.5835 84.4767 21.5466C84.4684 21.3975 84.4316 21.245 84.3682 21.0892C84.3031 20.9334 84.2063 20.7876 84.0761 20.6536C83.9459 20.5195 83.7772 20.409 83.5702 20.3269C83.3632 20.2448 83.1128 20.2029 82.819 20.2029C82.4434 20.2029 82.1362 20.2749 81.8975 20.4207C81.6588 20.5665 81.4818 20.7675 81.3666 21.0222C81.2514 21.2769 81.1863 21.5684 81.1746 21.8918C81.1696 22.071 81.168 22.2587 81.168 22.453C81.168 22.6474 81.1713 22.83 81.1746 23.0009C81.188 23.2925 81.2398 23.5555 81.3332 23.7901C81.4267 24.0246 81.567 24.2173 81.7556 24.3698C81.9442 24.5223 82.1863 24.6211 82.4851 24.6663L82.3616 24.9596C82.3499 24.9897 82.3349 25.0215 82.3215 25.0567C82.3082 25.0919 82.3115 25.1221 82.3315 25.1472L82.4317 25.2528C82.4651 25.2863 82.4968 25.298 82.5285 25.293C82.5602 25.2879 82.597 25.2745 82.6404 25.2561C82.6838 25.2377 82.7389 25.2276 82.8056 25.2276C82.8774 25.2276 82.9392 25.2477 82.9926 25.2896C83.046 25.3315 83.0728 25.3885 83.0728 25.4639C83.0728 25.5393 83.046 25.6046 82.9926 25.6482C82.9375 25.6917 82.8758 25.7135 82.8056 25.7135C82.7138 25.7135 82.6437 25.6968 82.597 25.6632C82.5486 25.6314 82.5102 25.6029 82.4818 25.5828C82.4517 25.561 82.4184 25.5677 82.3816 25.6013L82.2948 25.6817C82.2631 25.7118 82.2648 25.7504 82.3048 25.8006C82.3432 25.8509 82.4083 25.8945 82.4968 25.9347C82.5853 25.9732 82.6888 25.995 82.804 26L82.8006 25.9967C82.9943 26 83.1412 25.9481 83.238 25.8375C83.3348 25.7269 83.3833 25.5962 83.3833 25.4471C83.3833 25.298 83.3382 25.1757 83.2497 25.0802C83.1596 24.983 83.0477 24.9361 82.9108 24.9361C82.8657 24.9361 82.8207 24.9394 82.7773 24.9478C82.7339 24.9562 82.7005 24.9679 82.6754 24.9847L82.819 24.6848C83.1128 24.6848 83.3632 24.6429 83.5702 24.5608C83.7772 24.4787 83.9459 24.3698 84.0761 24.2341C84.2063 24.1 84.3048 23.9543 84.3682 23.7984C84.4316 23.6426 84.4684 23.4902 84.4767 23.341C84.4817 23.3042 84.47 23.274 84.4433 23.2506C84.4166 23.2288 84.3832 23.2171 84.3465 23.2171H84.223C84.1896 23.2171 84.1612 23.2271 84.1362 23.2455C84.1111 23.264 84.0944 23.2975 84.0861 23.3477C84.0076 23.718 83.859 23.971 83.642 24.1084C83.425 24.2458 83.1495 24.3145 82.819 24.3145C82.4417 24.3145 82.1429 24.2073 81.9209 23.9928C81.6988 23.7783 81.5803 23.4365 81.5636 22.9674C81.5519 22.6105 81.5519 22.2604 81.5636 21.9202C81.5803 21.4511 81.6988 21.1093 81.9209 20.8949Z" fill="black"/>
<path d="M87.0759 20.3906C87.0592 20.3487 87.0375 20.3168 87.0108 20.2967C86.9841 20.2749 86.9457 20.2649 86.8956 20.2649H86.6852C86.6352 20.2649 86.5968 20.2766 86.5701 20.2967C86.5434 20.3185 86.5216 20.3487 86.505 20.3906L84.934 24.4351C84.9257 24.4603 84.9224 24.4837 84.9224 24.5038C84.9224 24.5374 84.934 24.5658 84.9591 24.591C84.9841 24.6161 85.0125 24.6278 85.0459 24.6278H85.1678C85.2095 24.6278 85.2412 24.6161 85.2646 24.5926C85.2863 24.5709 85.3013 24.5508 85.3047 24.534L85.6903 23.5371H87.8889L88.2745 24.534C88.2829 24.5508 88.2979 24.5692 88.3179 24.5926C88.3396 24.6161 88.3697 24.6278 88.4114 24.6278H88.5349C88.5683 24.6278 88.5967 24.6161 88.6217 24.591C88.6468 24.5658 88.6585 24.5374 88.6585 24.5038C88.6585 24.4837 88.6551 24.4603 88.6468 24.4351L87.0759 20.3906ZM85.8405 23.1635L86.7904 20.7072L87.7403 23.1635H85.8405Z" fill="black"/>
<path d="M86.0492 19.6785C86.0258 19.7371 86.0142 19.7941 86.0142 19.8527C86.0142 19.8778 86.0242 19.9013 86.0425 19.9214C86.0609 19.9432 86.086 19.9532 86.1143 19.9532H86.2379C86.2846 19.9532 86.3163 19.9382 86.3347 19.9063C86.353 19.8745 86.3731 19.8443 86.3931 19.8158C86.4132 19.7874 86.4465 19.7723 86.4916 19.7723C86.5484 19.7723 86.6068 19.7907 86.6619 19.8259C86.7186 19.8611 86.7804 19.8963 86.8489 19.9315C86.9173 19.9666 86.9991 19.9851 87.0943 19.9851H87.0959C87.1577 19.9851 87.2178 19.97 87.2729 19.9415C87.328 19.913 87.3781 19.8745 87.4215 19.8259C87.4649 19.7773 87.4983 19.7254 87.5233 19.6667C87.5483 19.6081 87.56 19.5511 87.56 19.4925C87.56 19.4673 87.5517 19.4439 87.535 19.4238C87.5183 19.402 87.4933 19.392 87.4599 19.392H87.3363C87.2896 19.392 87.2579 19.407 87.2395 19.4389C87.2211 19.4707 87.2028 19.5009 87.1844 19.5327C87.166 19.5645 87.1327 19.5796 87.0826 19.5796C87.0242 19.5796 86.9674 19.5612 86.9123 19.526C86.8555 19.4908 86.7938 19.4556 86.7253 19.4204C86.6569 19.3853 86.5717 19.3668 86.4732 19.3668C86.4115 19.3668 86.3514 19.3802 86.2963 19.407C86.2412 19.4338 86.1911 19.4707 86.1477 19.5193C86.1043 19.5679 86.0709 19.6198 86.0492 19.6785Z" fill="black"/>
<path d="M92.2076 20.9602C92.069 20.7055 91.8787 20.5162 91.6367 20.3905C91.3946 20.2649 91.1125 20.2029 90.7886 20.2029C90.4648 20.2029 90.1826 20.2665 89.9406 20.3905C89.6985 20.5145 89.5098 20.7055 89.373 20.9602C89.2361 21.2165 89.1626 21.5366 89.1493 21.9236C89.1443 22.1096 89.1426 22.2855 89.1426 22.4463C89.1426 22.6072 89.1459 22.7814 89.1493 22.9691C89.1626 23.3611 89.2327 23.6828 89.3613 23.9392C89.4898 24.1939 89.6734 24.3832 89.9138 24.5055C90.1542 24.6278 90.4447 24.6898 90.7886 24.6898C91.1325 24.6898 91.423 24.6278 91.6634 24.5055C91.9038 24.3832 92.0891 24.1939 92.2193 23.9392C92.3512 23.6828 92.4196 23.3595 92.428 22.9691C92.4363 22.7831 92.4396 22.6072 92.4396 22.4463C92.4396 22.2855 92.4363 22.1112 92.428 21.9236C92.4196 21.5366 92.3462 21.2165 92.2076 20.9602ZM92.0373 22.9389C92.0206 23.4265 91.8988 23.7767 91.6684 23.9928C91.4397 24.2089 91.1459 24.3162 90.7903 24.3162H90.7886C90.4364 24.3162 90.1442 24.2089 89.9122 23.9928C89.6801 23.7767 89.5566 23.4248 89.5399 22.9389C89.5349 22.7513 89.5332 22.5871 89.5332 22.4463C89.5332 22.3056 89.5366 22.1414 89.5399 21.9538C89.5533 21.6304 89.6134 21.3673 89.7235 21.1629C89.8337 20.9585 89.9806 20.8111 90.1643 20.7173C90.3496 20.6234 90.5516 20.5765 90.7886 20.5765C91.0257 20.5765 91.236 20.6234 91.4196 20.7173C91.6033 20.8111 91.7502 20.9602 91.8604 21.1629C91.9705 21.3657 92.029 21.6304 92.0373 21.9538C92.0457 22.1414 92.049 22.3039 92.049 22.4463C92.049 22.5888 92.0457 22.7513 92.0373 22.9389Z" fill="black"/>
<path d="M97.4929 22.329C97.5764 22.2871 97.6599 22.2268 97.745 22.148C97.8285 22.0693 97.9003 21.9654 97.9553 21.8398C98.0104 21.7141 98.0388 21.5616 98.0388 21.3823C98.0388 21.183 97.9954 20.9987 97.9086 20.8311C97.8218 20.6619 97.6849 20.5262 97.5013 20.4223C97.3176 20.3184 97.0806 20.2665 96.7901 20.2665H95.1691C95.1274 20.2665 95.094 20.2782 95.0689 20.3033C95.0439 20.3285 95.0322 20.3637 95.0322 20.4089V24.492C95.0322 24.5322 95.0439 24.5657 95.0689 24.5909C95.094 24.616 95.1274 24.6277 95.1691 24.6277H96.8352C97.1173 24.6277 97.3544 24.5691 97.5463 24.4501C97.7383 24.3329 97.8836 24.1787 97.9804 23.9894C98.0772 23.8001 98.1256 23.6023 98.1256 23.3946C98.1256 23.1332 98.0622 22.9104 97.9336 22.7277C97.8051 22.5451 97.6582 22.4128 97.4929 22.329ZM95.4245 20.6384H96.71C97.0171 20.6384 97.2492 20.7021 97.4095 20.8261C97.568 20.9501 97.6482 21.1361 97.6482 21.3807C97.6482 21.6253 97.568 21.8163 97.4095 21.9537C97.2492 22.0911 97.0171 22.1598 96.71 22.1598H95.4245V20.6384ZM97.4829 24.0112C97.316 24.1737 97.0772 24.2541 96.7717 24.2541H95.4245V22.5351H96.7717C97.0789 22.5351 97.316 22.6155 97.4829 22.7747C97.6515 22.9338 97.735 23.1466 97.735 23.3946C97.735 23.6426 97.6498 23.8486 97.4829 24.0112Z" fill="black"/>
<path d="M101.162 22.7277C101.456 22.6574 101.686 22.5217 101.852 22.3223C102.017 22.1229 102.1 21.8565 102.1 21.5248C102.1 21.1009 101.97 20.7859 101.711 20.5781C101.453 20.3704 101.105 20.2665 100.671 20.2665H99.2241C99.1823 20.2665 99.1489 20.2782 99.1239 20.3033C99.0988 20.3285 99.0872 20.3637 99.0872 20.4089V24.492C99.0872 24.5322 99.0988 24.5657 99.1239 24.5909C99.1489 24.616 99.1823 24.6277 99.2241 24.6277V24.6244H99.3376C99.3826 24.6244 99.4177 24.6127 99.4427 24.5875C99.4678 24.5641 99.4795 24.5306 99.4795 24.4887V22.7814H100.758L101.747 24.4585C101.772 24.5004 101.8 24.5389 101.833 24.5741C101.867 24.6093 101.915 24.6277 101.982 24.6277H102.057C102.09 24.6277 102.119 24.616 102.144 24.5909C102.169 24.5657 102.181 24.5373 102.181 24.5038C102.181 24.4836 102.174 24.4602 102.162 24.4351L101.162 22.7277ZM100.641 22.4094H99.4795V20.6401H100.641C101.002 20.6401 101.271 20.7138 101.446 20.8613C101.621 21.0087 101.71 21.2299 101.71 21.5248C101.71 21.8196 101.621 22.0408 101.446 22.1882C101.269 22.3357 101.002 22.4094 100.641 22.4094Z" fill="black"/>
<path d="M104.781 20.3906C104.765 20.3487 104.743 20.3168 104.716 20.2967C104.69 20.2749 104.651 20.2649 104.601 20.2649H104.391C104.341 20.2649 104.302 20.2766 104.276 20.2967C104.249 20.3185 104.227 20.3487 104.211 20.3906L102.64 24.4351C102.631 24.4603 102.628 24.4837 102.628 24.5038C102.628 24.5374 102.64 24.5658 102.665 24.591C102.69 24.6161 102.718 24.6278 102.751 24.6278H102.873C102.915 24.6278 102.948 24.6144 102.97 24.5926C102.992 24.5709 103.007 24.5508 103.01 24.534L103.396 23.5371H105.594L105.98 24.534C105.988 24.5508 106.003 24.5692 106.023 24.5926C106.045 24.6161 106.075 24.6278 106.117 24.6278H106.241C106.274 24.6278 106.302 24.6161 106.327 24.591C106.352 24.5658 106.364 24.5374 106.364 24.5038C106.364 24.4837 106.361 24.4603 106.352 24.4351L104.781 20.3906ZM103.546 23.1635L104.496 20.7072L105.446 23.1635H103.546Z" fill="black"/>
<path d="M109.299 22.5736C109.097 22.4731 108.84 22.3743 108.529 22.2737C108.234 22.1782 107.995 22.0894 107.808 22.009C107.621 21.9286 107.484 21.8348 107.397 21.7292C107.311 21.622 107.267 21.4863 107.267 21.3204C107.267 21.0624 107.364 20.873 107.559 20.7524C107.753 20.6318 108.005 20.5715 108.311 20.5715C108.616 20.5715 108.867 20.6385 109.059 20.7742C109.251 20.9099 109.359 21.0808 109.384 21.2886C109.392 21.3388 109.411 21.3723 109.442 21.3891C109.474 21.4058 109.501 21.4142 109.521 21.4142H109.644C109.69 21.4142 109.721 21.4008 109.743 21.374C109.765 21.3472 109.775 21.3187 109.775 21.2902C109.77 21.1696 109.738 21.0473 109.675 20.92C109.611 20.7926 109.521 20.6753 109.401 20.5647C109.281 20.4542 109.129 20.367 108.947 20.3C108.765 20.2347 108.551 20.2012 108.307 20.2012C108 20.2012 107.741 20.2514 107.528 20.3503C107.314 20.4508 107.152 20.5849 107.04 20.7524C106.928 20.92 106.873 21.111 106.873 21.3221C106.873 21.5516 106.918 21.7376 107.007 21.8833C107.095 22.0291 107.236 22.1514 107.426 22.2536C107.616 22.3558 107.858 22.4547 108.152 22.5502C108.463 22.6507 108.718 22.7412 108.917 22.8216C109.115 22.9037 109.264 22.9942 109.361 23.0964C109.458 23.1986 109.506 23.3326 109.506 23.4985C109.506 23.7481 109.414 23.9459 109.227 24.0933C109.04 24.2407 108.745 24.3145 108.339 24.3145C108.07 24.3145 107.852 24.2759 107.681 24.1989C107.511 24.1218 107.382 24.0263 107.296 23.9123C107.209 23.7984 107.157 23.6828 107.14 23.5672C107.137 23.5337 107.124 23.5052 107.1 23.4801C107.077 23.4549 107.045 23.4432 107.003 23.4432H106.88C106.842 23.4432 106.812 23.4549 106.786 23.4801C106.761 23.5052 106.75 23.5337 106.75 23.5672C106.758 23.7582 106.825 23.9392 106.948 24.1101C107.074 24.2809 107.252 24.42 107.486 24.5272C107.721 24.6362 108.005 24.6898 108.341 24.6898H108.344C108.666 24.6881 108.943 24.6412 109.175 24.5473C109.407 24.4535 109.586 24.3178 109.713 24.1419C109.838 23.966 109.902 23.7498 109.902 23.4968C109.902 23.269 109.853 23.083 109.753 22.9389C109.653 22.7948 109.501 22.6725 109.299 22.5736Z" fill="black"/>
<path d="M111.05 20.2665H110.932C110.89 20.2665 110.856 20.2782 110.831 20.3033C110.806 20.3285 110.795 20.362 110.795 20.4039V24.492C110.795 24.5322 110.806 24.5657 110.831 24.5909C110.856 24.616 110.89 24.6277 110.932 24.6277H111.05C111.09 24.6277 111.124 24.616 111.149 24.5909C111.174 24.5674 111.185 24.5339 111.185 24.492V20.4039C111.185 20.362 111.172 20.3285 111.149 20.3033C111.125 20.2782 111.092 20.2665 111.05 20.2665Z" fill="black"/>
<path d="M114.885 24.2558H112.743V20.4039C112.743 20.362 112.73 20.3285 112.706 20.3033C112.683 20.2782 112.649 20.2665 112.608 20.2665H112.489C112.447 20.2665 112.414 20.2782 112.389 20.3033C112.364 20.3285 112.352 20.362 112.352 20.4039V24.492C112.352 24.5322 112.364 24.5657 112.389 24.5909C112.414 24.616 112.447 24.6277 112.489 24.6277H114.885C114.93 24.6277 114.965 24.616 114.99 24.5909C115.013 24.5674 115.027 24.5339 115.027 24.492V24.3982C115.027 24.353 115.015 24.3161 114.99 24.2926C114.965 24.2692 114.93 24.2558 114.885 24.2558Z" fill="black"/>
<path d="M118.365 24.2558H116.148V22.6038H118.18C118.225 22.6038 118.26 22.592 118.285 22.5669C118.31 22.5418 118.322 22.5083 118.322 22.4664V22.3725C118.322 22.3273 118.31 22.2921 118.285 22.267C118.26 22.2419 118.225 22.2301 118.18 22.2301H116.148V20.6401H118.315C118.36 20.6401 118.395 20.6284 118.42 20.6033C118.446 20.5781 118.457 20.5446 118.457 20.5027V20.4089C118.457 20.3637 118.446 20.3285 118.42 20.3033C118.395 20.2782 118.36 20.2665 118.315 20.2665H115.893C115.851 20.2665 115.818 20.2782 115.793 20.3033C115.768 20.3285 115.756 20.3637 115.756 20.4089V24.492C115.756 24.5322 115.768 24.5657 115.793 24.5909C115.818 24.616 115.851 24.6277 115.893 24.6277H118.365C118.41 24.6277 118.445 24.616 118.471 24.5909C118.496 24.5674 118.507 24.5339 118.507 24.492V24.3982C118.507 24.353 118.496 24.3178 118.471 24.2926C118.445 24.2692 118.41 24.2558 118.365 24.2558Z" fill="black"/>
<path d="M119.688 20.2665H119.569C119.527 20.2665 119.494 20.2782 119.469 20.3033C119.444 20.3285 119.432 20.362 119.432 20.4039V24.492C119.432 24.5322 119.444 24.5657 119.469 24.5909C119.494 24.616 119.527 24.6277 119.569 24.6277H119.688C119.728 24.6277 119.761 24.616 119.786 24.5909C119.811 24.5674 119.823 24.5339 119.823 24.492V20.4039C119.823 20.362 119.809 20.3285 119.786 20.3033C119.763 20.2782 119.729 20.2665 119.688 20.2665Z" fill="black"/>
<path d="M123.067 22.7277C123.36 22.6574 123.591 22.5217 123.756 22.3223C123.921 22.1229 124.005 21.8565 124.005 21.5248C124.005 21.1009 123.875 20.7859 123.616 20.5781C123.357 20.3704 123.01 20.2665 122.576 20.2665H121.128C121.087 20.2665 121.053 20.2782 121.028 20.3033C121.003 20.3285 120.991 20.3637 120.991 20.4089V24.492C120.991 24.5322 121.003 24.5657 121.028 24.5909C121.053 24.616 121.087 24.6277 121.128 24.6277V24.6244H121.242C121.287 24.6244 121.322 24.6127 121.347 24.5875C121.372 24.5641 121.384 24.5306 121.384 24.4887V22.7814H122.663L123.651 24.4585C123.676 24.5004 123.704 24.5389 123.738 24.5741C123.771 24.6093 123.819 24.6277 123.886 24.6277H123.961C123.995 24.6277 124.023 24.616 124.048 24.5909C124.073 24.5657 124.085 24.5373 124.085 24.5038C124.085 24.4836 124.078 24.4602 124.066 24.4351L123.067 22.7277ZM122.546 22.4094H121.384V20.6401H122.546C122.906 20.6401 123.175 20.7138 123.35 20.8613C123.526 21.0087 123.614 21.2299 123.614 21.5248C123.614 21.8196 123.526 22.0408 123.35 22.1882C123.173 22.3357 122.906 22.4094 122.546 22.4094Z" fill="black"/>
<path d="M126.686 20.3906C126.669 20.3487 126.647 20.3168 126.621 20.2967C126.594 20.2749 126.556 20.2649 126.505 20.2649H126.295C126.245 20.2649 126.207 20.2766 126.18 20.2967C126.153 20.3185 126.132 20.3487 126.115 20.3906L124.544 24.4351C124.536 24.4603 124.532 24.4837 124.532 24.5038C124.532 24.5374 124.544 24.5658 124.569 24.591C124.594 24.6161 124.622 24.6278 124.656 24.6278H124.778C124.819 24.6278 124.853 24.6144 124.874 24.5926C124.896 24.5709 124.911 24.5508 124.915 24.534L125.3 23.5371H127.499L127.884 24.534C127.893 24.5508 127.908 24.5692 127.928 24.5926C127.949 24.6161 127.98 24.6278 128.021 24.6278H128.145C128.178 24.6278 128.207 24.6161 128.232 24.591C128.257 24.5658 128.268 24.5374 128.268 24.5038C128.268 24.4837 128.265 24.4603 128.257 24.4351L126.686 20.3906ZM125.45 23.1635L126.4 20.7072L127.35 23.1635H125.45Z" fill="black"/>
<path d="M133.459 21.0288C133.353 20.7775 133.176 20.5882 132.928 20.4592C132.679 20.3301 132.335 20.2665 131.896 20.2665H130.574C130.532 20.2665 130.499 20.2782 130.474 20.3033C130.449 20.3285 130.437 20.3637 130.437 20.4089V24.492C130.437 24.5322 130.449 24.5657 130.474 24.5909C130.499 24.616 130.532 24.6277 130.574 24.6277V24.6311H131.929C132.357 24.6311 132.692 24.5691 132.936 24.4468C133.18 24.3245 133.353 24.1385 133.457 23.8889C133.56 23.6392 133.616 23.3225 133.624 22.9405C133.629 22.7529 133.631 22.5887 133.631 22.4446C133.631 22.3005 133.627 22.1363 133.624 21.9487C133.619 21.5868 133.564 21.2801 133.459 21.0288ZM133.24 22.5803C133.24 22.6725 133.237 22.783 133.233 22.907C133.23 23.2321 133.185 23.4918 133.1 23.6895C133.015 23.8872 132.876 24.0313 132.684 24.1201C132.49 24.2089 132.228 24.2541 131.898 24.2541H130.829V20.6384H131.866C132.363 20.6384 132.712 20.7473 132.916 20.9652C133.12 21.1846 133.225 21.5214 133.233 21.9788C133.238 22.1028 133.24 22.21 133.24 22.3022V22.5803Z" fill="black"/>
<path d="M137.251 24.2558H135.034V22.6038H137.066C137.111 22.6038 137.146 22.592 137.171 22.5669C137.196 22.5418 137.208 22.5083 137.208 22.4664V22.3725C137.208 22.3273 137.196 22.2921 137.171 22.267C137.146 22.2419 137.111 22.2301 137.066 22.2301H135.034V20.6401H137.201C137.246 20.6401 137.281 20.6284 137.306 20.6033C137.331 20.5781 137.343 20.5446 137.343 20.5027V20.4089C137.343 20.3637 137.331 20.3285 137.306 20.3033C137.281 20.2782 137.246 20.2665 137.201 20.2665H134.779C134.737 20.2665 134.704 20.2782 134.679 20.3033C134.654 20.3285 134.642 20.3637 134.642 20.4089V24.492C134.642 24.5322 134.654 24.5657 134.679 24.5909C134.704 24.616 134.737 24.6277 134.779 24.6277H137.251C137.296 24.6277 137.331 24.616 137.357 24.5909C137.382 24.5674 137.393 24.5339 137.393 24.492V24.3982C137.393 24.353 137.382 24.3178 137.357 24.2926C137.331 24.2692 137.296 24.2558 137.251 24.2558Z" fill="black"/>
<path d="M142.183 22.5736C141.981 22.4731 141.724 22.3743 141.413 22.2737C141.118 22.1782 140.879 22.0894 140.692 22.009C140.505 21.9286 140.368 21.8348 140.281 21.7292C140.194 21.622 140.151 21.4863 140.151 21.3204C140.151 21.0624 140.248 20.873 140.443 20.7524C140.637 20.6318 140.889 20.5715 141.194 20.5715C141.5 20.5715 141.75 20.6385 141.942 20.7742C142.134 20.9099 142.243 21.0808 142.268 21.2886C142.276 21.3388 142.295 21.3723 142.326 21.3891C142.358 21.4058 142.385 21.4142 142.405 21.4142H142.528C142.573 21.4142 142.605 21.4008 142.627 21.374C142.648 21.3472 142.658 21.3187 142.658 21.2902C142.653 21.1696 142.622 21.0473 142.558 20.92C142.495 20.7926 142.405 20.6753 142.285 20.5647C142.164 20.4542 142.012 20.367 141.83 20.3C141.649 20.2347 141.435 20.2012 141.191 20.2012C140.884 20.2012 140.625 20.2514 140.411 20.3503C140.198 20.4508 140.036 20.5849 139.924 20.7524C139.812 20.92 139.757 21.111 139.757 21.3221C139.757 21.5516 139.802 21.7376 139.891 21.8833C139.979 22.0291 140.119 22.1514 140.31 22.2536C140.5 22.3558 140.742 22.4547 141.036 22.5502C141.346 22.6507 141.602 22.7412 141.8 22.8216C141.999 22.9037 142.148 22.9942 142.244 23.0964C142.341 23.1986 142.39 23.3326 142.39 23.4985C142.39 23.7481 142.298 23.9459 142.111 24.0933C141.924 24.2407 141.628 24.3145 141.223 24.3145C140.954 24.3145 140.735 24.2759 140.565 24.1989C140.395 24.1218 140.266 24.0263 140.179 23.9123C140.093 23.7984 140.041 23.6828 140.024 23.5672C140.021 23.5337 140.007 23.5052 139.984 23.4801C139.961 23.4549 139.929 23.4432 139.887 23.4432H139.764C139.725 23.4432 139.695 23.4549 139.67 23.4801C139.645 23.5052 139.634 23.5337 139.634 23.5672C139.642 23.7582 139.709 23.9392 139.832 24.1101C139.957 24.2809 140.136 24.42 140.37 24.5272C140.605 24.6362 140.889 24.6898 141.224 24.6898H141.228C141.55 24.6881 141.827 24.6412 142.059 24.5473C142.291 24.4535 142.47 24.3178 142.597 24.1419C142.722 23.966 142.785 23.7498 142.785 23.4968C142.785 23.269 142.737 23.083 142.637 22.9389C142.537 22.7948 142.385 22.6725 142.183 22.5736Z" fill="black"/>
<path d="M146.3 20.6033C146.325 20.5781 146.336 20.5446 146.336 20.5027V20.4089C146.336 20.3637 146.325 20.3285 146.3 20.3033C146.275 20.2782 146.24 20.2665 146.194 20.2665H143.35C143.308 20.2665 143.275 20.2782 143.25 20.3033C143.225 20.3285 143.213 20.3637 143.213 20.4089V20.5027C143.213 20.5446 143.225 20.5798 143.25 20.6033C143.275 20.6267 143.308 20.6401 143.35 20.6401H144.58V24.492C144.58 24.5322 144.592 24.5657 144.617 24.5909C144.64 24.616 144.674 24.6277 144.715 24.6277H144.829C144.874 24.6277 144.909 24.6143 144.934 24.5909C144.959 24.5674 144.971 24.5339 144.971 24.492V20.6401H146.194C146.24 20.6401 146.275 20.6284 146.3 20.6033Z" fill="black"/>
<path d="M148.341 20.3906C148.325 20.3487 148.303 20.3168 148.276 20.2967C148.249 20.2749 148.211 20.2649 148.161 20.2649H147.951C147.901 20.2649 147.862 20.2766 147.835 20.2967C147.809 20.3185 147.787 20.3487 147.77 20.3906L146.199 24.4351C146.191 24.4603 146.188 24.4837 146.188 24.5038C146.188 24.5374 146.199 24.5658 146.224 24.591C146.25 24.6161 146.278 24.6278 146.311 24.6278H146.433C146.475 24.6278 146.508 24.6144 146.53 24.5926C146.552 24.5709 146.567 24.5508 146.57 24.534L146.956 23.5371H149.154L149.54 24.534C149.548 24.5508 149.563 24.5692 149.583 24.5926C149.605 24.6161 149.635 24.6278 149.677 24.6278H149.8C149.834 24.6278 149.862 24.6161 149.887 24.591C149.912 24.5658 149.924 24.5374 149.924 24.5038C149.924 24.4837 149.921 24.4603 149.912 24.4351L148.341 20.3906ZM147.106 23.1635L148.056 20.7072L149.006 23.1635H147.106Z" fill="black"/>
<path d="M152.734 22.7277C153.027 22.6574 153.258 22.5217 153.423 22.3223C153.588 22.1229 153.672 21.8565 153.672 21.5248C153.672 21.1009 153.542 20.7859 153.283 20.5781C153.024 20.3704 152.677 20.2665 152.243 20.2665H150.795C150.754 20.2665 150.72 20.2782 150.695 20.3033C150.67 20.3285 150.658 20.3637 150.658 20.4089V24.492C150.658 24.5322 150.67 24.5657 150.695 24.5909C150.72 24.616 150.754 24.6277 150.795 24.6277V24.6244H150.909C150.954 24.6244 150.989 24.6127 151.014 24.5875C151.039 24.5641 151.051 24.5306 151.051 24.4887V22.7814H152.33L153.318 24.4585C153.343 24.5004 153.371 24.5389 153.405 24.5741C153.438 24.6093 153.486 24.6277 153.553 24.6277H153.628C153.662 24.6277 153.69 24.616 153.715 24.5909C153.74 24.5657 153.752 24.5373 153.752 24.5038C153.752 24.4836 153.745 24.4602 153.733 24.4351L152.734 22.7277ZM152.213 22.4094H151.051V20.6401H152.213C152.573 20.6401 152.842 20.7138 153.017 20.8613C153.193 21.0087 153.281 21.2299 153.281 21.5248C153.281 21.8196 153.193 22.0408 153.017 22.1882C152.84 22.3357 152.573 22.4094 152.213 22.4094Z" fill="black"/>
<path d="M157.142 20.2665H154.298C154.256 20.2665 154.222 20.2782 154.197 20.3033C154.172 20.3285 154.161 20.3637 154.161 20.4089V20.5027C154.161 20.5446 154.172 20.5798 154.197 20.6033C154.222 20.6267 154.256 20.6401 154.298 20.6401H155.528V24.492C155.528 24.5322 155.54 24.5657 155.565 24.5909C155.588 24.616 155.621 24.6277 155.663 24.6277H155.777C155.822 24.6277 155.857 24.6143 155.882 24.5909C155.907 24.5674 155.919 24.5339 155.919 24.492V20.6401H157.142C157.187 20.6401 157.222 20.6284 157.247 20.6033C157.272 20.5781 157.284 20.5446 157.284 20.5027V20.4089C157.284 20.3637 157.272 20.3285 157.247 20.3033C157.222 20.2782 157.187 20.2665 157.142 20.2665Z" fill="black"/>
<path d="M161.057 20.2649H160.945C160.905 20.2649 160.87 20.2766 160.843 20.3018C160.817 20.3269 160.803 20.3621 160.803 20.4073V22.9574C160.803 23.4232 160.695 23.7666 160.478 23.9861C160.261 24.2056 159.972 24.3162 159.6 24.3162C159.228 24.3162 158.932 24.2073 158.715 23.9861C158.498 23.765 158.389 23.4232 158.389 22.9574V20.4073C158.389 20.3621 158.378 20.3269 158.353 20.3018C158.328 20.2766 158.293 20.2649 158.248 20.2649H158.136C158.096 20.2649 158.062 20.2766 158.037 20.3018C158.014 20.3269 158 20.3621 158 20.4073V22.9373C158 23.3411 158.064 23.6711 158.192 23.9292C158.321 24.1872 158.503 24.3782 158.742 24.5022C158.979 24.6278 159.264 24.6898 159.6 24.6898C159.939 24.6898 160.226 24.6262 160.461 24.5022C160.697 24.3782 160.877 24.1872 161.004 23.9292C161.129 23.6711 161.192 23.3411 161.192 22.9373V20.4073C161.192 20.3621 161.179 20.3269 161.156 20.3018C161.132 20.2766 161.099 20.2649 161.057 20.2649Z" fill="black"/>
<path d="M164.728 20.4122C164.514 20.3151 164.264 20.2665 163.973 20.2665H162.464C162.423 20.2665 162.389 20.2782 162.364 20.3033C162.339 20.3285 162.327 20.3637 162.327 20.4089V24.492C162.327 24.5322 162.339 24.5657 162.364 24.5909C162.389 24.616 162.423 24.6277 162.464 24.6277H162.578C162.623 24.6277 162.658 24.616 162.683 24.5909C162.708 24.5674 162.72 24.5339 162.72 24.492V22.8467H163.973C164.264 22.8467 164.514 22.7998 164.728 22.7009C164.942 22.6021 165.107 22.458 165.225 22.267C165.344 22.076 165.402 21.8397 165.402 21.5566C165.402 21.2734 165.344 21.0372 165.225 20.8462C165.107 20.6552 164.942 20.5094 164.728 20.4122ZM164.748 22.2352C164.571 22.3927 164.304 22.4714 163.943 22.4714H162.72V20.6401H163.943C164.304 20.6401 164.573 20.7189 164.748 20.8764C164.923 21.0338 165.012 21.2584 165.012 21.5549C165.012 21.8515 164.923 22.0777 164.748 22.2352Z" fill="black"/>
<path d="M168.491 22.5736C168.289 22.4731 168.032 22.3743 167.721 22.2737C167.426 22.1782 167.187 22.0894 167 22.009C166.813 21.9286 166.676 21.8348 166.589 21.7292C166.503 21.622 166.459 21.4863 166.459 21.3204C166.459 21.0624 166.556 20.873 166.751 20.7524C166.945 20.6318 167.197 20.5715 167.503 20.5715C167.808 20.5715 168.058 20.6385 168.25 20.7742C168.442 20.9099 168.551 21.0808 168.576 21.2886C168.584 21.3388 168.603 21.3723 168.634 21.3891C168.666 21.4058 168.693 21.4142 168.713 21.4142H168.836C168.881 21.4142 168.913 21.4008 168.935 21.374C168.957 21.3472 168.967 21.3187 168.967 21.2902C168.962 21.1696 168.93 21.0473 168.866 20.92C168.803 20.7926 168.713 20.6753 168.593 20.5647C168.472 20.4542 168.321 20.367 168.139 20.3C167.957 20.2347 167.743 20.2012 167.499 20.2012C167.192 20.2012 166.933 20.2514 166.72 20.3503C166.506 20.4508 166.344 20.5849 166.232 20.7524C166.12 20.92 166.065 21.111 166.065 21.3221C166.065 21.5516 166.11 21.7376 166.199 21.8833C166.287 22.0291 166.427 22.1514 166.618 22.2536C166.808 22.3558 167.05 22.4547 167.344 22.5502C167.654 22.6507 167.91 22.7412 168.109 22.8216C168.307 22.9037 168.456 22.9942 168.553 23.0964C168.649 23.1986 168.698 23.3326 168.698 23.4985C168.698 23.7481 168.606 23.9459 168.419 24.0933C168.232 24.2407 167.937 24.3145 167.531 24.3145C167.262 24.3145 167.043 24.2759 166.873 24.1989C166.703 24.1218 166.574 24.0263 166.488 23.9123C166.401 23.7984 166.349 23.6828 166.332 23.5672C166.329 23.5337 166.316 23.5052 166.292 23.4801C166.269 23.4549 166.237 23.4432 166.195 23.4432H166.072C166.033 23.4432 166.003 23.4549 165.978 23.4801C165.953 23.5052 165.942 23.5337 165.942 23.5672C165.95 23.7582 166.017 23.9392 166.14 24.1101C166.266 24.2809 166.444 24.42 166.678 24.5272C166.913 24.6362 167.197 24.6898 167.533 24.6898H167.536C167.858 24.6881 168.135 24.6412 168.367 24.5473C168.599 24.4535 168.778 24.3178 168.905 24.1419C169.03 23.966 169.093 23.7498 169.093 23.4968C169.093 23.269 169.045 23.083 168.945 22.9389C168.845 22.7948 168.693 22.6725 168.491 22.5736Z" fill="black"/>
</g>
<defs>
<clipPath id="clip0_3510_14734">
<rect width="171" height="26" fill="white"/>
</clipPath>
</defs>
</svg>
