<svg width="77" height="32" viewBox="0 0 77 32" fill="none" xmlns="http://www.w3.org/2000/svg">
<g clip-path="url(#clip0_3793_9474)">
<path fill-rule="evenodd" clip-rule="evenodd" d="M39.8206 18.0751C39.3552 23.19 41.7272 26.2467 46.1675 26.2518C48.5049 26.2549 49.7721 25.3297 50.407 24.756L49.6562 22.7989C49.1202 23.2565 47.8297 23.6645 47.0084 23.6633C44.5476 23.6601 43.3414 21.4965 43.6664 17.9326C44.0003 14.262 45.5358 12.3281 48.1213 12.3313C49.2248 12.3325 49.8899 12.7022 50.2256 12.9244L51.3637 11.5856C50.9984 10.8418 49.4137 10.0089 47.6458 10.0064C43.3383 10.002 40.2659 13.1686 39.8206 18.0751Z" fill="black"/>
<path fill-rule="evenodd" clip-rule="evenodd" d="M36.0976 10.2681L32.277 23.0218L30.7478 10.2619L26.97 10.2568L29.7765 25.9957L34.1325 25.992L39.8874 10.2725L36.0976 10.2681Z" fill="black"/>
<path fill-rule="evenodd" clip-rule="evenodd" d="M21.0784 10.1445C20.0839 10.1432 19.2638 10.3033 18.7045 10.6071L18.098 10.9366L18.7146 4.1615C17.2905 4.16024 15.3292 5.38232 15.1485 7.37204L13.6016 24.5521C14.0909 25.2846 15.5251 26.2625 18.0212 26.2656C23.5537 26.2725 25.139 21.6171 25.4948 17.7104C25.9124 13.1184 24.1785 10.1482 21.0784 10.1445ZM18.4967 23.7819C18.0287 23.7819 17.6319 23.6896 17.3315 23.5666L18.3134 12.7769C18.7719 12.534 19.2141 12.4738 19.7753 12.4744C21.6761 12.4763 22.1101 14.9091 21.8273 18.0098C21.5124 21.4746 20.6167 23.7844 18.4967 23.7819Z" fill="black"/>
<path fill-rule="evenodd" clip-rule="evenodd" d="M7.062 9.95801C5.26255 9.95675 2.89246 10.9579 2.09886 12.003L2.92836 13.4855C3.56198 12.888 4.8985 12.2302 6.05048 12.2314C7.87702 12.2339 8.83311 13.2332 8.67439 14.9737L8.65298 15.211L8.30594 15.2543C3.70558 15.8337 0.551342 17.2196 0.179736 21.3032C-0.11314 24.5206 1.75497 26.2235 5.58125 26.2285C7.9104 26.2317 9.73883 25.6335 11.0514 24.3932L11.8797 15.2913C12.2374 11.3684 10.63 9.9624 7.062 9.95801ZM7.49785 23.571C7.16404 23.6959 6.57073 23.8522 5.9919 23.8515C4.34991 23.849 3.56954 22.8755 3.72637 21.1494C3.94933 18.7015 5.36332 17.6614 8.0666 17.32L7.49785 23.571Z" fill="black"/>
<path fill-rule="evenodd" clip-rule="evenodd" d="M70.909 10.0353C68.4123 10.0321 66.7716 11.032 66.1802 11.7237L64.3184 32.0001C66.1991 32.0026 67.7245 30.5257 67.8795 28.819C67.8921 28.6828 68.1957 25.3612 68.1957 25.3612L68.7417 25.6926C69.245 25.9983 70.0361 26.1596 71.0306 26.1602C74.1313 26.1646 76.405 23.1995 76.8226 18.6074C77.1784 14.7001 76.4409 10.0422 70.909 10.0353ZM70.1526 23.8271C69.5908 23.8265 69.1606 23.765 68.7461 23.5208L69.7281 12.7311C70.0505 12.61 70.4643 12.519 70.9323 12.5196C73.0517 12.5221 73.5273 14.8338 73.2117 18.298C72.9295 21.398 72.0534 23.8296 70.1526 23.8271Z" fill="black"/>
<path fill-rule="evenodd" clip-rule="evenodd" d="M58.496 10.0201C56.6965 10.0176 54.3264 11.0194 53.5328 12.0645L54.3623 13.547C54.9947 12.9501 56.3325 12.2923 57.4844 12.2929C59.3104 12.2955 60.2665 13.2947 60.1084 15.0352L60.0869 15.2725L59.7393 15.3164C55.1389 15.8958 51.9847 17.2811 51.6137 21.3647C51.3215 24.5821 53.1889 26.285 57.0152 26.29C59.3444 26.2932 61.1734 25.695 62.4848 24.4554L63.3136 15.3529C63.6707 11.4312 62.064 10.0252 58.496 10.0201ZM58.9312 23.6337C58.598 23.7593 58.0041 23.9143 57.4252 23.9143C55.7839 23.9124 55.0029 22.9389 55.1597 21.2122C55.3827 18.7649 56.7973 17.7248 59.5006 17.3827L58.9312 23.6337Z" fill="black"/>
<path d="M40.4781 8.6305L43.6248 0H32.4149C32.413 0.0144365 32.4111 0.0288729 32.4092 0.0433094C31.9834 4.786 35.5823 8.63112 40.4472 8.63112C40.4579 8.63112 40.468 8.6305 40.4781 8.6305Z" fill="black"/>
</g>
<defs>
<clipPath id="clip0_3793_9474">
<rect width="76.748" height="32" fill="white" transform="translate(0.150146)"/>
</clipPath>
</defs>
</svg>
