<svg width="93" height="48" viewBox="0 0 93 48" fill="none" xmlns="http://www.w3.org/2000/svg">
<g clip-path="url(#clip0_2789_9429)">
<path d="M42.5504 14.3299H41.2915C41.2645 14.1913 41.2329 14.0594 41.2134 13.9255C41.0442 12.7865 40.4547 11.9451 39.4636 11.3714C36.8771 9.87203 34.2943 8.36519 31.7106 6.86209C28.8721 5.21111 26.0271 3.56949 23.1969 1.90448C21.9279 1.15761 20.6969 1.1548 19.425 1.89792C14.0204 5.05387 8.60937 8.19859 3.19643 11.3386C1.97011 12.0499 1.36578 13.1038 1.36113 14.517C1.35834 15.4511 1.3602 16.3852 1.3602 17.3192C1.3602 22.6278 1.3602 27.9364 1.3602 33.2459C1.3602 33.8411 1.39925 34.428 1.64284 34.982C1.96081 35.7055 2.47496 36.2409 3.15459 36.6358C8.33881 39.6467 13.5202 42.6623 18.7017 45.6769C18.9825 45.8407 19.2642 46.0035 19.5459 46.1664C20.7211 46.8468 21.8972 46.8459 23.0705 46.1636C26.2316 44.3263 29.3909 42.4872 32.551 40.6491C34.7071 39.3949 36.8455 38.109 39.0257 36.8998C40.3134 36.1856 41.1697 35.2347 41.259 33.6783H42.5811C42.5281 34.0508 42.5057 34.4036 42.423 34.7424C42.0948 36.0818 41.3185 37.0813 40.1293 37.7711C36.4578 39.9013 32.7909 42.0389 29.1222 44.1729C27.3417 45.2089 25.5585 46.2422 23.779 47.2792C22.1352 48.2367 20.4896 48.2413 18.8467 47.2867C13.4226 44.1345 8.00132 40.9757 2.57537 37.8273C0.875807 36.8417 0.0483406 35.3751 0.0483406 33.4134C0.0511298 27.139 0.0520596 20.8654 0.0483406 14.591C0.0474109 12.6293 0.871158 11.1599 2.567 10.1753C7.99388 7.02587 13.4143 3.86805 18.8383 0.714912C20.4812 -0.239734 22.1268 -0.238799 23.7715 0.716784C29.2086 3.87835 34.6439 7.04178 40.0838 10.1996C41.4775 11.0082 42.2984 12.1987 42.5215 13.802C42.5448 13.9658 42.5401 14.1333 42.5494 14.3289L42.5504 14.3299Z" fill="black"/>
<path d="M28.5635 21.0883V22.7205H32.7892V25.0267H28.584V26.6121H33.1517V29.1616H25.8589V18.6146H33.1406V21.0883H28.5635Z" fill="black"/>
<path d="M11.5306 18.5959H13.9647C15.2133 22.0851 16.4657 25.5855 17.7394 29.1448H14.8842C14.6601 28.5046 14.4212 27.8214 14.1711 27.1082H11.4051C11.1903 27.7755 10.969 28.4634 10.7431 29.1663H7.88696C9.10864 25.622 10.3154 22.1225 11.5315 18.5959H11.5306ZM12.8332 21.6162C12.8016 21.6143 12.7709 21.6134 12.7393 21.6115C12.4873 22.6092 12.2353 23.606 11.9769 24.6289H13.5212C13.285 23.5966 13.0591 22.6064 12.8332 21.6162Z" fill="black"/>
<path d="M86.0007 25.9589C85.6743 26.5008 85.414 26.9781 85.1109 27.4255C84.8069 27.8738 84.4964 28.3277 84.1263 28.719C83.5118 29.3694 82.7931 29.4696 82.1088 29.0765C81.4775 28.7133 81.1261 27.8485 81.3008 27.0886C81.4292 26.5289 82.0418 26.1302 82.6294 26.2846C82.9651 26.3735 83.2905 26.5448 83.5871 26.7338C83.9357 26.9557 84.2463 26.9472 84.581 26.7338C85.1053 26.3979 85.4484 25.9046 85.7887 25.3721C85.5758 24.7684 85.3666 24.1694 85.1537 23.5713C84.9296 22.9415 84.7046 22.3135 84.4787 21.6845C84.1198 20.684 83.7442 20.5324 82.7996 20.9872C82.6704 21.049 82.5132 21.0518 82.2734 21.1005C82.3561 20.904 82.3719 20.8085 82.4258 20.7467C83.0627 20.0073 83.7963 19.3934 84.7186 19.0499C84.99 18.9488 85.2838 18.8777 85.573 18.8561C86.459 18.7925 86.9425 19.1088 87.2382 19.9484C87.4697 20.6073 87.663 21.2802 87.875 21.9466C87.9076 22.0486 87.9485 22.1469 88.0145 22.3275C88.1223 22.1253 88.1921 21.9803 88.2739 21.8427C88.6681 21.1744 89.0456 20.495 89.4723 19.8473C89.6648 19.5553 89.9325 19.297 90.2096 19.0808C90.7126 18.6886 91.3216 18.6952 91.858 19.0424C92.4465 19.4233 92.8342 20.4191 92.6595 21.1024C92.4949 21.7463 91.8562 22.1038 91.1607 21.9073C90.8818 21.8286 90.6112 21.6948 90.3593 21.5479C89.9679 21.3204 89.6099 21.3495 89.2994 21.6583C88.9061 22.0505 88.5389 22.4688 88.1558 22.8825C88.5584 24.1572 88.9126 25.3973 89.3449 26.6094C89.6834 27.5565 90.4365 27.7877 91.3281 27.3151C91.4768 27.2355 91.646 27.1943 91.8441 27.1213C91.8441 27.2533 91.8627 27.3113 91.8413 27.3385C91.0975 28.2959 90.2049 29.0652 88.9786 29.2571C87.61 29.4714 86.9946 28.8696 86.6998 27.9356C86.499 27.3001 86.2582 26.6768 86.0035 25.9598L86.0007 25.9589Z" fill="black"/>
<path d="M55.2868 22.6373C55.2626 24.3959 54.8136 26.0207 53.6737 27.3899C52.3897 28.9323 50.7069 29.5332 48.7489 29.3039C47.4965 29.1569 46.7155 28.3708 46.3734 27.1737C45.8369 25.3 46.088 23.5021 47.0437 21.8202C47.9214 20.2759 49.1905 19.2108 50.9775 18.9142C51.5028 18.8271 52.0653 18.8215 52.5915 18.9039C54.1711 19.1491 55.1631 20.2787 55.2849 21.8904C55.3035 22.1375 55.2877 22.3874 55.2877 22.6363L55.2868 22.6373ZM52.2159 22.5811C52.2159 22.1768 52.2661 21.765 52.2029 21.371C52.1248 20.8871 52.0123 20.3901 51.8049 19.9512C51.5688 19.4514 51.0723 19.384 50.6335 19.7228C50.4652 19.8529 50.2987 20.0167 50.203 20.2029C49.9826 20.6278 49.7604 21.0612 49.621 21.516C49.1012 23.2157 48.9934 24.9659 49.0929 26.7291C49.1171 27.1569 49.2128 27.5968 49.3625 27.9983C49.6823 28.8537 50.4642 28.9716 50.996 28.2313C51.2805 27.8364 51.4944 27.3693 51.6459 26.9042C52.1015 25.5031 52.2187 24.0468 52.2149 22.5802L52.2159 22.5811Z" fill="black"/>
<path d="M25.313 20.8769C24.572 21.1707 23.884 21.4431 23.0975 21.7557C23.0658 21.6949 23.0389 21.5975 22.9775 21.5301C22.3946 20.8872 21.5104 20.7187 20.7303 21.0959C20.3175 21.2952 20.0823 21.6125 20.0832 22.0861C20.0832 23.2691 20.0842 24.4512 20.0832 25.6342C20.0832 26.061 20.272 26.3811 20.6271 26.6019C21.37 27.0662 22.4504 26.8284 22.9301 26.0984C22.971 26.0357 23.011 25.9721 23.0696 25.8803C23.8208 26.2332 24.559 26.5804 25.3298 26.9426C25.2703 27.0774 25.2349 27.1934 25.1736 27.2936C23.5103 29.9984 20.1465 29.6849 18.605 28.3512C17.8184 27.6708 17.4381 26.7947 17.4288 25.7615C17.4168 24.5167 17.4121 23.271 17.4288 22.0262C17.4493 20.5362 18.1717 19.4861 19.5068 18.8768C20.5537 18.3995 21.6545 18.2909 22.7702 18.5866C23.9723 18.9058 24.7691 19.7051 25.314 20.8769H25.313Z" fill="black"/>
<path d="M76.3305 24.1048C76.2683 25.0997 76.3445 26.0207 76.7908 26.8733C77.2398 27.7306 78.0292 28.0966 78.9719 27.8719C79.3429 27.783 79.6925 27.6033 80.0523 27.4667C80.1676 27.4227 80.2857 27.3871 80.4326 27.3366C80.4707 27.7128 80.241 27.856 80.0672 28.0114C79.342 28.6553 78.482 29.0531 77.542 29.2169C76.9414 29.3217 76.3027 29.3666 75.702 29.2833C74.3009 29.0896 73.3294 28.1022 73.1471 26.6468C72.8533 24.2957 73.4549 22.1918 75.1535 20.4959C76.3863 19.2651 77.925 18.7663 79.6432 18.8711C81.327 18.9741 82.1051 20.6007 81.1782 22.0243C80.8193 22.5755 80.3042 22.9433 79.7306 23.2316C78.9068 23.6453 78.0264 23.8755 77.1171 24C76.8735 24.0337 76.629 24.0646 76.3315 24.1039L76.3305 24.1048ZM76.4626 23.1034C77.3365 22.7627 78.0375 22.334 78.5015 21.5919C78.7804 21.1464 78.9273 20.6587 78.8055 20.1271C78.7014 19.6723 78.3527 19.4926 77.9752 19.7556C77.7066 19.9427 77.4723 20.2179 77.3031 20.5024C76.8465 21.269 76.6374 22.1272 76.4626 23.1034Z" fill="black"/>
<path d="M44.7864 27.2832C44.7864 27.4423 44.8106 27.5266 44.7808 27.5809C44.7223 27.6885 44.6479 27.7961 44.5558 27.8747C43.0571 29.1513 41.3622 29.683 39.4302 29.142C38.4614 28.8715 37.8636 28.1686 37.5754 27.2149C36.9087 25.0061 37.7195 20.8319 41.14 19.3344C42.0511 18.9357 43.006 18.7831 43.9943 18.8599C45.0551 18.9422 45.7784 19.6423 45.8519 20.5998C45.9467 21.8418 44.527 22.5409 43.6326 22.189C43.2644 22.0439 43.0803 21.7444 43.0301 21.3672C42.9976 21.122 43.0143 20.8703 43.005 20.6222C42.9967 20.4051 43.005 20.1842 42.9632 19.9727C42.8721 19.5066 42.5625 19.3896 42.1924 19.6779C42.0604 19.7808 41.9303 19.9091 41.8503 20.0541C40.8322 21.8876 40.3702 23.8287 40.7709 25.9271C40.7765 25.958 40.783 25.9879 40.7913 26.0179C41.2534 27.7671 42.5439 28.3605 44.1737 27.5743C44.3578 27.4854 44.5438 27.3984 44.7846 27.2842L44.7864 27.2832Z" fill="black"/>
<path d="M56.3059 29.0073C56.6127 27.7101 56.9149 26.5055 57.1799 25.2926C57.4551 24.0328 57.7024 22.7665 57.9432 21.4993C57.9999 21.2035 57.9822 20.8937 58.0008 20.5549C57.3147 20.5802 56.9325 21.1614 56.3794 21.3111C56.3552 21.2756 56.331 21.24 56.3078 21.2044C56.3477 21.1127 56.3635 20.9939 56.4314 20.9321C57.0227 20.3883 57.5982 19.8221 58.2342 19.3345C58.5122 19.1211 58.911 19.0144 59.2681 18.9704C60.0881 18.8693 60.5706 19.2633 60.5688 20.0944C60.5678 20.8497 60.4386 21.606 60.354 22.3603C60.3252 22.6205 60.2582 22.876 60.2712 23.1577C60.3177 23.0492 60.3633 22.9397 60.4107 22.832C60.7501 22.0486 61.055 21.2475 61.4427 20.4894C61.6575 20.0692 61.9661 19.6742 62.3092 19.3504C62.8912 18.8 63.7057 18.7804 64.3667 19.2156C65.0241 19.6489 65.2658 20.334 65.025 21.1305C64.9673 21.3214 64.8818 21.5096 64.7786 21.6818C64.284 22.5082 63.5727 22.6551 62.7797 22.1057C61.9847 21.5554 61.7793 21.5919 61.2893 22.4193C60.5455 23.6753 60.1383 25.0642 59.7608 26.4606C59.5749 27.1504 59.428 27.8505 59.2801 28.5505C59.2253 28.8107 59.1388 29.0335 58.8766 29.1299C58.0194 29.4453 57.1882 29.304 56.3068 29.0082L56.3059 29.0073Z" fill="black"/>
<path d="M65.8197 19.6386C65.9676 19.545 66.0754 19.4177 66.1842 19.4168C67.6541 19.4102 68.5932 18.5894 69.296 17.3961C69.3351 17.3297 69.3825 17.2679 69.4513 17.1659C69.5926 17.1753 69.7525 17.1846 69.9413 17.1968C70.1337 17.9343 69.8176 18.6007 69.7879 19.3344C70.7669 19.2699 71.7264 19.2072 72.6756 19.1444C72.8365 20.2582 71.691 21.1529 70.6944 20.7795C70.3215 20.6401 69.958 20.4744 69.535 20.2975C69.4085 20.9321 69.2923 21.5049 69.1808 22.0795C68.9651 23.1933 68.7512 24.307 68.5374 25.4208C68.529 25.4666 68.5169 25.5125 68.5123 25.5584C68.4453 26.206 68.5253 26.8172 69.0729 27.2458C69.64 27.6895 70.262 27.6071 70.8738 27.3366C71.1193 27.2281 71.3489 27.0821 71.586 26.9529C71.6176 26.9763 71.6492 27.0006 71.6817 27.024C71.6427 27.1391 71.6325 27.2786 71.5609 27.3675C70.5586 28.6151 69.3221 29.4191 67.6634 29.3292C66.3153 29.2562 65.3428 28.2669 65.4209 26.9164C65.4832 25.8382 65.7277 24.7675 65.9239 23.7005C66.1033 22.7225 66.3376 21.7557 66.5245 20.7795C66.6472 20.1393 66.6165 20.1131 66.0308 19.8099C65.9797 19.7837 65.9388 19.736 65.8197 19.6386Z" fill="black"/>
</g>
<defs>
<clipPath id="clip0_2789_9429">
<rect width="92.6512" height="48" fill="white" transform="translate(0.0483398)"/>
</clipPath>
</defs>
</svg>
