<svg width="16" height="16" viewBox="0 0 16 16" fill="none" xmlns="http://www.w3.org/2000/svg">
<path d="M8.9374 0.31603L15.7175 7.26868C15.8202 7.37402 15.8932 7.48814 15.9363 7.61104C15.9788 7.73394 16 7.86562 16 8.00608C16 8.14653 15.9788 8.27821 15.9363 8.40111C15.8932 8.52401 15.8202 8.63814 15.7175 8.74348L8.9374 15.6961C8.74906 15.8893 8.51381 15.9904 8.23165 15.9995C7.94881 16.0079 7.70466 15.9068 7.4992 15.6961C7.29374 15.503 7.18656 15.2618 7.17766 14.9724C7.16944 14.6824 7.26806 14.432 7.47352 14.2213L12.5072 9.05951L1.02729 9.05951C0.736224 9.05951 0.492073 8.95873 0.294833 8.75717C0.0982787 8.55491 6.72758e-07 8.30455 6.98851e-07 8.00608C7.24944e-07 7.7076 0.0982788 7.45759 0.294833 7.25603C0.492073 7.05377 0.736224 6.95264 1.02729 6.95264L12.5072 6.95265L7.47352 1.79083C7.28518 1.5977 7.18656 1.3519 7.17766 1.05343C7.16944 0.754958 7.26806 0.509158 7.47352 0.31603C7.66185 0.105343 7.90155 -7.07989e-07 8.19262 -6.82543e-07C8.48368 -6.57097e-07 8.73194 0.105343 8.9374 0.31603Z" fill="black"/>
</svg>
