<svg width="91" height="22" viewBox="0 0 91 22" fill="none" xmlns="http://www.w3.org/2000/svg">
<g clip-path="url(#clip0_5334_1366)">
<path d="M0 21.2172H3.16873L6.79656 13.3124C5.79853 13.0693 4.81048 12.9006 3.85238 12.8212L0 21.2172Z" fill="black"/>
<path d="M9.22181 8.02762C8.38347 7.85394 7.42038 7.70011 6.25269 7.59094L5.34448 9.57086C6.43732 9.65522 7.42038 9.79416 8.32858 9.97776L9.22181 8.03258V8.02762Z" fill="black"/>
<path d="M7.98418 10.7271C7.1159 10.5683 6.13783 10.4393 5.00008 10.3252L4.20166 12.0669C5.19969 12.2108 6.16777 12.3696 7.13586 12.583L7.98917 10.7271H7.98418Z" fill="black"/>
<path d="M12.9045 14.806C14.4015 15.6695 15.9784 16.8157 17.71 18.3739L15.5991 13.7789C14.0372 12.9006 12.8047 12.2257 11.4773 11.6997L12.9045 14.806Z" fill="black"/>
<path d="M13.5183 16.1458L15.8437 21.2171H19.0124L18.7679 20.6862C17.3557 18.9246 15.5293 17.3863 13.5183 16.1458Z" fill="black"/>
<path d="M11.093 3.95369L9.51108 0.5L7.92921 3.95369L6.61182 6.8268C9.22664 7.08483 11.2027 7.64556 13.1389 8.39981L11.0979 3.95369H11.093Z" fill="black"/>
<path d="M11.0233 10.7072C12.5303 11.2332 13.8028 11.8683 15.0154 12.4985L13.6281 9.4716C12.4455 9.00019 11.3626 8.53871 9.8606 8.17151L11.0283 10.7122L11.0233 10.7072Z" fill="black"/>
<path d="M25.3999 12.2008H23.0046L22.9946 21.2072H20.6193L20.6343 12.2008H18.8179V9.83882H20.6343L20.6193 6.30078H22.9946L23.0046 9.83882H26.1783L25.3999 12.2008Z" fill="black"/>
<path d="M29.816 4.19189H27.4407V21.2073H29.816V4.19189Z" fill="black"/>
<path d="M55.5153 14.0914V21.2022H53.14V14.667C53.1649 13.1734 51.8875 11.8882 50.3804 11.9229C48.8934 11.8981 47.591 13.1833 47.6209 14.667V21.2022H45.2456V9.83384H47.6209V11.0595C50.2856 7.91347 55.5901 10.0026 55.5153 14.0864" fill="black"/>
<path d="M63.2398 12.2008H60.8396L60.8296 21.2072H58.4593L58.4692 12.2008H56.6528V9.83882H58.4692L58.4593 6.30078H60.8296L60.8396 9.83882H64.0183L63.2398 12.2008Z" fill="black"/>
<path d="M65.0164 9.8388H67.3917V21.2072H65.0164V9.8388ZM66.229 8.21617C64.5473 8.23602 64.5423 5.745 66.219 5.745C67.8608 5.745 67.8807 8.21617 66.229 8.21617Z" fill="black"/>
<path d="M77.1126 17.9868L79.2334 19.133C75.875 23.7528 68.9188 21.0881 68.9787 15.5354C68.9387 9.96289 75.8501 7.27338 79.2334 11.9279L77.1126 13.0742C74.9568 10.5534 71.2941 12.4489 71.349 15.5354C71.309 18.617 74.9618 20.4728 77.1126 17.9868Z" fill="black"/>
<path d="M85.2863 19.143C87.9461 19.1876 89.4232 15.8729 88.1656 13.7193C86.9381 11.3126 83.6047 11.3176 82.3921 13.7292C81.1445 15.9026 82.6416 19.1727 85.2863 19.138M85.2863 21.5C80.0966 21.5099 77.7512 14.8556 81.2543 11.2977C83.7993 8.50401 88.48 9.19872 90.2216 12.5184C92.4023 16.2202 89.7725 21.5546 85.2863 21.505" fill="black"/>
<path d="M37.5658 4.85181L41.1637 8.29061H38.6636L37.5658 7.14434L36.3881 8.29061H34.1426L37.5658 4.85181Z" fill="black"/>
<path d="M37.3012 19.1429C34.6565 19.1777 33.1644 15.9026 34.412 13.7341C35.6246 11.3225 38.958 11.3126 40.1855 13.7242C41.443 15.8728 39.966 19.1925 37.3062 19.1479M40.7794 9.83881V10.995C38.9629 8.97539 35.2752 9.09448 33.2692 11.2977C29.7661 14.8605 32.1115 21.5099 37.3012 21.5C38.6586 21.5148 39.8462 20.8003 40.7794 20.0262V21.2171H43.1497V9.83881H40.7794Z" fill="black"/>
</g>
<defs>
<clipPath id="clip0_5334_1366">
<rect width="91" height="21" fill="white" transform="translate(0 0.5)"/>
</clipPath>
</defs>
</svg>
