<svg width="97" height="50" viewBox="0 0 97 50" fill="none" xmlns="http://www.w3.org/2000/svg"  preserveAspectRatio="xMinYMin">
<g clip-path="url(#clip0_5049_17814)">
<path fill-rule="evenodd" clip-rule="evenodd" d="M35.0922 12C32.0604 12 29.6597 12.8975 27.8917 14.6852C26.1237 16.4809 25.2437 19.0604 25.2437 22.4475V35.868H27.6737V22.2067C27.6737 19.566 28.3286 17.5827 29.6296 16.2393C30.9314 14.8967 32.7517 14.225 35.0922 14.225C37.4326 14.225 39.2529 14.8967 40.5548 16.2393C41.8566 17.5819 42.5107 19.5739 42.5107 22.2067V26.7409H30.2091V28.9062H42.5107V35.8688H44.9708V22.4483C44.9708 19.0684 44.0908 16.4809 42.3228 14.686C40.554 12.8903 38.1469 12 35.0922 12ZM54.9629 12.1885H52.4727V35.8689H68.1897V33.7036H54.9629V12.1885ZM17.5302 21.6105C16.8912 22.523 16.0032 23.2027 14.8821 23.655L14.8829 23.6558V23.6629C16.44 24.0024 17.6364 24.6741 18.4792 25.6772C19.322 26.6804 19.743 27.9706 19.743 29.5469C19.743 31.5763 18.9985 33.1375 17.5008 34.2313C16.0032 35.333 13.7991 35.876 10.872 35.876H0.00708008V16.7981H2.50528V22.8481H10.0292C11.9479 22.8481 13.4146 22.4785 14.4532 21.7464C15.4839 21.0143 16.0032 19.9507 16.0032 18.5477C16.0032 17.1446 15.4839 16.0811 14.4532 15.3489C13.4154 14.6168 11.9399 14.2472 10.0292 14.2472H0.00708008V12.1804H10.1941C12.8279 12.1804 14.8663 12.7154 16.3187 13.7718C17.7712 14.8362 18.4935 16.337 18.4935 18.2758C18.4935 19.589 18.17 20.6979 17.5302 21.6105ZM10.8347 33.8092C12.9492 33.8092 14.5436 33.4467 15.6274 32.7226L15.6282 32.7233V32.7305C16.7041 32.0135 17.2456 30.8815 17.2456 29.3505C17.2456 26.3935 15.1081 24.9149 10.8347 24.9149H2.49815V33.8092H10.8347ZM88.1549 27.9073L86.3621 29.7048L94.4327 37.7967L96.2255 35.9991L88.1549 27.9073ZM72.2156 24.0318C72.2156 29.6447 76.4286 33.8315 82.0942 33.8315L82.0958 33.8323C83.921 33.831 85.603 33.3932 87.0383 32.6176L88.746 34.3299C86.8575 35.4388 84.5924 36.0652 82.1021 36.0652C75.0222 36.0652 69.7324 30.9277 69.7324 24.0326C69.7324 17.1375 75.0594 12 82.1394 12C89.2194 12 94.5091 17.1073 94.5091 24.0318C94.5091 26.3935 93.9002 28.5429 92.8014 30.3537L90.9953 28.5429C91.6573 27.2075 92.0339 25.6836 92.0339 24.0318C92.0339 18.4189 87.866 14.2321 82.1624 14.2321C76.4588 14.2321 72.2156 18.4189 72.2156 24.0318Z" fill="black"/>
</g>
<defs>
<clipPath id="clip0_5049_17814">
<rect width="96.2264" height="50" fill="white"/>
</clipPath>
</defs>
</svg>
