<svg width="105" height="38" viewBox="0 0 105 38" fill="none" xmlns="http://www.w3.org/2000/svg">
<path d="M6.79016 23.0414C4.99628 23.0414 3.20377 23.0468 1.40989 23.0387C0.608369 23.0346 0.502045 22.933 0.502045 22.1297C0.499318 15.4279 0.499318 8.7261 0.502045 2.02296C0.502045 1.1871 0.605643 1.0855 1.44942 1.08414C4.83135 1.07737 8.216 1.01099 11.5952 1.10311C13.9275 1.16678 16.0186 1.91323 17.3422 4.02794C18.7325 6.25239 18.1764 9.37365 16.1099 10.9993C16.0922 11.0129 16.0744 11.0278 16.0567 11.0427C15.3874 11.5683 15.3888 11.5642 16.1767 11.9761C16.4779 12.1332 16.7792 12.2931 17.0613 12.4827C18.9834 13.7711 19.5123 15.6528 19.2533 17.8095C18.9316 20.4959 17.1827 21.9414 14.7113 22.597C13.6494 22.8788 12.5221 22.9736 11.4194 23.0238C9.87902 23.0929 8.33323 23.0414 6.7888 23.0414V23.0387L6.79016 23.0414ZM8.91392 18.686C8.91392 18.686 8.91392 18.6955 8.91392 18.7009C9.64047 18.7009 10.3684 18.7334 11.0922 18.69C11.6974 18.6535 12.319 18.6006 12.8929 18.4259C13.8525 18.1346 14.3705 17.3367 14.3569 16.3735C14.3433 15.4374 13.8266 14.6977 12.9038 14.3739C12.5235 14.2411 12.1132 14.1314 11.7138 14.1246C9.83131 14.0908 7.94746 14.0989 6.06498 14.0826C5.51836 14.0772 5.28663 14.3238 5.29481 14.8643C5.3098 15.879 5.28799 16.895 5.30299 17.9097C5.31253 18.5762 5.42022 18.6738 6.12496 18.6833C7.05461 18.6955 7.98563 18.686 8.91665 18.686H8.91392ZM8.43273 5.43956C8.43273 5.43956 8.43273 5.43414 8.43273 5.43143C7.63939 5.43143 6.84741 5.44227 6.05407 5.42736C5.50473 5.41653 5.27709 5.66579 5.28527 6.20362C5.30026 7.14921 5.27982 8.0948 5.29072 9.04039C5.2989 9.76787 5.39704 9.86948 6.12223 9.8749C7.52625 9.88573 8.93164 9.90335 10.3357 9.86677C10.8237 9.85322 11.3294 9.7462 11.7901 9.57957C12.8684 9.19077 13.3809 8.08938 13.051 6.99883C12.7729 6.07763 11.9387 5.49645 10.7419 5.44498C9.97307 5.41111 9.20154 5.4382 8.43137 5.4382L8.43273 5.43956Z" fill="black"/>
<path d="M56.3632 8.20322C56.5813 7.94447 56.7817 7.66947 57.0188 7.42968C59.0063 5.43283 62.8885 5.45451 64.6919 7.18583C64.9836 7.46626 65.2508 7.77784 65.4893 8.10433C65.6938 8.38205 65.8656 8.3834 66.0905 8.15174C66.2799 7.95666 66.4749 7.767 66.6725 7.58141C68.8208 5.56424 72.8925 5.33123 75.1117 7.133C76.3712 8.15716 76.9205 9.58639 76.9478 11.1402C77.0146 14.8413 76.986 18.5451 76.9832 22.2462C76.9832 22.9073 76.8374 23.0428 76.1763 23.055C75.1771 23.0712 74.1779 23.0672 73.1787 23.0604C72.2927 23.055 72.1946 22.9629 72.1918 22.0877C72.185 19.469 72.1973 16.8504 72.1809 14.2317C72.1768 13.6709 72.125 13.1019 72.0187 12.5519C71.7297 11.0495 70.7006 10.2407 69.242 10.3206C67.7685 10.4006 66.7734 11.3665 66.633 12.8648C66.603 13.1791 66.6112 13.4961 66.6112 13.8117C66.6098 16.5429 66.6125 19.2753 66.6085 22.0064C66.6071 22.9737 66.5212 23.0563 65.5616 23.0617C64.5856 23.0672 63.6082 23.0699 62.6322 23.0604C61.8034 23.0523 61.6985 22.9493 61.6971 22.1053C61.6903 19.3959 61.7026 16.6878 61.6862 13.9784C61.6821 13.4406 61.6276 12.8946 61.5131 12.369C61.2323 11.0739 60.3258 10.3572 58.9981 10.3179C57.7127 10.28 56.6658 10.9763 56.3168 12.1847C56.1751 12.6751 56.1287 13.2062 56.126 13.7196C56.1083 16.4738 56.1192 19.2279 56.1151 21.982C56.1137 22.9832 56.036 23.0563 55.0232 23.0617C54.1154 23.0658 53.2062 23.0658 52.2983 23.0617C51.2528 23.0577 51.1955 23.0021 51.1955 21.9319C51.1928 17.5074 51.1955 13.0829 51.1955 8.65705C51.1955 8.20593 51.1874 7.75346 51.201 7.30234C51.2214 6.64395 51.3414 6.51796 52.0175 6.50847C53.0848 6.49357 54.1522 6.49493 55.2195 6.50847C55.9706 6.51796 56.0878 6.64259 56.1151 7.37685C56.1246 7.61663 56.1164 7.85777 56.1164 8.09891C56.1996 8.13413 56.2827 8.168 56.3659 8.20322H56.3632Z" fill="black"/>
<path d="M40.5113 5.93537C42.9513 5.98549 45.7935 7.40524 47.4865 10.6403C50.2686 15.9603 46.963 22.345 41.0021 23.3015C38.4516 23.7106 36.0648 23.3042 33.9097 21.8695C29.4264 18.8851 28.8184 12.4529 32.612 8.64209C34.4781 6.76716 36.73 5.9164 40.5141 5.93537H40.5113ZM34.9852 14.6123C34.9852 16.4182 35.6477 17.8907 37.3093 18.7401C38.8633 19.534 40.4336 19.4297 41.8895 18.4448C43.5211 17.3394 44.1154 14.7884 43.2499 12.7604C42.3829 10.727 40.266 9.68929 38.119 10.2461C36.1425 10.7595 34.9907 12.3662 34.9852 14.6137V14.6123Z" fill="black"/>
<path d="M90.2301 21.5755C89.7339 21.921 89.34 22.2217 88.9201 22.4818C86.6219 23.9138 83.21 23.6984 81.1189 21.9996C78.7103 20.0434 78.9175 15.6608 81.5129 13.9688C83.3545 12.7685 85.4182 12.5951 87.5365 12.797C88.2781 12.8674 89.0114 13.0449 89.7407 13.2088C90.1892 13.3104 90.3146 13.1411 90.3037 12.7292C90.2723 11.6279 89.3781 10.6525 88.1322 10.3436C87.0008 10.0618 85.8749 10.1729 84.7558 10.3829C84.0892 10.5089 83.4294 10.6863 82.7819 10.8922C82.328 11.0358 82.0527 10.983 81.9027 10.4899C81.6465 9.64862 81.3588 8.81547 81.0808 7.98096C80.9431 7.56642 81.0644 7.30903 81.4883 7.13427C83.4267 6.33769 85.4441 5.96379 87.5338 6.06133C88.503 6.10604 89.4954 6.15887 90.4277 6.40001C93.0818 7.08821 94.7025 8.98752 94.9383 11.7064C95.0815 13.3646 95.0678 15.0377 95.0896 16.7053C95.1128 18.5098 95.0992 20.3157 95.091 22.1201C95.0869 22.9465 94.9751 23.0508 94.1355 23.059C93.2276 23.0684 92.3198 23.0644 91.4119 23.0603C90.4141 23.0562 90.3814 23.021 90.3091 22.0565C90.2996 21.9264 90.2655 21.7991 90.2274 21.5742L90.2301 21.5755ZM87.4725 15.6053C86.7855 15.7706 86.0371 15.8668 85.3583 16.135C84.4627 16.4886 84.1069 17.2675 84.2091 18.289C84.2841 19.0368 84.8266 19.6234 85.6881 19.8618C86.915 20.2019 88.0736 19.981 89.1519 19.3592C90.0856 18.82 90.4141 17.9341 90.4427 16.9058C90.4536 16.4913 90.2751 16.2 89.8634 16.1066C89.096 15.9331 88.3231 15.7828 87.4698 15.6053H87.4725Z" fill="black"/>
<path d="M22.3066 14.7017C22.3066 12.312 22.3025 9.9223 22.3066 7.53258C22.308 6.5924 22.3884 6.51112 23.3017 6.5057C24.2995 6.49893 25.2973 6.49351 26.2951 6.51112C26.9562 6.52196 27.098 6.65743 27.098 7.32124C27.1048 12.3039 27.1062 17.2865 27.098 22.2692C27.098 22.9194 26.9508 23.0468 26.272 23.0563C25.251 23.0712 24.2313 23.0698 23.2104 23.059C22.4197 23.0508 22.3107 22.9452 22.308 22.1418C22.2998 19.6613 22.3052 17.1822 22.3052 14.7017H22.3066Z" fill="black"/>
<path d="M28.1737 33.4984C28.1737 32.6192 28.1805 31.7386 28.171 30.8594C28.1655 30.3216 28.4177 30.0561 28.9561 30.0859C29.8613 30.1346 30.7732 30.136 31.666 30.2688C32.5903 30.4069 33.2923 30.9434 33.6848 31.8131C34.1633 32.8739 34.1892 33.9644 33.7666 35.0401C33.2991 36.2282 32.3013 36.7267 31.1004 36.8364C30.3574 36.9042 29.6036 36.8554 28.8553 36.8622C28.3605 36.8676 28.1696 36.6007 28.171 36.1387C28.1751 35.2595 28.171 34.379 28.171 33.4998L28.1737 33.4984ZM32.5207 33.5404C32.5248 32.0597 31.786 31.358 30.3534 31.4487C29.9062 31.4772 29.6868 31.6668 29.6881 32.1125C29.6895 33.0568 29.6909 34.0024 29.6881 34.9466C29.6868 35.3964 29.9062 35.586 30.3561 35.5996C31.7901 35.6456 32.518 34.9629 32.5221 33.539L32.5207 33.5404Z" fill="black"/>
<path d="M61.6902 33.4144C61.6902 32.6016 61.682 31.7888 61.6929 30.976C61.7024 30.1875 61.8047 30.0737 62.6171 30.0859C63.3641 30.0981 64.1165 30.1279 64.8553 30.2241C66.2757 30.4083 66.8796 31.8931 65.9949 33.0311C65.755 33.3386 65.7605 33.4524 66.0576 33.7084C67.0173 34.5334 66.8033 36.0832 65.6623 36.5818C64.5132 37.083 63.2905 36.8514 62.0991 36.789C61.9532 36.7809 61.7256 36.361 61.7133 36.1225C61.667 35.2216 61.6942 34.3167 61.6942 33.4144C61.6942 33.4144 61.6915 33.4144 61.6902 33.4144ZM63.8793 35.624C64.674 35.6335 65.1157 35.3747 65.1375 34.8897C65.1593 34.3682 64.6713 34.0241 63.9066 34.0227C63.2509 34.0227 63.101 34.1663 63.0969 34.8112C63.0915 35.4628 63.24 35.6159 63.8807 35.624H63.8793ZM63.8575 32.7791C64.49 32.7832 64.8935 32.5027 64.8908 32.0597C64.8881 31.6357 64.4341 31.3607 63.7607 31.3431C63.2659 31.3295 63.071 31.5639 63.0765 32.0353C63.0833 32.6084 63.2468 32.7737 63.8575 32.7777V32.7791Z" fill="black"/>
<path d="M14.5477 33.5432C14.545 35.5468 13.0414 37.0031 10.9804 36.9963C9.03655 36.9896 7.58754 35.5062 7.58618 33.5201C7.58618 31.4799 9.02701 29.9749 10.9899 29.9654C12.9869 29.9559 14.5504 31.5287 14.5477 33.5432ZM11.1194 31.312C9.86806 31.316 9.0938 32.1614 9.10471 33.512C9.11561 34.8383 9.9444 35.7473 11.1385 35.7432C12.3176 35.7392 13.1587 34.8071 13.1627 33.4998C13.1668 32.1736 12.3585 31.3079 11.1194 31.312Z" fill="black"/>
<path d="M101.732 17.7485C103.448 17.7526 104.51 18.7348 104.499 20.3063C104.488 21.8926 103.285 23.0563 101.672 23.0401C100.197 23.0252 98.9596 21.7897 98.9378 20.3103C98.916 18.7944 100.061 17.7445 101.732 17.7485Z" fill="black"/>
<path d="M24.6486 33.5662C24.6404 35.5793 23.1505 37.0126 21.0799 36.9977C19.1715 36.9841 17.6871 35.5211 17.6912 33.657C17.6953 31.6804 19.2738 30.0683 21.1958 30.0751C23.1819 30.0832 24.6568 31.5734 24.6486 33.5662ZM21.1876 31.3106C19.9417 31.3201 19.1729 32.1736 19.1906 33.5283C19.207 34.8532 20.0467 35.7581 21.2421 35.7419C22.4226 35.7256 23.2541 34.7895 23.2487 33.4822C23.2432 32.1546 22.4335 31.3011 21.1876 31.312V31.3106Z" fill="black"/>
<path d="M48.0725 33.474C48.0725 34.3532 48.0698 35.2338 48.0725 36.113C48.0739 36.5546 47.939 36.8513 47.4196 36.8621C46.8771 36.873 46.6985 36.5925 46.704 36.1062C46.7094 35.6781 46.6972 35.2487 46.6944 34.8206C46.6917 34.4196 46.5172 34.173 46.0878 34.1717C45.4526 34.1676 44.8174 34.1676 44.1822 34.1717C43.7964 34.1757 43.5988 34.3816 43.5906 34.7623C43.581 35.2365 43.5756 35.7093 43.5715 36.1834C43.5688 36.6156 43.3834 36.8526 42.9186 36.8608C42.4292 36.8689 42.2084 36.6467 42.2097 36.1699C42.2124 34.3654 42.2097 32.5609 42.2111 30.7564C42.2111 30.3188 42.4128 30.0926 42.8722 30.0858C43.3643 30.0791 43.5756 30.3148 43.5729 30.7862C43.5715 31.2604 43.5851 31.7332 43.5824 32.2073C43.5797 32.6435 43.7664 32.8928 44.2258 32.8928C44.8378 32.8928 45.4512 32.8928 46.0633 32.8915C46.479 32.8901 46.6903 32.6815 46.6931 32.2656C46.6971 31.7467 46.704 31.2279 46.7121 30.709C46.719 30.247 46.982 30.0804 47.4182 30.0885C47.8326 30.0953 48.0616 30.2823 48.063 30.7009C48.0671 31.6261 48.0644 32.5501 48.0644 33.4753C48.0671 33.4753 48.0685 33.4753 48.0712 33.4753L48.0725 33.474Z" fill="black"/>
<path d="M27.3558 2.68132C27.3244 4.139 26.1276 5.29863 24.6745 5.27967C23.2459 5.2607 22.0273 4.0252 22.0464 2.61359C22.0668 1.12746 23.2691 -0.0226903 24.7767 0.000339866C26.2257 0.02337 27.3871 1.23042 27.3571 2.68132H27.3558Z" fill="black"/>
<path d="M52.0038 32.7547C52.0038 32.1004 52.0052 31.4474 52.0038 30.7931C52.0038 30.3244 52.2165 30.0873 52.7058 30.0859C53.202 30.0859 53.3956 30.3339 53.3942 30.7999C53.3942 31.927 53.3806 33.0555 53.4133 34.1826C53.4405 35.0997 54.0717 35.6985 54.9195 35.6796C55.7456 35.6606 56.3331 35.0835 56.359 34.188C56.3917 33.0609 56.3781 31.9338 56.3781 30.8053C56.3781 30.342 56.5635 30.0846 57.0624 30.0873C57.4999 30.09 57.763 30.2675 57.7617 30.7213C57.7589 32.0963 57.778 33.4727 57.7194 34.8464C57.7031 35.2257 57.4986 35.6321 57.2832 35.9627C56.6916 36.8704 55.1008 37.2415 53.7391 36.8406C52.6731 36.5263 52.0624 35.7161 52.0174 34.5145C51.9956 33.9293 52.0133 33.3427 52.0133 32.7561C52.0093 32.7561 52.0065 32.7561 52.0024 32.7561L52.0038 32.7547Z" fill="black"/>
<path d="M2.58618 30.0913C3.06191 30.0913 3.53901 30.0818 4.01338 30.094C4.43731 30.1048 4.60634 30.3555 4.60634 30.7592C4.60634 31.1615 4.43731 31.4108 4.01338 31.4243C3.51447 31.4406 3.01693 31.4433 2.51802 31.4487C2.00276 31.4541 1.87871 31.763 1.88144 32.2087C1.8828 32.6503 2.06546 32.8888 2.52347 32.8915C2.88607 32.8942 3.24866 32.9023 3.61125 32.905C4.02428 32.9091 4.32008 33.0405 4.3269 33.5187C4.33371 33.9942 4.057 34.146 3.63306 34.1487C3.2473 34.1514 2.86289 34.1581 2.47713 34.1663C2.09273 34.1744 1.89235 34.3749 1.88417 34.7556C1.87462 35.2284 1.86781 35.7025 1.86508 36.1753C1.86236 36.6048 1.68379 36.8473 1.21623 36.8567C0.730959 36.8662 0.501953 36.6508 0.501953 36.1726C0.503316 34.3695 0.504679 32.5664 0.501953 30.7632C0.501953 30.2769 0.752769 30.0723 1.22305 30.0777C1.67697 30.0832 2.12953 30.0777 2.58345 30.0777C2.58345 30.0805 2.58345 30.0832 2.58345 30.0859L2.58618 30.0913Z" fill="black"/>
</svg>
