<svg width="32" height="32" viewBox="0 0 32 32" fill="none" xmlns="http://www.w3.org/2000/svg">
<path d="M31 16C31 24.2843 24.2843 31 16 31C7.71573 31 1 24.2843 1 16C1 7.71573 7.71573 1 16 1C24.2843 1 31 7.71573 31 16Z" fill="#2DE6C8" stroke="white" stroke-width="2"/>
<path fill-rule="evenodd" clip-rule="evenodd" d="M10.2635 14.1859C10.2635 11.7091 12.2714 9.70128 14.7481 9.70128C17.2249 9.70128 19.2327 11.7091 19.2327 14.1859C19.2327 16.6627 17.2249 18.6705 14.7481 18.6705C12.2714 18.6705 10.2635 16.6627 10.2635 14.1859ZM14.7481 6.01782C10.237 6.01782 6.58008 9.6748 6.58008 14.1859C6.58008 18.697 10.237 22.3539 14.7481 22.3539C15.7344 22.3539 16.6799 22.1791 17.5552 21.8588L20.7142 26.1882L23.6898 24.0171L20.6424 19.8406C22.0507 18.373 22.9162 16.3805 22.9162 14.1859C22.9162 9.6748 19.2592 6.01782 14.7481 6.01782Z" fill="white"/>
</svg>
