<svg width="36" height="36" viewBox="0 0 36 36" fill="none" xmlns="http://www.w3.org/2000/svg">
<path d="M18 35C27.3888 35 35 27.3888 35 18C35 8.61116 27.3888 1 18 1C8.61116 1 1 8.61116 1 18C1 27.3888 8.61116 35 18 35Z" fill="#2DE6C8" stroke="white" stroke-width="2"/>
<path d="M8.67221 21.78H27.9689C28.6365 20.9006 29.0325 19.8094 29.0325 18.6214C29.0325 15.7253 26.6843 13.3771 23.7882 13.3771C23.3231 13.3771 22.8719 13.4416 22.4437 13.5567C21.3249 11.9958 19.4969 10.9783 17.4296 10.9783C14.5703 10.9783 12.1715 12.9259 11.467 15.5596C11.1677 15.4767 10.8547 15.426 10.5277 15.426C8.62156 15.426 7.0791 16.9731 7.0791 18.8747C7.0791 20.0948 7.71451 21.1676 8.67221 21.78Z" fill="white"/>
</svg>
