<svg width="111" height="26" viewBox="0 0 111 26" fill="none" xmlns="http://www.w3.org/2000/svg">
<g clip-path="url(#clip0_2788_9365)">
<path d="M36.4682 23.6831C36.2095 24.1815 35.7532 24.6016 34.9771 24.6016C34.0175 24.6016 33.3088 23.9085 33.3088 22.9241C33.3088 21.9397 33.9956 21.2466 34.9222 21.2466C35.8489 21.2466 36.4337 21.8983 36.4337 22.8704C36.4337 22.9302 36.4337 23.01 36.4274 23.0498H33.9015C33.936 23.7092 34.3295 24.1217 34.9771 24.1217C35.5008 24.1217 35.8081 23.8549 36.0323 23.4163L36.4682 23.6831ZM33.9156 22.6052H35.8489C35.8018 22.0332 35.4882 21.7204 34.9159 21.7204C34.3437 21.7204 33.9909 22.0531 33.9156 22.6052Z" fill="black"/>
<path d="M42.4043 22.5452V24.5218H41.8398V22.5974C41.8398 22.0316 41.567 21.7249 41.0637 21.7249C40.5604 21.7249 40.1653 22.0316 40.1653 22.5974V24.5218H39.6009V22.5974C39.6009 22.0316 39.3359 21.7249 38.831 21.7249C38.3262 21.7249 37.9326 22.0316 37.9326 22.5897V24.5202H37.3682V21.3247H37.9326V21.7234C38.1568 21.4167 38.5253 21.2434 38.9612 21.2434C39.4441 21.2434 39.8188 21.4228 40.0023 21.8154C40.2876 21.3952 40.7094 21.2434 41.1939 21.2434C41.97 21.2434 42.4059 21.7433 42.4059 22.5422" fill="black"/>
<path d="M43.4736 25.9203V21.3278H44.0381V21.8399C44.2827 21.4934 44.6715 21.248 45.236 21.248C46.1077 21.248 46.7537 22.0009 46.7537 22.9256C46.7537 23.8502 46.1077 24.6031 45.236 24.6031C44.6715 24.6031 44.2827 24.3562 44.0381 24.0173V25.9218H43.4736V25.9203ZM46.1626 22.924C46.1626 22.1911 45.7675 21.7265 45.1137 21.7265C44.5085 21.7265 44.0381 22.2463 44.0381 22.924C44.0381 23.6018 44.5085 24.1216 45.1137 24.1216C45.7675 24.1216 46.1626 23.6631 46.1626 22.924Z" fill="black"/>
<path d="M47.3604 22.9241C47.3604 21.9397 48.102 21.2466 49.0349 21.2466C49.9678 21.2466 50.7094 21.9381 50.7094 22.9241C50.7094 23.9101 49.9678 24.6016 49.0349 24.6016C48.102 24.6016 47.3604 23.9024 47.3604 22.9241ZM50.1167 22.9241C50.1167 22.1911 49.6746 21.7265 49.0349 21.7265C48.3952 21.7265 47.953 22.1865 47.953 22.9241C47.953 23.6617 48.3952 24.1217 49.0349 24.1217C49.6746 24.1217 50.1167 23.6555 50.1167 22.9241Z" fill="black"/>
<path d="M52.1393 24.5219L51.1311 21.3263H51.7238L52.4858 23.956L53.2149 21.3263H53.7793L54.5084 23.956L55.2626 21.3263H55.8552L54.8549 24.5219H54.1948L53.4939 22.1053L52.7994 24.5219H52.1393Z" fill="black"/>
<path d="M59.4364 23.6831C59.1777 24.1815 58.7215 24.6016 57.9454 24.6016C56.9858 24.6016 56.2771 23.9085 56.2771 22.9241C56.2771 21.9397 56.9638 21.2466 57.8905 21.2466C58.8171 21.2466 59.4019 21.8983 59.4019 22.8704C59.4019 22.9302 59.4019 23.01 59.3957 23.0498H56.8698C56.9043 23.7092 57.2994 24.1217 57.9454 24.1217C58.469 24.1217 58.7764 23.8549 59.0006 23.4163L59.4364 23.6831ZM56.8839 22.6052H58.8171C58.7701 22.0332 58.4565 21.7204 57.8842 21.7204C57.3119 21.7204 56.9591 22.0531 56.8839 22.6052Z" fill="black"/>
<path d="M60.3349 24.5219V21.3263H60.8994V21.8661C61.0687 21.4996 61.3556 21.2742 61.8244 21.2742C62.2932 21.2742 62.7087 21.6207 62.7087 22.1727C62.7087 22.3123 62.6884 22.4595 62.6335 22.6251L62.102 22.5714C62.1161 22.4779 62.1286 22.392 62.1286 22.3123C62.1286 21.9335 61.9797 21.7664 61.6582 21.7664C61.2365 21.7664 60.8962 22.2387 60.8962 22.9517V24.5219H60.3318H60.3349Z" fill="black"/>
<path d="M66.3464 23.6831C66.0877 24.1815 65.6314 24.6016 64.8553 24.6016C63.8957 24.6016 63.187 23.9085 63.187 22.9241C63.187 21.9397 63.8738 21.2466 64.8004 21.2466C65.727 21.2466 66.3119 21.8983 66.3119 22.8704C66.3119 22.9302 66.3119 23.01 66.3056 23.0498H63.7797C63.8142 23.7092 64.2093 24.1217 64.8553 24.1217C65.379 24.1217 65.6863 23.8549 65.9105 23.4163L66.3464 23.6831ZM63.7938 22.6052H65.727C65.68 22.0332 65.3664 21.7204 64.7941 21.7204C64.2218 21.7204 63.8691 22.0531 63.7938 22.6052Z" fill="black"/>
<path d="M67 22.9241C67 21.9918 67.646 21.2465 68.5177 21.2465C69.0822 21.2465 69.471 21.4934 69.7156 21.8323V19.8956H70.2801V24.5218H69.7156V24.0097C69.471 24.3562 69.0822 24.6016 68.5177 24.6016C67.646 24.6016 67 23.8487 67 22.9241ZM69.7156 22.9241C69.7156 22.2448 69.2452 21.7265 68.64 21.7265C67.9862 21.7265 67.5911 22.1865 67.5911 22.9241C67.5911 23.6616 67.9862 24.1216 68.64 24.1216C69.2452 24.1216 69.7156 23.6033 69.7156 22.9241Z" fill="black"/>
<path d="M73.6089 24.0097V24.5218H73.0444V19.8956H73.6089V21.8323C73.8535 21.4934 74.2423 21.2465 74.8068 21.2465C75.6785 21.2465 76.3245 21.9918 76.3245 22.9241C76.3245 23.8564 75.6785 24.6016 74.8068 24.6016C74.2423 24.6016 73.8535 24.3547 73.6089 24.0097ZM75.7334 22.9241C75.7334 22.185 75.3383 21.7265 74.6845 21.7265C74.0793 21.7265 73.6089 22.2463 73.6089 22.9241C73.6089 23.6018 74.0793 24.1216 74.6845 24.1216C75.3383 24.1216 75.7334 23.6555 75.7334 22.9241Z" fill="black"/>
<path d="M76.6867 25.6596L77.0332 25.2732C77.143 25.4327 77.2982 25.5201 77.4628 25.5201C77.7278 25.5201 77.8642 25.2931 78.0351 24.8546L78.1637 24.5219H77.9113L76.6726 21.3263H77.2778L78.3268 24.0695L79.3475 21.3263H79.9527L78.482 25.1199C78.217 25.7992 77.883 25.9985 77.433 25.9985C77.1132 25.9985 76.8341 25.885 76.6836 25.6596" fill="black"/>
<path d="M82.3357 24.5218V19.8956H84.1059C85.1407 19.8956 85.691 20.3158 85.691 21.0932C85.691 21.5931 85.3712 21.978 84.9227 22.0792C85.5625 22.2248 85.9435 22.6051 85.9435 23.2108C85.9435 24.0634 85.3508 24.5218 84.2956 24.5218H82.3357ZM82.9143 21.886H84.1184C84.7518 21.886 85.0842 21.613 85.0842 21.1208C85.0842 20.6286 84.744 20.3878 84.1184 20.3878H82.9143V21.886ZM82.9143 24.0296H84.2627C84.9494 24.0296 85.3382 23.7429 85.3382 23.2108C85.3382 22.6787 84.9572 22.3782 84.2423 22.3782H82.9143V24.0296Z" fill="black"/>
<path d="M86.9172 24.5219V21.3263H87.4817V21.8661C87.651 21.4996 87.9379 21.2742 88.4067 21.2742C88.8755 21.2742 89.291 21.6207 89.291 22.1727C89.291 22.3123 89.2706 22.4595 89.2158 22.6251L88.6842 22.5714C88.6984 22.4779 88.7109 22.392 88.7109 22.3123C88.7109 21.9335 88.5619 21.7664 88.2405 21.7664C87.8188 21.7664 87.4785 22.2387 87.4785 22.9517V24.5219H86.9141H86.9172Z" fill="black"/>
<path d="M89.7363 23.5895C89.7363 23.0298 90.26 22.5775 90.9891 22.5775C91.4312 22.5775 91.7652 22.7646 91.9753 22.9562V22.5361C91.9753 22.0301 91.69 21.7234 91.2055 21.7234C90.6739 21.7234 90.3886 21.9825 90.2663 22.4824L89.7552 22.3429C89.9245 21.6636 90.4623 21.245 91.2117 21.245C91.9612 21.245 92.5398 21.6912 92.5398 22.5162V24.5203H91.9753V24.1078C91.737 24.4268 91.3701 24.6 90.9891 24.6C90.26 24.6 89.7363 24.2136 89.7363 23.588M91.9753 23.6079V23.4883C91.7715 23.2553 91.4375 23.0421 91.0424 23.0421C90.6144 23.0421 90.3353 23.2691 90.3353 23.588C90.3353 23.9069 90.6144 24.14 91.0424 24.14C91.4375 24.14 91.7574 23.9131 91.9753 23.6079Z" fill="black"/>
<path d="M93.3708 23.47L93.8945 23.3764C93.9493 23.9484 94.3445 24.1416 94.8603 24.1416C95.268 24.1416 95.5753 23.976 95.5753 23.6295C95.5753 23.3565 95.4185 23.2568 95.003 23.1832L94.622 23.1234C94.0638 23.0238 93.5323 22.8505 93.5323 22.1651C93.5323 21.6054 94.023 21.2466 94.818 21.2466C95.6129 21.2466 96.0425 21.6453 96.1381 22.1712L95.627 22.3046C95.5596 21.9979 95.3213 21.7051 94.796 21.7051C94.346 21.7051 94.081 21.8707 94.081 22.1574C94.081 22.4442 94.2519 22.5561 94.7066 22.6297L95.0939 22.6956C95.638 22.7892 96.1554 22.9624 96.1554 23.6203C96.1554 24.2781 95.5909 24.5986 94.8415 24.5986C94.092 24.5986 93.3786 24.2459 93.3645 23.4669" fill="black"/>
<path d="M100.048 24.0418V24.5279C99.9606 24.5479 99.8572 24.554 99.7756 24.554C99.1908 24.554 98.8709 24.2013 98.4476 23.5818L98.0525 23.0022L97.6103 23.4147V24.5203H97.0459V19.894H97.6103V22.7829L99.2096 21.3247H99.9512L98.4884 22.6296L98.8898 23.2291C99.2911 23.8287 99.4479 24.0541 99.9183 24.0541C99.9591 24.0541 100.014 24.048 100.047 24.0403" fill="black"/>
<path d="M103.554 23.6831C103.296 24.1815 102.839 24.6016 102.063 24.6016C101.104 24.6016 100.395 23.9085 100.395 22.9241C100.395 21.9397 101.082 21.2466 102.008 21.2466C102.935 21.2466 103.52 21.8983 103.52 22.8704C103.52 22.9302 103.52 23.01 103.514 23.0498H100.988C101.022 23.7092 101.417 24.1217 102.063 24.1217C102.587 24.1217 102.894 23.8549 103.118 23.4163L103.554 23.6831ZM101.002 22.6052H102.935C102.888 22.0332 102.574 21.7204 102.002 21.7204C101.43 21.7204 101.077 22.0531 101.002 22.6052Z" fill="black"/>
<path d="M109.49 22.5452V24.5218H108.926V22.5974C108.926 22.0316 108.653 21.7249 108.15 21.7249C107.647 21.7249 107.251 22.0316 107.251 22.5974V24.5218H106.687V22.5974C106.687 22.0316 106.422 21.7249 105.917 21.7249C105.412 21.7249 105.019 22.0316 105.019 22.5897V24.5202H104.454V21.3247H105.019V21.7234C105.243 21.4167 105.611 21.2434 106.047 21.2434C106.53 21.2434 106.905 21.4228 107.088 21.8154C107.374 21.3952 107.797 21.2434 108.28 21.2434C109.056 21.2434 109.492 21.7433 109.492 22.5422" fill="black"/>
<path d="M28.5267 15.6113L27.2442 11.9972H21.3818L20.1431 15.6113H16.6921L22.1783 0.573486H26.4932L31.9793 15.6113H28.5283H28.5267ZM22.2441 9.46709H26.3364L24.2573 3.60345L22.2441 9.46709Z" fill="black"/>
<path d="M33.3057 15.6113V12.9709L41.2707 3.51604H33.5926V0.573486H45.4523V3.21243L37.4873 12.6688H45.7392V15.6113H33.3057Z" fill="black"/>
<path d="M47.2883 8.10241C47.2883 3.559 50.6296 0.269897 55.1875 0.269897C59.7454 0.269897 63.0866 3.559 63.0866 8.10241C63.0866 12.6458 59.7673 15.9134 55.1875 15.9134C50.6076 15.9134 47.2883 12.6243 47.2883 8.10241ZM59.6341 8.10241C59.6341 5.15985 57.798 3.21245 55.1875 3.21245C52.5769 3.21245 50.7628 5.15985 50.7628 8.10241C50.7628 11.045 52.6208 12.9709 55.1875 12.9709C57.7541 12.9709 59.6341 11.045 59.6341 8.10241Z" fill="black"/>
<path d="M83.9475 15.6113V0.573486H87.2433V12.6688H94.2565V15.6113H83.9475Z" fill="black"/>
<path d="M95.0532 8.10241C95.0532 3.559 98.3944 0.269897 102.952 0.269897C107.51 0.269897 110.852 3.559 110.852 8.10241C110.852 12.6458 107.532 15.9134 102.952 15.9134C98.3725 15.9134 95.0532 12.6243 95.0532 8.10241ZM107.399 8.10241C107.399 5.15985 105.563 3.21245 102.952 3.21245C100.342 3.21245 98.5277 5.15985 98.5277 8.10241C98.5277 11.045 100.386 12.9709 102.952 12.9709C105.519 12.9709 107.399 11.045 107.399 8.10241Z" fill="black"/>
<path d="M8.5044 12.9709C6.0271 12.9709 4.30083 10.9806 4.30083 8.10241C4.30083 5.22425 6.04905 3.21245 8.43855 3.21245C10.2197 3.21245 11.4944 4.20455 12.1953 6.33135L15.5475 5.79927C14.6208 2.27556 12.1906 0.269897 8.57182 0.269897C4.1017 0.269897 0.849854 3.559 0.849854 8.10241C0.849854 12.6458 4.0139 15.9134 8.43855 15.9134C12.2658 15.9134 14.7886 14.0964 15.7623 10.4178L12.3552 9.87653C11.7578 12.0401 10.4753 12.9709 8.50597 12.9709" fill="black"/>
<path d="M81.787 8.21279L81.4467 8.08859L76.0296 8.25573C76.0343 8.19746 76.0359 8.13919 76.0359 8.08092C76.0359 7.97205 76.0296 7.86625 76.0139 7.76198L76.1237 7.75891L81.7932 7.58411L81.787 8.21126V8.21279Z" fill="black"/>
<path d="M81.5676 6.25156L76.0062 7.70061C75.9795 7.5304 75.9325 7.3648 75.8713 7.20686L81.4327 5.75781L81.5676 6.25156Z" fill="black"/>
<path d="M80.9356 4.51126L75.8556 7.16861C75.7881 7.003 75.7019 6.8466 75.6016 6.70093L80.6816 4.04358L80.9356 4.51126Z" fill="black"/>
<path d="M79.9134 2.96558L75.5828 6.67789C75.4762 6.52609 75.3523 6.38809 75.2144 6.26541L79.5449 2.5531L79.9134 2.96558Z" fill="black"/>
<path d="M78.5666 1.68368L75.2066 6.25776C75.067 6.13355 74.9118 6.02468 74.744 5.93575C74.7409 5.93421 74.7378 5.93268 74.7346 5.92961L74.7644 5.88974L78.0978 1.354L78.5682 1.68368H78.5666Z" fill="black"/>
<path d="M76.9564 0.728337L74.7644 5.89123L74.744 5.93723C74.744 5.93723 74.7378 5.93416 74.7346 5.9311C74.5747 5.84369 74.4038 5.77469 74.2251 5.72409C74.2141 5.72102 74.2031 5.71796 74.1921 5.71489L74.2486 5.58149L76.4045 0.50293L76.9564 0.726803V0.728337Z" fill="black"/>
<path d="M75.1611 0.159416L74.2486 5.58298L74.225 5.72559C74.2141 5.72099 74.2031 5.71945 74.1921 5.71639C74.0212 5.66885 73.844 5.64125 73.6606 5.63205C73.6465 5.63205 73.6308 5.63052 73.6167 5.63052L73.6496 5.43885L74.5527 0.0612793L75.1611 0.159416Z" fill="black"/>
<path d="M73.6605 5.63063C73.6464 5.63063 73.6308 5.62909 73.6166 5.62909C73.5853 5.62909 73.5555 5.62756 73.5241 5.62756C73.3783 5.62756 73.2356 5.63983 73.0961 5.66283C73.0741 5.66743 73.0506 5.6705 73.0287 5.6751L73.0083 5.37915L72.6555 0.0414548L73.289 0.00158691L73.648 5.43895L73.6605 5.63216V5.63063Z" fill="black"/>
<path d="M73.0977 5.66275C73.0758 5.66735 73.0523 5.67042 73.0303 5.67502C72.8672 5.70722 72.7089 5.75475 72.5599 5.81609C72.5317 5.82682 72.5035 5.83909 72.4753 5.85289L72.3592 5.47721L70.7976 0.438522L71.4232 0.254517L73.0099 5.37907L73.0977 5.66275Z" fill="black"/>
<path d="M72.5583 5.81606C72.5301 5.82679 72.5019 5.83906 72.4737 5.85286C72.3294 5.91726 72.193 5.99393 72.0644 6.08593C72.0347 6.10587 72.0064 6.1258 71.9782 6.1488L71.7415 5.74859L69.0823 1.25119L69.664 0.921509L72.3592 5.47718L72.5599 5.81606H72.5583Z" fill="black"/>
<path d="M72.0659 6.08599C72.0361 6.10592 72.0079 6.12586 71.9797 6.14886C71.859 6.24086 71.7476 6.3436 71.6457 6.45707C71.6175 6.48774 71.5909 6.5184 71.5642 6.55214L71.1848 6.15499L67.6052 2.41968L68.1085 1.95813L71.7429 5.74865L72.0659 6.08599Z" fill="black"/>
<path d="M71.6457 6.45701C71.6175 6.48767 71.5908 6.51834 71.5642 6.55207C71.4733 6.66248 71.3933 6.78055 71.3227 6.90629C71.2992 6.94922 71.2757 6.99215 71.2553 7.03662L70.7128 6.68088L66.4355 3.88246L66.8307 3.30591L71.1863 6.15646L71.6473 6.45854L71.6457 6.45701Z" fill="black"/>
<path d="M71.3228 6.90631C71.2993 6.94924 71.2757 6.99217 71.2554 7.03664C71.1973 7.15625 71.1503 7.28198 71.1127 7.41079C71.097 7.46446 71.0829 7.51812 71.0719 7.57333L70.3742 7.31725L65.6438 5.57686L65.8994 4.91138L70.7129 6.68243L71.3243 6.90784L71.3228 6.90631Z" fill="black"/>
<path d="M71.1111 7.41081C71.0954 7.46448 71.0813 7.51968 71.0703 7.57335C71.0421 7.69755 71.0249 7.82636 71.0186 7.9567C71.017 7.9981 71.0155 8.0395 71.0155 8.0809C71.0155 8.09777 71.0155 8.11617 71.0155 8.13457L70.2205 8.03336L65.2612 7.40161L65.3584 6.67786L70.3726 7.31574L71.1111 7.40928V7.41081Z" fill="black"/>
<path d="M71.097 8.70347L70.1907 8.79088L65.3129 9.25703L65.2393 8.5118L70.2205 8.03492L71.0186 7.95825C71.017 7.99965 71.0154 8.04105 71.0154 8.08246C71.0154 8.09932 71.0154 8.11772 71.0154 8.13612C71.017 8.26186 71.0296 8.38453 71.0515 8.50414C71.0625 8.5716 71.0766 8.63907 71.0954 8.70347" fill="black"/>
<path d="M71.3071 9.22791L70.3664 9.54225L65.8069 11.0572L65.5544 10.3319L70.1923 8.79089L71.0547 8.50415C71.0657 8.57162 71.0798 8.63909 71.0986 8.70349C71.1284 8.81389 71.166 8.92276 71.2099 9.02703C71.2397 9.09604 71.2726 9.1635 71.3087 9.22944" fill="black"/>
<path d="M71.6317 9.69253L70.7317 10.2415L66.7037 12.6995L66.2788 12.034L70.3648 9.54073L71.2068 9.02551C71.2365 9.09451 71.2695 9.16198 71.3055 9.22792C71.3573 9.32606 71.4153 9.41806 71.4811 9.50699C71.5282 9.5714 71.5784 9.63426 71.6317 9.69407" fill="black"/>
<path d="M72.0629 10.0758L71.2539 10.8685L67.955 14.0994L67.3733 13.532L70.7333 10.2414L71.4828 9.50537C71.5298 9.56977 71.58 9.63111 71.6333 9.69091C71.7039 9.77065 71.7791 9.84578 71.8607 9.91478C71.9265 9.97152 71.9924 10.0252 72.0645 10.0743" fill="black"/>
<path d="M72.5723 10.3519L71.9201 11.3777L69.5039 15.1759L68.7905 14.7419L71.2537 10.8686L71.8589 9.91638C71.9248 9.97312 71.9906 10.0268 72.0628 10.0759C72.1443 10.1326 72.2274 10.1847 72.3152 10.2323C72.3983 10.2767 72.4845 10.3166 72.5723 10.3519Z" fill="black"/>
<path d="M73.1259 10.5052L72.7057 11.7227L71.2664 15.8859L70.4526 15.6175L71.9186 11.3777L72.3137 10.2323C72.3968 10.2768 72.4831 10.3166 72.5709 10.3519C72.6555 10.3872 72.7418 10.4163 72.8312 10.4408C72.9268 10.4684 73.024 10.4899 73.1259 10.5052Z" fill="black"/>
<path d="M73.7043 10.5298L73.5726 11.87L73.1477 16.1849L72.2744 16.1036L72.7056 11.7243L72.8326 10.4424C72.9282 10.47 73.0254 10.4915 73.1274 10.5068C73.2136 10.5206 73.3045 10.5298 73.3939 10.5344C73.4378 10.5359 73.4817 10.5375 73.5256 10.5375C73.5852 10.5375 73.6463 10.5359 73.7059 10.5313" fill="black"/>
<path d="M75.0386 16.0499L74.1496 16.1633L73.5726 11.8683L73.3923 10.5328C73.4362 10.5343 73.4801 10.5358 73.524 10.5358C73.5836 10.5358 73.6448 10.5343 73.7028 10.5297C73.7874 10.5251 73.869 10.5144 73.9505 10.5006C74.0634 10.4822 74.1731 10.4546 74.2798 10.4224L74.4726 11.8515L75.0371 16.0514L75.0386 16.0499Z" fill="black"/>
<path d="M76.8606 15.4979L76.0045 15.8138L74.4743 11.8515L73.9521 10.5006C74.065 10.4822 74.1748 10.4546 74.2814 10.4224C74.3535 10.4009 74.4241 10.3749 74.4915 10.3473C74.6013 10.3013 74.7079 10.2491 74.8098 10.1893L75.3586 11.6092L76.8606 15.4964V15.4979Z" fill="black"/>
<path d="M78.5053 14.5564L77.7308 15.0655L75.3585 11.6107L74.4915 10.3488C74.6028 10.3028 74.7078 10.2506 74.8097 10.1908C74.8709 10.1556 74.9305 10.1172 74.9869 10.0774C75.0873 10.0084 75.1829 9.93016 75.2707 9.84583L76.1738 11.1615L78.5053 14.5579V14.5564Z" fill="black"/>
<path d="M79.8774 13.2699L79.2283 13.9507L76.174 11.16L74.9871 10.0759C75.0874 10.0069 75.183 9.92867 75.2709 9.84434C75.3195 9.79987 75.3649 9.75387 75.4088 9.70327C75.4951 9.6082 75.5735 9.50699 75.6424 9.39966L76.8874 10.5374L79.8774 13.2699Z" fill="black"/>
<path d="M80.9199 11.715L80.4354 12.5369L76.8872 10.5359L75.4087 9.70322C75.4949 9.60816 75.5733 9.50695 75.6423 9.39962C75.6737 9.35208 75.705 9.30148 75.7317 9.25241C75.796 9.13434 75.8524 9.01167 75.8979 8.8844L77.4454 9.75843L80.9199 11.7166V11.715Z" fill="black"/>
<path d="M81.5737 9.96234L81.2884 10.8885L77.4454 9.75687L75.7317 9.25239C75.796 9.13432 75.8524 9.01165 75.8979 8.88438C75.9151 8.83684 75.9308 8.78777 75.9449 8.7387C75.9826 8.60683 76.0092 8.46883 76.0233 8.32776L77.806 8.85217L81.5737 9.96234Z" fill="black"/>
<path d="M81.7934 8.11162L81.7307 9.09452L77.8062 8.85224L75.9451 8.73724C75.9827 8.60537 76.0094 8.46736 76.0235 8.32629C76.0266 8.30329 76.0282 8.27876 76.0297 8.25576C76.0344 8.19749 76.036 8.13922 76.036 8.08095C76.036 7.97208 76.0297 7.86628 76.0141 7.76201C76.0141 7.75741 76.0141 7.75587 76.0141 7.75281L76.1254 7.75894L81.4469 8.08862L81.7949 8.11008L81.7934 8.11162Z" fill="black"/>
</g>
<defs>
<clipPath id="clip0_2788_9365">
<rect width="110" height="26" fill="white" transform="translate(0.849854)"/>
</clipPath>
</defs>
</svg>
