<svg xmlns="http://www.w3.org/2000/svg" width="130" height="21" viewBox="0 0 130 21" fill="none">
  <g clip-path="url(#clip0_5538_520)">
    <path d="M75.8897 8.37939L81.7522 9.98574C81.8205 10.0048 81.8951 9.96034 81.9137 9.8905L82.069 9.29367C82.0876 9.22383 82.0441 9.14764 81.9758 9.12859L76.1133 7.52225C76.045 7.5032 75.9705 7.54764 75.9518 7.61748L75.7966 8.21431C75.7779 8.28415 75.8214 8.36034 75.8897 8.37939Z" fill="black"/>
    <path d="M77.0556 5.12305L76.6333 5.87085L82.1191 9.10894L82.5414 8.36114L77.0556 5.12305Z" fill="black"/>
    <path d="M78.2123 3.62535L78.5988 3.23027C78.6515 3.17639 78.7349 3.18088 78.7832 3.23027L83.0735 7.61658C83.1262 7.67045 83.1262 7.76024 83.0735 7.81412L82.6871 8.20919C82.6344 8.26307 82.551 8.25858 82.5027 8.2092L78.2079 3.8184C78.1552 3.76453 78.1596 3.67922 78.2079 3.62984L78.2123 3.62535Z" fill="black"/>
    <path d="M80.2111 1.97522L80.6575 1.71181C80.7221 1.67373 80.8069 1.69698 80.8442 1.76297L83.877 7.13562C83.9142 7.20161 83.8884 7.28283 83.8292 7.31774L83.3828 7.58116C83.3182 7.61924 83.2388 7.59282 83.2046 7.53232L80.1687 2.15418C80.1315 2.08819 80.1573 2.00696 80.2165 1.97205L80.2111 1.97522Z" fill="black"/>
    <path d="M82.5552 0.902853L83.0232 0.77501C83.0952 0.755342 83.1652 0.801932 83.1829 0.869406L84.7492 6.86233C84.7684 6.93594 84.7244 7.01367 84.6524 7.03334L84.1844 7.16118C84.1125 7.18085 84.0364 7.1359 84.0172 7.06229L82.4525 1.0755C82.4333 1.00189 82.4788 0.930295 82.5448 0.912265L82.5552 0.902853Z" fill="black"/>
    <path d="M85.0934 6.97619H85.5468C85.6213 6.97619 85.6834 6.9127 85.6834 6.84286V0.633333C85.6834 0.557143 85.6213 0.5 85.5468 0.5H85.0934C85.0189 0.5 84.9568 0.563492 84.9568 0.633333V6.83651C84.9568 6.9127 85.0189 6.96984 85.0934 6.96984" fill="black"/>
    <path d="M86.0064 7.03964L86.4163 7.15393C86.4846 7.17298 86.5591 7.12853 86.5778 7.05869L88.149 1.06504C88.1676 0.995198 88.1241 0.919007 88.0558 0.89996L87.6459 0.785674C87.5776 0.766626 87.5031 0.811071 87.4845 0.880912L85.9133 6.87456C85.8946 6.9444 85.9381 7.0206 86.0064 7.03964Z" fill="black"/>
    <path d="M86.8758 7.34446L87.2174 7.54764C87.2795 7.58573 87.3664 7.56034 87.3974 7.49684L90.4343 2.12542C90.4715 2.06192 90.4467 1.97938 90.3846 1.94129L90.043 1.73811C89.9809 1.70002 89.9002 1.72542 89.8629 1.78891L86.8261 7.16034C86.7888 7.22383 86.8137 7.30637 86.8758 7.34446Z" fill="black"/>
    <path d="M88.2233 8.58889L88.391 8.88731C88.4283 8.9508 88.509 8.97619 88.5711 8.9381L93.825 5.83334C93.8871 5.79524 93.9119 5.7127 93.8747 5.64921L93.707 5.3508C93.6697 5.2873 93.589 5.26191 93.5269 5.3L88.273 8.39842C88.2109 8.43651 88.1861 8.51905 88.2233 8.58254" fill="black"/>
    <path d="M87.6271 7.87784L87.8879 8.1445C87.9376 8.1953 88.0246 8.1953 88.0742 8.1445L92.3656 3.7572C92.4152 3.70641 92.4152 3.61752 92.3656 3.56672L92.1047 3.30006C92.055 3.24926 91.9681 3.24926 91.9184 3.30006L87.6271 7.68736C87.5774 7.73815 87.5774 7.82704 87.6271 7.87784Z" fill="black"/>
    <path d="M94.9678 9.85872H88.7823L94.7132 8.23332C94.7815 8.21427 94.8249 8.13808 94.8063 8.06824L94.7256 7.76348C94.7069 7.69364 94.6324 7.64919 94.5641 7.66824L88.714 9.26824C88.6457 9.28729 88.6022 9.36348 88.6209 9.43332C88.7264 9.76983 88.7823 10.1254 88.7823 10.4936C88.7823 12.4492 87.236 14.0301 85.3232 14.0301C83.4104 14.0301 81.8641 12.4492 81.8641 10.4936C81.8641 10.3921 81.8641 10.2841 81.8765 10.1825C81.8765 10.1825 81.8765 10.1698 81.8765 10.1635C81.8765 10.0873 81.8144 10.0238 81.7461 10.0238H75.6786C75.6041 10.0238 75.542 10.0873 75.542 10.1635V10.8111C75.542 10.8873 75.6041 10.9508 75.6786 10.9508H81.8454L75.8898 12.5825C75.8215 12.6016 75.778 12.6778 75.7966 12.7476L75.9705 13.4016C75.9891 13.4778 76.0637 13.5159 76.132 13.4968L81.9759 11.8968L76.7344 14.9889C76.6723 15.027 76.6474 15.1095 76.6847 15.173L77.0325 15.7889C77.0697 15.8524 77.1505 15.8778 77.2126 15.8397L82.3547 12.8047L78.1565 17.0968C78.1068 17.1476 78.1068 17.2365 78.1565 17.2873L78.672 17.8143C78.7217 17.8651 78.8086 17.8651 78.8583 17.8143L82.9757 13.6048L80.0631 18.7603C80.0258 18.8238 80.0507 18.9063 80.1128 18.9444L80.7648 19.3317C80.827 19.3698 80.9077 19.3444 80.9449 19.2809L83.8017 14.227L82.3236 19.8651C82.305 19.9349 82.3485 20.0111 82.4168 20.0301L83.1744 20.2397C83.2427 20.2587 83.3173 20.2143 83.3359 20.1444L84.7829 14.6206V20.3413C84.7829 20.4174 84.845 20.4809 84.9195 20.4809H85.7331C85.8076 20.4809 85.8635 20.4174 85.8635 20.3413V14.7349L87.2857 20.1508C87.3043 20.2206 87.3788 20.2651 87.4471 20.246L88.2607 20.0238C88.329 20.0048 88.3725 19.9286 88.3538 19.8587L86.9627 14.5571L89.6456 19.3127C89.6828 19.3762 89.7636 19.4016 89.8257 19.3635L90.5833 18.919C90.6454 18.8809 90.6703 18.7984 90.633 18.7349L88.006 14.0809L91.726 17.8841C91.7757 17.9349 91.8626 17.9349 91.9123 17.8841L92.552 17.2301C92.6017 17.1794 92.6017 17.0905 92.552 17.0333L88.919 13.319L93.3717 15.9476C93.4338 15.9857 93.5146 15.9603 93.5518 15.8968L94.0176 15.0714C94.0549 15.0079 94.03 14.919 93.9679 14.8873L89.6145 12.3159L94.471 13.6492C94.5393 13.6682 94.6138 13.6238 94.6324 13.554L94.8808 12.6016C94.8995 12.5317 94.856 12.4555 94.7877 12.4365L90.043 11.1349H94.9616C95.0361 11.1349 95.092 11.0714 95.092 10.9952V9.97935C95.092 9.90316 95.0299 9.83967 94.9616 9.83967" fill="black"/>
    <path d="M9.04839 16.5254C6.12335 16.5254 4.08016 14.0683 4.08016 10.5127C4.08016 6.95718 6.14819 4.47464 8.96766 4.47464C11.0729 4.47464 12.5758 5.70004 13.408 8.32861L17.3702 7.66829C16.2772 3.31274 13.4018 0.836548 9.12292 0.836548C3.84417 0.836548 0 4.90004 0 10.5127C0 16.1254 3.73859 20.1635 8.96766 20.1635C13.4888 20.1635 16.4697 17.9159 17.6248 13.3762L13.6005 12.7096C12.8926 15.3826 11.3773 16.5318 9.04839 16.5318M120.666 16.5254C117.635 16.5254 115.437 14.1445 115.437 10.5127C115.437 6.88099 117.635 4.47464 120.666 4.47464C123.697 4.47464 125.92 6.88099 125.92 10.5127C125.92 14.1445 123.752 16.5254 120.666 16.5254ZM120.666 0.836548C115.282 0.836548 111.332 4.90004 111.332 10.5127C111.332 16.1254 115.282 20.1635 120.666 20.1635C126.05 20.1635 130 16.1 130 10.5127C130 4.92544 126.075 0.836548 120.666 0.836548ZM102.103 1.21115H98.2095V19.7889H110.394V16.1572H102.103V1.21115ZM64.2144 16.5254C61.1838 16.5254 58.9853 14.1445 58.9853 10.5127C58.9853 6.88099 61.1838 4.47464 64.2144 4.47464C67.245 4.47464 69.4683 6.88099 69.4683 10.5127C69.4683 14.1445 67.3009 16.5254 64.2144 16.5254ZM64.2144 0.836548C58.8301 0.836548 54.8803 4.90004 54.8803 10.5127C54.8803 16.1254 58.8301 20.1635 64.2144 20.1635C69.5987 20.1635 73.5485 16.1 73.5485 10.5127C73.5485 4.92544 69.6298 0.836548 64.2144 0.836548ZM52.7129 4.47464V1.21115H38.6963V4.84925H47.7696L38.3548 16.5318V19.7953H53.0483V16.1635H43.2981L52.7129 4.48099V4.47464ZM25.2821 12.1953L27.6606 4.95083L30.1199 12.1953H25.2821ZM25.2076 1.21115L18.724 19.7889H22.8042L24.2698 15.3254H31.2005L32.7158 19.7889H36.796L30.3062 1.21115H25.2076Z" fill="black"/>
  </g>
  <defs>
    <clipPath id="clip0_5538_520">
      <rect width="130" height="20" fill="white" transform="translate(0 0.5)"/>
    </clipPath>
  </defs>
</svg>