<svg width="123" height="32" viewBox="0 0 123 32" fill="none" xmlns="http://www.w3.org/2000/svg">
<g clip-path="url(#clip0_5183_3770)">
<path d="M0.5 19.9749C0.535569 19.8161 0.589536 19.6587 0.605481 19.4973C1.00533 15.3154 3.81407 11.9678 7.70584 11.0502C9.32975 10.6675 10.9524 10.6493 12.5678 11.1114C12.7358 11.1595 12.9002 11.2272 13.0952 11.2962C12.7321 12.4702 12.3777 13.6194 12.0293 14.7453C11.5988 14.649 11.2014 14.5305 10.7967 14.4733C8.11427 14.0945 6.169 15.7397 5.41101 17.9966C5.09702 18.9324 4.9805 19.8968 5.1424 20.8821C5.37421 22.3021 6.36524 23.2184 7.72669 23.2822C8.66007 23.3251 9.56157 23.152 10.4361 22.8123C10.5624 22.7629 10.6912 22.7186 10.8482 22.6613V26.1235C10.7427 26.1716 10.6201 26.2328 10.495 26.2836C9.67563 26.6207 8.81952 26.7938 7.94869 26.881C7.00917 26.976 6.07088 26.976 5.13626 26.7834C2.61085 26.2614 0.894941 24.2935 0.606708 21.581C0.590763 21.4171 0.536796 21.2596 0.5 21.0982C0.5 20.7233 0.5 20.3485 0.5 19.9749Z" fill="black"/>
<path d="M122.5 2.7177C122.478 2.86477 122.468 2.98842 122.441 3.10686C121.864 5.65791 120.874 8.02543 119.575 10.2498C117.806 13.2785 115.57 15.8673 112.964 18.1047C112.918 18.1437 112.869 18.1762 112.814 18.2192C112.717 18.1606 112.624 18.106 112.533 18.0487C109.999 16.4634 107.273 15.4287 104.387 14.8521C102.345 14.4434 100.285 14.2807 98.2112 14.3666C93.7552 14.5514 89.5593 15.7202 85.7154 18.171C84.1184 19.1902 82.6724 20.411 81.4041 21.8636C81.3649 21.9091 81.3416 21.969 81.3109 22.0223C81.2839 22.0054 81.2582 21.9885 81.2312 21.9716C81.2594 21.8609 81.2852 21.7503 81.3171 21.641C82.064 19.0977 83.1851 16.751 84.6189 14.5683C86.9775 10.9761 89.9469 8.06057 93.4143 5.70736C96.9589 3.30209 100.791 1.62569 104.91 0.706796C107.211 0.192682 109.541 -0.0546131 111.892 0.0104646C115.238 0.102875 118.471 0.765366 121.537 2.23222C121.85 2.3819 122.157 2.54329 122.5 2.71639V2.7177Z" fill="black"/>
<path d="M81.0042 23.4124C81.1783 23.1898 81.312 23.0115 81.4531 22.8397C83.2107 20.683 85.3387 19.0417 87.7378 17.7844C89.9958 16.6013 92.3753 15.8308 94.859 15.4078C96.5773 15.1149 98.3067 14.9913 100.045 15.0538C104.226 15.2021 108.183 16.2486 111.846 18.4339C111.974 18.5094 112.098 18.5914 112.251 18.6877C112.144 18.7762 112.063 18.8465 111.979 18.9129C108.016 22.0262 103.63 24.1568 98.8158 25.2905C96.8104 25.763 94.7793 26.0259 92.7248 26.061C89.1262 26.1248 85.6367 25.5378 82.3055 24.041C81.8836 23.851 81.4702 23.6388 81.0029 23.4137L81.0042 23.4124Z" fill="black"/>
<path d="M117.515 23.5556C117.113 24.0345 116.73 24.5226 116.317 24.9782C114.724 26.7353 112.867 28.1123 110.815 29.1978C108.347 30.5046 105.737 31.3206 103.008 31.7215C101.254 31.9792 99.4941 32.0612 97.7279 31.9545C93.2499 31.6838 89.0711 30.3978 85.2983 27.7674C84.1479 26.9656 83.0906 26.0389 82.1314 24.9886C82.0296 24.8779 81.9315 24.7621 81.853 24.6137C81.9131 24.6333 81.9769 24.6463 82.0346 24.6723C84.0485 25.5808 86.1446 26.1639 88.3107 26.4815C90.2314 26.7626 92.1583 26.8342 94.0901 26.7001C97.8898 26.4372 101.535 25.4832 105.04 23.9135C107.754 22.6978 110.286 21.1516 112.631 19.2591C112.694 19.2084 112.757 19.1602 112.818 19.1121C113.642 19.3463 116.657 22.185 117.517 23.5556H117.515Z" fill="black"/>
<path d="M56.2284 20.6101C56.2848 21.2843 56.3915 21.8999 56.8306 22.3841C57.2893 22.8904 57.8707 23.1507 58.5097 23.2847C59.3597 23.4618 60.2084 23.3915 61.0547 23.2509C61.8728 23.1155 62.6554 22.8539 63.4084 22.4882C63.4526 22.4674 63.498 22.4491 63.5838 22.4114C63.7089 23.5099 63.7973 24.5902 63.8991 25.6913C63.7997 25.746 63.7089 25.802 63.6133 25.8488C62.6431 26.3174 61.6214 26.6011 60.5703 26.769C59.5989 26.9239 58.6213 26.9903 57.6389 26.9083C56.9312 26.8497 56.2394 26.7117 55.5759 26.4436C53.8624 25.7499 52.7904 24.4392 52.3464 22.565C51.8852 20.6192 52.057 18.7007 52.7082 16.8329C53.4282 14.77 54.6241 13.0897 56.4209 11.9534C58.2215 10.8146 60.1667 10.4657 62.2224 10.9265C63.1227 11.1282 63.9211 11.5603 64.5724 12.2658C65.2593 13.009 65.6199 13.9136 65.6984 14.9431C65.745 15.547 65.7155 16.1496 65.561 16.7379C65.2997 17.7336 64.7417 18.4989 63.9432 19.0755C63.1864 19.6209 62.3401 19.9398 61.457 20.1636C60.4145 20.4291 59.3523 20.5476 58.284 20.5918C57.7161 20.6153 57.147 20.6048 56.5779 20.6101C56.4724 20.6101 56.367 20.6101 56.2271 20.6101H56.2284ZM56.6785 17.2638C56.7521 17.2703 56.7999 17.2794 56.8465 17.2768C57.6487 17.2377 58.4521 17.2156 59.2518 17.1505C59.7387 17.1102 60.2268 17.01 60.6721 16.7861C60.9161 16.6637 61.1651 16.5128 61.3516 16.3123C61.9366 15.685 61.749 14.6489 60.9971 14.2754C60.8315 14.1934 60.6463 14.1335 60.4648 14.1101C59.5657 13.9917 58.7538 14.2311 58.0461 14.8338C57.3752 15.4051 56.9532 16.1548 56.7055 17.0204C56.6846 17.0933 56.6859 17.174 56.6761 17.2651L56.6785 17.2638Z" fill="black"/>
<path d="M17.9668 20.6114C18.0245 21.4392 18.2085 22.1498 18.8401 22.647C19.3749 23.0687 19.9832 23.2848 20.6382 23.346C22.1444 23.4852 23.5843 23.195 24.9703 22.5689C25.077 22.5208 25.1837 22.4726 25.3248 22.4101C25.429 23.5204 25.532 24.6006 25.6351 25.6966C25.4989 25.7668 25.38 25.8345 25.2561 25.8918C24.151 26.4033 22.9907 26.6922 21.7973 26.8393C20.978 26.9395 20.1562 26.9786 19.332 26.9044C18.585 26.838 17.8565 26.6844 17.1622 26.3812C15.4512 25.6328 14.4075 24.2688 14.0407 22.3698C13.4581 19.3554 14.1057 16.6104 15.8351 14.157C16.7783 12.819 18 11.8415 19.4865 11.2714C21.0258 10.6805 22.5982 10.5426 24.1951 10.9877C24.6906 11.1257 25.1567 11.343 25.586 11.6424C26.7402 12.448 27.3399 13.5973 27.4417 15.0472C27.4798 15.6004 27.4393 16.1484 27.3044 16.6872C27.0554 17.6868 26.5084 18.4599 25.7148 19.0456C24.9544 19.6066 24.0995 19.9333 23.2078 20.1584C21.8942 20.489 20.5573 20.6023 19.2118 20.6114C18.8119 20.614 18.4108 20.6114 17.9656 20.6114H17.9668ZM18.4072 17.2495C18.4599 17.2599 18.4967 17.2742 18.5347 17.2742C19.4951 17.2833 20.4555 17.2547 21.4048 17.0855C21.888 16.9996 22.3639 16.8707 22.7859 16.5844C23.2716 16.2551 23.4899 15.7865 23.3979 15.1774C23.3108 14.6034 22.9465 14.2962 22.4461 14.1583C21.8181 13.9852 21.1951 14.0555 20.6051 14.3197C19.435 14.8429 18.7739 15.8321 18.4292 17.092C18.417 17.1388 18.4157 17.1896 18.4084 17.2469L18.4072 17.2495Z" fill="black"/>
<path d="M36.7586 23.0141C36.5967 24.2115 36.4373 25.379 36.2778 26.5569C35.9639 26.7352 35.6217 26.7795 35.2868 26.8276C34.5472 26.9331 33.8039 26.9864 33.0582 26.907C32.5382 26.8511 32.0328 26.7326 31.5594 26.4892C30.5316 25.9582 29.9956 25.0705 29.9232 23.8731C29.8631 22.88 30.0079 21.9039 30.1857 20.9316C30.5659 18.8608 30.9388 16.7887 31.3141 14.718C31.319 14.688 31.3141 14.6568 31.3141 14.5891H29.4854C29.6706 13.4021 29.8827 12.2659 30.0839 11.0958H31.947C31.9789 10.9812 32.0108 10.8966 32.0267 10.8081C32.1702 10.022 32.3149 9.23713 32.4499 8.44969C32.483 8.25967 32.5406 8.14773 32.743 8.09177C34.0701 7.72603 35.3923 7.33947 36.7157 6.96072C36.7709 6.9451 36.8286 6.93859 36.9304 6.91907C36.6826 8.30652 36.4397 9.66795 36.1871 11.0762H39.3294C39.1099 12.2619 38.8989 13.3995 38.6818 14.5696H35.5701C35.5174 14.839 35.4696 15.0798 35.4242 15.3219C35.109 16.9931 34.7876 18.663 34.4859 20.3368C34.4037 20.7949 34.3792 21.2648 34.3399 21.7294C34.3289 21.8622 34.3473 22.0002 34.3718 22.1316C34.4712 22.6835 34.7815 22.9946 35.3138 23.031C35.7038 23.057 36.0975 23.0336 36.4888 23.0297C36.5649 23.0297 36.6409 23.0219 36.7562 23.0141H36.7586Z" fill="black"/>
<path d="M71.5097 26.5907H67.2119C68.5672 19.0729 69.9176 11.5786 71.2705 4.07251H75.5817C74.224 11.5838 72.8687 19.0768 71.5097 26.5907Z" fill="black"/>
<path d="M51.6767 10.7704C51.3946 12.2763 51.1223 13.7315 50.8427 15.2243C50.7384 15.2243 50.6341 15.2269 50.5311 15.2243C50.0295 15.2087 49.5315 15.2243 49.0446 15.3753C48.2559 15.6213 47.623 16.1081 47.114 16.7862C46.5044 17.5971 46.1132 18.5277 45.874 19.5208C45.663 20.3954 45.5036 21.2844 45.3417 22.172C45.0902 23.5491 44.856 24.93 44.6131 26.3097C44.5972 26.3995 44.5727 26.488 44.5481 26.5908H40.2737C40.2798 26.4919 40.2786 26.4112 40.2921 26.3318C40.7091 23.9825 41.1273 21.6345 41.5468 19.2865C41.8449 17.6218 42.1503 15.9584 42.3232 14.2729C42.4275 13.2603 42.5244 12.2464 42.6249 11.2338C42.6286 11.2025 42.6347 11.1726 42.6396 11.1427C42.8371 11.0672 45.874 11.0398 46.3671 11.1153C46.2861 12.1618 46.2052 13.2121 46.1218 14.282C46.2591 14.2391 46.2824 14.118 46.3315 14.0269C46.6958 13.3566 47.1214 12.7358 47.6512 12.2008C48.4166 11.4277 49.3009 10.9058 50.3655 10.7652C50.7862 10.7092 51.2045 10.7418 51.6742 10.7704H51.6767Z" fill="black"/>
</g>
<defs>
<clipPath id="clip0_5183_3770">
<rect width="122" height="32" fill="white" transform="translate(0.5)"/>
</clipPath>
</defs>
</svg>
