<svg width="32" height="32" viewBox="0 0 32 32" fill="none" xmlns="http://www.w3.org/2000/svg">
<path d="M31 16C31 24.2843 24.2843 31 16 31C7.71573 31 1 24.2843 1 16C1 7.71573 7.71573 1 16 1C24.2843 1 31 7.71573 31 16Z" fill="#2DE6C8" stroke="white" stroke-width="2"/>
<path fill-rule="evenodd" clip-rule="evenodd" d="M21.8845 14.9872C21.401 12.1095 18.8963 9.90862 15.885 9.90862C12.8738 9.90862 10.3691 12.1095 9.88561 14.9872H6.16992C6.681 10.0744 10.8433 6.23438 15.885 6.23438C20.9268 6.23438 25.0891 10.0744 25.6001 14.9872H21.8845ZM10.066 17.8047C10.839 20.285 13.1528 22.0893 15.8812 22.0913C18.6096 22.0893 20.928 20.285 21.6965 17.8047H25.4766C24.6294 22.3307 20.6467 25.7656 15.8812 25.7656C11.1157 25.7656 7.133 22.3307 6.28581 17.8047H10.066Z" fill="white"/>
</svg>
