<svg width="32" height="32" viewBox="0 0 32 32" fill="none" xmlns="http://www.w3.org/2000/svg">
<rect width="32" height="32" rx="16" fill="black"/>
<path fill-rule="evenodd" clip-rule="evenodd" d="M21.664 11.7505L17.4142 16.0002L21.689 20.275C21.8723 20.4583 21.9633 20.684 21.9619 20.952C21.9606 21.22 21.8589 21.4551 21.6569 21.6571C21.4717 21.8423 21.2367 21.9356 20.9519 21.937C20.6671 21.9385 20.4331 21.8475 20.2497 21.6642L16 17.4144L11.7253 21.6892C11.5419 21.8725 11.3162 21.9635 11.0482 21.9622C10.7802 21.9608 10.5452 21.8591 10.3431 21.6571C10.1579 21.4719 10.0646 21.2369 10.0632 20.9521C10.0618 20.6674 10.1527 20.4333 10.336 20.25L14.5858 16.0002L10.311 11.7255C10.1277 11.5422 10.0367 11.3165 10.0381 11.0485C10.0394 10.7804 10.1411 10.5454 10.3431 10.3434C10.5283 10.1582 10.7633 10.0649 11.0481 10.0634C11.3329 10.062 11.5669 10.1529 11.7503 10.3363L16 14.586L20.2747 10.3113C20.4581 10.1279 20.6838 10.0369 20.9518 10.0383C21.2198 10.0397 21.4548 10.1413 21.6569 10.3434C21.8421 10.5286 21.9354 10.7636 21.9368 11.0483C21.9382 11.3331 21.8473 11.5672 21.664 11.7505Z" fill="#EDEDEF"/>
</svg>
