<svg xmlns="http://www.w3.org/2000/svg" width="99" height="34" viewBox="0 0 99 34" fill="none">
  <g clip-path="url(#clip0_5538_546)">
    <path d="M82.6622 27.8513C82.6622 28.5934 82.5158 29.3282 82.2313 30.0138C81.9468 30.6994 81.5299 31.3223 81.0043 31.8469C80.4787 32.3715 79.8547 32.7875 79.168 33.0711C78.4814 33.3548 77.7455 33.5005 77.0024 33.5H70.0762C69.3331 33.5005 68.5973 33.3548 67.9106 33.0711C67.2239 32.7875 66.6 32.3715 66.0744 31.8469C65.5487 31.3223 65.1318 30.6994 64.8473 30.0138C64.5628 29.3282 64.4164 28.5934 64.4164 27.8513V20.5964C64.4149 19.8531 64.5601 19.1168 64.8439 18.4297C65.1276 17.7425 65.5443 17.118 66.07 16.5919C66.5957 16.0657 67.2202 15.6483 67.9076 15.3635C68.595 15.0787 69.332 14.9321 70.0762 14.9321H76.9946C77.7395 14.9311 78.4773 15.077 79.1656 15.3613C79.854 15.6456 80.4794 16.0629 81.0059 16.5891C81.5324 17.1153 81.9498 17.7402 82.234 18.4279C82.5182 19.1155 82.6638 19.8524 82.6622 20.5964V27.8513ZM76.5751 19.2346H70.5307C70.122 19.2397 69.7317 19.4055 69.4445 19.696C69.1573 19.9864 68.9963 20.3782 68.9963 20.7865V27.6806C68.9963 28.0888 69.1573 28.4806 69.4445 28.7711C69.7317 29.0616 70.122 29.2273 70.5307 29.2324H76.5751C76.9872 29.2324 77.3824 29.0689 77.6738 28.7779C77.9652 28.4869 78.1289 28.0921 78.1289 27.6806V20.771C78.1248 20.3621 77.9593 19.9713 77.6684 19.6837C77.3774 19.396 76.9845 19.2346 76.5751 19.2346ZM16.1506 28.825C13.011 29.2451 9.83373 29.3076 6.67999 29.0113C5.30097 28.8871 5.17666 27.8474 5.17666 27.6301V20.5964C5.17666 19.3355 6.2993 19.3316 6.87811 19.2773C9.02627 19.0756 16.1506 19.4713 16.1506 19.4713V15.5529C12.7161 15.0028 9.23201 14.8259 5.75935 15.0253C4.59928 15.0708 3.47983 15.4642 2.54681 16.1542C1.83578 16.7183 1.30518 17.4774 1.02017 18.3384C0.60452 19.5528 0.631712 22.994 0.631712 23.4169V25.8222C0.631712 27.9289 0.740481 29.3721 1.21828 30.4545C2.43027 33.2013 4.89309 33.2905 5.76323 33.4069C8.5407 33.7948 16.1622 32.9491 16.1622 32.9491L16.1506 28.825ZM33.6661 14.9321V27.665C33.6661 28.0766 33.5024 28.4713 33.211 28.7624C32.9196 29.0534 32.5244 29.2169 32.1123 29.2169H26.0873C25.6752 29.2169 25.28 29.0534 24.9886 28.7624C24.6972 28.4713 24.5335 28.0766 24.5335 27.665V14.9321H19.9924V28.4565C19.9924 29.7941 20.5245 31.0769 21.4715 32.0228C22.4186 32.9686 23.703 33.5 25.0424 33.5H32.6794C34.5518 33.5 35.0646 33.0383 35.8221 32.2818L36.4125 31.6921L37.003 31.1024C37.7566 30.3497 38.2227 29.8376 38.2227 27.9638V14.9321H33.6661ZM56.4763 20.7516V27.6456C56.4763 28.0572 56.3126 28.4519 56.0212 28.743C55.7298 29.034 55.3346 29.1975 54.9225 29.1975H47.7399C47.3278 29.1975 46.9326 29.034 46.6412 28.743C46.3498 28.4519 46.1861 28.0572 46.1861 27.6456V20.771C46.1861 20.3594 46.3498 19.9647 46.6412 19.6736C46.9326 19.3826 47.3278 19.2191 47.7399 19.2191H54.9264C55.3385 19.2191 55.7337 19.3826 56.0251 19.6736C56.3165 19.9647 56.4802 20.3594 56.4802 20.771L56.4763 20.7516ZM55.7616 14.9321H49.7987C47.5651 14.9321 47.938 14.8429 46.2016 16.2396V8.48035H41.645V27.9676C41.645 29.8415 42.1112 30.3536 42.8648 31.1063C42.9619 31.2071 43.3504 31.5912 43.4552 31.696C43.5601 31.8007 43.9447 32.1887 44.0457 32.2857C44.7993 33.0422 45.316 33.5039 47.1883 33.5039H55.7616C56.4516 33.5044 57.1349 33.3691 57.7726 33.1057C58.4102 32.8423 58.9897 32.4561 59.4778 31.9689C59.9659 31.4818 60.3531 30.9034 60.6172 30.2668C60.8814 29.6301 61.0174 28.9478 61.0174 28.2586V20.1813C61.0174 18.7891 60.4637 17.454 59.478 16.4696C58.4923 15.4852 57.1555 14.9321 55.7616 14.9321Z" fill="black"/>
    <path d="M91.9969 10.2921C91.589 10.3542 91.3132 10.521 91.3132 10.843C91.3132 11.165 91.5152 11.2814 91.8066 11.2814C91.95 11.2832 92.0908 11.2431 92.2116 11.1658C92.3324 11.0886 92.4279 10.9777 92.4864 10.8469C92.4864 10.8469 92.4864 10.8198 92.4864 10.812C92.4938 10.754 92.4938 10.6954 92.4864 10.6374V10.2766H92.2766C92.1832 10.2767 92.0898 10.2819 91.9969 10.2921Z" fill="black"/>
    <path d="M96.3439 0.5H87.2268C86.6223 0.501026 86.0429 0.741287 85.6155 1.16815C85.1881 1.59501 84.9476 2.17366 84.9465 2.77733V11.8828C84.9465 12.4868 85.1868 13.066 85.6144 13.4931C86.042 13.9202 86.622 14.1601 87.2268 14.1601H96.3439C96.9486 14.1601 97.5286 13.9202 97.9562 13.4931C98.3839 13.066 98.6241 12.4868 98.6241 11.8828V2.77733C98.6231 2.17366 98.3825 1.59501 97.9551 1.16815C97.5277 0.741287 96.9483 0.501026 96.3439 0.5ZM87.1685 11.8828H86.108V7.332H87.1685V11.8828ZM96.0564 7.332H97.0625L96.1574 8.24759H95.4155L96.0564 7.332ZM89.8528 11.8673C89.671 11.9432 89.4746 11.9776 89.2778 11.9681C89.124 11.9739 88.9707 11.9483 88.8271 11.8929C88.6835 11.8376 88.5527 11.7536 88.4426 11.6461C88.2181 11.3588 88.1124 10.9964 88.1474 10.6336V9.24853H87.6618V8.47261H88.1474V7.332H89.1807V8.46873H89.8411V9.24465H89.1807V10.4512C89.1807 10.8702 89.2662 11.0991 89.6352 11.0991C89.709 11.1024 89.7828 11.0919 89.8528 11.0681V11.8673ZM93.4926 11.8673H92.6302L92.5137 11.5142C92.3788 11.6632 92.213 11.781 92.0278 11.8594C91.8426 11.9378 91.6425 11.9749 91.4415 11.9681C91.2956 11.9798 91.1488 11.9617 91.0101 11.9149C90.8714 11.8681 90.7437 11.7936 90.6347 11.696C90.5257 11.5984 90.4377 11.4797 90.3761 11.3471C90.3144 11.2144 90.2804 11.0707 90.2762 10.9245C90.2762 10.04 91.1269 9.59382 92.5059 9.60157V9.56278C92.5059 9.40372 92.3738 9.08559 91.7523 9.08947C91.3928 9.09428 91.0402 9.18898 90.7268 9.36492L90.5287 8.69375C90.9608 8.46827 91.4437 8.3574 91.931 8.37174C93.0964 8.37174 93.5081 9.04291 93.5081 9.86539L93.4926 11.8673ZM97.482 11.8673H96.643L96.4915 11.3978C96.4484 11.461 96.4003 11.5207 96.3478 11.5763C96.2787 11.6446 96.2017 11.7045 96.1186 11.7548C96.0164 11.8163 95.9067 11.8645 95.7923 11.8983C95.6515 11.9423 95.5046 11.9633 95.3572 11.9604C95.1812 11.9633 95.0062 11.9344 94.8405 11.875C94.6903 11.8204 94.5566 11.7282 94.4521 11.6073C94.3318 11.4742 94.2417 11.3168 94.1879 11.1457C94.1178 10.925 94.085 10.6943 94.0908 10.4628V8.46873H95.128V10.2727C95.128 10.8081 95.3183 11.1263 95.7495 11.1263C95.8882 11.1262 96.0236 11.0844 96.1379 11.0061C96.2523 10.9279 96.3404 10.817 96.3905 10.6879C96.4165 10.6185 96.4284 10.5446 96.4254 10.4706V8.46873H97.4782L97.482 11.8673Z" fill="black"/>
  </g>
  <defs>
    <clipPath id="clip0_5538_546">
      <rect width="98" height="33" fill="white" transform="translate(0.620117 0.5)"/>
    </clipPath>
  </defs>
</svg>