<svg width="83" height="28" viewBox="0 0 83 28" fill="none" xmlns="http://www.w3.org/2000/svg">
<g clip-path="url(#clip0_2788_9357)">
<path d="M69.4517 23.1963C69.4517 25.8285 67.3142 28 64.6506 28H58.7972C56.1665 28 53.9961 25.8614 53.9961 23.1963V17.0435C53.9961 14.4113 56.1336 12.2398 58.7972 12.2398H64.6506C67.2813 12.2398 69.4517 14.3784 69.4517 17.0435V23.1963ZM64.2889 15.8919H59.1589C58.4355 15.8919 57.8435 16.4842 57.8435 17.208V23.0647C57.8435 23.7885 58.4355 24.3808 59.1589 24.3808H64.2889C65.0123 24.3808 65.6042 23.7885 65.6042 23.0647V17.1751C65.6042 16.4842 65.0123 15.8919 64.2889 15.8919ZM13.1538 24.0188C10.6874 24.2821 8.61574 24.4795 5.13 24.1834C3.97905 24.0847 3.84751 23.1634 3.84751 22.9989V17.0435C3.84751 15.9577 4.80116 15.9577 5.29442 15.9248C7.10306 15.7603 13.1538 16.0894 13.1538 16.0894V12.7662C11.0492 12.3714 7.16883 12.1082 4.34078 12.3056C3.12406 12.4043 2.26906 12.7662 1.61138 13.2597C0.953691 13.7862 0.559079 14.4442 0.328889 15.1023C-0.0328384 16.1223 4.59055e-05 19.0506 4.59055e-05 19.4125V21.4525C4.59055e-05 23.2292 0.0986988 24.4466 0.493311 25.3678C1.51272 27.7039 3.61732 27.7697 4.34078 27.8684C6.67556 28.1975 13.1538 27.4736 13.1538 27.4736V24.0188ZM27.9846 12.2398V23.0318C27.9846 23.7556 27.3927 24.3479 26.6692 24.3479H21.5393C20.8158 24.3479 20.2239 23.7556 20.2239 23.0318V12.2398H16.4093V23.7227C16.4093 26.0917 18.3166 28 20.6843 28H27.1625C28.7409 28 29.1684 27.6052 29.8261 26.9801C29.9248 26.8814 30.2207 26.5523 30.3194 26.4865C30.418 26.3878 30.7469 26.0588 30.8126 25.993C31.4374 25.3678 31.8321 24.9072 31.8321 23.3279V12.2398H27.9846ZM47.2877 17.1751V23.0318C47.2877 23.7556 46.6958 24.3479 45.9723 24.3479H39.8887C39.1653 24.3479 38.5733 23.7556 38.5733 23.0318V17.1751C38.5733 16.4513 39.1653 15.859 39.8887 15.859H45.9723C46.6958 15.8919 47.2877 16.4842 47.2877 17.1751ZM46.6958 12.2398H41.6645C39.7572 12.2398 40.086 12.174 38.6062 13.3584V6.77795H34.7588V23.295C34.7588 24.8743 35.1534 25.302 35.7782 25.9601C35.8768 26.0588 36.2057 26.3549 36.2714 26.4536L36.7647 26.9472C37.3895 27.5723 37.8499 27.9671 39.4283 27.9671H46.6958C49.1621 27.9671 51.1351 25.9601 51.1351 23.5253V16.6816C51.1351 14.2468 49.1292 12.2398 46.6958 12.2398Z" fill="black"/>
<path fill-rule="evenodd" clip-rule="evenodd" d="M81.0598 0H73.332C72.2468 0 71.3918 0.855464 71.3918 1.94125V9.67333C71.3918 10.7591 72.2797 11.6146 73.332 11.6146H81.0598C82.145 11.6146 83 10.7262 83 9.67333V1.94125C83 0.855464 82.1121 0 81.0598 0ZM73.2333 5.79083H72.3455V9.64042H73.2333V5.79083ZM77.6398 8.29142H77.8043H77.8371V8.62045C77.8371 8.6369 77.8289 8.66157 77.8207 8.68625C77.8125 8.71093 77.8043 8.7356 77.8043 8.75206V8.78496C77.7056 8.98237 77.5083 9.14688 77.2123 9.14688C76.9493 9.14688 76.7848 9.01528 76.7848 8.78496C76.7848 8.52174 77.015 8.39013 77.3768 8.32432C77.4425 8.29142 77.5412 8.29142 77.6398 8.29142H77.6398ZM78.6264 7.9624C78.6264 7.23854 78.2646 6.6792 77.2781 6.6792C76.7191 6.6792 76.3245 6.81081 76.16 6.97532L76.3245 7.53466C76.5218 7.40305 76.8506 7.30435 77.1795 7.30435C77.7056 7.30435 77.8043 7.56757 77.8043 7.69918V7.73208C76.6533 7.73208 75.9299 8.09401 75.9299 8.85076C75.9299 9.3114 76.2587 9.73913 76.9164 9.73913C77.2781 9.73913 77.607 9.60752 77.8043 9.3772L77.9029 9.67332H78.6264V7.9624ZM81.0927 8.45593V6.745V6.6792H81.9806V9.57462H81.2571L81.1585 9.17979C81.1256 9.24559 81.0927 9.27849 81.0269 9.34428L81.0269 9.3443L81.0269 9.34432C80.9611 9.41012 80.8954 9.47591 80.8296 9.50881C80.7638 9.57462 80.6652 9.60752 80.5665 9.64042L80.5665 9.64042C80.4679 9.67332 80.3363 9.70623 80.2048 9.70623C80.0404 9.70623 79.9089 9.67332 79.7773 9.64042C79.6458 9.57462 79.5471 9.50881 79.4485 9.4101C79.3498 9.3114 79.2841 9.17979 79.2183 9.01528C79.1525 8.85076 79.1196 8.65335 79.1196 8.42303V6.745H80.0075V8.29142C80.0075 8.75206 80.1719 9.01528 80.5337 9.01528C80.7967 9.01528 80.994 8.81786 81.0598 8.65335C81.0927 8.58754 81.0927 8.52174 81.0927 8.45593ZM74.0883 6.745V5.79083H74.9762V6.745H75.5352V7.40305H74.9762V8.42303C74.9762 8.78496 75.0749 8.98237 75.3708 8.98237C75.4334 8.98237 75.4827 8.96915 75.5188 8.95947C75.5396 8.95388 75.5561 8.94947 75.5681 8.94947V9.60752C75.4366 9.67332 75.3379 9.70623 75.0749 9.70623C74.746 9.70623 74.4829 9.60752 74.3514 9.44301C74.1541 9.27849 74.0883 8.98237 74.0883 8.58754V7.40305H73.6937V6.745H74.0883ZM80.2048 6.58049L80.7638 5.79083H81.586L80.8296 6.58049H80.2048Z" fill="black"/>
</g>
<defs>
<clipPath id="clip0_2788_9357">
<rect width="83" height="28" fill="white"/>
</clipPath>
</defs>
</svg>
