<svg width="99" height="26" viewBox="0 0 99 26" fill="none" xmlns="http://www.w3.org/2000/svg">
<g clip-path="url(#clip0_3793_9483)">
<path d="M57.2122 0.823364C52.8709 0.823364 50.9201 2.57073 50.9201 6.15693V9.99015C50.9201 12.3688 51.6894 13.9514 53.5945 14.6925L49.6287 25.1583H54.2356L54.5012 24.4173C54.5012 24.4173 54.5012 24.3899 54.5287 24.3624L57.835 15.3512H58.9432V25.1309H63.2296V0.823364H57.2214H57.2122ZM58.8791 12.1034H57.1847C55.701 12.1034 55.124 11.2618 55.124 10.0176V6.15693C55.124 4.94018 55.7102 4.09852 57.1847 4.09852H58.8791V12.1034Z" fill="#1D1D1B"/>
<path d="M5.57455 12.1035H1.31567V0.841675H7.26894C11.6103 0.841675 13.5611 2.58904 13.5611 6.17524V12.0943H9.32969V6.1478C9.32969 4.93105 8.74352 4.08939 7.26894 4.08939H5.57455V12.0943V12.1035Z" fill="#1D1D1B"/>
<path d="M0.65625 12.7347H4.9426V22.5145H6.637C8.12074 22.5145 8.69774 21.6728 8.69774 20.4286V12.7439H12.9291V20.4561C12.9291 24.0789 10.9691 25.8445 6.637 25.8445H0.65625V12.7439V12.7347Z" fill="#1D1D1B"/>
<path d="M20.467 0.823364H16.1807V12.076H20.467V0.823364Z" fill="#1D1D1B"/>
<path d="M19.8074 12.7347H15.521V25.8171H19.8074V12.7347Z" fill="#1D1D1B"/>
<path d="M30.8348 12.1034H24.5884C22.9215 10.411 22.5552 8.85574 22.5552 5.86418C22.5552 2.37861 24.4602 0.658691 28.7191 0.658691C32.978 0.658691 34.883 2.37861 34.883 5.86418V9.66995H30.6516V5.86418C30.6516 4.72977 30.1204 3.93385 28.7191 3.93385C27.3178 3.93385 26.7866 4.70232 26.7866 5.86418C26.7866 7.73962 27.0522 8.66362 28.5084 9.9627L30.8348 12.1034Z" fill="#1D1D1B"/>
<path d="M23.929 12.7347H30.1937L31.65 14.0521C33.7657 15.9276 34.2419 17.5102 34.2419 20.7854C34.2419 24.271 32.3094 25.9909 28.078 25.9909C23.8466 25.9909 21.9141 24.271 21.9141 20.7854V16.9247H26.1455V20.758C26.1455 21.8924 26.6767 22.6883 28.078 22.6883C29.4793 22.6883 30.0105 21.9198 30.0105 20.758C30.0105 18.8825 29.7449 17.9585 28.2886 16.6594L24.4511 13.2288C24.2404 13.0732 24.0847 12.9086 23.9199 12.7256L23.929 12.7347Z" fill="#1D1D1B"/>
<path d="M49.5097 0.823364V4.12597H44.9302V12.1034H40.6439V4.12597H36.0645V0.823364H49.5005H49.5097Z" fill="#1D1D1B"/>
<path d="M44.2707 12.7347H39.9844V25.8171H44.2707V12.7347Z" fill="#1D1D1B"/>
<path d="M90.5598 11.4448H86.2734V5.20549C86.3009 1.71992 88.206 0 92.4648 0C96.7237 0 98.6562 1.71992 98.6562 5.20549V11.4448H94.3699V5.20549C94.3699 4.07108 93.8387 3.27516 92.4374 3.27516C91.0361 3.27516 90.5598 4.04363 90.5598 5.20549V11.4448Z" fill="#1D1D1B"/>
<path d="M85.6416 20.1358V12.1034H89.928V20.1358C89.928 21.2702 90.4317 22.0661 91.8055 22.0661C93.1794 22.0661 93.738 21.2976 93.738 20.1358V12.1034H97.9969V20.1358C97.9969 23.6213 96.0369 25.3413 91.8055 25.3413C87.5741 25.3413 85.6416 23.6213 85.6416 20.1358Z" fill="#1D1D1B"/>
<path d="M70.6667 0.155518H66.3804V11.4082H70.6667V0.155518Z" fill="#1D1D1B"/>
<path d="M70.0073 12.1034H65.7209V25.1857H70.0073V12.1034Z" fill="#1D1D1B"/>
<path d="M80.7506 11.4448H76.4642V3.45812H71.8848V0.155518H85.3208V3.45812H80.7414V11.4356L80.7506 11.4448Z" fill="#1D1D1B"/>
<path d="M80.0913 12.1034H75.8049V25.1857H80.0913V12.1034Z" fill="#1D1D1B"/>
</g>
<defs>
<clipPath id="clip0_3793_9483">
<rect width="98" height="26" fill="white" transform="translate(0.65625)"/>
</clipPath>
</defs>
</svg>
