<svg width="175" height="50" viewBox="0 0 175 50" fill="none" xmlns="http://www.w3.org/2000/svg"  preserveAspectRatio="xMinYMin">
<path d="M12.4053 14.9541H37.4034C38.1924 14.9541 38.8327 14.4992 38.8327 13.9394V11.0165C38.8327 10.4567 38.1932 10 37.4034 10H12.4053C11.6163 10 10.9741 10.4559 10.9741 11.0165V13.9394C10.9741 14.4992 11.6154 14.9541 12.4053 14.9541Z" fill="black"/>
<path d="M27.8595 19.9484V17.0256C27.8595 16.4658 27.22 16.0108 26.4284 16.0108H1.43114C0.640387 16.0108 0 16.4658 0 17.0256V19.9484C0 20.51 0.639503 20.9649 1.43114 20.9649H26.4292C27.22 20.9649 27.8604 20.51 27.8604 19.9484H27.8595Z" fill="black"/>
<path d="M18.5615 22.0251C17.7725 22.0251 17.1304 22.4801 17.1304 23.0416V25.9645C17.1304 26.526 17.7716 26.981 18.5615 26.981H33.1064C33.8972 26.981 34.5376 26.526 34.5376 25.9645V23.0416C34.5376 22.4801 33.8981 22.0251 33.1064 22.0251H18.5615Z" fill="black"/>
<path d="M31.5029 31.9692V29.0463C31.5029 28.4848 30.8616 28.0298 30.0718 28.0298H5.07366C4.28467 28.0298 3.64429 28.4848 3.64429 29.0463V31.9692C3.64429 32.529 4.28379 32.984 5.07366 32.984H30.0718C30.8607 32.984 31.5029 32.529 31.5029 31.9692Z" fill="black"/>
<path d="M45.0465 34.0459H20.0475C19.2586 34.0459 18.6182 34.5008 18.6182 35.0606V37.9835C18.6182 38.5433 19.2577 39 20.0475 39H45.0456C45.8364 39 46.4768 38.5442 46.4768 37.9835V35.0606C46.4768 34.5008 45.8373 34.0459 45.0456 34.0459H45.0465Z" fill="black"/>
<path d="M101.161 19.7362C100.398 19.1503 99.505 18.7512 98.5559 18.5739C96.4596 18.2045 94.3191 18.1477 92.206 18.4062C91.6072 18.4857 91.0181 18.6228 90.4476 18.8167C90.2158 18.897 89.9894 18.9939 89.7718 19.1057L89.4976 19.2507V14.7507C89.4976 14.5367 89.3216 14.3629 89.1049 14.3629H86.9582C86.7406 14.3629 86.5637 14.5358 86.561 14.7507V31.7046C86.5637 31.9203 86.7397 32.0941 86.9582 32.0967H89.1049C89.3225 32.0941 89.4976 31.9194 89.4976 31.7046V31.0418L89.8001 31.2749C89.9974 31.4243 90.2158 31.5456 90.4476 31.6347C91.011 31.8347 91.5895 31.991 92.1777 32.1019C93.0498 32.2652 93.937 32.3403 94.825 32.3264C96.0749 32.3456 97.3229 32.2373 98.5506 32.0041C99.4997 31.833 100.393 31.4391 101.155 30.8558C101.86 30.275 102.377 29.5048 102.645 28.6385C103.238 26.4492 103.238 24.1437 102.645 21.9544C102.376 21.0898 101.86 20.3205 101.161 19.7371V19.7362ZM100.087 27.0605C100.054 27.4674 99.9632 27.8682 99.8172 28.2507C99.7111 28.5372 99.536 28.7939 99.3069 28.9974C99.0486 29.2157 98.7452 29.3747 98.4179 29.4646C97.9421 29.6043 97.452 29.6908 96.9567 29.7214C96.3561 29.7729 95.6423 29.8008 94.8242 29.8008C94.1245 29.8008 93.4912 29.8008 92.9331 29.7493C92.4545 29.7301 91.9796 29.6628 91.5143 29.5484C91.1755 29.4672 90.8553 29.3249 90.5688 29.1284C90.314 28.9354 90.107 28.6883 89.9638 28.4044C89.7789 28.0211 89.6542 27.6115 89.5949 27.1906C89.5065 26.5802 89.4658 25.9636 89.472 25.3471C89.4658 24.7227 89.5073 24.0983 89.5949 23.48C89.6533 23.0495 89.7789 22.6303 89.9682 22.2382C90.1062 21.9474 90.314 21.6941 90.5732 21.5003C90.858 21.2977 91.1791 21.1483 91.5187 21.0619C91.9743 20.9422 92.4422 20.8724 92.9136 20.8514C93.4664 20.8191 94.1006 20.7999 94.8047 20.7999C95.6229 20.7999 96.3367 20.8278 96.9373 20.875C97.4317 20.9125 97.9217 20.9999 98.3985 21.1361C98.724 21.2287 99.0274 21.3876 99.2874 21.6033C99.5138 21.8129 99.6899 22.0696 99.8031 22.3552C99.9455 22.7412 100.035 23.1447 100.068 23.5551C100.11 24.0503 100.134 24.638 100.134 25.3104C100.134 25.9828 100.152 26.5705 100.087 27.0605Z" fill="black"/>
<path d="M138.114 14.3638H135.967C135.75 14.3638 135.573 14.5367 135.57 14.7515V19.2559L135.296 19.111C135.075 18.9931 134.844 18.8926 134.606 18.8123C134.036 18.6219 133.448 18.4866 132.852 18.4062C131.987 18.2918 131.115 18.2386 130.242 18.2473C128.992 18.2298 127.744 18.3355 126.516 18.5643C125.568 18.7311 124.674 19.1223 123.912 19.7031C123.206 20.2873 122.688 21.0628 122.422 21.9343C122.099 23.032 121.95 24.1716 121.978 25.3139C121.951 26.4422 122.101 27.5678 122.422 28.6516C122.693 29.517 123.209 30.2864 123.912 30.8689C124.675 31.4513 125.568 31.8452 126.516 32.0172C127.744 32.2504 128.992 32.3578 130.242 32.3395C131.133 32.3552 132.022 32.2626 132.889 32.0644C133.468 31.9308 134.03 31.736 134.568 31.4854C134.818 31.3527 135.054 31.1963 135.272 31.0182L135.57 30.785V31.6863C135.573 31.902 135.749 32.0757 135.967 32.0784H138.114C138.332 32.0757 138.507 31.9011 138.507 31.6863V14.7515C138.507 14.5376 138.331 14.3638 138.114 14.3638ZM135.447 27.1915C135.388 27.6106 135.263 28.0185 135.079 28.4001C134.935 28.683 134.728 28.931 134.474 29.124C134.189 29.3223 133.868 29.4655 133.528 29.5441C133.064 29.6585 132.588 29.7257 132.109 29.7449C131.561 29.7773 130.922 29.7965 130.218 29.7965C129.4 29.7965 128.686 29.7685 128.086 29.717C127.59 29.6864 127.1 29.6 126.624 29.4603C126.297 29.3703 125.994 29.2114 125.735 28.993C125.508 28.7887 125.333 28.5346 125.225 28.2508C125.08 27.8683 124.991 27.4674 124.961 27.0605C124.914 26.5706 124.89 25.982 124.89 25.3104C124.89 24.6389 124.89 24.0363 124.961 23.5411C124.99 23.1281 125.078 22.7203 125.225 22.3325C125.332 22.0469 125.507 21.7911 125.735 21.5859C125.995 21.3702 126.298 21.2103 126.624 21.1186C127.101 20.9833 127.59 20.8977 128.086 20.8619C128.686 20.8156 129.4 20.7868 130.218 20.7868C130.913 20.7868 131.551 20.7868 132.109 20.8287C132.588 20.8479 133.063 20.9152 133.528 21.0296C133.866 21.1169 134.186 21.2627 134.474 21.4592C134.729 21.6479 134.934 21.8967 135.07 22.1832C135.258 22.5788 135.385 23.0006 135.443 23.4346C135.531 24.0669 135.573 24.7052 135.566 25.3436C135.574 25.9619 135.535 26.5802 135.447 27.1923V27.1915Z" fill="black"/>
<path d="M156.354 14.3638H154.208C153.991 14.3638 153.815 14.5376 153.815 14.7515V19.2559L153.541 19.111C153.32 18.9931 153.089 18.8926 152.851 18.8123C152.28 18.6228 151.693 18.4866 151.097 18.4062C150.232 18.2918 149.36 18.2386 148.487 18.2473C147.237 18.2298 145.989 18.3355 144.761 18.5643C143.813 18.7311 142.919 19.1223 142.156 19.7031C141.448 20.2855 140.929 21.0619 140.667 21.9343C140.074 24.135 140.074 26.4509 140.667 28.6516C140.933 29.5188 141.451 30.289 142.156 30.8689C142.919 31.4522 143.812 31.8461 144.761 32.0172C145.989 32.2504 147.237 32.3578 148.487 32.3395C149.377 32.3552 150.266 32.2626 151.134 32.0644C151.712 31.9308 152.275 31.736 152.813 31.4854C153.061 31.3535 153.296 31.1972 153.512 31.0182L153.815 30.785V31.6863C153.815 31.9011 153.99 32.0757 154.208 32.0784H156.354C156.573 32.0757 156.749 31.902 156.752 31.6863V14.7515C156.749 14.5367 156.572 14.3638 156.354 14.3638ZM153.693 27.1915C153.634 27.6106 153.509 28.0185 153.324 28.4001C153.181 28.683 152.974 28.931 152.719 29.124C152.433 29.3214 152.112 29.4646 151.773 29.5441C151.309 29.6585 150.833 29.7257 150.355 29.7449C149.806 29.7773 149.168 29.7965 148.464 29.7965C147.645 29.7965 146.932 29.7685 146.331 29.717C145.836 29.6864 145.346 29.6 144.87 29.4603C144.543 29.3721 144.238 29.2122 143.981 28.993C143.754 28.7887 143.578 28.5346 143.471 28.2508C143.325 27.8683 143.236 27.4674 143.206 27.0605C143.159 26.5706 143.135 25.982 143.135 25.3104C143.135 24.6389 143.135 24.0363 143.206 23.5411C143.235 23.1281 143.325 22.7203 143.471 22.3325C143.578 22.0478 143.751 21.792 143.976 21.5859C144.237 21.3702 144.543 21.2103 144.87 21.1186C145.347 20.9833 145.836 20.8977 146.331 20.8619C146.932 20.8156 147.645 20.7868 148.464 20.7868C149.159 20.7868 149.797 20.7868 150.355 20.8287C150.833 20.8479 151.308 20.9152 151.773 21.0296C152.111 21.1169 152.432 21.2627 152.719 21.4592C152.975 21.6479 153.18 21.8967 153.315 22.1832C153.504 22.5788 153.63 23.0006 153.688 23.4346C153.777 24.0669 153.818 24.7052 153.811 25.3436C153.819 25.9619 153.78 26.5802 153.693 27.1923V27.1915Z" fill="black"/>
<path d="M174.552 21.874C174.283 21.0138 173.763 20.2506 173.058 19.6803C172.293 19.1066 171.4 18.7206 170.454 18.5555C167.988 18.1451 165.472 18.1451 163.007 18.5555C162.06 18.7223 161.168 19.1075 160.402 19.6803C159.698 20.2532 159.18 21.0173 158.912 21.8793C158.588 22.9586 158.438 24.0817 158.468 25.2073C158.439 26.3531 158.589 27.4962 158.912 28.5966C159.176 29.4725 159.692 30.2541 160.397 30.8461C161.157 31.4365 162.051 31.8373 163.002 32.0128C165.468 32.4486 167.992 32.4486 170.457 32.0128C171.408 31.8382 172.302 31.4374 173.062 30.8461C173.768 30.2541 174.285 29.4725 174.551 28.5966C174.873 27.4953 175.023 26.3531 174.996 25.2073C175.023 24.0799 174.873 22.956 174.551 21.8749L174.552 21.874ZM171.938 27.1067C171.878 27.5425 171.753 27.9669 171.569 28.3669C171.433 28.6559 171.227 28.9074 170.968 29.0996C170.683 29.2996 170.362 29.4463 170.023 29.5336C169.566 29.6506 169.099 29.7213 168.628 29.7441C168.075 29.7764 167.436 29.7956 166.737 29.7956C165.919 29.7956 165.205 29.7676 164.604 29.7161C164.111 29.6838 163.622 29.5956 163.148 29.455C162.823 29.3607 162.52 29.2017 162.259 28.9878C162.033 28.7782 161.86 28.5197 161.753 28.2315C161.608 27.8342 161.518 27.4202 161.484 26.9993C161.432 26.4954 161.408 25.8981 161.408 25.2161C161.398 24.5917 161.439 23.9673 161.531 23.349C161.586 22.9281 161.709 22.5185 161.895 22.1351C162.029 21.8539 162.235 21.6112 162.491 21.4304C162.779 21.2391 163.099 21.1012 163.437 21.0243C163.901 20.9108 164.377 20.8453 164.855 20.8287C165.418 20.8008 166.051 20.7868 166.747 20.7868C167.442 20.7868 168.08 20.7868 168.638 20.8287C169.115 20.847 169.59 20.9117 170.056 21.0199C170.393 21.1012 170.714 21.24 171.002 21.4304C171.257 21.6129 171.462 21.8548 171.598 22.1351C171.779 22.5203 171.901 22.9289 171.963 23.349C172.052 23.9673 172.093 24.5917 172.085 25.2161C172.084 25.8492 172.034 26.4806 171.939 27.1067H171.938Z" fill="black"/>
<path d="M109.949 26.2666H119.689C119.869 26.2666 120.027 26.1453 120.072 25.9723L120.251 25.2676C120.254 25.2353 120.254 25.2021 120.251 25.1698C120.251 24.5323 120.216 23.8948 120.143 23.2608C120.082 22.6949 119.94 22.1404 119.722 21.6129C119.509 21.1265 119.225 20.6741 118.88 20.2689C118.489 19.807 118.006 19.4271 117.462 19.1529C116.82 18.8324 116.136 18.6045 115.429 18.4761C114.528 18.3137 113.612 18.2377 112.696 18.2473C111.446 18.2289 110.197 18.3399 108.97 18.5791C108.01 18.759 107.11 19.1747 106.356 19.7878C105.652 20.4148 105.14 21.2234 104.876 22.122C104.553 23.2835 104.404 24.4843 104.432 25.6885C104.404 26.7557 104.557 27.8211 104.881 28.8393C105.158 29.6698 105.678 30.4008 106.375 30.9396C107.147 31.5107 108.044 31.895 108.994 32.06C110.22 32.2792 111.465 32.3805 112.71 32.363C113.861 32.377 115.012 32.3063 116.152 32.1526C116.965 32.0513 117.753 31.8164 118.488 31.4574C119.077 31.1649 119.557 30.6959 119.859 30.1178C120.139 29.5153 120.277 28.8577 120.26 28.1949C120.26 27.9809 120.084 27.8071 119.867 27.8071H117.721C117.503 27.8071 117.326 27.98 117.324 28.1949C117.339 28.4822 117.278 28.7677 117.148 29.0253C117.004 29.2358 116.793 29.3921 116.548 29.469C116.09 29.6218 115.612 29.7126 115.129 29.7397C114.5 29.7912 113.71 29.8192 112.718 29.8192C111.829 29.8261 110.941 29.7895 110.056 29.7074C109.495 29.6725 108.949 29.5126 108.458 29.2402C108.065 28.9764 107.782 28.58 107.664 28.1241C107.554 27.7565 107.48 27.3801 107.442 26.9993C107.417 26.905 107.405 26.8072 107.404 26.7103V23.9097C107.417 23.5717 107.453 23.2346 107.513 22.901C107.559 22.57 107.673 22.2522 107.849 21.9675C108.014 21.7439 108.221 21.5544 108.459 21.4077C108.752 21.233 109.071 21.1055 109.405 21.0296C109.871 20.9274 110.346 20.8663 110.823 20.8479C111.381 20.8156 112.019 20.8016 112.714 20.8016C113.459 20.7912 114.203 20.8488 114.936 20.9745C115.437 21.0514 115.911 21.2488 116.317 21.5483C116.665 21.8181 116.928 22.1788 117.079 22.5892C117.219 23.0102 117.299 23.4486 117.315 23.8913V24.0869H109.949V26.2666H109.949Z" fill="black"/>
<path d="M57.7251 14.3638H41.7826C41.5651 14.3638 41.3882 14.5367 41.3855 14.7515V31.7055C41.3882 31.9212 41.5642 32.0949 41.7826 32.0976H55.6783C55.8959 32.0949 56.0711 31.9203 56.0711 31.7055V29.9414C56.0711 29.7266 55.8959 29.5519 55.6783 29.5493H44.3309V16.9077H57.7251C57.9418 16.9077 58.1178 16.7339 58.1178 16.5199V14.7507C58.1178 14.5367 57.9418 14.3629 57.7251 14.3629V14.3638Z" fill="black"/>
<path d="M56.1843 21.7902H46.5112V24.3341H56.1843C56.4019 24.3341 56.5788 24.1611 56.5814 23.9463V22.177C56.5788 21.9622 56.4019 21.7893 56.1843 21.7893V21.7902Z" fill="black"/>
<path d="M84.1306 21.1885C83.989 20.7318 83.7661 20.3039 83.4734 19.9231C83.1629 19.5336 82.7711 19.2149 82.3244 18.9896C81.7981 18.7232 81.2338 18.5381 80.6509 18.4385C79.8982 18.3119 79.1357 18.2525 78.3724 18.2612C77.4516 18.2464 76.5317 18.3346 75.6304 18.5224C74.9759 18.6612 74.3408 18.8778 73.7393 19.1668C73.2917 19.3791 72.8796 19.6594 72.5196 19.9973L72.2781 20.2401L72.1507 20.0628C72.0623 19.9397 71.9676 19.8209 71.8668 19.7083C71.5413 19.3633 71.1486 19.0856 70.7134 18.8918C70.1959 18.6673 69.6502 18.5101 69.0921 18.4246C68.3756 18.3145 67.6512 18.263 66.9268 18.2709C66.1918 18.2639 65.4576 18.3215 64.7332 18.4438C64.1857 18.5381 63.6479 18.6865 63.1305 18.8874C62.7324 19.0289 62.3539 19.2201 62.0054 19.4568L61.5941 19.779V18.9904C61.5941 18.7765 61.418 18.6027 61.2013 18.6027H59.0546C58.837 18.6027 58.6601 18.7756 58.6575 18.9904V31.7054C58.6601 31.9212 58.8361 32.0949 59.0546 32.0976H61.2013C61.4189 32.0949 61.5941 31.9203 61.5941 31.7054V23.8258C61.5879 23.3927 61.6542 22.9621 61.7931 22.5517C61.9169 22.1954 62.1442 21.8819 62.4458 21.6505C62.8563 21.3492 63.3268 21.1378 63.8266 21.0296C64.6014 20.8549 65.3957 20.7746 66.1909 20.7912C66.9047 20.7746 67.6176 20.8435 68.3137 20.9964C68.7347 21.0837 69.1213 21.288 69.4291 21.5841C69.705 21.8871 69.8846 22.2635 69.9447 22.667C70.05 23.2835 70.0995 23.9088 70.0916 24.534V31.7089C70.0916 31.9238 70.2667 32.0984 70.4843 32.101H72.631C72.8486 32.0984 73.0237 31.9238 73.0237 31.7089V23.8249C73.0175 23.3918 73.0839 22.9613 73.2227 22.5508C73.3466 22.1945 73.5739 21.881 73.8755 21.6496C74.2859 21.3483 74.7565 21.137 75.2562 21.0287C76.0311 20.854 76.8254 20.7746 77.6205 20.7903C78.3343 20.7737 79.0473 20.8427 79.7434 20.9955C80.1653 21.0828 80.5545 21.2872 80.8641 21.5832C81.1356 21.8889 81.3125 22.2644 81.3744 22.6661C81.4823 23.2826 81.5319 23.9079 81.5212 24.5332V31.7081C81.5212 31.9229 81.6964 32.0976 81.914 32.1002H84.0837C84.3022 32.0976 84.4782 31.9238 84.4808 31.7081V24.5288C84.4808 23.8896 84.4569 23.2826 84.4101 22.736C84.3765 22.2111 84.2845 21.6915 84.1359 21.1859L84.1306 21.1885Z" fill="black"/>
</svg>
