<svg xmlns="http://www.w3.org/2000/svg" width="119" height="16" viewBox="0 0 119 16" fill="none">
  <g clip-path="url(#clip0_5538_551)">
    <path d="M21.9701 6.445V4.385L19.1401 4.605V15.465H21.9701V9.565C21.9701 8.525 22.3501 7.665 23.0301 7.055C23.7101 6.445 24.6801 6.095 25.8801 6.095C26.7001 6.095 27.3401 6.365 27.7801 6.845C28.2201 7.325 28.4801 8.035 28.4801 8.895V15.455H31.3101V8.145C31.3101 6.985 30.9001 6.025 30.1101 5.365C29.3201 4.705 28.1801 4.375 26.7901 4.375C25.7501 4.375 24.7501 4.585 23.8801 4.975C23.1001 5.325 22.4501 5.825 21.9701 6.425" fill="black"/>
    <path d="M38.0101 7.10505C38.6301 6.38505 39.4901 5.94505 40.5001 5.94505C41.5801 5.94505 42.5101 6.38505 43.1801 7.10505C43.8501 7.82505 44.2601 8.83505 44.2601 10.0151C44.2601 11.1951 43.8701 12.2651 43.2101 12.9851C42.5501 13.7051 41.6201 14.1251 40.5101 14.1251C39.4801 14.1251 38.6101 13.7051 37.9901 12.9751C37.3701 12.2451 37.0001 11.2051 37.0001 9.96505C37.0101 8.80505 37.4001 7.81505 38.0101 7.10505ZM47.0501 15.4651V0.305054L44.2201 0.525054V6.07505C43.0201 4.98505 41.4601 4.38505 39.7901 4.38505C38.1201 4.38505 36.6601 4.88505 35.6401 5.85505C34.6001 6.83505 34.0601 8.23505 34.0601 9.89505C34.0601 11.5551 34.6201 13.0851 35.6401 14.0951C36.6501 15.1051 38.1001 15.6751 39.8401 15.6751C41.7001 15.6751 43.3801 14.9951 44.4701 13.7951V15.4651H47.0501Z" fill="black"/>
    <path d="M74.0201 11.665C74.0201 12.185 73.6801 12.755 73.0601 13.195C72.4201 13.635 71.7101 13.945 70.6101 13.945C69.7201 13.945 69.0301 13.775 68.5601 13.475C68.0701 13.155 67.8201 12.665 67.8201 12.035C67.8201 11.405 68.0401 10.875 68.4101 10.495C68.7801 10.115 69.3401 9.86502 70.0401 9.79502C71.0301 9.71502 74.0301 9.51502 74.0301 9.51502V11.665H74.0201ZM76.5201 5.99502C76.3001 5.61502 75.9701 5.30502 75.5301 5.08502C74.6801 4.61502 73.3101 4.39502 71.4201 4.39502C69.6601 4.39502 67.7001 4.63502 65.8301 5.02502L65.6501 5.06502L66.1201 6.27502L66.2401 6.25502C67.9601 6.02502 69.5101 5.95502 70.9601 5.95502C72.1101 5.95502 72.8801 6.08502 73.3601 6.33502C73.6001 6.46502 73.7601 6.61502 73.8601 6.79502C73.9701 6.98502 74.0201 7.20502 74.0201 7.47502V8.26502C74.0201 8.26502 70.3501 8.48502 69.1301 8.56502C67.8301 8.69502 66.7601 9.08502 66.0201 9.71502C65.2801 10.345 64.8701 11.205 64.8701 12.225C64.8701 13.355 65.3201 14.235 66.2001 14.835C67.0301 15.405 68.2501 15.685 69.6901 15.685C71.1301 15.685 72.8401 15.345 74.2301 13.715V15.475H76.8201V7.34502C76.8201 6.81502 76.7201 6.36502 76.5101 5.99502" fill="black"/>
    <path d="M81.9402 4.61511H78.6802L84.3302 15.4751H86.5302L92.3002 4.61511H90.4102L86.1102 12.7051L81.9402 4.61511Z" fill="black"/>
    <path d="M97.0102 7.04502C97.7002 6.30502 98.6502 5.80502 99.7702 5.80502C102.02 5.80502 103.6 7.54502 103.6 9.99502C103.61 11.235 103.19 12.265 102.51 12.995C101.83 13.745 100.88 14.255 99.7702 14.255C98.6602 14.255 97.7002 13.745 97.0102 12.995C96.3202 12.245 95.9002 11.215 95.9002 9.99502C95.9002 8.77502 96.3302 7.76502 97.0102 7.04502ZM99.7902 4.39502C97.8402 4.39502 96.1402 4.89502 94.9102 5.85502C93.6302 6.86502 92.9502 8.31502 92.9502 10.035C92.9502 11.755 93.6302 13.195 94.9102 14.205C96.1502 15.175 97.8302 15.685 99.7902 15.685C101.75 15.685 103.42 15.175 104.64 14.205C105.92 13.195 106.58 11.745 106.58 10.035C106.58 8.32502 105.9 6.86502 104.64 5.85502C103.42 4.89502 101.74 4.39502 99.7902 4.39502Z" fill="black"/>
    <path d="M112.03 6.97501V4.38501L109.2 4.60501V15.465H112.03V10.905C112.03 9.65501 112.4 8.59501 113.1 7.85501C113.83 7.07501 114.33 6.62501 115.23 6.35501C115.92 6.14501 116.42 6.13501 117 6.13501H117.53L118.38 4.49501L118.17 4.46501C117.84 4.41501 117.18 4.38501 116.69 4.38501C114.79 4.38501 113.03 5.36501 112.03 6.96501" fill="black"/>
    <path d="M6.60012 9.00502H12.0301C12.5701 9.00502 12.9001 8.92502 13.1001 8.80502C13.2801 8.69502 13.3601 8.53502 13.3601 8.31502C13.3601 7.15502 12.1201 5.75502 10.0801 5.75502C8.99012 5.75502 8.17012 6.16502 7.58012 6.80502C7.05012 7.39502 6.72012 8.18502 6.60012 9.00502ZM3.89012 9.00502C4.40012 6.29502 7.16012 4.39502 10.0801 4.39502C14.5001 4.39502 16.0901 7.57502 16.0901 9.29502C16.0901 9.64502 16.0201 9.92502 15.8301 10.105C15.6301 10.295 15.3601 10.345 15.0301 10.345H6.59012C6.74012 11.585 7.30012 12.525 8.10012 13.165C8.94012 13.845 10.0701 14.185 11.2901 14.185C12.7701 14.185 14.0901 13.855 15.4101 13.305L15.5501 13.245L16.0501 14.455L15.9101 14.515C13.9701 15.385 12.2201 15.685 10.2301 15.685C8.53012 15.685 6.92012 15.205 5.74012 14.245C4.64012 13.355 3.92012 12.045 3.81012 10.345H0.620117L1.34012 9.01502H3.89012V9.00502Z" fill="black"/>
    <path d="M58.27 9.005H52.84C52.96 8.185 53.28 7.395 53.83 6.805C54.41 6.175 55.24 5.755 56.33 5.755C58.36 5.755 59.61 7.155 59.61 8.315C59.61 8.535 59.54 8.695 59.35 8.805C59.15 8.935 58.82 9.015 58.27 9.005ZM56.3 4.395C53.05 4.395 50.03 6.745 50.03 9.915C50.03 11.825 50.79 13.275 51.97 14.245C53.16 15.205 54.77 15.685 56.46 15.685C58.45 15.685 60.2 15.385 62.14 14.515L62.28 14.455L61.78 13.245L61.64 13.305C60.31 13.855 59 14.185 57.52 14.185C56.3 14.185 55.19 13.835 54.33 13.165C53.53 12.525 52.96 11.585 52.82 10.345H61.23C61.56 10.345 61.85 10.285 62.03 10.095C62.23 9.905 62.3 9.635 62.3 9.285C62.31 7.555 60.71 4.375 56.3 4.375" fill="black"/>
  </g>
  <defs>
    <clipPath id="clip0_5538_551">
      <rect width="117.76" height="15.39" fill="white" transform="translate(0.620117 0.305054)"/>
    </clipPath>
  </defs>
</svg>