<svg width="68" height="68" viewBox="0 0 68 68" fill="none" xmlns="http://www.w3.org/2000/svg">
<path d="M67 34C67 52.2254 52.2254 67 34 67C15.7746 67 1 52.2254 1 34C1 15.7746 15.7746 1 34 1C52.2254 1 67 15.7746 67 34Z" fill="#2DE6C8" stroke="white" stroke-width="2"/>
<path d="M24.6365 31.2501C28.2138 31.2501 31.1137 28.3502 31.1137 24.773C31.1137 21.1958 28.2138 18.2959 24.6365 18.2959C21.0593 18.2959 18.1594 21.1958 18.1594 24.773C18.1594 28.3502 21.0593 31.2501 24.6365 31.2501Z" fill="white"/>
<path d="M44.0679 31.2501C47.6451 31.2501 50.5451 28.3502 50.5451 24.773C50.5451 21.1958 47.6451 18.2959 44.0679 18.2959C40.4907 18.2959 37.5908 21.1958 37.5908 24.773C37.5908 28.3502 40.4907 31.2501 44.0679 31.2501Z" fill="white"/>
<path d="M24.6365 49.9576C28.2138 49.9576 31.1137 47.0577 31.1137 43.4805C31.1137 39.9033 28.2138 37.0034 24.6365 37.0034C21.0593 37.0034 18.1594 39.9033 18.1594 43.4805C18.1594 47.0577 21.0593 49.9576 24.6365 49.9576Z" fill="white"/>
<path d="M44.0679 49.9576C47.6451 49.9576 50.5451 47.0577 50.5451 43.4805C50.5451 39.9033 47.6451 37.0034 44.0679 37.0034C40.4907 37.0034 37.5908 39.9033 37.5908 43.4805C37.5908 47.0577 40.4907 49.9576 44.0679 49.9576Z" fill="white"/>
</svg>
