<svg width="32" height="32" viewBox="0 0 32 32" fill="none" xmlns="http://www.w3.org/2000/svg">
<path d="M31 16C31 24.2843 24.2843 31 16 31C7.71573 31 1 24.2843 1 16C1 7.71573 7.71573 1 16 1C24.2843 1 31 7.71573 31 16Z" fill="#2DE6C8" stroke="white" stroke-width="2"/>
<path fill-rule="evenodd" clip-rule="evenodd" d="M5.76106 11.8329C8.32566 11.4185 11.0468 12.1229 13.1326 13.9877C14.6464 15.3445 15.5879 17.1015 15.941 18.9542C16.2942 17.1015 17.2356 15.3445 18.7495 13.9877C20.8352 12.1229 23.5564 11.4185 26.121 11.8329C26.2499 14.4251 25.2508 17.0542 23.165 18.9235C21.1192 20.7571 18.4621 21.4655 15.941 21.1009C13.4199 21.4653 10.7628 20.7525 8.71703 18.9235C6.63127 17.0542 5.63214 14.4251 5.76106 11.8329Z" fill="white"/>
</svg>
