<svg width="80" height="52" viewBox="0 0 80 52" fill="none" xmlns="http://www.w3.org/2000/svg">
<g clip-path="url(#clip0_5183_3798)">
<path d="M33.8627 50.035L33.7302 50.5569H33.7112L33.5724 50.035L32.5566 46.4007H31.566L33.1749 51.412H34.216L35.825 46.4007H34.8975L33.8627 50.035ZM24.2846 46.4007H23.376V51.412H26.2911L26.3163 50.5946H24.2783V46.4007H24.2846ZM5.01491 47.7274C5.01491 47.3879 5.22313 47.1175 5.86672 47.1175C6.23899 47.1175 6.60495 47.1992 6.98353 47.325L7.0971 46.5642C6.75007 46.407 6.28315 46.3189 5.81624 46.3189C4.67419 46.3189 4.1568 46.9477 4.1568 47.7714C4.1568 49.3999 6.40304 49.0541 6.40304 50.0161C6.40304 50.4626 6.12541 50.7078 5.53231 50.7078C5.05908 50.7078 4.64895 50.582 4.25775 50.362L4.13156 51.1417C4.51645 51.3617 5.0086 51.4938 5.55754 51.4938C6.65542 51.4938 7.27377 50.9279 7.27377 49.9596C7.27377 48.2933 5.02753 48.658 5.02753 47.7274M14.5677 46.4007L12.9209 51.412H13.8674L14.1765 50.3242H16.019L16.3281 51.412H17.3314L15.6656 46.4007H14.5677ZM14.3911 49.5634L14.9652 47.5954L15.1041 47.0672H15.123L15.2555 47.5954L15.8044 49.5634H14.3911ZM63.5118 46.3252C62.0668 46.3252 61.48 47.0483 61.48 48.9095C61.48 50.7707 62.0858 51.5001 63.5118 51.5001C64.9377 51.5001 65.5435 50.8021 65.5435 48.9095C65.5435 47.0169 64.9567 46.3252 63.5118 46.3252ZM63.5118 50.6889C62.7167 50.6889 62.4202 50.3557 62.4202 48.9095C62.4202 47.4633 62.7167 47.1363 63.5118 47.1363C64.3068 47.1363 64.597 47.4633 64.597 48.9095C64.597 50.3557 64.3131 50.6889 63.5118 50.6889ZM53.2586 46.407H51.5802V51.4183H53.2838C54.6909 51.4183 55.3849 50.7392 55.3849 48.8843C55.3849 47.0295 54.7603 46.407 53.2649 46.407M53.2712 50.6135H52.4825V47.2181H53.2649C54.1167 47.2181 54.4448 47.5199 54.4448 48.8781C54.4448 50.3368 54.0851 50.6135 53.2712 50.6135ZM75.1973 47.8909C75.1973 46.8534 74.6483 46.4007 73.5 46.4007H71.8531V51.412H72.7554V49.3937H73.5252L74.4653 51.412H75.5064L74.3391 49.2239C74.9007 49.0918 75.1973 48.6265 75.1973 47.8909ZM73.4936 48.7083H72.7554V47.1615H73.5189C74.0489 47.1615 74.276 47.3438 74.276 47.9223C74.276 48.5008 74.0426 48.702 73.5 48.702M42.7719 46.3944L41.1251 51.4057H42.0715L42.3807 50.318H44.2231L44.5323 51.4057H45.5355L43.8698 46.3944H42.7719ZM42.5952 49.5571L43.1694 47.5891L43.3082 47.0609H43.3272L43.4597 47.5891L44.0086 49.5571H42.5952ZM26.3163 8.55467C26.5119 8.67414 26.7012 8.79989 26.8905 8.92565L27.0482 9.03254C27.2817 9.18974 27.4899 9.34064 27.6855 9.48526L27.7486 9.53556C27.9379 9.68018 28.1209 9.8248 28.3039 9.97571L28.449 10.0952C28.6698 10.2775 28.8591 10.4473 29.0358 10.6108L29.061 10.6359C29.2251 10.7931 29.4017 10.9629 29.591 11.1578L29.7235 11.2961C30.0832 11.6671 30.4239 12.057 30.7457 12.4594L30.8656 12.6103C31.017 12.7989 31.1621 12.9938 31.3136 13.2076L31.3325 13.2328C31.465 13.4214 31.6038 13.6289 31.7616 13.8678C31.7994 13.9244 31.831 13.9747 31.8625 14.0313C31.9824 14.2262 32.1023 14.4212 32.2159 14.6161L32.2663 14.6978C32.3862 14.9053 32.4998 15.1254 32.626 15.3643L32.7143 15.5341C32.8153 15.729 32.9036 15.9302 32.9983 16.1251L33.0487 16.2383C33.1118 16.3829 33.1749 16.5275 33.238 16.6847V11.7237C33.238 9.2589 31.2252 7.25939 28.7582 7.25939C27.6981 7.25939 26.6886 7.62408 25.8873 8.29687C26.0008 8.35975 26.1144 8.42892 26.2217 8.49808L26.3226 8.56096L26.3163 8.55467ZM79.2417 22.5889C79.2417 22.5512 79.2228 22.1802 79.2228 22.1802C79.2228 22.1174 79.2165 22.0608 79.2102 21.9979C79.2102 21.9539 79.2039 21.9036 79.1976 21.8596L79.1534 21.4131C79.1534 21.3565 79.1408 21.3062 79.1345 21.2497L79.1155 21.0799C79.1029 20.9981 79.0966 20.9101 79.084 20.8284L79.0272 20.4888C79.0146 20.4071 79.002 20.3316 78.9894 20.2499C78.9767 20.1996 78.9263 19.9355 78.9136 19.8663C78.9136 19.8663 78.8884 19.728 78.8758 19.684C78.8632 19.6211 78.8442 19.5582 78.8316 19.4954L78.7433 19.1244C78.7243 19.0615 78.7054 18.9986 78.6865 18.9358L78.6486 18.7911C78.6297 18.7157 78.6045 18.6402 78.5855 18.5711L78.4783 18.2378C78.453 18.1624 78.4341 18.0932 78.4089 18.024C78.3836 17.9549 78.3584 17.892 78.3395 17.8228L78.2827 17.6719C78.2574 17.609 78.2385 17.5462 78.2133 17.4833C78.188 17.4141 78.1628 17.3512 78.1376 17.2884L78.0871 17.1689C78.0555 17.0997 78.0303 17.0243 77.9987 16.9551C77.9672 16.886 77.9356 16.8168 77.9104 16.7476L77.8789 16.6722C77.841 16.5904 77.8094 16.515 77.7716 16.4332C77.7337 16.3578 77.7022 16.2823 77.6643 16.2132L77.6391 16.1566C77.6012 16.0811 77.5634 15.9994 77.5255 15.9239C77.4877 15.8485 77.4435 15.773 77.4056 15.6976L77.393 15.6724C77.3488 15.5907 77.3047 15.5089 77.2605 15.4272C77.2163 15.3455 77.1659 15.2574 77.1154 15.1757C77.0649 15.0939 77.0207 15.0122 76.9703 14.9367C76.9198 14.8613 76.8756 14.7796 76.8188 14.6915C76.7683 14.6161 76.7179 14.5343 76.6674 14.4526C76.6106 14.3708 76.5601 14.2891 76.5033 14.2137C76.4529 14.1382 76.3961 14.0627 76.3456 13.9873C76.2888 13.9056 76.232 13.8301 76.1689 13.7484C76.1121 13.6729 76.0617 13.5975 76.0049 13.5283C75.9418 13.4528 75.885 13.3711 75.8219 13.2956C75.7651 13.2202 75.7083 13.151 75.6452 13.0819C75.5821 13.0064 75.519 12.931 75.4559 12.8555C75.3992 12.7863 75.3361 12.7172 75.273 12.648C75.2099 12.5725 75.1405 12.5034 75.0711 12.4279C75.008 12.3588 74.9449 12.2959 74.8818 12.2267C74.8124 12.1576 74.743 12.0821 74.6735 12.0129C74.6105 11.9501 74.541 11.8809 74.4779 11.818C74.4085 11.7489 74.3328 11.6797 74.2634 11.6105C74.194 11.5476 74.1309 11.4848 74.0615 11.4219C73.9858 11.3527 73.9164 11.2898 73.8407 11.2207C73.7713 11.1578 73.7019 11.1012 73.6325 11.0446C73.5567 10.9817 73.481 10.9126 73.399 10.8497C73.3296 10.7931 73.2539 10.7365 73.1845 10.6799C73.1024 10.6171 73.0267 10.5542 72.9447 10.4976C72.869 10.441 72.7933 10.3907 72.7239 10.3341C72.6418 10.2775 72.5598 10.2146 72.4778 10.158C72.4021 10.1015 72.3264 10.0512 72.2506 10.0009C72.1686 9.94427 72.0803 9.88768 71.9983 9.83109C71.9225 9.78078 71.8405 9.73048 71.7585 9.68018L71.4998 9.52299C71.4178 9.47268 71.3357 9.42867 71.2537 9.37837C71.1654 9.32807 71.0834 9.27776 70.995 9.23375C70.9509 9.2086 70.7237 9.08913 70.7237 9.08913C70.6354 9.04512 70.5533 9.0011 70.4713 8.95709L70.4019 8.92565C70.282 8.86906 70.1621 8.81247 70.0423 8.75588L69.8656 8.67414C69.67 8.58611 69.4744 8.50437 69.2788 8.42263L69.2031 8.39119L69.1274 8.35975C68.9696 8.29687 68.8119 8.24028 68.6478 8.18369C68.5721 8.15854 68.4901 8.1271 68.4081 8.10195L68.3765 8.08938C68.2251 8.03908 68.08 7.98877 67.9285 7.94476C67.8465 7.91961 67.7582 7.89446 67.6761 7.87559L67.5941 7.85044C67.4616 7.81272 67.3291 7.77499 67.1966 7.74355C67.083 7.7184 66.9695 7.69325 66.8559 7.6681L66.7423 7.64295C66.6477 7.62408 66.5467 7.59893 66.4521 7.58007C66.3259 7.55492 66.1934 7.53606 66.0672 7.5109L65.9157 7.48575C65.84 7.47318 65.7643 7.4606 65.6886 7.44803C65.5372 7.42288 65.392 7.4103 65.2406 7.39144L65.0892 7.37257C65.0324 7.36629 64.9693 7.36 64.9062 7.35371C64.7232 7.33485 64.5465 7.32227 64.3636 7.3097H64.2563C64.2121 7.29712 64.1617 7.29712 64.1175 7.29083C63.8462 7.27826 63.5812 7.27197 63.3162 7.27197C63.0953 7.27197 62.8619 7.27197 62.5969 7.29083C62.5401 7.29083 62.477 7.29083 62.4202 7.30341H62.3382C62.193 7.31598 62.0416 7.32856 61.8965 7.34114C61.7892 7.34742 61.682 7.36 61.5684 7.37257C61.4485 7.38515 61.3223 7.39772 61.2024 7.41659H61.1393C61.0384 7.43545 60.9437 7.44803 60.8428 7.46689C60.7734 7.47947 60.7103 7.49204 60.6409 7.50462L60.5588 7.51719C60.3001 7.56121 60.0351 7.61151 59.7827 7.67439C59.7827 7.67439 59.6124 7.71211 59.5682 7.72469C59.4294 7.75613 59.2906 7.79385 59.1455 7.83158C59.0635 7.85673 58.9751 7.87559 58.8931 7.90075C58.7858 7.93218 58.6786 7.96362 58.5713 7.99506L58.4199 8.04536C57.9593 8.18998 57.5554 8.34089 57.1769 8.49808L56.691 8.69929C57.2463 9.57958 57.5681 10.6296 57.5681 11.7426V19.181C57.7195 18.9672 57.8835 18.7597 58.0602 18.5648L58.6533 17.8983V17.9737C59.9342 16.8419 61.5873 16.2069 63.3162 16.2069C63.7768 16.2069 64.2437 16.2509 64.7106 16.3452H64.7421C64.8242 16.3704 64.9125 16.3892 64.9945 16.4081C65.0766 16.4269 65.1586 16.4521 65.2343 16.471C65.2343 16.471 65.3416 16.5024 65.3794 16.515C65.5309 16.559 65.676 16.6093 65.8337 16.6722C67.5373 17.3324 68.9444 18.6591 69.7078 20.3128C70.1243 21.2245 70.3388 22.1991 70.3388 23.2051C70.3388 24.1043 70.1684 24.9783 69.834 25.8146C69.8025 25.8963 69.7646 25.978 69.7268 26.0598L69.7078 26.1038C69.6889 26.1415 69.6763 26.1793 69.6574 26.2233C69.5943 26.349 69.5312 26.4748 69.4618 26.5942L69.3924 26.7137C69.3293 26.8269 69.2599 26.9338 69.1905 27.0407L69.1526 27.1036C69.0643 27.2293 68.9759 27.3551 68.8813 27.4745L68.8245 27.55C68.6289 27.7952 68.4144 28.0279 68.1872 28.2479L68.1241 28.3108C68.0105 28.4177 67.8907 28.5183 67.7708 28.6252L67.7455 28.6503C67.6383 28.7384 67.5247 28.8201 67.3985 28.9144C67.367 28.9333 67.3354 28.9584 67.3102 28.9773C67.1966 29.059 67.0704 29.1345 66.9505 29.21C66.919 29.2288 66.818 29.2854 66.818 29.2854C66.736 29.3357 66.6477 29.3797 66.5593 29.4237L66.5278 29.4426C66.4773 29.4678 66.4331 29.4929 66.3827 29.5181C66.2754 29.5684 66.1618 29.6187 66.0482 29.669C65.9662 29.7004 65.8842 29.7318 65.8022 29.7633C65.758 29.7821 65.7075 29.801 65.6634 29.8136C65.3605 29.9205 65.045 30.0085 64.7295 30.0714C64.2689 30.1657 63.7957 30.2097 63.3225 30.2097C61.8018 30.2097 60.3569 29.7318 59.1329 28.8264C58.9688 28.7069 58.8174 28.5812 58.6659 28.4428V28.5183L58.0728 27.8518C57.751 27.4871 57.4671 27.0973 57.2273 26.6823C57.2147 26.7514 57.2021 26.8206 57.1832 26.8898C57.1579 27.003 57.1327 27.1161 57.1075 27.2293L57.0948 27.2922C57.0696 27.4117 57.0381 27.5311 57.0065 27.6443C56.9813 27.7323 56.956 27.8266 56.9308 27.9147L56.9055 28.009C56.8424 28.2291 56.773 28.4554 56.6973 28.6755L56.6847 28.7195C56.6469 28.8327 56.609 28.9396 56.5711 29.0528C56.5333 29.1659 56.4891 29.2791 56.4449 29.3923V29.4175C56.3882 29.5432 56.3377 29.669 56.2872 29.7947C56.2367 29.9079 56.1926 30.0211 56.1421 30.1343C56.0853 30.2663 56.0222 30.4046 55.9591 30.5367L55.9276 30.6058C55.8897 30.6813 55.8581 30.763 55.814 30.8385C55.7193 31.0334 55.6184 31.222 55.5111 31.4107C55.4733 31.4798 55.4354 31.549 55.3975 31.6119C55.2903 31.8068 55.1767 31.9954 55.0631 32.1841C55.0253 32.2407 54.9874 32.2972 54.9559 32.3538L54.9117 32.4167C54.8171 32.5613 54.7224 32.7122 54.6214 32.8569C54.5647 32.9386 54.5079 33.014 54.4574 33.0958C54.3501 33.2404 54.2492 33.385 54.1356 33.5296L54.0978 33.5799C54.0599 33.6302 54.0157 33.6868 53.9779 33.7371C53.8327 33.9258 53.675 34.1144 53.5236 34.2967L53.4731 34.3533C53.309 34.5483 53.1324 34.7432 52.9368 34.9507C52.9052 34.9884 52.7538 35.1393 52.7538 35.1393C54.4195 36.6106 56.3314 37.6921 58.4451 38.3712L58.5461 38.4027C59.0445 38.5598 59.5556 38.6919 60.0667 38.7988C60.0667 38.7988 60.2181 38.8302 60.256 38.8365C60.3759 38.8617 60.4957 38.8805 60.6156 38.8994H60.6409C60.7418 38.9183 60.8491 38.9371 60.95 38.956C61.0636 38.9748 61.1772 38.9874 61.2908 39C61.4106 39.0189 61.5368 39.0314 61.6567 39.044H61.6883C61.7766 39.0566 61.8713 39.0692 61.9596 39.0754C62.1047 39.088 62.2498 39.1006 62.4013 39.1069C62.4013 39.1069 62.5905 39.1195 62.6473 39.1195C62.8745 39.132 63.1079 39.1383 63.3603 39.1383H63.3477C63.6001 39.1383 63.8651 39.132 64.1364 39.1195C64.1932 39.1195 64.25 39.1132 64.3005 39.1069L64.4519 39.0943C64.6033 39.0817 64.7548 39.0754 64.9125 39.0566C64.9945 39.0503 65.0702 39.0377 65.1523 39.0314L65.31 39.0126C65.4362 39 65.5561 38.9811 65.6823 38.9623C65.7769 38.9497 65.8716 38.9308 65.9599 38.9183L66.0356 38.9057C66.1681 38.8805 66.3006 38.8617 66.4394 38.8365C66.5593 38.8114 66.6855 38.7862 66.8054 38.7611C66.9316 38.7359 67.0578 38.7045 67.184 38.673C67.3102 38.6416 67.4301 38.6102 67.5499 38.5787C67.6761 38.5473 67.796 38.5095 67.9159 38.4718C68.0421 38.4341 68.162 38.3964 68.2819 38.3586C68.4017 38.3209 68.5216 38.2832 68.6352 38.2392C68.7551 38.1952 68.8813 38.1511 69.0012 38.1071C69.1147 38.0631 69.222 38.0191 69.3356 37.9751C69.4618 37.9248 69.588 37.8745 69.7078 37.8179C69.8088 37.7739 69.9161 37.7236 70.017 37.6796C70.1495 37.623 70.2757 37.5601 70.4019 37.4972C70.4776 37.4595 70.5597 37.4155 70.6354 37.3778L70.6732 37.3589C70.812 37.2897 70.9509 37.2143 71.0834 37.1388C71.1338 37.1137 71.2979 37.0131 71.2979 37.0131C71.4493 36.925 71.6007 36.837 71.7459 36.749L71.891 36.6547C72.0613 36.5478 72.2317 36.4346 72.3958 36.3214L72.4525 36.2774C73.9416 35.2399 75.2414 33.9698 76.3014 32.4985L76.3772 32.3916C76.4339 32.3098 76.4907 32.2344 76.5475 32.1463L76.8188 31.7376C76.8693 31.6559 76.9261 31.5742 76.9766 31.4924C77.0397 31.3918 77.0965 31.2912 77.1532 31.1906L77.2353 31.0523C77.2794 30.9705 77.3299 30.8951 77.3741 30.8133C77.4309 30.7064 77.4877 30.6058 77.5381 30.4989L77.6138 30.348C77.6517 30.2726 77.6959 30.1908 77.7337 30.1154C77.7842 30.0148 77.8284 29.9142 77.8725 29.8073L77.9483 29.6375C77.9861 29.5558 78.0177 29.4803 78.0555 29.3986C78.0997 29.298 78.1376 29.1974 78.1754 29.0905L78.2511 28.8956C78.2827 28.8201 78.3142 28.7447 78.3395 28.6629C78.3773 28.5623 78.4089 28.4554 78.4467 28.3548L78.5161 28.1473C78.5414 28.0719 78.5666 27.9964 78.5919 27.921C78.6234 27.8141 78.6549 27.7072 78.6865 27.6003L78.7433 27.3928C78.7622 27.3173 78.7874 27.2419 78.8064 27.1664C78.8316 27.0595 78.8568 26.9527 78.8821 26.8458L78.9326 26.6194C78.9515 26.5439 78.9641 26.4748 78.983 26.3993C79.0083 26.2861 79.0272 26.173 79.0461 26.0598L79.0903 25.8271C79.1029 25.758 79.1155 25.6888 79.1219 25.6196C79.1408 25.4939 79.1534 25.3744 79.1723 25.2487L79.1976 25.0286C79.2039 24.972 79.2102 24.9091 79.2165 24.8525V24.8274C79.2354 24.6765 79.248 24.5256 79.2544 24.3747L79.2796 24.0288C79.2922 23.7585 79.2985 23.4881 79.2985 23.2177C79.2985 23.0165 79.2985 22.8216 79.2859 22.6204M47.6745 7.74984C47.7061 7.7184 47.7376 7.68696 47.7692 7.65552C47.8954 7.52977 48.0152 7.42288 48.1351 7.32227L48.154 7.3097C48.2613 7.22167 48.3875 7.12735 48.5263 7.03304C48.5642 7.00788 48.602 6.98273 48.6399 6.95758C48.7535 6.88213 48.8734 6.80668 48.9995 6.7438L49.0753 6.69978C49.2141 6.62433 49.3592 6.55517 49.5169 6.486L49.6368 6.4357C49.763 6.3854 49.8829 6.34138 50.0154 6.29737L50.1353 6.25964C50.2993 6.20934 50.4634 6.16532 50.6211 6.13389L50.7158 6.11502C50.8546 6.08987 50.9997 6.06472 51.1385 6.05214C51.1827 6.05214 51.2332 6.03957 51.2773 6.03957C51.4792 6.02071 51.6433 6.01442 51.801 6.01442C53.6056 6.01442 55.2272 6.85069 56.2809 8.15226V5.00209C56.2809 2.53729 54.2681 0.537782 51.801 0.537782C49.334 0.537782 47.3212 2.54358 47.3212 5.00209V8.15226L47.4095 8.05165C47.4978 7.95105 47.5862 7.85044 47.6745 7.75613M24.3225 23.7836C24.4297 26.6697 25.3068 29.474 26.8779 31.8948C26.9662 32.0269 27.0546 32.1652 27.1492 32.2972L27.1807 32.3475C27.2691 32.467 27.3511 32.5928 27.4458 32.7122L27.5025 32.7877C27.5846 32.8946 27.6729 33.0078 27.7549 33.1147L27.8369 33.2153C27.919 33.3159 28.001 33.4102 28.083 33.5108L28.184 33.6365C28.2597 33.7246 28.3417 33.8126 28.4237 33.9006L28.5499 34.039C28.6257 34.1207 28.7014 34.2024 28.7834 34.2842L28.9285 34.4351C29.0042 34.5105 29.08 34.586 29.1557 34.6552C29.1557 34.6552 29.2756 34.7683 29.3197 34.8123C29.3891 34.8752 29.4585 34.9444 29.5406 35.0136C29.5406 35.0136 29.6731 35.133 29.7235 35.177C29.7993 35.2399 29.8687 35.3028 29.9444 35.3657C30.0075 35.4223 30.0769 35.4726 30.14 35.5292C30.2094 35.5857 30.2851 35.6486 30.3608 35.7052C30.4302 35.7618 30.4996 35.8121 30.569 35.8687C30.6384 35.9253 30.7142 35.9819 30.7899 36.0322L30.8151 36.051C30.8782 36.1013 30.9476 36.1454 31.017 36.1957C31.0864 36.246 31.1495 36.29 31.2379 36.3466C31.3136 36.3969 31.3956 36.4534 31.4713 36.5038C31.547 36.5541 31.6164 36.5981 31.6922 36.6484C31.7742 36.6987 31.8562 36.749 31.9382 36.7993C32.0139 36.8433 32.0897 36.8936 32.1654 36.9376C32.2474 36.9879 32.3294 37.0319 32.4178 37.0822C32.4556 37.1011 32.4935 37.1262 32.5313 37.1451C32.5629 37.0948 32.5944 37.0445 32.626 36.9942C32.6575 36.9439 32.6828 36.8999 32.708 36.8496C32.7396 36.7867 32.7711 36.7238 32.8027 36.6672C32.8279 36.6169 32.8531 36.5666 32.8784 36.5163C32.9036 36.4534 32.9352 36.3843 32.9604 36.3214L32.973 36.29C32.9919 36.2522 33.0046 36.2082 33.0172 36.1705C33.0424 36.1013 33.0613 36.0322 33.0803 35.963L33.0929 35.9127C33.1055 35.875 33.1118 35.8435 33.1244 35.8121C33.1434 35.7429 33.156 35.6738 33.1749 35.592L33.1875 35.5354C33.1875 35.5354 33.2002 35.4789 33.2065 35.4474C33.2191 35.3657 33.2317 35.2839 33.238 35.1959V35.133C33.238 35.133 33.2506 35.089 33.2506 35.0701C33.2633 34.9444 33.2696 34.8186 33.2696 34.6929V23.2303C33.2696 23.0417 33.2696 22.8593 33.2569 22.677L33.2443 22.4318C33.2443 22.3312 33.238 22.2243 33.2254 22.1237C33.2254 22.0796 33.2002 21.8344 33.2002 21.8344C33.1938 21.7464 33.1875 21.6584 33.1749 21.5766C33.1749 21.5263 33.1371 21.2497 33.1371 21.2497C33.1308 21.1742 33.1181 21.105 33.1118 21.0296C33.1055 20.973 33.0929 20.9164 33.0866 20.8598L33.0613 20.6963C33.0487 20.6272 33.0424 20.558 33.0298 20.4888C33.0172 20.4322 33.0109 20.3757 32.9983 20.3191L32.9667 20.1493C32.9541 20.0864 32.9415 20.0173 32.9288 19.9544C32.9162 19.8915 32.9036 19.8349 32.8847 19.772L32.8531 19.6148C32.8405 19.552 32.8279 19.4891 32.809 19.4262C32.7963 19.3633 32.7774 19.3004 32.7648 19.2439L32.7206 19.0867C32.708 19.0238 32.6891 18.9672 32.6765 18.9106C32.6575 18.8477 32.6386 18.7849 32.6197 18.722L32.5755 18.5711C32.5566 18.5145 32.544 18.4579 32.525 18.395C32.5061 18.3321 32.4809 18.263 32.4556 18.1938L32.4304 18.1246C32.4304 18.1246 32.3673 17.936 32.3484 17.8794C32.3231 17.8165 32.2979 17.7474 32.2726 17.6845L32.2222 17.5525C32.1969 17.4896 32.178 17.433 32.1528 17.3764C32.1275 17.3072 32.096 17.2381 32.0707 17.1689L32.0455 17.1123C32.0455 17.1123 31.9698 16.93 31.9445 16.8797C31.9193 16.8168 31.8877 16.7539 31.8562 16.691C31.8562 16.691 31.7426 16.4458 31.7174 16.3955C31.6858 16.3263 31.6543 16.2635 31.6227 16.2006L31.566 16.0811C31.5407 16.0245 31.5092 15.9742 31.4839 15.9176C31.4524 15.8485 31.4145 15.7856 31.3767 15.7164C31.3767 15.7164 31.2568 15.4964 31.2315 15.4461C31.1874 15.3706 31.1432 15.2951 31.099 15.2197L31.0549 15.1505C31.0233 15.0939 30.9918 15.0374 30.9602 14.987C30.9161 14.9116 30.8719 14.8424 30.8214 14.7733L30.8025 14.7418C30.8025 14.7418 30.7078 14.5909 30.67 14.5343C30.6195 14.4589 30.569 14.3897 30.5249 14.3143L30.5122 14.2954C30.5122 14.2954 30.4113 14.1445 30.3734 14.0942C30.323 14.025 30.2788 13.9559 30.2283 13.893L30.2031 13.8615C30.2031 13.8615 30.0958 13.7169 30.0579 13.6603C30.0075 13.5912 29.957 13.5283 29.9065 13.4654L29.8497 13.3962C29.8119 13.3459 29.7677 13.2894 29.7298 13.2453C29.6667 13.1699 29.6037 13.0944 29.5406 13.019C29.5406 13.019 29.427 12.8807 29.3828 12.8303C29.326 12.7675 29.2692 12.6983 29.2125 12.6354L29.1935 12.6103C29.1935 12.6103 29.0736 12.4782 29.0232 12.4279C28.9664 12.3651 28.9096 12.3085 28.8528 12.2519C28.8528 12.2519 28.7014 12.0884 28.6509 12.0381C28.5878 11.9752 28.5184 11.9123 28.449 11.8369L28.4237 11.8117C28.3733 11.7614 28.3165 11.7111 28.266 11.6608C28.1966 11.5979 28.1335 11.5351 28.0578 11.4659C27.9947 11.4093 27.9316 11.3527 27.8685 11.2961C27.7991 11.2333 27.7234 11.1704 27.6414 11.1012C27.5783 11.0509 27.5152 10.9943 27.4521 10.944C27.3827 10.8811 27.3069 10.8246 27.2312 10.768C27.1618 10.7114 27.0924 10.6611 27.023 10.6045C26.9473 10.5479 26.8716 10.4913 26.8022 10.4347C26.7328 10.3844 26.657 10.3278 26.5813 10.2775C26.5056 10.2272 26.4299 10.1706 26.3542 10.1203C26.2785 10.07 26.2027 10.0134 26.127 9.96313C26.0513 9.91283 25.9756 9.86253 25.8936 9.81222C25.8179 9.76192 25.7358 9.71162 25.6538 9.66132C25.5781 9.61102 25.4961 9.567 25.4204 9.52299C25.3383 9.47268 25.2563 9.42867 25.1743 9.37837C25.1364 9.35322 25.0986 9.33435 25.0607 9.31549C25.0292 9.36579 24.9976 9.41609 24.9661 9.4664C24.9345 9.5167 24.9093 9.56071 24.884 9.61102C24.8525 9.67389 24.8146 9.73677 24.7831 9.79965C24.7578 9.84995 24.7326 9.90025 24.7137 9.95055C24.6884 10.0134 24.6569 10.0826 24.6316 10.1455L24.619 10.1706C24.6001 10.2146 24.5875 10.2524 24.5685 10.2964C24.5433 10.3655 24.5244 10.4347 24.5054 10.5039L24.4928 10.5479C24.4802 10.5856 24.4739 10.6171 24.4613 10.6548C24.4424 10.7239 24.4297 10.7931 24.4108 10.8749L24.3982 10.9314C24.3982 10.9314 24.3856 10.988 24.3793 11.0195C24.3666 11.1012 24.354 11.183 24.3477 11.271C24.3477 11.271 24.3351 11.3716 24.3351 11.3905C24.3225 11.5225 24.3162 11.6482 24.3162 11.7677V23.2554C24.3162 23.4315 24.3162 23.6139 24.3288 23.7899M50.2047 34.4162L50.1795 34.3848C50.0154 34.1961 49.8513 33.9949 49.681 33.7749C49.6494 33.7371 49.6179 33.6994 49.5927 33.6554L49.5359 33.5862C49.4223 33.4416 49.315 33.2907 49.2078 33.1461C49.151 33.0706 49.1005 32.9952 49.05 32.9134C48.9491 32.7688 48.8544 32.6305 48.7535 32.4733C48.703 32.3978 48.6588 32.3287 48.6147 32.2532C48.5137 32.096 48.4254 31.9388 48.3307 31.7754C48.3307 31.7754 48.2424 31.6182 48.2171 31.5804C48.0846 31.3415 47.9648 31.1151 47.8512 30.8951L47.807 30.807C47.7061 30.6058 47.6114 30.3983 47.5168 30.1971C47.4915 30.1405 47.4158 29.9645 47.4158 29.9645C47.3464 29.801 47.2833 29.6438 47.2139 29.474C47.1824 29.386 47.1445 29.298 47.113 29.21C47.0562 29.0465 46.9931 28.883 46.9426 28.7195L46.9237 28.6566C46.9047 28.5938 46.8795 28.5309 46.8606 28.4617C46.7975 28.2731 46.747 28.0844 46.6902 27.8895C46.6902 27.8895 46.646 27.7512 46.6397 27.7135C46.5703 27.462 46.5072 27.2104 46.4568 26.9589C46.4504 26.9212 46.4063 26.72 46.4 26.6886C45.157 28.839 42.8287 30.2223 40.2985 30.2223C37.9955 30.2223 35.8565 29.0842 34.5504 27.2419V34.6866C34.5504 34.8438 34.5441 35.001 34.5315 35.1645C34.5315 35.2022 34.5252 35.2336 34.5189 35.2714V35.3217C34.5 35.4285 34.4873 35.5354 34.4684 35.6423C34.4621 35.6863 34.4495 35.7304 34.4432 35.7744L34.4305 35.8184C34.4116 35.9127 34.3927 36.0133 34.3674 36.1013C34.3548 36.1516 34.3359 36.2019 34.3233 36.2585L34.3107 36.29C34.2854 36.378 34.2539 36.4723 34.2286 36.5603C34.2097 36.6232 34.1845 36.6861 34.1592 36.749C34.1277 36.837 34.0898 36.9187 34.052 37.0068C34.0267 37.0697 33.9952 37.1262 33.9699 37.1891C33.9258 37.2709 33.8879 37.3526 33.8374 37.4406L33.8248 37.4658C33.7996 37.5161 33.768 37.5664 33.7428 37.6167C33.7176 37.6544 33.6986 37.6921 33.6734 37.7236C35.7556 38.673 37.9829 39.1572 40.2985 39.1572C44.2168 39.1572 47.9585 37.7424 50.8861 35.1582C50.8861 35.1582 50.7473 35.0136 50.7095 34.9758C50.5391 34.7998 50.375 34.6174 50.2047 34.4162ZM31.3262 37.9248L31.2189 37.8556C31.0233 37.7362 30.834 37.6167 30.6447 37.4909L30.4807 37.3778C30.2472 37.2206 30.039 37.0697 29.8497 36.925L29.7677 36.8622C29.5847 36.7238 29.4081 36.5792 29.2314 36.4346L29.08 36.3088C28.8654 36.1265 28.6761 35.963 28.5058 35.7995L28.4553 35.7492C28.2786 35.5857 28.1146 35.4223 27.9442 35.2525C27.9 35.2085 27.8496 35.1582 27.8054 35.1079C27.6035 34.9004 27.4394 34.718 27.288 34.5483L27.2691 34.5294C27.124 34.3596 26.9725 34.1773 26.7895 33.9572L26.6634 33.8C26.5119 33.6051 26.3668 33.4102 26.2217 33.209L26.2027 33.1838C26.0702 32.9952 25.9377 32.794 25.7737 32.5488L25.6664 32.3853C25.5402 32.1904 25.4204 31.9891 25.3068 31.7879L25.2689 31.7251C25.1553 31.5238 25.0355 31.3038 24.9093 31.0586L24.8209 30.8825C24.72 30.6813 24.6253 30.4801 24.5307 30.2726L24.4865 30.1783C24.4234 30.0337 24.3603 29.8827 24.2972 29.7256V34.6866C24.2972 37.1514 26.31 39.1509 28.7771 39.1509C29.8371 39.1509 30.8403 38.7862 31.648 38.1134C31.5344 38.0443 31.4208 37.9814 31.3136 37.9122M23.6032 9.24633C23.6473 9.16458 23.6915 9.07656 23.742 8.97595C23.7672 8.92565 23.7988 8.87535 23.8303 8.81876C23.8492 8.78103 23.8745 8.74331 23.8997 8.71187C21.8175 7.76241 19.5902 7.27826 17.2746 7.27826C15.1482 7.27826 13.085 7.68696 11.1353 8.49808L10.2519 8.86906V4.9958C10.2519 2.531 8.23915 0.531494 5.77207 0.531494C3.305 0.531494 1.24805 2.50585 1.24805 4.96436V34.6489C1.24805 37.1137 3.25452 39.1132 5.7279 39.1132C8.20129 39.1132 10.2078 37.1074 10.2078 34.6489V23.0605C10.2772 19.2627 13.4257 16.1754 17.2304 16.1754C19.5334 16.1754 21.6724 17.3135 22.9785 19.1558V11.7174C22.9785 11.5665 22.9848 11.403 22.9974 11.2395C22.9974 11.2018 23.0038 11.1704 23.0101 11.1327V11.0824C23.029 10.9755 23.0416 10.8686 23.0605 10.7617C23.0668 10.7177 23.0795 10.6736 23.0858 10.6296L23.0984 10.5793C23.1173 10.485 23.1363 10.3907 23.1615 10.2964C23.1741 10.2398 23.193 10.1832 23.2183 10.1077C23.2435 10.0197 23.2751 9.9254 23.3003 9.83737C23.3255 9.7745 23.3445 9.71162 23.3697 9.64874C23.4013 9.56071 23.4391 9.47897 23.477 9.39094C23.5022 9.32807 23.5338 9.27148 23.559 9.2086M51.9714 33.9887C52.066 33.888 52.1544 33.7874 52.249 33.6805L52.2679 33.6617C52.35 33.5737 52.4257 33.4793 52.5077 33.3913C52.5897 33.2907 52.6718 33.1901 52.7538 33.0895L52.8043 33.0266C52.8737 32.9386 52.9431 32.8569 53.0062 32.7688C53.0756 32.6745 53.145 32.5802 53.2207 32.4796L53.2838 32.3978C53.3469 32.3098 53.4163 32.2155 53.4731 32.1275C53.5362 32.0332 53.5993 31.9388 53.6624 31.8445L53.7381 31.7251C53.7949 31.637 53.8517 31.5553 53.9021 31.4673C53.9589 31.3729 54.0157 31.2723 54.0725 31.1717L54.1482 31.0397C54.1987 30.9517 54.2492 30.8699 54.2934 30.7819C54.3501 30.6813 54.4006 30.5807 54.4511 30.4801L54.5142 30.348C54.5584 30.26 54.6088 30.172 54.6467 30.084C54.6909 29.9896 54.735 29.8953 54.7792 29.801L54.8612 29.6249C54.8991 29.5432 54.9369 29.4615 54.9748 29.3734C55.019 29.2728 55.0568 29.1785 55.0947 29.0779L55.1641 28.8956C55.1956 28.8138 55.2272 28.7321 55.2587 28.6441C55.2966 28.5435 55.3281 28.4366 55.366 28.336L55.4291 28.141C55.4543 28.0593 55.4859 27.9838 55.5048 27.9021C55.5364 27.8015 55.5679 27.6946 55.5931 27.594L55.6562 27.3802C55.6815 27.3048 55.7004 27.2293 55.7193 27.1476C55.7446 27.0407 55.7698 26.9338 55.795 26.8269L55.8455 26.6005C55.8645 26.5251 55.8771 26.4559 55.896 26.3805C55.9212 26.2673 55.9402 26.1478 55.9591 26.0283L55.997 25.802C56.0096 25.7328 56.0222 25.6699 56.0285 25.6008C56.0474 25.4687 56.0664 25.3367 56.079 25.2047L56.1042 24.9909C56.1105 24.9343 56.1168 24.8714 56.1231 24.8148C56.1421 24.6576 56.1484 24.4941 56.161 24.3307L56.1736 24.1546C56.1736 24.1106 56.1799 24.0603 56.1862 24.0163C56.1989 23.7459 56.2052 23.4755 56.2052 23.2114V11.7237C56.2052 9.2589 54.1987 7.25939 51.7253 7.25939C49.2519 7.25939 47.2455 9.26519 47.2455 11.7237V22.5764V23.2114C47.2455 23.4755 47.2581 23.7459 47.2707 24.0163C47.2707 24.0603 47.2707 24.1106 47.2833 24.1546L47.2959 24.3244C47.3086 24.4878 47.3149 24.6513 47.3338 24.8148C47.3338 24.8714 47.3464 24.9343 47.3527 24.9909L47.378 25.2047C47.3906 25.3367 47.4095 25.4687 47.4284 25.6008C47.4411 25.6699 47.4537 25.7391 47.4663 25.8083L47.5042 26.0283C47.5231 26.1478 47.542 26.2673 47.5673 26.3805C47.5799 26.4559 47.5988 26.5251 47.6177 26.6005L47.6682 26.8206C47.6934 26.9275 47.7187 27.0407 47.7439 27.1476C47.7629 27.223 47.7881 27.2985 47.807 27.3802L47.8701 27.6003C47.9017 27.7009 47.9269 27.8078 47.9585 27.9084C47.9837 27.9838 48.0089 28.0656 48.0342 28.141L48.1036 28.3422C48.1351 28.4428 48.173 28.5435 48.2108 28.6441C48.2424 28.7258 48.2739 28.8075 48.3055 28.8956L48.3812 29.0842C48.4191 29.1848 48.4569 29.2791 48.5011 29.3797C48.5389 29.4615 48.5705 29.5432 48.6083 29.6249L48.6904 29.8073C48.7345 29.9016 48.7787 30.0022 48.8229 30.0965C48.867 30.1846 48.9112 30.2663 48.9554 30.3543L49.0311 30.4989C49.0816 30.5995 49.132 30.6939 49.1825 30.7945C49.233 30.8825 49.2835 30.9705 49.334 31.0586L49.4034 31.178C49.4602 31.2786 49.5169 31.3729 49.5737 31.4673C49.6305 31.5553 49.681 31.637 49.7378 31.7251L49.8072 31.832C49.8703 31.9326 49.9334 32.0332 50.0028 32.1275C50.0596 32.2155 50.1227 32.2972 50.1858 32.3853L50.2489 32.4733C50.3246 32.5739 50.394 32.6745 50.4697 32.7688C50.5391 32.8569 50.6085 32.9449 50.6779 33.0329L50.7284 33.0958C50.8104 33.1964 50.8861 33.297 50.9745 33.3976C51.0502 33.4919 51.1322 33.5799 51.2142 33.668L51.2332 33.6868C51.3278 33.7874 51.4161 33.8943 51.5108 33.9949C51.5802 34.0704 51.6559 34.1458 51.7316 34.2276C51.8073 34.1521 51.8831 34.0767 51.9525 33.9949" fill="black"/>
</g>
<defs>
<clipPath id="clip0_5183_3798">
<rect width="79" height="52" fill="white" transform="translate(0.5)"/>
</clipPath>
</defs>
</svg>
