<svg width="32" height="32" viewBox="0 0 32 32" fill="none" xmlns="http://www.w3.org/2000/svg">
<path d="M31 16C31 24.2843 24.2843 31 16 31C7.71573 31 1 24.2843 1 16C1 7.71573 7.71573 1 16 1C24.2843 1 31 7.71573 31 16Z" fill="#2DE6C8" stroke="white" stroke-width="2"/>
<path d="M11.594 14.7062C13.2773 14.7062 14.642 13.3416 14.642 11.6582C14.642 9.97477 13.2773 8.61011 11.594 8.61011C9.91056 8.61011 8.5459 9.97477 8.5459 11.6582C8.5459 13.3416 9.91056 14.7062 11.594 14.7062Z" fill="white"/>
<path d="M20.7381 14.7062C22.4215 14.7062 23.7862 13.3416 23.7862 11.6582C23.7862 9.97477 22.4215 8.61011 20.7381 8.61011C19.0547 8.61011 17.6901 9.97477 17.6901 11.6582C17.6901 13.3416 19.0547 14.7062 20.7381 14.7062Z" fill="white"/>
<path d="M11.594 23.5097C13.2773 23.5097 14.642 22.1451 14.642 20.4617C14.642 18.7783 13.2773 17.4136 11.594 17.4136C9.91056 17.4136 8.5459 18.7783 8.5459 20.4617C8.5459 22.1451 9.91056 23.5097 11.594 23.5097Z" fill="white"/>
<path d="M20.7381 23.5097C22.4215 23.5097 23.7862 22.1451 23.7862 20.4617C23.7862 18.7783 22.4215 17.4136 20.7381 17.4136C19.0547 17.4136 17.6901 18.7783 17.6901 20.4617C17.6901 22.1451 19.0547 23.5097 20.7381 23.5097Z" fill="white"/>
</svg>
