<svg xmlns="http://www.w3.org/2000/svg" width="97" height="46" viewBox="0 0 97 46" fill="none">
  <path d="M33.8969 8.40967L31.1055 15.7302H32.4852L34.4216 10.6325L35.299 12.9431H34.3425L33.7815 14.1379H35.7532L36.3581 15.7302H37.7378L34.9517 8.40967H33.8969Z" fill="black"/>
  <path d="M33.538 34.3223H36.7687V33.1371H33.538V31.3641H37.0423V30.179H32.2417V37.4995H37.1555V36.3143H33.538V34.3223Z" fill="black"/>
  <path d="M47.4321 8.40112H46.1357V15.7206H50.7162V14.5376H47.4321V8.40112Z" fill="black"/>
  <path d="M48.9622 30.2153H47.667V37.5348H48.9622V30.2153Z" fill="black"/>
  <path d="M63.9338 9.45696C63.6164 9.13101 63.2423 8.87345 62.8223 8.68857C62.3991 8.50261 61.9417 8.40857 61.4629 8.40857H59.3384V15.7281H61.4629C61.9439 15.7281 62.4013 15.634 62.8223 15.4491C63.2412 15.2653 63.6153 15.0067 63.9338 14.6818C64.2512 14.3548 64.5044 13.9647 64.6861 13.5233C64.8699 13.0788 64.9618 12.5893 64.9618 12.0688C64.9618 11.5484 64.8689 11.0685 64.6861 10.6208C64.5034 10.1708 64.249 9.7797 63.9338 9.45696ZM63.6644 12.0688C63.6644 12.4258 63.6035 12.7592 63.4828 13.0574C63.3588 13.3609 63.1932 13.6249 62.9901 13.8439C62.7871 14.063 62.5487 14.2372 62.2826 14.3612C62.0176 14.483 61.7419 14.545 61.4608 14.545H60.6336V9.59482H61.4608C61.7429 9.59482 62.0197 9.6568 62.2816 9.77757C62.5477 9.90047 62.786 10.0747 62.989 10.2948C63.1921 10.5139 63.3577 10.78 63.4806 11.0856C63.6014 11.3881 63.6623 11.7183 63.6623 12.0688H63.6644Z" fill="black"/>
  <path d="M63.4689 34.2005C63.6741 34.0434 63.8664 33.8243 64.0428 33.5507C64.2266 33.2632 64.3153 32.9052 64.3153 32.4564C64.3153 32.1539 64.2544 31.8643 64.1347 31.5939C64.016 31.3236 63.8515 31.0842 63.6463 30.8822C63.44 30.6791 63.1953 30.5167 62.9174 30.4002C62.6342 30.2805 62.3339 30.2196 62.0251 30.2196H59.2422V37.5402H60.5396V31.4048H62.0251C62.1565 31.4048 62.2794 31.4315 62.4002 31.486C62.5209 31.5394 62.6289 31.6142 62.7208 31.7083C62.8116 31.8013 62.8854 31.9135 62.9388 32.0417C62.9922 32.1721 63.02 32.3121 63.02 32.4574C63.02 32.6028 62.9933 32.7417 62.9399 32.8689C62.8864 32.9982 62.8127 33.1094 62.7208 33.2013C62.631 33.2932 62.5231 33.368 62.4013 33.4246C62.2794 33.4791 62.1565 33.5048 62.0251 33.5048H61.8958L61.402 34.4922L63.1675 37.5412H64.637L62.8939 34.5382C63.1023 34.4506 63.2947 34.3383 63.4699 34.2016L63.4689 34.2005Z" fill="black"/>
  <path d="M10.7223 14.7513C11.0354 15.0869 11.4041 15.353 11.8177 15.5422C12.2355 15.7324 12.6758 15.8286 13.1258 15.8286C13.5255 15.8286 13.9038 15.7634 14.249 15.6362C14.5952 15.509 14.9062 15.3263 15.1744 15.0955C15.4438 14.8646 15.6725 14.5953 15.8563 14.295C16.039 13.9968 16.1833 13.6709 16.2859 13.3246L16.365 13.0553H14.9938L14.9511 13.2081C14.8945 13.4101 14.8143 13.6014 14.7128 13.7756C14.6112 13.9498 14.4841 14.1016 14.3334 14.2266C14.1848 14.3506 14.0053 14.4532 13.8012 14.5301C13.5949 14.606 13.3673 14.6434 13.1258 14.6434C12.8618 14.6434 12.5978 14.5814 12.3392 14.4585C12.0806 14.3356 11.8487 14.1614 11.6478 13.9381C11.4479 13.7158 11.2844 13.4454 11.1626 13.1323C11.0418 12.8255 10.9809 12.4825 10.9809 12.1127C10.9809 11.743 11.0418 11.3999 11.1626 11.0921C11.2833 10.7801 11.4468 10.5097 11.6478 10.2863C11.8455 10.064 12.0774 9.88984 12.3392 9.76588C12.5925 9.64511 12.8565 9.58313 13.1247 9.58313C13.3609 9.58313 13.5768 9.62053 13.7659 9.69321C13.9593 9.77015 14.1325 9.87275 14.2821 9.99885C14.4317 10.125 14.5578 10.2767 14.6583 10.4509C14.7609 10.6251 14.8367 10.81 14.8912 11.0152L14.9319 11.1712H16.3094L16.2303 10.903C16.1288 10.5556 15.9845 10.2286 15.8018 9.93366C15.6169 9.63015 15.3893 9.36084 15.1232 9.13214C14.856 8.9013 14.5535 8.71963 14.2212 8.59138C13.8867 8.46314 13.5169 8.39795 13.1236 8.39795C12.6737 8.39795 12.2334 8.49413 11.8155 8.68436C11.403 8.87245 11.0343 9.13962 10.7201 9.47626C10.4081 9.80969 10.1548 10.2062 9.96671 10.6561C9.77968 11.1071 9.68457 11.5976 9.68457 12.1117C9.68457 12.6257 9.77968 13.1269 9.96671 13.5736C10.1548 14.0182 10.4081 14.4136 10.7191 14.7481L10.7223 14.7513Z" fill="black"/>
  <path d="M83.1721 32.4425L84.0527 34.7616H83.093L82.5309 35.9574H84.5069L85.1086 37.5391H86.4883L83.7022 30.2196H82.6474L79.856 37.5391H81.2356L83.1721 32.4425Z" fill="black"/>
  <path d="M72.2245 0.324951H23.9377V45.675H72.2245V0.324951ZM25.327 23.9046V1.71425H70.8352V44.2857H25.327V23.9046Z" fill="black"/>
  <path d="M0.654297 0.324951V23.9046H25.3272V0.324951H0.654297ZM23.9379 22.5153H2.0436V1.71425H23.9379V22.5153Z" fill="black"/>
  <path d="M70.8352 22.089V45.6686H95.5081V22.089H70.8352ZM94.1188 44.2793H72.2245V23.4783H94.1188V44.2793Z" fill="black"/>
</svg>