<svg width="130" height="51" viewBox="0 0 130 51" fill="none" xmlns="http://www.w3.org/2000/svg">
<g clip-path="url(#clip0_2340_11156)">
<path d="M46.2786 26.8649L42.4431 36.2847L38.843 26.8649H28.7474L25.9025 30.9017L23.0575 26.8649H16.9442L22.845 35.2389L16.9442 43.6129H23.0575L25.9025 39.576L28.7474 43.6129H34.8607L30.1187 36.8838H27.7996L33.8502 28.297L39.6104 43.2401L38.4287 46.1421H35.4294V50.5034H42.1985L51.8248 26.8649H46.2802H46.2786ZM8.98423 26.3699C4.03121 26.3699 0 30.3494 0 35.2389C0 40.1284 4.03121 44.1079 8.98423 44.1079C13.9373 44.1079 17.9685 40.1284 17.9685 35.2389C17.9685 30.3494 13.9373 26.3699 8.98423 26.3699ZM8.98423 39.2908C6.72174 39.2908 4.88117 37.4739 4.88117 35.2404C4.88117 33.0069 6.72174 31.19 8.98423 31.19C11.2467 31.19 13.0873 33.0069 13.0873 35.2404C13.0873 37.4739 11.2467 39.2908 8.98423 39.2908ZM80.3337 26.3699C77.6753 26.3699 75.4877 27.2331 73.7052 28.9278C71.9549 30.6226 71.0804 32.7142 71.0804 35.2389C71.0804 37.7636 71.9549 39.8899 73.7052 41.5831C75.4892 43.2779 77.6753 44.1079 80.3337 44.1079C82.454 44.1079 84.3038 43.5767 85.886 42.4795C87.5018 41.3839 88.6117 39.9548 89.2507 38.1937H84.0347C83.463 39.1565 82.0489 39.8884 80.4346 39.8884C78.4152 39.8884 76.8681 38.6932 76.33 36.7993H89.454C89.5549 36.4341 89.5885 35.9361 89.5885 35.3038C89.5885 32.7459 88.7141 30.6195 86.9301 28.9263C85.1461 27.2316 82.9601 26.3684 80.3353 26.3684L80.3337 26.3699ZM76.3637 33.5789C76.9354 31.7182 78.4167 30.5562 80.3337 30.5562C82.2507 30.5562 83.7993 31.7182 84.3038 33.5789H76.3621H76.3637ZM66.6946 26.8649L65.9226 28.4977C64.3526 27.1712 62.3148 26.3699 60.0905 26.3699C55.136 26.3699 51.1063 30.3494 51.1063 35.2389C51.1063 40.1284 55.1375 44.1079 60.0905 44.1079C61.4618 44.1079 62.7627 43.803 63.9261 43.2582C63.7854 43.972 63.4292 44.627 62.8896 45.1476C62.1986 45.8162 61.286 46.1844 60.3229 46.1844C59.2222 46.1844 58.1873 45.703 57.4856 44.8624L53.725 47.9259C55.3561 49.8771 57.7608 50.9969 60.3229 50.9969C61.4587 50.9969 62.564 50.7781 63.6081 50.348C64.614 49.933 65.5205 49.3399 66.3017 48.5839C67.0829 47.8293 67.702 46.948 68.1423 45.9641C68.5993 44.9454 68.8669 43.7744 68.8669 42.7451V33.6921L72.094 26.8619H66.693L66.6946 26.8649ZM60.0905 39.2908C57.828 39.2908 55.9875 37.4739 55.9875 35.2404C55.9875 33.0069 57.828 31.19 60.0905 31.19C62.353 31.19 64.1936 33.0069 64.1936 35.2404C64.1936 37.4739 62.353 39.2908 60.0905 39.2908ZM108.959 35.0352V26.8649H104.082V27.8534C104.082 27.8534 103.203 26.5812 100.624 26.3941C100.41 26.379 100.196 26.3699 99.9792 26.3699C95.0246 26.3699 90.9949 30.3494 90.9949 35.2389C90.9949 40.1284 95.0246 44.1079 99.9792 44.1079C103.061 44.1079 104.082 42.6244 104.082 42.6244V43.6129H108.959V35.4426C108.96 35.3747 108.963 35.3068 108.963 35.2389C108.963 35.171 108.96 35.1031 108.959 35.0352ZM104.078 35.4185C103.983 37.5689 102.181 39.2908 99.9792 39.2908C97.7778 39.2908 95.8761 37.4739 95.8761 35.2404C95.8761 33.0069 97.7167 31.19 99.9792 31.19C102.242 31.19 103.983 32.9104 104.078 35.0623V35.42V35.4185Z" fill="black"/>
<path d="M104.55 12.5602C104.55 16.4356 106.329 19.9005 109.124 22.2064V2.91407C106.329 5.21846 104.55 8.68336 104.55 12.5602ZM117.275 0C117.214 0 117.153 0 117.09 0L120.762 12.5602L117.09 25.1205C117.151 25.1205 117.212 25.1205 117.275 25.1205C118.099 25.1205 118.904 25.0435 119.686 24.8956L123.293 12.5587L119.686 0.224856C118.904 0.076964 118.099 0 117.275 0ZM110.377 2.00408L111.917 12.5617L110.377 23.1194C111.594 23.8966 112.955 24.4731 114.41 24.8035L116.196 12.5617L114.41 0.319929C112.955 0.650422 111.594 1.22841 110.377 2.00408ZM130 12.5602L126.022 3.43924C125.392 2.85069 124.7 2.32401 123.958 1.87128L128.619 12.5617L123.964 23.2507C124.706 22.7964 125.398 22.2698 126.028 21.6812L130 12.5632V12.5602Z" fill="black"/>
</g>
<defs>
<clipPath id="clip0_2340_11156">
<rect width="130" height="51" fill="white"/>
</clipPath>
</defs>
</svg>
