<svg width="80" height="32" viewBox="0 0 80 32" fill="none" xmlns="http://www.w3.org/2000/svg">
<g clip-path="url(#clip0_2340_12231)">
<path d="M28.4792 16.8564L26.1188 22.7669L23.9034 16.8564H17.6907L15.94 19.3894L14.1893 16.8564H10.4272L14.0585 22.1107L10.4272 27.365H14.1893L15.94 24.8321L17.6907 27.365H21.4527L18.5346 23.1428H17.1074L20.8309 17.755L24.3756 27.1311L23.6484 28.952H21.8027V31.6885H25.9683L31.8922 16.8564H28.4801H28.4792ZM5.52876 16.5459C2.48074 16.5459 0 19.0428 0 22.1107C0 25.1786 2.48074 27.6756 5.52876 27.6756C8.57677 27.6756 11.0575 25.1786 11.0575 22.1107C11.0575 19.0428 8.57677 16.5459 5.52876 16.5459ZM5.52876 24.6531C4.13646 24.6531 3.0038 23.5131 3.0038 22.1117C3.0038 20.7103 4.13646 19.5702 5.52876 19.5702C6.92106 19.5702 8.05372 20.7103 8.05372 22.1117C8.05372 23.5131 6.92106 24.6531 5.52876 24.6531ZM49.4361 16.5459C47.8002 16.5459 46.454 17.0875 45.3571 18.1508C44.2799 19.2142 43.7418 20.5266 43.7418 22.1107C43.7418 23.6949 44.2799 25.029 45.3571 26.0914C46.4549 27.1548 47.8002 27.6756 49.4361 27.6756C50.741 27.6756 51.8793 27.3423 52.8529 26.6539C53.8473 25.9664 54.5303 25.0697 54.9235 23.9647H51.7137C51.3618 24.5688 50.4917 25.0281 49.4982 25.0281C48.2555 25.0281 47.3035 24.2781 46.9723 23.0898H55.0486C55.1107 22.8606 55.1314 22.5482 55.1314 22.1514C55.1314 20.5465 54.5933 19.2123 53.4955 18.1499C52.3976 17.0865 51.0523 16.5449 49.4371 16.5449L49.4361 16.5459ZM46.993 21.0691C47.3449 19.9016 48.2564 19.1725 49.4361 19.1725C50.6158 19.1725 51.5688 19.9016 51.8792 21.0691H46.9921H46.993ZM41.0428 16.8564L40.5677 17.881C39.6016 17.0487 38.3476 16.5459 36.9788 16.5459C33.9298 16.5459 31.45 19.0428 31.45 22.1107C31.45 25.1786 33.9308 27.6756 36.9788 27.6756C37.8226 27.6756 38.6232 27.4843 39.3391 27.1425C39.2526 27.5903 39.0334 28.0013 38.7013 28.328C38.2761 28.7474 37.7145 28.9785 37.1218 28.9785C36.4445 28.9785 35.8076 28.6764 35.3758 28.149L33.0615 30.0712C34.0653 31.2955 35.5451 31.9981 37.1218 31.9981C37.8208 31.9981 38.5009 31.8608 39.1435 31.5909C39.7625 31.3305 40.3203 30.9584 40.801 30.484C41.2818 30.0106 41.6628 29.4576 41.9337 28.8402C42.215 28.2011 42.3796 27.4663 42.3796 26.8205V21.1402L44.3655 16.8546H41.0419L41.0428 16.8564ZM36.9788 24.6531C35.5865 24.6531 34.4538 23.5131 34.4538 22.1117C34.4538 20.7103 35.5865 19.5702 36.9788 19.5702C38.3711 19.5702 39.5038 20.7103 39.5038 22.1117C39.5038 23.5131 38.3711 24.6531 36.9788 24.6531ZM67.0516 21.9829V16.8564H64.0506V17.4767C64.0506 17.4767 63.5097 16.6784 61.9226 16.561C61.7909 16.5515 61.6592 16.5459 61.5257 16.5459C58.4767 16.5459 55.9969 19.0428 55.9969 22.1107C55.9969 25.1786 58.4767 27.6756 61.5257 27.6756C63.4222 27.6756 64.0506 26.7448 64.0506 26.7448V27.365H67.0516V22.2385C67.0525 22.1959 67.0544 22.1533 67.0544 22.1107C67.0544 22.0681 67.0525 22.0255 67.0516 21.9829ZM64.0478 22.2234C63.9895 23.5727 62.8803 24.6531 61.5257 24.6531C60.171 24.6531 59.0007 23.5131 59.0007 22.1117C59.0007 20.7103 60.1334 19.5702 61.5257 19.5702C62.918 19.5702 63.9895 20.6497 64.0478 21.9999V22.2243V22.2234Z" fill="black"/>
<path d="M64.3389 7.88093C64.3389 10.3125 65.4339 12.4866 67.1536 13.9334V1.82844C65.4339 3.27433 64.3389 5.44838 64.3389 7.88093ZM72.1696 0C72.132 0 72.0944 0 72.0558 0L74.3155 7.88093L72.0558 15.7619C72.0934 15.7619 72.1311 15.7619 72.1696 15.7619C72.6767 15.7619 73.1725 15.7136 73.6532 15.6208L75.8733 7.87998L73.6532 0.141086C73.1725 0.0482912 72.6767 0 72.1696 0ZM67.925 1.25746L68.8723 7.88188L67.925 14.5063C68.6738 14.9939 69.5111 15.3556 70.4067 15.563L71.5055 7.88188L70.4067 0.20074C69.5111 0.408108 68.6738 0.770765 67.925 1.25746ZM80.0004 7.88093L77.5526 2.15795C77.165 1.78867 76.7388 1.4582 76.2826 1.17414L79.1509 7.88188L76.2863 14.5887C76.7426 14.3037 77.1687 13.9732 77.5563 13.6039L80.0004 7.88282V7.88093Z" fill="#2DE6C8"/>
</g>
<defs>
<clipPath id="clip0_2340_12231">
<rect width="80" height="32" fill="white"/>
</clipPath>
</defs>
</svg>
