<svg width="141" height="56" viewBox="0 0 141 56" fill="none" xmlns="http://www.w3.org/2000/svg">
<g clip-path="url(#clip0_2459_6626)">
<path d="M50.1945 29.4988L46.0345 39.8421L42.1297 29.4988H31.1799L28.0942 33.9314L25.0086 29.4988H18.378L24.7781 38.6938L18.378 47.8887H25.0086L28.0942 43.4561L31.1799 47.8887H37.8105L32.6672 40.4999H30.1519L36.7145 31.0713L42.9621 47.4794L41.6804 50.6659H38.4273V55.4548H45.7692L56.21 29.4988H50.1962H50.1945ZM9.74443 28.9553C4.37231 28.9553 0 33.3249 0 38.6938C0 44.0626 4.37231 48.4322 9.74443 48.4322C15.1166 48.4322 19.4889 44.0626 19.4889 38.6938C19.4889 33.3249 15.1166 28.9553 9.74443 28.9553ZM9.74443 43.1429C7.2905 43.1429 5.29419 41.1478 5.29419 38.6954C5.29419 36.243 7.2905 34.2479 9.74443 34.2479C12.1984 34.2479 14.1947 36.243 14.1947 38.6954C14.1947 41.1478 12.1984 43.1429 9.74443 43.1429ZM87.1312 28.9553C84.2478 28.9553 81.8751 29.9031 79.9418 31.764C78.0434 33.6248 77.0949 35.9215 77.0949 38.6938C77.0949 41.466 78.0434 43.8008 79.9418 45.66C81.8768 47.5209 84.2478 48.4322 87.1312 48.4322C89.4309 48.4322 91.4372 47.849 93.1533 46.6443C94.9058 45.4413 96.1096 43.872 96.8027 41.9383H91.1454C90.5252 42.9955 88.9915 43.7991 87.2406 43.7991C85.0503 43.7991 83.3724 42.4867 82.7887 40.4071H97.0232C97.1326 40.0061 97.1691 39.4593 97.1691 38.765C97.1691 35.9563 96.2207 33.6215 94.2857 31.7623C92.3508 29.9014 89.9797 28.9536 87.1329 28.9536L87.1312 28.9553ZM82.8252 36.871C83.4453 34.8279 85.052 33.5519 87.1312 33.5519C89.2104 33.5519 90.89 34.8279 91.4372 36.871H82.8235H82.8252ZM72.338 29.4988L71.5006 31.2917C69.7978 29.8352 67.5876 28.9553 65.1751 28.9553C59.8013 28.9553 55.4307 33.3249 55.4307 38.6938C55.4307 44.0626 59.803 48.4322 65.1751 48.4322C66.6624 48.4322 68.0734 48.0975 69.3352 47.4993C69.1827 48.2831 68.7963 49.0023 68.211 49.5739C67.4616 50.308 66.4717 50.7123 65.4272 50.7123C64.2333 50.7123 63.1108 50.1837 62.3498 49.2608L58.271 52.6246C60.0401 54.7671 62.6482 55.9967 65.4272 55.9967C66.6591 55.9967 67.8579 55.7564 68.9903 55.2841C70.0813 54.8284 71.0646 54.1772 71.9118 53.347C72.7591 52.5185 73.4306 51.5508 73.9081 50.4704C74.4039 49.3519 74.6941 48.066 74.6941 46.9359V36.9953L78.1942 29.4955H72.3363L72.338 29.4988ZM65.1751 43.1429C62.7212 43.1429 60.7249 41.1478 60.7249 38.6954C60.7249 36.243 62.7212 34.2479 65.1751 34.2479C67.6291 34.2479 69.6254 36.243 69.6254 38.6954C69.6254 41.1478 67.6291 43.1429 65.1751 43.1429ZM118.178 38.4701V29.4988H112.889V30.5842C112.889 30.5842 111.936 29.1873 109.139 28.9818C108.907 28.9652 108.674 28.9553 108.439 28.9553C103.065 28.9553 98.6945 33.3249 98.6945 38.6938C98.6945 44.0626 103.065 48.4322 108.439 48.4322C111.782 48.4322 112.889 46.8034 112.889 46.8034V47.8887H118.178V38.9175C118.18 38.8429 118.183 38.7683 118.183 38.6938C118.183 38.6192 118.18 38.5446 118.178 38.4701ZM112.884 38.8909C112.781 41.2522 110.827 43.1429 108.439 43.1429C106.051 43.1429 103.989 41.1478 103.989 38.6954C103.989 36.243 105.985 34.2479 108.439 34.2479C110.893 34.2479 112.781 36.1369 112.884 38.4999V38.8926V38.8909Z" fill="white"/>
<path d="M113.396 13.7916C113.396 18.0469 115.326 21.8515 118.357 24.3835V3.19976C115.326 5.73008 113.396 9.53467 113.396 13.7916ZM127.198 0C127.132 0 127.066 0 126.998 0L130.98 13.7916L126.998 27.5833C127.064 27.5833 127.13 27.5833 127.198 27.5833C128.092 27.5833 128.966 27.4987 129.813 27.3364L133.726 13.79L129.813 0.2469C128.966 0.0845095 128.092 0 127.198 0ZM119.717 2.20056L121.387 13.7933L119.717 25.386C121.037 26.2394 122.513 26.8724 124.091 27.2353L126.028 13.7933L124.091 0.351295C122.513 0.714188 121.037 1.34884 119.717 2.20056ZM141 13.7916L136.686 3.77642C136.003 3.13017 135.251 2.55186 134.447 2.05474L139.503 13.7933L134.454 25.5302C135.258 25.0314 136.009 24.4531 136.692 23.8068L141 13.7949V13.7916Z" fill="#2DE6C8"/>
</g>
<defs>
<clipPath id="clip0_2459_6626">
<rect width="141" height="56" fill="white"/>
</clipPath>
</defs>
</svg>
