<svg width="174" height="50" viewBox="0 0 174 50" fill="none" xmlns="http://www.w3.org/2000/svg"  preserveAspectRatio="xMinYMin">
<g clip-path="url(#clip0_5049_17737)">
<path d="M83.1054 31.3772C82.943 31.3772 82.7685 31.3772 82.594 31.3772C80.4785 31.3669 78.3603 31.3996 76.2476 31.3221C75.4769 31.2941 74.6902 31.0757 73.9568 30.8145C72.8855 30.4328 72.2435 29.6135 72.1884 28.4611C72.1325 27.3012 72.1306 26.1347 72.1866 24.9748C72.2491 23.6927 73.0208 22.8846 74.1966 22.515C74.9272 22.2855 75.7055 22.1054 76.4651 22.0923C78.5488 22.0569 80.6353 22.0895 82.7181 22.1595C83.5981 22.1894 84.45 22.4507 85.1844 22.9835C85.8376 23.4575 86.2445 24.1014 86.2529 24.9058C86.279 27.4253 86.2837 29.9448 86.2529 32.4643C86.2417 33.3862 85.7266 34.0544 84.9287 34.5013C84.031 35.0034 83.0382 35.1284 82.0406 35.1657C80.9843 35.2059 79.9242 35.1965 78.867 35.176C78.0206 35.1592 77.6063 34.8195 77.5251 34.1533C77.4458 33.4982 77.7883 33.0083 78.4359 32.8861C78.6972 32.8366 78.9678 32.8217 79.2347 32.8179C80.1883 32.8039 81.1429 32.8291 82.0948 32.7862C83.0634 32.7424 83.32 32.371 83.1054 31.3772ZM83.1539 29.1096C83.1632 28.909 83.1763 28.7485 83.1763 28.588C83.1781 27.6492 83.1772 26.7095 83.1772 25.7708C83.1772 24.8479 83.0214 24.6734 82.0938 24.5586C81.9762 24.5437 81.8559 24.5409 81.7374 24.5409C80.054 24.54 78.3706 24.5344 76.6872 24.5456C76.4072 24.5474 76.1226 24.596 75.8511 24.6631C75.4629 24.7593 75.2501 24.9981 75.2576 25.4339C75.2744 26.3727 75.2706 27.3124 75.2594 28.2511C75.2548 28.6244 75.4283 28.8698 75.7689 28.936C76.2336 29.0266 76.7095 29.0975 77.1808 29.1021C79.0126 29.1208 80.8453 29.1096 82.678 29.1096H83.1539Z" fill="black"/>
<path d="M94.8414 30.891C93.4996 30.891 92.1586 30.891 90.8168 30.891C90.6087 30.891 90.3987 30.89 90.1916 30.8695C89.4898 30.8014 89.124 30.4011 89.1054 29.6947C89.0858 28.9584 89.3918 28.5693 90.1066 28.4601C90.3847 28.4172 90.6703 28.4023 90.9521 28.4013C93.5005 28.3939 96.0499 28.4079 98.5983 28.3761C99.1386 28.3696 99.6929 28.2502 100.214 28.0943C100.973 27.8666 100.939 27.2078 100.913 26.5817C100.89 26.0423 100.681 25.7484 100.106 25.6038C99.677 25.4955 99.2263 25.4246 98.784 25.4181C97.249 25.3938 95.713 25.4199 94.1789 25.3975C93.1198 25.3817 92.0681 25.2725 91.0678 24.8806C89.7492 24.3645 89.2034 23.5732 89.195 22.1548C89.1931 21.8114 89.1978 21.469 89.1968 21.1256C89.194 19.8061 89.8584 18.9448 91.0342 18.4278C91.9795 18.0117 92.9854 17.8959 93.9979 17.8502C94.861 17.812 95.727 17.812 96.5902 17.8381C97.4375 17.8633 97.8536 18.2477 97.8854 18.9504C97.9246 19.8388 97.5205 20.2792 96.6219 20.3091C95.6841 20.3399 94.7463 20.3585 93.8084 20.3875C93.6759 20.3912 93.5425 20.4182 93.4128 20.449C92.4722 20.6702 92.0616 21.4214 92.4572 22.306C92.5552 22.5244 92.8576 22.7325 93.102 22.7875C93.6199 22.906 94.1602 22.9592 94.6931 22.9704C96.2281 23.0021 97.7641 22.9741 99.2982 23.0189C100.389 23.0507 101.462 23.2326 102.454 23.73C103.486 24.247 104.077 25.0588 104.083 26.2448C104.086 26.6918 104.086 27.1397 104.081 27.5867C104.065 28.8063 103.448 29.6331 102.382 30.1557C101.387 30.6437 100.312 30.8266 99.2226 30.8565C97.7631 30.8956 96.3018 30.8667 94.8414 30.8667C94.8414 30.8751 94.8414 30.8835 94.8414 30.8919V30.891Z" fill="black"/>
<path d="M135.78 24.4345C135.852 23.7225 135.648 23.4417 134.975 23.3586C134.489 23.2989 133.995 23.2961 133.505 23.283C132.879 23.2662 132.252 23.2914 131.629 23.2504C130.988 23.2084 130.649 22.8351 130.614 22.2211C130.575 21.5408 130.839 21.1732 131.48 21.0155C131.567 20.994 131.655 20.9604 131.742 20.9632C133.198 21.0145 134.655 21.0397 136.108 21.1424C136.551 21.1741 137 21.3757 137.409 21.5754C138.229 21.9766 138.752 22.6531 138.776 23.576C138.819 25.1988 138.819 26.8234 138.772 28.4461C138.746 29.3364 138.24 30.0194 137.423 30.3442C136.77 30.6036 136.054 30.8285 135.362 30.8434C132.756 30.9012 130.148 30.8938 127.542 30.8471C126.905 30.8359 126.246 30.6484 125.642 30.4207C124.684 30.0595 124.212 29.2981 124.204 28.266C124.2 27.8489 124.198 27.4309 124.204 27.0137C124.219 25.9985 124.686 25.2324 125.635 24.9058C126.369 24.6529 127.165 24.4765 127.937 24.4588C130.379 24.4019 132.823 24.4355 135.266 24.4345C135.428 24.4345 135.589 24.4345 135.781 24.4345H135.78ZM135.811 26.4128C135.689 26.396 135.631 26.3811 135.573 26.3811C133.173 26.382 130.774 26.3801 128.375 26.3951C128.115 26.3969 127.838 26.4585 127.6 26.5649C127.448 26.633 127.282 26.8178 127.248 26.9774C127.004 28.0878 127.3 28.4648 128.432 28.5432C128.462 28.545 128.492 28.5469 128.522 28.5469C130.504 28.5469 132.486 28.5544 134.467 28.5404C134.774 28.5385 135.102 28.4909 135.379 28.3696C135.561 28.2903 135.768 28.0533 135.792 27.8648C135.851 27.3982 135.811 26.9186 135.811 26.4128Z" fill="black"/>
<path d="M62.3503 31.0561C61.0009 30.9647 59.6469 30.9106 58.3032 30.7631C57.8021 30.7081 57.2991 30.485 56.8419 30.2499C55.8994 29.7656 55.4347 28.9416 55.4133 27.8909C55.3899 26.7879 55.4049 25.684 55.4049 24.5801C55.4049 22.7492 56.1635 21.7442 57.9402 21.3215C58.6018 21.1647 59.2905 21.0686 59.9698 21.0528C61.5786 21.0145 63.192 20.9818 64.797 21.063C65.719 21.1097 66.6614 21.2889 67.5386 21.5772C68.7274 21.9682 69.3554 22.8827 69.3676 24.1611C69.3788 25.3835 69.3778 26.6069 69.3676 27.8293C69.3573 29.1721 68.664 30.0698 67.4331 30.4869C66.696 30.737 65.9028 30.8732 65.1245 30.9376C64.2073 31.0132 63.2778 30.9553 62.354 30.9553C62.3521 30.9889 62.3503 31.0225 62.3484 31.0552L62.3503 31.0561ZM62.3615 28.476C62.3615 28.4853 62.3615 28.4946 62.3615 28.504C62.7637 28.504 63.1668 28.518 63.568 28.5012C64.2502 28.4722 64.9351 28.4536 65.6126 28.3752C66.0679 28.322 66.2928 28.0299 66.2807 27.5335C66.2564 26.5947 66.2742 25.6551 66.2742 24.7163C66.2742 23.8699 66.1463 23.715 65.3224 23.5601C65.2206 23.5415 65.1152 23.5284 65.0116 23.5275C63.2685 23.5256 61.5263 23.5191 59.7832 23.5321C59.5219 23.534 59.256 23.6133 59.0003 23.687C58.6587 23.785 58.5057 24.0174 58.5104 24.3878C58.5244 25.461 58.5272 26.5341 58.5094 27.6072C58.5029 28.0019 58.6783 28.2315 59.0273 28.3388C59.2532 28.4078 59.4911 28.4657 59.7253 28.4694C60.6034 28.4844 61.4825 28.475 62.3615 28.475V28.476Z" fill="black"/>
<path d="M110.231 23.4519C110.231 25.4731 110.227 27.4411 110.233 29.4082C110.235 29.9597 110.238 30.527 109.644 30.7902C108.96 31.0935 108.247 31.1056 107.588 30.7062C107.172 30.4533 107.121 30.0063 107.121 29.5603C107.121 27.2638 107.121 24.9673 107.121 22.6708C107.121 21.4186 107.162 20.1635 107.111 18.9131C107.049 17.4228 107.764 17.0953 109.055 17.2007C109.848 17.2651 110.222 17.6962 110.228 18.495C110.235 19.2966 110.23 20.0982 110.23 20.952C110.431 20.952 110.59 20.952 110.749 20.952C112.686 20.9529 114.623 20.9408 116.561 20.9604C117.546 20.9707 118.522 21.0882 119.442 21.4811C120.595 21.9729 121.24 22.8211 121.245 24.1014C121.252 25.9509 121.257 27.7994 121.246 29.6489C121.24 30.5205 120.842 30.9134 119.961 30.9712C119.783 30.9824 119.604 30.9815 119.425 30.9693C118.534 30.9096 118.129 30.4916 118.125 29.6023C118.117 27.9021 118.123 26.2019 118.122 24.5026C118.122 23.7804 118.011 23.6404 117.282 23.5004C117.05 23.4556 116.81 23.436 116.573 23.436C114.591 23.4295 112.609 23.4304 110.627 23.4304C110.511 23.4304 110.395 23.4435 110.229 23.4528L110.231 23.4519Z" fill="black"/>
<path d="M155.455 26.8504C155.427 26.9307 155.419 26.9438 155.418 26.9578C155.314 28.2296 155.515 28.4825 156.798 28.5348C157.796 28.5749 158.795 28.5413 159.793 28.56C160.696 28.5768 161.111 29.0163 161.057 29.8598C161.021 30.4151 160.72 30.8247 160.146 30.8415C158.334 30.8928 156.507 31.0767 154.72 30.6092C153.046 30.1715 152.382 29.2757 152.381 27.5484C152.381 26.3549 152.379 25.1614 152.381 23.9689C152.385 22.4954 153.034 21.6033 154.455 21.2338C155.069 21.0742 155.716 20.9763 156.349 20.9669C158.466 20.9343 160.583 20.9165 162.698 20.9744C163.488 20.9959 164.296 21.1648 165.052 21.4027C165.968 21.6911 166.492 22.3937 166.53 23.3801C166.562 24.1994 166.57 25.0205 166.541 25.8398C166.518 26.5173 166.158 26.8346 165.428 26.8402C163.476 26.8551 161.523 26.8495 159.569 26.8504C158.2 26.8514 156.832 26.8504 155.454 26.8504H155.455ZM163.451 24.8731C163.672 23.6815 163.479 23.3437 162.361 23.3129C160.428 23.2597 158.491 23.2625 156.557 23.3157C155.491 23.3455 155.382 23.5378 155.403 24.6016C155.405 24.6865 155.419 24.7714 155.428 24.8731H163.451Z" fill="black"/>
<path d="M46.7294 30.9572C45.3129 30.9572 43.8936 31.0188 42.4826 30.9348C41.5728 30.8807 40.6462 30.7053 39.7802 30.4216C38.3255 29.9457 37.5538 28.866 37.5435 27.317C37.5258 24.6025 37.5286 21.887 37.5416 19.1725C37.5454 18.3494 37.8897 17.9594 38.7043 17.8586C39.0944 17.811 39.5115 17.8465 39.8969 17.9314C40.454 18.0536 40.7181 18.481 40.7199 19.1538C40.7246 21.6752 40.7218 24.1956 40.7227 26.717C40.7227 27.7789 41.0596 28.2016 42.1206 28.3659C42.6478 28.448 43.1881 28.4741 43.7228 28.4769C46.093 28.4881 48.4632 28.4806 50.8334 28.4834C51.0415 28.4834 51.2524 28.4853 51.4577 28.5161C52.2639 28.6374 52.5812 29.0209 52.5476 29.8141C52.5168 30.5354 52.1156 30.946 51.3373 30.9563C49.8023 30.9768 48.2663 30.9628 46.7313 30.9628C46.7313 30.9609 46.7313 30.9591 46.7313 30.9572H46.7294Z" fill="black"/>
<path d="M147.234 20.9175C147.722 20.9557 148.218 20.952 148.695 21.0416C149.285 21.1517 149.554 21.5511 149.556 22.1735C149.558 22.8062 149.266 23.2364 148.672 23.339C148.207 23.4193 147.726 23.4006 147.252 23.4305C146.734 23.4631 146.209 23.4631 145.699 23.548C145.176 23.6357 145.037 23.8532 145.037 24.3869C145.036 26.1002 145.03 27.8135 145.04 29.5267C145.044 30.1015 144.936 30.597 144.346 30.849C143.713 31.1196 142.613 31.0254 142.281 30.5961C142.087 30.3451 141.949 29.9802 141.944 29.6639C141.913 27.8172 141.914 25.9686 141.936 24.1219C141.951 22.8426 142.588 21.9598 143.77 21.4727C144.881 21.0155 146.052 20.9511 147.234 20.9175Z" fill="black"/>
<path d="M169.637 21.0677V18.4381H170.803C171.037 18.4381 171.215 18.4614 171.337 18.509C171.46 18.5566 171.557 18.6397 171.629 18.7591C171.702 18.8786 171.739 19.0111 171.739 19.1557C171.739 19.3423 171.678 19.4991 171.558 19.6269C171.437 19.7548 171.251 19.836 170.998 19.8705C171.09 19.9144 171.16 19.9582 171.208 20.0011C171.309 20.0945 171.405 20.2111 171.496 20.3511L171.953 21.0668H171.516L171.168 20.52C171.066 20.3623 170.982 20.241 170.917 20.1579C170.85 20.0739 170.791 20.0161 170.74 19.9825C170.688 19.9489 170.636 19.9256 170.582 19.9125C170.542 19.9041 170.478 19.9004 170.387 19.9004H169.984V21.0677H169.636H169.637ZM169.985 19.5989H170.734C170.892 19.5989 171.017 19.5822 171.107 19.5495C171.196 19.5168 171.265 19.4636 171.311 19.3918C171.358 19.319 171.381 19.2406 171.381 19.1557C171.381 19.0316 171.336 18.9289 171.246 18.8487C171.155 18.7684 171.013 18.7283 170.819 18.7283H169.986V19.598L169.985 19.5989Z" fill="black"/>
<path d="M170.621 17.1018C169.156 17.1018 167.969 18.2888 167.969 19.7538C167.969 21.2189 169.156 22.4059 170.621 22.4059C172.086 22.4059 173.273 21.2189 173.273 19.7538C173.273 18.2888 172.086 17.1018 170.621 17.1018ZM170.621 21.9673C169.398 21.9673 168.407 20.9763 168.407 19.7538C168.407 18.5314 169.398 17.5404 170.621 17.5404C171.843 17.5404 172.834 18.5314 172.834 19.7538C172.834 20.9763 171.843 21.9673 170.621 21.9673Z" fill="black"/>
<path d="M23.9735 13.1863C23.6086 13.0911 23.3921 13.1453 23.1364 13.4093C22.1697 14.4069 21.1777 15.3811 20.197 16.3665C20.086 16.4775 19.988 16.6016 19.9133 16.6847C21.6527 18.4204 23.365 20.129 25.0951 21.8553V13.3468C24.733 13.3366 24.3598 13.288 23.9725 13.1863H23.9735Z" fill="black"/>
<path d="M23.2756 0.195028C18.7079 1.19163 15.7078 5.15565 16.0232 9.84566C16.152 11.7661 16.8667 13.4756 18.0854 14.9295C19.2463 13.764 20.3875 12.619 21.5549 11.4479C21.5008 11.348 21.4121 11.1931 21.3319 11.0345C19.9564 8.31996 21.8255 5.04367 24.861 4.90836C24.9422 4.90463 25.0178 4.9121 25.0962 4.9121V0C24.4934 0 23.884 0.062521 23.2756 0.195028Z" fill="black"/>
<path d="M19.9338 33.3993C21.0256 34.4892 22.1566 35.6286 23.3072 36.7484C23.4136 36.8519 23.645 36.8613 23.8167 36.8547C24.2413 36.8379 24.6714 36.7726 25.096 36.7456V28.2446C23.3669 29.9718 21.6602 31.6758 19.9338 33.3993Z" fill="black"/>
<path d="M21.0762 42.1868C20.6628 40.8822 20.8849 39.6626 21.5539 38.5727C20.3866 37.3978 19.2472 36.251 18.0808 35.0771C16.4151 37.1627 15.7134 39.5413 16.0997 42.2222C16.7697 46.8712 20.7748 49.9935 25.0952 50V45.1196C23.3269 45.1308 21.6295 43.9336 21.0752 42.1868H21.0762Z" fill="black"/>
<path d="M25.293 21.8245C27.4104 19.7044 29.5566 17.6123 31.6338 15.4539C33.7166 13.2899 34.5032 10.6734 34.0824 7.69662C33.4562 3.26323 29.4446 -0.00652227 25.0961 9.76946e-06V4.91117C26.7628 4.90931 28.0636 5.68009 28.8427 7.19832C29.6592 8.78748 29.5015 10.3682 28.3771 11.7624C27.4906 12.8607 26.3764 13.3842 25.0952 13.3459V21.8544C25.1176 21.8768 25.14 21.8992 25.1624 21.9206C25.1829 21.9057 25.2445 21.8721 25.293 21.8236V21.8245Z" fill="black"/>
<path d="M31.4892 34.4033C29.5053 32.3803 27.4887 30.3899 25.4853 28.3845C25.3742 28.2735 25.2511 28.1727 25.2072 28.1326C25.1699 28.1699 25.1335 28.2063 25.0952 28.2436V36.7446C25.3462 36.7287 25.5963 36.7231 25.8399 36.7577C27.8769 37.0525 29.3466 38.8759 29.3242 40.9522C29.3019 43.0396 27.7379 44.7846 25.614 45.0935C25.4405 45.1187 25.2678 45.1168 25.0952 45.1187V49.9991C26.3867 50.0009 27.7052 49.7368 28.9725 49.1368C34.702 46.4251 35.9795 38.9823 31.4882 34.4024L31.4892 34.4033Z" fill="black"/>
<path d="M2.96555 31.7551C6.75507 35.2208 12.1739 34.5937 15.0181 31.8857C14.0103 30.8788 12.9997 29.8748 11.9984 28.8623C11.8725 28.7354 11.7931 28.5618 11.7241 28.4564C8.91064 29.6406 7.05834 29.3401 5.72487 27.5624C5.16405 26.8159 4.8869 25.9201 4.88504 25.0271H0C0.00279945 27.4896 0.990071 29.9476 2.96555 31.7541V31.7551Z" fill="black"/>
<path d="M13.1573 26.1086C13.1302 26.4398 13.1676 26.6293 13.3934 26.8504C14.4114 27.8498 15.4127 28.8651 16.4224 29.8729C16.5316 29.9811 16.6547 30.0763 16.7275 30.1398C18.4529 28.4134 20.141 26.7254 21.8374 25.028H13.1713C13.1816 25.3891 13.1872 25.7512 13.1573 26.1095V26.1086Z" fill="black"/>
<path d="M5.7706 22.4283C7.12926 20.7103 9.05808 20.3865 11.4301 21.455C12.5714 20.31 13.7033 19.1744 14.8585 18.0154C11.7707 15.2318 6.0776 14.9556 2.46632 18.7862C0.809044 20.5452 -0.00186308 22.7884 3.21401e-06 25.028H4.88504C4.88317 24.1033 5.17618 23.1804 5.7706 22.4283Z" fill="black"/>
<path d="M21.6695 24.7154C20.0253 23.0665 18.3802 21.4186 16.6986 19.7343C15.5173 20.9147 14.3751 22.0438 13.2562 23.1953C13.1415 23.3129 13.1359 23.5686 13.1368 23.7599C13.1387 24.1826 13.1592 24.6053 13.1713 25.028H21.8375C21.8589 25.0065 21.8795 24.986 21.9009 24.9646C21.8403 24.8992 21.7591 24.8041 21.6704 24.7154H21.6695Z" fill="black"/>
<path opacity="0.1" d="M5.7706 22.4283C7.12926 20.7103 9.05808 20.3865 11.4301 21.455C12.5714 20.31 13.7033 19.1744 14.8585 18.0154C11.7707 15.2318 6.0776 14.9556 2.46632 18.7862C0.809044 20.5452 -0.00186308 22.7884 3.21401e-06 25.028H4.88504C4.88317 24.1033 5.17618 23.1804 5.7706 22.4283Z" fill="black"/>
<path opacity="0.1" d="M21.6695 24.7154C20.0253 23.0665 18.3802 21.4186 16.6986 19.7343C15.5173 20.9147 14.3751 22.0438 13.2562 23.1953C13.1415 23.3129 13.1359 23.5686 13.1368 23.7599C13.1387 24.1826 13.1592 24.6053 13.1713 25.028H21.8375C21.8589 25.0065 21.8795 24.986 21.9009 24.9646C21.8403 24.8992 21.7591 24.8041 21.6704 24.7154H21.6695Z" fill="black"/>
</g>
<defs>
<clipPath id="clip0_5049_17737">
<rect width="173.273" height="50" fill="white"/>
</clipPath>
</defs>
</svg>
