<svg width="111" height="50" viewBox="0 0 111 50" fill="none" xmlns="http://www.w3.org/2000/svg">
<g clip-path="url(#clip0_5183_3845)">
<path d="M4.28146 30.2597C4.28146 34.6825 4.28146 39.1053 4.28146 43.5281C4.28146 44.1735 4.41919 44.7342 4.85793 45.2615C5.49931 46.0327 6.22137 46.1488 6.96309 45.531C7.54546 45.047 7.6517 44.3348 7.77762 43.7111C7.8878 43.1602 8.02158 42.5011 7.6576 41.9188C7.56907 41.7771 7.62612 41.539 7.62612 41.3443C7.62612 29.5179 7.62219 17.6916 7.63596 5.86528C7.63596 5.27898 7.72843 4.67104 7.90157 4.11032C8.0688 3.5673 8.30489 2.99674 8.6669 2.56981C9.31616 1.80644 10.0107 1.08242 11.0967 0.858128C11.6023 0.753853 12.0844 0.464638 12.6254 0.535466C13.1547 0.604327 13.7291 0.31708 14.2171 0.726309C15.2087 0.643676 15.9189 1.28703 16.6154 1.79857C17.3394 2.32781 17.7152 3.20333 18.0359 4.04146C18.1894 4.44085 18.3133 4.86975 18.2582 5.3321C18.2267 5.59968 18.1756 5.88496 18.4235 6.15253C18.5376 6.27648 18.5238 6.63652 18.4274 6.81359C18.1323 7.36645 18.2523 7.94487 18.2523 8.50953C18.2444 19.9758 18.2464 31.4421 18.2444 42.9084C18.2444 43.7013 18.455 44.4253 18.8268 45.1257C19.1062 45.653 19.5213 45.9087 20.0899 45.9383C20.686 45.9678 21.1012 45.6628 21.3904 45.167C21.6599 44.7027 21.7957 44.2187 21.7957 43.66C21.7799 35.1094 21.7858 26.5589 21.7858 18.0084C21.7858 17.8116 21.776 17.6149 21.7858 17.4181C21.8252 16.7512 22.443 16.1157 23.108 16.0626C23.3027 16.0468 23.5113 16.0999 23.6962 16.0527C24.4576 15.8639 24.8059 16.4364 25.2308 16.8613C25.3056 16.9361 25.3154 17.0915 25.3214 17.2116C25.3351 17.4398 25.3253 17.67 25.3253 17.9002C25.3253 25.6637 25.3312 33.4292 25.3174 41.1928C25.3174 42.027 25.6597 42.8258 25.526 43.6678C25.5004 43.8272 25.5791 44.0259 25.5122 44.1538C25.2112 44.7243 25.3961 45.3933 25.1266 45.9599C24.9436 46.3436 24.7665 46.7351 24.5324 47.0892C23.9107 48.0316 23.0863 48.736 21.9944 49.0842C21.111 49.3656 19.6059 49.2731 18.5159 49.1078C17.1899 48.9091 16.4442 48.0238 15.6848 47.0912C15.1516 46.436 15.0198 45.6805 14.8585 44.868C14.6598 43.8646 14.7148 42.8828 14.7129 41.8951C14.6991 30.0688 14.705 18.2425 14.7011 6.41617C14.7011 6.09941 14.6657 5.78068 14.6224 5.46589C14.5378 4.84614 14.0754 4.46643 13.6426 4.11032C13.1566 3.70896 12.0824 4.02965 11.7597 4.6494C11.2462 5.63312 10.8704 6.63849 11.3525 7.76584C11.4233 7.9311 11.3623 8.15539 11.3623 8.35214C11.3623 20.2434 11.3721 32.1366 11.3446 44.0279C11.3426 45.0018 11.0888 45.9599 10.5911 46.8551C9.88672 48.1241 8.77118 48.8029 7.47857 49.2849C5.90264 49.2947 4.28146 49.4934 2.89245 48.492C1.93036 47.7995 1.22602 46.8964 0.940738 45.7159C0.86204 45.3854 0.755798 45.0509 0.755798 44.7165C0.755798 44.3584 0.655458 44.0436 0.555118 43.7131C0.500029 43.5321 0.464615 43.2586 0.56102 43.1386C0.842365 42.7844 0.736123 42.3988 0.738091 42.0289C0.743993 33.6102 0.742026 25.1896 0.749895 16.7708C0.749895 16.462 0.722351 16.1629 0.8463 15.8304C1.08239 15.1949 1.65886 15.0375 2.13498 14.9136C3.23478 14.6283 4.2795 15.551 4.28146 16.704C4.2854 21.2251 4.28146 25.7463 4.28146 30.2675V30.2597Z" fill="black"/>
<path d="M28.8647 24.2766C28.8647 18.2208 28.8706 12.163 28.8588 6.10719C28.8588 5.11757 28.3493 4.39748 27.4678 3.95677C27.336 3.88988 27.157 3.85053 27.0153 3.88004C26.6336 3.9548 25.8683 4.58045 25.7267 4.96411C25.5024 5.57401 25.2289 6.17802 25.3214 6.86073C25.3528 7.08501 25.28 7.32898 25.3351 7.5454C25.524 8.3068 24.9475 8.64913 24.5344 9.08591C24.5127 9.10952 24.4872 9.1528 24.4655 9.1528C23.895 9.14296 23.3205 9.27872 22.7519 9.0682C22.0633 8.8144 21.896 8.19072 21.8114 7.61032C21.7091 6.90401 21.7544 6.17212 21.7996 5.454C21.8272 4.99558 21.9137 4.52536 22.0731 4.09646C22.2718 3.55935 22.5138 3.02027 22.8404 2.55201C23.1355 2.12901 23.5211 1.73159 23.9481 1.44828C24.4203 1.13348 24.9672 0.891488 25.5142 0.738028C27.2632 0.244198 28.8746 0.555055 30.4171 1.54862C31.1253 2.00506 31.4519 2.64645 31.8297 3.31932C32.2035 3.98628 32.4534 4.65915 32.4199 5.43826C32.4061 5.73928 32.2783 6.09145 32.597 6.35116C32.6226 6.37083 32.4809 6.55774 32.4671 6.67185C32.4317 6.95713 32.412 7.24634 32.412 7.53359C32.4101 19.1888 32.4002 30.8439 32.4337 42.4991C32.4357 43.231 32.1091 43.6343 31.6467 44.0494C31.6231 44.0711 31.5995 44.1163 31.5778 44.1163C31.0073 44.1084 30.4289 44.1517 29.8681 44.0671C29.3684 43.9924 29.0989 43.5497 28.9198 43.1168C28.8274 42.8926 28.8726 42.6092 28.8726 42.3515C28.8706 37.7024 28.8726 33.0534 28.8726 28.4043V24.2785L28.8647 24.2766Z" fill="black"/>
<path d="M47.3508 32.9353C47.3508 31.7568 47.3606 30.5783 47.3429 29.3998C47.339 29.0949 47.4354 28.9985 47.7285 29.028C47.9548 29.0496 48.1869 29.0181 48.4151 29.0378C48.5312 29.0476 48.667 29.0909 48.7496 29.1657C48.8952 29.2975 48.9857 29.5454 49.1451 29.5946C49.2474 29.6261 49.4146 29.3526 49.5799 29.268C50.6679 28.7112 51.811 28.6955 52.9501 29.0496C53.259 29.146 53.5187 29.4333 53.7725 29.6615C54.046 29.9074 54.286 29.8996 54.5162 29.63C55.0513 29.0004 55.8206 28.9375 56.5486 28.8529C57.1054 28.7879 57.672 28.7978 58.2406 29.0122C58.8623 29.2464 59.2971 29.5828 59.6237 30.1691C59.9857 30.8223 60.1726 31.4656 60.147 32.2192C60.0998 33.6259 60.1293 35.0346 60.1372 36.4433C60.1372 36.7305 60.1726 36.9666 59.7398 36.9037C59.2971 36.8387 58.8426 36.8486 58.394 36.825C58.3842 36.4039 58.3665 35.9809 58.3665 35.5599C58.3626 34.3814 58.337 33.2009 58.3763 32.0244C58.398 31.3299 58.0183 30.8931 57.5539 30.5016C57.432 30.3993 57.19 30.4465 57.009 30.4052C56.0705 30.1907 55.437 30.6826 54.9667 31.3771C54.7385 31.7155 54.6106 32.1483 54.6205 32.6068C54.6441 33.9151 54.6185 35.2254 54.6362 36.5358C54.6402 36.8564 54.5182 36.9194 54.2408 36.8958C53.7922 36.8604 53.3416 36.8486 52.8931 36.8269C52.8813 36.4059 52.8636 35.9849 52.8616 35.5638C52.8576 34.4503 52.8754 33.3367 52.8517 32.2251C52.8439 31.8572 52.8183 31.442 52.6432 31.139C52.3914 30.7082 52.0431 30.2812 51.4096 30.4032C51.0378 30.474 50.6639 30.3344 50.2744 30.5134C49.4913 30.8734 49.1785 31.5404 49.1431 32.29C49.0762 33.6948 49.1156 35.1054 49.1293 36.5121C49.1313 36.8014 49.0644 36.9214 48.7555 36.8958C48.305 36.8584 47.8525 36.8565 47.3999 36.8407C47.3842 36.4216 47.3567 36.0026 47.3547 35.5835C47.3468 34.7001 47.3527 33.8148 47.3527 32.9314L47.3508 32.9353Z" fill="black"/>
<path d="M91.7975 33.0061C91.7975 34.1846 91.7857 35.3611 91.8053 36.5397C91.8112 36.8623 91.6873 36.9253 91.4079 36.8997C91.1797 36.88 90.9495 36.882 90.7213 36.8997C90.3908 36.9233 90.1783 36.8997 90.2019 36.4511C90.2156 36.1993 89.9815 36.1698 89.6864 36.3016C89.1906 36.5259 88.7873 36.8643 88.1695 36.9351C87.1031 37.0591 86.5975 37.1909 85.783 36.8741C84.3113 36.2996 83.6326 35.6189 83.2214 34.0725C82.9164 32.9274 83.0522 31.7017 83.725 30.6098C84.3054 29.6693 85.1849 29.0889 86.1844 28.8863C87.3943 28.6423 88.6319 28.8017 89.6903 29.5828C89.7808 29.6497 89.9028 29.7834 89.9618 29.7618C90.0681 29.7224 90.2176 29.5749 90.2078 29.4923C90.1507 29.0732 90.3494 28.9925 90.7055 29.0299C91.0557 29.0673 91.4079 29.0752 91.7581 29.0968C91.7699 29.4195 91.7896 29.7421 91.7916 30.0628C91.7955 31.0446 91.7916 32.0263 91.7916 33.0061H91.7975ZM87.4475 30.4071C87.3825 30.4071 87.3156 30.415 87.2527 30.4071C86.6133 30.3146 86.025 30.5803 85.6571 30.9974C85.2537 31.4558 84.7717 31.983 84.9075 32.7307C84.9468 32.951 84.9213 33.1852 84.9114 33.4134C84.8957 33.8088 85.0019 34.1492 85.2951 34.4286C85.5548 34.6765 85.7909 34.948 86.0604 35.1821C86.2178 35.3198 86.4165 35.4969 86.6034 35.5048C87.6147 35.5422 88.6338 35.6327 89.3972 34.6942C89.9815 33.9741 90.2491 33.1222 89.9855 32.3254C89.6215 31.2236 88.8207 30.1946 87.4475 30.4091V30.4071Z" fill="black"/>
<path d="M70.7537 32.953C70.7537 34.1315 70.7321 35.31 70.7655 36.4865C70.7773 36.88 70.6318 36.9332 70.315 36.8958C70.1537 36.8781 69.9884 36.8958 69.8251 36.8918C69.6323 36.8859 69.3805 36.941 69.2663 36.8426C69.1601 36.7502 69.1995 36.4885 69.1817 36.3016C69.1562 36.0517 68.9712 36.0458 68.8512 36.156C68.4026 36.5652 67.8577 36.7305 67.2989 36.9272C66.085 37.3522 64.5641 36.9941 63.6316 36.156C63.2066 35.7743 62.7462 35.3966 62.5259 34.8496C62.3449 34.401 62.158 33.9269 62.1245 33.4527C62.093 32.9983 61.9199 32.4828 62.2976 32.0637C62.1855 31.2669 62.762 30.7337 63.1102 30.1455C63.4584 29.5552 64.1825 29.2995 64.7904 29.0594C65.7761 28.6699 66.8424 28.7151 67.8517 29.0496C68.1901 29.1617 68.4558 29.4805 68.7646 29.691C68.8571 29.7539 68.985 29.7677 69.0971 29.8031C69.1247 29.7166 69.166 29.632 69.1778 29.5434C69.2447 29.0397 69.2408 29.0338 69.709 29.0338C70.0336 29.0338 70.3563 29.0496 70.6809 29.0575C70.7045 29.4077 70.7478 29.7579 70.7498 30.1081C70.7596 31.0564 70.7537 32.0067 70.7537 32.955V32.953ZM66.4352 30.4425C65.7171 30.2615 65.1563 30.5448 64.6724 31.0761C64.1962 31.5974 63.8559 32.1562 63.8677 32.8959C63.8991 34.6037 65.2488 35.5854 66.5119 35.5441C67.2458 35.5205 67.7652 35.2746 68.2649 34.7808C68.7705 34.281 68.9752 33.7439 69.0165 33.0219C69.0617 32.2231 68.7883 31.5482 68.3062 31.0721C67.8557 30.6255 67.2281 30.171 66.4352 30.4406V30.4425Z" fill="black"/>
<path d="M73.3114 32.9904C73.3114 31.7804 73.3173 30.5705 73.3074 29.3605C73.3055 29.1146 73.3645 29.0024 73.6301 29.028C73.8564 29.0496 74.0885 29.03 74.3167 29.0319C74.8106 29.0359 74.8165 29.0359 74.8834 29.6005C74.9207 29.9212 75.0152 29.6989 75.1509 29.6674C75.5484 29.5749 75.753 29.0811 76.2232 29.1696C76.8311 28.6561 77.5591 28.8745 78.2438 28.8371C78.7238 28.8116 79.1193 29.0949 79.558 29.211C80.404 29.4372 80.7129 30.1101 80.9588 30.7948C81.0887 31.1568 81.2107 31.5463 81.1969 31.9811C81.1477 33.4843 81.1733 34.9894 81.1831 36.4945C81.1831 36.7542 81.1753 36.9293 80.8329 36.8997C80.3824 36.8624 79.9259 36.8722 79.4734 36.8604C79.4518 36.4118 79.4164 35.9632 79.4105 35.5147C79.4006 34.5014 79.3927 33.4862 79.4124 32.473C79.4223 31.9556 79.255 31.5227 79.0524 31.0486C78.893 30.6708 78.6038 30.5331 78.3736 30.4898C77.7637 30.3757 77.1538 30.3285 76.5104 30.5783C75.6979 30.8931 75.4775 31.5011 75.2631 32.229C74.9148 33.4075 75.1608 34.5998 75.0801 35.7822C75.0565 36.1344 75.1804 36.6184 74.9955 36.8053C74.8145 36.9903 74.3285 36.8781 73.9744 36.8938C73.8445 36.8997 73.7127 36.886 73.5829 36.8978C73.3724 36.9155 73.3035 36.8309 73.3055 36.6223C73.3133 35.4124 73.3094 34.2024 73.3094 32.9924L73.3114 32.9904Z" fill="black"/>
<path d="M107.185 28.8352C107.864 28.7033 108.572 28.9886 109.257 29.4175C109.8 29.7579 110.154 30.3422 110.079 30.958C110.069 31.0446 109.949 31.1744 109.87 31.1823C109.611 31.2118 109.347 31.1941 109.085 31.1922C108.59 31.1922 108.588 31.1922 108.125 30.7023C107.547 30.0884 106.64 30.0018 105.914 30.5488C105.29 31.019 105.489 31.5974 106.059 31.9575C106.305 32.111 106.654 32.1759 106.949 32.1601C107.69 32.1228 108.359 32.3844 109.048 32.5713C110.63 32.9983 110.899 34.9146 109.957 35.9849C109.333 36.6951 108.529 36.9312 107.74 37.0492C106.726 37.2027 105.694 37.1338 104.71 36.5731C103.939 36.1344 103.687 35.4635 103.411 34.7473C103.394 34.7001 103.492 34.5447 103.539 34.5427C104.031 34.527 104.523 34.5132 105.013 34.5467C105.139 34.5545 105.276 34.7198 105.367 34.8437C105.865 35.5343 106.583 35.7822 107.395 35.5638C107.755 35.4674 108.147 35.5284 108.409 35.1448C108.717 34.6903 108.67 34.1945 108.174 33.9525C107.797 33.7675 107.378 33.6003 106.964 33.5669C106.335 33.5177 105.739 33.3859 105.164 33.1517C104.214 32.7641 103.702 32.4887 103.799 31.3476C103.824 31.0328 103.807 30.7003 103.905 30.4071C104.265 29.3428 105.196 29.0437 106.16 28.8391C106.441 28.7781 106.748 28.8293 107.189 28.8293L107.185 28.8352Z" fill="black"/>
<path d="M94.1564 31.7391C94.1564 30.9541 94.1583 30.1691 94.1564 29.3821C94.1564 29.1716 94.1465 28.9984 94.4534 29.024C94.9335 29.0653 95.4155 29.0752 95.8975 29.0968C95.9074 29.5513 95.9251 30.0038 95.9271 30.4583C95.931 31.505 95.9015 32.5536 95.9369 33.6003C95.9644 34.3873 96.2241 35.1113 97.0642 35.3611C98.3332 35.7389 99.3327 35.6209 99.9328 34.3518C100.021 34.163 100.049 33.9288 100.051 33.7164C100.061 32.2762 100.065 30.836 100.051 29.3978C100.047 29.0929 100.143 29.0024 100.436 29.026C100.885 29.0614 101.338 29.0693 101.788 29.087C101.802 29.506 101.825 29.9271 101.827 30.3461C101.833 31.4577 101.792 32.5733 101.841 33.6829C101.877 34.4719 101.556 35.1428 101.216 35.7841C100.92 36.3409 100.287 36.638 99.7282 36.8702C98.8704 37.2243 97.1567 37.2204 96.2733 36.8761C95.3604 36.5219 94.6895 35.8432 94.361 34.8949C94.2193 34.4837 94.119 34.0587 94.1485 33.6042C94.1878 32.9845 94.1583 32.3608 94.1583 31.7391H94.1564Z" fill="black"/>
<path d="M91.7974 44.9545C91.7974 43.778 91.7974 42.6014 91.7993 41.4249C91.7993 41.3029 91.8328 41.0766 91.8603 41.0747C92.2754 41.0511 92.6906 41.053 93.1057 41.0668C93.1313 41.0668 93.1687 41.234 93.1687 41.3226C93.1746 42.0741 93.1687 42.8257 93.1746 43.5773C93.1746 43.6324 93.2179 43.6894 93.2395 43.7445C93.2867 43.7189 93.3477 43.7032 93.3753 43.6638C93.7727 43.1307 94.4436 43.2428 94.9669 43.0008C95.2266 42.8808 96.7199 43.3904 97.0524 43.6245C97.562 43.9826 97.8197 44.5413 98.0637 45.0706C98.2014 45.3677 98.1148 45.7808 98.0814 46.1369C98.046 46.5048 98.0991 46.8511 97.924 47.2466C97.4833 48.2441 96.4838 49.035 95.445 49.094C94.6934 49.1353 94.0127 48.9956 93.389 48.6002C93.1215 48.431 92.9759 48.4015 92.9778 48.7812C92.606 48.8048 92.2341 48.8343 91.8623 48.8363C91.8406 48.8363 91.8013 48.608 91.8013 48.4861C91.7974 47.3095 91.7993 46.133 91.7993 44.9565L91.7974 44.9545ZM93.1824 45.9933C93.1195 46.5442 93.1942 47.0479 93.6153 47.4689C94.0088 47.8604 94.542 48.0099 95.02 48.0572C95.3781 48.0926 95.8503 47.945 96.171 47.5771C96.5468 47.1462 96.9383 46.7704 96.9186 46.1212C96.8812 44.9525 96.1356 44.1872 95.0082 44.1577C94.4121 44.1419 94.0265 44.443 93.6015 44.7932C93.1883 45.1335 93.1313 45.525 93.1805 45.9933H93.1824Z" fill="black"/>
<path d="M77.0476 44.9545C77.0476 43.778 77.0476 42.6014 77.0496 41.4229C77.0496 41.301 77.083 41.0747 77.1106 41.0727C77.5257 41.0491 77.9408 41.0511 78.356 41.0649C78.3815 41.0649 78.4189 41.2321 78.4189 41.3206C78.4248 41.9423 78.4189 42.5621 78.4229 43.1838C78.4268 43.6186 78.4229 43.597 78.899 43.4042C79.32 43.235 79.7568 43.052 80.1995 43.0028C80.7877 42.9379 81.3858 43.1504 81.8718 43.4317C82.342 43.7052 82.6332 44.1892 82.7768 44.805C83.0778 46.0897 82.8634 47.3725 82.9362 48.6533C82.9401 48.7241 82.8044 48.8638 82.7237 48.8697C82.4325 48.8953 82.1354 48.8697 81.8423 48.8835C81.6318 48.8933 81.5649 48.8107 81.5668 48.6041C81.5747 47.6243 81.5727 46.6426 81.5708 45.6628C81.5668 44.5886 81.1576 44.1675 80.1168 44.1636C79.0367 44.1597 78.4288 44.7578 78.4248 45.834C78.4209 46.6504 78.4248 47.4689 78.4248 48.2854C78.4248 48.8776 78.4209 48.8776 77.7854 48.8796C77.752 48.8796 77.7205 48.8796 77.687 48.8796C77.0535 48.8776 77.0496 48.8776 77.0496 48.2834C77.0476 47.1718 77.0496 46.0602 77.0496 44.9486L77.0476 44.9545Z" fill="black"/>
<path d="M55.1733 49.0822C54.0027 49.1176 53.1291 48.8304 52.4996 48.0257C52.1395 47.5633 51.7972 47.0636 51.8759 46.4262C51.9329 45.9618 51.8228 45.5152 52.0412 45.0253C52.474 44.0495 53.3102 43.416 54.3057 43.1484C55.1005 42.9359 55.74 43.1543 56.4227 43.3845C57.2667 43.6678 57.6287 44.3958 57.9651 45.1355C58.0281 45.2732 58.0714 45.4228 58.0911 45.5723C58.1284 45.8556 58.2189 46.1684 58.1304 46.4124C58.0911 46.5226 57.672 46.5206 57.4241 46.5226C56.1177 46.5324 54.8094 46.5245 53.503 46.5285C53.017 46.5285 53.0072 46.5462 53.261 47.0282C53.6387 47.7483 54.2585 48.0631 55.0533 48.1044C55.4586 48.126 55.8403 48.0336 56.0665 47.7227C56.5053 47.1128 57.1172 47.3646 57.67 47.3253C57.6995 47.3233 57.792 47.526 57.7645 47.5555C57.127 48.2992 56.4935 49.0606 55.3897 49.0822C55.2599 49.0842 55.1281 49.0822 55.1714 49.0822H55.1733ZM54.8212 45.5428C55.4094 45.5428 55.9957 45.5428 56.584 45.5428C56.7315 45.5428 56.7807 45.5329 56.7001 45.3382C56.5073 44.8699 56.1433 44.5473 55.7734 44.2679C55.5412 44.0928 55.0868 43.959 54.8723 44.0731C54.5378 44.2502 54.0696 43.955 53.8374 44.4449C53.68 44.7755 53.3967 45.0489 53.1567 45.3382C53.0229 45.4995 53.0898 45.5428 53.2551 45.5428C53.7764 45.5447 54.2998 45.5428 54.8212 45.5428Z" fill="black"/>
<path d="M67.0175 44.9722C67.0175 43.7937 67.0372 42.6132 67.0057 41.4347C66.9958 41.0589 67.1178 40.9743 67.4483 41.0176C67.6097 41.0393 67.7769 41.0294 67.9382 41.0176C68.1625 41.0019 68.2019 41.114 68.1999 41.3108C68.1901 42.0643 68.196 42.8178 68.196 43.5714C68.196 43.7425 68.2314 43.7721 68.4045 43.6717C68.8236 43.4277 69.2191 43.1602 69.7404 43.0893C70.2933 43.0126 71.3636 43.1838 71.8161 43.5556C72.4437 44.0731 72.7467 44.7204 72.7231 45.5408C72.6995 46.3907 72.7191 47.2446 72.7172 48.0945C72.7172 48.6257 72.4365 48.8881 71.8751 48.8815C71.3478 48.8756 71.3439 48.8756 71.3419 48.3759C71.338 47.3941 71.3419 46.4104 71.3419 45.4286C71.3419 44.7814 71.098 44.4331 70.5097 44.2187C69.6755 43.9137 68.7115 44.441 68.3731 45.289C68.2235 45.6647 68.1979 46.0189 68.196 46.3947C68.192 47.1147 68.1861 47.8368 68.1999 48.5569C68.2039 48.8048 68.1389 48.9169 67.8753 48.8894C67.6805 48.8697 67.4818 48.8756 67.287 48.8894C67.0745 48.9032 67.0116 48.8146 67.0116 48.608C67.0194 47.3961 67.0155 46.1841 67.0155 44.9722H67.0175Z" fill="black"/>
<path d="M88.8463 45.0863C88.8463 44.5296 88.8384 43.9747 88.8561 43.418C88.8581 43.3373 88.986 43.2035 89.0646 43.1956C89.3558 43.1681 89.6529 43.1956 89.948 43.1819C90.1566 43.172 90.2294 43.2488 90.2274 43.4593C90.2195 44.4725 90.2668 45.4897 90.2058 46.5009C90.1763 47.0085 90.0503 47.5555 89.8024 47.9923C89.527 48.4802 89.0174 48.793 88.4626 48.978C88.376 49.0075 88.2934 49.0842 88.2127 49.0783C87.4868 49.0271 86.7352 49.2436 86.0348 48.8894C85.9344 48.8383 85.1455 48.4015 85.112 48.3444C84.8523 47.8959 84.5376 47.4591 84.5277 46.92C84.5061 45.775 84.5238 44.6299 84.5179 43.4848C84.5179 43.2979 84.5356 43.1701 84.7697 43.1819C84.9979 43.1937 85.2281 43.1937 85.4564 43.1819C85.6924 43.1701 85.7043 43.3058 85.7043 43.4888C85.6983 44.4056 85.6826 45.3205 85.7082 46.2373C85.7239 46.7784 85.8951 47.2702 86.326 47.6499C86.7667 48.0395 87.593 48.2048 88.1144 47.8939C88.5925 47.6086 88.8758 47.162 88.8522 46.56C88.8325 46.0701 88.8482 45.5782 88.8482 45.0883L88.8463 45.0863Z" fill="black"/>
<path d="M62.4549 49.1235C61.1465 49.1688 60.2612 48.4998 59.6099 47.4669C59.1377 46.7193 59.2755 45.0627 59.8559 44.3584C60.1451 44.0062 60.4461 43.6048 60.8337 43.4081C61.3137 43.1681 61.904 42.9674 62.4194 43.0185C63.535 43.1287 64.621 43.4219 65.1798 44.5866C65.4513 45.1532 65.467 45.1257 64.8827 45.1571C64.4046 45.1827 64.0072 45.1158 63.6944 44.6909C63.2871 44.136 62.626 44.0121 62.0633 44.201C61.4692 44.4016 60.7491 44.6554 60.7235 45.5152C60.2631 46.0169 60.6802 46.5285 60.7491 47.0144C60.7983 47.3548 61.8686 48.1083 62.2365 48.0788C62.8149 48.0355 63.3796 47.8624 63.834 47.4492C63.9718 47.3233 64.1272 47.1423 64.2846 47.1305C64.6623 47.1069 65.046 47.1679 65.4277 47.1954C65.2073 47.5574 65.0539 47.9942 64.7509 48.2618C64.3967 48.5746 63.9285 48.7851 63.4799 48.9602C63.1651 49.0822 62.7992 49.0724 62.4549 49.1235Z" fill="black"/>
<path d="M47.3509 45.8969C47.3509 45.6353 47.3548 45.3736 47.3509 45.1099C47.347 44.8837 47.4158 44.5886 47.2997 44.4548C47.1935 44.3328 46.8826 44.3544 46.6662 44.3722C46.3613 44.3958 46.3711 44.2246 46.3672 44.0121C46.3573 43.3078 46.3573 43.2861 47.0912 43.1917C47.3037 43.1641 47.3411 43.0933 47.3627 42.8985C47.3922 42.627 47.5044 42.3654 47.5457 42.0939C47.5988 41.7476 47.7837 41.6059 48.1241 41.6079C48.37 41.6079 48.5569 41.5922 48.5451 41.9483C48.5314 42.3595 48.6002 42.7726 48.6337 43.1838C49.0272 43.1838 49.4206 43.1838 49.8141 43.1838C50.5165 43.1858 50.4988 43.1878 50.5106 43.9275C50.5165 44.2502 50.4791 44.3958 50.0935 44.3761C49.5839 44.3485 49.0685 44.4154 48.555 44.443C48.5491 44.9644 48.5412 45.4857 48.5373 46.0071C48.5353 46.3337 48.4664 46.6839 48.5569 46.983C48.6415 47.2643 48.8934 47.4965 49.0744 47.7483C49.2672 48.0159 49.5544 47.89 49.7984 47.8939C50.7684 47.9155 50.7743 47.9077 50.6916 48.8225C50.6837 48.913 50.5755 49.0606 50.5027 49.0685C49.7709 49.1373 49.0488 49.0507 48.3582 48.7969C47.8565 48.614 47.3765 47.8624 47.3588 47.2682C47.345 46.8098 47.3568 46.3514 47.3568 45.893L47.3509 45.8969Z" fill="black"/>
<path d="M32.4042 47.4138C32.4003 48.7458 31.8317 49.2829 30.5706 49.279C29.4983 49.275 28.8687 48.6278 28.8628 47.524C28.8569 46.5659 29.6951 45.7553 30.6552 45.7317C31.1942 45.7179 31.694 45.9442 31.9714 46.2747C32.2272 46.5796 32.7544 46.9712 32.4023 47.4138H32.4042Z" fill="black"/>
<path d="M4.28339 11.6554C4.34044 12.1689 3.94302 12.4994 3.6302 12.8988C3.32524 13.2864 2.86289 13.2805 2.49891 13.5028C2.11329 13.188 1.57421 13.3258 1.15515 12.9067C0.763625 12.5132 0.879704 12.0076 0.568848 11.6574C0.917086 11.3819 0.58262 10.8625 0.999719 10.5694C1.42862 10.2664 1.7198 9.77255 2.33955 9.76468C3.27015 9.75091 4.26175 10.6697 4.28536 11.6574L4.28339 11.6554Z" fill="black"/>
<path d="M25.3095 12.464C25.402 13.0444 25.2091 13.5028 24.8157 13.9278C24.493 14.276 24.0562 14.4609 23.6745 14.4472C23.2201 14.4314 22.6672 14.2957 22.3504 13.9337C22.0416 13.5815 21.774 13.1447 21.7799 12.6135C21.7917 11.7341 22.7577 10.6894 23.5781 10.7621C24.1015 10.8094 24.5678 11.0238 24.9632 11.4409C25.2662 11.7596 25.3862 12.0646 25.3075 12.464H25.3095Z" fill="black"/>
</g>
<defs>
<clipPath id="clip0_5183_3845">
<rect width="110" height="48.8006" fill="white" transform="translate(0.5 0.5)"/>
</clipPath>
</defs>
</svg>
