<svg width="206" height="50" viewBox="0 0 206 50" fill="none" xmlns="http://www.w3.org/2000/svg"  preserveAspectRatio="xMinYMin">
<path fill-rule="evenodd" clip-rule="evenodd" d="M31.5992 8H15.6396C14.6913 8 13.7823 8.37723 13.1127 9.04722L8.80788 13.3551H0.51056C0.228938 13.3551 0 13.5836 0 13.8658V18.1996C0 18.4818 0.228938 18.7102 0.51056 18.7102H4.08831C4.90061 18.7102 5.68034 18.3877 6.25412 17.8127L10.7084 13.3551H31.5992C31.8808 13.3551 32.1097 13.1267 32.1097 12.8445V8.51065C32.1097 8.22845 31.8818 8 31.5992 8ZM15.6396 18.7103H31.5992C31.8808 18.7103 32.1097 18.9388 32.1097 19.221V23.5548C32.1097 23.837 31.8808 24.0654 31.5992 24.0654H10.7084L6.25412 28.5231C5.68034 29.098 4.90061 29.4206 4.08831 29.4206H0.51056C0.228938 29.4206 0 29.1921 0 28.9099V24.5761C0 24.2939 0.228938 24.0654 0.51056 24.0654H8.80788L13.1127 19.7576C13.7823 19.0876 14.6913 18.7103 15.6396 18.7103ZM15.6396 29.4213H31.5992C31.8808 29.4213 32.1097 29.6498 32.1097 29.932V34.2658C32.1097 34.548 31.8808 34.7764 31.5992 34.7764H10.7084L6.25412 39.2341C5.68034 39.809 4.90061 40.1316 4.08831 40.1316H0.51056C0.228938 40.1316 0 39.9031 0 39.6209V35.2871C0 35.0049 0.228938 34.7764 0.51056 34.7764H8.80788L13.1127 30.4686C13.7823 29.7986 14.6913 29.4213 15.6396 29.4213ZM40.0163 8V34.7765H44.4255V24.3034H51.0407C53.0427 24.3034 54.7536 23.9597 56.1741 23.2725C57.5947 22.5852 58.657 21.6234 59.361 20.3852C60.0651 19.1479 60.4176 17.6985 60.4176 16.0773C60.4176 14.4561 60.0622 13.0383 59.3524 11.8251C58.6417 10.6128 57.5861 9.67113 56.1837 9.00306C54.7813 8.33403 53.0676 8 51.0417 8H40.0163ZM53.5619 20.0137C52.7707 20.3727 51.8071 20.5522 50.671 20.5522V20.5532H44.4264V11.7512H50.671C51.7956 11.7512 52.7592 11.9182 53.5619 12.2522C54.3656 12.5863 54.9739 13.0787 55.3877 13.7285C55.8015 14.3783 56.0084 15.1366 56.0084 16.0773C56.0084 17.018 55.7977 17.8195 55.3781 18.4818C54.9576 19.1441 54.3522 19.6547 53.5619 20.0137ZM67.8423 35.1479C66.5453 35.1479 65.3987 34.8849 64.4044 34.3589C63.4101 33.8329 62.6409 33.0938 62.0978 32.1397C61.5537 31.1865 61.2826 30.0846 61.2826 28.8348C61.2826 27.659 61.5795 26.6195 62.1725 25.7153C62.7654 24.812 63.6151 24.1181 64.7205 23.6352C65.8259 23.1524 67.1325 22.9115 68.6402 22.9115H72.4392C73.1433 22.9115 73.6749 22.7598 74.0332 22.4565C74.3914 22.1532 74.5706 21.6675 74.5706 20.9985C74.5706 20.3669 74.4039 19.8102 74.0705 19.3274C73.7372 18.8445 73.2515 18.4635 72.6155 18.1851C71.9795 17.9067 71.216 17.7676 70.3271 17.7676C69.5244 17.7676 68.7705 17.8789 68.0664 18.1016C67.3624 18.3243 66.7168 18.6247 66.1296 19.002C65.5424 19.3801 64.9964 19.8351 64.4896 20.3669L62.1543 17.3587C62.7597 16.6656 63.4762 16.0715 64.3038 15.5762C65.1314 15.0809 66.0577 14.7037 67.0836 14.4435C68.1086 14.1834 69.2083 14.0538 70.3817 14.0538C72.0982 14.0538 73.5935 14.36 74.8666 14.9734C76.1387 15.5858 77.1119 16.4401 77.7853 17.5362C78.4587 18.6314 78.7949 19.8735 78.7949 21.2596V34.7774H74.5696V31.1932H74.1807C73.6989 32.444 72.9086 33.4153 71.809 34.1084C70.7093 34.8014 69.3874 35.1479 67.8432 35.1479H67.8423ZM69.0464 31.7125C70.2073 31.7125 71.2055 31.4524 72.0388 30.9322C72.8732 30.4119 73.5025 29.716 73.9288 28.8435C74.355 27.971 74.5677 27.0082 74.5677 25.9562V25.6961C74.1232 25.8813 73.3751 25.9744 72.3253 25.9744H68.8787C67.8413 25.9744 67.0127 26.2154 66.3959 26.6982C65.778 27.181 65.4696 27.874 65.4696 28.7782C65.4696 29.3474 65.6085 29.8552 65.8863 30.3006C66.164 30.7459 66.5721 31.0925 67.1095 31.3401C67.6469 31.5878 68.2925 31.7116 69.0464 31.7116V31.7125ZM85.8745 33.8847C87.3995 34.7764 89.1697 35.2218 91.1832 35.2218L91.1842 35.2237C92.53 35.2237 93.7437 35.0289 94.8251 34.6392C95.9066 34.2495 96.8415 33.7139 97.6328 33.0333C98.423 32.3528 99.0715 31.5609 99.5783 30.6567L96.5388 28.2608C96.1432 28.9164 95.7045 29.4799 95.2227 29.9502C94.7409 30.4205 94.1881 30.7795 93.5646 31.0272C92.941 31.2748 92.2455 31.3987 91.4802 31.3987C90.2445 31.3987 89.1697 31.1078 88.2559 30.5261C87.3411 29.9445 86.6437 29.1362 86.1619 28.1025C85.6801 27.0687 85.4397 25.9514 85.4397 24.6018C85.4397 23.2523 85.6868 22.0707 86.1811 21.0551C86.6753 20.0405 87.3727 19.2573 88.275 18.7063C89.1764 18.1554 90.2148 17.8799 91.3882 17.8799C92.1536 17.8799 92.8519 18.0133 93.4822 18.2792C94.1125 18.5451 94.6709 18.9232 95.1595 19.4118C95.647 19.9004 96.0704 20.4917 96.4287 21.1847L99.5236 18.882C98.9796 17.9039 98.2918 17.0525 97.4575 16.3287C96.6231 15.604 95.6652 15.0444 94.5847 14.648C93.5042 14.2516 92.3461 14.0538 91.1104 14.0538C89.2195 14.0538 87.5087 14.4867 85.977 15.3535C84.4444 16.2193 83.2432 17.4546 82.3725 19.0576C81.5017 20.6616 81.0659 22.589 81.0659 24.6565C81.0659 26.7241 81.4855 28.5555 82.3255 30.1527C83.1656 31.749 84.3486 32.993 85.8745 33.8847ZM111.023 35.2219C109.021 35.2219 107.254 34.8005 105.722 33.9596C104.191 33.1178 102.995 31.9017 102.137 30.3112C101.278 28.7207 100.849 26.8297 100.849 24.6384C100.849 22.447 101.253 20.6492 102.062 19.0586C102.872 17.4681 104.011 16.2395 105.481 15.3728C106.951 14.506 108.65 14.0731 110.577 14.0731C112.504 14.0731 114.046 14.482 115.423 15.2988C116.801 16.1157 117.863 17.2733 118.61 18.7716C119.357 20.27 119.731 22.015 119.731 24.0077C119.731 24.2803 119.718 24.5616 119.693 24.8524C119.669 25.1433 119.638 25.4811 119.601 25.8641H105.165C105.337 27.1023 105.712 28.1361 106.286 28.9655C106.86 29.7948 107.589 30.4081 108.473 30.8036C109.356 31.2 110.365 31.3978 111.502 31.3978C112.75 31.3978 113.844 31.1875 114.782 30.7662C115.721 30.3457 116.549 29.7881 117.265 29.095L119.285 32.3077C118.705 32.8769 118.019 33.3818 117.229 33.8214C116.438 34.261 115.521 34.6047 114.477 34.8523C113.433 35.1 112.281 35.2238 111.021 35.2238L111.023 35.2219ZM115.414 22.5583C115.352 21.4814 115.127 20.5532 114.738 19.7728C114.349 18.9924 113.796 18.3983 113.08 17.9903C112.364 17.5814 111.505 17.3779 110.504 17.3779C109.59 17.3779 108.759 17.5632 108.012 17.9346C107.265 18.3061 106.64 18.8792 106.14 19.6518C105.64 20.4255 105.315 21.394 105.167 22.5583H115.414ZM131.343 26.3459L135.476 14.4992V14.4983H139.997L132.328 34.7409L126.201 41.3746C125.801 41.7748 125.262 41.9985 124.696 41.9985H120.177C119.981 41.9985 119.823 41.8391 119.823 41.6433V38.6303C119.823 38.4345 119.982 38.2742 120.177 38.2742H127.138C127.356 38.2742 127.478 38.1646 127.569 38.082C127.576 38.0755 127.583 38.0691 127.59 38.063C127.745 37.9267 127.822 37.6983 127.822 37.3758L127.836 34.7764L119.892 14.4992H124.377L128.62 26.3459C128.904 27.1503 129.145 27.9796 129.342 28.8339C129.54 29.6872 129.688 30.4493 129.787 31.1174H130.176C130.287 30.4493 130.438 29.6882 130.63 28.8339C130.821 27.9796 131.059 27.1503 131.343 26.3459Z" fill="#231F20"/>
</svg>
