<svg width="101" height="36" viewBox="0 0 101 36" fill="none" xmlns="http://www.w3.org/2000/svg">
<path fill-rule="evenodd" clip-rule="evenodd" d="M65.9167 8.00684H65.8697L63.4026 12.1717H66.3465L65.9167 8.00684Z" fill="black"/>
<path fill-rule="evenodd" clip-rule="evenodd" d="M52.1578 21.8813L49.6907 26.0462H52.631L52.2048 21.8813H52.1578Z" fill="black"/>
<path fill-rule="evenodd" clip-rule="evenodd" d="M100.5 6.4392V0.475464H0.5V6.42475H7.51488V7.15802H0.5V12.0778H7.51488V12.7894H0.5V17.7092H7.51488V18.3992H0.5V23.3623H7.51488V24.0306H0.5V28.9721H7.51488V29.6837H0.5V35.5246H100.5V29.7017H93.3298V29.0335H100.5V24.092H93.3298V23.3804H100.5V18.4606H93.3298V17.7273H100.5V12.8075H93.3298V12.0959H100.5V7.17608H93.3298V6.44281H100.5V6.4392ZM73.8637 6.05269H76.9124L74.5681 16.0693H71.5194L73.8637 6.05269ZM68.3587 6.05269L70.3598 16.0693H66.9138L66.6393 14.1115H62.171L60.997 16.0693H57.9483L64.6417 6.05269H68.3623H68.3587ZM38.3125 6.05269H46.7L46.2448 7.99605H40.906L40.422 10.0622H45.331L44.8758 12.0056H39.9632L39.4647 14.1296H44.8036L44.3484 16.0729H35.9609L38.3052 6.0563L38.3125 6.05269ZM25.3086 12.8797H28.3572C28.1225 13.8225 28.7618 14.3355 29.8599 14.3355C30.5607 14.3355 31.5396 14.0031 31.6949 13.3385C32.0128 11.9767 29.6865 12.2693 27.5192 11.312C26.5114 10.8677 26.1755 9.95386 26.4283 8.8702C27.1074 6.49699 29.5457 5.8468 31.8502 5.8468C34.1548 5.8468 36.2824 6.58368 35.5347 8.99663H32.486C32.5907 8.60651 32.5221 8.31754 32.2982 8.10803C32.0886 7.89852 31.7166 7.79016 31.2 7.79016C30.4993 7.79016 29.7913 8.20556 29.6757 8.70766C29.5023 9.44093 30.4234 9.67934 31.1856 9.87439C32.9303 10.3042 35.5744 10.4704 34.9423 13.1759C34.4474 15.2855 31.9261 16.2824 29.3795 16.2824C26.8329 16.2824 24.7198 15.6033 25.3122 12.8834M19.7711 21.661C18.0191 21.661 17.257 23.5357 16.9066 25.0348C16.5634 26.4905 16.5129 28.2135 18.2359 28.2135C19.5182 28.2135 20.3707 27.7006 20.656 26.7433H23.8565C23.311 29.2683 20.4502 30.1569 17.7807 30.1569C14.3492 30.1569 12.944 28.2821 13.7279 24.9264C14.5117 21.5671 16.7838 19.7501 20.2226 19.7248C22.892 19.7248 25.3483 20.5557 24.7125 23.0842H21.5121C21.6458 22.1811 21.0209 21.6682 19.7674 21.6682M24.7739 29.9437L27.1183 19.9271H30.167L27.8226 29.9437H24.7739ZM40.2811 29.9437L42.2425 21.5635L42.2172 21.5346L37.6695 29.9437H34.9242L34.4835 21.4659L34.4474 21.4948L32.4679 29.9437H29.7985L32.1428 19.9271H36.9759L37.1855 26.7108H37.2143L40.5412 19.9271H45.284L42.9397 29.9437H40.2703H40.2811ZM53.1983 29.9437L52.9238 27.9859H48.4555L47.2815 29.9437H44.2328L50.9262 19.9271H54.6468L56.648 29.9437H53.2019H53.1983ZM52.5915 16.0693L50.6517 8.39701H50.6228L48.8276 16.0693H46.0823L48.4266 6.05269H52.6962L54.6396 13.5191L54.6757 13.4902L56.4168 6.05269H59.162L56.8177 16.0693H52.5951H52.5915ZM62.2288 29.9437H59.1801L61.0693 21.8669H57.6991L58.1542 19.9235H68.0228L67.5676 21.8669H64.1216L62.2324 29.9437H62.2288ZM77.158 21.8705H71.8192L71.3351 23.9367H76.2441L75.789 25.88H70.88L70.3815 28.004H75.7204L75.2652 29.9474H66.8777L69.222 19.9307H77.6095L77.1544 21.8741L77.158 21.8705ZM88.8326 23.077H85.6286C85.7623 22.1739 85.1373 21.661 83.8875 21.661C82.132 21.661 81.3734 23.5357 81.023 25.0348C80.6835 26.4905 80.6293 28.2135 82.3523 28.2135C83.6347 28.2135 84.4871 27.7006 84.7725 26.7433H87.9765C87.4311 29.2683 84.5702 30.1569 81.9008 30.1569C78.4692 30.1569 77.0641 28.2821 77.8479 24.9264C78.6354 21.5671 80.9038 19.7501 84.3427 19.7248C87.0121 19.7248 89.472 20.5557 88.8326 23.0842" fill="black"/>
</svg>
