<svg xmlns="http://www.w3.org/2000/svg" width="65" height="64" viewBox="0 0 65 64" fill="none">
  <g clip-path="url(#clip0_5538_632)">
    <path d="M1.1333 0.5V63.5H64.1333V0.5H1.1333ZM20.6428 42.2531C20.3586 42.4432 20.0175 42.458 19.7085 42.579C19.6838 42.5889 19.6492 42.579 19.6195 42.579C19.4885 42.5889 19.36 42.579 19.2241 42.6259C19.1227 42.663 18.9793 42.6679 18.8558 42.6012C18.8014 42.5716 18.7248 42.579 18.658 42.579C18.3935 42.5716 17.9536 42.4012 17.7286 42.2432C17.4938 42.0777 17.3183 41.8555 17.1725 41.6184C17.0786 41.4653 17.0217 41.285 16.9723 41.1097C16.8536 40.6899 16.8339 40.2602 16.8512 39.8256C16.8512 39.796 16.8388 39.754 16.8512 39.7392C16.9748 39.6132 16.8635 39.4429 16.9451 39.3021C17.0217 39.1687 17.0365 39.0058 17.1008 38.865C17.1527 38.7489 17.2392 38.6452 17.306 38.5341C17.5358 38.1563 18.0005 37.8748 18.3985 37.7464C18.5468 37.697 18.7 37.6476 18.8681 37.6575C19.0757 37.6698 19.2834 37.6501 19.491 37.6624C19.8074 37.6846 20.1089 37.776 20.3957 37.9118C20.4303 37.9291 20.4624 37.9513 20.4921 37.9711C20.3561 38.2402 20.2375 38.4773 20.1188 38.7168C19.7851 38.6205 19.4811 38.4551 19.1425 38.4946C18.8656 38.5267 18.5888 38.5909 18.3886 38.8206C18.2947 38.9292 18.181 39.0181 18.1142 39.1515C18.0426 39.2947 18.0154 39.4503 17.9832 39.6009C17.9536 39.7466 18.0005 39.9071 17.919 40.0503C17.9066 40.0726 17.9066 40.1145 17.919 40.1368C18.0129 40.2997 17.9486 40.48 17.9808 40.6455C18.0376 40.9566 18.1167 41.2628 18.3491 41.4999C18.4924 41.6456 18.658 41.7246 18.8656 41.7616C18.9769 41.7814 19.0856 41.816 19.1993 41.8061C19.3204 41.7962 19.4391 41.7666 19.5676 41.7419V40.2479C19.6047 40.2108 19.6344 40.1837 19.664 40.1565H20.6404V42.2531H20.6428ZM22.378 32.1111C22.3261 32.163 22.2841 32.205 22.2322 32.2568H20.1361C20.0941 32.2148 20.0471 32.1679 19.9977 32.1185C19.9977 29.2342 19.9977 26.35 19.9977 23.4336H16.9055C16.8882 23.3694 16.8561 23.3076 16.8561 23.2484C16.8512 22.6853 16.8561 22.1248 16.8561 21.5691C16.8833 21.542 16.9055 21.5198 16.9352 21.4901H25.4974C25.5171 21.5099 25.5443 21.537 25.5765 21.5691C25.5765 22.1174 25.5765 22.6705 25.5765 23.2237C25.5765 23.3052 25.5765 23.3817 25.4751 23.4385H22.378V32.1111ZM26.2883 42.579C26.0041 41.9073 25.7248 41.2431 25.4405 40.5714H25.1043V42.5123H24.044V37.7785C24.6372 37.7785 25.2304 37.7612 25.8187 37.7883C26.0708 37.8007 26.3155 37.9143 26.533 38.06C26.6789 38.1588 26.8099 38.2674 26.9186 38.423C27.0274 38.5786 27.0793 38.7465 27.1089 38.907C27.1856 39.3391 27.0422 39.7293 26.7579 40.0577C26.6591 40.1713 26.5207 40.2479 26.3872 40.3541C26.7505 41.0504 27.1089 41.7394 27.4748 42.4432C27.0719 42.4901 26.6887 42.5346 26.2908 42.5815L26.2883 42.579ZM34.4673 40.3837C34.3882 40.8554 34.3116 41.3295 34.0002 41.7271C33.6764 42.1419 33.4366 42.3913 32.92 42.5469C32.7173 42.6087 32.4949 42.6679 32.2749 42.6334C31.9857 42.584 31.6866 42.5519 31.4271 42.3988C31.3307 42.342 31.2392 42.2728 31.1552 42.1963C30.6905 41.7641 30.6658 41.6999 30.4013 40.9714C30.3939 40.9541 30.3815 40.9393 30.3791 40.922C30.3593 40.7245 30.3296 40.5245 30.3222 40.3244C30.3123 40.117 30.2926 39.9071 30.3272 39.7046C30.3791 39.3885 30.4532 39.07 30.5966 38.7835C30.7795 38.4205 31.0192 38.102 31.39 37.8896C31.5334 37.8081 31.699 37.7686 31.8423 37.6624C32.0599 37.6673 32.2798 37.5661 32.5147 37.5982C32.9645 37.6624 33.3822 37.776 33.7233 38.1168C34.0595 38.4551 34.2572 38.8452 34.3635 39.3046C34.4031 39.475 34.408 39.6528 34.4599 39.8231C34.5118 39.9935 34.497 40.1985 34.4673 40.3812V40.3837ZM36.4596 32.2667L36.3038 32.1111C36.3607 31.4246 36.205 30.7357 36.2519 30.0393C36.1432 29.6368 36.2519 29.2194 36.1827 28.8218C36.1185 28.4416 36.1827 28.0637 36.1284 27.6909C36.0666 27.2538 36.0789 26.8191 36.074 26.3821C35.9825 26.2043 36.0295 26.0067 36.0048 25.7696C35.8787 26.1277 35.765 26.4364 35.6612 26.7475C35.5673 27.0241 35.4733 27.3032 35.3942 27.5847C35.2484 28.1057 35.0704 28.6144 34.89 29.1231C34.7615 29.4861 34.675 29.859 34.5415 30.222C34.413 30.5727 34.2968 30.9307 34.188 31.2888C34.1188 31.516 34.0076 31.7333 33.9903 31.9802C33.9829 32.079 33.8766 32.1679 33.8197 32.2568H31.9115C31.8374 32.0667 31.7509 31.8741 31.6891 31.674C31.5185 31.1332 31.3455 30.5924 31.175 30.0516C31.0366 29.6145 30.8734 29.1849 30.7572 28.7453C30.6411 28.3082 30.4705 27.8933 30.3519 27.4612C30.2456 27.071 30.1245 26.6883 29.9737 26.3154C29.991 26.1104 29.8427 25.9499 29.8081 25.7524C29.8031 25.8017 29.7957 25.8536 29.7908 25.903C29.771 26.1228 29.7438 26.3401 29.7339 26.5599C29.724 26.787 29.7735 27.0241 29.7216 27.2389C29.645 27.5699 29.7191 27.9008 29.6647 28.2218C29.598 28.6292 29.6647 29.0416 29.598 29.4392C29.5461 29.7602 29.5683 30.0763 29.5535 30.3949C29.5436 30.5949 29.467 30.785 29.4868 30.9925C29.5065 31.1876 29.5288 31.3975 29.4818 31.5827C29.4299 31.7852 29.4472 31.9827 29.4299 32.1803C29.3805 32.205 29.331 32.2321 29.2643 32.2642H27.2647C27.2202 32.2173 27.1732 32.1679 27.1089 32.1012C27.1312 31.958 27.1633 31.8 27.1732 31.6419C27.1856 31.474 27.1361 31.2937 27.1856 31.1431C27.2424 30.9678 27.2251 30.8023 27.2325 30.6319C27.2523 30.2936 27.3265 29.9603 27.2918 29.6195C27.3981 29.4195 27.3314 29.2021 27.3512 28.9922C27.366 28.8416 27.3981 28.6934 27.408 28.5428C27.4179 28.3848 27.3709 28.2119 27.4204 28.0736C27.4896 27.881 27.45 27.6909 27.4698 27.5032C27.4871 27.3427 27.5168 27.1846 27.5267 27.0241C27.5365 26.8661 27.4921 26.6957 27.5365 26.5524C27.6132 26.3104 27.5464 26.0684 27.5934 25.8363C27.6478 25.5671 27.6058 25.293 27.6577 25.0313C27.7096 24.7596 27.6651 24.488 27.7145 24.2262C27.7664 23.9571 27.7244 23.683 27.7763 23.4212C27.8257 23.1792 27.7862 22.9372 27.8307 22.7051C27.8851 22.426 27.8678 22.147 27.8875 21.8704C27.8974 21.7371 27.9617 21.6087 27.9988 21.4852H30.52C30.6608 21.584 30.6806 21.7544 30.7276 21.8976C30.955 22.6137 31.1873 23.3274 31.4147 24.041C31.5729 24.5374 31.7534 25.0288 31.8967 25.5301C32.0401 26.0339 32.2353 26.5179 32.3762 27.0192C32.5147 27.5155 32.6926 27.9946 32.8459 28.486C32.8879 28.6169 32.9101 28.7552 32.9546 28.9429C33.056 28.6465 33.1425 28.3996 33.2216 28.1502C33.4267 27.5131 33.6269 26.8759 33.8296 26.2388C33.9137 25.9771 33.9903 25.7128 34.0817 25.456C34.1707 25.2066 34.2202 24.9424 34.3487 24.7078C34.4179 24.2114 34.6478 23.7645 34.7788 23.2854C34.9271 22.7471 35.1224 22.2235 35.2978 21.6951C35.3201 21.6259 35.3498 21.5593 35.3769 21.4926H37.8858C37.913 21.5198 37.9352 21.542 37.9698 21.5766C37.9327 21.9815 38.0736 22.389 38.0291 22.8063C38.1181 23.1199 38.044 23.4484 38.1008 23.7571C38.1478 24.0188 38.1033 24.2806 38.1552 24.5325C38.2195 24.851 38.1601 25.177 38.2195 25.4857C38.2689 25.7375 38.2244 25.9894 38.2714 26.2314C38.3282 26.5302 38.2837 26.834 38.3356 27.1254C38.3875 27.4069 38.343 27.6884 38.39 27.96C38.4419 28.2588 38.3999 28.5626 38.4543 28.854C38.5062 29.1256 38.4543 29.3997 38.5087 29.659C38.5754 29.9603 38.5111 30.264 38.5704 30.5529C38.6273 30.8443 38.5704 31.1382 38.6322 31.4172C38.6916 31.679 38.657 31.9358 38.6817 32.1877C38.5704 32.242 38.4716 32.279 38.3505 32.2766C37.7177 32.2692 37.0849 32.2741 36.4546 32.2741L36.4596 32.2667ZM41.5242 41.043C41.5143 41.5369 41.277 41.9296 40.8692 42.2284C40.6467 42.3913 40.3921 42.4605 40.1474 42.5642C40.1054 42.5815 40.0535 42.5766 40.0041 42.579C39.8459 42.579 39.6877 42.579 39.5295 42.579C38.9635 42.5864 38.5012 42.3543 38.1379 41.9394C37.9748 41.7542 37.8882 41.5221 37.8388 41.2628C37.7869 40.9912 37.7968 40.7245 37.7943 40.4553C37.7869 39.6552 37.7943 38.8551 37.7943 38.0575V37.7883H38.8621V38.0377C38.8621 39.0058 38.8671 39.9713 38.8596 40.9393C38.8596 41.1616 38.9363 41.3567 39.0722 41.4999C39.2749 41.7123 39.5542 41.811 39.8483 41.7369C40.1202 41.6678 40.3303 41.5122 40.4317 41.2282C40.4613 41.1492 40.4613 41.0776 40.4613 41.0035C40.4638 39.9367 40.4613 38.8724 40.4613 37.7933H41.5291V37.9637C41.5291 38.9909 41.544 40.0182 41.5217 41.043H41.5242ZM48.4105 39.4305C48.4006 39.5317 48.3907 39.6379 48.3512 39.7293C48.2301 40.0059 48.0842 40.2676 47.8247 40.4454C47.4663 40.6924 47.0757 40.8183 46.6382 40.801C46.5418 40.7961 46.4454 40.801 46.3392 40.801V42.5099H45.2986C45.2541 42.2654 45.2392 38.7736 45.2788 37.7785C45.8077 37.7785 46.3392 37.7785 46.8706 37.7785C47.187 37.7785 47.4712 37.8772 47.7505 38.0131C48.193 38.2279 48.4006 38.6749 48.4105 39.1045C48.413 39.2132 48.4179 39.3218 48.4105 39.4305ZM48.4624 23.2977C48.4402 23.32 48.413 23.3471 48.3759 23.3842H44.3247V25.8561H47.6591L47.7579 25.9548C47.7579 26.4833 47.7579 27.0142 47.7579 27.5476C47.7579 27.6291 47.7629 27.7057 47.6591 27.7625H44.3272V32.0296C44.2728 32.121 44.2357 32.1852 44.2036 32.2395C44.1764 32.2519 44.1591 32.2642 44.1418 32.2642C43.5288 32.2642 42.9158 32.2642 42.3028 32.2642C42.1767 32.2642 42.0556 32.2568 41.9469 32.1753V31.9457C41.9469 28.5675 41.9469 25.1893 41.9469 21.8136C41.9469 21.7025 41.8974 21.5741 42.0309 21.4827H48.3882C48.4105 21.5049 48.4327 21.5272 48.4624 21.5568V23.2928V23.2977Z" fill="black"/>
    <path d="M33.2907 39.4923C33.2586 39.3663 33.2289 39.2453 33.1795 39.1243C33.0856 38.8848 32.9422 38.6872 32.6975 38.549C32.6629 38.549 32.5986 38.5613 32.5443 38.549C32.1463 38.4403 31.8151 38.5737 31.6223 38.9243C31.516 39.1194 31.4443 39.3713 31.4443 39.559C31.4443 39.875 31.4443 40.1887 31.4443 40.5047C31.4443 40.7418 31.5333 40.9566 31.6075 41.1764C31.6816 41.4011 31.8621 41.5296 32.0005 41.6827C32.1092 41.7074 32.2081 41.737 32.3094 41.7469C32.4256 41.7567 32.5443 41.7493 32.6629 41.7493C33.0238 41.6604 33.1325 41.3468 33.2734 41.0653C33.2981 40.9073 33.3426 40.7492 33.3402 40.5912C33.3328 40.2257 33.3896 39.8578 33.2907 39.4923Z" fill="black"/>
    <path d="M25.742 38.6205H25.1042V39.7243H25.7098C26.0781 39.5959 26.0633 39.2947 26.0386 38.9539C25.9471 38.8502 25.8334 38.7242 25.7395 38.618L25.742 38.6205Z" fill="black"/>
    <path d="M47.2017 38.7983C47.1152 38.6822 46.9966 38.6032 46.8384 38.6081C46.6728 38.6131 46.5072 38.6081 46.3416 38.6081V39.9712C46.4923 39.9712 46.6406 39.9885 46.784 39.9663C47.0114 39.9342 47.1819 39.8083 47.2734 39.5934C47.2981 39.5342 47.2734 39.4527 47.3006 39.3983C47.355 39.2946 47.3377 39.2181 47.3006 39.1094C47.266 39.0082 47.2685 38.8847 47.2017 38.7958V38.7983Z" fill="black"/>
  </g>
  <defs>
    <clipPath id="clip0_5538_632">
      <rect width="64" height="64" fill="white" transform="translate(0.5)"/>
    </clipPath>
  </defs>
</svg>