<svg xmlns="http://www.w3.org/2000/svg" width="135" height="30" viewBox="0 0 135 30" fill="none">
  <path d="M116.379 15.3888H112.981C112.724 15.125 112.623 14.819 112.55 14.4572C112.405 13.7336 112.394 12.983 112.097 12.2814C111.945 11.923 112.083 11.4919 111.913 11.0895C111.761 10.7311 111.901 10.2121 111.693 9.92299C111.439 9.56965 111.761 9.11994 111.385 8.8579C111.504 8.02611 110.964 7.29915 111.037 6.49103C110.588 6.2814 110.772 6.82578 110.54 6.85959C110.577 7.218 110.429 7.55105 110.39 7.89086C110.298 8.68884 110.092 9.4513 109.908 10.2273C109.805 10.6601 109.79 11.1335 109.692 11.5798C109.428 12.7734 109.222 13.9771 108.98 15.174C108.967 15.2434 108.867 15.2941 108.786 15.3752H105.366C105.097 15.125 104.96 14.8258 104.954 14.4454C104.95 14.2138 104.884 13.9703 104.788 13.7573C104.523 13.174 104.453 12.5418 104.294 11.9331C104.056 11.0168 103.801 10.1056 103.569 9.18926C103.383 8.45384 103.123 7.73702 102.942 6.99991C102.753 6.23406 102.516 5.47328 102.361 4.7125C102.19 3.88072 101.751 3.12332 101.742 2.25097C101.739 1.97539 101.612 1.70321 101.531 1.38537H104.905C105.348 1.75731 105.388 2.33888 105.442 2.83254C105.522 3.55781 105.806 4.24082 105.811 4.97117C106.035 5.16052 105.954 5.42256 105.985 5.66094C106.015 5.89425 106.137 6.12079 106.139 6.3524C106.145 6.89847 106.355 7.39213 106.453 7.90946C106.532 8.32535 106.583 8.75984 106.652 9.18588C106.718 9.58317 106.674 10.0329 106.852 10.3676C106.992 10.633 106.918 10.9002 107.094 11.2636C107.249 10.7311 107.396 10.3051 107.493 9.8672C107.586 9.44792 107.663 9.02696 107.692 8.5874C107.729 7.98723 107.929 7.3972 108.062 6.80549C108.086 6.70574 108.174 6.60938 108.169 6.5147C108.137 5.7759 108.422 5.08951 108.544 4.37776C108.586 4.12586 108.652 3.86381 108.688 3.59839C108.721 3.33634 108.792 3.07937 108.852 2.82239C108.965 2.33719 109.083 1.85367 109.198 1.37354H112.337C112.435 1.49188 112.56 1.64234 112.741 1.86043C112.788 2.21377 112.778 2.69391 112.934 3.1098C113.025 3.35156 113.044 3.57303 113.081 3.80971C113.116 4.04302 113.223 4.26787 113.238 4.50118C113.267 4.95933 113.402 5.38368 113.544 5.8131C113.669 6.19348 113.549 6.60261 113.73 7.00498C113.889 7.35832 113.743 7.88072 113.951 8.17151C114.205 8.52485 113.875 8.97793 114.259 9.2366C114.228 9.64742 114.276 10.0464 114.425 10.4352C114.516 10.6753 114.567 10.9306 114.668 11.289C114.851 10.8528 114.724 10.4927 114.911 10.1563C115.082 9.8486 115.047 9.42764 115.106 9.0557C115.16 8.7125 115.216 8.36931 115.275 8.0278C115.334 7.6863 115.304 7.27886 115.486 7.02358C115.735 6.677 115.505 6.28816 115.751 5.93482C115.922 5.69137 115.833 5.26703 115.909 4.91707C115.98 4.58571 116.086 4.24589 116.127 3.89763C116.169 3.52569 116.245 3.15037 116.321 2.79027C116.394 2.44877 116.441 2.10895 116.458 1.78266C116.597 1.64403 116.717 1.524 116.857 1.38368H120.153C120.275 1.98554 119.945 2.51639 119.818 3.06753C119.624 3.90946 119.362 4.73786 119.147 5.5781C118.973 6.26111 118.732 6.93059 118.571 7.61867C118.393 8.38791 118.099 9.12501 117.966 9.90608C117.913 10.2087 117.692 10.4826 117.648 10.7835C117.482 11.9382 116.982 13.0033 116.783 14.1495C116.712 14.557 116.526 14.9441 116.377 15.3871L116.379 15.3888Z" fill="black"/>
  <path d="M133.5 15.1707C133.412 15.2587 133.353 15.3178 133.284 15.3871H129.908C129.729 15.1944 129.538 14.9899 129.421 14.8631C127.952 12.1614 126.499 9.55621 125.016 6.96618C124.996 6.96956 124.972 6.96787 124.957 6.97971C124.937 6.99492 124.91 7.02028 124.91 7.04226C124.908 9.74556 124.908 12.4472 124.908 15.142C124.82 15.2299 124.741 15.3094 124.658 15.3922H121.62C121.34 15.0879 121.355 14.7109 121.357 14.3288C121.362 10.3576 121.357 6.3863 121.365 2.41673C121.365 2.07861 121.448 1.74218 121.492 1.41082C123.596 1.27218 124.754 1.31952 125.364 1.56128C125.5 1.86559 125.581 2.22231 125.789 2.47252C126.133 2.89011 126.269 3.41082 126.586 3.84192C126.892 4.25781 127.051 4.78022 127.337 5.2147C128.045 6.29332 128.522 7.5038 129.288 8.55198C129.558 8.92223 129.687 9.39729 129.955 9.99408V1.64243C130.074 1.52409 130.133 1.46491 130.214 1.38377H133.299C133.355 1.43956 133.414 1.49873 133.503 1.58833V15.1707H133.5Z" fill="black"/>
  <path d="M66.5141 9.64755H62.0533C62.0449 9.85888 62.0297 10.0736 62.0297 10.2883C62.028 11.6408 62.0381 12.9933 62.0229 14.3458C62.0195 14.6856 61.9384 15.0237 61.891 15.3754H58.3431V1.41763C58.3295 1.43453 58.3431 1.40917 58.365 1.39396C58.3853 1.37874 58.4124 1.36353 58.436 1.36353C59.5584 1.36353 60.6825 1.36353 61.7812 1.36353C62.0449 1.69151 62.033 2.04146 62.0313 2.39818C62.0246 3.72025 62.028 5.04231 62.028 6.39987H66.5479C66.5783 6.36268 66.6493 6.27646 66.766 6.13614V1.61205C66.8555 1.52244 66.9147 1.46327 66.9941 1.38381C68.0083 1.38381 69.0428 1.38381 70.0756 1.38381C70.1348 1.44298 70.1956 1.50385 70.2818 1.59007V15.3551H66.7592C66.7592 13.7845 66.7507 12.2122 66.766 10.6399C66.7693 10.2765 66.7051 9.94848 66.5141 9.64586V9.64755Z" fill="black"/>
  <path d="M29.0664 1.37864H32.6161V2.21719C32.6161 4.78016 32.6178 7.34145 32.6144 9.90442C32.6144 10.3677 32.8003 10.7819 32.9068 11.218C33.0809 11.9315 33.6252 12.2307 34.3199 12.5198C34.9471 12.4911 35.6959 12.6331 36.4464 12.3034C37.3186 11.7201 37.5231 10.7954 37.5214 9.77086C37.5163 7.0439 37.5197 4.31524 37.5197 1.51896C37.6989 1.46655 37.8713 1.37188 38.0437 1.37019C38.9717 1.35497 39.898 1.36343 40.8159 1.36343C40.946 1.4936 41.066 1.61364 41.2384 1.78608V2.38625C41.2384 4.52657 41.2131 6.66689 41.2503 8.80552C41.2655 9.6931 40.9393 10.5485 41.0694 11.4395C40.684 12.7294 40.2631 13.9839 38.992 14.7261C38.1637 15.2096 37.5637 15.3989 36.6408 15.5883C36.1218 15.6948 35.6181 15.7218 35.1009 15.7354C34.3943 15.7523 33.7047 15.6897 33.0404 15.4074C32.7986 15.3043 32.5248 15.404 32.2408 15.3009C31.154 14.9086 30.3358 14.2155 29.7544 13.2451C29.5431 12.8934 29.4467 12.4742 29.2828 12.0955C28.9075 10.3389 29.1036 8.55193 29.0749 6.7734C29.0444 4.99994 29.0681 3.22649 29.0681 1.38033L29.0664 1.37864Z" fill="black"/>
  <path d="M56.4159 6.43366H52.9187C52.7868 6.15809 52.6398 5.85378 52.4944 5.54947C52.1208 5.11836 51.803 4.55031 51.1709 4.41168C50.5911 4.28488 49.9995 4.12427 49.4011 4.27643C48.8585 4.41506 48.37 4.65006 47.9389 5.03721C47.4792 5.44972 47.322 6.02791 47.0346 6.48099C46.9569 6.9121 46.8571 7.30433 46.8233 7.70331C46.7878 8.12258 46.7659 8.55369 46.825 8.96789C46.9755 9.99748 47.1428 11.022 48.0032 11.7743C48.9836 12.6298 50.0975 12.7194 51.2486 12.3271C51.6864 12.1784 52.0312 11.7557 52.2662 11.5731C52.5197 10.9408 52.704 10.4827 52.8933 10.011H56.2232C56.2773 10.0651 56.3568 10.1446 56.4362 10.224C56.2266 11.8453 55.7246 13.1589 54.423 14.2697C53.7875 14.8107 53.0573 15.2384 52.1952 15.4041C51.372 15.563 50.5657 15.798 49.7155 15.7321C49.4957 15.7151 49.2557 15.7574 49.0613 15.6813C48.3074 15.3855 47.4521 15.4041 46.7591 14.9189C46.5022 14.738 46.1945 14.6264 45.9528 14.4303C45.7195 14.2392 45.493 14.0364 45.2801 13.8098C44.6175 13.1015 44.2287 12.6619 43.8805 11.8605C43.6844 11.4075 43.5204 10.9408 43.3396 10.4793C43.321 10.4303 43.2686 10.3863 43.2703 10.3407C43.3024 9.45648 42.9423 8.59258 43.1131 7.71176C43.1739 7.39731 43.2584 7.093 43.277 6.76671C43.2956 6.45225 43.3193 6.10061 43.4697 5.83856C43.6337 5.55454 43.6895 5.24515 43.823 4.96958C44.3149 3.95183 45.0164 3.05919 45.9139 2.38632C46.5089 1.94 47.2222 1.55961 47.9389 1.39731C48.6861 1.22825 49.4264 0.925628 50.2395 1.01185C52.2797 1.22825 54.1323 1.84363 55.444 3.51058C55.8531 4.0296 56.2199 4.62301 56.3078 5.34828C56.3483 5.68641 56.4954 6.01438 56.4176 6.43028L56.4159 6.43366Z" fill="black"/>
  <path d="M8.30424 15.1133C8.15718 15.2604 8.09802 15.3195 8.0659 15.3516C6.9486 15.3516 5.85834 15.355 4.76808 15.3432C4.70722 15.3432 4.64806 15.2316 4.56186 15.1437V4.60608H0.621704C0.569303 4.55706 0.545639 4.54015 0.528736 4.51817C0.515213 4.49789 0.50169 4.47084 0.50169 4.44548C0.5 3.49197 0.5 2.53846 0.5 1.57819C0.633536 1.49873 0.740026 1.40237 0.86342 1.37024C0.995266 1.33643 1.14232 1.36179 1.28431 1.36179H12.0804C12.1717 1.45308 12.2512 1.53254 12.3323 1.61369V4.5672C11.002 4.58411 9.66664 4.5672 8.30593 4.57734V15.1133H8.30424Z" fill="black"/>
  <path d="M124.786 18.5046C124.112 18.6348 9.6312 18.6483 8.62207 18.5063C8.88069 18.4674 8.97704 18.437 9.07339 18.4387C13.4192 18.5587 17.7566 18.1631 22.1007 18.2679C24.4655 17.9552 26.8421 18.1327 29.2136 18.1056C31.6071 18.0786 34.0023 18.0989 36.3958 18.0989C37.9678 17.7641 39.5601 17.9721 41.1423 17.9382C42.7464 17.9027 44.3539 17.9484 45.958 17.923C46.8082 17.9095 47.6568 17.7945 48.5087 17.7675C49.4097 17.7388 50.3106 17.7607 51.2132 17.7607C52.1159 17.7607 52.9779 17.8723 53.8299 17.7371C55.4999 17.4716 57.1666 17.639 58.8332 17.6001C60.5219 17.5595 62.2223 17.6999 63.9008 17.5663C66.4718 17.3601 69.0394 17.4699 71.607 17.4226C73.2653 17.7066 74.9404 17.5697 76.607 17.5883C78.2973 17.6069 80.0012 17.4564 81.6746 17.6255C83.8551 17.8453 86.0357 17.5765 88.1959 17.7929C89.8406 17.9585 91.4768 17.8909 93.1147 17.923C94.7476 17.9552 96.394 17.8081 98.0116 17.967C99.4315 18.1056 100.841 18.0667 102.254 18.0938C103.662 18.1208 105.07 18.1005 106.48 18.1005C107.89 18.1005 109.366 17.9788 110.787 18.1293C113.022 18.3643 115.258 18.1141 117.477 18.3034C118.642 18.4032 119.798 18.4167 120.96 18.4353C122.143 18.4539 123.326 18.4387 124.509 18.442C124.585 18.442 124.66 18.4759 124.785 18.5063L124.786 18.5046Z" fill="black"/>
  <path d="M45.4339 21.8149C45.226 21.6898 44.9555 21.5292 44.6631 21.3551C44.9623 21.2536 45.3054 21.3297 45.6368 21.3162C45.9664 21.3026 46.2977 21.3128 46.6425 21.3551C46.1185 21.5867 45.9647 21.9907 45.9681 22.5064C45.9765 24.3644 45.9714 26.2223 45.9714 28.0803V28.831C45.7737 28.7177 45.6486 28.6754 45.5641 28.5909C44.5448 27.5799 43.4562 26.6247 42.5435 25.5258C41.9687 24.8327 41.2334 24.2815 40.7703 23.4869C40.6486 23.2773 40.4711 23.0017 40.1398 22.995C39.9995 23.8589 40.0299 24.6873 40.2057 25.4413C40.2429 25.6002 40.2243 25.7743 40.2243 25.9417C40.2243 26.6737 40.2243 27.4058 40.2243 28.1851C40.4255 28.3441 40.6486 28.5216 40.8971 28.716H39.0039C39.2203 28.5757 39.3809 28.4692 39.56 28.3525V21.3314C39.6919 21.3212 39.7984 21.3145 39.9657 21.3026C40.1449 21.5596 40.461 21.7135 40.6013 22.0854C40.7027 22.3525 41.0408 22.4776 41.247 22.7228C41.9941 23.6154 42.824 24.4404 43.6151 25.2976C44.2067 25.9383 44.7848 26.5909 45.4373 27.3145V21.8166L45.4339 21.8149Z" fill="black"/>
  <path d="M79.6428 21.3466H81.6205C81.6239 21.3771 81.6256 21.4075 81.6289 21.4379C81.4853 21.4599 81.3399 21.4836 81.1912 21.5055C80.8784 22.1142 80.968 22.7769 80.9613 23.4295C80.9562 23.9079 80.9613 24.3864 80.9613 24.8648C80.9613 25.372 81.034 25.891 80.9393 26.3813C80.8565 26.8124 80.6925 27.235 80.6029 27.6729C80.3832 27.891 80.1753 28.1226 79.9437 28.3272C79.5329 28.6873 79.085 28.9561 78.5018 28.9257C78.0539 28.902 77.6026 28.9206 77.1986 28.9206C77.0042 28.8056 76.8555 28.6721 76.6847 28.6247C75.8954 28.4066 75.581 27.7997 75.3156 27.1032C75.2429 26.9104 75.2209 26.7397 75.2175 26.5554C75.2074 26.0212 75.2142 25.4853 75.2142 24.951C75.2142 24.388 75.2412 23.8234 75.2057 23.2621C75.1736 22.7515 75.0722 22.2443 74.9877 21.6391C74.8372 21.5749 74.6107 21.4785 74.2896 21.3416H76.5394C76.2419 21.4193 76.2537 21.749 76.0593 21.9011C76.0593 23.3297 76.0272 24.7667 76.0728 26.1987C76.0948 26.8902 76.2098 27.6002 76.825 28.077C78.0167 29.0017 79.5515 28.4929 79.9978 27.4193C80.1465 27.0592 80.2632 26.6569 80.2733 26.2714C80.3071 24.9493 80.2733 23.6256 80.2953 22.3035C80.3004 21.9823 80.1567 21.7422 80.0198 21.4498H79.6344C79.6377 21.4142 79.6411 21.3804 79.6445 21.3449L79.6428 21.3466Z" fill="black"/>
  <path d="M11.1474 22.2477V21.5562C11.0375 21.5038 10.9277 21.4514 10.7096 21.3483H12.6349L12.6535 21.421C12.5199 21.448 12.3864 21.4734 12.1785 21.5156C11.9689 21.8977 11.6579 22.3119 11.5041 22.7785C11.2099 23.6729 10.8262 24.5266 10.478 25.3973C10.1974 26.0989 9.85091 26.7701 9.61934 27.4937C9.47735 27.9366 9.23225 28.3474 9.01927 28.765C8.97701 28.8478 8.86038 28.8952 8.72177 29.0034C8.50203 28.4742 8.25524 28.0144 8.12171 27.5241C7.92732 26.8107 7.56728 26.175 7.29514 25.4987C7.01285 24.7988 6.82016 24.0685 6.44659 23.3956C6.25728 23.0541 6.22347 22.5926 6.04092 22.2156C5.84653 21.8098 5.61833 21.4108 5.08081 21.3516H7.46586C7.25288 21.492 7.09061 21.6002 6.90974 21.7202C7.59771 23.563 8.27891 25.3888 8.99054 27.2992C9.61596 26.5351 9.79175 25.6576 10.1315 24.8631C10.4797 24.0499 10.7772 23.2147 11.1508 22.2527L11.1474 22.2477Z" fill="black"/>
  <path d="M111.921 28.0195C112.031 28.1277 112.171 28.2647 112.322 28.4118C112.758 28.4118 113.216 28.4675 113.654 28.3948C114.016 28.334 114.207 27.9282 114.56 27.6577C114.501 27.9232 114.472 28.0905 114.426 28.2511C114.376 28.4253 114.31 28.5926 114.264 28.7262H110.53C110.888 28.2951 111.051 27.8403 111.049 27.3247C111.044 25.7778 111.049 24.2292 111.046 22.6822C111.046 22.52 111.041 22.3509 110.997 22.1954C110.824 21.5817 110.817 21.5833 110.116 21.345H114.239V22.2596C114.217 22.2816 114.198 22.3002 114.178 22.3205C114.027 22.1565 113.875 21.9908 113.732 21.8352H111.921V24.4743C112.351 24.689 112.8 24.8395 113.328 24.5504C113.517 24.4473 113.809 24.5335 114.071 24.5335V25.6459C113.809 25.6324 113.759 25.4363 113.708 25.2402C113.152 24.8919 112.54 25.0779 111.921 25.0204V28.0178V28.0195Z" fill="black"/>
  <path d="M61.2082 28.2139C61.3873 28.3525 61.6105 28.5233 61.8691 28.7228H59.8576C60.1568 28.645 60.1432 28.3153 60.3174 28.1784V21.8419H58.1689C58.0287 22.0296 57.8698 22.246 57.7261 22.4387C57.663 22.1727 57.7131 21.7535 57.8765 21.1809C58.1994 21.2266 58.5138 21.306 58.8282 21.3077C60.4864 21.3195 62.1446 21.3145 63.8451 21.3145V22.3069C63.6101 22.1513 63.3802 21.9975 63.1402 21.8386H61.2082V28.2156V28.2139Z" fill="black"/>
  <path d="M126.901 22.6636C126.982 22.7752 127.068 22.853 127.099 22.9494C127.129 23.0491 127.105 23.1674 127.105 23.2655C127.714 23.82 128.226 24.4405 128.899 24.9037C129.318 25.1928 129.666 25.5969 129.807 26.1243V27.563C129.453 28.2697 128.96 28.8192 128.245 28.8902C127.54 28.9612 126.747 29.1421 126.108 28.5216V27.2334C126.411 27.6577 126.688 28.0466 126.906 28.3543C127.269 28.4489 127.525 28.5707 127.778 28.5656C128.03 28.5605 128.28 28.4253 128.628 28.3188C128.732 28.17 128.899 27.9265 129.11 27.6205V26.7245C128.917 26.4997 128.701 26.2207 128.458 25.9688C127.969 25.4616 127.467 24.968 126.967 24.4743C126.671 24.1835 126.556 23.815 126.39 23.4464C126.191 23.0001 126.27 22.6805 126.424 22.3002C126.453 22.2292 126.428 22.1379 126.428 22.0584C126.644 21.8589 126.832 21.6476 127.058 21.4887C127.247 21.3551 127.481 21.2841 127.787 21.1438C128.017 21.1438 128.353 21.1218 128.688 21.1505C128.977 21.1759 129.276 21.2182 129.543 21.3247C129.747 21.4075 129.884 21.6104 129.79 21.9401C129.739 21.9925 129.646 22.0905 129.504 22.2376C129.403 22.1108 129.332 22.0246 129.186 21.8437C129.048 21.7727 128.792 21.6408 128.492 21.4853C127.516 21.4819 127.498 21.4937 126.901 22.662V22.6636Z" fill="black"/>
  <path d="M24.8696 27.6965C25.0268 27.9129 25.2161 28.175 25.3885 28.4117H26.8303C27.0416 28.2173 27.2766 28.0025 27.52 27.7777V28.5233C27.4591 28.5841 27.3797 28.6636 27.2918 28.7515C26.1187 28.7515 24.9389 28.7515 23.759 28.7498C23.737 28.7498 23.7167 28.7194 23.6948 28.7041C23.972 28.1057 24.1731 27.492 24.1681 26.8191C24.1596 25.4683 24.1681 24.1175 24.163 22.7684C24.163 22.5774 24.1799 22.3677 24.1089 22.2003C23.9551 21.8419 23.994 21.2722 23.3364 21.3466H27.4186C27.329 21.7506 27.2462 22.1243 27.1464 22.5706C27.0399 22.2697 26.9622 22.0499 26.8844 21.8352H24.8712V24.459C25.184 24.7092 25.5913 24.7278 25.997 24.6872C26.3875 24.6484 26.7729 24.5655 27.1853 24.4996C27.1126 24.9324 27.0501 25.2925 26.9875 25.6695C26.9875 25.6695 26.9656 25.6847 26.947 25.6982C26.9148 25.5697 26.8827 25.4413 26.8455 25.2942C26.468 25.0992 25.8099 25.0209 24.8712 25.0592V27.6965H24.8696Z" fill="black"/>
  <path d="M85.6824 8.09212C85.4525 7.82162 85.5116 7.51562 85.5302 7.22483C85.5911 6.31021 85.2564 5.49702 84.8811 4.70412C84.3419 3.56465 83.4765 2.72948 82.3507 2.16651C82.0482 2.01604 81.7473 1.83684 81.4244 1.76076C81.0914 1.68299 80.7855 1.51224 80.4187 1.52069C80.0772 1.52745 79.7341 1.3753 79.391 1.37361C77.2273 1.35839 75.0654 1.36684 72.8748 1.36684V15.399C75.0384 15.399 77.1733 15.4108 79.3081 15.3905C79.8761 15.3854 80.4795 15.3888 81.0035 15.2062C81.967 14.8715 82.9102 14.4471 83.6962 13.7591C84.0867 13.4159 84.347 12.9881 84.609 12.5351C85.1381 11.6221 85.5218 10.6889 85.5319 9.61874C85.5353 9.24681 85.4018 8.8512 85.6841 8.49787C85.7534 8.41164 85.7534 8.17496 85.6841 8.09212H85.6824ZM81.967 8.96955C81.9535 9.20116 81.8436 9.42771 81.8115 9.66101C81.7811 9.87403 81.7067 10.0735 81.6611 10.2713C81.4565 11.1589 80.7922 11.5697 80.0857 11.9535C79.7797 12.1209 79.3707 11.8909 79.085 12.1834C78.2686 12.2527 77.4522 12.3204 76.6831 12.3863C76.5715 12.2747 76.5123 12.2155 76.4244 12.1276V4.79711C76.4735 4.75146 76.5546 4.67538 76.6645 4.57394C77.3034 4.57394 77.9812 4.52153 78.6472 4.58578C79.5854 4.67538 80.5049 4.86304 81.1472 5.67961C81.3653 5.95687 81.5884 6.19694 81.6492 6.57394C81.705 6.93066 81.9163 7.26372 81.962 7.61875C82.0194 8.06169 81.9941 8.51815 81.9687 8.96617L81.967 8.96955Z" fill="black"/>
  <path d="M100.715 8.46913C100.816 7.66439 100.745 6.8884 100.552 6.14791C100.316 5.23498 99.91 4.37952 99.3471 3.61029C99.1392 3.32627 98.9651 2.95603 98.6794 2.80725C98.2518 2.58409 98.0134 2.07859 97.481 2.03802C97.1379 1.60522 96.5986 1.58832 96.1355 1.41418C95.5084 1.17581 94.839 1.12847 94.1849 1.03717C93.3143 0.91545 92.4726 1.213 91.6511 1.43278C90.9834 1.61198 90.3005 1.90953 89.7528 2.32373C88.7961 3.04901 87.9983 3.97378 87.6044 5.13185C87.3069 6.00759 86.9486 6.88671 87.0365 7.85543C87.0737 8.27471 87.0213 8.70074 87.0483 9.12001C87.077 9.54943 87.1125 9.98561 87.2207 10.3981C87.3796 11.0017 87.5453 11.6171 87.8174 12.1733C88.1521 12.858 88.6879 13.4074 89.2237 13.9619C90.3749 15.1521 91.8522 15.5021 93.3921 15.7303C94.359 15.8723 95.2954 15.6238 96.198 15.3668C96.8623 15.1792 97.5047 14.8647 98.0946 14.4353C98.6135 14.0566 98.9938 13.5934 99.3826 13.1116C99.9708 12.3812 100.302 11.5122 100.537 10.6382C100.725 9.93827 100.858 9.18595 100.711 8.46744L100.715 8.46913ZM96.1423 11.6069C96.0104 11.7912 95.767 11.9028 95.5625 12.0296C95.2937 12.1952 95.0148 12.3423 94.6953 12.5215C94.3556 12.5215 93.9617 12.5029 93.5696 12.5266C93.0202 12.5604 92.5655 12.322 92.192 11.9839C91.788 11.6187 91.3907 11.2062 91.1287 10.7379C90.9056 10.3389 90.8194 9.83684 90.7789 9.37023C90.7214 8.72779 90.7264 8.07352 90.7738 7.42771C90.8549 6.30176 91.3519 5.39728 92.3001 4.73963C93.2467 4.08367 94.3251 4.06507 95.2498 4.57564C95.9766 4.97631 96.7339 5.85374 96.8674 6.68722C96.9502 7.20455 97.1801 7.72526 97.1683 8.2392C97.1396 9.44292 96.859 10.6044 96.1423 11.6069Z" fill="black"/>
  <path d="M27.0212 6.3812C27.0162 5.9129 26.2893 4.38458 25.9851 3.94672C25.4053 3.11324 24.719 2.38966 23.7978 1.92812C22.6957 1.37529 21.5226 1.08112 20.2904 1.02533C20.0943 1.01688 19.8931 1.00166 19.7004 1.0304C19.4942 1.06083 19.2981 1.17579 19.0936 1.18594C18.6592 1.20453 18.2721 1.3736 17.8647 1.48687C17.165 1.68298 16.5869 2.06337 15.9868 2.47588C15.2853 2.95939 14.7884 3.58492 14.4266 4.28484C13.8536 5.39388 13.3786 6.56548 13.5105 7.87233C13.5274 8.0397 13.5122 8.21045 13.5122 8.37782C13.5122 8.80048 13.5375 9.22313 13.5054 9.64409C13.4699 10.1175 13.617 10.5553 13.7606 10.978C14.1562 12.1394 14.976 13.5562 16.0443 14.3406C17.2106 15.1978 18.4817 15.5951 19.8661 15.7219C20.7045 15.7996 21.5192 15.6424 22.3492 15.426C23.338 15.1673 24.1646 14.7109 24.9067 14.0532C25.4188 13.6001 25.811 13.0575 26.1828 12.4776C26.4871 12.0008 26.6325 11.4733 26.8471 10.9746C27.1091 10.3626 27.0382 9.66438 27.1869 9.00842C27.3847 8.13606 27.028 7.26371 27.0196 6.3812H27.0212ZM23.2569 10.1039C23.1504 10.4336 23.0101 10.7531 22.8343 11.0676C22.3188 11.9924 21.5598 12.5097 20.4983 12.5097C20.1011 12.5097 19.714 12.5452 19.2931 12.3778C18.6338 12.1158 18.1065 11.7675 17.8073 11.1352C17.6518 10.8055 17.3374 10.5553 17.3188 10.1564C17.3171 10.1107 17.241 10.0701 17.2376 10.0245C17.1768 9.3736 17.0365 8.71595 17.0923 8.0752C17.1379 7.5342 17.2038 6.97799 17.3898 6.43868C17.8766 5.02702 18.8925 4.27639 20.3495 4.22398C21.6933 4.17495 22.7464 5.24511 23.1605 6.33218C23.3025 6.70411 23.311 7.09802 23.4665 7.46996C23.48 7.50208 23.4902 7.53759 23.4986 7.5714C23.5561 7.81823 23.4868 8.11747 23.4868 8.38797C23.5088 8.98475 23.431 9.55449 23.2552 10.1039H23.2569Z" fill="black"/>
  <path d="M98.9969 28.1124C98.8177 27.9011 98.5591 27.7861 98.3985 27.5342C98.221 27.257 97.9235 27.0575 97.6987 26.8056C97.4655 26.5435 97.222 26.2781 97.0513 25.9772C96.9127 25.732 96.8755 25.4294 96.791 25.1437C97.4215 24.7092 97.5804 24.038 97.8373 23.4328C97.9185 23.2417 97.9421 22.9425 97.8458 22.7785C97.6328 22.415 97.5601 21.9247 97.1544 21.7202C96.7859 21.5342 96.4411 21.2722 95.9746 21.3026C95.4151 21.3381 94.8505 21.3111 94.2876 21.3111H92.7866C93.1974 21.4852 93.4306 21.5849 93.6352 21.6712V28.4133C93.549 28.4691 93.4154 28.557 93.1686 28.7193H95.1818C94.9722 28.5756 94.81 28.4641 94.6764 28.3728V25.7236H95.9577C96.0912 25.9214 96.2079 26.1344 96.3651 26.3153C96.6828 26.6805 96.8874 27.1471 97.217 27.4717C97.648 27.8977 97.861 28.557 98.5168 28.7515C98.7704 28.7515 99.0239 28.7548 99.2758 28.7515C99.5327 28.7481 99.7913 28.7362 100.048 28.7295C99.6392 28.579 99.2707 28.4404 98.9969 28.1158V28.1124ZM96.2687 25.1876H94.6798V21.7269C95.7346 21.4345 96.245 21.8453 96.6778 22.481C96.742 22.5773 97.0462 23.6999 97.0141 23.7743C96.8366 24.18 96.8231 24.6602 96.4699 24.9865C96.4073 25.0439 96.3498 25.1048 96.2687 25.1876Z" fill="black"/>
</svg>