<svg width="118" height="30" viewBox="0 0 118 30" fill="none" xmlns="http://www.w3.org/2000/svg" preserveAspectRatio="xMinYMin">
<path fill-rule="evenodd" clip-rule="evenodd" d="M1.25008 0.00012207H28.2874L14.1759 14.1792H28.2874V27.1638C28.2874 27.8572 27.7279 28.4196 27.0373 28.4196H0L14.1757 14.1793H0V1.25589C0 0.562459 0.559492 0.00012207 1.25008 0.00012207ZM117.971 11.2382C117.933 8.47311 116.339 6.27379 113.721 5.34317C110.93 4.35046 108.081 4.35736 105.281 5.25347C102.656 6.09353 101.044 7.91681 101.294 10.9303C101.319 11.2296 101.4 11.3227 101.708 11.3176C102.668 11.2977 103.63 11.2908 104.591 11.3193C104.96 11.3296 105.047 11.2417 105.035 10.8708C104.982 9.24245 105.762 8.25318 107.355 7.86593C108.716 7.53301 110.081 7.54767 111.434 7.88921C112.577 8.17815 113.417 8.84829 113.776 10.0032C113.973 10.6388 113.999 11.2986 113.987 11.9601L113.987 11.9924V11.9925C113.98 12.3417 113.977 12.5159 113.888 12.6042C113.799 12.6921 113.626 12.6949 113.282 12.7005L113.252 12.701C112.377 12.7169 111.5 12.7057 110.624 12.6945C108.988 12.6736 107.351 12.6526 105.717 12.8088C104.419 12.9321 103.191 13.3073 102.186 14.1715C100.023 16.0319 100.293 19.7854 102.696 21.5138C103.842 22.3392 105.156 22.679 106.546 22.7886C108.05 22.905 109.53 22.8075 110.956 22.2831C112.442 21.7355 113.443 20.6988 113.988 19.2257C113.988 19.2135 113.988 19.2006 113.987 19.1874C113.985 19.108 113.982 19.0158 114.063 19.004C114.174 18.9883 114.168 19.0918 114.163 19.1684L114.162 19.1903C114.157 19.3093 114.157 19.4289 114.158 19.5486C114.16 19.8303 114.161 20.1125 114.084 20.3891C114.076 20.5656 114.069 20.742 114.062 20.9184L114.062 20.919L114.062 20.9197L114.062 20.9201L114.062 20.9205L114.062 20.9208C114.045 21.3438 114.028 21.7665 113.993 22.1883C113.97 22.4669 114.052 22.5384 114.327 22.535C115.436 22.5212 116.546 22.5212 117.654 22.535C117.929 22.5384 118 22.4591 118 22.19C117.995 20.8824 117.997 19.5748 117.999 18.2672C118.001 15.9239 118.004 13.5807 117.973 11.2374L117.972 11.2391L117.971 11.2382ZM111.833 19.0437C109.96 19.9907 107.994 20.133 106.007 19.4413C104.69 18.9816 104.093 17.649 104.594 16.47C104.892 15.7645 105.5 15.4609 106.196 15.2884C106.742 15.153 107.302 15.1125 107.863 15.1125H110.476C110.753 15.1125 111.029 15.1131 111.305 15.1137C112.077 15.1154 112.849 15.117 113.622 15.1056C113.909 15.1021 114.001 15.1763 113.989 15.4721C113.925 17.0565 113.281 18.3114 111.834 19.0437H111.833ZM74.2273 5.34745C76.916 6.32809 78.3811 8.33594 78.4591 11.1528H78.4582L78.4599 11.1545C78.5298 13.6646 78.5189 16.177 78.508 18.6897V18.6898V18.6899L78.508 18.693C78.5029 19.8745 78.4978 21.056 78.5011 22.2374C78.5028 22.4677 78.4351 22.535 78.2029 22.5332C77.065 22.5229 75.9255 22.5246 74.7877 22.5332C74.5529 22.535 74.4801 22.4642 74.4981 22.2305C74.5331 21.7612 74.5558 21.2909 74.5785 20.8204L74.5786 20.819L74.5787 20.8176C74.587 20.6449 74.5953 20.4722 74.6043 20.2994C74.552 20.1301 74.5667 19.9556 74.5814 19.7812C74.5996 19.5638 74.6179 19.3466 74.5066 19.1394C73.7886 21.2697 72.1701 22.2978 70.0487 22.6583C68.2648 22.961 66.4947 22.8972 64.7554 22.3236C61.7591 21.3344 60.318 17.9629 61.7805 15.2824C62.4677 14.0205 63.6321 13.4065 64.9687 13.0399C65.9729 12.7639 67.0028 12.6949 68.0395 12.6949C68.7426 12.6961 69.446 12.6959 70.1495 12.6956H70.1496H70.1497C71.4564 12.6951 72.7637 12.6946 74.0714 12.7035C74.3927 12.7079 74.5118 12.6423 74.4955 12.299C74.4858 12.1097 74.4821 11.9202 74.4783 11.7308V11.7307V11.7306V11.7305C74.4683 11.2192 74.4583 10.7082 74.3301 10.2023C74.0834 9.2243 73.523 8.4955 72.5908 8.12549C70.8969 7.45276 69.1482 7.42861 67.432 8.00561C66.062 8.46704 65.4888 9.35453 65.5436 10.7854C65.5616 11.2589 65.416 11.3287 64.9953 11.3149C64.0648 11.2848 63.1317 11.2917 62.2012 11.3149C61.8859 11.3236 61.8234 11.2184 61.7985 10.9242C61.5432 7.8633 63.226 6.06589 65.7895 5.25085C68.5913 4.35818 71.4453 4.33317 74.2273 5.34745ZM71.9508 19.2351C73.577 18.5589 74.3952 17.2937 74.4895 15.5506C74.5075 15.2211 74.4432 15.0892 74.0688 15.0995C73.3337 15.1194 72.5981 15.116 71.8624 15.1125C71.5795 15.1112 71.2965 15.1099 71.0135 15.1099H68.3556C67.7936 15.1099 67.2341 15.1504 66.6892 15.2875C65.9952 15.4635 65.3868 15.7653 65.0972 16.4778C64.6166 17.6645 65.188 18.9479 66.4784 19.4249C68.3188 20.1062 70.1635 19.9777 71.9508 19.2351ZM95.889 4.87046C95.5677 4.86356 95.4555 4.9938 95.3621 5.25254C93.9509 9.11128 92.5363 12.9683 91.1192 16.8253C91.0023 17.1455 90.8823 17.4642 90.7551 17.8018L90.7551 17.8019L90.7549 17.8026C90.6639 18.044 90.5694 18.2951 90.4697 18.5632C90.2146 17.9485 89.976 17.3761 89.7447 16.8211C89.5852 16.4386 89.4292 16.0644 89.2736 15.6903C87.8111 12.1645 86.3485 8.63692 84.8868 5.11023L84.8782 5.08973C84.8309 4.97631 84.7892 4.8765 84.6186 4.8765C83.5159 4.88166 82.4145 4.88103 81.2903 4.88039C80.9121 4.88017 80.5313 4.87995 80.147 4.87995C80.3224 5.28037 80.4886 5.6621 80.6516 6.03626C80.7529 6.26896 80.853 6.49873 80.9532 6.72825C81.4253 7.81118 81.8978 8.89398 82.3702 9.97681L82.373 9.98321L82.3739 9.98527C84.0767 13.8877 85.7796 17.7905 87.4641 21.7C87.7143 22.2814 87.9756 22.6876 88.6859 22.5323C88.7008 22.529 88.7186 22.5386 88.7428 22.5517C88.756 22.5588 88.7711 22.567 88.7887 22.5746C88.3697 23.6044 87.9439 24.6273 87.2687 25.5269C86.7075 26.2772 85.975 26.7067 85.0128 26.7205C84.359 26.7292 83.7147 26.6938 83.0798 26.5265C82.51 26.3773 82.5083 26.3842 82.5083 26.9491V28.3575V28.3727C82.5083 29.5687 82.5083 29.5979 83.7207 29.8237C85.0556 30.0739 86.3991 30.0928 87.7057 29.6512C89.2042 29.1441 90.1664 28.035 90.9401 26.7309C91.8896 25.1275 92.5269 23.3929 93.1638 21.6594L93.1639 21.6593C93.3235 21.2248 93.4831 20.7903 93.6476 20.358C94.7709 17.4036 95.881 14.4449 96.9912 11.4861L96.9923 11.4831L96.9996 11.4636C97.3042 10.6519 97.6088 9.84015 97.9136 9.02848C98.2165 8.22234 98.5172 7.4156 98.8217 6.59886L98.8237 6.59359L98.8276 6.58305C99.0372 6.02084 99.2486 5.45388 99.4636 4.87909C99.128 4.87909 98.7958 4.88026 98.4661 4.88142L98.4658 4.88142H98.4658C97.5953 4.88449 96.7419 4.8875 95.8882 4.86874L95.8899 4.87046H95.889ZM58.3723 5.43711C58.6088 6.81794 58.0347 7.84774 57.1402 8.89134V8.88962C55.0726 11.3019 53.0568 13.76 51.0411 16.2178C50.2887 17.1352 49.5363 18.0527 48.7813 18.9677C48.7371 19.0211 48.6965 19.0769 48.6546 19.1346C48.6356 19.1609 48.6163 19.1874 48.5962 19.2144C48.7068 19.3008 48.8214 19.2903 48.9309 19.2802C48.9656 19.277 48.9998 19.2739 49.0332 19.2739C52.0046 19.2791 54.9768 19.2842 57.9482 19.2687C58.3063 19.267 58.386 19.3688 58.3775 19.7051C58.3543 20.5391 58.3612 21.3757 58.3757 22.2115C58.3809 22.4625 58.3029 22.5332 58.051 22.5332C53.2452 22.528 48.4403 22.528 43.6344 22.5332C43.4091 22.5332 43.3243 22.4745 43.3294 22.2391C43.3457 21.581 43.3474 20.9204 43.3294 20.2606C43.3223 20.0415 43.435 19.9064 43.5538 19.7639C43.5641 19.7516 43.5744 19.7392 43.5847 19.7267C46.6864 15.9792 49.7871 12.2326 52.8905 8.48167C52.9327 8.42967 52.9735 8.37652 53.027 8.30675C53.0658 8.25616 53.1113 8.19683 53.1689 8.12287H52.606C51.9347 8.12287 51.2634 8.12249 50.5919 8.12211C48.4096 8.12087 46.2269 8.11963 44.0457 8.1315C43.6876 8.13495 43.6045 8.03318 43.6147 7.69508C43.6396 6.86107 43.6327 6.02532 43.6165 5.18872C43.6113 4.93946 43.6858 4.87391 43.936 4.87391C48.6382 4.88254 53.3395 4.88254 58.0416 4.87391C58.3243 4.87219 58.4134 4.95498 58.3723 5.21718C58.362 5.28963 58.3595 5.36639 58.3723 5.43711Z" fill="black"/>
</svg>
