<?xml version="1.0" standalone="no"?>
<!DOCTYPE svg PUBLIC "-//W3C//DTD SVG 1.1//EN" "http://www.w3.org/Graphics/SVG/1.1/DTD/svg11.dtd" >
<svg xmlns="http://www.w3.org/2000/svg" xmlns:xlink="http://www.w3.org/1999/xlink" version="1.1">
<metadata>
Created by FontForge 20170731 at Wed Jan 11 19:39:43 2023
 By Aleksey,,,
Copyright (c) 2013 by Mariya Pigoulevskaya. All rights reserved.
</metadata>
<defs>
<font id="Acrom-Bold" horiz-adv-x="1316" >
  <font-face 
    font-family="Acrom Bold"
    font-weight="700"
    font-stretch="normal"
    units-per-em="2048"
    panose-1="0 0 8 0 0 0 0 0 0 0"
    ascent="1536"
    descent="-512"
    x-height="1024"
    cap-height="1434"
    bbox="0 -811 2511 2171"
    underline-thickness="102"
    underline-position="-307"
    unicode-range="U+0020-25CA"
  />
<missing-glyph horiz-adv-x="1024" 
d="M0 0v1434h1024v-1434h-1024zM512 809l348 522h-696zM573 717l349 -522v1044zM164 102h696l-348 523zM102 1239v-1044l349 522z" />
    <glyph glyph-name=".notdef" horiz-adv-x="1024" 
d="M0 0v1434h1024v-1434h-1024zM512 809l348 522h-696zM573 717l349 -522v1044zM164 102h696l-348 523zM102 1239v-1044l349 522z" />
    <glyph glyph-name=".null" horiz-adv-x="0" 
 />
    <glyph glyph-name="nonmarkingreturn" horiz-adv-x="682" 
 />
    <glyph glyph-name="space" unicode=" " horiz-adv-x="690" 
 />
    <glyph glyph-name="exclam" unicode="!" horiz-adv-x="536" 
d="M410 1434v-551l-25 -494h-233l-25 492v553h283zM268 262q65 0 109.5 -40.5t44.5 -98.5q0 -57 -45 -97t-109 -40q-66 0 -110.5 40t-44.5 97q0 59 44.5 99t110.5 40z" />
    <glyph glyph-name="quotedbl" unicode="&#x22;" horiz-adv-x="669" 
d="M272 1057h-141l-18 377h178zM539 1057h-142l-18 377h178z" />
    <glyph glyph-name="numbersign" unicode="#" horiz-adv-x="1406" 
d="M954 573h250l-30 -145h-250l-90 -428h-164l90 428h-240l-90 -428h-164l92 428h-245l30 145h246l57 275h-243l30 147h244l94 439h164l-94 -439h240l94 439h164l-95 -439h248l-30 -147h-248zM610 848l-57 -275h240l57 275h-240z" />
    <glyph glyph-name="dollar" unicode="$" horiz-adv-x="1402" 
d="M1290 428q0 -191 -143.5 -309.5t-370.5 -130.5v-92h-162v96q-164 21 -293 98t-208 184l184 170q45 -62 126.5 -113.5t190.5 -70.5v361q-469 62 -469 391q0 183 131.5 298.5t337.5 133.5v92h162v-94q128 -17 250 -78t219 -154l-184 -170q-58 48 -135 82.5t-150 48.5v-303
h6q115 -14 203 -42.5t159 -78.5t108.5 -130.5t37.5 -188.5zM428 1022q0 -57 49 -87.5t137 -45.5v289q-77 -11 -131.5 -49t-54.5 -107zM776 602v-348q107 9 169.5 55t62.5 119q0 80 -60.5 118.5t-171.5 55.5z" />
    <glyph glyph-name="percent" unicode="%" horiz-adv-x="1691" 
d="M467 1448q150 0 253 -99t103 -241t-103 -241t-253 -99q-149 0 -251.5 99t-102.5 241t102.5 241t251.5 99zM1315 1434l-772 -1434h-166l772 1434h166zM469 1280q-73 0 -121.5 -48t-48.5 -124q0 -75 48.5 -122.5t121.5 -47.5t121.5 47.5t48.5 122.5q0 76 -48.5 124
t-121.5 48zM1223 666q150 0 253 -99.5t103 -240.5q0 -142 -103 -241t-253 -99q-149 0 -252 99.5t-103 240.5q0 140 103.5 240t251.5 100zM1223 496q-73 0 -121.5 -47.5t-48.5 -122.5q0 -77 48.5 -124.5t121.5 -47.5t121.5 47.5t48.5 124.5q0 75 -48.5 122.5t-121.5 47.5z
" />
    <glyph glyph-name="ampersand" unicode="&#x26;" horiz-adv-x="1419" 
d="M1032 0l-88 96q-127 -100 -323 -100h-13q-119 1 -214 33t-156 88.5t-93 132t-32 164.5q0 117 62.5 206t166.5 130l-49 51q-121 132 -121 274q0 68 27 130t77.5 112.5t133.5 80t186 29.5h25q96 -1 177.5 -32.5t137 -85.5t86.5 -126.5t31 -154.5v-29h-269q0 83 -50 126.5
t-132 43.5q-69 0 -119.5 -39.5t-50.5 -111.5t57 -135l431 -459q22 58 22 119h195q0 -160 -64 -291l232 -252h-273zM625 256q88 0 139 39l-297 317q-86 -47 -86 -143q0 -98 68 -155.5t176 -57.5z" />
    <glyph glyph-name="quotesingle" unicode="'" horiz-adv-x="403" 
d="M272 1057h-141l-18 377h178z" />
    <glyph glyph-name="parenleft" unicode="(" horiz-adv-x="782" 
d="M668 1530v-268q-131 -127 -201 -296.5t-70 -326.5v-31q0 -159 69.5 -329t201.5 -299v-267q-175 99 -302.5 248.5t-190 315t-62.5 331.5v31q1 166 63.5 331t189.5 314t302 246z" />
    <glyph glyph-name="parenright" unicode=")" horiz-adv-x="782" 
d="M113 1262v268q175 -97 302.5 -246t190 -314.5t62.5 -330.5v-31q0 -166 -62 -331.5t-189.5 -315t-303.5 -248.5v267q132 129 202 299t70 329v31q-2 159 -71.5 328t-200.5 295z" />
    <glyph glyph-name="asterisk" unicode="*" horiz-adv-x="980" 
d="M795 829l-115 -94l-191 269l-192 -269l-113 92l219 240l-290 63l39 142l282 -98l-18 294h147l-18 -297l282 101l39 -142l-293 -63z" />
    <glyph glyph-name="plus" unicode="+" horiz-adv-x="1075" 
d="M625 637h336v-162h-336v-342h-176v342h-336v162h336v344h176v-344z" />
    <glyph glyph-name="comma" unicode="," horiz-adv-x="673" 
d="M559 262l-256 -557h-190l172 557h274z" />
    <glyph glyph-name="hyphen" unicode="-" horiz-adv-x="735" 
d="M621 510h-508v162h508v-162z" />
    <glyph glyph-name="period" unicode="." horiz-adv-x="536" 
d="M268 262q65 0 109.5 -40.5t44.5 -98.5q0 -57 -45 -97t-109 -40q-66 0 -110.5 40t-44.5 97q0 59 44.5 99t110.5 40z" />
    <glyph glyph-name="slash" unicode="/" horiz-adv-x="880" 
d="M766 1434l-490 -1434h-163l489 1434h164z" />
    <glyph glyph-name="zero" unicode="0" horiz-adv-x="1671" 
d="M836 1419q146 0 279 -57t228.5 -153t152 -228.5t56.5 -278.5t-56.5 -279t-152 -228.5t-228.5 -152t-279 -56.5q-195 0 -360 95.5t-261 260.5t-96 360q0 146 56.5 278.5t152.5 228.5t229 153t279 57zM836 1153q-184 0 -308.5 -127t-124.5 -324q0 -198 124 -323t309 -125
q186 0 310 125t124 323q0 197 -124.5 324t-309.5 127z" />
    <glyph glyph-name="one" unicode="1" horiz-adv-x="913" 
d="M700 0h-282v905l-148 -176l-182 139l444 535h168v-1403z" />
    <glyph glyph-name="two" unicode="2" horiz-adv-x="1300" 
d="M1194 0h-1085v170l589 494q98 79 146.5 140.5t48.5 135.5q0 98 -67 154.5t-169 58.5h-12q-75 0 -152.5 -36.5t-173.5 -121.5l-184 168q253 256 533 256h16q117 -1 211.5 -37t153 -95t89.5 -133.5t31 -156.5q0 -102 -47 -196.5t-126 -176.5t-208 -184l-200 -174h606v-266z
" />
    <glyph glyph-name="three" unicode="3" horiz-adv-x="1333" 
d="M1163 1237l-403 -389q58 4 96 2q176 -24 272.5 -136t96.5 -270q0 -94 -31.5 -174.5t-93.5 -144t-164.5 -101t-235.5 -38.5h-14q-340 3 -577 262l184 170q106 -91 196 -128.5t193 -37.5h14q116 1 189 67.5t73 165.5q0 102 -67 159.5t-207 57.5q-12 0 -25 -1t-24 -2.5
t-24 -4.5t-22 -5.5t-22 -6.5t-20 -6.5t-19.5 -7.5t-17 -6.5t-16 -6.5t-13.5 -6l-133 101l404 389h-514v264h925v-166z" />
    <glyph glyph-name="four" unicode="4" horiz-adv-x="1286" 
d="M1061 227v-227h-283v227h-690v166l805 1010h168v-909h139v-267h-139zM776 944l-358 -450h358v450z" />
    <glyph glyph-name="five" unicode="5" horiz-adv-x="1325" 
d="M1083 1139h-618v-285q41 29 115 52.5t172 23.5q225 0 346 -128t121 -335q0 -91 -32 -174.5t-94.5 -152.5t-167.5 -111t-239 -43h-16q-324 3 -561 262l184 170q107 -92 192 -129t185 -37h14q113 2 189.5 64.5t76.5 170.5q0 114 -74 176t-208 62q-159 0 -320 -113l-133 101
v690h868v-264z" />
    <glyph glyph-name="six" unicode="6" horiz-adv-x="1271" 
d="M688 1419h12q264 -2 435 -192l-183 -170q-70 52 -128 74t-126 22h-10q-129 0 -209 -102t-98 -263q44 75 127.5 119.5t193.5 44.5q128 0 232 -54.5t167.5 -163t63.5 -253.5q0 -94 -34 -181.5t-96 -158t-161.5 -113t-220.5 -42.5q-237 0 -390.5 168t-153.5 434v78
q0 218 67.5 387.5t200 267.5t311.5 98zM637 713q-105 0 -175.5 -64.5t-70.5 -159.5q0 -102 67.5 -168.5t178.5 -66.5q105 0 174.5 64t69.5 163q0 101 -69.5 166.5t-174.5 65.5z" />
    <glyph glyph-name="seven" unicode="7" horiz-adv-x="1144" 
d="M1059 1237l-668 -1237h-301l615 1139h-617v264h971v-166z" />
    <glyph glyph-name="eight" unicode="8" horiz-adv-x="1239" 
d="M891 745q109 -40 175.5 -127.5t66.5 -207.5q0 -187 -133 -305t-371 -119h-13q-239 0 -373 118.5t-134 305.5q0 120 66 208t175 127q-194 99 -194 306q0 68 29 132.5t83 118t143 85.5t199 32h25q109 0 197.5 -32.5t142.5 -86t83 -117.5t29 -132q0 -206 -196 -306zM422 999
q0 -82 56 -126t143 -44q86 0 141 44t55 126q0 83 -55 126.5t-141 43.5q-88 0 -143.5 -43.5t-55.5 -126.5zM621 248q108 0 175.5 57t67.5 154q0 96 -66.5 152.5t-176.5 56.5q-43 0 -84.5 -12t-78 -36t-59 -65.5t-22.5 -95.5q0 -97 68 -154t176 -57z" />
    <glyph glyph-name="nine" unicode="9" horiz-adv-x="1271" 
d="M586 -14h-13q-265 2 -436 192l185 170q69 -53 126.5 -74.5t126.5 -21.5h11q129 0 209 101.5t98 262.5q-44 -75 -127.5 -119t-194.5 -44q-127 0 -231 54.5t-167.5 162.5t-63.5 252q0 94 34 182.5t96.5 159t161.5 113t220 42.5q236 0 390 -168.5t154 -433.5v-78
q0 -218 -67.5 -387.5t-200 -267.5t-311.5 -98zM637 692q104 0 174 63.5t70 157.5q0 103 -67.5 170.5t-176.5 67.5q-106 0 -176 -64t-70 -165q0 -100 70 -165t176 -65z" />
    <glyph glyph-name="colon" unicode=":" horiz-adv-x="536" 
d="M268 926q64 0 109 -40.5t45 -97.5q0 -58 -44.5 -98.5t-109.5 -40.5q-66 0 -110.5 40t-44.5 99q0 57 44.5 97.5t110.5 40.5zM268 262q65 0 109.5 -40.5t44.5 -98.5q0 -57 -45 -97t-109 -40q-66 0 -110.5 40t-44.5 97q0 59 44.5 99t110.5 40z" />
    <glyph glyph-name="semicolon" unicode=";" horiz-adv-x="706" 
d="M438 926q64 0 109 -40.5t45 -97.5q0 -58 -44.5 -98.5t-109.5 -40.5q-66 0 -110.5 40t-44.5 99q0 57 44.5 97.5t110.5 40.5zM559 262l-256 -557h-190l172 557h274z" />
    <glyph glyph-name="less" unicode="&#x3c;" horiz-adv-x="978" 
d="M866 885l-342 -187l342 -182v-231l-753 415l753 414v-229z" />
    <glyph glyph-name="equal" unicode="=" horiz-adv-x="1075" 
d="M961 602h-848v162h848v-162zM961 311h-848v162h848v-162z" />
    <glyph glyph-name="greater" unicode="&#x3e;" horiz-adv-x="978" 
d="M866 700l-753 -415v231l340 182l-340 187v229z" />
    <glyph glyph-name="question" unicode="?" horiz-adv-x="1343" 
d="M690 1448h17q131 -2 233.5 -40t164 -101t93 -141.5t31.5 -168.5q0 -181 -118 -292t-312 -140v-170h-283v326q107 -6 187.5 4t129 31t78.5 54t41 68t11 78q0 97 -73.5 161t-191.5 65h-12q-101 0 -191 -38t-198 -128l-184 170q248 262 577 262zM657 262q65 0 109.5 -40.5
t44.5 -98.5q0 -57 -45 -97t-109 -40q-66 0 -110.5 40t-44.5 97q0 59 44.5 99t110.5 40z" />
    <glyph glyph-name="at" unicode="@" horiz-adv-x="1886" 
d="M942 1354q174 0 329 -63.5t265 -171.5t174 -257t64 -315v-119q0 -165 -81.5 -262t-222.5 -98q-167 3 -223 116l-8 47q-54 -80 -139 -125t-189 -45q-186 0 -309 131t-123 320q0 190 123.5 321.5t308.5 131.5q93 0 170.5 -38.5t130.5 -105.5l11 131h143v-590
q0 -65 30.5 -98t78.5 -33q25 0 43 7.5t34.5 27.5t25.5 61t9 101v111q0 119 -35 222.5t-96 180t-142.5 132t-176.5 83t-195 27.5q-122 0 -236.5 -46t-205.5 -128.5t-146 -209.5t-55 -278t55 -278t146 -209t205.5 -127t236.5 -45q192 0 356 108l123 -125q-215 -153 -479 -153
q-227 0 -417.5 110.5t-301 301t-110.5 417.5q0 169 65 323t176 265.5t264.5 177.5t323.5 66zM932 760q-96 0 -167 -69.5t-71 -178.5t71 -177.5t167 -68.5q97 0 168 68.5t71 177.5t-71 178.5t-168 69.5z" />
    <glyph glyph-name="A" unicode="A" horiz-adv-x="1513" 
d="M504 262l-103 -262h-313l590 1434h166l581 -1434h-313l-102 262h-506zM758 922l-156 -392h309z" />
    <glyph glyph-name="B" unicode="B" horiz-adv-x="1417" 
d="M215 1434h553q86 0 157.5 -14t120.5 -36.5t87 -55t60 -66t36 -72.5t19 -71.5t5 -65.5q0 -116 -50.5 -193t-137.5 -112q112 -26 178 -117t66 -219q0 -89 -27 -160.5t-86.5 -129.5t-165.5 -90t-252 -32h-563v1434zM498 1167v-307h301q54 0 93 14t58.5 38t28 49t8.5 53
q0 153 -188 153h-301zM498 616v-348h340q108 0 156 48.5t48 125.5q0 74 -50.5 124t-153.5 50h-340z" />
    <glyph glyph-name="C" unicode="C" horiz-adv-x="1497" 
d="M848 1448q156 0 296.5 -63.5t244.5 -174.5l-185 -170q-145 142 -356 142q-190 0 -318.5 -131t-128.5 -334q0 -204 128.5 -334.5t318.5 -130.5q215 0 356 141l185 -170q-103 -111 -243.5 -174t-297.5 -63q-148 0 -283.5 58t-233 156t-155 233.5t-57.5 283.5t57.5 283.5
t155 233.5t233 156t283.5 58z" />
    <glyph glyph-name="D" unicode="D" horiz-adv-x="1560" 
d="M215 1434h498q200 0 366.5 -91.5t264.5 -256.5t98 -369q0 -154 -57.5 -288t-155.5 -227.5t-232 -147.5t-284 -54h-498v1434zM498 266h215q194 0 320 119.5t126 331.5q0 210 -126 330t-320 120h-215v-901z" />
    <glyph glyph-name="E" unicode="E" horiz-adv-x="1277" 
d="M498 854h620v-266h-620v-322h671v-266h-954v1434h954v-267h-671v-313z" />
    <glyph glyph-name="F" unicode="F" horiz-adv-x="1277" 
d="M498 854h620v-266h-620v-588h-283v1434h954v-267h-671v-313z" />
    <glyph glyph-name="G" unicode="G" horiz-adv-x="1583" 
d="M848 1446q156 0 296.5 -63.5t244.5 -174.5l-185 -170q-142 142 -356 142q-190 0 -318.5 -130.5t-128.5 -334.5q0 -203 128.5 -334t318.5 -131q145 0 258 80v248h-262v213h545v-570q-103 -111 -243.5 -174t-297.5 -63q-148 0 -283.5 58t-233 156t-155 233.5t-57.5 283.5
t57.5 283.5t155 233.5t233 156t283.5 58z" />
    <glyph glyph-name="H" unicode="H" horiz-adv-x="1552" 
d="M1335 0h-282v588h-555v-588h-283v1434h283v-580h555v580h282v-1434z" />
    <glyph glyph-name="I" unicode="I" horiz-adv-x="1058" 
d="M670 266h172v-266h-627v266h172v901h-172v267h627v-267h-172v-901z" />
    <glyph glyph-name="J" unicode="J" horiz-adv-x="1245" 
d="M1126 1434v-910q0 -139 -40 -245t-110 -168.5t-159 -93.5t-194 -31t-194 31t-159.5 93.5t-110.5 168.5t-40 245v80h282v-121q0 -108 64 -169.5t158 -61.5t157.5 61.5t63.5 169.5v684h-420v267h702z" />
    <glyph glyph-name="K" unicode="K" horiz-adv-x="1525" 
d="M1118 0l-295 461q-48 76 -85.5 102.5t-108.5 26.5h-131v-590h-283v1434h283v-572h123q70 0 107.5 27t86.5 102l283 443h319l-338 -529q-100 -138 -166 -172q38 -17 77.5 -57t96.5 -129l351 -547h-320z" />
    <glyph glyph-name="L" unicode="L" horiz-adv-x="1230" 
d="M1143 0h-928v1434h283v-1168h645v-266z" />
    <glyph glyph-name="M" unicode="M" horiz-adv-x="1837" 
d="M1622 0h-283v915l-432 -536l-430 536v-915h-282v1434h167l545 -684l547 684h168v-1434z" />
    <glyph glyph-name="N" unicode="N" horiz-adv-x="1517" 
d="M1323 0h-168l-678 903v-903h-282v1434h165l680 -904v904h283v-1434z" />
    <glyph glyph-name="O" unicode="O" horiz-adv-x="1697" 
d="M848 1448q148 0 283.5 -58t233.5 -156t156 -233.5t58 -283.5q0 -200 -98 -368t-266.5 -265.5t-366.5 -97.5t-366 97.5t-265.5 265.5t-97.5 368q0 148 57.5 283.5t155 233.5t233 156t283.5 58zM848 1182q-190 0 -318.5 -131t-128.5 -334q0 -204 128.5 -334.5t318.5 -130.5
q191 0 319.5 130.5t128.5 334.5q0 203 -128.5 334t-319.5 131z" />
    <glyph glyph-name="P" unicode="P" horiz-adv-x="1443" 
d="M215 1434h471q147 0 268.5 -42t202 -116t124.5 -175t44 -218q0 -119 -44 -220.5t-124.5 -175t-202 -115.5t-268.5 -42h-188v-330h-283v1434zM498 596h211q95 0 171.5 28.5t126.5 95t50 163.5q0 93 -50 158.5t-127 95.5t-171 30h-211v-571z" />
    <glyph glyph-name="Q" unicode="Q" horiz-adv-x="1771" 
d="M848 1448q148 0 283.5 -58t233.5 -156t156 -233.5t58 -283.5q0 -138 -57 -261t-154 -204h287v-266h-807q-198 0 -366 97.5t-265.5 265.5t-97.5 368q0 148 57.5 283.5t155 233.5t233 156t283.5 58zM848 1182q-190 0 -318.5 -131t-128.5 -334q0 -204 128.5 -334.5
t318.5 -130.5q191 0 319.5 130.5t128.5 334.5q0 203 -128.5 334t-319.5 131z" />
    <glyph glyph-name="R" unicode="R" horiz-adv-x="1439" 
d="M215 1434h487q147 0 266 -42t196.5 -115t119 -171.5t41.5 -212.5q0 -159 -81 -276.5t-228 -174.5q90 -57 213 -252l123 -190h-318l-92 143q-85 131 -134.5 167.5t-152.5 39.5h-157v-350h-283v1434zM498 1167v-551h231q147 0 237.5 69.5t90.5 207.5q0 132 -92 203t-236 71
h-231z" />
    <glyph glyph-name="S" unicode="S" horiz-adv-x="1392" 
d="M672 1448h16q147 0 292.5 -65t260.5 -173l-184 -170q-77 63 -183 102.5t-186 39.5h-16q-39 0 -79 -8t-79.5 -25t-64.5 -50t-25 -77q0 -35 18.5 -60t54 -40.5t74.5 -24.5t93 -16l114 -13q115 -14 203 -42.5t159 -78.5t108.5 -130.5t37.5 -188.5q0 -200 -157 -320
t-400 -122h-12q-202 0 -358.5 81t-249.5 207l184 170q54 -78 165.5 -135t258.5 -57h12q126 2 200.5 48.5t74.5 127.5q0 36 -14 64.5t-36.5 47t-58 32t-72 21t-84.5 13.5l-112 12q-486 59 -486 394q0 131 71 230.5t191 151.5t269 54z" />
    <glyph glyph-name="T" unicode="T" horiz-adv-x="1245" 
d="M764 1167v-1167h-283v1167h-393v267h1069v-267h-393z" />
    <glyph glyph-name="U" unicode="U" horiz-adv-x="1572" 
d="M1378 1434v-832q0 -150 -48 -270t-130 -194t-185 -113t-218 -39q-116 0 -219 39t-185 113t-130 194t-48 270v832h283v-826q0 -78 17 -139.5t45 -101.5t67 -66.5t81 -37.5t89 -11t89 11t81 37.5t67 66.5t45 101.5t17 139.5v826h282z" />
    <glyph glyph-name="V" unicode="V" horiz-adv-x="1517" 
d="M848 0h-168l-592 1434h313l359 -916l358 916h314z" />
    <glyph glyph-name="W" unicode="W" horiz-adv-x="2365" 
d="M1700 0h-168l-348 862l-350 -862h-166l-580 1434h313l347 -914l352 914h166l352 -914l346 914h313z" />
    <glyph glyph-name="X" unicode="X" horiz-adv-x="1486" 
d="M741 487l-329 -487h-324l498 748l-465 686h321l306 -439l299 439h321l-465 -699l498 -735h-322z" />
    <glyph glyph-name="Y" unicode="Y" horiz-adv-x="1478" 
d="M881 0h-283v479l-510 955h322l331 -607l330 607h322l-512 -955v-479z" />
    <glyph glyph-name="Z" unicode="Z" horiz-adv-x="1282" 
d="M1176 0h-1067v166l657 1001h-602v267h993v-168l-657 -1000h676v-266z" />
    <glyph glyph-name="bracketleft" unicode="[" horiz-adv-x="643" 
d="M395 -18h133v-269h-415v1823h415v-266h-133v-1288z" />
    <glyph glyph-name="backslash" unicode="\" horiz-adv-x="880" 
d="M766 0h-162l-491 1434h163z" />
    <glyph glyph-name="bracketright" unicode="]" horiz-adv-x="643" 
d="M113 1270v266h415v-1823h-415v269h133v1288h-133z" />
    <glyph glyph-name="asciicircum" unicode="^" horiz-adv-x="1050" 
d="M936 795h-166l-246 374l-245 -374h-166l411 628z" />
    <glyph glyph-name="underscore" unicode="_" horiz-adv-x="1075" 
d="M963 -227h-850v123h850v-123z" />
    <glyph glyph-name="grave" unicode="`" horiz-adv-x="679" 
d="M391 1509l174 -299h-196l-256 299h278z" />
    <glyph glyph-name="a" unicode="a" 
d="M1141 0h-174l-15 145q-58 -73 -147 -115t-193 -42q-143 0 -257.5 70t-178 190t-63.5 264t63.5 264.5t178.5 191t257 70.5q104 0 193 -42.5t147 -116.5l15 145h174v-1024zM637 240q106 0 185 75.5t79 196.5t-79 197.5t-185 76.5q-107 0 -185.5 -76t-78.5 -198
q0 -121 78.5 -196.5t185.5 -75.5z" />
    <glyph glyph-name="b" unicode="b" 
d="M434 1434v-510q46 53 117.5 83.5t153.5 30.5q215 0 356 -152.5t141 -373.5q0 -145 -63 -264.5t-177.5 -189.5t-256.5 -70q-105 0 -194 41.5t-149 115.5l-14 -145h-174v1434h260zM678 786q-106 0 -185 -76.5t-79 -197.5t79 -196.5t185 -75.5q107 0 185.5 75.5t78.5 196.5
q0 122 -78.5 198t-185.5 76z" />
    <glyph glyph-name="c" unicode="c" horiz-adv-x="1144" 
d="M637 1036q119 0 224.5 -50t178.5 -138l-155 -168q-61 57 -119.5 80.5t-128.5 23.5q-107 0 -185.5 -75.5t-78.5 -196.5t78.5 -196.5t185.5 -75.5q70 0 128.5 23.5t119.5 80.5l155 -168q-73 -88 -178.5 -138t-224.5 -50q-143 0 -263.5 70t-190.5 190.5t-70 263.5t70 263.5
t190.5 190.5t263.5 70z" />
    <glyph glyph-name="d" unicode="d" 
d="M1141 0h-174l-15 145q-58 -73 -147 -115t-193 -42q-143 0 -257.5 70t-178 190t-63.5 264t63.5 264.5t178.5 191t257 70.5q82 0 152.5 -30.5t116.5 -83.5v510h260v-1434zM637 240q106 0 185 75.5t79 196.5t-79 197.5t-185 76.5q-107 0 -185.5 -76t-78.5 -198
q0 -121 78.5 -196.5t185.5 -75.5z" />
    <glyph glyph-name="e" unicode="e" horiz-adv-x="1218" 
d="M629 1038q161 0 275.5 -72t174.5 -204q31 -69 35.5 -163.5t-18.5 -158.5h-715q0 -101 72.5 -158t181.5 -57q168 0 309 72l137 -150q-215 -159 -446 -159t-376.5 148.5t-145.5 375.5q0 224 141.5 375t374.5 151zM629 801q-100 0 -167.5 -60t-70.5 -137h469q0 44 -24 82
q-27 52 -81.5 83.5t-125.5 31.5z" />
    <glyph glyph-name="f" unicode="f" horiz-adv-x="829" 
d="M725 1444v-236h-18q-97 0 -148 -34t-51 -125v-25h217v-252h-219v-774h-260v774h-133v252h137v33q0 196 123.5 298.5t320.5 90.5z" />
    <glyph glyph-name="g" unicode="g" horiz-adv-x="1306" 
d="M602 1038q104 0 193 -42t147 -115l14 143h174v-893q0 -229 -139.5 -375.5t-374.5 -146.5q-259 0 -452 160l147 157q81 -41 152.5 -61t152.5 -19q115 0 182.5 58t67.5 168v57q-46 -52 -115.5 -81.5t-148.5 -29.5q-142 0 -257.5 70t-179 186t-63.5 252q0 137 63.5 254
t179 187.5t257.5 70.5zM627 786q-106 0 -185.5 -74t-79.5 -186q0 -111 79.5 -183.5t185.5 -72.5q105 0 184.5 73t79.5 183q0 112 -79.5 186t-184.5 74z" />
    <glyph glyph-name="h" unicode="h" horiz-adv-x="1341" 
d="M729 1038q216 0 331.5 -134t115.5 -363v-541h-261v524q0 262 -227 262q-116 0 -180 -70t-64 -214v-502h-260v1434h260v-516q48 61 122.5 90.5t162.5 29.5z" />
    <glyph glyph-name="i" unicode="i" horiz-adv-x="663" 
d="M336 1116q-63 0 -107.5 39t-44.5 96t44.5 96t107.5 39q65 0 109 -39t44 -96t-44 -96t-109 -39zM207 0v1024h260v-1024h-260z" />
    <glyph glyph-name="j" unicode="j" horiz-adv-x="663" 
d="M336 1386q65 0 109 -39t44 -96t-44 -96t-109 -39q-63 0 -107.5 39t-44.5 96t44.5 96t107.5 39zM467 -377h-262v1401h262v-1401z" />
    <glyph glyph-name="k" unicode="k" horiz-adv-x="1243" 
d="M887 0l-176 272q-49 75 -87 102t-108 27h-72v-401h-260v1434h260v-783h64q69 0 106.5 26.5t85.5 102.5l160 244h289l-229 -346q-34 -53 -73.5 -95t-72.5 -55q71 -22 156 -153l246 -375h-289z" />
    <glyph glyph-name="l" unicode="l" horiz-adv-x="612" 
d="M184 0v1434h262v-1434h-262z" />
    <glyph glyph-name="m" unicode="m" horiz-adv-x="2062" 
d="M1450 1038q216 0 331 -134t115 -363v-541h-260v524q0 262 -227 262q-116 0 -180 -70t-64 -214v-502h-260v524q0 262 -227 262q-116 0 -180 -70t-64 -214v-502h-260v1024h174l19 -160q52 85 144 129.5t208 44.5q128 0 221 -51t143 -147q49 96 145.5 147t221.5 51z" />
    <glyph glyph-name="n" unicode="n" horiz-adv-x="1331" 
d="M719 1038q216 0 331 -134t115 -363v-541h-260v524q0 262 -227 262q-116 0 -180 -70t-64 -214v-502h-260v1024h174l19 -160q52 85 144 129.5t208 44.5z" />
    <glyph glyph-name="o" unicode="o" horiz-adv-x="1275" 
d="M637 1038q143 0 264 -70.5t191.5 -191.5t70.5 -264t-70.5 -263.5t-191.5 -190.5t-264 -70t-263.5 70t-190.5 190.5t-70 263.5t70 264t190.5 191.5t263.5 70.5zM637 786q-107 0 -185.5 -76t-78.5 -198q0 -121 78.5 -196.5t185.5 -75.5q106 0 185 75.5t79 196.5t-79 197.5
t-185 76.5z" />
    <glyph glyph-name="p" unicode="p" horiz-adv-x="1302" 
d="M690 1036q142 0 257 -70t178 -190t63 -264q0 -145 -63 -265t-178 -190.5t-257 -70.5q-81 0 -152 31t-118 83v-477h-260v1401h174l14 -145q60 74 148.5 115.5t193.5 41.5zM666 784q-106 0 -185.5 -75.5t-79.5 -196.5t79.5 -197.5t185.5 -76.5q107 0 185.5 76t78.5 198
q0 121 -78.5 196.5t-185.5 75.5z" />
    <glyph glyph-name="q" unicode="q" 
d="M1141 -377h-260v477q-47 -52 -117.5 -83t-151.5 -31q-142 0 -257 70.5t-178.5 191t-63.5 264.5t63.5 264t178 190t257.5 70q104 0 193 -42t147 -115l15 145h174v-1401zM637 238q106 0 185 76.5t79 197.5t-79 196.5t-185 75.5q-107 0 -185.5 -75.5t-78.5 -196.5
q0 -122 78.5 -198t185.5 -76z" />
    <glyph glyph-name="r" unicode="r" horiz-adv-x="892" 
d="M825 786h-104q-140 0 -213.5 -86.5t-73.5 -236.5v-463h-260v1024h174l29 -221q59 111 161.5 173t243.5 62h43v-252z" />
    <glyph glyph-name="s" unicode="s" horiz-adv-x="1130" 
d="M553 1038h16q128 0 243.5 -51.5t182.5 -138.5l-147 -137q-48 53 -128.5 86.5t-148.5 33.5h-16q-72 -2 -115 -28t-43 -74q0 -43 37.5 -64t132.5 -28l70 -8q81 -6 147 -25.5t119.5 -56t83 -97t29.5 -141.5q0 -139 -112.5 -230t-299.5 -91h-10q-152 0 -284.5 53.5
t-196.5 142.5l147 140q45 -54 141 -89.5t191 -35.5h10q70 0 112 25t42 75q0 57 -41.5 80t-134.5 31l-58 6q-186 15 -285.5 89.5t-99.5 207.5q0 151 119 237t297 88z" />
    <glyph glyph-name="t" unicode="t" horiz-adv-x="735" 
d="M508 772v-772h-262v772h-133v252h133v344h262v-344h133v-252h-133z" />
    <glyph glyph-name="u" unicode="u" horiz-adv-x="1320" 
d="M1155 0h-174l-18 160q-52 -85 -143.5 -129.5t-207.5 -44.5q-218 0 -333 134t-115 363v541h260v-524q0 -262 229 -262q114 0 178 70.5t64 213.5v502h260v-1024z" />
    <glyph glyph-name="v" unicode="v" horiz-adv-x="1247" 
d="M709 0h-168l-473 1024h276l281 -641l282 641h275z" />
    <glyph glyph-name="w" unicode="w" horiz-adv-x="1955" 
d="M1423 0h-166l-278 608l-279 -608h-168l-464 1024h276l272 -641l279 641h168l278 -641l273 641h276z" />
    <glyph glyph-name="x" unicode="x" horiz-adv-x="1228" 
d="M612 315l-243 -315h-301l399 532l-377 492h301l227 -283l222 283h299l-377 -502l401 -522h-301z" />
    <glyph glyph-name="y" unicode="y" horiz-adv-x="1331" 
d="M1165 1024v-893q0 -112 -36 -208t-101 -165.5t-161.5 -109t-213.5 -39.5q-261 0 -454 160l147 157q82 -41 153.5 -61t153.5 -19q114 0 182 58.5t68 167.5v65q-47 -60 -121.5 -90.5t-158.5 -30.5q-217 0 -333 135.5t-116 364.5v508h260v-494q0 -262 230 -262
q114 0 177.5 70.5t63.5 214.5v471h260z" />
    <glyph glyph-name="z" unicode="z" horiz-adv-x="1095" 
d="M983 0h-870l2 197l477 575h-440v252h811l-2 -197l-478 -575h500v-252z" />
    <glyph glyph-name="braceleft" unicode="{" horiz-adv-x="835" 
d="M721 1270h-39q-42 0 -73 -32.5t-31 -82.5v-219q0 -119 -45 -199t-144 -98q186 -33 186 -262v-281q0 -49 32 -81.5t75 -32.5h39v-267h-86q-154 0 -245.5 90t-94.5 252l-2 246q-3 89 -23 135t-52.5 60.5t-94.5 17.5h-10v244h10q47 2 75.5 9.5t51.5 29t32.5 62t10.5 106.5
l2 227q3 161 94.5 251.5t245.5 90.5h86v-266z" />
    <glyph glyph-name="bar" unicode="|" horiz-adv-x="403" 
d="M291 -123h-178v1557h178v-1557z" />
    <glyph glyph-name="braceright" unicode="}" horiz-adv-x="835" 
d="M113 1536h86q154 0 246.5 -90.5t93.5 -251.5l2 -227q1 -66 11 -106.5t33 -62t51 -29t75 -9.5h10v-244h-10q-62 -3 -94.5 -17.5t-52.5 -60.5t-23 -135l-2 -246q-3 -162 -94.5 -252t-245.5 -90h-86v267h41q43 0 73.5 32t30.5 82v281q0 229 186 262q-186 33 -186 297v219
q0 50 -31 82.5t-73 32.5h-41v266z" />
    <glyph glyph-name="asciitilde" unicode="~" horiz-adv-x="1116" 
d="M1004 676l-86 -178q-27 -56 -68 -87.5t-85.5 -37t-87 3.5t-79.5 31l-125 73q-52 33 -107 31t-83 -49l-35 -57h-135l86 178q27 56 68 87.5t85 36.5t86.5 -4t79.5 -32l125 -72q53 -33 108 -31t83 47l36 60h134z" />
    <glyph glyph-name="exclamdown" unicode="&#xa1;" horiz-adv-x="536" 
d="M268 1118q65 0 109.5 -40.5t44.5 -98.5q0 -57 -45 -97t-109 -40q-66 0 -110.5 40t-44.5 97q0 59 44.5 99t110.5 40zM127 -330v553l25 490h233l25 -492v-551h-283z" />
    <glyph glyph-name="cent" unicode="&#xa2;" horiz-adv-x="1155" 
d="M713 776v-528q88 18 172 96l155 -168q-133 -155 -327 -182v-195h-162v195q-189 31 -313.5 177t-124.5 341t124.5 341t313.5 177v201h162v-201q194 -27 327 -182l-155 -168q-84 78 -172 96zM373 512q0 -95 50 -163.5t128 -94.5v516q-78 -26 -128 -94.5t-50 -163.5z" />
    <glyph glyph-name="sterling" unicode="&#xa3;" horiz-adv-x="1404" 
d="M889 537h-330q23 -88 9.5 -156.5t-79.5 -114.5h668v-266h-1040v176q118 77 150.5 159.5t13.5 201.5h-168v266h112q-19 108 -26 190q-6 111 34 199t114 143t172 84t212 29h17q146 -3 288.5 -67.5t253.5 -170.5l-182 -170q-80 63 -185.5 102.5t-185.5 39.5h-18
q-32 -1 -61.5 -5.5t-65 -20t-60.5 -39.5t-40 -68t-11 -101q4 -48 21 -145h387v-266z" />
    <glyph glyph-name="currency" unicode="&#xa4;" horiz-adv-x="1302" 
d="M1188 961l-131 -132q94 -129 94 -290t-94 -291l129 -129l-115 -115l-129 131q-129 -95 -290 -95t-290 95l-133 -133l-114 115l133 133q-95 129 -95 289.5t95 289.5l-133 132l114 114l133 -133q129 95 290 95.5t290 -93.5l131 131zM580 322q82 -31 166 8.5t112 136.5
t-13.5 176.5t-123.5 110.5q-55 18 -110 10.5t-102.5 -49.5t-66.5 -107q-28 -97 14 -176t124 -110z" />
    <glyph glyph-name="yen" unicode="&#xa5;" horiz-adv-x="1531" 
d="M1020 694h280v-315h-395v-379h-282v379h-394v315h279l-395 740h321l332 -607l330 607h321z" />
    <glyph glyph-name="brokenbar" unicode="&#xa6;" horiz-adv-x="403" 
d="M291 754h-178v680h178v-680zM291 -123h-178v678h178v-678z" />
    <glyph glyph-name="section" unicode="&#xa7;" horiz-adv-x="1130" 
d="M545 1278h24q128 0 243.5 -51.5t182.5 -139.5l-147 -137q-48 53 -128.5 87t-148.5 34h-20q-70 -2 -112 -28t-42 -74q0 -76 103 -86l65 -4q97 -1 177 -20t142.5 -58t97 -103t34.5 -149q0 -117 -82 -199q57 -66 57 -166q0 -148 -115 -234t-290 -91h-25q-129 0 -244 51
t-184 139l148 137q48 -53 128 -86.5t148 -33.5h16q73 2 115.5 28t42.5 74q0 36 -22 58t-80 28l-66 4q-66 1 -126.5 10.5t-121 33t-104 60t-71 94.5t-27.5 132q0 113 82 198q-58 67 -58 166q0 148 116.5 234.5t291.5 91.5zM418 674q-45 -25 -45 -76t42.5 -76.5t129.5 -34.5
l63 -6q60 -6 103 -18q45 25 45 76q0 52 -42.5 77t-131.5 33l-60 6q-54 5 -104 19z" />
    <glyph glyph-name="dieresis" unicode="&#xa8;" horiz-adv-x="972" 
d="M264 1241q-63 0 -107 39t-44 96q0 58 44 97.5t107 39.5q65 0 109.5 -39.5t44.5 -97.5q0 -57 -44.5 -96t-109.5 -39zM707 1241q-63 0 -107.5 39t-44.5 96q0 58 44.5 97.5t107.5 39.5q65 0 109 -39.5t44 -97.5q0 -57 -44 -96t-109 -39z" />
    <glyph glyph-name="copyright" unicode="&#xa9;" horiz-adv-x="1327" 
d="M664 1434q151 0 277 -74.5t198.5 -201.5t72.5 -277t-72.5 -277t-198.5 -201.5t-277 -74.5q-113 0 -215.5 44t-175.5 118.5t-116.5 176.5t-43.5 214t43.5 214t116.5 176.5t175.5 118.5t215.5 44zM664 1329q-187 0 -316 -131.5t-129 -316.5q0 -122 58.5 -225.5t161 -163.5
t225.5 -60t225 60t160.5 163.5t58.5 225.5q0 186 -129 317t-315 131zM664 1202q72 0 137 -31t110 -84l-94 -100q-75 66 -153 66q-66 0 -115 -48.5t-49 -123.5q0 -74 49 -122t115 -48q80 0 153 67l92 -102q-43 -55 -107.5 -86t-137.5 -31q-134 0 -228 94.5t-94 227.5t94 227
t228 94z" />
    <glyph glyph-name="guillemotleft" unicode="&#xab;" horiz-adv-x="1001" 
d="M518 678l-166 -150l166 -147v-229l-405 376l405 379v-229zM887 678l-166 -150l166 -147v-229l-406 376l406 379v-229z" />
    <glyph glyph-name="logicalnot" unicode="&#xac;" horiz-adv-x="1075" 
d="M784 475h-671v162h848v-373h-177v211z" />
    <glyph glyph-name="registered" unicode="&#xae;" horiz-adv-x="1327" 
d="M664 1434q151 0 277 -74.5t198.5 -201.5t72.5 -277t-72.5 -277t-198.5 -201.5t-277 -74.5q-113 0 -215.5 44t-175.5 118.5t-116.5 176.5t-43.5 214t43.5 214t116.5 176.5t175.5 118.5t215.5 44zM664 1329q-187 0 -316 -131.5t-129 -316.5q0 -122 58.5 -225.5t161 -163.5
t225.5 -60t225 60t160.5 163.5t58.5 225.5q0 186 -129 317t-315 131zM393 1186h299q72 0 124.5 -20t79 -53.5t38.5 -69.5t12 -76q0 -62 -37 -111t-104 -63l153 -215h-159l-140 186h-114v-186h-152v608zM545 1040v-147h162q88 0 88 74q0 73 -88 73h-162z" />
    <glyph glyph-name="macron" unicode="&#xaf;" horiz-adv-x="763" 
d="M649 1317h-536v192h536v-192z" />
    <glyph glyph-name="degree" unicode="&#xb0;" horiz-adv-x="741" 
d="M371 1513q106 0 181 -75.5t75 -182.5q0 -106 -75 -181t-181 -75q-107 0 -182.5 75t-75.5 181q0 107 75.5 182.5t182.5 75.5zM371 1366q-46 0 -78.5 -32.5t-32.5 -78.5t32.5 -78t78.5 -32q44 0 76 32t32 78t-32 78.5t-76 32.5z" />
    <glyph glyph-name="plusminus" unicode="&#xb1;" horiz-adv-x="1075" 
d="M625 807h336v-162h-336v-209h-176v209h-336v162h336v209h176v-209zM961 199h-848v161h848v-161z" />
    <glyph glyph-name="acute" unicode="&#xb4;" horiz-adv-x="679" 
d="M309 1210h-196l174 299h278z" />
    <glyph glyph-name="paragraph" unicode="&#xb6;" horiz-adv-x="1353" 
d="M1241 1270h-123v-1604h-178v1604h-154v-1604h-178v965q-83 0 -155 13t-135.5 42.5t-108 74t-70.5 112t-26 151.5q0 85 25.5 153.5t70.5 116t108 79.5t137 46.5t158 14.5h629v-164z" />
    <glyph glyph-name="periodcentered" unicode="&#xb7;" horiz-adv-x="536" 
d="M268 772q66 0 110 -45.5t44 -108.5t-44 -108t-110 -45q-67 0 -111 45t-44 108t44 108.5t111 45.5z" />
    <glyph glyph-name="cedilla" unicode="&#xb8;" horiz-adv-x="522" 
d="M258 0l-22 -70q26 12 56.5 9t56.5 -15t43.5 -42.5t17.5 -74.5q0 -61 -39 -100t-105 -40.5t-153 44.5v70q54 -28 93.5 -17t39.5 50q0 36 -27 47t-92 -15l55 154h76z" />
    <glyph glyph-name="guillemotright" unicode="&#xbb;" horiz-adv-x="1001" 
d="M518 528l-405 -376v229l166 147l-166 150v229zM887 528l-406 -376v229l166 147l-166 150v229z" />
    <glyph glyph-name="onequarter" unicode="&#xbc;" horiz-adv-x="1439" 
d="M289 1188l-80 -96l-96 73l223 269h137v-652h-184v406zM449 0h-164l706 1434h164zM1257 111v-111h-184v111h-330v94l387 446h127v-393h68v-147h-68zM1073 428l-151 -170h151v170z" />
    <glyph glyph-name="onehalf" unicode="&#xbd;" horiz-adv-x="1542" 
d="M473 782h-184v406l-80 -96l-96 73l223 269h137v-652zM449 0h-164l706 1434h164zM1430 0h-580v94l305 225q44 32 64 55.5t20 49.5q0 32 -25 54.5t-65 23.5h-8q-74 0 -164 -68l-113 105q74 64 147 96.5t165 32.5h8q103 -1 168 -61t65 -144q0 -73 -43.5 -126.5
t-136.5 -109.5l-92 -57h285v-170z" />
    <glyph glyph-name="threequarters" unicode="&#xbe;" horiz-adv-x="1570" 
d="M651 1313l-186 -144q30 -3 72 -12q76 -20 114.5 -65.5t38.5 -110.5q0 -86 -69.5 -149.5t-194.5 -63.5h-8q-175 0 -305 127l104 96q24 -19 40.5 -29.5t51 -22t72.5 -11.5q57 2 94 25.5t37 60.5q0 34 -30.5 53.5t-80.5 17.5q-48 -3 -79 -18l-58 45l197 164h-283v158h473
v-121zM580 0h-164l706 1434h164zM1391 111v-111h-185v111h-329v94l387 446h127v-393h67v-147h-67zM1204 428l-151 -170h151v170z" />
    <glyph glyph-name="questiondown" unicode="&#xbf;" horiz-adv-x="1343" 
d="M686 852q-66 0 -111 40t-45 97q0 59 45 99t111 40q65 0 109.5 -40.5t44.5 -98.5q0 -57 -45 -97t-109 -40zM653 -334h-18q-131 2 -233 39.5t-164 100.5t-93.5 141.5t-31.5 167.5q0 182 118 293.5t314 138.5v170h282v-326q-106 7 -186.5 -3t-129 -31t-78.5 -54.5t-41 -68.5
t-11 -78q0 -96 73 -159.5t189 -64.5h14q99 0 190 38t200 128l182 -170q-243 -262 -576 -262z" />
    <glyph glyph-name="Agrave" unicode="&#xc0;" horiz-adv-x="1513" 
d="M866 1536h-196l-256 299h278zM1425 0h-313l-102 262h-506l-103 -262h-313l590 1434h166zM602 530h309l-153 392z" />
    <glyph glyph-name="Aacute" unicode="&#xc1;" horiz-adv-x="1513" 
d="M852 1536h-197l174 299h279zM1425 0h-313l-102 262h-506l-103 -262h-313l590 1434h166zM602 530h309l-153 392z" />
    <glyph glyph-name="Acircumflex" unicode="&#xc2;" horiz-adv-x="1513" 
d="M1067 1536h-197l-112 106l-115 -106h-197l181 301h260zM1425 0h-313l-102 262h-506l-103 -262h-313l590 1434h166zM602 530h309l-153 392z" />
    <glyph glyph-name="Atilde" unicode="&#xc3;" horiz-adv-x="1513" 
d="M1087 1763l-55 -143q-40 -102 -129 -109q-62 -6 -115 31l-83 60q-41 27 -80 24q-38 -6 -56 -51l-14 -39h-117l56 143q38 99 127 109q69 6 116 -31l84 -59q43 -27 74 -25q44 3 61 51l15 39h116zM504 262l-103 -262h-313l590 1434h166l581 -1434h-313l-102 262h-506z
M758 922l-156 -392h309z" />
    <glyph glyph-name="Adieresis" unicode="&#xc4;" horiz-adv-x="1513" 
d="M537 1536q-63 0 -107.5 39t-44.5 96t44.5 96t107.5 39q65 0 109 -39t44 -96t-44 -96t-109 -39zM977 1536q-63 0 -107.5 39t-44.5 96t44.5 96t107.5 39q65 0 109 -39t44 -96t-44 -96t-109 -39zM504 262l-103 -262h-313l590 1434h166l581 -1434h-313l-102 262h-506z
M758 922l-156 -392h309z" />
    <glyph glyph-name="Aring" unicode="&#xc5;" horiz-adv-x="1513" 
d="M756 1923q79 0 136.5 -57t57.5 -135q0 -81 -57 -138t-137 -57t-136.5 57t-56.5 138q0 78 57 135t136 57zM758 1796q-29 0 -47.5 -19t-18.5 -46q0 -28 18.5 -48t47.5 -20q27 0 46 20t19 48q0 27 -19 46t-46 19zM504 262l-103 -262h-313l590 1434h166l581 -1434h-313
l-102 262h-506zM758 922l-156 -392h309z" />
    <glyph glyph-name="AE" unicode="&#xc6;" horiz-adv-x="1818" 
d="M1038 854h621v-266h-621v-322h674v-266h-956v262h-252l-103 -262h-313l590 1434h1034v-267h-674v-313zM756 918l-154 -388h154v388z" />
    <glyph glyph-name="Ccedilla" unicode="&#xc7;" horiz-adv-x="1497" 
d="M848 252q215 0 356 141l185 -170q-103 -111 -243.5 -174t-297.5 -63h-6l-19 -56q26 12 56.5 9t56.5 -15t43.5 -42.5t17.5 -74.5q0 -61 -39 -100t-105 -40.5t-153 44.5v70q54 -28 94 -17t40 50q0 36 -27 47t-92 -15l51 144q-135 15 -255 78t-206 159t-136 223.5t-50 266.5
q0 148 57.5 283.5t155 233.5t233 156t283.5 58q156 0 296.5 -63.5t244.5 -174.5l-185 -170q-145 142 -356 142q-190 0 -318.5 -131t-128.5 -334q0 -204 128.5 -334.5t318.5 -130.5z" />
    <glyph glyph-name="Egrave" unicode="&#xc8;" horiz-adv-x="1277" 
d="M838 1536h-197l-256 299h279zM1169 1167h-671v-313h620v-266h-620v-322h671v-266h-954v1434h954v-267z" />
    <glyph glyph-name="Eacute" unicode="&#xc9;" horiz-adv-x="1277" 
d="M715 1536h-197l174 299h279zM1169 1167h-671v-313h620v-266h-620v-322h671v-266h-954v1434h954v-267z" />
    <glyph glyph-name="Ecircumflex" unicode="&#xca;" horiz-adv-x="1277" 
d="M999 1536h-196l-113 106l-115 -106h-196l180 301h260zM1169 1167h-671v-313h620v-266h-620v-322h671v-266h-954v1434h954v-267z" />
    <glyph glyph-name="Edieresis" unicode="&#xcb;" horiz-adv-x="1277" 
d="M467 1808q64 0 109 -40t45 -97t-44.5 -96t-109.5 -39q-63 0 -107.5 39t-44.5 96t44.5 97t107.5 40zM907 1808q64 0 109 -40t45 -97t-44.5 -96t-109.5 -39q-63 0 -107 39t-44 96t44 97t107 40zM1169 1167h-671v-313h620v-266h-620v-322h671v-266h-954v1434h954v-267z" />
    <glyph glyph-name="Igrave" unicode="&#xcc;" horiz-adv-x="1058" 
d="M522 1835l174 -299h-196l-256 299h278zM670 266h172v-266h-627v266h172v901h-172v267h627v-267h-172v-901z" />
    <glyph glyph-name="Iacute" unicode="&#xcd;" horiz-adv-x="1058" 
d="M539 1536h-197l174 299h279zM842 1167h-172v-901h172v-266h-627v266h172v901h-172v267h627v-267z" />
    <glyph glyph-name="Icircumflex" unicode="&#xce;" horiz-adv-x="1097" 
d="M864 1536h-196l-113 106l-115 -106h-196l180 301h260zM862 1167h-172v-901h172v-266h-626v266h172v901h-172v267h626v-267z" />
    <glyph glyph-name="Idieresis" unicode="&#xcf;" horiz-adv-x="1177" 
d="M367 1806q65 0 109 -39t44 -96t-44 -96t-109 -39q-63 0 -107.5 39t-44.5 96t44.5 96t107.5 39zM809 1806q65 0 109.5 -39t44.5 -96t-44.5 -96t-109.5 -39q-63 0 -107.5 39t-44.5 96t44.5 96t107.5 39zM901 1167h-172v-901h172v-266h-627v266h172v901h-172v267h627v-267z
" />
    <glyph glyph-name="Eth" unicode="&#xd0;" horiz-adv-x="1658" 
d="M315 1434h498q200 0 366.5 -91.5t264.5 -256.5t98 -369q0 -154 -57.5 -288t-155.5 -227.5t-232 -147.5t-284 -54h-498v637h-100v162h100v635zM598 266h215q127 0 227 51t160 155t60 245q0 210 -126.5 330t-320.5 120h-215v-368h129v-162h-129v-371z" />
    <glyph glyph-name="Ntilde" unicode="&#xd1;" horiz-adv-x="1517" 
d="M627 1788q69 6 116 -31l84 -59q43 -27 74 -25q45 3 62 51l14 39h117l-56 -143q-40 -102 -129 -109q-61 -5 -114 31l-84 60q-41 27 -80 24q-38 -6 -56 -51l-14 -39h-117l56 143q38 99 127 109zM1323 0h-168l-678 903v-903h-282v1434h165l680 -904v904h283v-1434z" />
    <glyph glyph-name="Ograve" unicode="&#xd2;" horiz-adv-x="1697" 
d="M829 1835l175 -299h-197l-256 299h278zM848 1448q148 0 283.5 -58t233.5 -156t156 -233.5t58 -283.5q0 -200 -98 -368t-266.5 -265.5t-366.5 -97.5t-366 97.5t-265.5 265.5t-97.5 368q0 148 57.5 283.5t155 233.5t233 156t283.5 58zM848 1182q-190 0 -318.5 -131
t-128.5 -334q0 -204 128.5 -334.5t318.5 -130.5q191 0 319.5 130.5t128.5 334.5q0 203 -128.5 334t-319.5 131z" />
    <glyph glyph-name="Oacute" unicode="&#xd3;" horiz-adv-x="1697" 
d="M879 1536h-197l174 299h279zM848 1448q148 0 283.5 -58t233.5 -156t156 -233.5t58 -283.5q0 -200 -98 -368t-266.5 -265.5t-366.5 -97.5t-366 97.5t-265.5 265.5t-97.5 368q0 148 57.5 283.5t155 233.5t233 156t283.5 58zM848 1182q-190 0 -318.5 -131t-128.5 -334
q0 -204 128.5 -334.5t318.5 -130.5q191 0 319.5 130.5t128.5 334.5q0 203 -128.5 334t-319.5 131z" />
    <glyph glyph-name="Ocircumflex" unicode="&#xd4;" horiz-adv-x="1697" 
d="M1157 1536h-196l-113 106l-115 -106h-196l180 301h260zM848 1448q148 0 283.5 -58t233.5 -156t156 -233.5t58 -283.5q0 -200 -98 -368t-266.5 -265.5t-366.5 -97.5t-366 97.5t-265.5 265.5t-97.5 368q0 148 57.5 283.5t155 233.5t233 156t283.5 58zM848 1182
q-190 0 -318.5 -131t-128.5 -334q0 -204 128.5 -334.5t318.5 -130.5q191 0 319.5 130.5t128.5 334.5q0 203 -128.5 334t-319.5 131z" />
    <glyph glyph-name="Otilde" unicode="&#xd5;" horiz-adv-x="1697" 
d="M1174 1763l-56 -143q-40 -102 -129 -109q-62 -6 -115 31l-83 60q-41 27 -80 24q-38 -6 -56 -51l-14 -39h-117l56 143q38 99 127 109q69 6 116 -31l84 -59q43 -27 74 -25q44 3 61 51l15 39h117zM848 1448q148 0 283.5 -58t233.5 -156t156 -233.5t58 -283.5
q0 -200 -98 -368t-266.5 -265.5t-366.5 -97.5t-366 97.5t-265.5 265.5t-97.5 368q0 148 57.5 283.5t155 233.5t233 156t283.5 58zM848 1182q-190 0 -318.5 -131t-128.5 -334q0 -204 128.5 -334.5t318.5 -130.5q191 0 319.5 130.5t128.5 334.5q0 203 -128.5 334t-319.5 131z
" />
    <glyph glyph-name="Odieresis" unicode="&#xd6;" horiz-adv-x="1697" 
d="M627 1536q-63 0 -107.5 39t-44.5 96t44.5 96t107.5 39q65 0 109 -39t44 -96t-44 -96t-109 -39zM1069 1536q-63 0 -107 39t-44 96t44 96t107 39q65 0 109.5 -39t44.5 -96t-44.5 -96t-109.5 -39zM848 1448q148 0 283.5 -58t233.5 -156t156 -233.5t58 -283.5
q0 -200 -98 -368t-266.5 -265.5t-366.5 -97.5t-366 97.5t-265.5 265.5t-97.5 368q0 148 57.5 283.5t155 233.5t233 156t283.5 58zM848 1182q-190 0 -318.5 -131t-128.5 -334q0 -204 128.5 -334.5t318.5 -130.5q191 0 319.5 130.5t128.5 334.5q0 203 -128.5 334t-319.5 131z
" />
    <glyph glyph-name="multiply" unicode="&#xd7;" horiz-adv-x="940" 
d="M827 799l-241 -242l241 -244l-114 -114l-244 241l-242 -241l-114 114l241 244l-241 242l114 114l242 -241l244 241z" />
    <glyph glyph-name="Oslash" unicode="&#xd8;" horiz-adv-x="1697" 
d="M1579 1434l-197 -217q93 -101 145 -229.5t52 -270.5q0 -200 -98 -368t-266.5 -265.5t-366.5 -97.5q-247 0 -442 149l-121 -135h-166l196 217q-196 209 -196 500q0 148 57.5 283.5t155 233.5t233 156t283.5 58q246 0 442 -150l121 136h168zM401 717q0 -173 97 -297
l612 680q-114 82 -262 82q-190 0 -318.5 -131t-128.5 -334zM1296 717q0 174 -96 297l-614 -680q114 -82 262 -82q191 0 319.5 130.5t128.5 334.5z" />
    <glyph glyph-name="Ugrave" unicode="&#xd9;" horiz-adv-x="1572" 
d="M788 1835l175 -299h-197l-256 299h278zM1378 1434v-832q0 -150 -48 -270t-130 -194t-185 -113t-218 -39q-116 0 -219 39t-185 113t-130 194t-48 270v832h283v-826q0 -78 17 -139.5t45 -101.5t67 -66.5t81 -37.5t89 -11t89 11t81 37.5t67 66.5t45 101.5t17 139.5v826h282z
" />
    <glyph glyph-name="Uacute" unicode="&#xda;" horiz-adv-x="1572" 
d="M817 1536h-196l174 299h278zM1378 1434v-832q0 -150 -48 -270t-130 -194t-185 -113t-218 -39q-116 0 -219 39t-185 113t-130 194t-48 270v832h283v-826q0 -78 17 -139.5t45 -101.5t67 -66.5t81 -37.5t89 -11t89 11t81 37.5t67 66.5t45 101.5t17 139.5v826h282z" />
    <glyph glyph-name="Ucircumflex" unicode="&#xdb;" horiz-adv-x="1572" 
d="M909 1536l-112 106l-115 -106h-197l181 301h260l180 -301h-197zM1378 1434v-832q0 -150 -48 -270t-130 -194t-185 -113t-218 -39q-116 0 -219 39t-185 113t-130 194t-48 270v832h283v-826q0 -78 17 -139.5t45 -101.5t67 -66.5t81 -37.5t89 -11t89 11t81 37.5t67 66.5
t45 101.5t17 139.5v826h282z" />
    <glyph glyph-name="Udieresis" unicode="&#xdc;" horiz-adv-x="1572" 
d="M575 1536q-63 0 -107 39t-44 96t44 96t107 39q65 0 109.5 -39t44.5 -96t-44.5 -96t-109.5 -39zM1018 1536q-63 0 -107.5 39t-44.5 96t44.5 96t107.5 39q65 0 109 -39t44 -96t-44 -96t-109 -39zM1378 1434v-832q0 -150 -48 -270t-130 -194t-185 -113t-218 -39
q-116 0 -219 39t-185 113t-130 194t-48 270v832h283v-826q0 -78 17 -139.5t45 -101.5t67 -66.5t81 -37.5t89 -11t89 11t81 37.5t67 66.5t45 101.5t17 139.5v826h282z" />
    <glyph glyph-name="Yacute" unicode="&#xdd;" horiz-adv-x="1478" 
d="M760 1536h-197l174 299h279zM881 0h-283v479l-510 955h322l331 -607l330 607h322l-512 -955v-479z" />
    <glyph glyph-name="Thorn" unicode="&#xde;" horiz-adv-x="1443" 
d="M498 1288h188q294 0 466.5 -155.5t172.5 -397.5q0 -118 -44 -219t-124.5 -174.5t-202 -115.5t-268.5 -42h-188v-184h-283v1434h283v-146zM498 451h211q95 0 171.5 28t126.5 94t50 162q0 94 -50 160.5t-127 96.5t-171 30h-211v-571z" />
    <glyph glyph-name="germandbls" unicode="&#xdf;" horiz-adv-x="1341" 
d="M653 1448h62q111 0 198 -26.5t137.5 -67t82.5 -94t43.5 -101.5t11.5 -96q0 -118 -53 -206t-140 -122q109 -26 173.5 -117t64.5 -217q0 -71 -18 -131.5t-58 -113t-101 -89.5t-151.5 -58.5t-204.5 -22.5h-155v266h157q263 0 263 180q0 75 -50 124.5t-153 49.5h-152v264h123
q104 0 146.5 45.5t42.5 108.5q0 75 -52 116.5t-155 41.5h-72q-101 0 -151 -47t-50 -125v-1010h-268v1049q0 49 11 98t43.5 105t83.5 98.5t139.5 70.5t201.5 27z" />
    <glyph glyph-name="agrave" unicode="&#xe0;" 
d="M659 1415l175 -299h-197l-256 299h278zM1141 0h-174l-15 145q-58 -73 -147 -115t-193 -42q-143 0 -257.5 70t-178 190t-63.5 264t63.5 264.5t178.5 191t257 70.5q104 0 193 -42.5t147 -116.5l15 145h174v-1024zM637 240q106 0 185 75.5t79 196.5t-79 197.5t-185 76.5
q-107 0 -185.5 -76t-78.5 -198q0 -121 78.5 -196.5t185.5 -75.5z" />
    <glyph glyph-name="aacute" unicode="&#xe1;" 
d="M682 1116h-197l174 299h279zM1141 0h-174l-15 145q-58 -73 -147 -115t-193 -42q-143 0 -257.5 70t-178 190t-63.5 264t63.5 264.5t178.5 191t257 70.5q104 0 193 -42.5t147 -116.5l15 145h174v-1024zM637 240q106 0 185 75.5t79 196.5t-79 197.5t-185 76.5
q-107 0 -185.5 -76t-78.5 -198q0 -121 78.5 -196.5t185.5 -75.5z" />
    <glyph glyph-name="acircumflex" unicode="&#xe2;" 
d="M752 1116l-113 107l-115 -107h-196l180 299h260l180 -299h-196zM1141 0h-174l-15 145q-58 -73 -147 -115t-193 -42q-143 0 -257.5 70t-178 190t-63.5 264t63.5 264.5t178.5 191t257 70.5q104 0 193 -42.5t147 -116.5l15 145h174v-1024zM637 240q106 0 185 75.5t79 196.5
t-79 197.5t-185 76.5q-107 0 -185.5 -76t-78.5 -198q0 -121 78.5 -196.5t185.5 -75.5z" />
    <glyph glyph-name="atilde" unicode="&#xe3;" 
d="M975 1341l-55 -141q-38 -100 -129 -110q-63 -6 -115 30l-84 62q-46 27 -80 22q-37 -3 -55 -51l-15 -37h-116l55 141q39 102 127 109q63 8 117 -29l84 -59q43 -27 73 -25q44 0 62 52l14 36h117zM1141 0h-174l-15 145q-58 -73 -147 -115t-193 -42q-143 0 -257.5 70
t-178 190t-63.5 264t63.5 264.5t178.5 191t257 70.5q104 0 193 -42.5t147 -116.5l15 145h174v-1024zM637 240q106 0 185 75.5t79 196.5t-79 197.5t-185 76.5q-107 0 -185.5 -76t-78.5 -198q0 -121 78.5 -196.5t185.5 -75.5z" />
    <glyph glyph-name="adieresis" unicode="&#xe4;" 
d="M416 1116q-63 0 -107.5 39t-44.5 96t44.5 96t107.5 39q65 0 109 -39t44 -96t-44 -96t-109 -39zM858 1116q-63 0 -107 39t-44 96t44 96t107 39q65 0 109.5 -39t44.5 -96t-44.5 -96t-109.5 -39zM1141 0h-174l-15 145q-58 -73 -147 -115t-193 -42q-143 0 -257.5 70t-178 190
t-63.5 264t63.5 264.5t178.5 191t257 70.5q104 0 193 -42.5t147 -116.5l15 145h174v-1024zM637 240q106 0 185 75.5t79 196.5t-79 197.5t-185 76.5q-107 0 -185.5 -76t-78.5 -198q0 -121 78.5 -196.5t185.5 -75.5z" />
    <glyph glyph-name="aring" unicode="&#xe5;" 
d="M637 1503q79 0 136.5 -57.5t57.5 -136.5t-57 -136t-137 -57q-79 0 -136 57t-57 136q0 80 57 137t136 57zM637 1376q-29 0 -47.5 -19.5t-18.5 -47.5t18.5 -48t47.5 -20q27 0 46 20t19 48t-18.5 47.5t-46.5 19.5zM1141 0h-174l-15 145q-58 -73 -147 -115t-193 -42
q-143 0 -257.5 70t-178 190t-63.5 264t63.5 264.5t178.5 191t257 70.5q104 0 193 -42.5t147 -116.5l15 145h174v-1024zM637 240q106 0 185 75.5t79 196.5t-79 197.5t-185 76.5q-107 0 -185.5 -76t-78.5 -198q0 -121 78.5 -196.5t185.5 -75.5z" />
    <glyph glyph-name="ae" unicode="&#xe6;" horiz-adv-x="2009" 
d="M612 1038q104 0 193 -42.5t147 -116.5l15 145h174v-94q108 108 278 108q160 0 275.5 -72.5t173.5 -203.5q33 -69 36.5 -163.5t-20.5 -158.5h-715q0 -100 73.5 -157.5t182.5 -57.5q167 0 308 72l137 -150q-211 -159 -445 -159q-179 0 -284 108v-96h-174l-15 145
q-58 -73 -147 -115t-193 -42q-143 0 -257.5 70t-178 190t-63.5 264t63.5 264.5t178.5 191t257 70.5zM1419 801q-100 0 -167 -60t-70 -137h469q0 43 -25 82q-27 52 -81.5 83.5t-125.5 31.5zM637 786q-107 0 -185.5 -76t-78.5 -198q0 -121 78.5 -196.5t185.5 -75.5
q106 0 185 75.5t79 196.5t-79 197.5t-185 76.5z" />
    <glyph glyph-name="ccedilla" unicode="&#xe7;" horiz-adv-x="1144" 
d="M637 240q70 0 128.5 23.5t119.5 80.5l155 -168q-72 -86 -175.5 -136.5t-221.5 -51.5l-18 -58q26 12 56.5 9t56.5 -15t43.5 -42.5t17.5 -74.5q0 -61 -39 -100t-105 -40.5t-153 44.5v70q54 -28 93.5 -17t39.5 50q0 36 -27.5 47t-91.5 -15l53 146q-195 25 -325.5 172.5
t-130.5 347.5q0 143 70 263.5t190.5 190.5t263.5 70q119 0 224.5 -50t178.5 -138l-155 -168q-61 57 -119.5 80.5t-128.5 23.5q-107 0 -185.5 -75.5t-78.5 -196.5t78.5 -196.5t185.5 -75.5z" />
    <glyph glyph-name="egrave" unicode="&#xe8;" horiz-adv-x="1218" 
d="M801 1116h-197l-256 299h279zM629 1038q161 0 275.5 -72t174.5 -204q31 -69 35.5 -163.5t-18.5 -158.5h-715q0 -101 72.5 -158t181.5 -57q168 0 309 72l137 -150q-215 -159 -446 -159t-376.5 148.5t-145.5 375.5q0 224 141.5 375t374.5 151zM629 801q-100 0 -167.5 -60
t-70.5 -137h469q0 44 -24 82q-27 52 -81.5 83.5t-125.5 31.5z" />
    <glyph glyph-name="eacute" unicode="&#xe9;" horiz-adv-x="1218" 
d="M666 1116h-197l174 299h279zM629 1038q161 0 275.5 -72t174.5 -204q31 -69 35.5 -163.5t-18.5 -158.5h-715q0 -101 72.5 -158t181.5 -57q168 0 309 72l137 -150q-215 -159 -446 -159t-376.5 148.5t-145.5 375.5q0 224 141.5 375t374.5 151zM629 801q-100 0 -167.5 -60
t-70.5 -137h469q0 44 -24 82q-27 52 -81.5 83.5t-125.5 31.5z" />
    <glyph glyph-name="ecircumflex" unicode="&#xea;" horiz-adv-x="1218" 
d="M940 1114h-197l-112 109l-115 -107h-197l181 299h260zM629 1038q161 0 275.5 -72t174.5 -204q31 -69 35.5 -163.5t-18.5 -158.5h-715q0 -101 72.5 -158t181.5 -57q168 0 309 72l137 -150q-215 -159 -446 -159t-376.5 148.5t-145.5 375.5q0 224 141.5 375t374.5 151z
M629 801q-100 0 -167.5 -60t-70.5 -137h469q0 44 -24 82q-27 52 -81.5 83.5t-125.5 31.5z" />
    <glyph glyph-name="edieresis" unicode="&#xeb;" horiz-adv-x="1218" 
d="M412 1386q65 0 109 -39t44 -96t-44 -96t-109 -39q-63 0 -107.5 39t-44.5 96t44.5 96t107.5 39zM852 1386q65 0 109.5 -39t44.5 -96t-44.5 -96t-109.5 -39q-63 0 -107.5 39t-44.5 96t44.5 96t107.5 39zM629 1038q161 0 275.5 -72t174.5 -204q31 -69 35.5 -163.5
t-18.5 -158.5h-715q0 -101 72.5 -158t181.5 -57q168 0 309 72l137 -150q-215 -159 -446 -159t-376.5 148.5t-145.5 375.5q0 224 141.5 375t374.5 151zM629 801q-100 0 -167.5 -60t-70.5 -137h469q0 44 -24 82q-27 52 -81.5 83.5t-125.5 31.5z" />
    <glyph glyph-name="igrave" unicode="&#xec;" horiz-adv-x="813" 
d="M463 1415l176 -299h-199l-256 299h279zM358 0v1024h260v-1024h-260z" />
    <glyph glyph-name="iacute" unicode="&#xed;" horiz-adv-x="813" 
d="M381 1116h-197l174 299h279zM219 0v1024h260v-1024h-260z" />
    <glyph glyph-name="icircumflex" unicode="&#xee;" horiz-adv-x="980" 
d="M625 1415l180 -299h-197l-112 107l-115 -107h-197l181 299h260zM625 0h-260v1024h260v-1024z" />
    <glyph glyph-name="idieresis" unicode="&#xef;" horiz-adv-x="1105" 
d="M336 1116q-63 0 -107.5 39t-44.5 96t44.5 96t107.5 39q65 0 109 -39t44 -96t-44 -96t-109 -39zM778 1116q-63 0 -107 39t-44 96t44 96t107 39q65 0 109.5 -39t44.5 -96t-44.5 -96t-109.5 -39zM430 0v1024h260v-1024h-260z" />
    <glyph glyph-name="eth" unicode="&#xf0;" horiz-adv-x="1337" 
d="M1137 1335l-74 -65q100 -133 100 -328v-407q0 -124 -40.5 -228t-111 -174.5t-166.5 -109.5t-206 -39q-156 0 -277.5 70t-185 185.5t-63.5 254.5q0 138 57.5 250.5t167.5 179.5t252 67q100 0 185 -45t128 -119v115q0 93 -29 162l-108 -96l-88 96l106 96q-60 29 -135 29
q-147 0 -305 -82l-147 160q192 159 452 159q186 0 322 -102l78 70zM639 236q109 0 186.5 72.5t77.5 185.5q0 111 -79 184.5t-185 73.5q-105 0 -184.5 -73.5t-79.5 -184.5q0 -112 79 -185t185 -73z" />
    <glyph glyph-name="ntilde" unicode="&#xf1;" horiz-adv-x="1331" 
d="M997 1341l-55 -141q-38 -100 -129 -110q-63 -6 -115 30l-84 62q-46 27 -79 22q-38 -3 -56 -51l-14 -37h-117l55 141q39 102 127 109q63 8 117 -29l84 -59q43 -27 74 -25q43 0 61 52l15 36h116zM719 1038q216 0 331 -134t115 -363v-541h-260v524q0 262 -227 262
q-116 0 -180 -70t-64 -214v-502h-260v1024h174l19 -160q52 85 144 129.5t208 44.5z" />
    <glyph glyph-name="ograve" unicode="&#xf2;" horiz-adv-x="1275" 
d="M614 1415l174 -299h-196l-256 299h278zM637 1038q143 0 264 -70.5t191.5 -191.5t70.5 -264t-70.5 -263.5t-191.5 -190.5t-264 -70t-263.5 70t-190.5 190.5t-70 263.5t70 264t190.5 191.5t263.5 70.5zM637 786q-107 0 -185.5 -76t-78.5 -198q0 -121 78.5 -196.5
t185.5 -75.5q106 0 185 75.5t79 196.5t-79 197.5t-185 76.5z" />
    <glyph glyph-name="oacute" unicode="&#xf3;" horiz-adv-x="1275" 
d="M653 1116h-196l174 299h278zM637 1038q143 0 264 -70.5t191.5 -191.5t70.5 -264t-70.5 -263.5t-191.5 -190.5t-264 -70t-263.5 70t-190.5 190.5t-70 263.5t70 264t190.5 191.5t263.5 70.5zM637 786q-107 0 -185.5 -76t-78.5 -198q0 -121 78.5 -196.5t185.5 -75.5
q106 0 185 75.5t79 196.5t-79 197.5t-185 76.5z" />
    <glyph glyph-name="ocircumflex" unicode="&#xf4;" horiz-adv-x="1275" 
d="M752 1116l-113 107l-115 -109h-196l180 301h260l180 -299h-196zM637 1038q143 0 264 -70.5t191.5 -191.5t70.5 -264t-70.5 -263.5t-191.5 -190.5t-264 -70t-263.5 70t-190.5 190.5t-70 263.5t70 264t190.5 191.5t263.5 70.5zM637 786q-107 0 -185.5 -76t-78.5 -198
q0 -121 78.5 -196.5t185.5 -75.5q106 0 185 75.5t79 196.5t-79 197.5t-185 76.5z" />
    <glyph glyph-name="otilde" unicode="&#xf5;" horiz-adv-x="1275" 
d="M961 1341l-56 -141q-38 -100 -129 -110q-62 -6 -114 30l-84 62q-46 27 -80 22q-38 -3 -56 -51l-14 -37h-117l56 141q39 102 127 109q62 8 116 -29l84 -59q43 -27 74 -25q43 0 61 52l15 36h117zM637 1038q143 0 264 -70.5t191.5 -191.5t70.5 -264t-70.5 -263.5
t-191.5 -190.5t-264 -70t-263.5 70t-190.5 190.5t-70 263.5t70 264t190.5 191.5t263.5 70.5zM637 786q-107 0 -185.5 -76t-78.5 -198q0 -121 78.5 -196.5t185.5 -75.5q106 0 185 75.5t79 196.5t-79 197.5t-185 76.5z" />
    <glyph glyph-name="odieresis" unicode="&#xf6;" horiz-adv-x="1275" 
d="M418 1116q-63 0 -107.5 39t-44.5 96t44.5 96t107.5 39q65 0 109 -39t44 -96t-44 -96t-109 -39zM860 1116q-63 0 -107 39t-44 96t44 96t107 39q65 0 109.5 -39t44.5 -96t-44.5 -96t-109.5 -39zM637 1038q143 0 264 -70.5t191.5 -191.5t70.5 -264t-70.5 -263.5
t-191.5 -190.5t-264 -70t-263.5 70t-190.5 190.5t-70 263.5t70 264t190.5 191.5t263.5 70.5zM637 786q-107 0 -185.5 -76t-78.5 -198q0 -121 78.5 -196.5t185.5 -75.5q106 0 185 75.5t79 196.5t-79 197.5t-185 76.5z" />
    <glyph glyph-name="divide" unicode="&#xf7;" horiz-adv-x="1075" 
d="M539 1008q65 0 109 -40t44 -98q0 -59 -44.5 -99t-108.5 -40q-66 0 -111 40t-45 99q0 58 45 98t111 40zM961 449h-848v159h848v-159zM539 319q65 0 109 -39.5t44 -97.5t-44 -97.5t-109 -39.5q-66 0 -111 39.5t-45 97.5t45 97.5t111 39.5z" />
    <glyph glyph-name="oslash" unicode="&#xf8;" horiz-adv-x="1275" 
d="M1163 1024l-137 -158q137 -150 137 -354q0 -143 -70.5 -263.5t-191.5 -190.5t-264 -70q-159 0 -293 88l-65 -76h-166l137 158q-137 150 -137 354q0 143 70 264t190.5 191.5t263.5 70.5q160 0 293 -90l65 76h168zM373 512q0 -91 45 -158l344 400q-59 32 -125 32
q-107 0 -185.5 -76t-78.5 -198zM901 512q0 92 -45 156l-344 -398q58 -30 125 -30q106 0 185 75.5t79 196.5z" />
    <glyph glyph-name="ugrave" unicode="&#xf9;" horiz-adv-x="1320" 
d="M797 1116h-197l-256 299h279zM1155 0h-174l-18 160q-52 -85 -143.5 -129.5t-207.5 -44.5q-218 0 -333 134t-115 363v541h260v-524q0 -262 229 -262q114 0 178 70.5t64 213.5v502h260v-1024z" />
    <glyph glyph-name="uacute" unicode="&#xfa;" horiz-adv-x="1320" 
d="M901 1415l-256 -299h-196l174 299h278zM1155 0h-174l-18 160q-52 -85 -143.5 -129.5t-207.5 -44.5q-218 0 -333 134t-115 363v541h260v-524q0 -262 229 -262q114 0 178 70.5t64 213.5v502h260v-1024z" />
    <glyph glyph-name="ucircumflex" unicode="&#xfb;" horiz-adv-x="1320" 
d="M766 1116l-113 107l-114 -107h-197l180 299h260l181 -299h-197zM1155 0h-174l-18 160q-52 -85 -143.5 -129.5t-207.5 -44.5q-218 0 -333 134t-115 363v541h260v-524q0 -262 229 -262q114 0 178 70.5t64 213.5v502h260v-1024z" />
    <glyph glyph-name="udieresis" unicode="&#xfc;" horiz-adv-x="1320" 
d="M438 1386q65 0 109.5 -39t44.5 -96t-44.5 -96t-109.5 -39q-63 0 -107 39t-44 96t44 96t107 39zM879 1386q65 0 109 -39t44 -96t-44 -96t-109 -39q-63 0 -107.5 39t-44.5 96t44.5 96t107.5 39zM1155 0h-174l-18 160q-52 -85 -143.5 -129.5t-207.5 -44.5q-218 0 -333 134
t-115 363v541h260v-524q0 -262 229 -262q114 0 178 70.5t64 213.5v502h260v-1024z" />
    <glyph glyph-name="yacute" unicode="&#xfd;" horiz-adv-x="1331" 
d="M657 1116h-196l174 299h278zM1165 1024v-893q0 -112 -36 -208t-101 -165.5t-161.5 -109t-213.5 -39.5q-261 0 -454 160l147 157q82 -41 153.5 -61t153.5 -19q114 0 182 58.5t68 167.5v65q-47 -60 -121.5 -90.5t-158.5 -30.5q-217 0 -333 135.5t-116 364.5v508h260v-494
q0 -262 230 -262q114 0 177.5 70.5t63.5 214.5v471h260z" />
    <glyph glyph-name="thorn" unicode="&#xfe;" horiz-adv-x="1318" 
d="M438 1434v-512q46 53 117.5 83.5t153.5 30.5q142 0 256.5 -70t177.5 -189.5t63 -264.5q0 -221 -141 -373.5t-356 -152.5q-81 0 -152.5 31t-118.5 83v-477h-260v1811h260zM682 784q-106 0 -185 -75.5t-79 -196.5t79 -197.5t185 -76.5q107 0 185.5 76t78.5 198
q0 121 -78.5 196.5t-185.5 75.5z" />
    <glyph glyph-name="ydieresis" unicode="&#xff;" horiz-adv-x="1331" 
d="M444 1386q65 0 109.5 -39t44.5 -96t-44.5 -96t-109.5 -39q-63 0 -107 39t-44 96t44 96t107 39zM887 1386q65 0 109 -39t44 -96t-44 -96t-109 -39q-63 0 -107.5 39t-44.5 96t44.5 96t107.5 39zM434 1024v-494q0 -262 230 -262q114 0 177.5 70.5t63.5 214.5v471h260v-893
q0 -112 -36 -208t-101 -165.5t-161.5 -109t-213.5 -39.5q-261 0 -454 160l147 157q82 -41 153.5 -61t153.5 -19q114 0 182 58.5t68 167.5v65q-47 -60 -121.5 -90.5t-158.5 -30.5q-217 0 -333 135.5t-116 364.5v508h260z" />
    <glyph glyph-name="Amacron" unicode="&#x100;" horiz-adv-x="1513" 
d="M1026 1536h-537v193h537v-193zM504 262l-103 -262h-313l590 1434h166l581 -1434h-313l-102 262h-506zM758 922l-156 -392h309z" />
    <glyph glyph-name="amacron" unicode="&#x101;" 
d="M932 1116h-537v191h537v-191zM1141 0h-174l-15 145q-58 -73 -147 -115t-193 -42q-143 0 -257.5 70t-178 190t-63.5 264t63.5 264.5t178.5 191t257 70.5q104 0 193 -42.5t147 -116.5l15 145h174v-1024zM637 240q106 0 185 75.5t79 196.5t-79 197.5t-185 76.5
q-107 0 -185.5 -76t-78.5 -198q0 -121 78.5 -196.5t185.5 -75.5z" />
    <glyph glyph-name="Abreve" unicode="&#x102;" horiz-adv-x="1513" 
d="M901 1847h178q0 -134 -93 -222.5t-228 -88.5t-228.5 88.5t-93.5 222.5h180q0 -55 41 -93t101 -38t101.5 38t41.5 93zM1425 0h-313l-102 262h-506l-103 -262h-313l590 1434h166zM602 530h309l-153 392z" />
    <glyph glyph-name="abreve" unicode="&#x103;" 
d="M780 1425h178q0 -134 -93 -221.5t-228 -87.5t-228.5 88t-93.5 221h181q0 -56 40.5 -93.5t100.5 -37.5t101.5 38t41.5 93zM612 1038q104 0 193 -42.5t147 -116.5l15 145h174v-1024h-174l-15 145q-58 -73 -147 -115t-193 -42q-143 0 -257.5 70t-178 190t-63.5 264
t63.5 264.5t178.5 191t257 70.5zM637 786q-107 0 -185.5 -76t-78.5 -198q0 -121 78.5 -196.5t185.5 -75.5q106 0 185 75.5t79 196.5t-79 197.5t-185 76.5z" />
    <glyph glyph-name="Aogonek" unicode="&#x104;" horiz-adv-x="1513" 
d="M1300 -109q0 -32 24.5 -48.5t68.5 -16.5h32v-162h-18q-92 0 -153.5 39.5t-61.5 116.5q0 57 37.5 100.5t122.5 79.5h-240l-102 262h-506l-103 -262h-313l590 1434h166l581 -1434q-69 -28 -97 -54t-28 -55zM911 530l-153 392l-156 -392h309z" />
    <glyph glyph-name="aogonek" unicode="&#x105;" 
d="M1141 1024v-1024q-69 -28 -97 -54t-28 -55q0 -65 92 -65h33v-162h-19q-92 0 -153.5 39.5t-61.5 116.5q0 57 37.5 100.5t122.5 79.5h-100l-15 145q-58 -73 -147 -115t-193 -42q-143 0 -257.5 70t-178 190t-63.5 264t63.5 264.5t178.5 191t257 70.5q104 0 193 -42.5
t147 -116.5l15 145h174zM637 240q106 0 185 75.5t79 196.5t-79 197.5t-185 76.5q-107 0 -185.5 -76t-78.5 -198q0 -121 78.5 -196.5t185.5 -75.5z" />
    <glyph glyph-name="Cacute" unicode="&#x106;" horiz-adv-x="1497" 
d="M848 1536h-197l174 299h279zM848 1448q156 0 296.5 -63.5t244.5 -174.5l-185 -170q-145 142 -356 142q-190 0 -318.5 -131t-128.5 -334q0 -204 128.5 -334.5t318.5 -130.5q215 0 356 141l185 -170q-103 -111 -243.5 -174t-297.5 -63q-148 0 -283.5 58t-233 156
t-155 233.5t-57.5 283.5t57.5 283.5t155 233.5t233 156t283.5 58z" />
    <glyph glyph-name="cacute" unicode="&#x107;" horiz-adv-x="1144" 
d="M633 1116h-197l174 299h279zM637 1036q119 0 224.5 -50t178.5 -138l-155 -168q-61 57 -119.5 80.5t-128.5 23.5q-107 0 -185.5 -75.5t-78.5 -196.5t78.5 -196.5t185.5 -75.5q70 0 128.5 23.5t119.5 80.5l155 -168q-73 -88 -178.5 -138t-224.5 -50q-143 0 -263.5 70
t-190.5 190.5t-70 263.5t70 263.5t190.5 190.5t263.5 70z" />
    <glyph glyph-name="Cdotaccent" unicode="&#x10a;" horiz-adv-x="1497" 
d="M848 1806q65 0 109 -39t44 -96t-44 -96t-109 -39q-63 0 -107.5 39t-44.5 96t44.5 96t107.5 39zM848 1448q156 0 296.5 -63.5t244.5 -174.5l-185 -170q-145 142 -356 142q-190 0 -318.5 -131t-128.5 -334q0 -204 128.5 -334.5t318.5 -130.5q215 0 356 141l185 -170
q-103 -111 -243.5 -174t-297.5 -63q-148 0 -283.5 58t-233 156t-155 233.5t-57.5 283.5t57.5 283.5t155 233.5t233 156t283.5 58z" />
    <glyph glyph-name="cdotaccent" unicode="&#x10b;" horiz-adv-x="1144" 
d="M637 1386q65 0 109.5 -39t44.5 -96t-44.5 -96t-109.5 -39q-63 0 -107.5 39t-44.5 96t44.5 96t107.5 39zM637 1036q119 0 224.5 -50t178.5 -138l-155 -168q-61 57 -119.5 80.5t-128.5 23.5q-107 0 -185.5 -75.5t-78.5 -196.5t78.5 -196.5t185.5 -75.5q70 0 128.5 23.5
t119.5 80.5l155 -168q-73 -88 -178.5 -138t-224.5 -50q-143 0 -263.5 70t-190.5 190.5t-70 263.5t70 263.5t190.5 190.5t263.5 70z" />
    <glyph glyph-name="Ccaron" unicode="&#x10c;" horiz-adv-x="1497" 
d="M977 1536h-260l-180 299h196l115 -104l113 106h196zM848 1448q156 0 296.5 -63.5t244.5 -174.5l-185 -170q-145 142 -356 142q-190 0 -318.5 -131t-128.5 -334q0 -204 128.5 -334.5t318.5 -130.5q215 0 356 141l185 -170q-103 -111 -243.5 -174t-297.5 -63
q-148 0 -283.5 58t-233 156t-155 233.5t-57.5 283.5t57.5 283.5t155 233.5t233 156t283.5 58z" />
    <glyph glyph-name="ccaron" unicode="&#x10d;" horiz-adv-x="1144" 
d="M768 1116h-260l-180 299h196l115 -106l113 106h196zM637 1036q119 0 224.5 -50t178.5 -138l-155 -168q-61 57 -119.5 80.5t-128.5 23.5q-107 0 -185.5 -75.5t-78.5 -196.5t78.5 -196.5t185.5 -75.5q70 0 128.5 23.5t119.5 80.5l155 -168q-73 -88 -178.5 -138t-224.5 -50
q-143 0 -263.5 70t-190.5 190.5t-70 263.5t70 263.5t190.5 190.5t263.5 70z" />
    <glyph glyph-name="Dcaron" unicode="&#x10e;" horiz-adv-x="1560" 
d="M858 1536h-260l-180 299h196l115 -104l113 106h196zM215 1434h498q200 0 366.5 -91.5t264.5 -256.5t98 -369q0 -154 -57.5 -288t-155.5 -227.5t-232 -147.5t-284 -54h-498v1434zM498 1167v-901h215q194 0 320 119.5t126 331.5q0 210 -126 330t-320 120h-215z" />
    <glyph glyph-name="dcaron" unicode="&#x10f;" horiz-adv-x="1835" 
d="M1141 0h-174l-15 145q-58 -73 -147 -115t-193 -42q-143 0 -257.5 70t-178 190t-63.5 264t63.5 264.5t178.5 191t257 70.5q82 0 152.5 -30.5t116.5 -83.5v510h260v-1434zM1403 1135h-197l174 299h279zM637 240q106 0 185 75.5t79 196.5t-79 197.5t-185 76.5
q-107 0 -185.5 -76t-78.5 -198q0 -121 78.5 -196.5t185.5 -75.5z" />
    <glyph glyph-name="Dcroat" unicode="&#x110;" horiz-adv-x="1658" 
d="M315 1434h498q200 0 366.5 -91.5t264.5 -256.5t98 -369q0 -154 -57.5 -288t-155.5 -227.5t-232 -147.5t-284 -54h-498v637h-100v162h100v635zM598 266h215q127 0 227 51t160 155t60 245q0 210 -126.5 330t-320.5 120h-215v-368h129v-162h-129v-371z" />
    <glyph glyph-name="dcroat" unicode="&#x111;" horiz-adv-x="1441" 
d="M1268 1124h-127v-1124h-174l-15 145q-58 -73 -147 -115t-193 -42q-143 0 -257.5 70t-178 190t-63.5 264t63.5 264.5t178.5 191t257 70.5q82 0 152.5 -30.5t116.5 -83.5v200h-125v193h125v117h260v-117h127v-193zM637 240q106 0 185 75.5t79 196.5t-79 197.5t-185 76.5
q-107 0 -185.5 -76t-78.5 -198q0 -121 78.5 -196.5t185.5 -75.5z" />
    <glyph glyph-name="Emacron" unicode="&#x112;" horiz-adv-x="1277" 
d="M954 1536h-536v193h536v-193zM1169 1167h-671v-313h620v-266h-620v-322h671v-266h-954v1434h954v-267z" />
    <glyph glyph-name="emacron" unicode="&#x113;" horiz-adv-x="1218" 
d="M897 1116h-537v191h537v-191zM629 1038q161 0 275.5 -72t174.5 -204q31 -69 35.5 -163.5t-18.5 -158.5h-715q0 -101 72.5 -158t181.5 -57q168 0 309 72l137 -150q-215 -159 -446 -159t-376.5 148.5t-145.5 375.5q0 224 141.5 375t374.5 151zM629 801q-100 0 -167.5 -60
t-70.5 -137h469q0 44 -24 82q-27 52 -81.5 83.5t-125.5 31.5z" />
    <glyph glyph-name="Edotaccent" unicode="&#x116;" horiz-adv-x="1277" 
d="M684 1806q65 0 109.5 -39t44.5 -96t-44.5 -96t-109.5 -39q-63 0 -107.5 39t-44.5 96t44.5 96t107.5 39zM1169 1167h-671v-313h620v-266h-620v-322h671v-266h-954v1434h954v-267z" />
    <glyph glyph-name="edotaccent" unicode="&#x117;" horiz-adv-x="1218" 
d="M629 1386q65 0 109 -39t44 -96t-44 -96t-109 -39q-63 0 -107.5 39t-44.5 96t44.5 96t107.5 39zM629 1038q161 0 275.5 -72t174.5 -204q31 -69 35.5 -163.5t-18.5 -158.5h-715q0 -101 72.5 -158t181.5 -57q168 0 309 72l137 -150q-215 -159 -446 -159t-376.5 148.5
t-145.5 375.5q0 224 141.5 375t374.5 151zM629 801q-100 0 -167.5 -60t-70.5 -137h469q0 44 -24 82q-27 52 -81.5 83.5t-125.5 31.5z" />
    <glyph glyph-name="Eogonek" unicode="&#x118;" horiz-adv-x="1277" 
d="M1047 -109q0 -65 92 -65h32v-162h-18q-92 0 -153.5 39.5t-61.5 116.5q0 57 37.5 100.5t122.5 79.5h-883v1434h954v-267h-671v-313h620v-266h-620v-322h671v-266h2q-69 -28 -96.5 -54t-27.5 -55z" />
    <glyph glyph-name="eogonek" unicode="&#x119;" horiz-adv-x="1218" 
d="M1079 762q31 -69 35.5 -163.5t-18.5 -158.5h-715q0 -101 72.5 -158t181.5 -57q168 0 309 72l137 -150q-152 -114 -321 -147q-69 -28 -97 -54t-28 -55q0 -65 92 -65h33v-162h-19q-92 0 -153.5 39.5t-61.5 116.5q0 104 133 168h-24q-231 0 -376.5 148.5t-145.5 375.5
q0 224 141.5 375t374.5 151q161 0 275.5 -72t174.5 -204zM391 604h469q0 44 -24 82q-27 52 -81.5 83.5t-125.5 31.5q-100 0 -167.5 -60t-70.5 -137z" />
    <glyph glyph-name="Ecaron" unicode="&#x11a;" horiz-adv-x="1277" 
d="M813 1536h-260l-180 299h196l115 -104l113 106h196zM1169 1167h-671v-313h620v-266h-620v-322h671v-266h-954v1434h954v-267z" />
    <glyph glyph-name="ecaron" unicode="&#x11b;" horiz-adv-x="1218" 
d="M762 1116h-260l-180 299h196l115 -106l112 106h197zM629 1038q161 0 275.5 -72t174.5 -204q31 -69 35.5 -163.5t-18.5 -158.5h-715q0 -101 72.5 -158t181.5 -57q168 0 309 72l137 -150q-215 -159 -446 -159t-376.5 148.5t-145.5 375.5q0 224 141.5 375t374.5 151z
M629 801q-100 0 -167.5 -60t-70.5 -137h469q0 44 -24 82q-27 52 -81.5 83.5t-125.5 31.5z" />
    <glyph glyph-name="Gbreve" unicode="&#x11e;" horiz-adv-x="1583" 
d="M991 1847h178q0 -134 -93 -222.5t-228 -88.5t-228.5 88.5t-93.5 222.5h181q0 -56 40.5 -93.5t100.5 -37.5t101.5 38t41.5 93zM848 1446q156 0 296.5 -63.5t244.5 -174.5l-185 -170q-142 142 -356 142q-190 0 -318.5 -130.5t-128.5 -334.5q0 -203 128.5 -334t318.5 -131
q145 0 258 80v248h-262v213h545v-570q-103 -111 -243.5 -174t-297.5 -63q-148 0 -283.5 58t-233 156t-155 233.5t-57.5 283.5t57.5 283.5t155 233.5t233 156t283.5 58z" />
    <glyph glyph-name="gbreve" unicode="&#x11f;" horiz-adv-x="1306" 
d="M770 1425h178q0 -134 -93 -221.5t-228 -87.5t-228.5 88t-93.5 221h180q0 -55 41 -93t101 -38t101.5 38t41.5 93zM602 1038q104 0 193 -42t147 -115l14 143h174v-893q0 -229 -139.5 -375.5t-374.5 -146.5q-259 0 -452 160l147 157q81 -41 152.5 -61t152.5 -19
q115 0 182.5 58t67.5 168v57q-46 -52 -115.5 -81.5t-148.5 -29.5q-142 0 -257.5 70t-179 186t-63.5 252q0 137 63.5 254t179 187.5t257.5 70.5zM627 786q-106 0 -185.5 -74t-79.5 -186q0 -111 79.5 -183.5t185.5 -72.5q105 0 184.5 73t79.5 183q0 112 -79.5 186t-184.5 74z
" />
    <glyph glyph-name="Gdotaccent" unicode="&#x120;" horiz-adv-x="1583" 
d="M848 1806q65 0 109 -39t44 -96t-44 -96t-109 -39q-63 0 -107.5 39t-44.5 96t44.5 96t107.5 39zM848 1446q156 0 296.5 -63.5t244.5 -174.5l-185 -170q-142 142 -356 142q-190 0 -318.5 -130.5t-128.5 -334.5q0 -203 128.5 -334t318.5 -131q145 0 258 80v248h-262v213h545
v-570q-103 -111 -243.5 -174t-297.5 -63q-148 0 -283.5 58t-233 156t-155 233.5t-57.5 283.5t57.5 283.5t155 233.5t233 156t283.5 58z" />
    <glyph glyph-name="gdotaccent" unicode="&#x121;" horiz-adv-x="1306" 
d="M627 1386q65 0 109 -39t44 -96t-44 -96t-109 -39q-63 0 -107.5 39t-44.5 96t44.5 96t107.5 39zM602 1038q104 0 193 -42t147 -115l14 143h174v-893q0 -229 -139.5 -375.5t-374.5 -146.5q-259 0 -452 160l147 157q81 -41 152.5 -61t152.5 -19q115 0 182.5 58t67.5 168v57
q-46 -52 -115.5 -81.5t-148.5 -29.5q-142 0 -257.5 70t-179 186t-63.5 252q0 137 63.5 254t179 187.5t257.5 70.5zM627 786q-106 0 -185.5 -74t-79.5 -186q0 -111 79.5 -183.5t185.5 -72.5q105 0 184.5 73t79.5 183q0 112 -79.5 186t-184.5 74z" />
    <glyph glyph-name="Gcommaaccent" unicode="&#x122;" horiz-adv-x="1583" 
d="M848 1446q156 0 296.5 -63.5t244.5 -174.5l-185 -170q-142 142 -356 142q-190 0 -318.5 -130.5t-128.5 -334.5q0 -203 128.5 -334t318.5 -131q145 0 258 80v248h-262v213h545v-570q-103 -111 -243.5 -174t-297.5 -63q-148 0 -283.5 58t-233 156t-155 233.5t-57.5 283.5
t57.5 283.5t155 233.5t233 156t283.5 58zM758 -440h-197l174 299h279z" />
    <glyph glyph-name="gcommaaccent" unicode="&#x123;" horiz-adv-x="1306" 
d="M602 1038q104 0 193 -42t147 -115l14 143h174v-893q0 -229 -139.5 -375.5t-374.5 -146.5q-259 0 -452 160l147 157q81 -41 152.5 -61t152.5 -19q115 0 182.5 58t67.5 168v57q-46 -52 -115.5 -81.5t-148.5 -29.5q-142 0 -257.5 70t-179 186t-63.5 252q0 137 63.5 254
t179 187.5t257.5 70.5zM627 786q-106 0 -185.5 -74t-79.5 -186q0 -111 79.5 -183.5t185.5 -72.5q105 0 184.5 73t79.5 183q0 112 -79.5 186t-184.5 74zM553 -811h-197l174 299h279z" />
    <glyph glyph-name="Hbar" unicode="&#x126;" horiz-adv-x="1841" 
d="M1626 1024h-145v-1024h-283v588h-555v-588h-283v1024h-145v160h145v250h283v-250h555v250h283v-250h145v-160zM1198 1024h-555v-170h555v170z" />
    <glyph glyph-name="hbar" unicode="&#x127;" horiz-adv-x="1482" 
d="M870 1038q216 0 331.5 -134t115.5 -363v-541h-260v524q0 262 -228 262q-116 0 -179.5 -70t-63.5 -214v-502h-260v1110h-142v178h142v146h260v-146h139v-178h-139v-192q94 120 284 120z" />
    <glyph glyph-name="Imacron" unicode="&#x12a;" horiz-adv-x="1093" 
d="M811 1536h-537v193h537v-193zM688 266h172v-266h-627v266h173v901h-173v267h627v-267h-172v-901z" />
    <glyph glyph-name="imacron" unicode="&#x12b;" horiz-adv-x="897" 
d="M721 1116h-537v191h537v-191zM322 0v1024h260v-1024h-260z" />
    <glyph glyph-name="Iogonek" unicode="&#x12e;" horiz-adv-x="1058" 
d="M670 1167v-901h172v-266q-69 -28 -97 -54t-28 -55q0 -65 92 -65h33v-162h-19q-92 0 -153.5 39.5t-61.5 116.5q0 57 37.5 100.5t122.5 79.5h-553v266h172v901h-172v267h627v-267h-172z" />
    <glyph glyph-name="iogonek" unicode="&#x12f;" horiz-adv-x="702" 
d="M375 1116q-63 0 -107.5 39t-44.5 96t44.5 96t107.5 39q65 0 109 -39t44 -96t-44 -96t-109 -39zM246 1024h260v-1024q-69 -28 -97 -54t-28 -55q0 -65 92 -65h33v-162h-19q-92 0 -153.5 39.5t-61.5 116.5q0 57 37.5 100.5t122.5 79.5h-186v1024z" />
    <glyph glyph-name="Idotaccent" unicode="&#x130;" horiz-adv-x="1058" 
d="M528 1536q-63 0 -107 39t-44 96t44 96t107 39q65 0 109.5 -39t44.5 -96t-44.5 -96t-109.5 -39zM670 266h172v-266h-627v266h172v901h-172v267h627v-267h-172v-901z" />
    <glyph glyph-name="dotlessi" unicode="&#x131;" horiz-adv-x="618" 
d="M184 0v1024h260v-1024h-260z" />
    <glyph glyph-name="IJ" unicode="&#x132;" horiz-adv-x="2043" 
d="M842 1167h-172v-901h172v-266h-627v266h172v901h-172v267h627v-267zM1923 1434v-910q0 -139 -40 -245t-110.5 -168.5t-159.5 -93.5t-194 -31t-194 31t-159.5 93.5t-110.5 168.5t-40 245v80h283v-121q0 -108 63.5 -169.5t157.5 -61.5t157.5 61.5t63.5 169.5v684h-419v267
h702z" />
    <glyph glyph-name="ij" unicode="&#x133;" horiz-adv-x="1112" 
d="M336 1386q65 0 109 -39t44 -96t-44 -96t-109 -39q-63 0 -107.5 39t-44.5 96t44.5 96t107.5 39zM784 1386q65 0 109.5 -39t44.5 -96t-44.5 -96t-109.5 -39q-63 0 -107 39t-44 96t44 96t107 39zM467 0h-260v1024h260v-1024zM915 -377h-262v1401h262v-1401z" />
    <glyph glyph-name="Kcommaaccent" unicode="&#x136;" horiz-adv-x="1525" 
d="M1417 1434l-338 -529q-100 -138 -166 -172q38 -17 77.5 -57t96.5 -129l351 -547h-320l-295 461q-48 76 -85.5 102.5t-108.5 26.5h-131v-590h-283v1434h283v-572h123q70 0 107.5 27t86.5 102l283 443h319zM696 -440h-196l174 299h278z" />
    <glyph glyph-name="kcommaaccent" unicode="&#x137;" horiz-adv-x="1243" 
d="M887 0l-176 272q-49 75 -87 102t-108 27h-72v-401h-260v1434h260v-783h64q69 0 106.5 26.5t85.5 102.5l160 244h289l-229 -346q-34 -53 -73.5 -95t-72.5 -55q71 -22 156 -153l246 -375h-289zM580 -440h-197l174 299h279z" />
    <glyph glyph-name="Lacute" unicode="&#x139;" horiz-adv-x="1230" 
d="M670 1536h-197l174 299h279zM1143 0h-928v1434h283v-1168h645v-266z" />
    <glyph glyph-name="lacute" unicode="&#x13a;" horiz-adv-x="804" 
d="M381 1536h-197l174 299h279zM219 1434h262v-1434h-262v1434z" />
    <glyph glyph-name="Lcommaaccent" unicode="&#x13b;" horiz-adv-x="1230" 
d="M1143 0h-928v1434h283v-1168h645v-266zM594 -440h-197l174 299h279z" />
    <glyph glyph-name="lcommaaccent" unicode="&#x13c;" horiz-adv-x="804" 
d="M311 1434h262v-1434h-262v1434zM381 -422h-197l174 301h279z" />
    <glyph glyph-name="Lcaron" unicode="&#x13d;" horiz-adv-x="1230" 
d="M1143 0h-928v1434h283v-1168h645v-266zM887 1135h-197l174 299h279z" />
    <glyph glyph-name="lcaron" unicode="&#x13e;" horiz-adv-x="1126" 
d="M184 1434h262v-1434h-262v1434zM702 1135h-196l174 299h278z" />
    <glyph glyph-name="Ldot" unicode="&#x13f;" horiz-adv-x="1230" 
d="M1143 0h-928v1434h283v-1168h645v-266zM989 621q-67 0 -111 45t-44 108t44 108.5t111 45.5q66 0 110 -45.5t44 -108.5t-44 -108t-110 -45z" />
    <glyph glyph-name="ldot" unicode="&#x140;" horiz-adv-x="991" 
d="M184 1434h262v-1434h-262v1434zM670 772q66 0 109.5 -45.5t43.5 -108.5t-43.5 -108t-109.5 -45q-68 0 -112 45t-44 108t44.5 108.5t111.5 45.5z" />
    <glyph glyph-name="Lslash" unicode="&#x141;" horiz-adv-x="1353" 
d="M1266 266v-266h-928v688l-123 -53v158l123 53v588h283v-463l122 53v-158l-122 -53v-547h645z" />
    <glyph glyph-name="lslash" unicode="&#x142;" horiz-adv-x="880" 
d="M713 866l-131 -57v-809h-263v694l-135 -59v158l135 59v582h263v-467l131 57v-158z" />
    <glyph glyph-name="Nacute" unicode="&#x143;" horiz-adv-x="1517" 
d="M778 1536h-196l174 299h278zM1323 0h-168l-678 903v-903h-282v1434h165l680 -904v904h283v-1434z" />
    <glyph glyph-name="nacute" unicode="&#x144;" horiz-adv-x="1331" 
d="M700 1116h-196l174 299h278zM719 1038q216 0 331 -134t115 -363v-541h-260v524q0 262 -227 262q-116 0 -180 -70t-64 -214v-502h-260v1024h174l19 -160q52 85 144 129.5t208 44.5z" />
    <glyph glyph-name="Ncommaaccent" unicode="&#x145;" horiz-adv-x="1517" 
d="M1323 0h-168l-678 903v-903h-282v1434h165l680 -904v904h283v-1434zM698 -440h-196l174 299h278z" />
    <glyph glyph-name="ncommaaccent" unicode="&#x146;" horiz-adv-x="1331" 
d="M719 1038q216 0 331 -134t115 -363v-541h-260v524q0 262 -227 262q-116 0 -180 -70t-64 -214v-502h-260v1024h174l19 -160q52 85 144 129.5t208 44.5zM639 -440h-197l174 299h279z" />
    <glyph glyph-name="Ncaron" unicode="&#x147;" horiz-adv-x="1517" 
d="M754 1731l112 106h197l-180 -301h-260l-181 301h197zM1323 0h-168l-678 903v-903h-282v1434h165l680 -904v904h283v-1434z" />
    <glyph glyph-name="ncaron" unicode="&#x148;" horiz-adv-x="1331" 
d="M819 1116h-260l-180 299h196l115 -106l113 106h196zM719 1038q216 0 331 -134t115 -363v-541h-260v524q0 262 -227 262q-116 0 -180 -70t-64 -214v-502h-260v1024h174l19 -160q52 85 144 129.5t208 44.5z" />
    <glyph glyph-name="Eng" unicode="&#x14a;" horiz-adv-x="1517" 
d="M1323 1434v-1342q0 -243 -117 -369t-332 -114l-30 2v235h18q56 0 90 8t61 32.5t38.5 71.5t11.5 122v43l-586 780v-903h-282v1434h165l680 -904v904h283z" />
    <glyph glyph-name="eng" unicode="&#x14b;" horiz-adv-x="1331" 
d="M719 1038q216 0 331 -134t115 -363v-449q0 -244 -116 -369.5t-332 -113.5l-31 2v235h19q57 0 91 8t60.5 32.5t37.5 71t11 122.5v444q0 262 -227 262q-116 0 -180 -70t-64 -214v-502h-260v1024h174l19 -160q52 85 144 129.5t208 44.5z" />
    <glyph glyph-name="Omacron" unicode="&#x14c;" horiz-adv-x="1697" 
d="M1116 1536h-536v193h536v-193zM848 1448q148 0 283.5 -58t233.5 -156t156 -233.5t58 -283.5q0 -200 -98 -368t-266.5 -265.5t-366.5 -97.5t-366 97.5t-265.5 265.5t-97.5 368q0 148 57.5 283.5t155 233.5t233 156t283.5 58zM848 1182q-190 0 -318.5 -131t-128.5 -334
q0 -204 128.5 -334.5t318.5 -130.5q191 0 319.5 130.5t128.5 334.5q0 203 -128.5 334t-319.5 131z" />
    <glyph glyph-name="omacron" unicode="&#x14d;" horiz-adv-x="1275" 
d="M903 1116h-536v191h536v-191zM637 1038q143 0 264 -70.5t191.5 -191.5t70.5 -264t-70.5 -263.5t-191.5 -190.5t-264 -70t-263.5 70t-190.5 190.5t-70 263.5t70 264t190.5 191.5t263.5 70.5zM637 786q-107 0 -185.5 -76t-78.5 -198q0 -121 78.5 -196.5t185.5 -75.5
q106 0 185 75.5t79 196.5t-79 197.5t-185 76.5z" />
    <glyph glyph-name="Ohungarumlaut" unicode="&#x150;" horiz-adv-x="1697" 
d="M725 1536h-197l174 299h279zM1079 1536h-196l174 299h278zM848 1448q148 0 283.5 -58t233.5 -156t156 -233.5t58 -283.5q0 -200 -98 -368t-266.5 -265.5t-366.5 -97.5t-366 97.5t-265.5 265.5t-97.5 368q0 148 57.5 283.5t155 233.5t233 156t283.5 58zM848 1182
q-190 0 -318.5 -131t-128.5 -334q0 -204 128.5 -334.5t318.5 -130.5q191 0 319.5 130.5t128.5 334.5q0 203 -128.5 334t-319.5 131z" />
    <glyph glyph-name="ohungarumlaut" unicode="&#x151;" horiz-adv-x="1288" 
d="M496 1116h-197l174 299h279zM850 1116h-197l174 299h279zM637 1038q143 0 264 -70.5t191.5 -191.5t70.5 -264t-70.5 -263.5t-191.5 -190.5t-264 -70t-263.5 70t-190.5 190.5t-70 263.5t70 264t190.5 191.5t263.5 70.5zM637 786q-107 0 -185.5 -76t-78.5 -198
q0 -121 78.5 -196.5t185.5 -75.5q106 0 185 75.5t79 196.5t-79 197.5t-185 76.5z" />
    <glyph glyph-name="OE" unicode="&#x152;" horiz-adv-x="2359" 
d="M1579 854h621v-266h-621v-322h672v-266h-955v184q-80 -91 -198 -144.5t-250 -53.5q-198 0 -366 97.5t-265.5 265.5t-97.5 368q0 148 57.5 283.5t155 233.5t233 156t283.5 58q132 0 250 -54t198 -145v185h955v-267h-672v-313zM848 252q191 0 319.5 130.5t128.5 334.5
q0 203 -128.5 334t-319.5 131q-190 0 -318.5 -131t-128.5 -334q0 -204 128.5 -334.5t318.5 -130.5z" />
    <glyph glyph-name="oe" unicode="&#x153;" horiz-adv-x="2007" 
d="M1419 1038q160 0 274.5 -72.5t174.5 -203.5q32 -69 36 -163t-20 -159h-715q0 -101 73 -158t183 -57q167 0 308 72l137 -150q-215 -159 -445 -159q-130 0 -233.5 51t-165.5 143q-64 -89 -167 -141.5t-222 -52.5q-143 0 -263.5 70t-190.5 190.5t-70 263.5t70 264
t190.5 191.5t263.5 70.5q118 0 220.5 -52.5t166.5 -141.5q62 90 164 142t231 52zM1417 801q-100 0 -167 -60t-70 -137h469q0 43 -25 82q-27 52 -81.5 83.5t-125.5 31.5zM637 786q-107 0 -185.5 -76t-78.5 -198q0 -121 78.5 -196.5t185.5 -75.5q106 0 185 75.5t79 196.5
t-79 197.5t-185 76.5z" />
    <glyph glyph-name="Racute" unicode="&#x154;" horiz-adv-x="1439" 
d="M713 1536h-197l174 299h279zM215 1434h487q147 0 266 -42t196.5 -115t119 -171.5t41.5 -212.5q0 -159 -81 -276.5t-228 -174.5q90 -57 213 -252l123 -190h-318l-92 143q-85 131 -134.5 167.5t-152.5 39.5h-157v-350h-283v1434zM498 1167v-551h231q147 0 237.5 69.5
t90.5 207.5q0 132 -92 203t-236 71h-231z" />
    <glyph glyph-name="racute" unicode="&#x155;" horiz-adv-x="892" 
d="M510 1116h-197l174 299h279zM825 786h-104q-140 0 -213.5 -86.5t-73.5 -236.5v-463h-260v1024h174l29 -221q59 111 161.5 173t243.5 62h43v-252z" />
    <glyph glyph-name="Rcommaaccent" unicode="&#x156;" horiz-adv-x="1439" 
d="M215 1434h487q147 0 266 -42t196.5 -115t119 -171.5t41.5 -212.5q0 -159 -81 -276.5t-228 -174.5q90 -57 213 -252l123 -190h-318l-92 143q-85 131 -134.5 167.5t-152.5 39.5h-157v-350h-283v1434zM498 1167v-551h231q147 0 237.5 69.5t90.5 207.5q0 132 -92 203t-236 71
h-231zM655 -440h-196l174 299h278z" />
    <glyph glyph-name="rcommaaccent" unicode="&#x157;" horiz-adv-x="892" 
d="M825 786h-104q-140 0 -213.5 -86.5t-73.5 -236.5v-463h-260v1024h174l29 -221q59 111 161.5 173t243.5 62h43v-252zM436 -440h-196l174 299h278z" />
    <glyph glyph-name="Rcaron" unicode="&#x158;" horiz-adv-x="1439" 
d="M852 1536h-260l-180 299h196l115 -104l113 106h196zM215 1434h487q147 0 266 -42t196.5 -115t119 -171.5t41.5 -212.5q0 -159 -81 -276.5t-228 -174.5q90 -57 213 -252l123 -190h-318l-92 143q-85 131 -134.5 167.5t-152.5 39.5h-157v-350h-283v1434zM498 1167v-551h231
q147 0 237.5 69.5t90.5 207.5q0 132 -92 203t-236 71h-231z" />
    <glyph glyph-name="rcaron" unicode="&#x159;" horiz-adv-x="892" 
d="M623 1116h-261l-180 299h197l115 -106l112 106h197zM825 786h-104q-140 0 -213.5 -86.5t-73.5 -236.5v-463h-260v1024h174l29 -221q59 111 161.5 173t243.5 62h43v-252z" />
    <glyph glyph-name="Sacute" unicode="&#x15a;" horiz-adv-x="1392" 
d="M711 1536h-197l174 299h279zM672 1448h16q147 0 292.5 -65t260.5 -173l-184 -170q-77 63 -183 102.5t-186 39.5h-16q-39 0 -79 -8t-79.5 -25t-64.5 -50t-25 -77q0 -35 18.5 -60t54 -40.5t74.5 -24.5t93 -16l114 -13q115 -14 203 -42.5t159 -78.5t108.5 -130.5
t37.5 -188.5q0 -200 -157 -320t-400 -122h-12q-202 0 -358.5 81t-249.5 207l184 170q54 -78 165.5 -135t258.5 -57h12q126 2 200.5 48.5t74.5 127.5q0 36 -14 64.5t-36.5 47t-58 32t-72 21t-84.5 13.5l-112 12q-486 59 -486 394q0 131 71 230.5t191 151.5t269 54z" />
    <glyph glyph-name="sacute" unicode="&#x15b;" horiz-adv-x="1130" 
d="M614 1116h-196l174 299h278zM553 1038h16q128 0 243.5 -51.5t182.5 -138.5l-147 -137q-48 53 -128.5 86.5t-148.5 33.5h-16q-72 -2 -115 -28t-43 -74q0 -43 37.5 -64t132.5 -28l70 -8q81 -6 147 -25.5t119.5 -56t83 -97t29.5 -141.5q0 -139 -112.5 -230t-299.5 -91h-10
q-152 0 -284.5 53.5t-196.5 142.5l147 140q45 -54 141 -89.5t191 -35.5h10q70 0 112 25t42 75q0 57 -41.5 80t-134.5 31l-58 6q-186 15 -285.5 89.5t-99.5 207.5q0 151 119 237t297 88z" />
    <glyph glyph-name="Scedilla" unicode="&#x15e;" horiz-adv-x="1392" 
d="M723 -14l-18 -56q26 12 56.5 9t56.5 -15t43.5 -42.5t17.5 -74.5q0 -61 -39 -100t-105 -40.5t-153 44.5v70q54 -28 93.5 -17t39.5 50q0 36 -27.5 47t-91.5 -15l51 142q-179 14 -317 93t-221 193l184 170q54 -78 165.5 -135t258.5 -57h12q126 2 200.5 48.5t74.5 127.5
q0 36 -14 64.5t-36.5 47t-58 32t-72 21t-84.5 13.5l-112 12q-486 59 -486 394q0 131 71 230.5t191 151.5t269 54h16q147 0 292.5 -65t260.5 -173l-184 -170q-77 63 -183 102.5t-186 39.5h-16q-39 0 -79 -8t-79.5 -25t-64.5 -50t-25 -77q0 -35 18.5 -60t54 -40.5t74.5 -24.5
t93 -16l114 -13q115 -14 203 -42.5t159 -78.5t108.5 -130.5t37.5 -188.5q0 -200 -157 -320t-400 -122h-6z" />
    <glyph glyph-name="scedilla" unicode="&#x15f;" horiz-adv-x="1130" 
d="M1016 309q0 -139 -112.5 -230t-299.5 -91l-18 -58q26 12 56.5 9t56.5 -15t43.5 -42.5t17.5 -74.5q0 -61 -39 -100t-105 -40.5t-153 44.5v70q54 -28 93.5 -17t39.5 50q0 36 -27 47t-92 -15l51 144q-133 11 -245.5 63t-169.5 131l147 140q45 -54 141 -89.5t191 -35.5h10
q70 0 112 25t42 75q0 57 -41.5 80t-134.5 31l-58 6q-186 15 -285.5 89.5t-99.5 207.5q0 151 119 237t297 88h16q128 0 243.5 -51.5t182.5 -138.5l-147 -137q-48 53 -128.5 86.5t-148.5 33.5h-16q-72 -2 -115 -28t-43 -74q0 -43 37.5 -64t132.5 -28l70 -8q81 -6 147 -25.5
t119.5 -56t83 -97t29.5 -141.5z" />
    <glyph glyph-name="Scaron" unicode="&#x160;" horiz-adv-x="1392" 
d="M813 1536h-260l-180 299h196l115 -104l113 106h196zM672 1448h16q147 0 292.5 -65t260.5 -173l-184 -170q-77 63 -183 102.5t-186 39.5h-16q-39 0 -79 -8t-79.5 -25t-64.5 -50t-25 -77q0 -35 18.5 -60t54 -40.5t74.5 -24.5t93 -16l114 -13q115 -14 203 -42.5t159 -78.5
t108.5 -130.5t37.5 -188.5q0 -200 -157 -320t-400 -122h-12q-202 0 -358.5 81t-249.5 207l184 170q54 -78 165.5 -135t258.5 -57h12q126 2 200.5 48.5t74.5 127.5q0 36 -14 64.5t-36.5 47t-58 32t-72 21t-84.5 13.5l-112 12q-486 59 -486 394q0 131 71 230.5t191 151.5
t269 54z" />
    <glyph glyph-name="scaron" unicode="&#x161;" horiz-adv-x="1130" 
d="M694 1116h-260l-180 299h197l114 -106l113 106h196zM553 1038h16q128 0 243.5 -51.5t182.5 -138.5l-147 -137q-48 53 -128.5 86.5t-148.5 33.5h-16q-72 -2 -115 -28t-43 -74q0 -43 37.5 -64t132.5 -28l70 -8q81 -6 147 -25.5t119.5 -56t83 -97t29.5 -141.5
q0 -139 -112.5 -230t-299.5 -91h-10q-152 0 -284.5 53.5t-196.5 142.5l147 140q45 -54 141 -89.5t191 -35.5h10q70 0 112 25t42 75q0 57 -41.5 80t-134.5 31l-58 6q-186 15 -285.5 89.5t-99.5 207.5q0 151 119 237t297 88z" />
    <glyph glyph-name="Tcedilla" unicode="&#x162;" horiz-adv-x="1245" 
d="M645 0l-22 -70q26 12 56.5 9t56.5 -15t43.5 -42.5t17.5 -74.5q0 -61 -39 -100t-105 -40.5t-153 44.5v70q54 -28 93.5 -17t39.5 50q0 36 -27.5 47t-91.5 -15l55 154h-88v1167h-393v267h1069v-267h-393v-1167h-119z" />
    <glyph glyph-name="tcedilla" unicode="&#x163;" horiz-adv-x="735" 
d="M385 0l-23 -70q26 12 57 9t57 -15t43.5 -42.5t17.5 -74.5q0 -61 -39 -100t-105 -40.5t-153 44.5v70q54 -28 93.5 -17t39.5 50q0 36 -27.5 47t-91.5 -15l55 154h-63v772h-133v252h133v344h262v-344h133v-252h-133v-772h-123z" />
    <glyph glyph-name="Tcaron" unicode="&#x164;" horiz-adv-x="1245" 
d="M756 1536h-260l-181 299h197l115 -104l112 106h197zM764 1167v-1167h-283v1167h-393v267h1069v-267h-393z" />
    <glyph glyph-name="tcaron" unicode="&#x165;" horiz-adv-x="1128" 
d="M780 1135h-196l174 299h278zM508 772v-772h-262v772h-133v252h133v344h262v-344h133v-252h-133z" />
    <glyph glyph-name="Tbar" unicode="&#x166;" horiz-adv-x="1245" 
d="M764 1167v-331h127v-193h-127v-643h-283v643h-129v193h129v331h-393v267h1069v-267h-393z" />
    <glyph glyph-name="tbar" unicode="&#x167;" horiz-adv-x="735" 
d="M508 772v-131h133v-252h-133v-389h-262v389h-133v252h133v131h-133v252h133v344h262v-344h133v-252h-133z" />
    <glyph glyph-name="Umacron" unicode="&#x16a;" horiz-adv-x="1572" 
d="M1063 1536h-537v193h537v-193zM1378 1434v-832q0 -150 -48 -270t-130 -194t-185 -113t-218 -39q-116 0 -219 39t-185 113t-130 194t-48 270v832h283v-826q0 -78 17 -139.5t45 -101.5t67 -66.5t81 -37.5t89 -11t89 11t81 37.5t67 66.5t45 101.5t17 139.5v826h282z" />
    <glyph glyph-name="umacron" unicode="&#x16b;" horiz-adv-x="1320" 
d="M922 1116h-537v191h537v-191zM1155 0h-174l-18 160q-52 -85 -143.5 -129.5t-207.5 -44.5q-218 0 -333 134t-115 363v541h260v-524q0 -262 229 -262q114 0 178 70.5t64 213.5v502h260v-1024z" />
    <glyph glyph-name="Uring" unicode="&#x16e;" horiz-adv-x="1572" 
d="M797 1923q79 0 136.5 -57t57.5 -135q0 -81 -57 -138t-137 -57t-136.5 57t-56.5 138q0 78 57 135t136 57zM797 1796q-29 0 -47.5 -19t-18.5 -46q0 -28 18.5 -48t47.5 -20q27 0 46 20t19 48q0 27 -19 46t-46 19zM1378 1434v-832q0 -150 -48 -270t-130 -194t-185 -113
t-218 -39q-116 0 -219 39t-185 113t-130 194t-48 270v832h283v-826q0 -78 17 -139.5t45 -101.5t67 -66.5t81 -37.5t89 -11t89 11t81 37.5t67 66.5t45 101.5t17 139.5v826h282z" />
    <glyph glyph-name="uring" unicode="&#x16f;" horiz-adv-x="1320" 
d="M653 1503q80 0 137.5 -57.5t57.5 -136.5t-57.5 -136t-137.5 -57q-79 0 -135.5 56.5t-56.5 136.5t56.5 137t135.5 57zM653 1376q-29 0 -47 -19.5t-18 -47.5t18 -48t47 -20q28 0 47 20t19 48t-19 47.5t-47 19.5zM1155 0h-174l-18 160q-52 -85 -143.5 -129.5t-207.5 -44.5
q-218 0 -333 134t-115 363v541h260v-524q0 -262 229 -262q114 0 178 70.5t64 213.5v502h260v-1024z" />
    <glyph glyph-name="Uhungarumlaut" unicode="&#x170;" horiz-adv-x="1572" 
d="M627 1536h-197l174 299h279zM981 1536h-197l174 299h279zM1378 1434v-832q0 -150 -48 -270t-130 -194t-185 -113t-218 -39q-116 0 -219 39t-185 113t-130 194t-48 270v832h283v-826q0 -78 17 -139.5t45 -101.5t67 -66.5t81 -37.5t89 -11t89 11t81 37.5t67 66.5t45 101.5
t17 139.5v826h282z" />
    <glyph glyph-name="uhungarumlaut" unicode="&#x171;" horiz-adv-x="1323" 
d="M481 1116h-196l174 299h278zM838 1116h-197l174 299h279zM1155 0h-174l-18 160q-52 -85 -143.5 -129.5t-207.5 -44.5q-218 0 -333 134t-115 363v541h260v-524q0 -262 229 -262q114 0 178 70.5t64 213.5v502h260v-1024z" />
    <glyph glyph-name="Uogonek" unicode="&#x172;" horiz-adv-x="1572" 
d="M1378 1434v-832q0 -128 -35.5 -235t-98 -180.5t-143 -121t-175.5 -67.5q-66 -27 -93.5 -52.5t-27.5 -54.5q0 -65 92 -65h33v-162h-19q-92 0 -153.5 39.5t-61.5 116.5q0 103 131 166h-30q-116 0 -219 39t-185 113t-130 194t-48 270v832h283v-826q0 -78 17 -139.5
t45 -101.5t67 -66.5t81 -37.5t89 -11t89 11t81 37.5t67 66.5t45 101.5t17 139.5v826h282z" />
    <glyph glyph-name="uogonek" unicode="&#x173;" horiz-adv-x="1320" 
d="M1155 1024v-1024q-69 -28 -97 -54t-28 -55q0 -65 92 -65h33v-162h-18q-92 0 -153.5 39.5t-61.5 116.5q0 57 37.5 100.5t121.5 79.5h-100l-18 160q-52 -85 -143.5 -129.5t-207.5 -44.5q-218 0 -333 134t-115 363v541h260v-524q0 -262 229 -262q114 0 178 70.5t64 213.5
v502h260z" />
    <glyph glyph-name="Wcircumflex" unicode="&#x174;" horiz-adv-x="2365" 
d="M1296 1536l-112 106l-115 -106h-197l181 301h260l180 -301h-197zM1700 0h-168l-348 862l-350 -862h-166l-580 1434h313l347 -914l352 914h166l352 -914l346 914h313z" />
    <glyph glyph-name="wcircumflex" unicode="&#x175;" horiz-adv-x="1955" 
d="M1092 1116l-113 107l-115 -107h-196l180 299h260l180 -299h-196zM1423 0h-166l-278 608l-279 -608h-168l-464 1024h276l272 -641l279 641h168l278 -641l273 641h276z" />
    <glyph glyph-name="Ycircumflex" unicode="&#x176;" horiz-adv-x="1478" 
d="M854 1536l-113 106l-114 -106h-197l180 301h260l181 -301h-197zM881 0h-283v479l-510 955h322l331 -607l330 607h322l-512 -955v-479z" />
    <glyph glyph-name="ycircumflex" unicode="&#x177;" horiz-adv-x="1331" 
d="M793 1415l180 -299h-197l-112 107l-115 -107h-197l180 299h261zM434 1024v-494q0 -262 230 -262q114 0 177.5 70.5t63.5 214.5v471h260v-893q0 -112 -36 -208t-101 -165.5t-161.5 -109t-213.5 -39.5q-261 0 -454 160l147 157q82 -41 153.5 -61t153.5 -19q114 0 182 58.5
t68 167.5v65q-47 -60 -121.5 -90.5t-158.5 -30.5q-217 0 -333 135.5t-116 364.5v508h260z" />
    <glyph glyph-name="Ydieresis" unicode="&#x178;" horiz-adv-x="1478" 
d="M518 1536q-63 0 -107 39t-44 96t44 96t107 39q65 0 109.5 -39t44.5 -96t-44.5 -96t-109.5 -39zM958 1536q-63 0 -107 39t-44 96t44 96t107 39q65 0 109.5 -39t44.5 -96t-44.5 -96t-109.5 -39zM881 0h-283v479l-510 955h322l331 -607l330 607h322l-512 -955v-479z" />
    <glyph glyph-name="Zacute" unicode="&#x179;" horiz-adv-x="1282" 
d="M676 1536h-197l174 299h279zM1176 0h-1067v166l657 1001h-602v267h993v-168l-657 -1000h676v-266z" />
    <glyph glyph-name="zacute" unicode="&#x17a;" horiz-adv-x="1095" 
d="M567 1116h-196l174 299h278zM983 0h-870l2 197l477 575h-440v252h811l-2 -197l-478 -575h500v-252z" />
    <glyph glyph-name="Zdotaccent" unicode="&#x17b;" horiz-adv-x="1282" 
d="M633 1536q-63 0 -107.5 39t-44.5 96t44.5 96t107.5 39q65 0 109 -39t44 -96t-44 -96t-109 -39zM1176 0h-1067v166l657 1001h-602v267h993v-168l-657 -1000h676v-266z" />
    <glyph glyph-name="zdotaccent" unicode="&#x17c;" horiz-adv-x="1095" 
d="M535 1116q-63 0 -107.5 39t-44.5 96t44.5 96t107.5 39q65 0 109 -39t44 -96t-44 -96t-109 -39zM983 0h-870l2 197l477 575h-440v252h811l-2 -197l-478 -575h500v-252z" />
    <glyph glyph-name="Zcaron" unicode="&#x17d;" horiz-adv-x="1282" 
d="M772 1536h-260l-180 299h196l115 -104l113 106h196zM1176 0h-1067v166l657 1001h-602v267h993v-168l-657 -1000h676v-266z" />
    <glyph glyph-name="zcaron" unicode="&#x17e;" horiz-adv-x="1095" 
d="M674 1116h-260l-181 299h197l115 -106l112 106h197zM961 827l-478 -575h500v-252h-870l2 197l477 575h-440v252h811z" />
    <glyph glyph-name="Acaron" unicode="&#x1cd;" horiz-adv-x="1513" 
d="M885 1536h-260l-181 299h197l115 -104l112 106h197zM1425 0h-313l-102 262h-506l-103 -262h-313l590 1434h166zM602 530h309l-153 392z" />
    <glyph glyph-name="acaron" unicode="&#x1ce;" 
d="M768 1116h-260l-180 299h196l115 -106l113 106h196zM1141 0h-174l-15 145q-58 -73 -147 -115t-193 -42q-143 0 -257.5 70t-178 190t-63.5 264t63.5 264.5t178.5 191t257 70.5q104 0 193 -42.5t147 -116.5l15 145h174v-1024zM637 240q106 0 185 75.5t79 196.5t-79 197.5
t-185 76.5q-107 0 -185.5 -76t-78.5 -198q0 -121 78.5 -196.5t185.5 -75.5z" />
    <glyph glyph-name="Icaron" unicode="&#x1cf;" horiz-adv-x="1097" 
d="M684 1536h-260l-180 299h196l115 -104l113 106h196zM862 1167h-172v-901h172v-266h-626v266h172v901h-172v267h626v-267z" />
    <glyph glyph-name="icaron" unicode="&#x1d0;" horiz-adv-x="980" 
d="M625 1116h-260l-181 299h197l115 -106l112 106h197zM625 0h-260v1024h260v-1024z" />
    <glyph glyph-name="Ocaron" unicode="&#x1d1;" horiz-adv-x="1697" 
d="M977 1536h-260l-180 299h196l115 -104l113 106h196zM848 1448q148 0 283.5 -58t233.5 -156t156 -233.5t58 -283.5q0 -200 -98 -368t-266.5 -265.5t-366.5 -97.5t-366 97.5t-265.5 265.5t-97.5 368q0 148 57.5 283.5t155 233.5t233 156t283.5 58zM848 1182
q-190 0 -318.5 -131t-128.5 -334q0 -204 128.5 -334.5t318.5 -130.5q191 0 319.5 130.5t128.5 334.5q0 203 -128.5 334t-319.5 131z" />
    <glyph glyph-name="ocaron" unicode="&#x1d2;" horiz-adv-x="1275" 
d="M768 1114l-260 2l-180 301h196l115 -108l113 106h196zM637 1038q143 0 264 -70.5t191.5 -191.5t70.5 -264t-70.5 -263.5t-191.5 -190.5t-264 -70t-263.5 70t-190.5 190.5t-70 263.5t70 264t190.5 191.5t263.5 70.5zM637 786q-107 0 -185.5 -76t-78.5 -198
q0 -121 78.5 -196.5t185.5 -75.5q106 0 185 75.5t79 196.5t-79 197.5t-185 76.5z" />
    <glyph glyph-name="Ucaron" unicode="&#x1d3;" horiz-adv-x="1572" 
d="M926 1536h-260l-181 299h197l115 -104l112 106h197zM1378 1434v-832q0 -150 -48 -270t-130 -194t-185 -113t-218 -39q-116 0 -219 39t-185 113t-130 194t-48 270v832h283v-826q0 -78 17 -139.5t45 -101.5t67 -66.5t81 -37.5t89 -11t89 11t81 37.5t67 66.5t45 101.5
t17 139.5v826h282z" />
    <glyph glyph-name="ucaron" unicode="&#x1d4;" horiz-adv-x="1320" 
d="M782 1116h-260l-180 299h197l114 -106l113 106h197zM1155 0h-174l-18 160q-52 -85 -143.5 -129.5t-207.5 -44.5q-218 0 -333 134t-115 363v541h260v-524q0 -262 229 -262q114 0 178 70.5t64 213.5v502h260v-1024z" />
    <glyph glyph-name="Udieresismacron" unicode="&#x1d5;" horiz-adv-x="1572" 
d="M1067 1870h-537v190h537v-190zM575 1536q-63 0 -107 39t-44 96t44 96t107 39q65 0 109.5 -39t44.5 -96t-44.5 -96t-109.5 -39zM1018 1536q-63 0 -107.5 39t-44.5 96t44.5 96t107.5 39q65 0 109 -39t44 -96t-44 -96t-109 -39zM1378 1434v-832q0 -150 -48 -270t-130 -194
t-185 -113t-218 -39q-116 0 -219 39t-185 113t-130 194t-48 270v832h283v-826q0 -78 17 -139.5t45 -101.5t67 -66.5t81 -37.5t89 -11t89 11t81 37.5t67 66.5t45 101.5t17 139.5v826h282z" />
    <glyph glyph-name="udieresismacron" unicode="&#x1d6;" horiz-adv-x="1320" 
d="M930 1444h-537v192h537v-192zM438 1386q65 0 109.5 -39t44.5 -96t-44.5 -96t-109.5 -39q-63 0 -107 39t-44 96t44 96t107 39zM879 1386q65 0 109 -39t44 -96t-44 -96t-109 -39q-63 0 -107.5 39t-44.5 96t44.5 96t107.5 39zM1155 0h-174l-18 160q-52 -85 -143.5 -129.5
t-207.5 -44.5q-218 0 -333 134t-115 363v541h260v-524q0 -262 229 -262q114 0 178 70.5t64 213.5v502h260v-1024z" />
    <glyph glyph-name="Udieresisacute" unicode="&#x1d7;" horiz-adv-x="1572" 
d="M813 1870h-197l175 299h278zM575 1536q-63 0 -107 39t-44 96t44 96t107 39q65 0 109.5 -39t44.5 -96t-44.5 -96t-109.5 -39zM1018 1536q-63 0 -107.5 39t-44.5 96t44.5 96t107.5 39q65 0 109 -39t44 -96t-44 -96t-109 -39zM1378 1434v-832q0 -150 -48 -270t-130 -194
t-185 -113t-218 -39q-116 0 -219 39t-185 113t-130 194t-48 270v832h283v-826q0 -78 17 -139.5t45 -101.5t67 -66.5t81 -37.5t89 -11t89 11t81 37.5t67 66.5t45 101.5t17 139.5v826h282z" />
    <glyph glyph-name="udieresisacute" unicode="&#x1d8;" horiz-adv-x="1320" 
d="M721 1444h-197l174 301h279zM438 1386q65 0 109.5 -39t44.5 -96t-45 -97t-109 -40q-63 0 -107 40t-44 97t44 96t107 39zM879 1386q65 0 109 -39t44 -96t-44.5 -97t-108.5 -40q-63 0 -107.5 40t-44.5 97t44.5 96t107.5 39zM1155 0h-174l-18 160q-52 -85 -143.5 -129.5
t-207.5 -44.5q-218 0 -333 134t-115 363v541h260v-524q0 -262 229 -262q114 0 178 70.5t64 213.5v502h260v-1024z" />
    <glyph glyph-name="Udieresiscaron" unicode="&#x1d9;" horiz-adv-x="1572" 
d="M797 2062l112 107h197l-180 -299h-260l-181 301h197zM575 1806q65 0 109.5 -39t44.5 -96t-44.5 -96t-109.5 -39q-63 0 -107 39t-44 96t44 96t107 39zM1018 1806q65 0 109 -39t44 -96t-44 -96t-109 -39q-63 0 -107.5 39t-44.5 96t44.5 96t107.5 39zM1378 1434v-832
q0 -150 -48 -270t-130 -194t-185 -113t-218 -39q-116 0 -219 39t-185 113t-130 194t-48 270v832h283v-826q0 -78 17 -139.5t45 -101.5t67 -66.5t81 -37.5t89 -11t89 11t81 37.5t67 66.5t45 101.5t17 139.5v826h282z" />
    <glyph glyph-name="udieresiscaron" unicode="&#x1da;" horiz-adv-x="1320" 
d="M782 1444h-260l-180 301h197l114 -107l113 107h197zM438 1386q65 0 109.5 -39t44.5 -96t-44.5 -96t-109.5 -39q-63 0 -107 39t-44 96t44 96t107 39zM879 1386q65 0 109 -39t44 -96t-44 -96t-109 -39q-63 0 -107.5 39t-44.5 96t44.5 96t107.5 39zM1155 0h-174l-18 160
q-52 -85 -143.5 -129.5t-207.5 -44.5q-218 0 -333 134t-115 363v541h260v-524q0 -262 229 -262q114 0 178 70.5t64 213.5v502h260v-1024z" />
    <glyph glyph-name="Udieresisgrave" unicode="&#x1db;" horiz-adv-x="1572" 
d="M799 2169l174 -299h-197l-256 299h279zM575 1536q-63 0 -107 39t-44 96t44 96t107 39q65 0 109.5 -39t44.5 -96t-44.5 -96t-109.5 -39zM1018 1536q-63 0 -107.5 39t-44.5 96t44.5 96t107.5 39q65 0 109 -39t44 -96t-44 -96t-109 -39zM1378 1434v-832q0 -150 -48 -270
t-130 -194t-185 -113t-218 -39q-116 0 -219 39t-185 113t-130 194t-48 270v832h283v-826q0 -78 17 -139.5t45 -101.5t67 -66.5t81 -37.5t89 -11t89 11t81 37.5t67 66.5t45 101.5t17 139.5v826h282z" />
    <glyph glyph-name="udieresisgrave" unicode="&#x1dc;" horiz-adv-x="1320" 
d="M811 1444h-197l-256 299h279zM438 1386q65 0 109.5 -39t44.5 -96t-44.5 -96t-109.5 -39q-63 0 -107 39t-44 96t44 96t107 39zM879 1386q65 0 109 -39t44 -96t-44 -96t-109 -39q-63 0 -107.5 39t-44.5 96t44.5 96t107.5 39zM1155 0h-174l-18 160q-52 -85 -143.5 -129.5
t-207.5 -44.5q-218 0 -333 134t-115 363v541h260v-524q0 -262 229 -262q114 0 178 70.5t64 213.5v502h260v-1024z" />
    <glyph glyph-name="Scommaaccent" unicode="&#x218;" horiz-adv-x="1392" 
d="M672 1448h16q147 0 292.5 -65t260.5 -173l-184 -170q-77 63 -183 102.5t-186 39.5h-16q-39 0 -79 -8t-79.5 -25t-64.5 -50t-25 -77q0 -35 18.5 -60t54 -40.5t74.5 -24.5t93 -16l114 -13q115 -14 203 -42.5t159 -78.5t108.5 -130.5t37.5 -188.5q0 -200 -157 -320
t-400 -122h-12q-202 0 -358.5 81t-249.5 207l184 170q54 -78 165.5 -135t258.5 -57h12q126 2 200.5 48.5t74.5 127.5q0 36 -14 64.5t-36.5 47t-58 32t-72 21t-84.5 13.5l-112 12q-486 59 -486 394q0 131 71 230.5t191 151.5t269 54zM639 -440h-197l174 299h279z" />
    <glyph glyph-name="scommaaccent" unicode="&#x219;" horiz-adv-x="1130" 
d="M553 1038h16q128 0 243.5 -51.5t182.5 -138.5l-147 -137q-48 53 -128.5 86.5t-148.5 33.5h-16q-72 -2 -115 -28t-43 -74q0 -43 37.5 -64t132.5 -28l70 -8q81 -6 147 -25.5t119.5 -56t83 -97t29.5 -141.5q0 -139 -112.5 -230t-299.5 -91h-10q-152 0 -284.5 53.5
t-196.5 142.5l147 140q45 -54 141 -89.5t191 -35.5h10q70 0 112 25t42 75q0 57 -41.5 80t-134.5 31l-58 6q-186 15 -285.5 89.5t-99.5 207.5q0 151 119 237t297 88zM494 -440h-197l174 299h279z" />
    <glyph glyph-name="uni021A" unicode="&#x21a;" horiz-adv-x="1245" 
d="M764 1167v-1167h-283v1167h-393v267h1069v-267h-393zM559 -440h-197l175 299h278z" />
    <glyph glyph-name="uni021B" unicode="&#x21b;" horiz-adv-x="735" 
d="M510 772v-772h-262v772h-133v252h133v344h262v-344h133v-252h-133zM322 -440h-197l174 299h279z" />
    <glyph glyph-name="circumflex" unicode="&#x2c6;" horiz-adv-x="847" 
d="M537 1208l-113 107l-115 -107h-196l180 301h260l180 -301h-196z" />
    <glyph glyph-name="caron" unicode="&#x2c7;" horiz-adv-x="847" 
d="M553 1206h-260l-180 299h196l115 -106l113 108h196z" />
    <glyph glyph-name="breve" unicode="&#x2d8;" horiz-adv-x="870" 
d="M578 1509h178q0 -134 -93.5 -222.5t-228.5 -88.5t-228 88.5t-93 222.5h180q0 -56 40.5 -93.5t100.5 -37.5t102 38t42 93z" />
    <glyph glyph-name="dotaccent" unicode="&#x2d9;" horiz-adv-x="530" 
d="M264 1241q-63 0 -107 40t-44 97t44 96t107 39q65 0 109.5 -39t44.5 -96t-45 -97t-109 -40z" />
    <glyph glyph-name="ring" unicode="&#x2da;" horiz-adv-x="612" 
d="M305 1513q79 0 137 -57t58 -135q0 -81 -57.5 -138t-137.5 -57t-136 56.5t-56 138.5q0 78 56.5 135t135.5 57zM307 1386q-29 0 -47 -19.5t-18 -47.5q0 -27 18.5 -46.5t46.5 -19.5q27 0 46.5 19.5t19.5 46.5q0 28 -19 47.5t-47 19.5z" />
    <glyph glyph-name="ogonek" unicode="&#x2db;" horiz-adv-x="460" 
d="M272 0h74q-69 -28 -97 -54t-28 -55q0 -65 92 -65h33v-162h-18q-92 0 -153.5 39.5t-61.5 116.5q0 57 37.5 100.5t121.5 79.5z" />
    <glyph glyph-name="tilde" unicode="&#x2dc;" horiz-adv-x="876" 
d="M762 1434l-55 -142q-38 -100 -129 -110q-63 -6 -115 30l-84 60q-41 27 -80 24q-37 -6 -55 -51l-15 -39h-116l55 144q38 98 127 108q67 9 117 -31l84 -59q39 -25 73 -25q44 3 62 52l14 39h117z" />
    <glyph glyph-name="hungarumlaut" unicode="&#x2dd;" horiz-adv-x="1036" 
d="M309 1210h-196l174 299h278zM666 1210h-197l174 299h279z" />
    <glyph glyph-name="commaaccentcomb" unicode="&#x326;" horiz-adv-x="0" 
d="M309 -512h-196l174 299h278z" />
    <glyph glyph-name="uni0401" unicode="&#x401;" horiz-adv-x="1277" 
d="M465 1536q-63 0 -107.5 39t-44.5 96t44.5 96t107.5 39q65 0 109 -39t44 -96t-44 -96t-109 -39zM907 1536q-63 0 -107 39t-44 96t44 96t107 39q65 0 109.5 -39t44.5 -96t-44.5 -96t-109.5 -39zM498 854h620v-266h-620v-322h671v-266h-954v1434h954v-267h-671v-313z" />
    <glyph glyph-name="uni0410" unicode="&#x410;" horiz-adv-x="1513" 
d="M504 262l-103 -262h-313l590 1434h166l581 -1434h-313l-102 262h-506zM758 922l-156 -392h309z" />
    <glyph glyph-name="uni0411" unicode="&#x411;" horiz-adv-x="1431" 
d="M498 905h336q242 0 366.5 -121.5t124.5 -330.5q0 -210 -123 -331.5t-368 -121.5h-619v1434h959v-267h-676v-262zM498 266h340q117 0 168 48t51 139q0 186 -219 186h-340v-373z" />
    <glyph glyph-name="uni0412" unicode="&#x412;" horiz-adv-x="1417" 
d="M215 1434h553q86 0 157.5 -14t120.5 -36.5t87 -55t60 -66t36 -72.5t19 -71.5t5 -65.5q0 -116 -50.5 -193t-137.5 -112q112 -26 178 -117t66 -219q0 -89 -27 -160.5t-86.5 -129.5t-165.5 -90t-252 -32h-563v1434zM498 1167v-307h301q54 0 93 14t58.5 38t28 49t8.5 53
q0 153 -188 153h-301zM498 616v-348h340q108 0 156 48.5t48 125.5q0 74 -50.5 124t-153.5 50h-340z" />
    <glyph glyph-name="uni0413" unicode="&#x413;" horiz-adv-x="1230" 
d="M498 1167v-1167h-283v1434h928v-267h-645z" />
    <glyph glyph-name="uni0414" unicode="&#x414;" horiz-adv-x="1652" 
d="M1575 -264h-283v264h-934v-264h-282v530h190l479 1168h168l473 -1168h189v-530zM825 915l-256 -649h514z" />
    <glyph glyph-name="uni0415" unicode="&#x415;" horiz-adv-x="1300" 
d="M498 854h620v-266h-620v-322h671v-266h-954v1434h954v-267h-671v-313z" />
    <glyph glyph-name="uni0416" unicode="&#x416;" horiz-adv-x="2230" 
d="M1825 0l-295 461q-50 76 -87.5 102.5t-107.5 26.5h-78v-590h-282v590h-78q-71 0 -109 -27t-86 -102l-294 -461h-320l350 547q59 90 97.5 129.5t76.5 56.5q-66 34 -166 172l-335 529h319l281 -443q50 -75 87.5 -102t106.5 -27h70v572h282v-572h68q70 0 108 27t87 102
l282 443h320l-338 -529q-96 -135 -164 -172q37 -17 76.5 -57t97.5 -129l350 -547h-319z" />
    <glyph glyph-name="uni0417" unicode="&#x417;" horiz-adv-x="1308" 
d="M522 870h180q54 0 93 14t59 38t28.5 49t8.5 53q0 74 -50.5 116t-150.5 42h-10q-87 0 -194 -39.5t-185 -102.5l-184 170q114 109 259.5 173.5t293.5 64.5h14q94 -1 170 -19.5t126 -50t86 -69.5t55 -83t27.5 -84.5t8.5 -78.5q0 -118 -53 -206t-141 -122q110 -26 174.5 -117
t64.5 -217q0 -89 -29 -161.5t-90 -130.5t-165.5 -90t-245.5 -33h-15q-161 0 -311 71.5t-258 190.5l184 170q75 -73 185.5 -119.5t210.5 -46.5h10q256 3 256 180q0 74 -51 124t-154 50h-207v264z" />
    <glyph glyph-name="uni0418" unicode="&#x418;" horiz-adv-x="1517" 
d="M1323 0h-283v903l-680 -903h-165v1434h282v-904l678 904h168v-1434z" />
    <glyph glyph-name="uni0419" unicode="&#x419;" horiz-adv-x="1517" 
d="M760 1536q-135 0 -228.5 88t-93.5 221h180q0 -55 41 -93t101 -38t101.5 38t41.5 93h178q0 -134 -93 -221.5t-228 -87.5zM1323 0h-283v903l-680 -903h-165v1434h282v-904l678 904h168v-1434z" />
    <glyph glyph-name="uni041A" unicode="&#x41a;" horiz-adv-x="1525" 
d="M1118 0l-295 461q-48 76 -85.5 102.5t-108.5 26.5h-131v-590h-283v1434h283v-572h123q70 0 107.5 27t86.5 102l283 443h319l-338 -529q-100 -138 -166 -172q38 -17 77.5 -57t96.5 -129l351 -547h-320z" />
    <glyph glyph-name="uni041B" unicode="&#x41b;" horiz-adv-x="1513" 
d="M758 915l-357 -915h-313l590 1434h166l581 -1434h-313z" />
    <glyph glyph-name="uni041C" unicode="&#x41c;" horiz-adv-x="1837" 
d="M1622 0h-283v915l-432 -536l-430 536v-915h-282v1434h167l545 -684l547 684h168v-1434z" />
    <glyph glyph-name="uni041D" unicode="&#x41d;" horiz-adv-x="1511" 
d="M1315 0h-283v588h-555v-588h-282v1434h282v-580h555v580h283v-1434z" />
    <glyph glyph-name="uni041E" unicode="&#x41e;" horiz-adv-x="1697" 
d="M848 1448q148 0 283.5 -58t233.5 -156t156 -233.5t58 -283.5q0 -200 -98 -368t-266.5 -265.5t-366.5 -97.5t-366 97.5t-265.5 265.5t-97.5 368q0 148 57.5 283.5t155 233.5t233 156t283.5 58zM848 1182q-190 0 -318.5 -131t-128.5 -334q0 -204 128.5 -334.5t318.5 -130.5
q191 0 319.5 130.5t128.5 334.5q0 203 -128.5 334t-319.5 131z" />
    <glyph glyph-name="uni041F" unicode="&#x41f;" horiz-adv-x="1495" 
d="M1300 0h-282v1167h-541v-1167h-282v1434h1105v-1434z" />
    <glyph glyph-name="uni0420" unicode="&#x420;" horiz-adv-x="1443" 
d="M215 1434h471q147 0 268.5 -42t202 -116t124.5 -175t44 -218q0 -119 -44 -220.5t-124.5 -175t-202 -115.5t-268.5 -42h-188v-330h-283v1434zM498 596h211q95 0 171.5 28.5t126.5 95t50 163.5q0 93 -50 158.5t-127 95.5t-171 30h-211v-571z" />
    <glyph glyph-name="uni0421" unicode="&#x421;" horiz-adv-x="1497" 
d="M848 1448q156 0 296.5 -63.5t244.5 -174.5l-185 -170q-145 142 -356 142q-190 0 -318.5 -131t-128.5 -334q0 -204 128.5 -334.5t318.5 -130.5q215 0 356 141l185 -170q-103 -111 -243.5 -174t-297.5 -63q-148 0 -283.5 58t-233 156t-155 233.5t-57.5 283.5t57.5 283.5
t155 233.5t233 156t283.5 58z" />
    <glyph glyph-name="uni0422" unicode="&#x422;" horiz-adv-x="1245" 
d="M764 1167v-1167h-283v1167h-393v267h1069v-267h-393z" />
    <glyph glyph-name="uni0423" unicode="&#x423;" horiz-adv-x="1538" 
d="M633 0h-320l295 518l-520 916h322l360 -625l358 625h322z" />
    <glyph glyph-name="uni0424" unicode="&#x424;" horiz-adv-x="2318" 
d="M1638 1358q168 0 297.5 -78t198 -211t68.5 -297t-68.5 -297t-198 -211t-297.5 -78q-103 0 -192 41.5t-146 112.5v-340h-282v340q-57 -71 -145 -112.5t-191 -41.5q-126 0 -232.5 45.5t-178.5 124.5t-112 186.5t-40 229.5t40 229.5t112 186.5t178.5 124.5t232.5 45.5
q103 0 191.5 -41t144.5 -113v230h282v-230q58 72 146.5 113t191.5 41zM709 455q132 0 220.5 89t88.5 228q0 140 -88.5 230t-220.5 90q-131 0 -219.5 -90.5t-88.5 -229.5t88.5 -228t219.5 -89zM1610 455q132 0 220.5 89t88.5 228q0 140 -88.5 230t-220.5 90
q-130 0 -218.5 -90.5t-88.5 -229.5t88 -228t219 -89z" />
    <glyph glyph-name="uni0425" unicode="&#x425;" horiz-adv-x="1486" 
d="M741 487l-329 -487h-324l498 748l-465 686h321l306 -439l299 439h321l-465 -699l498 -735h-322z" />
    <glyph glyph-name="uni0426" unicode="&#x426;" horiz-adv-x="1576" 
d="M1491 -264h-283v264h-1013v1434h282v-1168h547v1168h283v-1168h184v-530z" />
    <glyph glyph-name="uni0427" unicode="&#x427;" horiz-adv-x="1439" 
d="M1225 0h-283v500q-46 -69 -126.5 -106.5t-184.5 -37.5q-84 0 -158 18t-142 60.5t-116.5 107t-77 163t-28.5 223.5v506h282v-521q0 -290 285 -290q51 0 96.5 15.5t84.5 48t62 91t23 137.5v519h283v-1434z" />
    <glyph glyph-name="uni0428" unicode="&#x428;" horiz-adv-x="2150" 
d="M1939 0h-1744v1434h282v-1168h449v1168h282v-1168h449v1168h282v-1434z" />
    <glyph glyph-name="uni0429" unicode="&#x429;" horiz-adv-x="2299" 
d="M2122 -264h-283v264h-1644v1434h282v-1168h449v1168h282v-1168h449v1168h282v-1168h183v-530z" />
    <glyph glyph-name="uni042A" unicode="&#x42a;" horiz-adv-x="1466" 
d="M555 905h319q242 0 367 -121.5t125 -330.5q0 -211 -122.5 -332t-369.5 -121h-602v1167h-184v267h467v-529zM553 266h326q219 0 219 187q0 186 -219 186h-326v-373z" />
    <glyph glyph-name="uni042B" unicode="&#x42b;" horiz-adv-x="1939" 
d="M483 905h322q242 0 365.5 -121.5t123.5 -330.5q0 -211 -122 -332t-367 -121h-604v1434h282v-529zM1722 0h-282v1434h282v-1434zM483 266h326q219 0 219 187q0 186 -219 186h-326v-373z" />
    <glyph glyph-name="uni042C" unicode="&#x42c;" horiz-adv-x="1396" 
d="M483 905h322q242 0 365.5 -121.5t123.5 -330.5q0 -211 -122 -332t-367 -121h-604v1434h282v-529zM483 266h326q219 0 219 187q0 186 -219 186h-326v-373z" />
    <glyph glyph-name="uni042D" unicode="&#x42d;" horiz-adv-x="1497" 
d="M649 1448q148 0 283.5 -58t233 -156t155 -233.5t57.5 -283.5t-57.5 -283.5t-155 -233.5t-233 -156t-283.5 -58q-157 0 -296.5 63t-243.5 174l184 170q141 -141 356 -141q155 0 271.5 92t150.5 240h-510v266h510q-34 148 -150.5 240t-271.5 92q-211 0 -356 -142l-184 170
q104 111 244 174.5t296 63.5z" />
    <glyph glyph-name="uni042E" unicode="&#x42e;" horiz-adv-x="2240" 
d="M1391 1448q148 0 283.5 -58t233.5 -156t156 -233.5t58 -283.5q0 -200 -98 -368t-266.5 -265.5t-366.5 -97.5q-266 0 -467 170.5t-246 427.5h-195v-584h-282v1434h282v-584h195q45 257 246.5 427.5t466.5 170.5zM1391 252q191 0 319.5 130.5t128.5 334.5q0 203 -128.5 334
t-319.5 131q-190 0 -318.5 -131t-128.5 -334q0 -204 128.5 -334.5t318.5 -130.5z" />
    <glyph glyph-name="uni042F" unicode="&#x42f;" horiz-adv-x="1439" 
d="M1225 0h-283v350h-158q-102 -3 -151.5 -39.5t-134.5 -167.5l-92 -143h-318l123 190q128 198 215 252q-147 57 -228 174.5t-81 276.5q0 114 41 212.5t118 171.5t195.5 115t265.5 42h488v-1434zM942 1167h-231q-144 0 -236 -71t-92 -203q0 -138 90.5 -207.5t237.5 -69.5
h231v551z" />
    <glyph glyph-name="uni0430" unicode="&#x430;" 
d="M1141 0h-174l-15 145q-58 -73 -147 -115t-193 -42q-143 0 -257.5 70t-178 190t-63.5 264t63.5 264.5t178.5 191t257 70.5q104 0 193 -42.5t147 -116.5l15 145h174v-1024zM637 240q106 0 185 75.5t79 196.5t-79 197.5t-185 76.5q-107 0 -185.5 -76t-78.5 -198
q0 -121 78.5 -196.5t185.5 -75.5z" />
    <glyph glyph-name="uni0431" unicode="&#x431;" horiz-adv-x="1275" 
d="M874 1434h261q0 -154 -86.5 -230t-296.5 -76h-66q-147 0 -230 -66.5t-83 -189.5v-45q43 74 128 119t185 45q215 0 346 -135t131 -344q0 -147 -63.5 -266.5t-184.5 -190.5t-278 -71q-110 0 -206 39t-166.5 109.5t-111 174.5t-40.5 228v245q0 271 154.5 419.5t439.5 148.5
q99 0 133 18t34 68zM637 752q-106 0 -185 -73.5t-79 -184.5q0 -113 77.5 -185.5t186.5 -72.5q108 0 186 73t78 185q0 111 -79.5 184.5t-184.5 73.5z" />
    <glyph glyph-name="uni0432" unicode="&#x432;" horiz-adv-x="1226" 
d="M174 1024h537q179 0 265.5 -72.5t86.5 -206.5q0 -161 -139 -210q92 -21 139 -81.5t47 -148.5q0 -162 -93.5 -233.5t-303.5 -71.5h-539v1024zM434 803v-182h262q107 3 107 92q0 90 -111 90h-258zM434 221h285q131 0 131 107q0 101 -127 104h-289v-211z" />
    <glyph glyph-name="uni0433" unicode="&#x433;" horiz-adv-x="1017" 
d="M434 772v-772h-260v1024h768v-252h-508z" />
    <glyph glyph-name="uni0434" unicode="&#x434;" horiz-adv-x="1327" 
d="M1262 -190h-261v190h-673v-190h-260v442h155l357 772h168l356 -772h158v-442zM664 641l-175 -389h349z" />
    <glyph glyph-name="uni0435" unicode="&#x435;" horiz-adv-x="1249" 
d="M629 1038q161 0 275.5 -72t174.5 -204q31 -69 35.5 -163.5t-18.5 -158.5h-715q0 -101 72.5 -158t181.5 -57q168 0 309 72l137 -150q-215 -159 -446 -159t-376.5 148.5t-145.5 375.5q0 224 141.5 375t374.5 151zM629 801q-100 0 -167.5 -60t-70.5 -137h469q0 44 -24 82
q-27 52 -81.5 83.5t-125.5 31.5z" />
    <glyph glyph-name="uni0436" unicode="&#x436;" horiz-adv-x="1835" 
d="M1479 0l-176 272q-49 75 -87 102t-108 27h-59v-401h-261v401h-61q-70 0 -108 -27t-87 -102l-176 -272h-288l245 375q85 131 156 153q-32 13 -71.5 54.5t-73.5 95.5l-230 346h289l160 -244q48 -76 85.5 -102.5t106.5 -26.5h53v373h261v-373h51q71 0 108.5 26.5t85.5 102.5
l158 244h289l-228 -346q-83 -126 -147 -150q70 -21 156 -153l245 -375h-288z" />
    <glyph glyph-name="uni0437" unicode="&#x437;" horiz-adv-x="1120" 
d="M811 535q93 -20 141.5 -80t48.5 -150q0 -154 -113 -235.5t-304 -83.5h-19q-149 0 -279.5 60.5t-183.5 133.5l142 154q133 -110 315 -113h19q74 2 118.5 33t44.5 88q0 46 -31 74.5t-98 29.5h-163v160h139q52 0 78 24t26 66q0 53 -38 79t-99 28h-12q-78 0 -141.5 -26
t-129.5 -77l-137 150q77 80 189 134t239 54h15q158 -2 266 -77t108 -205q0 -167 -141 -221z" />
    <glyph glyph-name="uni0438" unicode="&#x438;" horiz-adv-x="1300" 
d="M1126 0h-260v604l-524 -604h-168v1024h260v-604l524 604h168v-1024z" />
    <glyph glyph-name="uni0439" unicode="&#x439;" horiz-adv-x="1300" 
d="M653 1112q-135 0 -228 88.5t-93 222.5h180q0 -56 40.5 -93.5t100.5 -37.5t102 38t42 93h178q0 -134 -93.5 -222.5t-228.5 -88.5zM1126 0h-260v604l-524 -604h-168v1024h260v-604l524 604h168v-1024z" />
    <glyph glyph-name="uni043A" unicode="&#x43a;" horiz-adv-x="1226" 
d="M887 0l-176 272q-49 75 -87 102t-108 27h-72v-401h-260v1024h260v-373h64q69 0 106.5 26.5t85.5 102.5l160 244h289l-229 -346q-34 -53 -73.5 -95t-72.5 -55q71 -22 156 -153l246 -375h-289z" />
    <glyph glyph-name="uni043B" unicode="&#x43b;" horiz-adv-x="1247" 
d="M625 641l-281 -641h-276l473 1024h168l473 -1024h-275z" />
    <glyph glyph-name="uni043C" unicode="&#x43c;" horiz-adv-x="1443" 
d="M1268 0h-260v604l-287 -330l-287 330v-604h-260v1024h168l379 -438l379 438h168v-1024z" />
    <glyph glyph-name="uni043D" unicode="&#x43d;" 
d="M1141 0h-260v393h-447v-393h-260v1024h260v-379h447v379h260v-1024z" />
    <glyph glyph-name="uni043E" unicode="&#x43e;" horiz-adv-x="1275" 
d="M637 1038q143 0 264 -70.5t191.5 -191.5t70.5 -264t-70.5 -263.5t-191.5 -190.5t-264 -70t-263.5 70t-190.5 190.5t-70 263.5t70 264t190.5 191.5t263.5 70.5zM637 786q-107 0 -185.5 -76t-78.5 -198q0 -121 78.5 -196.5t185.5 -75.5q106 0 185 75.5t79 196.5t-79 197.5
t-185 76.5z" />
    <glyph glyph-name="uni043F" unicode="&#x43f;" 
d="M1141 0h-260v772h-447v-772h-260v1024h967v-1024z" />
    <glyph glyph-name="uni0440" unicode="&#x440;" horiz-adv-x="1327" 
d="M715 1036q142 0 256.5 -70t177.5 -189.5t63 -264.5q0 -221 -141 -373.5t-356 -152.5q-81 0 -152.5 31t-118.5 83v-477h-260v1401h174l15 -145q60 74 148.5 115.5t193.5 41.5zM688 784q-106 0 -185 -75.5t-79 -196.5t79 -197.5t185 -76.5q107 0 185.5 76t78.5 198
q0 121 -78.5 196.5t-185.5 75.5z" />
    <glyph glyph-name="uni0441" unicode="&#x441;" horiz-adv-x="1144" 
d="M637 1036q119 0 224.5 -50t178.5 -138l-155 -168q-61 57 -119.5 80.5t-128.5 23.5q-107 0 -185.5 -75.5t-78.5 -196.5t78.5 -196.5t185.5 -75.5q70 0 128.5 23.5t119.5 80.5l155 -168q-73 -88 -178.5 -138t-224.5 -50q-143 0 -263.5 70t-190.5 190.5t-70 263.5t70 263.5
t190.5 190.5t263.5 70z" />
    <glyph glyph-name="uni0442" unicode="&#x442;" horiz-adv-x="1030" 
d="M645 772v-772h-258v772h-319v252h897v-252h-320z" />
    <glyph glyph-name="uni0443" unicode="&#x443;" horiz-adv-x="1331" 
d="M1165 1024v-893q0 -112 -36 -208t-101 -165.5t-161.5 -109t-213.5 -39.5q-261 0 -454 160l147 157q82 -41 153.5 -61t153.5 -19q114 0 182 58.5t68 167.5v65q-47 -60 -121.5 -90.5t-158.5 -30.5q-217 0 -333 135.5t-116 364.5v508h260v-494q0 -262 230 -262
q114 0 177.5 70.5t63.5 214.5v471h260z" />
    <glyph glyph-name="uni0444" unicode="&#x444;" horiz-adv-x="2023" 
d="M1409 1036q143 0 258 -70t178.5 -190t63.5 -264t-63.5 -264.5t-179 -191t-257.5 -70.5q-80 0 -150 30.5t-118 83.5v-465h-260v465q-48 -53 -118 -83.5t-151 -30.5q-142 0 -257 70.5t-178.5 191t-63.5 264.5t63.5 264t178 190t257.5 70q101 0 187.5 -40.5t144.5 -110.5
l8 139h119l8 -137q57 69 143 109t187 40zM637 238q106 0 185 76.5t79 197.5t-79 196.5t-185 75.5q-107 0 -185.5 -75.5t-78.5 -196.5q0 -122 78.5 -198t185.5 -76zM1384 238q107 0 186 76t79 198q0 121 -78.5 196.5t-186.5 75.5q-106 0 -185 -75.5t-79 -196.5t79 -197.5
t185 -76.5z" />
    <glyph glyph-name="uni0445" unicode="&#x445;" horiz-adv-x="1228" 
d="M612 315l-243 -315h-301l399 532l-377 492h301l227 -283l222 283h299l-377 -502l401 -522h-301z" />
    <glyph glyph-name="uni0446" unicode="&#x446;" horiz-adv-x="1359" 
d="M1292 -190h-260v190h-858v1024h260v-772h432v772h260v-772h166v-442z" />
    <glyph glyph-name="uni0447" unicode="&#x447;" horiz-adv-x="1327" 
d="M1153 0h-260v328q-97 -105 -275 -105q-231 0 -342.5 137.5t-111.5 372.5v291h260v-274q0 -143 55.5 -209t179.5 -66q234 0 234 258v291h260v-1024z" />
    <glyph glyph-name="uni0448" unicode="&#x448;" horiz-adv-x="1875" 
d="M1702 0h-1528v1024h260v-772h375v772h258v-772h375v772h260v-1024z" />
    <glyph glyph-name="uni0449" unicode="&#x449;" horiz-adv-x="1935" 
d="M1868 -190h-260v190h-1434v1024h260v-772h375v772h258v-772h375v772h260v-772h166v-442z" />
    <glyph glyph-name="uni044A" unicode="&#x44a;" horiz-adv-x="1333" 
d="M502 729h237q74 0 136 -12.5t106 -33t77.5 -50t54 -61t33.5 -69t18 -70.5t5 -68q0 -50 -10 -96.5t-39 -97t-74.5 -87t-124.5 -60.5t-182 -24h-497v772h-174v252h434v-295zM502 244h266q141 0 141 121q0 120 -141 120h-266v-241z" />
    <glyph glyph-name="uni044B" unicode="&#x44b;" horiz-adv-x="1634" 
d="M434 729h238q74 0 136 -12.5t106 -33t77.5 -50t54 -61t33.5 -69t18 -70.5t5 -68q0 -50 -10 -96.5t-39 -97t-74.5 -87t-124.5 -60.5t-182 -24h-498v1024h260v-295zM1460 0h-260v1024h260v-1024zM434 244h266q142 0 142 121q0 120 -142 120h-266v-241z" />
    <glyph glyph-name="uni044C" unicode="&#x44c;" horiz-adv-x="1208" 
d="M434 729h238q74 0 136 -12.5t106 -33t77.5 -50t54 -61t33.5 -69t18 -70.5t5 -68q0 -50 -10 -96.5t-39 -97t-74.5 -87t-124.5 -60.5t-182 -24h-498v1024h260v-295zM434 244h266q142 0 142 121q0 120 -142 120h-266v-241z" />
    <glyph glyph-name="uni044D" unicode="&#x44d;" horiz-adv-x="1144" 
d="M506 1036q143 0 263.5 -70t190.5 -190.5t70 -263.5t-70 -263.5t-190.5 -190.5t-263.5 -70q-120 0 -225.5 50t-178.5 138l156 168q61 -57 119.5 -80.5t128.5 -23.5q87 0 155.5 52.5t90.5 137.5h-318v164h318q-22 85 -90.5 137.5t-155.5 52.5q-70 0 -128.5 -23.5
t-119.5 -80.5l-156 168q73 88 178.5 138t225.5 50z" />
    <glyph glyph-name="uni044E" unicode="&#x44e;" horiz-adv-x="1740" 
d="M1102 1038q143 0 264 -70.5t191.5 -191.5t70.5 -264t-70.5 -263.5t-191.5 -190.5t-264 -70q-186 0 -327.5 115t-180.5 290h-160v-393h-260v1024h260v-379h164q42 171 182 282t322 111zM1102 240q106 0 185 75.5t79 196.5t-79 197.5t-185 76.5q-107 0 -185.5 -76
t-78.5 -198q0 -121 78.5 -196.5t185.5 -75.5z" />
    <glyph glyph-name="uni044F" unicode="&#x44f;" horiz-adv-x="1167" 
d="M1038 0h-260v297h-106q-61 -1 -96.5 -28t-86.5 -101l-114 -168h-283l131 197l19 28.5t21.5 31.5t19 26t25 28.5t26.5 22.5q-102 31 -163.5 120t-61.5 191q0 55 12.5 106t44.5 101.5t81.5 88t129 60.5t180.5 23h481v-1024zM778 772h-250q-80 0 -119.5 -33.5t-39.5 -93.5
t40 -94.5t119 -34.5h250v256z" />
    <glyph glyph-name="uni0451" unicode="&#x451;" horiz-adv-x="1218" 
d="M408 1386q65 0 109 -39t44 -96t-44 -96t-109 -39q-63 0 -107.5 39t-44.5 96t44.5 96t107.5 39zM850 1386q65 0 109.5 -39t44.5 -96t-44.5 -96t-109.5 -39q-63 0 -107.5 39t-44.5 96t44.5 96t107.5 39zM629 1038q161 0 275.5 -72t174.5 -204q31 -69 35.5 -163.5
t-18.5 -158.5h-715q0 -101 72.5 -158t181.5 -57q168 0 309 72l137 -150q-215 -159 -446 -159t-376.5 148.5t-145.5 375.5q0 224 141.5 375t374.5 151zM629 801q-100 0 -167.5 -60t-70.5 -137h469q0 44 -24 82q-27 52 -81.5 83.5t-125.5 31.5z" />
    <glyph glyph-name="Wgrave" unicode="&#x1e80;" horiz-adv-x="2365" 
d="M1182 1835l174 -299h-197l-256 299h279zM1700 0h-168l-348 862l-350 -862h-166l-580 1434h313l347 -914l352 914h166l352 -914l346 914h313z" />
    <glyph glyph-name="wgrave" unicode="&#x1e81;" horiz-adv-x="1955" 
d="M958 1415l175 -299h-197l-256 299h278zM1423 0h-166l-278 608l-279 -608h-168l-464 1024h276l272 -641l279 641h168l278 -641l273 641h276z" />
    <glyph glyph-name="Wacute" unicode="&#x1e82;" horiz-adv-x="2365" 
d="M1198 1536h-197l175 299h278zM1700 0h-168l-348 862l-350 -862h-166l-580 1434h313l347 -914l352 914h166l352 -914l346 914h313z" />
    <glyph glyph-name="wacute" unicode="&#x1e83;" horiz-adv-x="1955" 
d="M1014 1116h-197l174 299h279zM1423 0h-166l-278 608l-279 -608h-168l-464 1024h276l272 -641l279 641h168l278 -641l273 641h276z" />
    <glyph glyph-name="Wdieresis" unicode="&#x1e84;" horiz-adv-x="2365" 
d="M961 1536q-63 0 -107.5 39t-44.5 96t44.5 96t107.5 39q65 0 109 -39t44 -96t-44 -96t-109 -39zM1403 1536q-63 0 -107.5 39t-44.5 96t44.5 96t107.5 39q65 0 109 -39t44 -96t-44 -96t-109 -39zM1700 0h-168l-348 862l-350 -862h-166l-580 1434h313l347 -914l352 914h166
l352 -914l346 914h313z" />
    <glyph glyph-name="wdieresis" unicode="&#x1e85;" horiz-adv-x="1955" 
d="M758 1116q-63 0 -107.5 39t-44.5 96t44.5 96t107.5 39q65 0 109 -39t44 -96t-44 -96t-109 -39zM1198 1116q-63 0 -107 39t-44 96t44 96t107 39q65 0 109.5 -39t44.5 -96t-44.5 -96t-109.5 -39zM1423 0h-166l-278 608l-279 -608h-168l-464 1024h276l272 -641l279 641h168
l278 -641l273 641h276z" />
    <glyph glyph-name="Ygrave" unicode="&#x1ef2;" horiz-adv-x="1478" 
d="M717 1835l174 -299h-197l-256 299h279zM881 0h-283v479l-510 955h322l331 -607l330 607h322l-512 -955v-479z" />
    <glyph glyph-name="ygrave" unicode="&#x1ef3;" horiz-adv-x="1331" 
d="M848 1116h-197l-256 299h279zM434 1024v-494q0 -262 230 -262q114 0 177.5 70.5t63.5 214.5v471h260v-893q0 -112 -36 -208t-101 -165.5t-161.5 -109t-213.5 -39.5q-261 0 -454 160l147 157q82 -41 153.5 -61t153.5 -19q114 0 182 58.5t68 167.5v65q-47 -60 -121.5 -90.5
t-158.5 -30.5q-217 0 -333 135.5t-116 364.5v508h260z" />
    <glyph glyph-name="endash" unicode="&#x2013;" horiz-adv-x="989" 
d="M874 510h-761v162h761v-162z" />
    <glyph glyph-name="emdash" unicode="&#x2014;" horiz-adv-x="1333" 
d="M1219 510h-1106v162h1106v-162z" />
    <glyph glyph-name="quoteleft" unicode="&#x2018;" horiz-adv-x="673" 
d="M113 877l256 557h190l-172 -557h-274z" />
    <glyph glyph-name="quoteright" unicode="&#x2019;" horiz-adv-x="673" 
d="M559 1434l-256 -557h-190l172 557h274z" />
    <glyph glyph-name="quotesinglbase" unicode="&#x201a;" horiz-adv-x="673" 
d="M559 262l-256 -557h-190l172 557h274z" />
    <glyph glyph-name="quotedblleft" unicode="&#x201c;" horiz-adv-x="1028" 
d="M113 877l256 557h190l-172 -557h-274zM469 877l256 557h190l-172 -557h-274z" />
    <glyph glyph-name="quotedblright" unicode="&#x201d;" horiz-adv-x="1028" 
d="M559 1434l-256 -557h-190l172 557h274zM915 1434l-256 -557h-190l172 557h274z" />
    <glyph glyph-name="quotedblbase" unicode="&#x201e;" horiz-adv-x="1028" 
d="M559 262l-256 -557h-190l172 557h274zM915 262l-256 -557h-190l172 557h274z" />
    <glyph glyph-name="dagger" unicode="&#x2020;" horiz-adv-x="831" 
d="M504 1024h213v-162h-213v-985h-178v985h-213v162h213v410h178v-410z" />
    <glyph glyph-name="daggerdbl" unicode="&#x2021;" horiz-adv-x="831" 
d="M504 1024h213v-162h-213v-411h213v-162h-213v-412h-178v412h-213v162h213v411h-213v162h213v410h178v-410z" />
    <glyph glyph-name="bullet" unicode="&#x2022;" horiz-adv-x="862" 
d="M430 918q133 0 226.5 -93t93.5 -225t-93.5 -224.5t-226.5 -92.5q-132 0 -224.5 92.5t-92.5 224.5t92.5 225t224.5 93z" />
    <glyph glyph-name="ellipsis" unicode="&#x2026;" horiz-adv-x="1519" 
d="M268 262q65 0 109.5 -40.5t44.5 -98.5q0 -57 -45 -97t-109 -40q-66 0 -110.5 40t-44.5 97q0 59 44.5 99t110.5 40zM760 262q64 0 108.5 -40t44.5 -99q0 -57 -44.5 -97t-108.5 -40q-66 0 -111 40t-45 97q0 59 45 99t111 40zM1253 262q65 0 109.5 -40.5t44.5 -98.5
q0 -57 -45 -97t-109 -40q-66 0 -110.5 40t-44.5 97q0 59 44.5 99t110.5 40z" />
    <glyph glyph-name="perthousand" unicode="&#x2030;" horiz-adv-x="2478" 
d="M467 1448q150 0 253 -99t103 -241t-103 -241t-253 -99q-149 0 -251.5 99t-102.5 241t102.5 241t251.5 99zM543 0h-166l772 1434h166zM469 1280q-73 0 -121.5 -48t-48.5 -124q0 -75 48.5 -122.5t121.5 -47.5t121.5 47.5t48.5 122.5q0 76 -48.5 124t-121.5 48zM1223 666
q150 0 253 -99.5t103 -240.5q0 -142 -103 -241t-253 -99q-149 0 -252 99.5t-103 240.5q0 140 103.5 240t251.5 100zM2009 666q150 0 253 -99.5t103 -240.5q0 -142 -103 -241t-253 -99q-149 0 -251.5 99t-102.5 241q0 140 103 240t251 100zM1223 496q-73 0 -121.5 -47.5
t-48.5 -122.5q0 -77 48.5 -124.5t121.5 -47.5t121.5 47.5t48.5 124.5q0 75 -48.5 122.5t-121.5 47.5zM2009 496q-73 0 -121.5 -47.5t-48.5 -122.5q0 -77 48.5 -124.5t121.5 -47.5t121.5 47.5t48.5 124.5q0 75 -48.5 122.5t-121.5 47.5z" />
    <glyph glyph-name="guilsinglleft" unicode="&#x2039;" horiz-adv-x="630" 
d="M518 678l-166 -150l166 -147v-229l-405 376l405 379v-229z" />
    <glyph glyph-name="guilsinglright" unicode="&#x203a;" horiz-adv-x="630" 
d="M518 528l-405 -376v229l166 147l-166 150v229z" />
    <glyph glyph-name="fraction" unicode="&#x2044;" horiz-adv-x="1044" 
d="M958 1434l-706 -1434h-164l707 1434h163z" />
    <glyph glyph-name="Euro" unicode="&#x20ac;" horiz-adv-x="1640" 
d="M987 252q215 0 356 141l185 -170q-103 -111 -243.5 -174t-297.5 -63q-243 0 -435.5 144.5t-260.5 371.5h-178v162h147q-2 18 -2 53q0 39 2 57h-147v162h178q72 226 262.5 369t433.5 143q156 0 296.5 -63.5t244.5 -174.5l-185 -170q-145 142 -356 142q-131 0 -237 -65.5
t-162 -180.5h481l-43 -162h-483q-2 -18 -2 -57q0 -37 2 -53h409l-43 -162h-323q56 -116 162 -183t239 -67z" />
    <glyph glyph-name="uni2116" unicode="&#x2116;" horiz-adv-x="2684" 
d="M1985 1448q143 0 264 -70.5t191.5 -191.5t70.5 -264t-70.5 -264t-191.5 -191t-264 -70t-264 70t-191 191t-70 264t70 264t191 191.5t264 70.5zM1343 0h-167l-678 903v-903h-283v1434h166l680 -904v904h282v-1434zM1985 1196q-107 0 -186 -76t-79 -198q0 -121 79 -197
t186 -76q106 0 185 76t79 197t-79 197.5t-185 76.5zM1501 238h969v-238h-969v238z" />
    <glyph glyph-name="trademark" unicode="&#x2122;" horiz-adv-x="1533" 
d="M475 1274v-475h-166v475h-196v160h561v-160h-199zM1421 799h-166v366l-178 -202l-178 202v-366h-166v635h107l237 -273l238 273h106v-635z" />
    <glyph glyph-name="oneeighth" unicode="&#x215b;" horiz-adv-x="1523" 
d="M289 782v406l-80 -96l-96 73l223 269h137v-652h-184zM449 0h-164l706 1434h164zM1300 346q50 -19 80.5 -61t30.5 -97q0 -90 -69.5 -146t-202.5 -56h-6q-134 0 -204.5 56t-70.5 146q0 55 30.5 97t80.5 61q-88 51 -88 143q0 71 62 124t183 53h13q123 0 186.5 -53t63.5 -124
q0 -92 -89 -143zM1135 389q37 0 66.5 19t29.5 57q0 37 -26.5 57.5t-69.5 20.5t-70 -20.5t-27 -57.5q0 -36 27 -56t70 -20zM1135 115q52 0 84 26.5t32 69.5q0 44 -31.5 70t-84.5 26q-54 0 -86.5 -26t-32.5 -70q0 -43 32.5 -69.5t86.5 -26.5z" />
    <glyph glyph-name="threeeighths" unicode="&#x215c;" horiz-adv-x="1654" 
d="M651 1313l-186 -144q30 -3 72 -12q76 -20 114.5 -65.5t38.5 -110.5q0 -86 -69.5 -149.5t-194.5 -63.5h-8q-175 0 -305 127l104 96q24 -19 40.5 -29.5t51 -22t72.5 -11.5q57 2 94 25.5t37 60.5q0 34 -30.5 53.5t-80.5 17.5q-48 -3 -79 -18l-58 45l197 164h-283v158h473
v-121zM580 0h-164l706 1434h164zM1432 346q50 -19 80 -61t30 -97q0 -90 -69.5 -146t-202.5 -56h-6q-134 0 -204.5 56t-70.5 146q0 55 30.5 97t80.5 61q-88 51 -88 143q0 71 62 124t183 53h13q123 0 186.5 -53t63.5 -124q0 -92 -88 -143zM1266 389q37 0 66.5 19t29.5 57
q0 37 -26.5 57.5t-69.5 20.5t-70 -20.5t-27 -57.5q0 -36 27 -56t70 -20zM1266 115q52 0 84 26.5t32 69.5q0 44 -31.5 70t-84.5 26q-54 0 -86.5 -26t-32.5 -70q0 -43 32.5 -69.5t86.5 -26.5z" />
    <glyph glyph-name="fiveeighths" unicode="&#x215d;" horiz-adv-x="1640" 
d="M633 1276h-307v-109q66 25 129 25q107 0 171 -58.5t64 -150.5q0 -86 -69.5 -150t-192.5 -65h-10q-175 0 -305 127l104 96q27 -19 41.5 -28.5t49.5 -21t73 -11.5q57 0 94 23.5t37 60.5t-29.5 58.5t-81.5 21.5q-81 3 -147 -35l-66 47v328h445v-158zM565 0h-164l707 1434
h164zM1415 346q50 -19 80.5 -61t30.5 -97q0 -90 -70 -146t-203 -56h-6q-134 0 -204 56t-70 146q0 55 30 97t80 61q-88 51 -88 143q0 71 62.5 124t183.5 53h12q123 0 186.5 -53t63.5 -124q0 -92 -88 -143zM1249 389q38 0 67.5 19t29.5 57q0 37 -27 57.5t-70 20.5t-69.5 -20.5
t-26.5 -57.5q0 -36 26.5 -56t69.5 -20zM1251 115q52 0 84.5 26.5t32.5 69.5q0 44 -32 70t-85 26q-54 0 -86 -26t-32 -70q0 -43 32 -69.5t86 -26.5z" />
    <glyph glyph-name="seveneighths" unicode="&#x215e;" horiz-adv-x="1462" 
d="M113 782l295 494h-289v158h497v-109l-323 -543h-180zM385 0h-164l707 1434h164zM1237 346q50 -19 80.5 -61t30.5 -97q0 -90 -70 -146t-203 -56h-6q-134 0 -204 56t-70 146q0 55 30 97t80 61q-88 51 -88 143q0 71 62.5 124t183.5 53h12q123 0 186.5 -53t63.5 -124
q0 -92 -88 -143zM1071 389q37 0 66.5 19t29.5 57q0 37 -26.5 57.5t-69.5 20.5t-69.5 -20.5t-26.5 -57.5q0 -36 26.5 -56t69.5 -20zM1073 115q52 0 84.5 26.5t32.5 69.5q0 44 -32 70t-85 26q-54 0 -86.5 -26t-32.5 -70q0 -43 32.5 -69.5t86.5 -26.5z" />
    <glyph glyph-name="partialdiff" unicode="&#x2202;" horiz-adv-x="1345" 
d="M743 1448h15q180 0 297.5 -98.5t157.5 -270.5t1 -393l-18 -98q-47 -266 -230.5 -434t-420.5 -168q-121 0 -212.5 42.5t-141.5 113t-68 158t-2 181.5q26 145 109 253.5t196.5 163t241.5 54.5q112 0 187.5 -46t105.5 -124q21 174 -44.5 285.5t-199.5 114.5h-10
q-113 0 -254 -86l-154 170q196 180 444 182zM690 713q-105 0 -186 -65.5t-98 -166.5q-19 -99 39.5 -163t164.5 -64q109 0 188.5 67t98.5 168q17 95 -42 159.5t-165 64.5z" />
    <glyph glyph-name="emptyset" unicode="&#x2205;" horiz-adv-x="1355" 
d="M1237 958l-135 -135q100 -140 100 -311q0 -143 -70.5 -263.5t-191.5 -190.5t-264 -70q-169 0 -309 100l-136 -137l-114 115l135 135q-100 140 -100 311q0 143 70 264t190.5 191.5t263.5 70.5q171 0 311 -100l135 135zM412 512q0 -65 26 -125l365 367q-62 32 -127 32
q-107 0 -185.5 -76t-78.5 -198zM940 512q0 61 -27 123l-362 -365q56 -30 125 -30q106 0 185 75.5t79 196.5z" />
    <glyph glyph-name="product" unicode="&#x220f;" horiz-adv-x="1595" 
d="M1327 1167v-1255h-283v1255h-493v-1255h-283v1255h-155v267h1370v-267h-156z" />
    <glyph glyph-name="summation" unicode="&#x2211;" horiz-adv-x="1193" 
d="M1079 1167h-536l352 -587l-352 -590h536v-266h-966l495 856l-493 854h964v-267z" />
    <glyph glyph-name="minus" unicode="&#x2212;" horiz-adv-x="1075" 
d="M961 475h-848v162h848v-162z" />
    <glyph glyph-name="radical" unicode="&#x221a;" horiz-adv-x="1304" 
d="M715 0h-189l-243 725l-170 -49v221l409 127l174 -643l342 1053h154z" />
    <glyph glyph-name="infinity" unicode="&#x221e;" horiz-adv-x="1275" 
d="M354 682h13q68 0 139.5 -40t130.5 -118q60 79 132 118.5t140 39.5h13q108 0 174.5 -80t66.5 -207v-22q0 -127 -66.5 -208t-174.5 -81h-13q-68 0 -140 39.5t-132 118.5q-59 -78 -130.5 -118t-139.5 -40h-13q-109 0 -175 79.5t-66 209.5v22q0 126 66.5 206.5t174.5 80.5z
M391 516h-6q-49 0 -77.5 -35.5t-28.5 -91.5v-12q0 -60 28 -93.5t78 -33.5h6q40 0 80 35.5t74 101.5q-31 62 -73 95.5t-81 33.5zM891 516h-6q-39 0 -81 -35.5t-73 -99.5q32 -65 73 -98t81 -33h6q49 0 77.5 35.5t28.5 91.5v12q0 56 -28.5 91.5t-77.5 35.5z" />
    <glyph glyph-name="integral" unicode="&#x222b;" horiz-adv-x="731" 
d="M618 1270h-28q-57 0 -93.5 -42t-31.5 -102l84 -1040q15 -167 -88.5 -269t-272.5 -102h-75v267h28q57 0 93.5 42t31.5 99l-84 1042q-15 168 87.5 269.5t273.5 101.5h75v-266z" />
    <glyph glyph-name="approxequal" unicode="&#x2248;" horiz-adv-x="1110" 
d="M113 545l84 143q30 54 71 85t84 37t84 -2t78 -30l127 -73q51 -33 105.5 -31t82.5 47l45 74h121l-82 -142q-31 -55 -72.5 -86t-84.5 -37t-84 2.5t-78 30.5l-125 74q-53 33 -107.5 30.5t-82.5 -49.5l-46 -73h-120zM995 508l-82 -143q-31 -54 -72.5 -85t-84.5 -37.5t-84 1.5
t-78 30l-125 74q-52 33 -107 31t-83 -49l-46 -72h-120l84 141q30 54 71 85t84 37t84 -2t78 -30l127 -73q51 -33 105.5 -31t82.5 49l45 74h121z" />
    <glyph glyph-name="notequal" unicode="&#x2260;" horiz-adv-x="1075" 
d="M631 602l-43 -129h373v-162h-429l-88 -262h-163l88 262h-256v162h311l43 129h-354v162h407l88 260h164l-88 -260h277v-162h-330z" />
    <glyph glyph-name="lessequal" unicode="&#x2264;" horiz-adv-x="978" 
d="M866 840l-342 -187l342 -182v-231l-753 415l753 414v-229zM866 0h-753v162h753v-162z" />
    <glyph glyph-name="greaterequal" unicode="&#x2265;" horiz-adv-x="978" 
d="M866 655l-753 -415v231l340 182l-340 187v229zM866 0h-753v162h753v-162z" />
    <glyph glyph-name="lozenge" unicode="&#x25ca;" horiz-adv-x="1032" 
d="M516 -35l-403 531l403 528l402 -528zM516 768l-211 -272l211 -275l209 275z" />
    <glyph glyph-name="K.ss01" horiz-adv-x="1517" 
d="M498 590v-590h-283v1434h283v-572h219l379 572h321l-465 -703l478 -731h-320l-395 590h-217z" />
    <glyph glyph-name="Kcommaaccent.ss01" horiz-adv-x="1517" 
d="M498 590v-590h-283v1434h283v-572h219l379 572h321l-465 -703l478 -731h-320l-395 590h-217zM717 -440h-197l174 299h279z" />
    <glyph glyph-name="R.ss01" horiz-adv-x="1437" 
d="M215 1434h494q149 0 267 -41.5t193.5 -115.5t115.5 -171.5t40 -212.5q0 -162 -79 -287.5t-226 -191.5l326 -414h-320l-283 356q-27 -6 -57 -6h-188v-350h-283v1434zM498 1167v-551h235q145 0 234.5 69.5t89.5 207.5q0 132 -90.5 203t-233.5 71h-235z" />
    <glyph glyph-name="Racute.ss01" horiz-adv-x="1437" 
d="M717 1536h-197l174 299h279zM215 1434h494q149 0 267 -41.5t193.5 -115.5t115.5 -171.5t40 -212.5q0 -162 -79 -287.5t-226 -191.5l326 -414h-320l-283 356q-27 -6 -57 -6h-188v-350h-283v1434zM498 1167v-551h235q145 0 234.5 69.5t89.5 207.5q0 132 -90.5 203
t-233.5 71h-235z" />
    <glyph glyph-name="Rcaron.ss01" horiz-adv-x="1437" 
d="M827 1536h-260l-180 299h197l114 -104l113 106h197zM215 1434h494q149 0 267 -41.5t193.5 -115.5t115.5 -171.5t40 -212.5q0 -162 -79 -287.5t-226 -191.5l326 -414h-320l-283 356q-27 -6 -57 -6h-188v-350h-283v1434zM498 1167v-551h235q145 0 234.5 69.5t89.5 207.5
q0 132 -90.5 203t-233.5 71h-235z" />
    <glyph glyph-name="Rcommaaccent.ss01" horiz-adv-x="1437" 
d="M215 1434h494q149 0 267 -41.5t193.5 -115.5t115.5 -171.5t40 -212.5q0 -162 -79 -287.5t-226 -191.5l326 -414h-320l-283 356q-27 -6 -57 -6h-188v-350h-283v1434zM498 1167v-551h235q145 0 234.5 69.5t89.5 207.5q0 132 -90.5 203t-233.5 71h-235zM674 -440h-197
l174 299h279z" />
    <glyph glyph-name="i.loclTRK" horiz-adv-x="663" 
d="M336 1116q-63 0 -107.5 39t-44.5 96t44.5 96t107.5 39q65 0 109 -39t44 -96t-44 -96t-109 -39zM207 0v1024h260v-1024h-260z" />
    <glyph glyph-name="k.ss01" horiz-adv-x="1243" 
d="M444 397v-397h-260v1434h260v-785h154l270 375h289l-356 -500l375 -524h-291l-287 397h-154z" />
    <glyph glyph-name="kcommaaccent.ss01" horiz-adv-x="1243" 
d="M444 397v-397h-260v1434h260v-785h154l270 375h289l-356 -500l375 -524h-291l-287 397h-154zM825 -141l-256 -299h-196l174 299h278z" />
    <glyph glyph-name="uni0416.ss01" horiz-adv-x="2230" 
d="M2130 1434l-465 -703l479 -731h-321l-393 590h-173v-590h-282v590h-172l-395 -590h-320l477 731l-465 703h322l379 -572h174v572h282v-572h173l380 572h320z" />
    <glyph glyph-name="uni041A.ss01" horiz-adv-x="1517" 
d="M498 590v-590h-283v1434h283v-572h219l379 572h321l-465 -703l478 -731h-320l-395 590h-217z" />
    <glyph glyph-name="uni042F.ss01" horiz-adv-x="1437" 
d="M1221 0h-283v350h-188q-34 0 -58 6l-284 -356h-318l326 414q-147 66 -226 191.5t-79 287.5q0 115 40 212.5t115.5 171.5t193.5 115.5t267 41.5h494v-1434zM938 1167h-236q-143 0 -233 -71t-90 -203q0 -138 89 -207.5t234 -69.5h236v551z" />
    <glyph glyph-name="uni0436.ss01" horiz-adv-x="1804" 
d="M1032 397v-397h-258v397h-129l-287 -397h-290l372 524l-354 500h289l270 -375h129v375h258v-375h129l271 375h290l-356 -500l373 -524h-289l-289 397h-129z" />
    <glyph glyph-name="uni043A.ss01" horiz-adv-x="1243" 
d="M444 397v-397h-260v1024h260v-375h154l270 375h289l-356 -500l375 -524h-291l-287 397h-154z" />
    <glyph glyph-name="uni044F.ss01" horiz-adv-x="1163" 
d="M1036 0h-260v297h-180l-223 -297h-285l242 336q-102 33 -163 121t-61 188q0 55 12.5 106t45 101.5t82 88t129 60.5t180.5 23h481v-1024zM774 772h-250q-80 0 -119.5 -33.5t-39.5 -93.5t40 -94.5t119 -34.5h250v256z" />
    <glyph glyph-name="zero.lf" horiz-adv-x="1699" 
d="M850 1448q200 0 368.5 -98t266.5 -266.5t98 -366.5q0 -200 -98 -368t-266.5 -265.5t-368.5 -97.5t-368 97.5t-265.5 265.5t-97.5 368q0 198 97.5 366.5t265.5 266.5t368 98zM850 1182q-190 0 -319.5 -131t-129.5 -334q0 -204 129.5 -334.5t319.5 -130.5
q191 0 319.5 130.5t128.5 334.5q0 203 -128.5 334t-319.5 131z" />
    <glyph glyph-name="one.lf" horiz-adv-x="913" 
d="M700 0h-282v936l-148 -178l-182 141l444 535h168v-1434z" />
    <glyph glyph-name="two.lf" horiz-adv-x="1300" 
d="M1194 0h-1085v168l589 502q108 93 151.5 157.5t43.5 143.5q0 96 -66 152t-168 59h-14q-75 0 -152.5 -36.5t-173.5 -121.5l-184 168q253 256 533 256h16q117 -1 211.5 -37t153 -95t89.5 -133t31 -155q0 -154 -87.5 -283t-293.5 -299l-200 -180h606v-266z" />
    <glyph glyph-name="three.lf" horiz-adv-x="1333" 
d="M1163 1268l-405 -420q58 4 96 2q177 -24 274 -136t97 -270q0 -93 -31.5 -173t-93.5 -144t-164 -101.5t-234 -39.5h-16q-340 3 -577 262l184 170q106 -91 196 -128.5t193 -37.5h14q116 1 189 67.5t73 165.5q0 102 -66.5 159.5t-201.5 57.5q-13 0 -27 -1t-25 -2.5t-25 -4.5
t-23 -5t-22.5 -6.5t-20 -7l-19.5 -7.5t-17 -6.5t-16.5 -7t-13.5 -5.5l-133 101l410 417h-520v267h925v-166z" />
    <glyph glyph-name="four.lf" horiz-adv-x="1286" 
d="M1061 250v-250h-283v250h-690v166l805 1018h168v-918h139v-266h-139zM778 975l-360 -459h360v459z" />
    <glyph glyph-name="five.lf" horiz-adv-x="1325" 
d="M1083 1167h-618v-305q41 29 115 52.5t172 23.5q224 0 345.5 -128.5t121.5 -334.5q0 -75 -19.5 -144.5t-61.5 -132.5t-103.5 -109.5t-151 -74t-197.5 -28.5h-16q-324 3 -561 262l184 170q107 -92 192 -129t185 -37h16q113 2 188.5 66t75.5 178q0 113 -73.5 175t-200.5 62
q-167 0 -328 -115l-133 103v713h868v-267z" />
    <glyph glyph-name="six.lf" horiz-adv-x="1271" 
d="M702 952q128 0 232 -54.5t167.5 -163t63.5 -253.5q0 -94 -34 -181.5t-96 -158t-161.5 -113t-220.5 -42.5q-237 0 -390.5 168t-153.5 434v98q0 219 66.5 389.5t196.5 270t306 102.5h14q273 0 443 -193l-183 -170q-69 53 -127 75t-125 22h-12q-135 0 -216.5 -111
t-92.5 -289q43 78 127 124t196 46zM637 254q105 0 174.5 64t69.5 163q0 101 -69.5 166.5t-174.5 65.5t-175.5 -64.5t-70.5 -159.5q0 -102 67.5 -168.5t178.5 -66.5z" />
    <glyph glyph-name="seven.lf" horiz-adv-x="1148" 
d="M1063 1268l-674 -1268h-301l623 1167h-619v267h971v-166z" />
    <glyph glyph-name="eight.lf" horiz-adv-x="1239" 
d="M891 758q109 -39 175.5 -129t66.5 -211q0 -94 -33.5 -173t-96 -137t-158.5 -90.5t-216 -33.5h-13q-240 0 -373.5 120t-133.5 314q0 121 66 211t175 129q-85 42 -139.5 117.5t-54.5 187.5q0 73 28 140.5t81.5 122.5t141.5 88t197 34h27q110 0 199 -32.5t144 -87t84 -122.5
t29 -143q0 -112 -55 -187.5t-141 -117.5zM422 1012q0 -83 55.5 -126.5t143.5 -43.5q86 0 141 43.5t55 126.5q0 82 -55 126t-141 44q-87 0 -143 -44t-56 -126zM621 252q107 0 175 58.5t68 156.5t-66.5 154.5t-176.5 58.5q-43 0 -84.5 -12t-78 -36t-59 -67t-22.5 -98
q0 -98 68 -156.5t176 -58.5z" />
    <glyph glyph-name="nine.lf" horiz-adv-x="1271" 
d="M571 481q-128 0 -231.5 54.5t-167 163t-63.5 253.5q0 75 21 146.5t63.5 134.5t102.5 111t144 76t181 28q236 0 390 -168.5t154 -433.5v-98q0 -219 -66.5 -389.5t-196.5 -270t-306 -102.5h-16q-152 0 -257 52t-186 140l185 170q68 -52 125 -73t126 -23h13
q135 0 216.5 110.5t92.5 288.5q-43 -78 -127.5 -124t-196.5 -46zM637 1180q-106 0 -176 -64.5t-70 -163.5q0 -101 70 -166t176 -65q104 0 174 64t70 159q0 101 -67.5 168.5t-176.5 67.5z" />
    <glyph glyph-name="zero.osf" horiz-adv-x="1378" 
d="M688 1114q115 0 221 -44.5t183.5 -120t123.5 -180t46 -218.5q0 -154 -77.5 -284t-210 -205.5t-286.5 -75.5q-153 0 -284 75.5t-208 205.5t-77 284q0 153 77 282.5t208 205t284 75.5zM690 848q-121 0 -204 -86t-83 -211q0 -127 82.5 -212t204.5 -85t204.5 85t82.5 212
q0 125 -83 211t-204 86z" />
    <glyph glyph-name="one.osf" horiz-adv-x="913" 
d="M700 0h-282v602l-148 -176l-182 139l444 535h168v-1100z" />
    <glyph glyph-name="two.osf" horiz-adv-x="1300" 
d="M1194 0h-1085v168l661 383q69 40 96 75t27 85q0 59 -49 97.5t-135 39.5h-17q-81 0 -181.5 -39t-191.5 -119l-184 170q124 124 271.5 189t289.5 65h17q97 -1 175.5 -23.5t129.5 -58t86 -83t50 -97.5t15 -102q0 -129 -75 -217.5t-248 -161.5l-180 -107h528v-264z" />
    <glyph glyph-name="three.osf" horiz-adv-x="1333" 
d="M1163 934l-405 -397q60 3 116 -2q168 -28 259.5 -138.5t91.5 -263.5q0 -91 -31.5 -170t-93.5 -142t-164.5 -100t-233.5 -38h-16q-340 3 -577 262l184 170q106 -91 196 -128.5t193 -37.5h14q115 1 188.5 66t73.5 159q0 102 -66.5 159.5t-201.5 57.5q-95 0 -209 -53
l-133 102l404 396h-514v264h925v-166z" />
    <glyph glyph-name="four.osf" horiz-adv-x="1286" 
d="M1061 -76v-227h-283v227h-690v166l805 1010h168v-910h139v-266h-139zM776 641l-358 -451h358v451z" />
    <glyph glyph-name="five.osf" horiz-adv-x="1325" 
d="M1083 836h-618v-285q41 29 115 52.5t172 23.5q225 0 346 -128t121 -335q0 -91 -32.5 -174.5t-95.5 -152.5t-168.5 -111t-240.5 -43h-12q-324 3 -561 262l184 170q107 -92 192 -129t185 -37h14q113 2 189.5 64.5t76.5 170.5q0 113 -73.5 175.5t-200.5 62.5
q-160 0 -328 -113l-133 101v690h868v-264z" />
    <glyph glyph-name="six.osf" horiz-adv-x="1271" 
d="M702 952q128 0 232 -54.5t167.5 -163t63.5 -253.5q0 -94 -34 -181.5t-96 -158t-161.5 -113t-220.5 -42.5q-237 0 -390.5 168t-153.5 434v78q0 218 67.5 387.5t200 267.5t311.5 98h10q266 -2 437 -192l-183 -170q-69 53 -127.5 74.5t-128.5 21.5h-8q-129 0 -209 -102
t-98 -263q44 75 127.5 119.5t193.5 44.5zM637 254q105 0 174.5 64t69.5 163q0 101 -69.5 166.5t-174.5 65.5t-175.5 -64.5t-70.5 -159.5q0 -102 67.5 -168.5t178.5 -66.5z" />
    <glyph glyph-name="seven.osf" horiz-adv-x="1144" 
d="M1059 934l-668 -1237h-301l615 1139h-617v264h971v-166z" />
    <glyph glyph-name="eight.osf" horiz-adv-x="1239" 
d="M891 745q109 -40 175.5 -127.5t66.5 -207.5q0 -187 -134.5 -305.5t-373.5 -118.5h-11q-239 1 -372 119t-133 305q0 120 66 208t175 127q-194 99 -194 306q0 68 29 132t83 117.5t142.5 86t197.5 32.5h23q110 0 199 -32t144 -85.5t84 -118t29 -132.5q0 -206 -196 -306z
M422 999q0 -82 56 -126t143 -44q86 0 141 44t55 126q0 83 -55 126.5t-141 43.5q-88 0 -143.5 -43.5t-55.5 -126.5zM621 248q108 0 175.5 57t67.5 154q0 96 -66.5 152.5t-176.5 56.5q-43 0 -84.5 -12t-78 -36t-59 -65.5t-22.5 -95.5q0 -97 68 -154t176 -57z" />
    <glyph glyph-name="nine.osf" horiz-adv-x="1271" 
d="M571 150q-128 0 -231.5 54t-167 162t-63.5 252q0 75 21 146.5t63.5 134.5t102.5 111t144 76t181 28q236 0 390 -168.5t154 -433.5v-76q0 -218 -67.5 -388t-200 -268.5t-311.5 -98.5h-11q-150 1 -253 53t-185 139l185 170q70 -52 128 -73t128 -21h8q128 0 208.5 101
t98.5 261q-44 -74 -127.5 -117.5t-194.5 -43.5zM637 848q-106 0 -176 -64.5t-70 -165.5t70 -165t176 -64q104 0 174 63t70 158q0 103 -67.5 170.5t-176.5 67.5z" />
    <glyph glyph-name="zero.tf" horiz-adv-x="1689" 
d="M844 1448q200 0 368.5 -98t266.5 -266.5t98 -366.5q0 -200 -98 -368t-266.5 -265.5t-368.5 -97.5t-368 97.5t-265.5 265.5t-97.5 368q0 198 97.5 366.5t265.5 266.5t368 98zM844 1182q-190 0 -319.5 -131t-129.5 -334q0 -204 129.5 -334.5t319.5 -130.5
q191 0 319.5 130.5t128.5 334.5q0 203 -128.5 334t-319.5 131z" />
    <glyph glyph-name="one.tf" horiz-adv-x="837" 
d="M725 0h-283v936l-147 -178l-182 141l444 535h168v-1434z" />
    <glyph glyph-name="two.tf" horiz-adv-x="1310" 
d="M1198 0h-1085v168l589 502q108 93 151.5 157.5t43.5 143.5q0 97 -65.5 152.5t-167.5 58.5h-15q-75 0 -152 -36.5t-173 -121.5l-185 168q253 256 533 256h16q117 -1 211.5 -37t153.5 -95t90 -133t31 -155q0 -154 -87.5 -283t-293.5 -299l-201 -180h606v-266z" />
    <glyph glyph-name="three.tf" horiz-adv-x="1343" 
d="M1167 1268l-405 -420q58 4 96 2q177 -24 274 -136t97 -270q0 -93 -31.5 -173t-93 -144t-163.5 -101.5t-234 -39.5h-17q-340 3 -577 262l184 170q106 -91 196 -128.5t193 -37.5h14q116 1 189.5 67.5t73.5 165.5q0 102 -67 159.5t-202 57.5q-13 0 -27 -1t-25 -2.5t-25 -4.5
t-23 -5t-22.5 -6.5t-20 -7l-19.5 -7.5t-17 -6.5t-16.5 -7t-13.5 -5.5l-133 101l410 417h-520v267h925v-166z" />
    <glyph glyph-name="four.tf" horiz-adv-x="1337" 
d="M1085 250v-250h-282v250h-690v166l805 1018h167v-918h140v-266h-140zM803 975l-361 -459h361v459z" />
    <glyph glyph-name="five.tf" horiz-adv-x="1335" 
d="M1087 1167h-618v-305q41 29 115 52.5t172 23.5q224 0 345.5 -128.5t121.5 -334.5q0 -75 -19.5 -144.5t-61.5 -132.5t-103.5 -109.5t-151 -74t-197.5 -28.5h-16q-324 3 -561 262l184 170q107 -92 192 -129t185 -37h16q113 2 188.5 66t75.5 178q0 113 -73.5 175t-200.5 62
q-167 0 -328 -115l-133 103v713h868v-267z" />
    <glyph glyph-name="six.tf" horiz-adv-x="1282" 
d="M707 952q128 0 231.5 -54.5t167 -163t63.5 -253.5q0 -94 -34 -181.5t-96 -158t-161.5 -113t-220.5 -42.5q-237 0 -390.5 168t-153.5 434v98q0 219 66.5 389.5t196.5 270t306 102.5h14q273 0 443 -193l-183 -170q-69 53 -126.5 75t-124.5 22h-13q-135 0 -216.5 -111
t-92.5 -289q43 78 127.5 124t196.5 46zM643 254q105 0 174.5 64t69.5 163q0 101 -69.5 166.5t-174.5 65.5t-175.5 -64.5t-70.5 -159.5q0 -102 67.5 -168.5t178.5 -66.5z" />
    <glyph glyph-name="seven.tf" horiz-adv-x="1200" 
d="M1087 1268l-673 -1268h-301l622 1167h-618v267h970v-166z" />
    <glyph glyph-name="eight.tf" horiz-adv-x="1251" 
d="M895 758q109 -39 175.5 -129t66.5 -211q0 -94 -33.5 -173t-96 -137t-158.5 -90.5t-216 -33.5h-12q-240 0 -374 120t-134 314q0 121 66 211t175 129q-85 42 -139.5 117.5t-54.5 187.5q0 73 28 140.5t81.5 122.5t141.5 88t197 34h27q110 0 199 -32.5t144.5 -87t84.5 -122.5
t29 -143q0 -112 -55.5 -187.5t-141.5 -117.5zM428 1012q0 -83 55.5 -126.5t143.5 -43.5q86 0 141 43.5t55 126.5q0 82 -55 126t-141 44q-87 0 -143 -44t-56 -126zM625 252q107 0 175 58.5t68 156.5t-66.5 154.5t-176.5 58.5q-43 0 -84.5 -12t-78 -36t-59 -67t-22.5 -98
q0 -98 68 -156.5t176 -58.5z" />
    <glyph glyph-name="nine.tf" horiz-adv-x="1282" 
d="M575 481q-128 0 -231.5 54.5t-167 163t-63.5 253.5q0 75 21 146.5t63.5 134.5t102.5 111t144 76t181 28q236 0 390 -168.5t154 -433.5v-98q0 -219 -66.5 -389.5t-196.5 -270t-306 -102.5h-16q-152 0 -257 52t-186 140l185 170q68 -51 125.5 -72.5t126.5 -23.5h12
q135 0 216.5 110.5t92.5 288.5q-43 -78 -127.5 -124t-196.5 -46zM641 1180q-106 0 -176 -64.5t-70 -163.5q0 -101 70 -166t176 -65q104 0 174 64t70 159q0 101 -67.5 168.5t-176.5 67.5z" />
    <glyph glyph-name="zero.tosf" horiz-adv-x="1368" 
d="M682 1116q154 0 286 -75.5t209.5 -205t77.5 -282.5q0 -154 -77.5 -284t-209.5 -205.5t-286 -75.5q-153 0 -284 75.5t-208 205.5t-77 284q0 153 77 282.5t208 205t284 75.5zM684 850q-121 0 -204 -86t-83 -211q0 -127 82.5 -212t204.5 -85t204.5 85t82.5 212
q0 125 -83 211t-204 86z" />
    <glyph glyph-name="one.tosf" horiz-adv-x="837" 
d="M725 0h-283v604l-147 -176l-182 139l444 535h168v-1102z" />
    <glyph glyph-name="two.tosf" horiz-adv-x="1310" 
d="M1198 0h-1085v168l661 383q69 40 96 75t27 85q0 59 -49 97.5t-135 39.5h-17q-81 0 -181 -39t-191 -119l-185 170q124 124 271.5 189t289.5 65h17q97 -1 175.5 -23.5t130 -58t86.5 -83t50 -97.5t15 -102q0 -129 -75.5 -217.5t-248.5 -161.5l-180 -107h528v-264z" />
    <glyph glyph-name="three.tosf" horiz-adv-x="1343" 
d="M1167 934l-405 -397q60 3 117 -2q168 -28 259 -138.5t91 -263.5q0 -72 -19 -137t-60.5 -122t-102 -99t-147.5 -66.5t-193 -25.5h-17q-340 3 -577 262l184 170q106 -91 196 -128.5t193 -37.5h14q115 1 189 66t74 159q0 102 -67 159.5t-202 57.5q-95 0 -209 -53l-133 102
l404 396h-514v264h925v-166z" />
    <glyph glyph-name="four.tosf" horiz-adv-x="1337" 
d="M1085 -76v-227h-282v227h-690v166l805 1010h167v-910h140v-266h-140zM803 641l-359 -451h359v451z" />
    <glyph glyph-name="five.tosf" horiz-adv-x="1335" 
d="M1087 836h-618v-285q41 29 115 52.5t172 23.5q225 0 346 -128t121 -335q0 -91 -32.5 -174.5t-95.5 -152.5t-168.5 -111t-240.5 -43h-12q-324 3 -561 262l184 170q107 -92 192 -129t185 -37h14q113 2 189.5 64.5t76.5 170.5q0 113 -73.5 175.5t-200.5 62.5
q-160 0 -328 -113l-133 101v690h868v-264z" />
    <glyph glyph-name="six.tosf" horiz-adv-x="1282" 
d="M707 952q128 0 231.5 -54.5t167 -163t63.5 -253.5q0 -94 -34 -181.5t-96 -158t-161.5 -113t-220.5 -42.5q-237 0 -390.5 168t-153.5 434v78q0 218 67.5 387.5t200 267.5t311.5 98h10q266 -2 437 -192l-183 -170q-69 53 -127.5 74.5t-128.5 21.5h-8q-129 0 -209 -102
t-98 -263q44 75 128 119.5t194 44.5zM643 254q105 0 174.5 64t69.5 163q0 101 -69.5 166.5t-174.5 65.5t-175.5 -64.5t-70.5 -159.5q0 -102 67.5 -168.5t178.5 -66.5z" />
    <glyph glyph-name="seven.tosf" horiz-adv-x="1196" 
d="M1083 934l-667 -1237h-301l614 1139h-616v264h970v-166z" />
    <glyph glyph-name="eight.tosf" horiz-adv-x="1251" 
d="M895 745q109 -40 175.5 -127.5t66.5 -207.5q0 -187 -134.5 -305.5t-373.5 -118.5h-11q-239 1 -372 119t-133 305q0 120 66 208t175 127q-194 99 -194 306q0 68 29 132t83 117.5t142.5 86t197.5 32.5h23q110 0 199.5 -32t144.5 -85.5t84 -118t29 -132.5q0 -206 -197 -306z
M428 999q0 -82 56 -126t143 -44q86 0 141 44t55 126q0 83 -55 126.5t-141 43.5q-88 0 -143.5 -43.5t-55.5 -126.5zM625 248q108 0 175.5 57t67.5 154q0 96 -66.5 152.5t-176.5 56.5q-43 0 -84.5 -12t-78 -36t-59 -65.5t-22.5 -95.5q0 -97 68 -154t176 -57z" />
    <glyph glyph-name="nine.tosf" horiz-adv-x="1282" 
d="M575 150q-128 0 -231.5 54t-167 162t-63.5 252q0 75 21 146.5t63.5 134.5t102.5 111t144 76t181 28q236 0 390 -168.5t154 -433.5v-76q0 -218 -67.5 -388t-200 -268.5t-311.5 -98.5h-10q-150 1 -254 53t-185 139l185 170q70 -52 128 -73t128 -21h8q128 0 208.5 101
t98.5 261q-44 -74 -127.5 -117.5t-194.5 -43.5zM641 848q-106 0 -176 -64.5t-70 -165.5t70 -165t176 -64q104 0 174 63t70 158q0 103 -67.5 170.5t-176.5 67.5z" />
    <glyph glyph-name="zero.dnom" horiz-adv-x="825" 
d="M412 666q150 0 253 -99.5t103 -240.5q0 -142 -103 -241t-253 -99q-149 0 -252 99.5t-103 240.5q0 140 103.5 240t251.5 100zM414 496q-73 0 -121.5 -47.5t-48.5 -122.5q0 -77 48.5 -124.5t121.5 -47.5t121.5 47.5t48.5 124.5q0 75 -48.5 122.5t-121.5 47.5z" />
    <glyph glyph-name="one.dnom" horiz-adv-x="534" 
d="M449 0h-185v406l-80 -97l-96 74l223 268h138v-651z" />
    <glyph glyph-name="two.dnom" horiz-adv-x="753" 
d="M668 0h-580v94l305 225q44 32 64 55.5t20 49.5q0 32 -25 54.5t-65 23.5h-8q-74 0 -164 -68l-113 105q74 64 147 96.5t165 32.5h8q103 -1 168 -61t65 -144q0 -73 -43.5 -126.5t-136.5 -109.5l-92 -57h285v-170z" />
    <glyph glyph-name="three.dnom" horiz-adv-x="751" 
d="M627 532l-187 -143q60 -10 72 -14q76 -20 115 -65.5t39 -108.5q0 -86 -70 -150t-195 -65h-8q-175 0 -305 127l105 96q29 -21 41.5 -29t48 -20.5t73.5 -12.5q57 0 94 23.5t37 60.5q0 35 -30 54.5t-80 17.5q-48 0 -80 -16l-57 43l196 164h-282v157h473v-119z" />
    <glyph glyph-name="four.dnom" horiz-adv-x="755" 
d="M602 111v-111h-184v111h-330v94l387 446h127v-393h68v-147h-68zM416 428l-152 -170h152v170z" />
    <glyph glyph-name="five.dnom" horiz-adv-x="751" 
d="M608 494h-307v-109q66 25 129 25q107 0 171.5 -58.5t64.5 -150.5q0 -86 -70 -150t-193 -65h-10q-175 0 -305 127l105 96q29 -21 41.5 -29t48 -20.5t73.5 -12.5q57 0 94 23.5t37 60.5t-29 59t-81 23q-84 0 -148 -37l-65 48v327h444v-157z" />
    <glyph glyph-name="six.dnom" horiz-adv-x="737" 
d="M414 444q101 0 169 -60.5t68 -162.5q0 -94 -73.5 -164.5t-200.5 -70.5q-134 0 -211.5 78.5t-77.5 207.5v35q0 160 82 259.5t231 99.5h9q140 -2 219 -93l-90 -84q-65 46 -131 46h-7q-60 0 -102 -44.5t-53 -115.5q52 69 168 69zM369 125q50 0 81 26.5t31 69.5t-31 69.5
t-81 26.5q-47 0 -79 -26t-32 -66q0 -44 30.5 -72t80.5 -28z" />
    <glyph glyph-name="seven.dnom" horiz-adv-x="679" 
d="M592 545l-324 -545h-180l295 496h-289v155h498v-106z" />
    <glyph glyph-name="eight.dnom" horiz-adv-x="727" 
d="M530 346q50 -19 80.5 -61t30.5 -97q0 -90 -69.5 -146t-202.5 -56h-7q-134 0 -204 56t-70 146q0 55 30.5 97t80.5 61q-88 51 -88 143q0 71 62 124t183 53h13q123 0 186 -53t63 -124q0 -92 -88 -143zM365 389q37 0 66.5 19t29.5 57q0 37 -26.5 57.5t-69.5 20.5t-70 -20.5
t-27 -57.5q0 -36 27 -56t70 -20zM365 115q52 0 84 26.5t32 69.5q0 44 -31.5 70t-84.5 26q-54 0 -86.5 -26t-32.5 -70q0 -43 32.5 -69.5t86.5 -26.5z" />
    <glyph glyph-name="nine.dnom" horiz-adv-x="737" 
d="M328 207q-102 0 -171 60.5t-69 162.5q0 94 74 165t200 71q133 0 211 -79t78 -208v-35q0 -160 -81.5 -259t-231.5 -99h-6q-139 2 -221 92l90 84q64 -45 131 -45h6q61 0 104 44.5t52 114.5q-52 -69 -166 -69zM371 526q-49 0 -81 -27.5t-32 -68.5q0 -43 31.5 -69.5
t81.5 -26.5q47 0 78.5 26t31.5 66q0 44 -30 72t-80 28z" />
    <glyph glyph-name="zero.numr" horiz-adv-x="825" 
d="M412 1448q150 0 253 -99t103 -241t-103 -241t-253 -99q-149 0 -252 99.5t-103 240.5t103 240.5t252 99.5zM414 1280q-73 0 -121.5 -48t-48.5 -124q0 -75 48.5 -122.5t121.5 -47.5t121.5 47.5t48.5 122.5q0 76 -48.5 124t-121.5 48z" />
    <glyph glyph-name="one.numr" horiz-adv-x="534" 
d="M449 782h-185v406l-80 -96l-96 73l223 269h138v-652z" />
    <glyph glyph-name="two.numr" horiz-adv-x="753" 
d="M668 782l-580 -2v97l305 225q44 31 64 53.5t20 48.5q0 32 -25 54.5t-65 23.5h-8q-80 0 -164 -68l-113 105q74 64 147 96.5t165 32.5h8q103 -1 168 -60t65 -143q0 -74 -43.5 -127t-136.5 -110l-92 -58h285v-168z" />
    <glyph glyph-name="three.numr" horiz-adv-x="751" 
d="M627 1313l-187 -144q30 -3 72 -12q76 -20 115 -66t39 -110q0 -86 -70 -149.5t-195 -63.5h-8q-175 0 -305 127l105 96q25 -19 41 -29.5t50 -22t72 -11.5q57 2 94 25.5t37 60.5q0 34 -30 53.5t-80 17.5q-49 -3 -80 -18l-57 45l196 164h-282v158h473v-121z" />
    <glyph glyph-name="four.numr" horiz-adv-x="755" 
d="M602 893v-111h-184v111h-330v94l387 447h127v-394h68v-147h-68zM416 1208l-152 -168h152v168z" />
    <glyph glyph-name="five.numr" horiz-adv-x="751" 
d="M608 1276h-307v-109q66 25 129 25q107 0 171.5 -58.5t64.5 -150.5q0 -86 -70 -150t-193 -65h-10q-175 0 -305 127l105 96q28 -20 41.5 -28.5t48.5 -20.5t73 -12q57 0 94 23.5t37 60.5t-29 58.5t-81 21.5q-82 3 -148 -35l-65 47v328h444v-158z" />
    <glyph glyph-name="six.numr" horiz-adv-x="737" 
d="M414 1227q101 0 169 -60.5t68 -162.5q0 -94 -74 -165t-200 -71q-133 0 -211 79t-78 208v35q0 160 81.5 259t231.5 99h9q141 -2 219 -92l-90 -84q-64 45 -131 45h-7q-60 0 -102 -44.5t-53 -115.5q53 70 168 70zM369 907q49 0 80.5 27.5t31.5 69.5q0 43 -31 69.5t-81 26.5
q-47 0 -79 -26t-32 -66q0 -44 30.5 -72.5t80.5 -28.5z" />
    <glyph glyph-name="seven.numr" horiz-adv-x="679" 
d="M592 1325l-324 -543h-180l295 494h-289v158h498v-109z" />
    <glyph glyph-name="eight.numr" horiz-adv-x="727" 
d="M530 1128q51 -19 81 -61t30 -96q0 -90 -69.5 -146.5t-202.5 -56.5h-7q-134 0 -204 56t-70 147q0 54 30 96t81 61q-88 51 -88 144q0 71 62 123.5t183 52.5h13q123 0 186 -52.5t63 -123.5q0 -93 -88 -144zM365 1171q37 0 66.5 19t29.5 57q0 37 -26.5 57.5t-69.5 20.5
t-70 -20.5t-27 -57.5q0 -36 27 -56t70 -20zM365 897q52 0 84 26.5t32 69.5q0 44 -31.5 70.5t-84.5 26.5q-54 0 -86.5 -26.5t-32.5 -70.5q0 -43 32.5 -69.5t86.5 -26.5z" />
    <glyph glyph-name="nine.numr" horiz-adv-x="737" 
d="M328 989q-102 0 -171 60.5t-69 162.5q0 94 74 165t200 71q133 0 211 -79t78 -208v-35q0 -160 -81.5 -259t-231.5 -99h-6q-139 2 -221 92l90 84q64 -45 131 -45h6q61 0 104 45t52 115q-53 -70 -166 -70zM371 1309q-50 0 -81.5 -27t-31.5 -70t31.5 -69.5t81.5 -26.5
q47 0 78.5 26t31.5 66q0 44 -30 72.5t-80 28.5z" />
    </font>
</defs>
</svg>
