<?xml version="1.0" standalone="no"?>
<!DOCTYPE svg PUBLIC "-//W3C//DTD SVG 1.1//EN" "http://www.w3.org/Graphics/SVG/1.1/DTD/svg11.dtd" >
<svg xmlns="http://www.w3.org/2000/svg" xmlns:xlink="http://www.w3.org/1999/xlink" version="1.1">
<metadata>
Created by FontForge 20170731 at Wed Jan 11 19:39:43 2023
 By Aleksey,,,
Copyright (c) 2013 by Mariya Pigoulevskaya. All rights reserved.
</metadata>
<defs>
<font id="Acrom-Regular" horiz-adv-x="1359" >
  <font-face 
    font-family="Acrom"
    font-weight="400"
    font-stretch="normal"
    units-per-em="2048"
    panose-1="0 0 5 0 0 0 0 0 0 0"
    ascent="1536"
    descent="-512"
    x-height="1024"
    cap-height="1434"
    bbox="0 -752 2529 2019"
    underline-thickness="102"
    underline-position="-307"
    unicode-range="U+0020-25CA"
  />
<missing-glyph horiz-adv-x="1024" 
d="M0 0v1434h1024v-1434h-1024zM512 809l348 522h-696zM573 717l349 -522v1044zM164 102h696l-348 523zM102 1239v-1044l349 522z" />
    <glyph glyph-name=".notdef" horiz-adv-x="1024" 
d="M0 0v1434h1024v-1434h-1024zM512 809l348 522h-696zM573 717l349 -522v1044zM164 102h696l-348 523zM102 1239v-1044l349 522z" />
    <glyph glyph-name=".null" horiz-adv-x="0" 
 />
    <glyph glyph-name="nonmarkingreturn" horiz-adv-x="682" 
 />
    <glyph glyph-name="space" unicode=" " horiz-adv-x="651" 
 />
    <glyph glyph-name="exclam" unicode="!" horiz-adv-x="452" 
d="M307 1434v-615l-18 -479h-123l-19 479v615h160zM227 164q40 0 69.5 -26t29.5 -62q0 -38 -29.5 -64t-69.5 -26q-41 0 -69.5 26t-28.5 64q0 37 28.5 62.5t69.5 25.5z" />
    <glyph glyph-name="quotedbl" unicode="&#x22;" horiz-adv-x="571" 
d="M223 1102h-80l-14 332h109zM428 1102h-80l-14 332h108z" />
    <glyph glyph-name="numbersign" unicode="#" horiz-adv-x="1423" 
d="M922 545h288l-20 -90h-289l-96 -455h-100l96 455h-291l-96 -455h-101l97 455h-281l18 90h283l66 315h-281l21 92h280l102 482h101l-103 -482h289l105 482h100l-102 -482h286l-18 -92h-289zM596 860l-66 -315h289l68 315h-291z" />
    <glyph glyph-name="dollar" unicode="$" horiz-adv-x="1374" 
d="M1247 408q0 -124 -70.5 -220.5t-187.5 -147.5t-260 -54v-95h-100v99q-178 15 -307 97.5t-193 209.5l104 96q45 -101 148 -170.5t248 -83.5v545l-17 2q-223 29 -335.5 115t-112.5 243q0 116 64.5 207t169 140.5t231.5 56.5v88h100v-90q138 -9 262 -72t207 -166l-104 -94
q-66 77 -164 125t-201 57v-473l57 -8q228 -29 344.5 -124.5t116.5 -282.5zM324 1049q0 -92 74 -142t231 -71v462q-77 -5 -144 -32.5t-114 -84t-47 -132.5zM729 672v-537q154 3 256 77t102 196q0 117 -79 177t-240 83z" />
    <glyph glyph-name="percent" unicode="%" horiz-adv-x="1679" 
d="M477 1448q146 0 247 -99.5t101 -240.5t-101 -240.5t-247 -99.5t-247 99.5t-101 240.5t101 240.5t247 99.5zM1309 1434l-832 -1434h-106l831 1434h107zM477 1346q-104 0 -169.5 -66t-65.5 -172t65.5 -172t169.5 -66q103 0 169.5 66.5t66.5 171.5t-66.5 171.5t-169.5 66.5z
M1204 666q146 0 247 -99.5t101 -240.5t-101 -240.5t-247 -99.5t-247 99.5t-101 240.5t101 240.5t247 99.5zM1204 563q-104 0 -169.5 -65.5t-65.5 -171.5t65.5 -172t169.5 -66q103 0 169.5 66.5t66.5 171.5t-66.5 171t-169.5 66z" />
    <glyph glyph-name="ampersand" unicode="&#x26;" horiz-adv-x="1400" 
d="M1110 0l-115 117q-128 -125 -364 -125h-15q-224 1 -355.5 112t-131.5 299q0 129 68.5 221t187.5 134l-84 84q-100 112 -100 248q0 157 117 252.5t300 95.5h17q176 -2 297 -101.5t121 -263.5v-20h-152q0 80 -41.5 136t-102.5 79.5t-134 23.5q-71 0 -131 -22.5t-102 -76.5
t-42 -132q0 -95 70 -168l563 -582q39 67 39 156h117q0 -140 -64 -256l201 -211h-164zM633 137q172 0 260 94l-432 443q-82 -29 -130 -91.5t-48 -152.5q0 -138 97 -215.5t253 -77.5z" />
    <glyph glyph-name="quotesingle" unicode="'" horiz-adv-x="364" 
d="M223 1102h-80l-14 332h109z" />
    <glyph glyph-name="parenleft" unicode="(" horiz-adv-x="778" 
d="M649 1520v-152q-151 -109 -254 -310.5t-106 -424.5v-23q0 -224 103 -426.5t257 -318.5v-152q-225 122 -372.5 367.5t-147.5 529.5v23q3 281 150.5 526.5t369.5 360.5z" />
    <glyph glyph-name="parenright" unicode=")" horiz-adv-x="778" 
d="M129 1368v152q222 -115 369.5 -360.5t150.5 -526.5v-23q0 -284 -147.5 -529.5t-372.5 -367.5v152q154 116 257 318.5t103 426.5v23q-3 223 -106 424.5t-254 310.5z" />
    <glyph glyph-name="asterisk" unicode="*" horiz-adv-x="931" 
d="M717 877l-74 -60l-178 248l-176 -248l-74 60l193 231l-279 76l25 88l274 -92l-8 288h92l-8 -288l274 92l25 -88l-279 -76z" />
    <glyph glyph-name="plus" unicode="+" horiz-adv-x="1105" 
d="M606 647h371v-98h-371v-375h-106v375h-371v98h371v375h106v-375z" />
    <glyph glyph-name="comma" unicode="," horiz-adv-x="546" 
d="M420 164l-184 -406h-107l123 406h168z" />
    <glyph glyph-name="hyphen" unicode="-" horiz-adv-x="765" 
d="M637 541h-508v100h508v-100z" />
    <glyph glyph-name="period" unicode="." horiz-adv-x="452" 
d="M227 164q40 0 69.5 -26t29.5 -62q0 -38 -29.5 -64t-69.5 -26q-41 0 -69.5 26t-28.5 64q0 37 28.5 62.5t69.5 25.5z" />
    <glyph glyph-name="slash" unicode="/" horiz-adv-x="927" 
d="M799 1434l-570 -1434h-100l569 1434h101z" />
    <glyph glyph-name="zero" unicode="0" horiz-adv-x="1716" 
d="M856 1419q146 0 279.5 -57t229.5 -153t153 -228.5t57 -278.5q0 -195 -96.5 -360t-262 -260.5t-360.5 -95.5q-146 0 -278 56.5t-228 152t-152.5 228.5t-56.5 279t56.5 278.5t152.5 228.5t228.5 153t277.5 57zM858 1268q-153 0 -280 -73.5t-201 -203.5t-74 -289t74 -289
t201 -203t280 -73t280 73t201 203t74 289t-74 289t-201 203.5t-280 73.5z" />
    <glyph glyph-name="one" unicode="1" horiz-adv-x="772" 
d="M541 0h-160v1110l-180 -217l-107 82l357 428h90v-1403z" />
    <glyph glyph-name="two" unicode="2" horiz-adv-x="1294" 
d="M1178 0h-1063v90l630 545q134 116 188 192t54 168q0 124 -96.5 198.5t-231.5 74.5l-18 2q-231 0 -391 -195l-105 96q97 122 227.5 185t278.5 63h23q205 -1 338 -115.5t133 -281.5q0 -135 -81 -247.5t-276 -274.5l-397 -350h787v-150z" />
    <glyph glyph-name="three" unicode="3" horiz-adv-x="1314" 
d="M1149 1315l-533 -473q60 16 162 16q203 -12 311.5 -122t108.5 -279q0 -205 -135.5 -336t-372.5 -135h-18q-191 1 -334.5 81t-222.5 218l104 96q159 -246 455 -246h12q160 3 260.5 96.5t100.5 245.5q0 136 -89.5 212.5t-277.5 76.5q-120 0 -236 -55l-84 61l543 481h-661
v150h907v-88z" />
    <glyph glyph-name="four" unicode="4" horiz-adv-x="1288" 
d="M1032 279v-279h-160v279h-778v90l848 1034h90v-975h162v-149h-162zM872 1128l-581 -700h581v700z" />
    <glyph glyph-name="five" unicode="5" horiz-adv-x="1310" 
d="M1065 1253h-700v-446q59 42 154 69t208 27q218 0 342.5 -123t124.5 -327q0 -93 -34.5 -176.5t-98.5 -147.5t-161.5 -102.5t-215.5 -40.5h-20q-190 1 -330 80.5t-219 218.5l104 96q81 -125 190 -185.5t261 -60.5h10q156 3 259 92.5t103 235.5q0 155 -96.5 238t-273.5 83
q-106 0 -209 -37.5t-162 -87.5l-82 62v682h846v-150z" />
    <glyph glyph-name="six" unicode="6" horiz-adv-x="1275" 
d="M678 1419h12q275 -3 426 -196l-102 -95q-70 72 -147.5 106t-176.5 34l-12 2q-86 0 -155 -32t-113.5 -83.5t-75.5 -123.5t-45.5 -145.5t-18.5 -154.5q51 100 157 161.5t243 61.5q210 0 349.5 -134t139.5 -345q0 -131 -61 -241.5t-180 -179t-273 -68.5q-158 0 -279.5 74
t-185 200t-63.5 283l-2 123q0 116 19.5 223t63 204.5t107.5 169t160 114t213 42.5zM637 817q-156 0 -258.5 -94t-102.5 -227q0 -151 97.5 -255t263.5 -104q159 0 260.5 96t101.5 242q0 147 -101.5 244.5t-260.5 97.5z" />
    <glyph glyph-name="seven" unicode="7" horiz-adv-x="1120" 
d="M1024 1315l-754 -1315h-174l721 1253h-723v150h930v-88z" />
    <glyph glyph-name="eight" unicode="8" horiz-adv-x="1239" 
d="M834 750q131 -36 209.5 -130t78.5 -227q0 -184 -134.5 -294.5t-360.5 -112.5h-11q-229 0 -365 110.5t-136 296.5q0 134 77.5 227.5t208.5 129.5q-105 37 -169 115t-64 200q0 157 124 256.5t320 99.5h19q194 -3 315 -102t121 -254q0 -122 -64 -200t-169 -115zM322 1038
q0 -119 84.5 -178t211.5 -59q126 0 211.5 59.5t85.5 177.5q0 80 -43 136t-108 80t-146 24q-127 0 -211.5 -60.5t-84.5 -179.5zM618 133q155 0 253 76.5t98 208.5t-95.5 206.5t-255.5 77.5q-41 0 -84 -7t-92 -27t-86.5 -50t-62.5 -82t-25 -118q0 -132 97 -208.5t253 -76.5z
" />
    <glyph glyph-name="nine" unicode="9" horiz-adv-x="1275" 
d="M598 -14h-14q-268 0 -426 194l102 96q72 -72 149.5 -106.5t176.5 -34.5h12q86 0 155 32t113.5 83.5t75.5 123.5t45.5 145.5t18.5 154.5q-53 -100 -158.5 -161.5t-243.5 -61.5q-210 0 -349.5 133t-139.5 344q0 98 36.5 186.5t101.5 156.5t162.5 108t213.5 40
q158 0 280 -74.5t186 -201t64 -283.5v-121q0 -116 -19.5 -223t-63 -204.5t-107.5 -169t-159 -114t-212 -42.5zM639 588q156 0 258 94t102 227q0 152 -96.5 255.5t-263.5 103.5q-157 0 -260 -97t-103 -243t103 -243t260 -97z" />
    <glyph glyph-name="colon" unicode=":" horiz-adv-x="452" 
d="M227 786q40 0 69.5 -26t29.5 -64q0 -37 -29.5 -63.5t-69.5 -26.5q-41 0 -69.5 26.5t-28.5 63.5q0 38 28.5 64t69.5 26zM227 166q40 0 69.5 -26.5t29.5 -63.5q0 -38 -29.5 -64t-69.5 -26q-41 0 -69.5 26t-28.5 64q0 37 28.5 63.5t69.5 26.5z" />
    <glyph glyph-name="semicolon" unicode=";" horiz-adv-x="569" 
d="M342 786q40 0 69 -26t29 -64q0 -37 -29 -63.5t-69 -26.5q-41 0 -69.5 26.5t-28.5 63.5q0 38 28.5 64t69.5 26zM420 164l-184 -406h-107l123 406h168z" />
    <glyph glyph-name="less" unicode="&#x3c;" horiz-adv-x="948" 
d="M821 975l-450 -277l450 -274v-139l-692 415l692 414v-139z" />
    <glyph glyph-name="equal" unicode="=" horiz-adv-x="1105" 
d="M977 672h-848v100h848v-100zM977 377h-848v100h848v-100z" />
    <glyph glyph-name="greater" unicode="&#x3e;" horiz-adv-x="948" 
d="M821 700l-692 -415v139l451 274l-451 277v139z" />
    <glyph glyph-name="question" unicode="?" horiz-adv-x="1339" 
d="M686 1448h21q233 -4 369 -132t136 -321q0 -189 -131.5 -303t-347.5 -129v-178h-160v274q250 -9 369 76t119 242q0 140 -101.5 229.5t-259.5 91.5h-12q-286 0 -455 -245l-104 96q80 134 224 216t333 83zM651 164q40 0 69.5 -26t29.5 -62q0 -38 -29.5 -64t-69.5 -26
q-41 0 -69.5 26t-28.5 64q0 37 28.5 62.5t69.5 25.5z" />
    <glyph glyph-name="at" unicode="@" horiz-adv-x="1918" 
d="M958 1356q186 0 343.5 -64.5t263.5 -175t165.5 -260.5t59.5 -319v-242q0 -128 -65.5 -197t-174.5 -71q-172 4 -196 149l-4 94q-56 -112 -165.5 -178.5t-242.5 -66.5t-242.5 65t-172 177t-62.5 245t62.5 246t172.5 179.5t242 66.5q128 0 233 -64.5t162 -171.5l4 221h93
v-727q0 -135 118 -135q58 0 90.5 35t32.5 133v237q0 209 -89.5 372.5t-253 255t-374.5 91.5q-141 0 -271 -54t-228 -148t-156.5 -231.5t-58.5 -293.5q0 -157 58.5 -294t156.5 -231t228 -148t271 -54q186 0 359 97l76 -76q-198 -125 -435 -125q-169 0 -322.5 65.5
t-264.5 176.5t-176.5 265t-65.5 324q0 169 65.5 323t176.5 265.5t264.5 177.5t322.5 66zM952 883q-150 0 -256 -106.5t-106 -264.5t106 -263.5t256 -105.5q151 0 258 105.5t107 263.5t-107 264.5t-258 106.5z" />
    <glyph glyph-name="A" unicode="A" horiz-adv-x="1464" 
d="M426 381l-156 -381h-176l594 1434h90l592 -1434h-176l-156 381h-612zM733 1139l-250 -609h500z" />
    <glyph glyph-name="B" unicode="B" horiz-adv-x="1417" 
d="M231 1434h521q116 0 203 -23t138 -58.5t82 -86.5t41.5 -98.5t10.5 -102.5q0 -242 -217 -313q139 -26 216 -121.5t77 -233.5q0 -89 -26.5 -159t-83.5 -124.5t-156 -84t-234 -29.5h-572v1434zM391 1284v-473h375q309 0 309 236q0 50 -11.5 88t-42.5 74t-95.5 55.5
t-159.5 19.5h-375zM391 674v-524h440q320 0 320 262q0 121 -80 191.5t-240 70.5h-440z" />
    <glyph glyph-name="C" unicode="C" horiz-adv-x="1527" 
d="M870 1448q158 0 298.5 -63.5t242.5 -176.5l-104 -94q-85 88 -197.5 136t-239.5 48q-157 0 -287 -75.5t-206 -209t-76 -296.5q0 -164 76 -298t206 -209t287 -75q128 0 240.5 48t196.5 136l104 -98q-102 -111 -242 -173t-299 -62q-198 0 -366 97.5t-265.5 265.5t-97.5 368
q0 148 57.5 283.5t155 233.5t233 156t283.5 58z" />
    <glyph glyph-name="D" unicode="D" horiz-adv-x="1552" 
d="M231 1434h451q201 0 367 -89.5t264 -254.5t98 -373q0 -157 -57.5 -292t-156 -227.5t-232 -145t-283.5 -52.5h-451v1434zM391 150h291q160 0 288 66.5t204.5 197t76.5 303.5q0 172 -76.5 302.5t-205 197.5t-287.5 67h-291v-1134z" />
    <glyph glyph-name="E" unicode="E" horiz-adv-x="1253" 
d="M391 799h703v-150h-703v-499h748v-150h-908v1434h908v-150h-748v-485z" />
    <glyph glyph-name="F" unicode="F" horiz-adv-x="1253" 
d="M391 799h703v-150h-703v-649h-160v1434h908v-150h-748v-485z" />
    <glyph glyph-name="G" unicode="G" horiz-adv-x="1622" 
d="M870 1448q158 0 298.5 -63.5t242.5 -176.5l-104 -96q-84 89 -196.5 137.5t-240.5 48.5q-157 0 -287 -75.5t-206 -209t-76 -296.5q0 -164 76 -298t206 -209t287 -75q222 0 381 146v346h-393v125h553v-531q-102 -111 -242 -173t-299 -62q-198 0 -366 97.5t-265.5 265.5
t-97.5 368q0 148 57.5 283.5t155 233.5t233 156t283.5 58z" />
    <glyph glyph-name="H" unicode="H" horiz-adv-x="1544" 
d="M1315 0h-160v651h-764v-651h-160v1434h160v-633h764v633h160v-1434z" />
    <glyph glyph-name="I" unicode="I" horiz-adv-x="958" 
d="M559 150h168v-150h-496v150h168v1134h-168v150h496v-150h-168v-1134z" />
    <glyph glyph-name="J" unicode="J" horiz-adv-x="1222" 
d="M1081 1434v-947q0 -238 -127 -369.5t-344 -131.5t-343 131.5t-126 369.5v60h160v-78q0 -153 81 -243.5t228 -90.5q148 0 230 90.5t82 243.5v815h-492v150h651z" />
    <glyph glyph-name="K" unicode="K" horiz-adv-x="1470" 
d="M1194 0l-291 455q-35 53 -52.5 77.5t-44 53.5t-49.5 40t-55.5 19t-76.5 8h-234v-653h-160v1434h160v-629h211q37 0 64.5 3.5t52.5 16t41.5 24t39 39.5t37.5 49.5t44 66.5l276 430h182l-315 -486q-66 -99 -107.5 -145.5t-85.5 -67.5q55 -18 100.5 -66.5t115.5 -158.5
l329 -510h-182z" />
    <glyph glyph-name="L" unicode="L" horiz-adv-x="1220" 
d="M1124 0h-893v1434h160v-1284h733v-150z" />
    <glyph glyph-name="M" unicode="M" horiz-adv-x="1828" 
d="M1599 0h-159v1126l-535 -680l-534 680v-1126h-160v1434h90l604 -770l604 770h90v-1434z" />
    <glyph glyph-name="N" unicode="N" horiz-adv-x="1507" 
d="M1296 0h-88l-837 1120v-1120h-160v1434h90l836 -1121v1121h159v-1434z" />
    <glyph glyph-name="O" unicode="O" horiz-adv-x="1742" 
d="M870 1448q148 0 283.5 -58t234 -156t156.5 -233.5t58 -283.5q0 -199 -98.5 -367.5t-267 -266t-366.5 -97.5t-366 97.5t-265.5 265.5t-97.5 368q0 148 57.5 283.5t155 233.5t233 156t283.5 58zM870 1298q-157 0 -287 -75.5t-206 -209t-76 -296.5q0 -164 76 -298t206 -209
t287 -75q117 0 222.5 44.5t182.5 121t122 185t45 231.5q0 163 -76.5 296.5t-207.5 209t-288 75.5z" />
    <glyph glyph-name="P" unicode="P" horiz-adv-x="1452" 
d="M231 1434h453q279 0 453 -142t174 -385q0 -244 -174 -385t-453 -141h-293v-381h-160v1434zM391 530h303q96 0 178 22t147 66t102.5 118t37.5 171q0 95 -37.5 169t-102.5 118.5t-147.5 67t-177.5 22.5h-303v-754z" />
    <glyph glyph-name="Q" unicode="Q" horiz-adv-x="1779" 
d="M870 1448q148 0 283.5 -58t234 -156t156.5 -233.5t58 -283.5q0 -190 -99 -347t-260 -235h395v-149h-768q-198 0 -366 97.5t-265.5 265.5t-97.5 368q0 148 57.5 283.5t155 233.5t233 156t283.5 58zM870 1298q-157 0 -287 -75.5t-206 -209t-76 -296.5q0 -164 76 -298
t206 -209t287 -75q117 0 222.5 44.5t182.5 121t122 185t45 231.5q0 163 -76.5 296.5t-207.5 209t-288 75.5z" />
    <glyph glyph-name="R" unicode="R" horiz-adv-x="1419" 
d="M231 1434h461q182 0 322 -62t218.5 -179.5t78.5 -274.5q0 -175 -98.5 -293.5t-268.5 -167.5q117 -49 238 -238l143 -219h-182l-117 182q-46 71 -82.5 112.5t-77 65.5t-80.5 32t-102 9h-293v-401h-160v1434zM391 1284v-733h314q76 0 142.5 13.5t124 42.5t99 71t65 103.5
t23.5 136.5q0 92 -35.5 163t-98.5 115t-144 66t-176 22h-314z" />
    <glyph glyph-name="S" unicode="S" horiz-adv-x="1347" 
d="M643 1448h23q152 0 289.5 -63.5t228.5 -176.5l-105 -94q-74 86 -186 135t-227 49h-23q-59 0 -116.5 -15.5t-107 -45t-80 -78.5t-30.5 -110q0 -92 74.5 -142t232.5 -71l156 -21q228 -29 344.5 -124.5t116.5 -282.5q0 -125 -72 -222t-191.5 -148t-264.5 -52h-13
q-207 0 -357 85t-220 226l104 96q52 -115 175 -186.5t298 -71.5h13q157 0 262.5 74.5t105.5 198.5q0 117 -79 177t-240 83l-156 18q-223 29 -335.5 115t-112.5 243q0 120 69 213t180.5 141.5t243.5 49.5z" />
    <glyph glyph-name="T" unicode="T" horiz-adv-x="1236" 
d="M698 1284v-1284h-159v1284h-445v150h1047v-150h-443z" />
    <glyph glyph-name="U" unicode="U" horiz-adv-x="1609" 
d="M1399 1434v-818q0 -289 -162 -459.5t-422 -170.5q-261 0 -422.5 170t-161.5 460v818h160v-813q0 -232 114 -359t310 -127t310 127t114 359v813h160z" />
    <glyph glyph-name="V" unicode="V" horiz-adv-x="1478" 
d="M784 0h-88l-602 1434h176l469 -1137l467 1137h176z" />
    <glyph glyph-name="W" unicode="W" horiz-adv-x="2412" 
d="M1749 0h-90l-453 1108l-454 -1108h-88l-570 1434h176l437 -1135l454 1135h90l455 -1135l436 1135h174z" />
    <glyph glyph-name="X" unicode="X" horiz-adv-x="1409" 
d="M702 596l-423 -596h-185l518 739l-491 695h184l402 -557l395 557h186l-493 -703l518 -731h-185z" />
    <glyph glyph-name="Y" unicode="Y" horiz-adv-x="1441" 
d="M799 0h-160v492l-545 942h182l445 -750l442 750h183l-547 -942v-492z" />
    <glyph glyph-name="Z" unicode="Z" horiz-adv-x="1286" 
d="M1171 0h-1056v86l813 1198h-746v150h973v-88l-813 -1196h829v-150z" />
    <glyph glyph-name="bracketleft" unicode="[" horiz-adv-x="550" 
d="M289 -137h133v-150h-293v1823h293v-150h-133v-1523z" />
    <glyph glyph-name="backslash" unicode="\" horiz-adv-x="927" 
d="M799 0h-101l-569 1434h100z" />
    <glyph glyph-name="bracketright" unicode="]" horiz-adv-x="550" 
d="M129 1386v150h293v-1823h-293v150h133v1523h-133z" />
    <glyph glyph-name="asciicircum" unicode="^" horiz-adv-x="1081" 
d="M952 780h-106l-305 467l-305 -467h-107l412 631z" />
    <glyph glyph-name="underscore" unicode="_" horiz-adv-x="1105" 
d="M977 -215h-848v80h848v-80z" />
    <glyph glyph-name="grave" unicode="`" horiz-adv-x="585" 
d="M309 1470l150 -239h-121l-209 239h180z" />
    <glyph glyph-name="a" unicode="a" 
d="M1169 0h-106l-6 231q-59 -111 -170.5 -177t-245.5 -66q-143 0 -261 70t-184.5 190t-66.5 264t66.5 264.5t184.5 191t261 70.5q134 0 245 -66.5t171 -176.5l6 229h106v-1024zM651 131q156 0 266.5 109t110.5 272q0 164 -110.5 273.5t-266.5 109.5q-155 0 -265 -110
t-110 -273t110 -272t265 -109z" />
    <glyph glyph-name="b" unicode="b" 
d="M340 1434v-619q53 101 154.5 162t224.5 61q143 0 261 -70.5t184.5 -191t66.5 -264.5t-66.5 -264t-184.5 -190t-261 -70q-134 0 -245.5 66t-170.5 177l-6 -231h-107v1434h150zM707 895q-155 0 -266 -110t-111 -273t111 -272t266 -109t264.5 109t109.5 272
q0 164 -109.5 273.5t-264.5 109.5z" />
    <glyph glyph-name="c" unicode="c" horiz-adv-x="1175" 
d="M653 1038q120 0 225.5 -50.5t178.5 -139.5l-90 -96q-131 143 -314 143q-156 0 -265 -109.5t-109 -273.5t109 -272.5t265 -108.5q185 0 314 141l90 -96q-73 -88 -178.5 -138t-225.5 -50q-143 0 -263.5 70t-190.5 190.5t-70 263.5t70 264t190.5 191.5t263.5 70.5z" />
    <glyph glyph-name="d" unicode="d" 
d="M1169 0h-106l-6 231q-59 -111 -170.5 -177t-245.5 -66q-143 0 -261 70t-184.5 190t-66.5 264t66.5 264.5t184.5 191t261 70.5q123 0 224.5 -61t156.5 -162v619h147v-1434zM651 131q156 0 266.5 109t110.5 272q0 164 -110.5 273.5t-266.5 109.5q-155 0 -265 -110
t-110 -273t110 -272t265 -109z" />
    <glyph glyph-name="e" unicode="e" horiz-adv-x="1257" 
d="M649 1038q165 0 284.5 -80t176.5 -219q24 -59 29 -136.5t-11 -125.5h-847q0 -163 107 -257.5t278 -96.5q197 0 354 110l80 -90q-199 -155 -434 -155q-238 2 -387.5 147.5t-149.5 376.5q0 145 64 264.5t183.5 190.5t272.5 71zM649 901q-152 0 -253 -94t-109 -229h706
q3 53 -22 116q-39 95 -123.5 151t-198.5 56z" />
    <glyph glyph-name="f" unicode="f" horiz-adv-x="815" 
d="M713 1444v-133h-21q-43 0 -79.5 -6.5t-71.5 -24t-59.5 -44t-39 -70t-14.5 -99.5v-43h285v-141h-287v-883h-147v883h-150v141h152v47q0 98 32.5 174t89 120.5t128.5 65t155 15.5z" />
    <glyph glyph-name="g" unicode="g" horiz-adv-x="1347" 
d="M631 1038q133 0 243 -66t170 -175l9 227h106v-895q0 -237 -130 -378t-367 -142q-251 0 -441 155l86 95q168 -115 355 -115q168 0 257 92t89 262v123q-55 -99 -155.5 -159t-221.5 -60q-107 0 -202.5 41t-163 111t-107 165.5t-39.5 200.5q0 140 66.5 259t185 189t260.5 70z
M641 895q-154 0 -264.5 -108.5t-110.5 -266.5q0 -159 110.5 -267t264.5 -108q156 0 266.5 108t110.5 267q0 158 -111 266.5t-266 108.5z" />
    <glyph glyph-name="h" unicode="h" horiz-adv-x="1347" 
d="M723 1038q209 0 326.5 -129t117.5 -358v-551h-147v545q0 176 -85 263t-233 87q-162 0 -257 -107t-95 -301v-487h-149v1434h149v-617q36 76 100.5 127.5t132.5 72.5t140 21z" />
    <glyph glyph-name="i" unicode="i" horiz-adv-x="573" 
d="M293 1151q-38 0 -65 24.5t-27 59.5t27 59.5t65 24.5t65 -24.5t27 -59.5t-27 -59.5t-65 -24.5zM217 0v1024h150v-1024h-150z" />
    <glyph glyph-name="j" unicode="j" horiz-adv-x="573" 
d="M293 1319q38 0 65 -24.5t27 -59.5t-27 -59.5t-65 -24.5t-65 24.5t-27 59.5t27 59.5t65 24.5zM367 -377h-150v1401h150v-1401z" />
    <glyph glyph-name="k" unicode="k" horiz-adv-x="1191" 
d="M952 0l-168 258q-34 53 -52 78.5t-43.5 54t-49 40t-56.5 19t-77 7.5h-156v-457h-149v1434h149v-834h133q55 0 91.5 9t69 37t55 58t63.5 95l147 225h168l-192 -291q-61 -90 -100.5 -135.5t-84.5 -65.5q55 -16 99 -63.5t108 -144.5l211 -324h-166z" />
    <glyph glyph-name="l" unicode="l" horiz-adv-x="536" 
d="M201 0v1434h149v-1434h-149z" />
    <glyph glyph-name="m" unicode="m" horiz-adv-x="2156" 
d="M1532 1038q209 0 326.5 -129t117.5 -358v-551h-147v545q0 176 -85 263t-233 87q-164 0 -259 -107t-95 -301v-487h-147v545q0 176 -85 263t-233 87q-162 0 -257 -107t-95 -301v-487h-150v1024h107l8 -233q57 124 168 185.5t240 61.5q150 0 254 -71t145 -205
q35 93 104.5 157t149 91.5t166.5 27.5z" />
    <glyph glyph-name="n" unicode="n" horiz-adv-x="1337" 
d="M713 1038q209 0 326.5 -129t117.5 -358v-551h-147v545q0 176 -85 263t-233 87q-162 0 -257 -107t-95 -301v-487h-150v1024h107l8 -233q57 124 168 185.5t240 61.5z" />
    <glyph glyph-name="o" unicode="o" horiz-adv-x="1306" 
d="M653 1038q143 0 264.5 -70.5t192 -191.5t70.5 -264t-70.5 -263.5t-192 -190.5t-264.5 -70t-263.5 70t-190.5 190.5t-70 263.5t70 264t190.5 191.5t263.5 70.5zM651 895q-155 0 -265 -110t-110 -273t110 -272t265 -109q156 0 266.5 109t110.5 272q0 164 -110.5 273.5
t-266.5 109.5z" />
    <glyph glyph-name="p" unicode="p" horiz-adv-x="1310" 
d="M670 1038q143 0 261 -70.5t184.5 -191t66.5 -264.5t-66.5 -264t-184.5 -190t-261 -70q-122 0 -224 60.5t-155 160.5v-586h-150v1401h107l6 -231q60 111 171 178t245 67zM657 895q-155 0 -265.5 -110t-110.5 -273t110.5 -273t265.5 -110t265 110t110 273t-110 273
t-265 110z" />
    <glyph glyph-name="q" unicode="q" 
d="M1169 -377h-147v586q-55 -100 -157 -160.5t-224 -60.5q-143 0 -261 70t-184.5 190t-66.5 264t66.5 264.5t184.5 191t261 70.5q134 0 245 -67t171 -178l6 231h106v-1401zM651 129q156 0 266.5 109.5t110.5 273.5t-110.5 273.5t-266.5 109.5q-155 0 -265 -110t-110 -273
t110 -273t265 -110z" />
    <glyph glyph-name="r" unicode="r" horiz-adv-x="876" 
d="M803 895h-58q-107 0 -186.5 -34.5t-126.5 -97.5t-69.5 -144t-22.5 -181v-438h-150v1024h107l14 -276q58 143 178 216.5t287 73.5h27v-143z" />
    <glyph glyph-name="s" unicode="s" horiz-adv-x="1124" 
d="M549 1038h22q118 0 230 -52t172 -138l-86 -80q-49 67 -140 108.5t-174 41.5h-16q-107 0 -176.5 -44.5t-69.5 -119.5q0 -31 9 -53.5t32 -43t67.5 -34.5t110.5 -21l121 -12q56 -5 102 -15.5t92.5 -32t78 -53.5t51.5 -82.5t20 -115.5q0 -137 -112 -220t-287 -85h-14
q-147 0 -273 57.5t-180 149.5l86 81q43 -71 147 -118t218 -47h8q112 2 186 46.5t74 129.5q0 41 -13 72t-32 49t-50.5 30.5t-59.5 17.5t-68 9l-117 12q-346 35 -346 270q0 134 110.5 212.5t276.5 80.5z" />
    <glyph glyph-name="t" unicode="t" horiz-adv-x="684" 
d="M428 883v-883h-149v883h-150v141h150v344h149v-344h150v-141h-150z" />
    <glyph glyph-name="u" unicode="u" horiz-adv-x="1327" 
d="M1147 0h-105l-10 233q-57 -124 -167.5 -185.5t-237.5 -61.5q-211 0 -329 129t-118 358v551h150v-543q0 -178 83.5 -265t233.5 -87q162 0 257 107t95 301v487h148v-1024z" />
    <glyph glyph-name="v" unicode="v" horiz-adv-x="1181" 
d="M635 0h-90l-471 1024h157l359 -795l360 795h158z" />
    <glyph glyph-name="w" unicode="w" horiz-adv-x="1935" 
d="M1407 0h-88l-352 778l-353 -778h-88l-452 1024h157l340 -795l353 795h86l352 -793l342 793h156z" />
    <glyph glyph-name="x" unicode="x" horiz-adv-x="1179" 
d="M586 408l-338 -408h-174l428 528l-406 496h172l324 -379l317 379h172l-405 -502l428 -522h-174z" />
    <glyph glyph-name="y" unicode="y" horiz-adv-x="1337" 
d="M1159 1024v-895q0 -237 -130 -378t-367 -142q-251 0 -441 155l86 95q168 -115 355 -115q168 0 257 92.5t89 263.5v121q-36 -76 -100.5 -127t-132 -71.5t-138.5 -20.5q-211 0 -329 128.5t-118 358.5v535h150v-528q0 -178 83.5 -264.5t233.5 -86.5q162 0 257.5 107
t95.5 299v473h149z" />
    <glyph glyph-name="z" unicode="z" horiz-adv-x="1144" 
d="M1016 0h-887v102l645 781h-590v141h809l-2 -102l-643 -781h668v-141z" />
    <glyph glyph-name="braceleft" unicode="{" horiz-adv-x="784" 
d="M655 1386h-55q-43 0 -73.5 -32t-30.5 -82v-375q0 -99 -44.5 -170.5t-132.5 -95.5q88 -22 132.5 -88.5t44.5 -159.5v-406q0 -50 30.5 -82t73.5 -32h55v-150h-77q-106 0 -173.5 67t-68.5 181v389q-6 205 -197 211h-10v139h10q194 6 197 209v379q1 114 68.5 181t173.5 67h77
v-150z" />
    <glyph glyph-name="bar" unicode="|" horiz-adv-x="364" 
d="M238 -123h-109v1557h109v-1557z" />
    <glyph glyph-name="braceright" unicode="}" horiz-adv-x="784" 
d="M129 1536h80q105 0 172 -67t68 -181l2 -379q0 -203 194 -209h10v-139h-10q-191 -6 -194 -211l-2 -389q-1 -114 -68 -181t-172 -67h-80v150h55q43 0 75 32.5t32 81.5v406q0 93 44 159.5t130 88.5q-86 24 -131 95.5t-45 170.5v375q0 50 -31 82t-74 32h-55v150z" />
    <glyph glyph-name="asciitilde" unicode="~" horiz-adv-x="1114" 
d="M987 672l-88 -144q-35 -57 -90 -78.5t-106.5 -12.5t-100.5 38l-125 72q-37 21 -74.5 29t-73.5 -3t-57 -43l-47 -69h-96l88 143q34 57 89 78.5t107.5 12.5t100.5 -38l125 -73q37 -22 74 -30t73 3.5t58 44.5l47 70h96z" />
    <glyph glyph-name="exclamdown" unicode="&#xa1;" horiz-adv-x="452" 
d="M227 1122q40 0 69.5 -26t29.5 -64q0 -37 -29.5 -63.5t-69.5 -26.5q-41 0 -69.5 26.5t-28.5 63.5q0 38 28.5 64t69.5 26zM147 -326v615l19 479h123l18 -481v-613h-160z" />
    <glyph glyph-name="cent" unicode="&#xa2;" horiz-adv-x="1185" 
d="M690 893v-760q159 12 277 139l90 -96q-67 -80 -162.5 -129.5t-204.5 -56.5v-191h-100v193q-196 23 -328.5 171t-132.5 349t132.5 350t328.5 172v197h100v-195q110 -7 205.5 -56.5t161.5 -131.5l-90 -96q-120 129 -277 141zM279 512q0 -146 88 -249.5t223 -125.5v752
q-135 -22 -223 -126t-88 -251z" />
    <glyph glyph-name="sterling" unicode="&#xa3;" horiz-adv-x="1388" 
d="M874 621h-413q12 -73 18.5 -114.5t12 -92t3.5 -78t-7.5 -59.5t-19 -52t-33.5 -39.5t-50 -35.5h811v-150h-1065v109q116 47 160 101.5t44.5 153t-30.5 257.5h-176v149h152q-26 149 -37 231q-11 95 11 172t67 127.5t111 84.5t138.5 48.5t153.5 14.5h20q153 -2 289 -65
t223 -175l-102 -94q-74 86 -186.5 135t-227.5 49h-22q-48 0 -92.5 -7.5t-91.5 -29.5t-79 -56t-48 -93t-5 -135q4 -29 33 -207h438v-149z" />
    <glyph glyph-name="currency" unicode="&#xa4;" horiz-adv-x="1216" 
d="M1083 979l-116 -117q103 -124 103 -286.5t-103 -288.5l116 -115l-71 -72l-117 117q-125 -103 -287 -103t-286 103l-117 -117l-72 72l117 115q-101 126 -101 287.5t101 287.5l-117 117l72 70l117 -117q124 103 286 103t287 -103l117 117zM436 330q63 -47 141 -55.5
t151.5 24.5t119.5 102q69 108 48.5 226.5t-116.5 189.5q-63 47 -140.5 55t-150.5 -25t-120 -102q-69 -108 -49 -225t116 -190z" />
    <glyph glyph-name="yen" unicode="&#xa5;" horiz-adv-x="1507" 
d="M858 532h379v-133h-403v-399h-160v399h-402v133h377l-520 902h182l445 -750l442 750h182z" />
    <glyph glyph-name="brokenbar" unicode="&#xa6;" horiz-adv-x="364" 
d="M238 766h-109v668h109v-668zM238 -123h-109v666h109v-666z" />
    <glyph glyph-name="section" unicode="&#xa7;" horiz-adv-x="1124" 
d="M545 1278h26q117 0 229 -52.5t173 -138.5l-86 -79q-49 67 -140 108t-174 41h-18q-106 -2 -175 -46t-69 -118q0 -61 38 -98.5t149 -48.5l118 -12q77 -3 142 -21t120 -53t86 -93.5t31 -136.5q0 -129 -102 -208q72 -64 72 -170q0 -134 -110 -212.5t-273 -80.5h-29
q-116 0 -227.5 52t-173.5 138l86 80q49 -66 140 -107.5t173 -41.5h16q108 2 178 45.5t70 117.5q0 61 -38.5 99t-149.5 49l-119 12q-71 3 -133 19.5t-120 49.5t-92 93t-34 141q0 130 102 209q-69 61 -69 170q0 134 109.5 212.5t273.5 80.5zM362 748q-83 -47 -83 -136
q0 -155 221 -178l118 -12q80 -8 146 -33q84 48 84 135q0 155 -223 178l-117 13q-79 8 -146 33z" />
    <glyph glyph-name="dieresis" unicode="&#xa8;" horiz-adv-x="866" 
d="M221 1313q-38 0 -65 24.5t-27 59.5t27 59.5t65 24.5t65 -24.5t27 -59.5t-27 -59.5t-65 -24.5zM645 1313q-38 0 -65 24.5t-27 59.5t27 59.5t65 24.5t65 -24.5t27 -59.5t-27 -59.5t-65 -24.5z" />
    <glyph glyph-name="copyright" unicode="&#xa9;" horiz-adv-x="1349" 
d="M676 1434q151 0 277.5 -75.5t198 -202.5t71.5 -275q0 -149 -71.5 -276t-198 -202t-277.5 -75q-114 0 -216 44.5t-174.5 119t-114.5 176.5t-42 213t42 212.5t114.5 176.5t174.5 119.5t216 44.5zM674 1364q-132 0 -241 -65.5t-170.5 -176t-61.5 -241.5q0 -132 61.5 -243
t170.5 -176t241 -65q202 0 338.5 141.5t136.5 342.5q0 131 -61.5 241.5t-171 176t-242.5 65.5zM676 1225q78 0 147 -33.5t117 -91.5l-57 -62q-92 92 -207 92q-98 0 -171 -72.5t-73 -176.5t73 -176t171 -72q106 0 205 92l59 -63q-48 -58 -117 -90.5t-147 -32.5
q-141 0 -241.5 100t-100.5 242t100.5 243t241.5 101z" />
    <glyph glyph-name="guillemotleft" unicode="&#xab;" horiz-adv-x="892" 
d="M465 705l-184 -156l184 -154v-139l-336 293l336 297v-141zM764 705l-184 -156l184 -154v-139l-336 293l336 297v-141z" />
    <glyph glyph-name="logicalnot" unicode="&#xac;" horiz-adv-x="1105" 
d="M872 549h-743v100h848v-336h-105v236z" />
    <glyph glyph-name="registered" unicode="&#xae;" horiz-adv-x="1349" 
d="M676 1434q151 0 277.5 -75.5t198 -202.5t71.5 -275q0 -149 -71.5 -276t-198 -202t-277.5 -75q-114 0 -216 44.5t-174.5 119t-114.5 176.5t-42 213t42 212.5t114.5 176.5t174.5 119.5t216 44.5zM674 1364q-132 0 -241 -65.5t-170.5 -176t-61.5 -241.5q0 -132 61.5 -243
t170.5 -176t241 -65q202 0 338.5 141.5t136.5 342.5q0 131 -61.5 241.5t-171 176t-242.5 65.5zM391 1208h340q67 0 116.5 -17.5t77 -48.5t40 -68t12.5 -81q0 -76 -45 -128t-135 -62l192 -248h-104l-187 233h-211v-233h-96v653zM485 1118v-246h252q73 0 108.5 33.5t35.5 87.5
q0 56 -35.5 90.5t-108.5 34.5h-252z" />
    <glyph glyph-name="macron" unicode="&#xaf;" horiz-adv-x="778" 
d="M649 1358h-520v112h520v-112z" />
    <glyph glyph-name="degree" unicode="&#xb0;" horiz-adv-x="755" 
d="M379 1481q103 0 176.5 -73.5t73.5 -176.5q0 -104 -73.5 -177t-176.5 -73t-176.5 73t-73.5 177q0 103 73.5 176.5t176.5 73.5zM379 1389q-65 0 -110.5 -46t-45.5 -112q0 -67 45.5 -112.5t110.5 -45.5t110.5 45.5t45.5 112.5q0 66 -45.5 112t-110.5 46z" />
    <glyph glyph-name="plusminus" unicode="&#xb1;" horiz-adv-x="1105" 
d="M606 780h371v-98h-371v-258h-106v258h-371v98h371v258h106v-258zM977 231h-848v101h848v-101z" />
    <glyph glyph-name="acute" unicode="&#xb4;" horiz-adv-x="585" 
d="M248 1231h-119l147 239h183z" />
    <glyph glyph-name="paragraph" unicode="&#xb6;" horiz-adv-x="1265" 
d="M1139 1333h-101v-1667h-108v1667h-197v-1667h-108v965q-105 0 -192 21.5t-156.5 66t-108.5 122.5t-39 183t39 185.5t108 128.5t158 72t195 24h510v-101z" />
    <glyph glyph-name="periodcentered" unicode="&#xb7;" horiz-adv-x="452" 
d="M227 711q42 0 70.5 -29.5t28.5 -69.5q0 -39 -28.5 -67.5t-70.5 -28.5t-70 28.5t-28 67.5q0 41 28 70t70 29z" />
    <glyph glyph-name="cedilla" unicode="&#xb8;" horiz-adv-x="516" 
d="M248 0l-23 -88q63 20 113.5 -12t50.5 -107q0 -55 -37 -91t-94.5 -37t-128.5 38v55q38 -25 75.5 -28t61 15.5t23.5 49.5q0 47 -36.5 62.5t-105.5 -11.5l43 154h58z" />
    <glyph glyph-name="guillemotright" unicode="&#xbb;" horiz-adv-x="892" 
d="M465 549l-336 -293v139l186 154l-186 156v141zM764 549l-336 -293v139l186 154l-186 156v141z" />
    <glyph glyph-name="onequarter" unicode="&#xbc;" horiz-adv-x="1441" 
d="M303 1266l-110 -131l-64 47l211 252h74v-652h-111v484zM408 0h-101l676 1434h100zM1229 129v-129h-111v129h-383v53l424 469h70v-430h84v-92h-84zM1120 498l-256 -277h256v277z" />
    <glyph glyph-name="onehalf" unicode="&#xbd;" horiz-adv-x="1581" 
d="M414 782h-111v484l-110 -131l-64 47l211 252h74v-652zM408 0h-101l676 1434h100zM1452 0h-600v53l356 238q61 40 90 73.5t29 75.5q0 48 -44.5 86.5t-115.5 38.5h-12q-65 0 -122 -30.5t-93 -69.5l-72 65q134 138 306 138h12q112 -1 181 -63t69 -144q0 -75 -46.5 -127
t-142.5 -111l-192 -121h397v-102z" />
    <glyph glyph-name="threequarters" unicode="&#xbe;" horiz-adv-x="1646" 
d="M676 1366l-264 -205q44 4 90 0q104 -9 158.5 -57.5t54.5 -122.5q0 -90 -75 -151.5t-200 -61.5h-8q-194 0 -303 135l66 60q91 -97 221 -97q81 0 135.5 37.5t54.5 93.5q0 48 -46 79.5t-126 31.5q-75 -2 -117 -21l-45 35l267 215h-340v97h477v-68zM612 0h-100l676 1434h100z
M1436 129v-129h-111v129h-383v53l424 469h70v-430h84v-92h-84zM1325 498l-256 -277h256v277z" />
    <glyph glyph-name="questiondown" unicode="&#xbf;" horiz-adv-x="1339" 
d="M688 954q-41 0 -69.5 26t-28.5 64q0 37 28.5 63t69.5 26q40 0 69 -26t29 -63q0 -38 -29 -64t-69 -26zM655 -330h-20q-117 2 -213 38.5t-160 97.5t-98.5 142.5t-34.5 174.5q0 189 131.5 303t347.5 129v180h160v-274q-249 7 -368 -78t-119 -240q0 -140 101 -230t259 -93h10
q290 3 457 246l104 -97q-82 -133 -225.5 -214.5t-331.5 -84.5z" />
    <glyph glyph-name="Agrave" unicode="&#xc0;" horiz-adv-x="1464" 
d="M815 1536h-121l-209 240h181zM1370 0h-176l-156 381h-612l-156 -381h-176l594 1434h90zM483 530h500l-250 609z" />
    <glyph glyph-name="Aacute" unicode="&#xc1;" horiz-adv-x="1464" 
d="M776 1536h-119l148 240h182zM1370 0h-176l-156 381h-612l-156 -381h-176l594 1434h90zM483 530h500l-250 609z" />
    <glyph glyph-name="Acircumflex" unicode="&#xc2;" horiz-adv-x="1464" 
d="M1018 1536h-129l-156 131l-158 -131h-129l218 248h137zM1370 0h-176l-156 381h-612l-156 -381h-176l594 1434h90zM483 530h500l-250 609z" />
    <glyph glyph-name="Atilde" unicode="&#xc3;" horiz-adv-x="1464" 
d="M1038 1741l-39 -105q-37 -115 -129 -118q-59 -3 -106 38l-80 74q-40 32 -76 29q-28 0 -45 -18.5t-28 -57.5l-15 -47h-80l39 104q37 115 127 121q58 3 109 -41l80 -73q37 -29 71 -29q30 0 47.5 19t30.5 59l17 45h77zM426 381l-156 -381h-176l594 1434h90l592 -1434h-176
l-156 381h-612zM733 1139l-250 -609h500z" />
    <glyph glyph-name="Adieresis" unicode="&#xc4;" horiz-adv-x="1464" 
d="M522 1536q-38 0 -65 24.5t-27 59.5t27 59.5t65 24.5t65 -24.5t27 -59.5t-27 -59.5t-65 -24.5zM948 1536q-38 0 -65 24.5t-27 59.5t27 59.5t65 24.5t65 -24.5t27 -59.5t-27 -59.5t-65 -24.5zM426 381l-156 -381h-176l594 1434h90l592 -1434h-176l-156 381h-612zM733 1139
l-250 -609h500z" />
    <glyph glyph-name="Aring" unicode="&#xc5;" horiz-adv-x="1464" 
d="M731 1876q70 0 120 -50.5t50 -119.5q0 -70 -49.5 -120t-120.5 -50q-70 0 -119 49.5t-49 120.5q0 70 49 120t119 50zM731 1794q-37 0 -60.5 -26.5t-23.5 -61.5q0 -36 23.5 -62t60.5 -26q36 0 61 26t25 62q0 35 -25 61.5t-61 26.5zM426 381l-156 -381h-176l594 1434h90
l592 -1434h-176l-156 381h-612zM733 1139l-250 -609h500z" />
    <glyph glyph-name="AE" unicode="&#xc6;" horiz-adv-x="1751" 
d="M887 799h704v-150h-704v-499h747v-150h-907v381h-301l-156 -381h-176l594 1434h946v-150h-747v-485zM729 1128l-246 -598h246v598z" />
    <glyph glyph-name="Ccedilla" unicode="&#xc7;" horiz-adv-x="1527" 
d="M870 135q128 0 240.5 48t196.5 136l104 -98q-102 -111 -242 -173t-299 -62h-8l-18 -74q63 20 113.5 -12t50.5 -107q0 -55 -37 -91t-94.5 -37t-128.5 38v55q58 -38 108.5 -25t50.5 62q0 47 -36 62.5t-105 -11.5l39 142q-138 12 -261 74.5t-211.5 158.5t-140 225.5
t-51.5 270.5q0 148 57.5 283.5t155 233.5t233 156t283.5 58q158 0 298.5 -63.5t242.5 -176.5l-104 -94q-85 88 -197.5 136t-239.5 48q-157 0 -287 -75.5t-206 -209t-76 -296.5q0 -164 76 -298t206 -209t287 -75z" />
    <glyph glyph-name="Egrave" unicode="&#xc8;" horiz-adv-x="1253" 
d="M786 1536h-120l-209 240h180zM1139 1284h-748v-485h703v-150h-703v-499h748v-150h-908v1434h908v-150z" />
    <glyph glyph-name="Eacute" unicode="&#xc9;" horiz-adv-x="1253" 
d="M682 1536h-119l148 240h182zM1139 1284h-748v-485h703v-150h-703v-499h748v-150h-908v1434h908v-150z" />
    <glyph glyph-name="Ecircumflex" unicode="&#xca;" horiz-adv-x="1253" 
d="M969 1536h-129l-156 131l-158 -131h-129l217 248h138zM1139 1284h-748v-485h703v-150h-703v-499h748v-150h-908v1434h908v-150z" />
    <glyph glyph-name="Edieresis" unicode="&#xcb;" horiz-adv-x="1253" 
d="M465 1704q38 0 65 -24.5t27 -59.5t-27 -59.5t-65 -24.5t-65 24.5t-27 59.5t27 59.5t65 24.5zM891 1704q38 0 65 -24.5t27 -59.5t-27 -59.5t-65 -24.5t-65 24.5t-27 59.5t27 59.5t65 24.5zM1139 1284h-748v-485h703v-150h-703v-499h748v-150h-908v1434h908v-150z" />
    <glyph glyph-name="Igrave" unicode="&#xcc;" horiz-adv-x="958" 
d="M446 1776l150 -240h-121l-209 240h180zM559 150h168v-150h-496v150h168v1134h-168v150h496v-150h-168v-1134z" />
    <glyph glyph-name="Iacute" unicode="&#xcd;" horiz-adv-x="958" 
d="M475 1536h-119l148 240h182zM727 1284h-168v-1134h168v-150h-496v150h168v1134h-168v150h496v-150z" />
    <glyph glyph-name="Icircumflex" unicode="&#xce;" horiz-adv-x="1056" 
d="M815 1536h-129l-156 131l-157 -131h-129l217 248h137zM776 1284h-168v-1134h168v-150h-495v150h168v1134h-168v150h495v-150z" />
    <glyph glyph-name="Idieresis" unicode="&#xcf;" horiz-adv-x="1071" 
d="M324 1704q38 0 65 -24.5t27 -59.5t-27 -59.5t-65 -24.5t-65.5 24.5t-27.5 59.5t27.5 59.5t65.5 24.5zM748 1704q38 0 65 -24.5t27 -59.5t-27 -59.5t-65 -24.5t-65.5 24.5t-27.5 59.5t27.5 59.5t65.5 24.5zM782 1284h-168v-1134h168v-150h-495v150h168v1134h-168v150h495
v-150z" />
    <glyph glyph-name="Eth" unicode="&#xd0;" horiz-adv-x="1689" 
d="M369 1434h450q201 0 367 -89.5t264 -254.5t98 -373q0 -157 -57.5 -292t-156 -227.5t-232 -145t-283.5 -52.5h-450v670h-138v98h138v666zM528 150h291q160 0 288 66.5t205 197t77 303.5q0 172 -76.5 302.5t-205.5 197.5t-288 67h-291v-516h213v-98h-213v-520z" />
    <glyph glyph-name="Ntilde" unicode="&#xd1;" horiz-adv-x="1507" 
d="M625 1761q57 3 108 -41l80 -73q37 -29 72 -29q30 0 47.5 19t30.5 59l16 45h78l-39 -105q-37 -115 -129 -118q-60 -3 -107 38l-80 74q-40 32 -75 29q-52 0 -74 -76l-14 -47h-80l39 104q37 115 127 121zM1296 0h-88l-837 1120v-1120h-160v1434h90l836 -1121v1121h159v-1434
z" />
    <glyph glyph-name="Ograve" unicode="&#xd2;" horiz-adv-x="1742" 
d="M821 1776l150 -240h-121l-209 240h180zM870 1448q148 0 283.5 -58t234 -156t156.5 -233.5t58 -283.5q0 -199 -98.5 -367.5t-267 -266t-366.5 -97.5t-366 97.5t-265.5 265.5t-97.5 368q0 148 57.5 283.5t155 233.5t233 156t283.5 58zM870 1298q-157 0 -287 -75.5
t-206 -209t-76 -296.5q0 -164 76 -298t206 -209t287 -75q117 0 222.5 44.5t182.5 121t122 185t45 231.5q0 163 -76.5 296.5t-207.5 209t-288 75.5z" />
    <glyph glyph-name="Oacute" unicode="&#xd3;" horiz-adv-x="1742" 
d="M885 1536h-119l147 240h183zM870 1448q148 0 283.5 -58t234 -156t156.5 -233.5t58 -283.5q0 -199 -98.5 -367.5t-267 -266t-366.5 -97.5t-366 97.5t-265.5 265.5t-97.5 368q0 148 57.5 283.5t155 233.5t233 156t283.5 58zM870 1298q-157 0 -287 -75.5t-206 -209
t-76 -296.5q0 -164 76 -298t206 -209t287 -75q117 0 222.5 44.5t182.5 121t122 185t45 231.5q0 163 -76.5 296.5t-207.5 209t-288 75.5z" />
    <glyph glyph-name="Ocircumflex" unicode="&#xd4;" horiz-adv-x="1742" 
d="M1157 1536h-129l-156 131l-157 -131h-129l217 246h137zM870 1448q148 0 283.5 -58t234 -156t156.5 -233.5t58 -283.5q0 -199 -98.5 -367.5t-267 -266t-366.5 -97.5t-366 97.5t-265.5 265.5t-97.5 368q0 148 57.5 283.5t155 233.5t233 156t283.5 58zM870 1298
q-157 0 -287 -75.5t-206 -209t-76 -296.5q0 -164 76 -298t206 -209t287 -75q117 0 222.5 44.5t182.5 121t122 185t45 231.5q0 163 -76.5 296.5t-207.5 209t-288 75.5z" />
    <glyph glyph-name="Otilde" unicode="&#xd5;" horiz-adv-x="1742" 
d="M1169 1741l-39 -105q-37 -115 -129 -118q-59 -3 -106 38l-80 74q-40 32 -76 29q-28 0 -45 -18.5t-28 -57.5l-15 -47h-80l39 104q37 115 127 121q58 3 109 -41l80 -73q37 -29 71 -29q30 0 47.5 19t30.5 59l17 45h77zM870 1448q148 0 283.5 -58t234 -156t156.5 -233.5
t58 -283.5q0 -199 -98.5 -367.5t-267 -266t-366.5 -97.5t-366 97.5t-265.5 265.5t-97.5 368q0 148 57.5 283.5t155 233.5t233 156t283.5 58zM870 1298q-157 0 -287 -75.5t-206 -209t-76 -296.5q0 -164 76 -298t206 -209t287 -75q117 0 222.5 44.5t182.5 121t122 185
t45 231.5q0 163 -76.5 296.5t-207.5 209t-288 75.5z" />
    <glyph glyph-name="Odieresis" unicode="&#xd6;" horiz-adv-x="1742" 
d="M659 1536q-38 0 -65 24.5t-27 59.5t27 59.5t65 24.5t65.5 -24.5t27.5 -59.5t-27.5 -59.5t-65.5 -24.5zM1085 1536q-38 0 -65 24.5t-27 59.5t27 59.5t65 24.5t65.5 -24.5t27.5 -59.5t-27.5 -59.5t-65.5 -24.5zM870 1448q148 0 283.5 -58t234 -156t156.5 -233.5t58 -283.5
q0 -199 -98.5 -367.5t-267 -266t-366.5 -97.5t-366 97.5t-265.5 265.5t-97.5 368q0 148 57.5 283.5t155 233.5t233 156t283.5 58zM870 1298q-157 0 -287 -75.5t-206 -209t-76 -296.5q0 -164 76 -298t206 -209t287 -75q117 0 222.5 44.5t182.5 121t122 185t45 231.5
q0 163 -76.5 296.5t-207.5 209t-288 75.5z" />
    <glyph glyph-name="multiply" unicode="&#xd7;" horiz-adv-x="927" 
d="M799 862l-264 -264l264 -264l-72 -70l-262 262l-264 -262l-72 70l264 264l-264 264l72 72l264 -264l262 264z" />
    <glyph glyph-name="Oslash" unicode="&#xd8;" horiz-adv-x="1742" 
d="M1602 1434l-201 -213q95 -100 148 -230t53 -274q0 -199 -98.5 -367.5t-267 -266t-366.5 -97.5q-265 0 -471 172l-149 -158h-109l201 213q-96 100 -148.5 229.5t-52.5 274.5q0 148 57.5 283.5t155 233.5t233 156t283.5 58q267 0 473 -174l150 160h109zM301 717
q0 -232 145 -393l793 841q-155 133 -369 133q-157 0 -287 -75.5t-206 -209t-76 -296.5zM1442 717q0 228 -146 393l-794 -842q158 -133 368 -133q117 0 222.5 44.5t182.5 121t122 185t45 231.5z" />
    <glyph glyph-name="Ugrave" unicode="&#xd9;" horiz-adv-x="1609" 
d="M770 1776l150 -240h-121l-209 240h180zM1399 1434v-818q0 -289 -162 -459.5t-422 -170.5q-261 0 -422.5 170t-161.5 460v818h160v-813q0 -232 114 -359t310 -127t310 127t114 359v813h160z" />
    <glyph glyph-name="Uacute" unicode="&#xda;" horiz-adv-x="1609" 
d="M823 1536h-118l147 240h182zM1399 1434v-818q0 -289 -162 -459.5t-422 -170.5q-261 0 -422.5 170t-161.5 460v818h160v-813q0 -232 114 -359t310 -127t310 127t114 359v813h160z" />
    <glyph glyph-name="Ucircumflex" unicode="&#xdb;" horiz-adv-x="1609" 
d="M971 1536l-156 131l-158 -131h-129l217 248h138l217 -248h-129zM1399 1434v-818q0 -289 -162 -459.5t-422 -170.5q-261 0 -422.5 170t-161.5 460v818h160v-813q0 -232 114 -359t310 -127t310 127t114 359v813h160z" />
    <glyph glyph-name="Udieresis" unicode="&#xdc;" horiz-adv-x="1609" 
d="M604 1536q-38 0 -65 24.5t-27 59.5t27 59.5t65 24.5t65 -24.5t27 -59.5t-27 -59.5t-65 -24.5zM1030 1536q-38 0 -65 24.5t-27 59.5t27 59.5t65 24.5t65 -24.5t27 -59.5t-27 -59.5t-65 -24.5zM1399 1434v-818q0 -289 -162 -459.5t-422 -170.5q-261 0 -422.5 170
t-161.5 460v818h160v-813q0 -232 114 -359t310 -127t310 127t114 359v813h160z" />
    <glyph glyph-name="Yacute" unicode="&#xdd;" horiz-adv-x="1441" 
d="M731 1536h-119l148 240h182zM799 0h-160v492l-545 942h182l445 -750l442 750h183l-547 -942v-492z" />
    <glyph glyph-name="Thorn" unicode="&#xde;" horiz-adv-x="1452" 
d="M391 1264h293q279 0 453 -142t174 -385q0 -244 -174 -385t-453 -141h-293v-211h-160v1434h160v-170zM391 360h303q96 0 178 22t147 66t102.5 118t37.5 171q0 95 -37.5 169t-102.5 118.5t-147.5 67t-177.5 22.5h-303v-754z" />
    <glyph glyph-name="germandbls" unicode="&#xdf;" horiz-adv-x="1349" 
d="M657 1448h66q102 0 183 -22.5t132.5 -59.5t85.5 -87t48 -101.5t14 -106.5q0 -119 -57 -206t-171 -122q132 -29 204.5 -122.5t72.5 -229.5q0 -185 -132.5 -295t-385.5 -110h-242v149h242q171 0 268.5 69.5t97.5 203.5q0 121 -78.5 190.5t-238.5 69.5h-176v149h135
q309 0 309 236q0 112 -76.5 178.5t-234.5 66.5h-72q-156 0 -232.5 -70.5t-76.5 -183.5v-1044h-152v1065q0 55 14 107t48 103t85.5 88.5t134 61t185.5 23.5z" />
    <glyph glyph-name="agrave" unicode="&#xe0;" 
d="M625 1391l149 -240h-121l-209 240h181zM1169 0h-106l-6 231q-59 -111 -170.5 -177t-245.5 -66q-143 0 -261 70t-184.5 190t-66.5 264t66.5 264.5t184.5 191t261 70.5q134 0 245 -66.5t171 -176.5l6 229h106v-1024zM651 131q156 0 266.5 109t110.5 272q0 164 -110.5 273.5
t-266.5 109.5q-155 0 -265 -110t-110 -273t110 -272t265 -109z" />
    <glyph glyph-name="aacute" unicode="&#xe1;" 
d="M676 1151h-119l148 240h182zM1169 0h-106l-6 231q-59 -111 -170.5 -177t-245.5 -66q-143 0 -261 70t-184.5 190t-66.5 264t66.5 264.5t184.5 191t261 70.5q134 0 245 -66.5t171 -176.5l6 229h106v-1024zM651 131q156 0 266.5 109t110.5 272q0 164 -110.5 273.5
t-266.5 109.5q-155 0 -265 -110t-110 -273t110 -272t265 -109z" />
    <glyph glyph-name="acircumflex" unicode="&#xe2;" 
d="M809 1151l-156 131l-157 -129h-129l217 246h137l217 -248h-129zM1169 0h-106l-6 231q-59 -111 -170.5 -177t-245.5 -66q-143 0 -261 70t-184.5 190t-66.5 264t66.5 264.5t184.5 191t261 70.5q134 0 245 -66.5t171 -176.5l6 229h106v-1024zM651 131q156 0 266.5 109
t110.5 272q0 164 -110.5 273.5t-266.5 109.5q-155 0 -265 -110t-110 -273t110 -272t265 -109z" />
    <glyph glyph-name="atilde" unicode="&#xe3;" 
d="M954 1358l-39 -107q-38 -115 -129 -118q-55 -3 -106 38l-80 76q-37 29 -76 29q-29 -1 -45.5 -20t-27.5 -58l-15 -47h-80l39 106q38 116 127 119q61 3 109 -39l80 -75q42 -29 71 -29q30 1 48 20t30 58l17 47h77zM1169 0h-106l-6 231q-59 -111 -170.5 -177t-245.5 -66
q-143 0 -261 70t-184.5 190t-66.5 264t66.5 264.5t184.5 191t261 70.5q134 0 245 -66.5t171 -176.5l6 229h106v-1024zM651 131q156 0 266.5 109t110.5 272q0 164 -110.5 273.5t-266.5 109.5q-155 0 -265 -110t-110 -273t110 -272t265 -109z" />
    <glyph glyph-name="adieresis" unicode="&#xe4;" 
d="M442 1151q-38 0 -65 24.5t-27 59.5t27 59.5t65 24.5t65.5 -24.5t27.5 -59.5t-27.5 -59.5t-65.5 -24.5zM866 1151q-38 0 -65 24.5t-27 59.5t27 59.5t65 24.5t65 -24.5t27 -59.5t-27 -59.5t-65 -24.5zM1169 0h-106l-6 231q-59 -111 -170.5 -177t-245.5 -66q-143 0 -261 70
t-184.5 190t-66.5 264t66.5 264.5t184.5 191t261 70.5q134 0 245 -66.5t171 -176.5l6 229h106v-1024zM651 131q156 0 266.5 109t110.5 272q0 164 -110.5 273.5t-266.5 109.5q-155 0 -265 -110t-110 -273t110 -272t265 -109z" />
    <glyph glyph-name="aring" unicode="&#xe5;" 
d="M653 1491q70 0 120 -50t50 -118q0 -71 -50 -121.5t-120 -50.5t-119 50.5t-49 121.5q0 68 49 118t119 50zM653 1409q-37 0 -60.5 -25.5t-23.5 -60.5q0 -38 23.5 -64t60.5 -26q36 0 61 26.5t25 63.5q0 34 -25 60t-61 26zM1169 0h-106l-6 231q-59 -111 -170.5 -177
t-245.5 -66q-143 0 -261 70t-184.5 190t-66.5 264t66.5 264.5t184.5 191t261 70.5q134 0 245 -66.5t171 -176.5l6 229h106v-1024zM651 131q156 0 266.5 109t110.5 272q0 164 -110.5 273.5t-266.5 109.5q-155 0 -265 -110t-110 -273t110 -272t265 -109z" />
    <glyph glyph-name="ae" unicode="&#xe6;" horiz-adv-x="2160" 
d="M641 1038q134 0 245 -66.5t171 -176.5l6 229h106v-201q56 98 156 156.5t227 58.5q164 0 283 -80.5t176 -218.5q25 -58 30 -136.5t-11 -125.5h-846q0 -162 107 -257t276 -97q200 0 354 110l82 -90q-199 -155 -436 -155q-135 2 -239.5 56.5t-158.5 152.5v-197h-106l-6 231
q-59 -111 -170.5 -177t-245.5 -66q-143 0 -261 70t-184.5 190t-66.5 264t66.5 264.5t184.5 191t261 70.5zM1552 901q-152 0 -253 -94t-109 -229h706q3 56 -24 116q-38 95 -122 151t-198 56zM651 895q-155 0 -265 -110t-110 -273t110 -272t265 -109q156 0 266.5 109
t110.5 272q0 164 -110.5 273.5t-266.5 109.5z" />
    <glyph glyph-name="ccedilla" unicode="&#xe7;" horiz-adv-x="1175" 
d="M653 131q185 0 314 141l90 -96q-73 -88 -179 -138t-227 -50l-18 -76q63 20 113.5 -12t50.5 -107q0 -55 -37 -91t-94.5 -37t-128.5 38v55q38 -25 75.5 -28t60.5 15.5t23 49.5q0 47 -36 62.5t-105 -11.5l41 146q-130 13 -237 85.5t-168.5 187t-61.5 247.5q0 143 70 264
t190.5 191.5t263.5 70.5q120 0 225.5 -50.5t178.5 -139.5l-90 -96q-131 143 -314 143q-156 0 -265 -109.5t-109 -273.5t109 -272.5t265 -108.5z" />
    <glyph glyph-name="egrave" unicode="&#xe8;" horiz-adv-x="1257" 
d="M758 1151h-121l-209 240h180zM649 1038q165 0 284.5 -80t176.5 -219q24 -59 29 -136.5t-11 -125.5h-847q0 -163 107 -257.5t278 -96.5q197 0 354 110l80 -90q-199 -155 -434 -155q-238 2 -387.5 147.5t-149.5 376.5q0 145 64 264.5t183.5 190.5t272.5 71zM649 901
q-152 0 -253 -94t-109 -229h706q3 53 -22 116q-39 95 -123.5 151t-198.5 56z" />
    <glyph glyph-name="eacute" unicode="&#xe9;" horiz-adv-x="1257" 
d="M666 1151h-119l147 240h183zM649 1038q165 0 284.5 -80t176.5 -219q24 -59 29 -136.5t-11 -125.5h-847q0 -163 107 -257.5t278 -96.5q197 0 354 110l80 -90q-199 -155 -434 -155q-238 2 -387.5 147.5t-149.5 376.5q0 145 64 264.5t183.5 190.5t272.5 71zM649 901
q-152 0 -253 -94t-109 -229h706q3 53 -22 116q-39 95 -123.5 151t-198.5 56z" />
    <glyph glyph-name="ecircumflex" unicode="&#xea;" horiz-adv-x="1257" 
d="M934 1151h-129l-156 131l-157 -131h-130l218 248h137zM649 1038q165 0 284.5 -80t176.5 -219q24 -59 29 -136.5t-11 -125.5h-847q0 -163 107 -257.5t278 -96.5q197 0 354 110l80 -90q-199 -155 -434 -155q-238 2 -387.5 147.5t-149.5 376.5q0 145 64 264.5t183.5 190.5
t272.5 71zM649 901q-152 0 -253 -94t-109 -229h706q3 53 -22 116q-39 95 -123.5 151t-198.5 56z" />
    <glyph glyph-name="edieresis" unicode="&#xeb;" horiz-adv-x="1257" 
d="M440 1319q38 0 65 -24.5t27 -59.5q0 -34 -27 -59t-65 -25t-65 25t-27 59q0 35 27 59.5t65 24.5zM866 1319q38 0 65 -24.5t27 -59.5q0 -34 -27 -59t-65 -25t-65 25t-27 59q0 35 27 59.5t65 24.5zM649 1038q165 0 284.5 -80t176.5 -219q24 -59 29 -136.5t-11 -125.5h-847
q0 -163 107 -257.5t278 -96.5q197 0 354 110l80 -90q-199 -155 -434 -155q-238 2 -387.5 147.5t-149.5 376.5q0 145 64 264.5t183.5 190.5t272.5 71zM649 901q-152 0 -253 -94t-109 -229h706q3 53 -22 116q-39 95 -123.5 151t-198.5 56z" />
    <glyph glyph-name="igrave" unicode="&#xec;" horiz-adv-x="718" 
d="M383 1391l147 -240h-120l-209 240h182zM371 0v1024h149v-1024h-149z" />
    <glyph glyph-name="iacute" unicode="&#xed;" horiz-adv-x="718" 
d="M319 1151h-118l147 240h182zM240 0v1024h149v-1024h-149z" />
    <glyph glyph-name="icircumflex" unicode="&#xee;" horiz-adv-x="962" 
d="M555 1399l217 -248h-129l-156 131l-157 -129h-129l217 246h137zM561 0h-149v1024h149v-1024z" />
    <glyph glyph-name="idieresis" unicode="&#xef;" horiz-adv-x="999" 
d="M293 1151q-38 0 -65 24.5t-27 59.5t27 59.5t65 24.5t64 -24.5t26 -59.5t-26 -59.5t-64 -24.5zM717 1151q-38 0 -65 24.5t-27 59.5t27 59.5t65 24.5t65 -24.5t27 -59.5t-27 -59.5t-65 -24.5zM434 0v1024h150v-1024h-150z" />
    <glyph glyph-name="eth" unicode="&#xf0;" horiz-adv-x="1368" 
d="M1159 1372l-90 -80q111 -135 111 -354v-416q0 -115 -40.5 -215.5t-110 -171t-167.5 -111t-209 -40.5q-151 0 -272 70.5t-186.5 188.5t-65.5 259q0 216 143 364t359 148q131 0 239 -67t160 -177v168q0 166 -67 260l-148 -133l-57 63l145 132q-82 61 -221 61
q-186 0 -352 -113l-86 92q188 156 438 156q203 0 328 -104l90 82zM653 127q161 0 269 107.5t108 267.5q0 159 -110.5 267t-266.5 108q-154 0 -264 -108t-110 -267t108.5 -267t265.5 -108z" />
    <glyph glyph-name="ntilde" unicode="&#xf1;" horiz-adv-x="1337" 
d="M971 1358l-39 -107q-38 -115 -129 -118q-56 -3 -107 38l-80 76q-37 29 -75 29q-29 -1 -46 -20t-28 -58l-14 -47h-80l39 106q38 116 127 119q60 3 108 -39l80 -75q42 -29 72 -29q30 1 48 20t30 58l16 47h78zM713 1038q209 0 326.5 -129t117.5 -358v-551h-147v545
q0 176 -85 263t-233 87q-162 0 -257 -107t-95 -301v-487h-150v1024h107l8 -233q57 124 168 185.5t240 61.5z" />
    <glyph glyph-name="ograve" unicode="&#xf2;" horiz-adv-x="1306" 
d="M602 1391l150 -240h-121l-209 240h180zM653 1038q143 0 264.5 -70.5t192 -191.5t70.5 -264t-70.5 -263.5t-192 -190.5t-264.5 -70t-263.5 70t-190.5 190.5t-70 263.5t70 264t190.5 191.5t263.5 70.5zM651 895q-155 0 -265 -110t-110 -273t110 -272t265 -109
q156 0 266.5 109t110.5 272q0 164 -110.5 273.5t-266.5 109.5z" />
    <glyph glyph-name="oacute" unicode="&#xf3;" horiz-adv-x="1306" 
d="M659 1151h-118l147 240h182zM653 1038q143 0 264.5 -70.5t192 -191.5t70.5 -264t-70.5 -263.5t-192 -190.5t-264.5 -70t-263.5 70t-190.5 190.5t-70 263.5t70 264t190.5 191.5t263.5 70.5zM651 895q-155 0 -265 -110t-110 -273t110 -272t265 -109q156 0 266.5 109
t110.5 272q0 164 -110.5 273.5t-266.5 109.5z" />
    <glyph glyph-name="ocircumflex" unicode="&#xf4;" horiz-adv-x="1306" 
d="M809 1151l-156 131l-157 -131h-129l217 248h137l217 -248h-129zM653 1038q143 0 264.5 -70.5t192 -191.5t70.5 -264t-70.5 -263.5t-192 -190.5t-264.5 -70t-263.5 70t-190.5 190.5t-70 263.5t70 264t190.5 191.5t263.5 70.5zM651 895q-155 0 -265 -110t-110 -273
t110 -272t265 -109q156 0 266.5 109t110.5 272q0 164 -110.5 273.5t-266.5 109.5z" />
    <glyph glyph-name="otilde" unicode="&#xf5;" horiz-adv-x="1306" 
d="M950 1358l-39 -107q-38 -115 -129 -118q-55 -3 -106 38l-80 76q-37 29 -76 29q-29 -1 -46 -20t-28 -58l-14 -47h-80l39 106q38 116 127 119q61 3 109 -39l80 -75q42 -29 71 -29q30 1 48 20t30 58l16 47h78zM653 1038q143 0 264.5 -70.5t192 -191.5t70.5 -264
t-70.5 -263.5t-192 -190.5t-264.5 -70t-263.5 70t-190.5 190.5t-70 263.5t70 264t190.5 191.5t263.5 70.5zM651 895q-155 0 -265 -110t-110 -273t110 -272t265 -109q156 0 266.5 109t110.5 272q0 164 -110.5 273.5t-266.5 109.5z" />
    <glyph glyph-name="odieresis" unicode="&#xf6;" horiz-adv-x="1306" 
d="M444 1151q-38 0 -65 24.5t-27 59.5t27 59.5t65 24.5t65.5 -24.5t27.5 -59.5t-27.5 -59.5t-65.5 -24.5zM870 1151q-38 0 -65 24.5t-27 59.5t27 59.5t65 24.5t65.5 -24.5t27.5 -59.5t-27.5 -59.5t-65.5 -24.5zM653 1038q143 0 264.5 -70.5t192 -191.5t70.5 -264
t-70.5 -263.5t-192 -190.5t-264.5 -70t-263.5 70t-190.5 190.5t-70 263.5t70 264t190.5 191.5t263.5 70.5zM651 895q-155 0 -265 -110t-110 -273t110 -272t265 -109q156 0 266.5 109t110.5 272q0 164 -110.5 273.5t-266.5 109.5z" />
    <glyph glyph-name="divide" unicode="&#xf7;" horiz-adv-x="1105" 
d="M553 956q40 0 69 -26t29 -64q0 -37 -29 -62.5t-69 -25.5q-41 0 -69.5 25.5t-28.5 62.5q0 38 28.5 64t69.5 26zM977 479h-848v99h848v-99zM553 272q40 0 69 -26t29 -64q0 -37 -29 -63.5t-69 -26.5q-41 0 -69.5 26.5t-28.5 63.5q0 38 28.5 64t69.5 26z" />
    <glyph glyph-name="oslash" unicode="&#xf8;" horiz-adv-x="1306" 
d="M1180 1024l-142 -154q142 -152 142 -358q0 -143 -70.5 -263.5t-192 -190.5t-264.5 -70q-185 0 -323 110l-92 -98h-109l141 154q-141 151 -141 358q0 143 70 264t190.5 191.5t263.5 70.5q185 0 326 -112l92 98h109zM276 512q0 -144 93 -252l512 557q-100 78 -230 78
q-155 0 -265 -110t-110 -273zM1028 512q0 142 -90 250l-512 -557q99 -74 225 -74q156 0 266.5 109t110.5 272z" />
    <glyph glyph-name="ugrave" unicode="&#xf9;" horiz-adv-x="1327" 
d="M739 1151h-121l-208 240h180zM1147 0h-105l-10 233q-57 -124 -167.5 -185.5t-237.5 -61.5q-211 0 -329 129t-118 358v551h150v-543q0 -178 83.5 -265t233.5 -87q162 0 257 107t95 301v487h148v-1024z" />
    <glyph glyph-name="uacute" unicode="&#xfa;" horiz-adv-x="1327" 
d="M852 1391l-211 -240h-119l148 240h182zM1147 0h-105l-10 233q-57 -124 -167.5 -185.5t-237.5 -61.5q-211 0 -329 129t-118 358v551h150v-543q0 -178 83.5 -265t233.5 -87q162 0 257 107t95 301v487h148v-1024z" />
    <glyph glyph-name="ucircumflex" unicode="&#xfb;" horiz-adv-x="1327" 
d="M803 1151l-156 131l-158 -129h-129l218 246h137l217 -248h-129zM1147 0h-105l-10 233q-57 -124 -167.5 -185.5t-237.5 -61.5q-211 0 -329 129t-118 358v551h150v-543q0 -178 83.5 -265t233.5 -87q162 0 257 107t95 301v487h148v-1024z" />
    <glyph glyph-name="udieresis" unicode="&#xfc;" horiz-adv-x="1327" 
d="M444 1319q38 0 65.5 -24.5t27.5 -59.5t-27.5 -59.5t-65.5 -24.5t-65 24.5t-27 59.5t27 59.5t65 24.5zM870 1319q38 0 65.5 -24.5t27.5 -59.5t-27.5 -59.5t-65.5 -24.5t-65 24.5t-27 59.5t27 59.5t65 24.5zM1147 0h-105l-10 233q-57 -124 -167.5 -185.5t-237.5 -61.5
q-211 0 -329 129t-118 358v551h150v-543q0 -178 83.5 -265t233.5 -87q162 0 257 107t95 301v487h148v-1024z" />
    <glyph glyph-name="yacute" unicode="&#xfd;" horiz-adv-x="1337" 
d="M651 1151h-119l148 240h182zM1159 1024v-895q0 -237 -130 -378t-367 -142q-251 0 -441 155l86 95q168 -115 355 -115q168 0 257 92.5t89 263.5v121q-36 -76 -100.5 -127t-132 -71.5t-138.5 -20.5q-211 0 -329 128.5t-118 358.5v535h150v-528q0 -178 83.5 -264.5
t233.5 -86.5q162 0 257.5 107t95.5 299v473h149z" />
    <glyph glyph-name="thorn" unicode="&#xfe;" horiz-adv-x="1366" 
d="M346 1434v-619q54 100 155.5 161.5t223.5 61.5q143 0 261 -70.5t184.5 -191t66.5 -264.5t-66.5 -264t-184.5 -190t-261 -70q-122 0 -224 60.5t-155 160.5v-586h-149v1811h149zM713 895q-155 0 -266 -110t-111 -273t111 -273t266 -110t264.5 109.5t109.5 273.5
t-109.5 273.5t-264.5 109.5z" />
    <glyph glyph-name="ydieresis" unicode="&#xff;" horiz-adv-x="1337" 
d="M446 1319q38 0 65.5 -24.5t27.5 -59.5t-27.5 -59.5t-65.5 -24.5t-65 24.5t-27 59.5t27 59.5t65 24.5zM872 1319q38 0 65.5 -24.5t27.5 -59.5t-27.5 -59.5t-65.5 -24.5t-65 24.5t-27 59.5t27 59.5t65 24.5zM340 1024v-528q0 -178 83.5 -264.5t233.5 -86.5q162 0 257.5 107
t95.5 299v473h149v-895q0 -237 -130 -378t-367 -142q-251 0 -441 155l86 95q168 -115 355 -115q168 0 257 92.5t89 263.5v121q-36 -76 -100.5 -127t-132 -71.5t-138.5 -20.5q-211 0 -329 128.5t-118 358.5v535h150z" />
    <glyph glyph-name="Amacron" unicode="&#x100;" horiz-adv-x="1464" 
d="M991 1536h-520v113h520v-113zM426 381l-156 -381h-176l594 1434h90l592 -1434h-176l-156 381h-612zM733 1139l-250 -609h500z" />
    <glyph glyph-name="amacron" unicode="&#x101;" 
d="M926 1151h-520v115h520v-115zM1169 0h-106l-6 231q-59 -111 -170.5 -177t-245.5 -66q-143 0 -261 70t-184.5 190t-66.5 264t66.5 264.5t184.5 191t261 70.5q134 0 245 -66.5t171 -176.5l6 229h106v-1024zM651 131q156 0 266.5 109t110.5 272q0 164 -110.5 273.5
t-266.5 109.5q-155 0 -265 -110t-110 -273t110 -272t265 -109z" />
    <glyph glyph-name="Abreve" unicode="&#x102;" horiz-adv-x="1464" 
d="M920 1802h106q0 -115 -84.5 -190.5t-208.5 -75.5t-208.5 75.5t-84.5 190.5h109q0 -67 53 -112t131 -45q79 0 133 45t54 112zM1370 0h-176l-156 381h-612l-156 -381h-176l594 1434h90zM483 530h500l-250 609z" />
    <glyph glyph-name="abreve" unicode="&#x103;" 
d="M840 1417h106q0 -113 -84.5 -189.5t-208.5 -76.5t-208.5 76.5t-84.5 189.5h109q0 -67 53 -112t131 -45q79 0 133 45t54 112zM641 1038q134 0 245 -66.5t171 -176.5l6 229h106v-1024h-106l-6 231q-59 -111 -170.5 -177t-245.5 -66q-143 0 -261 70t-184.5 190t-66.5 264
t66.5 264.5t184.5 191t261 70.5zM651 895q-155 0 -265 -110t-110 -273t110 -272t265 -109q156 0 266.5 109t110.5 272q0 164 -110.5 273.5t-266.5 109.5z" />
    <glyph glyph-name="Aogonek" unicode="&#x104;" horiz-adv-x="1464" 
d="M1227 -139q0 -49 35 -75t88 -26h18v-96h-12q-84 0 -143.5 41.5t-59.5 120.5q0 115 160 174h-119l-156 381h-612l-156 -381h-176l594 1434h90l592 -1434q-143 -53 -143 -139zM983 530l-250 609l-250 -609h500z" />
    <glyph glyph-name="aogonek" unicode="&#x105;" 
d="M1169 1024v-1024h-2q-143 -53 -143 -139q0 -49 35 -75t88 -26h18v-96h-12q-84 0 -143.5 41.5t-59.5 120.5q0 115 160 174h-47l-6 231q-59 -111 -170.5 -177t-245.5 -66q-143 0 -261 70t-184.5 190t-66.5 264t66.5 264.5t184.5 191t261 70.5q134 0 245 -66.5t171 -176.5
l6 229h106zM651 131q156 0 266.5 109t110.5 272q0 164 -110.5 273.5t-266.5 109.5q-155 0 -265 -110t-110 -273t110 -272t265 -109z" />
    <glyph glyph-name="Cacute" unicode="&#x106;" horiz-adv-x="1527" 
d="M870 1536h-118l147 240h182zM870 1448q158 0 298.5 -63.5t242.5 -176.5l-104 -94q-85 88 -197.5 136t-239.5 48q-157 0 -287 -75.5t-206 -209t-76 -296.5q0 -164 76 -298t206 -209t287 -75q128 0 240.5 48t196.5 136l104 -98q-102 -111 -242 -173t-299 -62
q-198 0 -366 97.5t-265.5 265.5t-97.5 368q0 148 57.5 283.5t155 233.5t233 156t283.5 58z" />
    <glyph glyph-name="cacute" unicode="&#x107;" horiz-adv-x="1175" 
d="M621 1151h-119l147 240h182zM653 1038q120 0 225.5 -50.5t178.5 -139.5l-90 -96q-131 143 -314 143q-156 0 -265 -109.5t-109 -273.5t109 -272.5t265 -108.5q185 0 314 141l90 -96q-73 -88 -178.5 -138t-225.5 -50q-143 0 -263.5 70t-190.5 190.5t-70 263.5t70 264
t190.5 191.5t263.5 70.5z" />
    <glyph glyph-name="Cdotaccent" unicode="&#x10a;" horiz-adv-x="1527" 
d="M870 1704q38 0 65.5 -24.5t27.5 -59.5t-27.5 -59.5t-65.5 -24.5t-65 24.5t-27 59.5t27 59.5t65 24.5zM870 1448q158 0 298.5 -63.5t242.5 -176.5l-104 -94q-85 88 -197.5 136t-239.5 48q-157 0 -287 -75.5t-206 -209t-76 -296.5q0 -164 76 -298t206 -209t287 -75
q128 0 240.5 48t196.5 136l104 -98q-102 -111 -242 -173t-299 -62q-198 0 -366 97.5t-265.5 265.5t-97.5 368q0 148 57.5 283.5t155 233.5t233 156t283.5 58z" />
    <glyph glyph-name="cdotaccent" unicode="&#x10b;" horiz-adv-x="1175" 
d="M653 1319q38 0 65 -24.5t27 -59.5t-27 -59.5t-65 -24.5t-65 24.5t-27 59.5t27 59.5t65 24.5zM653 1038q120 0 225.5 -50.5t178.5 -139.5l-90 -96q-131 143 -314 143q-156 0 -265 -109.5t-109 -273.5t109 -272.5t265 -108.5q185 0 314 141l90 -96q-73 -88 -178.5 -138
t-225.5 -50q-143 0 -263.5 70t-190.5 190.5t-70 263.5t70 264t190.5 191.5t263.5 70.5z" />
    <glyph glyph-name="Ccaron" unicode="&#x10c;" horiz-adv-x="1527" 
d="M938 1536h-137l-217 246h129l157 -129l156 131h129zM870 1448q158 0 298.5 -63.5t242.5 -176.5l-104 -94q-85 88 -197.5 136t-239.5 48q-157 0 -287 -75.5t-206 -209t-76 -296.5q0 -164 76 -298t206 -209t287 -75q128 0 240.5 48t196.5 136l104 -98q-102 -111 -242 -173
t-299 -62q-198 0 -366 97.5t-265.5 265.5t-97.5 368q0 148 57.5 283.5t155 233.5t233 156t283.5 58z" />
    <glyph glyph-name="ccaron" unicode="&#x10d;" horiz-adv-x="1175" 
d="M721 1151h-137l-217 248h129l157 -131l156 131h129zM653 1038q120 0 225.5 -50.5t178.5 -139.5l-90 -96q-131 143 -314 143q-156 0 -265 -109.5t-109 -273.5t109 -272.5t265 -108.5q185 0 314 141l90 -96q-73 -88 -178.5 -138t-225.5 -50q-143 0 -263.5 70t-190.5 190.5
t-70 263.5t70 264t190.5 191.5t263.5 70.5z" />
    <glyph glyph-name="Dcaron" unicode="&#x10e;" horiz-adv-x="1552" 
d="M788 1536h-137l-217 246h129l158 -129l156 131h129zM231 1434h451q201 0 367 -89.5t264 -254.5t98 -373q0 -157 -57.5 -292t-156 -227.5t-232 -145t-283.5 -52.5h-451v1434zM391 1284v-1134h291q160 0 288 66.5t204.5 197t76.5 303.5q0 172 -76.5 302.5t-205 197.5
t-287.5 67h-291z" />
    <glyph glyph-name="dcaron" unicode="&#x10f;" horiz-adv-x="1753" 
d="M1169 0h-106l-6 231q-59 -111 -170.5 -177t-245.5 -66q-143 0 -261 70t-184.5 190t-66.5 264t66.5 264.5t184.5 191t261 70.5q123 0 224.5 -61t156.5 -162v619h147v-1434zM1352 1194h-119l147 240h183zM651 131q156 0 266.5 109t110.5 272q0 164 -110.5 273.5
t-266.5 109.5q-155 0 -265 -110t-110 -273t110 -272t265 -109z" />
    <glyph glyph-name="Dcroat" unicode="&#x110;" horiz-adv-x="1689" 
d="M369 1434h450q201 0 367 -89.5t264 -254.5t98 -373q0 -157 -57.5 -292t-156 -227.5t-232 -145t-283.5 -52.5h-450v670h-138v98h138v666zM528 150h291q160 0 288 66.5t205 197t77 303.5q0 172 -76.5 302.5t-205.5 197.5t-288 67h-291v-516h213v-98h-213v-520z" />
    <glyph glyph-name="dcroat" unicode="&#x111;" horiz-adv-x="1515" 
d="M1325 1147h-156v-1147h-106l-6 231q-59 -111 -170.5 -177t-245.5 -66q-143 0 -261 70t-184.5 190t-66.5 264t66.5 264.5t184.5 191t261 70.5q123 0 224.5 -61t156.5 -162v332h-158v113h158v174h147v-174h156v-113zM651 131q156 0 266.5 109t110.5 272q0 164 -110.5 273.5
t-266.5 109.5q-155 0 -265 -110t-110 -273t110 -272t265 -109z" />
    <glyph glyph-name="Emacron" unicode="&#x112;" horiz-adv-x="1253" 
d="M934 1536h-520v113h520v-113zM1139 1284h-748v-485h703v-150h-703v-499h748v-150h-908v1434h908v-150z" />
    <glyph glyph-name="emacron" unicode="&#x113;" horiz-adv-x="1257" 
d="M907 1151h-520v115h520v-115zM649 1038q165 0 284.5 -80t176.5 -219q24 -59 29 -136.5t-11 -125.5h-847q0 -163 107 -257.5t278 -96.5q197 0 354 110l80 -90q-199 -155 -434 -155q-238 2 -387.5 147.5t-149.5 376.5q0 145 64 264.5t183.5 190.5t272.5 71zM649 901
q-152 0 -253 -94t-109 -229h706q3 53 -22 116q-39 95 -123.5 151t-198.5 56z" />
    <glyph glyph-name="Edotaccent" unicode="&#x116;" horiz-adv-x="1253" 
d="M674 1704q38 0 65 -24.5t27 -59.5t-27 -59.5t-65 -24.5t-65 24.5t-27 59.5t27 59.5t65 24.5zM1139 1284h-748v-485h703v-150h-703v-499h748v-150h-908v1434h908v-150z" />
    <glyph glyph-name="edotaccent" unicode="&#x117;" horiz-adv-x="1257" 
d="M649 1319q38 0 65 -24.5t27 -59.5t-27 -59.5t-65 -24.5t-65 24.5t-27 59.5t27 59.5t65 24.5zM649 1038q165 0 284.5 -80t176.5 -219q24 -59 29 -136.5t-11 -125.5h-847q0 -163 107 -257.5t278 -96.5q197 0 354 110l80 -90q-199 -155 -434 -155q-238 2 -387.5 147.5
t-149.5 376.5q0 145 64 264.5t183.5 190.5t272.5 71zM649 901q-152 0 -253 -94t-109 -229h706q3 53 -22 116q-39 95 -123.5 151t-198.5 56z" />
    <glyph glyph-name="Eogonek" unicode="&#x118;" horiz-adv-x="1253" 
d="M391 1284v-485h703v-150h-703v-499h748v-150h-2q-144 -53 -144 -139q0 -49 35 -75t88 -26h19v-96h-13q-84 0 -143 41t-59 121q0 116 159 174h-848v1434h908v-150h-748z" />
    <glyph glyph-name="eogonek" unicode="&#x119;" horiz-adv-x="1257" 
d="M1110 739q24 -59 29 -136.5t-11 -125.5h-847q0 -163 107 -257.5t278 -96.5q197 0 354 110l80 -90q-143 -113 -318 -145q-137 -52 -137 -137q0 -49 35 -75t88 -26h18v-96h-12q-84 0 -143.5 41.5t-59.5 120.5q0 107 131 162h-36q-238 2 -387.5 147.5t-149.5 376.5
q0 145 64 264.5t183.5 190.5t272.5 71q165 0 284.5 -80t176.5 -219zM287 578h706q3 53 -22 116q-39 95 -123.5 151t-198.5 56q-152 0 -253 -94t-109 -229z" />
    <glyph glyph-name="Ecaron" unicode="&#x11a;" horiz-adv-x="1253" 
d="M752 1536h-138l-217 246h129l158 -129l156 131h129zM1139 1284h-748v-485h703v-150h-703v-499h748v-150h-908v1434h908v-150z" />
    <glyph glyph-name="ecaron" unicode="&#x11b;" horiz-adv-x="1257" 
d="M719 1151h-137l-217 248h129l157 -131l156 131h129zM649 1038q165 0 284.5 -80t176.5 -219q24 -59 29 -136.5t-11 -125.5h-847q0 -163 107 -257.5t278 -96.5q197 0 354 110l80 -90q-199 -155 -434 -155q-238 2 -387.5 147.5t-149.5 376.5q0 145 64 264.5t183.5 190.5
t272.5 71zM649 901q-152 0 -253 -94t-109 -229h706q3 53 -22 116q-39 95 -123.5 151t-198.5 56z" />
    <glyph glyph-name="Gbreve" unicode="&#x11e;" horiz-adv-x="1622" 
d="M1057 1802h106q0 -115 -84.5 -190.5t-208.5 -75.5t-208 75.5t-84 190.5h108q0 -67 53 -112t131 -45q79 0 133 45t54 112zM870 1448q158 0 298.5 -63.5t242.5 -176.5l-104 -96q-84 89 -196.5 137.5t-240.5 48.5q-157 0 -287 -75.5t-206 -209t-76 -296.5q0 -164 76 -298
t206 -209t287 -75q222 0 381 146v346h-393v125h553v-531q-102 -111 -242 -173t-299 -62q-198 0 -366 97.5t-265.5 265.5t-97.5 368q0 148 57.5 283.5t155 233.5t233 156t283.5 58z" />
    <glyph glyph-name="gbreve" unicode="&#x11f;" horiz-adv-x="1347" 
d="M829 1417h107q0 -113 -84.5 -189.5t-208.5 -76.5t-208.5 76.5t-84.5 189.5h109q0 -67 53 -112t131 -45t132 45t54 112zM631 1038q133 0 243 -66t170 -175l9 227h106v-895q0 -237 -130 -378t-367 -142q-251 0 -441 155l86 95q168 -115 355 -115q168 0 257 92t89 262v123
q-55 -99 -155.5 -159t-221.5 -60q-107 0 -202.5 41t-163 111t-107 165.5t-39.5 200.5q0 140 66.5 259t185 189t260.5 70zM641 895q-154 0 -264.5 -108.5t-110.5 -266.5q0 -159 110.5 -267t264.5 -108q156 0 266.5 108t110.5 267q0 158 -111 266.5t-266 108.5z" />
    <glyph glyph-name="Gdotaccent" unicode="&#x120;" horiz-adv-x="1622" 
d="M870 1704q38 0 65.5 -24.5t27.5 -59.5t-27.5 -59.5t-65.5 -24.5t-65 24.5t-27 59.5t27 59.5t65 24.5zM870 1448q158 0 298.5 -63.5t242.5 -176.5l-104 -96q-84 89 -196.5 137.5t-240.5 48.5q-157 0 -287 -75.5t-206 -209t-76 -296.5q0 -164 76 -298t206 -209t287 -75
q222 0 381 146v346h-393v125h553v-531q-102 -111 -242 -173t-299 -62q-198 0 -366 97.5t-265.5 265.5t-97.5 368q0 148 57.5 283.5t155 233.5t233 156t283.5 58z" />
    <glyph glyph-name="gdotaccent" unicode="&#x121;" horiz-adv-x="1347" 
d="M643 1319q38 0 65 -24.5t27 -59.5t-27 -59.5t-65 -24.5t-65 24.5t-27 59.5t27 59.5t65 24.5zM631 1038q133 0 243 -66t170 -175l9 227h106v-895q0 -237 -130 -378t-367 -142q-251 0 -441 155l86 95q168 -115 355 -115q168 0 257 92t89 262v123q-55 -99 -155.5 -159
t-221.5 -60q-107 0 -202.5 41t-163 111t-107 165.5t-39.5 200.5q0 140 66.5 259t185 189t260.5 70zM641 895q-154 0 -264.5 -108.5t-110.5 -266.5q0 -159 110.5 -267t264.5 -108q156 0 266.5 108t110.5 267q0 158 -111 266.5t-266 108.5z" />
    <glyph glyph-name="Gcommaaccent" unicode="&#x122;" horiz-adv-x="1622" 
d="M870 1448q158 0 298.5 -63.5t242.5 -176.5l-104 -96q-84 89 -196.5 137.5t-240.5 48.5q-157 0 -287 -75.5t-206 -209t-76 -296.5q0 -164 76 -298t206 -209t287 -75q222 0 381 146v346h-393v125h553v-531q-102 -111 -242 -173t-299 -62q-198 0 -366 97.5t-265.5 265.5
t-97.5 368q0 148 57.5 283.5t155 233.5t233 156t283.5 58zM786 -381h-118l147 240h182z" />
    <glyph glyph-name="gcommaaccent" unicode="&#x123;" horiz-adv-x="1347" 
d="M631 1038q133 0 243 -66t170 -175l9 227h106v-895q0 -237 -130 -378t-367 -142q-251 0 -441 155l86 95q168 -115 355 -115q168 0 257 92t89 262v123q-55 -99 -155.5 -159t-221.5 -60q-107 0 -202.5 41t-163 111t-107 165.5t-39.5 200.5q0 140 66.5 259t185 189t260.5 70z
M641 895q-154 0 -264.5 -108.5t-110.5 -266.5q0 -159 110.5 -267t264.5 -108q156 0 266.5 108t110.5 267q0 158 -111 266.5t-266 108.5zM565 -752h-119l148 240h182z" />
    <glyph glyph-name="Hbar" unicode="&#x126;" horiz-adv-x="1894" 
d="M1665 1024h-176v-1024h-160v651h-764v-651h-159v1024h-175v98h175v312h159v-312l764 -2v314h160v-314h176v-96zM1329 1024h-764v-223h764v223z" />
    <glyph glyph-name="hbar" unicode="&#x127;" horiz-adv-x="1511" 
d="M887 1038q209 0 326.5 -129t117.5 -358v-551h-147v545q0 176 -85 263t-233 87q-162 0 -257 -107t-95 -301v-487h-149v1139h-164v106h164v189h149v-189h162v-106h-162v-322q36 76 100.5 127.5t132.5 72.5t140 21z" />
    <glyph glyph-name="Imacron" unicode="&#x12a;" horiz-adv-x="1044" 
d="M780 1536h-520v113h520v-113zM602 150h168v-150h-496v150h168v1134h-168v150h496v-150h-168v-1134z" />
    <glyph glyph-name="imacron" unicode="&#x12b;" horiz-adv-x="911" 
d="M721 1151h-520v115h520v-115zM387 0v1024h150v-1024h-150z" />
    <glyph glyph-name="Iogonek" unicode="&#x12e;" horiz-adv-x="958" 
d="M559 1284v-1134h168v-150q-143 -53 -143 -139q0 -49 35 -75t88 -26h18v-96h-12q-84 0 -143.5 41.5t-59.5 120.5q0 115 160 174h-439v150h168v1134h-168v150h496v-150h-168z" />
    <glyph glyph-name="iogonek" unicode="&#x12f;" horiz-adv-x="669" 
d="M387 1151q-38 0 -65 24.5t-27 59.5t27 59.5t65 24.5t65 -24.5t27 -59.5t-27 -59.5t-65 -24.5zM313 1024h150v-1024q-146 -52 -146 -139q0 -49 35 -75t88 -26h19v-96h-13q-84 0 -143 41t-59 121q0 116 162 174h-93v1024z" />
    <glyph glyph-name="Idotaccent" unicode="&#x130;" horiz-adv-x="958" 
d="M481 1536q-38 0 -65 24.5t-27 59.5t27 59.5t65 24.5t65 -24.5t27 -59.5t-27 -59.5t-65 -24.5zM559 150h168v-150h-496v150h168v1134h-168v150h496v-150h-168v-1134z" />
    <glyph glyph-name="dotlessi" unicode="&#x131;" horiz-adv-x="538" 
d="M201 0v1024h149v-1024h-149z" />
    <glyph glyph-name="IJ" unicode="&#x132;" horiz-adv-x="1873" 
d="M727 1284h-168v-1134h168v-150h-496v150h168v1134h-168v150h496v-150zM1733 1434v-947q0 -238 -127 -369.5t-344 -131.5t-343 131.5t-126 369.5v60h159v-78q0 -153 81.5 -243.5t228.5 -90.5q148 0 229.5 90.5t81.5 243.5v815h-492v150h652z" />
    <glyph glyph-name="ij" unicode="&#x133;" horiz-adv-x="931" 
d="M293 1319q38 0 65 -24.5t27 -59.5t-27 -59.5t-65 -24.5t-65 24.5t-27 59.5t27 59.5t65 24.5zM651 1319q38 0 65 -24.5t27 -59.5t-27 -59.5t-65 -24.5t-65 24.5t-27 59.5t27 59.5t65 24.5zM367 0h-150v1024h150v-1024zM725 -377h-150v1401h150v-1401z" />
    <glyph glyph-name="Kcommaaccent" unicode="&#x136;" horiz-adv-x="1470" 
d="M1339 1434l-315 -486q-66 -99 -107.5 -145.5t-85.5 -67.5q55 -18 100.5 -66.5t115.5 -158.5l329 -510h-182l-291 455q-35 53 -52.5 77.5t-44 53.5t-49.5 40t-55.5 19t-76.5 8h-234v-653h-160v1434h160v-629h211q37 0 64.5 3.5t52.5 16t41.5 24t39 39.5t37.5 49.5t44 66.5
l276 430h182zM659 -381h-118l147 240h182z" />
    <glyph glyph-name="kcommaaccent" unicode="&#x137;" horiz-adv-x="1191" 
d="M952 0l-168 258q-34 53 -52 78.5t-43.5 54t-49 40t-56.5 19t-77 7.5h-156v-457h-149v1434h149v-834h133q55 0 91.5 9t69 37t55 58t63.5 95l147 225h168l-192 -291q-61 -90 -100.5 -135.5t-84.5 -65.5q55 -16 99 -63.5t108 -144.5l211 -324h-166zM535 -381h-119l147 240
h182z" />
    <glyph glyph-name="Lacute" unicode="&#x139;" horiz-adv-x="1220" 
d="M672 1536h-119l147 240h183zM1124 0h-893v1434h160v-1284h733v-150z" />
    <glyph glyph-name="lacute" unicode="&#x13a;" horiz-adv-x="714" 
d="M319 1536h-118l147 240h182zM240 1434h149v-1434h-149v1434z" />
    <glyph glyph-name="Lcommaaccent" unicode="&#x13b;" horiz-adv-x="1220" 
d="M1124 0h-893v1434h160v-1284h733v-150zM584 -381h-119l147 240h183z" />
    <glyph glyph-name="lcommaaccent" unicode="&#x13c;" horiz-adv-x="714" 
d="M324 1434h149v-1434h-149v1434zM319 -371h-118l147 240h182z" />
    <glyph glyph-name="Lcaron" unicode="&#x13d;" horiz-adv-x="1220" 
d="M1124 0h-893v1434h160v-1284h733v-150zM915 1194h-118l147 240h182z" />
    <glyph glyph-name="lcaron" unicode="&#x13e;" horiz-adv-x="925" 
d="M201 1434h149v-1434h-149v1434zM528 1194h-118l147 240h182z" />
    <glyph glyph-name="Ldot" unicode="&#x13f;" horiz-adv-x="1220" 
d="M1124 0h-893v1434h160v-1284h733v-150zM1026 592q-42 0 -70 29t-28 69q0 39 28 67.5t70 28.5t70 -28.5t28 -67.5q0 -40 -28 -69t-70 -29z" />
    <glyph glyph-name="ldot" unicode="&#x140;" horiz-adv-x="802" 
d="M201 1434h149v-1434h-149v1434zM520 711q42 0 70 -29t28 -70q0 -39 -28 -67.5t-70 -28.5t-70 28.5t-28 67.5q0 41 28 70t70 29z" />
    <glyph glyph-name="Lslash" unicode="&#x141;" horiz-adv-x="1341" 
d="M1245 150v-150h-893v801l-121 -53v100l121 53v533h160v-463l121 53v-100l-121 -54v-720h733z" />
    <glyph glyph-name="lslash" unicode="&#x142;" horiz-adv-x="788" 
d="M602 924l-125 -56v-868h-149v803l-127 -55v100l127 55v531h149v-465l125 55v-100z" />
    <glyph glyph-name="Nacute" unicode="&#x143;" horiz-adv-x="1507" 
d="M758 1536h-119l147 240h183zM1296 0h-88l-837 1120v-1120h-160v1434h90l836 -1121v1121h159v-1434z" />
    <glyph glyph-name="nacute" unicode="&#x144;" horiz-adv-x="1337" 
d="M702 1151h-118l147 240h182zM713 1038q209 0 326.5 -129t117.5 -358v-551h-147v545q0 176 -85 263t-233 87q-162 0 -257 -107t-95 -301v-487h-150v1024h107l8 -233q57 124 168 185.5t240 61.5z" />
    <glyph glyph-name="Ncommaaccent" unicode="&#x145;" horiz-adv-x="1507" 
d="M1296 0h-88l-837 1120v-1120h-160v1434h90l836 -1121v1121h159v-1434zM672 -381h-119l147 240h183z" />
    <glyph glyph-name="ncommaaccent" unicode="&#x146;" horiz-adv-x="1337" 
d="M713 1038q209 0 326.5 -129t117.5 -358v-551h-147v545q0 176 -85 263t-233 87q-162 0 -257 -107t-95 -301v-487h-150v1024h107l8 -233q57 124 168 185.5t240 61.5zM633 -381h-119l148 240h182z" />
    <glyph glyph-name="Ncaron" unicode="&#x147;" horiz-adv-x="1507" 
d="M739 1651l156 131h129l-217 -246h-137l-217 248h129zM1296 0h-88l-837 1120v-1120h-160v1434h90l836 -1121v1121h159v-1434z" />
    <glyph glyph-name="ncaron" unicode="&#x148;" horiz-adv-x="1337" 
d="M766 1151h-137l-217 248h129l157 -131l156 131h129zM713 1038q209 0 326.5 -129t117.5 -358v-551h-147v545q0 176 -85 263t-233 87q-162 0 -257 -107t-95 -301v-487h-150v1024h107l8 -233q57 124 168 185.5t240 61.5z" />
    <glyph glyph-name="Eng" unicode="&#x14a;" horiz-adv-x="1507" 
d="M1296 1434v-1401q0 -216 -113 -324.5t-294 -97.5l-27 2l2 133h19q59 0 103.5 12t83 41t59 86t20.5 140v53l-778 1042v-1120h-160v1434h90l836 -1121v1121h159z" />
    <glyph glyph-name="eng" unicode="&#x14b;" horiz-adv-x="1337" 
d="M713 1038q209 0 326.5 -129t117.5 -358v-518q0 -216 -113 -324.5t-294 -97.5l-27 2l2 133h18q59 0 103.5 12t83.5 41t59.5 86t20.5 140v520q0 176 -85 263t-233 87q-162 0 -257 -107t-95 -301v-487h-150v1024h107l8 -233q57 124 168 185.5t240 61.5z" />
    <glyph glyph-name="Omacron" unicode="&#x14c;" horiz-adv-x="1742" 
d="M1133 1536h-521v113h521v-113zM870 1448q148 0 283.5 -58t234 -156t156.5 -233.5t58 -283.5q0 -199 -98.5 -367.5t-267 -266t-366.5 -97.5t-366 97.5t-265.5 265.5t-97.5 368q0 148 57.5 283.5t155 233.5t233 156t283.5 58zM870 1298q-157 0 -287 -75.5t-206 -209
t-76 -296.5q0 -164 76 -298t206 -209t287 -75q117 0 222.5 44.5t182.5 121t122 185t45 231.5q0 163 -76.5 296.5t-207.5 209t-288 75.5z" />
    <glyph glyph-name="omacron" unicode="&#x14d;" horiz-adv-x="1306" 
d="M911 1151h-520v115h520v-115zM653 1038q143 0 264.5 -70.5t192 -191.5t70.5 -264t-70.5 -263.5t-192 -190.5t-264.5 -70t-263.5 70t-190.5 190.5t-70 263.5t70 264t190.5 191.5t263.5 70.5zM651 895q-155 0 -265 -110t-110 -273t110 -272t265 -109q156 0 266.5 109
t110.5 272q0 164 -110.5 273.5t-266.5 109.5z" />
    <glyph glyph-name="Ohungarumlaut" unicode="&#x150;" horiz-adv-x="1742" 
d="M764 1536h-119l148 240h182zM1044 1536h-118l147 240h182zM870 1448q148 0 283.5 -58t234 -156t156.5 -233.5t58 -283.5q0 -199 -98.5 -367.5t-267 -266t-366.5 -97.5t-366 97.5t-265.5 265.5t-97.5 368q0 148 57.5 283.5t155 233.5t233 156t283.5 58zM870 1298
q-157 0 -287 -75.5t-206 -209t-76 -296.5q0 -164 76 -298t206 -209t287 -75q117 0 222.5 44.5t182.5 121t122 185t45 231.5q0 163 -76.5 296.5t-207.5 209t-288 75.5z" />
    <glyph glyph-name="ohungarumlaut" unicode="&#x151;" horiz-adv-x="1312" 
d="M530 1151h-118l147 240h182zM811 1151h-119l148 240h182zM653 1038q143 0 264.5 -70.5t192 -191.5t70.5 -264t-70.5 -263.5t-192 -190.5t-264.5 -70t-263.5 70t-190.5 190.5t-70 263.5t70 264t190.5 191.5t263.5 70.5zM651 895q-155 0 -265 -110t-110 -273t110 -272
t265 -109q156 0 266.5 109t110.5 272q0 164 -110.5 273.5t-266.5 109.5z" />
    <glyph glyph-name="OE" unicode="&#x152;" horiz-adv-x="2463" 
d="M1602 799h702v-150h-702v-499h747v-150h-907v332q-78 -156 -232 -251t-340 -95q-198 0 -366 97.5t-265.5 265.5t-97.5 368q0 148 57.5 283.5t155 233.5t233 156t283.5 58q186 0 340 -95.5t232 -250.5v332h907v-150h-747v-485zM870 135q117 0 222.5 44.5t182.5 121
t122 185t45 231.5q0 163 -76.5 296.5t-207.5 209t-288 75.5t-287 -75.5t-206 -209t-76 -296.5q0 -164 76 -298t206 -209t287 -75z" />
    <glyph glyph-name="oe" unicode="&#x153;" horiz-adv-x="2158" 
d="M1550 1038q164 0 284 -80.5t177 -218.5q24 -58 28.5 -136.5t-9.5 -125.5h-848q0 -163 107 -257.5t278 -96.5q197 0 354 110l80 -90q-199 -155 -434 -155q-167 1 -289.5 76.5t-175.5 207.5q-58 -128 -179 -206t-270 -78q-143 0 -263.5 70t-190.5 190.5t-70 263.5t70 264
t190.5 191.5t263.5 70.5q149 0 270 -79t177 -207q54 129 173 207.5t277 78.5zM1550 901q-152 0 -253 -94t-109 -229h706q3 53 -22 116q-39 95 -123.5 151t-198.5 56zM651 895q-155 0 -265 -110t-110 -273t110 -272t265 -109q156 0 266.5 109t110.5 272q0 164 -110.5 273.5
t-266.5 109.5z" />
    <glyph glyph-name="Racute" unicode="&#x154;" horiz-adv-x="1419" 
d="M694 1536h-119l148 240h182zM231 1434h461q182 0 322 -62t218.5 -179.5t78.5 -274.5q0 -175 -98.5 -293.5t-268.5 -167.5q117 -49 238 -238l143 -219h-182l-117 182q-46 71 -82.5 112.5t-77 65.5t-80.5 32t-102 9h-293v-401h-160v1434zM391 1284v-733h314
q76 0 142.5 13.5t124 42.5t99 71t65 103.5t23.5 136.5q0 92 -35.5 163t-98.5 115t-144 66t-176 22h-314z" />
    <glyph glyph-name="racute" unicode="&#x155;" horiz-adv-x="876" 
d="M492 1151h-119l147 240h182zM803 895h-58q-107 0 -186.5 -34.5t-126.5 -97.5t-69.5 -144t-22.5 -181v-438h-150v1024h107l14 -276q58 143 178 216.5t287 73.5h27v-143z" />
    <glyph glyph-name="Rcommaaccent" unicode="&#x156;" horiz-adv-x="1419" 
d="M231 1434h461q182 0 322 -62t218.5 -179.5t78.5 -274.5q0 -175 -98.5 -293.5t-268.5 -167.5q117 -49 238 -238l143 -219h-182l-117 182q-46 71 -82.5 112.5t-77 65.5t-80.5 32t-102 9h-293v-401h-160v1434zM391 1284v-733h314q76 0 142.5 13.5t124 42.5t99 71t65 103.5
t23.5 136.5q0 92 -35.5 163t-98.5 115t-144 66t-176 22h-314zM627 -381h-119l147 240h183z" />
    <glyph glyph-name="rcommaaccent" unicode="&#x157;" horiz-adv-x="876" 
d="M803 895h-58q-107 0 -186.5 -34.5t-126.5 -97.5t-69.5 -144t-22.5 -181v-438h-150v1024h107l14 -276q58 143 178 216.5t287 73.5h27v-143zM412 -381h-119l147 240h183z" />
    <glyph glyph-name="Rcaron" unicode="&#x158;" horiz-adv-x="1419" 
d="M793 1536h-138l-217 246h129l158 -129l156 131h129zM231 1434h461q182 0 322 -62t218.5 -179.5t78.5 -274.5q0 -175 -98.5 -293.5t-268.5 -167.5q117 -49 238 -238l143 -219h-182l-117 182q-46 71 -82.5 112.5t-77 65.5t-80.5 32t-102 9h-293v-401h-160v1434zM391 1284
v-733h314q76 0 142.5 13.5t124 42.5t99 71t65 103.5t23.5 136.5q0 92 -35.5 163t-98.5 115t-144 66t-176 22h-314z" />
    <glyph glyph-name="rcaron" unicode="&#x159;" horiz-adv-x="876" 
d="M557 1151h-137l-217 248h129l157 -131l156 131h129zM803 895h-58q-107 0 -186.5 -34.5t-126.5 -97.5t-69.5 -144t-22.5 -181v-438h-150v1024h107l14 -276q58 143 178 216.5t287 73.5h27v-143z" />
    <glyph glyph-name="Sacute" unicode="&#x15a;" horiz-adv-x="1347" 
d="M664 1536h-119l147 240h182zM643 1448h23q152 0 289.5 -63.5t228.5 -176.5l-105 -94q-74 86 -186 135t-227 49h-23q-59 0 -116.5 -15.5t-107 -45t-80 -78.5t-30.5 -110q0 -92 74.5 -142t232.5 -71l156 -21q228 -29 344.5 -124.5t116.5 -282.5q0 -125 -72 -222
t-191.5 -148t-264.5 -52h-13q-207 0 -357 85t-220 226l104 96q52 -115 175 -186.5t298 -71.5h13q157 0 262.5 74.5t105.5 198.5q0 117 -79 177t-240 83l-156 18q-223 29 -335.5 115t-112.5 243q0 120 69 213t180.5 141.5t243.5 49.5z" />
    <glyph glyph-name="sacute" unicode="&#x15b;" horiz-adv-x="1124" 
d="M584 1151h-119l147 240h183zM549 1038h22q118 0 230 -52t172 -138l-86 -80q-49 67 -140 108.5t-174 41.5h-16q-107 0 -176.5 -44.5t-69.5 -119.5q0 -31 9 -53.5t32 -43t67.5 -34.5t110.5 -21l121 -12q56 -5 102 -15.5t92.5 -32t78 -53.5t51.5 -82.5t20 -115.5
q0 -137 -112 -220t-287 -85h-14q-147 0 -273 57.5t-180 149.5l86 81q43 -71 147 -118t218 -47h8q112 2 186 46.5t74 129.5q0 41 -13 72t-32 49t-50.5 30.5t-59.5 17.5t-68 9l-117 12q-346 35 -346 270q0 134 110.5 212.5t276.5 80.5z" />
    <glyph glyph-name="Scedilla" unicode="&#x15e;" horiz-adv-x="1347" 
d="M696 -14l-18 -74q63 20 113.5 -12t50.5 -107q0 -55 -37 -91t-94.5 -37t-128.5 38v55q58 -38 108.5 -25t50.5 62q0 47 -36 62.5t-105 -11.5l39 142q-186 10 -322.5 94t-201.5 215l104 96q52 -115 175 -186.5t298 -71.5h13q157 0 262.5 74.5t105.5 198.5q0 117 -79 177
t-240 83l-156 18q-223 29 -335.5 115t-112.5 243q0 120 69 213t180.5 141.5t243.5 49.5h23q152 0 289.5 -63.5t228.5 -176.5l-105 -94q-74 86 -186 135t-227 49h-23q-59 0 -116.5 -15.5t-107 -45t-80 -78.5t-30.5 -110q0 -92 74.5 -142t232.5 -71l156 -21
q228 -29 344.5 -124.5t116.5 -282.5q0 -125 -72 -222t-191.5 -148t-264.5 -52h-9z" />
    <glyph glyph-name="scedilla" unicode="&#x15f;" horiz-adv-x="1124" 
d="M594 -14l-19 -74q63 20 113.5 -12t50.5 -107q0 -55 -37 -91t-94.5 -37t-128.5 38v55q38 -25 75.5 -28t61 15.5t23.5 49.5q0 47 -36 62.5t-105 -11.5l39 142q-134 8 -246.5 64t-161.5 141l86 81q43 -71 147 -118t218 -47h8q112 2 186 46.5t74 129.5q0 41 -13 72t-32 49
t-50.5 30.5t-59.5 17.5t-68 9l-117 12q-346 35 -346 270q0 134 110.5 212.5t276.5 80.5h22q118 0 230 -52t172 -138l-86 -80q-49 67 -140 108.5t-174 41.5h-16q-107 0 -176.5 -44.5t-69.5 -119.5q0 -31 9 -53.5t32 -43t67.5 -34.5t110.5 -21l121 -12q56 -5 102 -15.5
t92.5 -32t78 -53.5t51.5 -82.5t20 -115.5q0 -137 -112.5 -220t-288.5 -85z" />
    <glyph glyph-name="Scaron" unicode="&#x160;" horiz-adv-x="1347" 
d="M727 1536h-137l-217 246h129l157 -129l156 131h129zM643 1448h23q152 0 289.5 -63.5t228.5 -176.5l-105 -94q-74 86 -186 135t-227 49h-23q-59 0 -116.5 -15.5t-107 -45t-80 -78.5t-30.5 -110q0 -92 74.5 -142t232.5 -71l156 -21q228 -29 344.5 -124.5t116.5 -282.5
q0 -125 -72 -222t-191.5 -148t-264.5 -52h-13q-207 0 -357 85t-220 226l104 96q52 -115 175 -186.5t298 -71.5h13q157 0 262.5 74.5t105.5 198.5q0 117 -79 177t-240 83l-156 18q-223 29 -335.5 115t-112.5 243q0 120 69 213t180.5 141.5t243.5 49.5z" />
    <glyph glyph-name="scaron" unicode="&#x161;" horiz-adv-x="1124" 
d="M629 1151h-137l-218 248h129l158 -131l156 131h129zM549 1038h22q118 0 230 -52t172 -138l-86 -80q-49 67 -140 108.5t-174 41.5h-16q-107 0 -176.5 -44.5t-69.5 -119.5q0 -31 9 -53.5t32 -43t67.5 -34.5t110.5 -21l121 -12q56 -5 102 -15.5t92.5 -32t78 -53.5
t51.5 -82.5t20 -115.5q0 -137 -112 -220t-287 -85h-14q-147 0 -273 57.5t-180 149.5l86 81q43 -71 147 -118t218 -47h8q112 2 186 46.5t74 129.5q0 41 -13 72t-32 49t-50.5 30.5t-59.5 17.5t-68 9l-117 12q-346 35 -346 270q0 134 110.5 212.5t276.5 80.5z" />
    <glyph glyph-name="Tcedilla" unicode="&#x162;" horiz-adv-x="1236" 
d="M639 0l-23 -88q63 20 113.5 -12t50.5 -107q0 -55 -37 -91t-94.5 -37t-128.5 38v55q38 -25 75.5 -28t61 15.5t23.5 49.5q0 47 -36 62.5t-105 -11.5l43 154h-43v1284h-445v150h1047v-150h-443v-1284h-59z" />
    <glyph glyph-name="tcedilla" unicode="&#x163;" horiz-adv-x="684" 
d="M367 0l-23 -88q63 20 113.5 -12t50.5 -107q0 -55 -37 -91t-94.5 -37t-128.5 38v55q38 -25 75.5 -28t61 15.5t23.5 49.5q0 47 -36.5 62.5t-105.5 -11.5l43 154h-30v883h-150v141h150v344h149v-344h150v-141h-150v-883h-61z" />
    <glyph glyph-name="Tcaron" unicode="&#x164;" horiz-adv-x="1236" 
d="M688 1536h-137l-217 246h129l158 -129l155 131h129zM698 1284v-1284h-159v1284h-445v150h1047v-150h-443z" />
    <glyph glyph-name="tcaron" unicode="&#x165;" horiz-adv-x="960" 
d="M641 1194h-119l148 240h182zM428 883v-883h-149v883h-150v141h150v344h149v-344h150v-141h-150z" />
    <glyph glyph-name="Tbar" unicode="&#x166;" horiz-adv-x="1236" 
d="M698 1284v-475h181v-113h-181v-696h-159v696h-181v113h181v475h-445v150h1047v-150h-443z" />
    <glyph glyph-name="tbar" unicode="&#x167;" horiz-adv-x="684" 
d="M428 883v-203h150v-143h-150v-537h-149v537h-150v143h150v203h-150v141h150v344h149v-344h150v-141h-150z" />
    <glyph glyph-name="Umacron" unicode="&#x16a;" horiz-adv-x="1609" 
d="M1075 1536h-520v113h520v-113zM1399 1434v-818q0 -289 -162 -459.5t-422 -170.5q-261 0 -422.5 170t-161.5 460v818h160v-813q0 -232 114 -359t310 -127t310 127t114 359v813h160z" />
    <glyph glyph-name="umacron" unicode="&#x16b;" horiz-adv-x="1327" 
d="M909 1151h-520v115h520v-115zM1147 0h-105l-10 233q-57 -124 -167.5 -185.5t-237.5 -61.5q-211 0 -329 129t-118 358v551h150v-543q0 -178 83.5 -265t233.5 -87q162 0 257 107t95 301v487h148v-1024z" />
    <glyph glyph-name="Uring" unicode="&#x16e;" horiz-adv-x="1609" 
d="M813 1876q70 0 120 -50.5t50 -119.5q0 -70 -49.5 -120t-120.5 -50q-70 0 -119 49.5t-49 120.5q0 70 49 120t119 50zM815 1794q-37 0 -60.5 -26.5t-23.5 -61.5q0 -36 23.5 -62t60.5 -26q36 0 61 26t25 62q0 35 -25 61.5t-61 26.5zM1399 1434v-818q0 -289 -162 -459.5
t-422 -170.5q-261 0 -422.5 170t-161.5 460v818h160v-813q0 -232 114 -359t310 -127t310 127t114 359v813h160z" />
    <glyph glyph-name="uring" unicode="&#x16f;" horiz-adv-x="1327" 
d="M645 1491q70 0 120 -50t50 -118q0 -71 -50 -121.5t-120 -50.5t-119 50.5t-49 121.5q0 68 49 118t119 50zM645 1409q-37 0 -60.5 -25.5t-23.5 -60.5q0 -38 23.5 -64t60.5 -26q36 0 61 26.5t25 63.5q0 34 -25 60t-61 26zM1147 0h-105l-10 233q-57 -124 -167.5 -185.5
t-237.5 -61.5q-211 0 -329 129t-118 358v551h150v-543q0 -178 83.5 -265t233.5 -87q162 0 257 107t95 301v487h148v-1024z" />
    <glyph glyph-name="Uhungarumlaut" unicode="&#x170;" horiz-adv-x="1609" 
d="M647 1536h-119l148 240h182zM928 1536h-119l147 240h183zM1399 1434v-818q0 -289 -162 -459.5t-422 -170.5q-261 0 -422.5 170t-161.5 460v818h160v-813q0 -232 114 -359t310 -127t310 127t114 359v813h160z" />
    <glyph glyph-name="uhungarumlaut" unicode="&#x171;" horiz-adv-x="1329" 
d="M500 1151h-119l147 240h183zM780 1151h-118l147 240h182zM1147 0h-105l-10 233q-57 -124 -167.5 -185.5t-237.5 -61.5q-211 0 -329 129t-118 358v551h150v-543q0 -178 83.5 -265t233.5 -87q162 0 257 107t95 301v487h148v-1024z" />
    <glyph glyph-name="Uogonek" unicode="&#x172;" horiz-adv-x="1609" 
d="M1399 1434v-818q0 -254 -127 -418.5t-340 -201.5q-131 -53 -131 -135q0 -49 35 -75t88 -26h18v-96h-12q-84 0 -143.5 41.5t-59.5 120.5q0 103 127 162l-39 -2q-261 0 -422.5 170t-161.5 460v818h160v-813q0 -232 114 -359t310 -127t310 127t114 359v813h160z" />
    <glyph glyph-name="uogonek" unicode="&#x173;" horiz-adv-x="1327" 
d="M1147 1024v-1024q-143 -53 -143 -139q0 -49 34.5 -75t87.5 -26h19v-96h-12q-84 0 -143.5 41.5t-59.5 120.5q0 115 160 174h-48l-10 233q-57 -124 -167.5 -185.5t-237.5 -61.5q-211 0 -329 129t-118 358v551h150v-543q0 -178 83.5 -265t233.5 -87q162 0 257 107t95 301
v487h148z" />
    <glyph glyph-name="Wcircumflex" unicode="&#x174;" horiz-adv-x="2412" 
d="M1362 1536l-156 131l-157 -131h-129l217 248h137l217 -248h-129zM1749 0h-90l-453 1108l-454 -1108h-88l-570 1434h176l437 -1135l454 1135h90l455 -1135l436 1135h174z" />
    <glyph glyph-name="wcircumflex" unicode="&#x175;" horiz-adv-x="1935" 
d="M1124 1151l-155 131l-158 -129h-129l217 246h137l217 -248h-129zM1407 0h-88l-352 778l-353 -778h-88l-452 1024h157l340 -795l353 795h86l352 -793l342 793h156z" />
    <glyph glyph-name="Ycircumflex" unicode="&#x176;" horiz-adv-x="1441" 
d="M877 1536l-156 131l-158 -131h-129l217 248h137l218 -248h-129zM799 0h-160v492l-545 942h182l445 -750l442 750h183l-547 -942v-492z" />
    <glyph glyph-name="ycircumflex" unicode="&#x177;" horiz-adv-x="1337" 
d="M725 1399l217 -248h-129l-156 131l-157 -129h-129l217 246h137zM340 1024v-528q0 -178 83.5 -264.5t233.5 -86.5q162 0 257.5 107t95.5 299v473h149v-895q0 -237 -130 -378t-367 -142q-251 0 -441 155l86 95q168 -115 355 -115q168 0 257 92.5t89 263.5v121
q-36 -76 -100.5 -127t-132 -71.5t-138.5 -20.5q-211 0 -329 128.5t-118 358.5v535h150z" />
    <glyph glyph-name="Ydieresis" unicode="&#x178;" horiz-adv-x="1441" 
d="M508 1536q-38 0 -65 24.5t-27 59.5t27 59.5t65 24.5t65 -24.5t27 -59.5t-27 -59.5t-65 -24.5zM934 1536q-38 0 -65 24.5t-27 59.5t27 59.5t65 24.5t65 -24.5t27 -59.5t-27 -59.5t-65 -24.5zM799 0h-160v492l-545 942h182l445 -750l442 750h183l-547 -942v-492z" />
    <glyph glyph-name="Zacute" unicode="&#x179;" horiz-adv-x="1286" 
d="M639 1536h-119l148 240h182zM1171 0h-1056v86l813 1198h-746v150h973v-88l-813 -1196h829v-150z" />
    <glyph glyph-name="zacute" unicode="&#x17a;" horiz-adv-x="1144" 
d="M561 1151h-119l148 240h182zM1016 0h-887v102l645 781h-590v141h809l-2 -102l-643 -781h668v-141z" />
    <glyph glyph-name="Zdotaccent" unicode="&#x17b;" horiz-adv-x="1286" 
d="M637 1536q-38 0 -65 24.5t-27 59.5t27 59.5t65 24.5t65 -24.5t27 -59.5t-27 -59.5t-65 -24.5zM1171 0h-1056v86l813 1198h-746v150h973v-88l-813 -1196h829v-150z" />
    <glyph glyph-name="zdotaccent" unicode="&#x17c;" horiz-adv-x="1144" 
d="M559 1151q-38 0 -65 24.5t-27 59.5t27 59.5t65 24.5t65 -24.5t27 -59.5t-27 -59.5t-65 -24.5zM1016 0h-887v102l645 781h-590v141h809l-2 -102l-643 -781h668v-141z" />
    <glyph glyph-name="Zcaron" unicode="&#x17d;" horiz-adv-x="1286" 
d="M717 1536h-137l-218 246h130l157 -129l156 131h129zM1171 0h-1056v86l813 1198h-746v150h973v-88l-813 -1196h829v-150z" />
    <glyph glyph-name="zcaron" unicode="&#x17e;" horiz-adv-x="1144" 
d="M645 1151h-137l-217 248h129l158 -131l155 131h129zM991 922l-643 -781h668v-141h-887v102l645 781h-590v141h809z" />
    <glyph glyph-name="Acaron" unicode="&#x1cd;" horiz-adv-x="1464" 
d="M801 1536h-137l-218 246h129l158 -129l156 131h129zM1370 0h-176l-156 381h-612l-156 -381h-176l594 1434h90zM483 530h500l-250 609z" />
    <glyph glyph-name="acaron" unicode="&#x1ce;" 
d="M721 1151h-137l-217 248h129l157 -131l156 131h129zM1169 0h-106l-6 231q-59 -111 -170.5 -177t-245.5 -66q-143 0 -261 70t-184.5 190t-66.5 264t66.5 264.5t184.5 191t261 70.5q134 0 245 -66.5t171 -176.5l6 229h106v-1024zM651 131q156 0 266.5 109t110.5 272
q0 164 -110.5 273.5t-266.5 109.5q-155 0 -265 -110t-110 -273t110 -272t265 -109z" />
    <glyph glyph-name="Icaron" unicode="&#x1cf;" horiz-adv-x="1056" 
d="M598 1536h-137l-217 246h129l157 -129l156 131h129zM776 1284h-168v-1134h168v-150h-495v150h168v1134h-168v150h495v-150z" />
    <glyph glyph-name="icaron" unicode="&#x1d0;" horiz-adv-x="962" 
d="M555 1151h-137l-217 248h129l157 -131l156 131h129zM561 0h-149v1024h149v-1024z" />
    <glyph glyph-name="Ocaron" unicode="&#x1d1;" horiz-adv-x="1742" 
d="M940 1536h-137l-217 246h129l157 -131l156 131h129zM870 1448q148 0 283.5 -58t234 -156t156.5 -233.5t58 -283.5q0 -199 -98.5 -367.5t-267 -266t-366.5 -97.5t-366 97.5t-265.5 265.5t-97.5 368q0 148 57.5 283.5t155 233.5t233 156t283.5 58zM870 1298
q-157 0 -287 -75.5t-206 -209t-76 -296.5q0 -164 76 -298t206 -209t287 -75q117 0 222.5 44.5t182.5 121t122 185t45 231.5q0 163 -76.5 296.5t-207.5 209t-288 75.5z" />
    <glyph glyph-name="ocaron" unicode="&#x1d2;" horiz-adv-x="1306" 
d="M721 1151h-137l-217 248h129l157 -131l156 131h129zM653 1038q143 0 264.5 -70.5t192 -191.5t70.5 -264t-70.5 -263.5t-192 -190.5t-264.5 -70t-263.5 70t-190.5 190.5t-70 263.5t70 264t190.5 191.5t263.5 70.5zM651 895q-155 0 -265 -110t-110 -273t110 -272t265 -109
q156 0 266.5 109t110.5 272q0 164 -110.5 273.5t-266.5 109.5z" />
    <glyph glyph-name="Ucaron" unicode="&#x1d3;" horiz-adv-x="1609" 
d="M883 1536h-138l-217 246h129l158 -129l156 131h129zM1399 1434v-818q0 -289 -162 -459.5t-422 -170.5q-261 0 -422.5 170t-161.5 460v818h160v-813q0 -232 114 -359t310 -127t310 127t114 359v813h160z" />
    <glyph glyph-name="ucaron" unicode="&#x1d4;" horiz-adv-x="1327" 
d="M715 1151h-137l-218 248h129l158 -131l156 131h129zM1147 0h-105l-10 233q-57 -124 -167.5 -185.5t-237.5 -61.5q-211 0 -329 129t-118 358v551h150v-543q0 -178 83.5 -265t233.5 -87q162 0 257 107t95 301v487h148v-1024z" />
    <glyph glyph-name="Udieresismacron" unicode="&#x1d5;" horiz-adv-x="1609" 
d="M1075 1772h-520v112h520v-112zM604 1536q-38 0 -65 24.5t-27 59.5t27 59.5t65 24.5t65 -24.5t27 -59.5t-27 -59.5t-65 -24.5zM1030 1536q-38 0 -65 24.5t-27 59.5t27 59.5t65 24.5t65 -24.5t27 -59.5t-27 -59.5t-65 -24.5zM1399 1434v-818q0 -289 -162 -459.5
t-422 -170.5q-261 0 -422.5 170t-161.5 460v818h160v-813q0 -232 114 -359t310 -127t310 127t114 359v813h160z" />
    <glyph glyph-name="udieresismacron" unicode="&#x1d6;" horiz-adv-x="1327" 
d="M922 1378h-521v113h521v-113zM444 1319q38 0 65.5 -24.5t27.5 -59.5t-27.5 -59.5t-65.5 -24.5t-65 24.5t-27 59.5t27 59.5t65 24.5zM870 1319q38 0 65.5 -24.5t27.5 -59.5t-27.5 -59.5t-65.5 -24.5t-65 24.5t-27 59.5t27 59.5t65 24.5zM1147 0h-105l-10 233
q-57 -124 -167.5 -185.5t-237.5 -61.5q-211 0 -329 129t-118 358v551h150v-543q0 -178 83.5 -265t233.5 -87q162 0 257 107t95 301v487h148v-1024z" />
    <glyph glyph-name="Udieresisacute" unicode="&#x1d7;" horiz-adv-x="1609" 
d="M823 1772h-118l147 239h182zM604 1536q-38 0 -65 24.5t-27 59.5t27 59.5t65 24.5t65 -24.5t27 -59.5t-27 -59.5t-65 -24.5zM1030 1536q-38 0 -65 24.5t-27 59.5t27 59.5t65 24.5t65 -24.5t27 -59.5t-27 -59.5t-65 -24.5zM1399 1434v-818q0 -289 -162 -459.5t-422 -170.5
q-261 0 -422.5 170t-161.5 460v818h160v-813q0 -232 114 -359t310 -127t310 127t114 359v813h160z" />
    <glyph glyph-name="udieresisacute" unicode="&#x1d8;" horiz-adv-x="1327" 
d="M678 1378h-119l148 240h182zM444 1319q38 0 65.5 -24.5t27.5 -59.5t-27.5 -59.5t-65.5 -24.5t-65 24.5t-27 59.5t27 59.5t65 24.5zM870 1319q38 0 65.5 -24.5t27.5 -59.5t-27.5 -59.5t-65.5 -24.5t-65 24.5t-27 59.5t27 59.5t65 24.5zM1147 0h-105l-10 233
q-57 -124 -167.5 -185.5t-237.5 -61.5q-211 0 -329 129t-118 358v551h150v-543q0 -178 83.5 -265t233.5 -87q162 0 257 107t95 301v487h148v-1024z" />
    <glyph glyph-name="Udieresiscaron" unicode="&#x1d9;" horiz-adv-x="1609" 
d="M815 1886l156 131h129l-217 -245h-138l-217 247h129zM604 1704q38 0 65 -24.5t27 -59.5t-27 -59.5t-65 -24.5t-65 24.5t-27 59.5t27 59.5t65 24.5zM1030 1704q38 0 65 -24.5t27 -59.5t-27 -59.5t-65 -24.5t-65 24.5t-27 59.5t27 59.5t65 24.5zM1399 1434v-818
q0 -289 -162 -459.5t-422 -170.5q-261 0 -422.5 170t-161.5 460v818h160v-813q0 -232 114 -359t310 -127t310 127t114 359v813h160z" />
    <glyph glyph-name="udieresiscaron" unicode="&#x1da;" horiz-adv-x="1327" 
d="M715 1378h-137l-218 246h129l158 -131l156 131h129zM444 1319q38 0 65.5 -24.5t27.5 -59.5t-27.5 -59.5t-65.5 -24.5t-65 24.5t-27 59.5t27 59.5t65 24.5zM870 1319q38 0 65.5 -24.5t27.5 -59.5t-27.5 -59.5t-65.5 -24.5t-65 24.5t-27 59.5t27 59.5t65 24.5zM1147 0h-105
l-10 233q-57 -124 -167.5 -185.5t-237.5 -61.5q-211 0 -329 129t-118 358v551h150v-543q0 -178 83.5 -265t233.5 -87q162 0 257 107t95 301v487h148v-1024z" />
    <glyph glyph-name="Udieresisgrave" unicode="&#x1db;" horiz-adv-x="1609" 
d="M774 2011l150 -239h-121l-209 239h180zM604 1536q-38 0 -65 24.5t-27 59.5t27 59.5t65 24.5t65 -24.5t27 -59.5t-27 -59.5t-65 -24.5zM1030 1536q-38 0 -65 24.5t-27 59.5t27 59.5t65 24.5t65 -24.5t27 -59.5t-27 -59.5t-65 -24.5zM1399 1434v-818q0 -289 -162 -459.5
t-422 -170.5q-261 0 -422.5 170t-161.5 460v818h160v-813q0 -232 114 -359t310 -127t310 127t114 359v813h160z" />
    <glyph glyph-name="udieresisgrave" unicode="&#x1dc;" horiz-adv-x="1327" 
d="M748 1378h-121l-209 240h180zM444 1319q38 0 65.5 -24.5t27.5 -59.5t-27.5 -59.5t-65.5 -24.5t-65 24.5t-27 59.5t27 59.5t65 24.5zM870 1319q38 0 65.5 -24.5t27.5 -59.5t-27.5 -59.5t-65.5 -24.5t-65 24.5t-27 59.5t27 59.5t65 24.5zM1147 0h-105l-10 233
q-57 -124 -167.5 -185.5t-237.5 -61.5q-211 0 -329 129t-118 358v551h150v-543q0 -178 83.5 -265t233.5 -87q162 0 257 107t95 301v487h148v-1024z" />
    <glyph glyph-name="Scommaaccent" unicode="&#x218;" horiz-adv-x="1347" 
d="M643 1448h23q152 0 289.5 -63.5t228.5 -176.5l-105 -94q-74 86 -186 135t-227 49h-23q-59 0 -116.5 -15.5t-107 -45t-80 -78.5t-30.5 -110q0 -92 74.5 -142t232.5 -71l156 -21q228 -29 344.5 -124.5t116.5 -282.5q0 -125 -72 -222t-191.5 -148t-264.5 -52h-13
q-207 0 -357 85t-220 226l104 96q52 -115 175 -186.5t298 -71.5h13q157 0 262.5 74.5t105.5 198.5q0 117 -79 177t-240 83l-156 18q-223 29 -335.5 115t-112.5 243q0 120 69 213t180.5 141.5t243.5 49.5zM614 -381h-118l147 240h182z" />
    <glyph glyph-name="scommaaccent" unicode="&#x219;" horiz-adv-x="1124" 
d="M549 1038h22q118 0 230 -52t172 -138l-86 -80q-49 67 -140 108.5t-174 41.5h-16q-107 0 -176.5 -44.5t-69.5 -119.5q0 -31 9 -53.5t32 -43t67.5 -34.5t110.5 -21l121 -12q56 -5 102 -15.5t92.5 -32t78 -53.5t51.5 -82.5t20 -115.5q0 -137 -112 -220t-287 -85h-14
q-147 0 -273 57.5t-180 149.5l86 81q43 -71 147 -118t218 -47h8q112 2 186 46.5t74 129.5q0 41 -13 72t-32 49t-50.5 30.5t-59.5 17.5t-68 9l-117 12q-346 35 -346 270q0 134 110.5 212.5t276.5 80.5zM489 -381h-118l147 240h182z" />
    <glyph glyph-name="uni021A" unicode="&#x21a;" horiz-adv-x="1236" 
d="M698 1284v-1284h-159v1284h-445v150h1047v-150h-443zM557 -381h-119l148 240h182z" />
    <glyph glyph-name="uni021B" unicode="&#x21b;" horiz-adv-x="686" 
d="M428 883v-883h-149v883h-150v141h150v344h149v-344h150v-141h-150zM274 -381h-118l147 240h182z" />
    <glyph glyph-name="circumflex" unicode="&#x2c6;" horiz-adv-x="829" 
d="M571 1225l-155 131l-158 -131h-129l217 245h137l217 -245h-129z" />
    <glyph glyph-name="caron" unicode="&#x2c7;" horiz-adv-x="829" 
d="M483 1223h-137l-217 245h129l158 -129l155 131h129z" />
    <glyph glyph-name="breve" unicode="&#x2d8;" horiz-adv-x="843" 
d="M608 1470h107q0 -113 -84.5 -189.5t-208.5 -76.5t-208.5 76.5t-84.5 189.5h109q0 -67 53 -112t131 -45t132 45t54 112z" />
    <glyph glyph-name="dotaccent" unicode="&#x2d9;" horiz-adv-x="440" 
d="M221 1313q-38 0 -65 24.5t-27 59.5t27 59.5t65 24.5t65 -24.5t27 -59.5t-27 -59.5t-65 -24.5z" />
    <glyph glyph-name="ring" unicode="&#x2da;" horiz-adv-x="595" 
d="M297 1481q70 0 120 -50t50 -118q0 -72 -49.5 -122t-120.5 -50q-70 0 -119 50t-49 122q0 68 49 118t119 50zM297 1399q-37 0 -60.5 -26.5t-23.5 -61.5q0 -36 23.5 -62t60.5 -26q36 0 61 26t25 62q0 35 -25 61.5t-61 26.5z" />
    <glyph glyph-name="ogonek" unicode="&#x2db;" horiz-adv-x="475" 
d="M289 0h57q-143 -53 -143 -139q0 -49 35 -75t88 -26h18v-96h-12q-84 0 -143.5 41.5t-59.5 120.5q0 115 160 174z" />
    <glyph glyph-name="tilde" unicode="&#x2dc;" horiz-adv-x="856" 
d="M727 1434l-39 -105q-37 -115 -129 -121q-55 -3 -106 41l-80 74q-40 32 -76 29q-29 -1 -46 -19.5t-28 -56.5l-14 -47h-80l39 104q38 116 127 119q57 5 108 -39l80 -74q39 -30 72 -28q30 0 48 18t30 57l16 48h78z" />
    <glyph glyph-name="hungarumlaut" unicode="&#x2dd;" horiz-adv-x="868" 
d="M248 1231h-119l147 239h183zM528 1231h-118l147 239h182z" />
    <glyph glyph-name="commaaccentcomb" unicode="&#x326;" horiz-adv-x="0" 
d="M248 -512h-119l147 240h183z" />
    <glyph glyph-name="uni0401" unicode="&#x401;" horiz-adv-x="1253" 
d="M463 1536q-38 0 -65 24.5t-27 59.5t27 59.5t65 24.5t65 -24.5t27 -59.5t-27 -59.5t-65 -24.5zM889 1536q-38 0 -65 24.5t-27 59.5t27 59.5t65 24.5t65 -24.5t27 -59.5t-27 -59.5t-65 -24.5zM391 799h703v-150h-703v-499h748v-150h-908v1434h908v-150h-748v-485z" />
    <glyph glyph-name="uni0410" unicode="&#x410;" horiz-adv-x="1464" 
d="M426 381l-156 -381h-176l594 1434h90l592 -1434h-176l-156 381h-612zM733 1139l-250 -609h500z" />
    <glyph glyph-name="uni0411" unicode="&#x411;" horiz-adv-x="1425" 
d="M391 866h440q236 0 358 -115t122 -319q0 -206 -117.5 -319t-362.5 -113h-600v1434h910v-150h-750v-418zM391 150h443q174 0 248.5 70.5t74.5 211.5q0 285 -323 285h-443v-567z" />
    <glyph glyph-name="uni0412" unicode="&#x412;" horiz-adv-x="1417" 
d="M231 1434h521q116 0 203 -23t138 -58.5t82 -86.5t41.5 -98.5t10.5 -102.5q0 -242 -217 -313q139 -26 216 -121.5t77 -233.5q0 -89 -26.5 -159t-83.5 -124.5t-156 -84t-234 -29.5h-572v1434zM391 1284v-473h375q309 0 309 236q0 50 -11.5 88t-42.5 74t-95.5 55.5
t-159.5 19.5h-375zM391 674v-524h440q320 0 320 262q0 121 -80 191.5t-240 70.5h-440z" />
    <glyph glyph-name="uni0413" unicode="&#x413;" horiz-adv-x="1220" 
d="M391 1284v-1284h-160v1434h893v-150h-733z" />
    <glyph glyph-name="uni0414" unicode="&#x414;" horiz-adv-x="1662" 
d="M1593 -264h-159v264h-1205v-264h-159v414h186l532 1284h91l530 -1284h184v-414zM831 1135l-405 -985h811z" />
    <glyph glyph-name="uni0415" unicode="&#x415;" horiz-adv-x="1263" 
d="M391 799h703v-150h-703v-499h748v-150h-908v1434h908v-150h-748v-485z" />
    <glyph glyph-name="uni0416" unicode="&#x416;" horiz-adv-x="2185" 
d="M1907 0l-291 455q-34 52 -52 77.5t-44 54t-49.5 39.5t-56.5 19t-77 8h-166v-653h-159v653h-166q-54 0 -90 -9t-69 -37.5t-55 -57.5t-65 -94l-291 -455h-182l330 510q71 111 115.5 159t99.5 66q-44 21 -85.5 67.5t-107.5 145.5l-315 486h182l277 -430q35 -53 53 -78.5
t44 -54t49 -40t55.5 -19t76.5 -7.5h144v629h159v-629h144q44 0 77 7.5t56.5 19t49 40t43.5 54t52 78.5l277 430h182l-313 -486q-68 -99 -109.5 -145.5t-83.5 -67.5q54 -18 98 -65t117 -160l328 -510h-182z" />
    <glyph glyph-name="uni0417" unicode="&#x417;" horiz-adv-x="1300" 
d="M479 817h195q309 0 309 236q0 112 -76 178.5t-233 66.5h-12q-119 0 -232.5 -49t-187.5 -135l-105 96q91 111 228 174.5t290 63.5h15q102 -1 183.5 -23.5t133.5 -59.5t86 -87t48 -101t14 -106q0 -118 -57.5 -205t-170.5 -123q132 -29 204.5 -122.5t72.5 -229.5
q0 -184 -132.5 -294t-385.5 -111h-13q-187 0 -333 80.5t-226 218.5l105 96q63 -115 185 -180.5t275 -65.5h11q169 0 265.5 70t96.5 203q0 120 -79.5 190t-239.5 70h-234v149z" />
    <glyph glyph-name="uni0418" unicode="&#x418;" horiz-adv-x="1507" 
d="M1296 0h-159v1120l-836 -1120h-90v1434h160v-1121l837 1121h88v-1434z" />
    <glyph glyph-name="uni0419" unicode="&#x419;" horiz-adv-x="1507" 
d="M754 1536q-124 0 -208.5 75.5t-84.5 190.5h108q0 -67 53.5 -113.5t131.5 -46.5t132 46.5t54 113.5h107q0 -115 -84.5 -190.5t-208.5 -75.5zM1296 0h-159v1120l-836 -1120h-90v1434h160v-1121l837 1121h88v-1434z" />
    <glyph glyph-name="uni041A" unicode="&#x41a;" horiz-adv-x="1470" 
d="M1194 0l-291 455q-35 53 -52.5 77.5t-44 53.5t-49.5 40t-55.5 19t-76.5 8h-234v-653h-160v1434h160v-629h211q37 0 64.5 3.5t52.5 16t41.5 24t39 39.5t37.5 49.5t44 66.5l276 430h182l-315 -486q-66 -99 -107.5 -145.5t-85.5 -67.5q55 -18 100.5 -66.5t115.5 -158.5
l329 -510h-182z" />
    <glyph glyph-name="uni041B" unicode="&#x41b;" horiz-adv-x="1464" 
d="M731 1135l-461 -1135h-176l594 1434h90l592 -1434h-176z" />
    <glyph glyph-name="uni041C" unicode="&#x41c;" horiz-adv-x="1828" 
d="M1599 0h-159v1126l-535 -680l-534 680v-1126h-160v1434h90l604 -770l604 770h90v-1434z" />
    <glyph glyph-name="uni041D" unicode="&#x41d;" horiz-adv-x="1503" 
d="M1294 0h-159v651h-764v-651h-160v1434h160v-633h764v633h159v-1434z" />
    <glyph glyph-name="uni041E" unicode="&#x41e;" horiz-adv-x="1742" 
d="M870 1448q148 0 283.5 -58t234 -156t156.5 -233.5t58 -283.5q0 -199 -98.5 -367.5t-267 -266t-366.5 -97.5t-366 97.5t-265.5 265.5t-97.5 368q0 148 57.5 283.5t155 233.5t233 156t283.5 58zM870 1298q-157 0 -287 -75.5t-206 -209t-76 -296.5q0 -164 76 -298t206 -209
t287 -75q117 0 222.5 44.5t182.5 121t122 185t45 231.5q0 163 -76.5 296.5t-207.5 209t-288 75.5z" />
    <glyph glyph-name="uni041F" unicode="&#x41f;" horiz-adv-x="1497" 
d="M1286 0h-160v1284h-755v-1284h-160v1434h1075v-1434z" />
    <glyph glyph-name="uni0420" unicode="&#x420;" horiz-adv-x="1452" 
d="M231 1434h453q279 0 453 -142t174 -385q0 -244 -174 -385t-453 -141h-293v-381h-160v1434zM391 530h303q96 0 178 22t147 66t102.5 118t37.5 171q0 95 -37.5 169t-102.5 118.5t-147.5 67t-177.5 22.5h-303v-754z" />
    <glyph glyph-name="uni0421" unicode="&#x421;" horiz-adv-x="1527" 
d="M870 1448q158 0 298.5 -63.5t242.5 -176.5l-104 -94q-85 88 -197.5 136t-239.5 48q-157 0 -287 -75.5t-206 -209t-76 -296.5q0 -164 76 -298t206 -209t287 -75q128 0 240.5 48t196.5 136l104 -98q-102 -111 -242 -173t-299 -62q-198 0 -366 97.5t-265.5 265.5t-97.5 368
q0 148 57.5 283.5t155 233.5t233 156t283.5 58z" />
    <glyph glyph-name="uni0422" unicode="&#x422;" horiz-adv-x="1236" 
d="M698 1284v-1284h-159v1284h-445v150h1047v-150h-443z" />
    <glyph glyph-name="uni0423" unicode="&#x423;" horiz-adv-x="1468" 
d="M518 0h-180l305 512l-549 922h182l459 -758l457 758h182z" />
    <glyph glyph-name="uni0424" unicode="&#x424;" horiz-adv-x="2514" 
d="M1790 1405q124 0 233.5 -47t186 -127t120.5 -190t44 -232q0 -164 -75 -300.5t-209 -216t-300 -79.5q-147 0 -269 74.5t-184 197.5v-485h-159v485q-62 -123 -184 -197.5t-269 -74.5q-167 0 -301 79.5t-208.5 215.5t-74.5 301q0 164 74.5 300t209 216t300.5 80
q147 0 268.5 -75t184.5 -197v301h159v-301q63 122 184.5 197t268.5 75zM737 365q184 0 311.5 127.5t127.5 316.5t-127.5 316.5t-311.5 127.5t-310 -127t-126 -317t126 -317t310 -127zM1778 365q184 0 310 127t126 317t-126 317t-310 127q-185 0 -312 -127t-127 -317
t127 -317t312 -127z" />
    <glyph glyph-name="uni0425" unicode="&#x425;" horiz-adv-x="1409" 
d="M702 596l-423 -596h-185l518 739l-491 695h184l402 -557l395 557h186l-493 -703l518 -731h-185z" />
    <glyph glyph-name="uni0426" unicode="&#x426;" horiz-adv-x="1579" 
d="M1485 -264h-160v264h-1114v1434h160v-1284h759v1284h160v-1284h195v-414z" />
    <glyph glyph-name="uni0427" unicode="&#x427;" horiz-adv-x="1439" 
d="M1208 0h-159v592q-52 -122 -162 -185t-246 -63q-88 0 -164.5 19t-143.5 63t-115 110.5t-75.5 166t-27.5 225.5v506h159v-512q0 -117 29.5 -202t84 -133.5t122.5 -70.5t154 -22q74 0 140.5 24.5t122.5 74t89 135.5t33 198v508h159v-1434z" />
    <glyph glyph-name="uni0428" unicode="&#x428;" horiz-adv-x="2150" 
d="M1933 0h-1722v1434h160v-1284h620v1284h160v-1284h623v1284h159v-1434z" />
    <glyph glyph-name="uni0429" unicode="&#x429;" horiz-adv-x="2265" 
d="M2126 -264h-160v264h-1755v1434h160v-1284h620v1284h160v-1284h623v1284h159v-1284h193v-414z" />
    <glyph glyph-name="uni042A" unicode="&#x42a;" horiz-adv-x="1462" 
d="M449 866h432q236 0 357.5 -115t121.5 -319q0 -206 -117 -319t-362 -113h-592v1284h-195v150h355v-568zM449 150h434q175 0 250 70.5t75 211.5q0 285 -325 285h-434v-567z" />
    <glyph glyph-name="uni042B" unicode="&#x42b;" horiz-adv-x="1880" 
d="M383 866h432q236 0 357.5 -115t121.5 -319q0 -206 -117 -319t-362 -113h-592v1434h160v-568zM1651 0h-160v1434h160v-1434zM383 150h434q175 0 250.5 70.5t75.5 211.5q0 285 -326 285h-434v-567z" />
    <glyph glyph-name="uni042C" unicode="&#x42c;" horiz-adv-x="1396" 
d="M383 866h432q236 0 357.5 -115t121.5 -319q0 -206 -117 -319t-362 -113h-592v1434h160v-568zM383 150h434q175 0 250.5 70.5t75.5 211.5q0 285 -326 285h-434v-567z" />
    <glyph glyph-name="uni042D" unicode="&#x42d;" horiz-adv-x="1527" 
d="M655 1448q148 0 283.5 -58t233 -156t155 -233.5t57.5 -283.5q0 -200 -97.5 -368t-265.5 -265.5t-366 -97.5q-159 0 -298.5 62t-241.5 173l104 98q84 -89 196 -136.5t240 -47.5q220 0 378.5 145t178.5 363h-665v150h665q-13 143 -90 258.5t-200 181t-267 65.5
q-127 0 -239 -48t-197 -136l-104 94q102 113 242 176.5t298 63.5z" />
    <glyph glyph-name="uni042E" unicode="&#x42e;" horiz-adv-x="2234" 
d="M1362 1448q148 0 283.5 -58t233.5 -156t156 -233.5t58 -283.5q0 -200 -98 -368t-266.5 -265.5t-366.5 -97.5q-186 0 -346 86.5t-260 237t-117 333.5h-256v-643h-160v1434h160v-641h256q14 136 76 257t157 208.5t222.5 138.5t267.5 51zM1362 135q157 0 287.5 75t207 209
t76.5 298q0 163 -76.5 296.5t-207 209t-287.5 75.5t-287 -75.5t-206 -209t-76 -296.5q0 -164 76 -298t206 -209t287 -75z" />
    <glyph glyph-name="uni042F" unicode="&#x42f;" horiz-adv-x="1419" 
d="M1188 0h-160v401h-295q-81 -1 -131 -17t-99 -62.5t-110 -139.5l-119 -182h-180l144 219q121 189 235 238q-168 49 -266 167.5t-98 293.5q0 237 170.5 376.5t447.5 139.5h461v-1434zM1028 1284h-313q-95 0 -176 -22t-144 -66t-99 -115t-36 -163q0 -93 36 -165t99 -115
t144 -65t176 -22h313v733z" />
    <glyph glyph-name="uni0430" unicode="&#x430;" 
d="M1169 0h-106l-6 231q-59 -111 -170.5 -177t-245.5 -66q-143 0 -261 70t-184.5 190t-66.5 264t66.5 264.5t184.5 191t261 70.5q134 0 245 -66.5t171 -176.5l6 229h106v-1024zM651 131q156 0 266.5 109t110.5 272q0 164 -110.5 273.5t-266.5 109.5q-155 0 -265 -110
t-110 -273t110 -272t265 -109z" />
    <glyph glyph-name="uni0431" unicode="&#x431;" horiz-adv-x="1306" 
d="M967 1434h147q0 -120 -81.5 -174t-268.5 -54h-41q-213 0 -328.5 -90.5t-115.5 -275.5v-70q52 110 160 177t239 67q107 0 201 -39t159.5 -106t103.5 -159.5t38 -197.5q0 -108 -39 -205t-107.5 -168.5t-167.5 -113t-213 -41.5q-225 0 -374.5 152t-149.5 386v273
q0 264 158 401t446 137q136 0 185 21.5t49 79.5zM653 877q-156 0 -266.5 -108t-110.5 -267q0 -160 108.5 -267.5t268.5 -107.5q157 0 266 108t109 267t-110.5 267t-264.5 108z" />
    <glyph glyph-name="uni0432" unicode="&#x432;" horiz-adv-x="1236" 
d="M190 1024h537q167 0 248.5 -71.5t81.5 -192.5q0 -171 -152 -223q99 -24 149 -88.5t50 -157.5q0 -145 -90 -218t-283 -73h-541v1024zM338 897v-309h381q186 0 186 153q0 71 -44.5 113.5t-143.5 42.5h-379zM338 127h395q219 0 219 174q0 172 -219 172l-395 2v-348z" />
    <glyph glyph-name="uni0433" unicode="&#x433;" horiz-adv-x="1046" 
d="M340 883v-883h-150v1024h789v-141h-639z" />
    <glyph glyph-name="uni0434" unicode="&#x434;" horiz-adv-x="1329" 
d="M1253 -227h-147v227h-883v-227h-149v368h139l405 883h91l405 -883h139v-368zM664 795l-297 -654h596z" />
    <glyph glyph-name="uni0435" unicode="&#x435;" horiz-adv-x="1273" 
d="M649 1038q165 0 284.5 -80t176.5 -219q24 -59 29 -136.5t-11 -125.5h-847q0 -163 107 -257.5t278 -96.5q197 0 354 110l80 -90q-199 -155 -434 -155q-238 2 -387.5 147.5t-149.5 376.5q0 145 64 264.5t183.5 190.5t272.5 71zM649 901q-152 0 -253 -94t-109 -229h706
q3 53 -22 116q-39 95 -123.5 151t-198.5 56z" />
    <glyph glyph-name="uni0436" unicode="&#x436;" horiz-adv-x="1783" 
d="M1542 0l-168 258q-34 53 -52 78.5t-43.5 54t-49 40t-56.5 19t-77 7.5h-131v-457h-148v457h-131q-44 0 -77 -7.5t-56.5 -19t-49 -40t-43.5 -54t-52 -78.5l-166 -258h-168l211 324q64 97 108 144.5t99 63.5q-45 20 -84.5 65.5t-100.5 135.5l-192 291h168l147 -225
q41 -65 63.5 -95t55 -58t69 -37t91.5 -9h108v424h148v-424h108q55 0 91.5 9t69 37t55 58t63.5 95l147 225h168l-192 -291q-60 -89 -100 -135t-83 -66q54 -16 97.5 -63.5t107.5 -144.5l211 -324h-166z" />
    <glyph glyph-name="uni0437" unicode="&#x437;" horiz-adv-x="1148" 
d="M809 537q101 -24 151 -88t50 -158q0 -148 -114.5 -226.5t-299.5 -78.5h-35q-145 0 -269.5 60.5t-172.5 143.5l84 91q48 -70 145.5 -115t210.5 -45h33q120 0 194 47.5t74 140.5q0 169 -219 172l-180 2v97h166q98 0 142 42.5t44 112.5q0 80 -66 124t-167 44h-25
q-94 0 -178.5 -38t-140.5 -103l-82 88q65 82 177 135t234 53h27q157 0 264 -74t107 -200q0 -173 -154 -227z" />
    <glyph glyph-name="uni0438" unicode="&#x438;" horiz-adv-x="1300" 
d="M1110 0h-147v774l-682 -774h-91v1024h150v-774l682 774h88v-1024z" />
    <glyph glyph-name="uni0439" unicode="&#x439;" horiz-adv-x="1300" 
d="M649 1143q-124 0 -208.5 76.5t-84.5 189.5h109q0 -67 53 -112.5t131 -45.5t132.5 45.5t54.5 112.5h106q0 -113 -84.5 -189.5t-208.5 -76.5zM1110 0h-147v774l-682 -774h-91v1024h150v-774l682 774h88v-1024z" />
    <glyph glyph-name="uni043A" unicode="&#x43a;" horiz-adv-x="1185" 
d="M952 0l-168 258q-34 53 -52 78.5t-43.5 54t-49 40t-56.5 19t-77 7.5h-156v-457h-149v1024h149v-424h133q55 0 91.5 9t69 37t55 58t63.5 95l147 225h168l-192 -291q-61 -90 -100.5 -135.5t-84.5 -65.5q55 -16 99 -63.5t108 -144.5l211 -324h-166z" />
    <glyph glyph-name="uni043B" unicode="&#x43b;" horiz-adv-x="1181" 
d="M590 795l-359 -795h-157l471 1024h90l473 -1024h-158z" />
    <glyph glyph-name="uni043C" unicode="&#x43c;" horiz-adv-x="1431" 
d="M1243 0h-149v774l-377 -428l-377 428v-774h-150v1024h91l436 -496l436 496h90v-1024z" />
    <glyph glyph-name="uni043D" unicode="&#x43d;" horiz-adv-x="1308" 
d="M1118 0h-149v444h-629v-444h-150v1024h150v-436h629v436h149v-1024z" />
    <glyph glyph-name="uni043E" unicode="&#x43e;" horiz-adv-x="1306" 
d="M653 1038q143 0 264.5 -70.5t192 -191.5t70.5 -264t-70.5 -263.5t-192 -190.5t-264.5 -70t-263.5 70t-190.5 190.5t-70 263.5t70 264t190.5 191.5t263.5 70.5zM651 895q-155 0 -265 -110t-110 -273t110 -272t265 -109q156 0 266.5 109t110.5 272q0 164 -110.5 273.5
t-266.5 109.5z" />
    <glyph glyph-name="uni043F" unicode="&#x43f;" horiz-adv-x="1308" 
d="M1118 0h-147v883h-631v-883h-150v1024h928v-1024z" />
    <glyph glyph-name="uni0440" unicode="&#x440;" horiz-adv-x="1370" 
d="M729 1038q143 0 261 -70.5t184.5 -191t66.5 -264.5t-66.5 -264t-184.5 -190t-261 -70q-122 0 -224 60.5t-155 160.5v-586h-149v1401h106l6 -231q60 111 171 178t245 67zM717 895q-155 0 -266 -110t-111 -273t111 -273t266 -110t265 110t110 273t-110 273t-265 110z" />
    <glyph glyph-name="uni0441" unicode="&#x441;" horiz-adv-x="1175" 
d="M653 1038q120 0 225.5 -50.5t178.5 -139.5l-90 -96q-131 143 -314 143q-156 0 -265 -109.5t-109 -273.5t109 -272.5t265 -108.5q185 0 314 141l90 -96q-73 -88 -178.5 -138t-225.5 -50q-143 0 -263.5 70t-190.5 190.5t-70 263.5t70 264t190.5 191.5t263.5 70.5z" />
    <glyph glyph-name="uni0442" unicode="&#x442;" horiz-adv-x="1048" 
d="M598 883v-883h-149v883h-375v141h899v-141h-375z" />
    <glyph glyph-name="uni0443" unicode="&#x443;" horiz-adv-x="1337" 
d="M1159 1024v-895q0 -237 -130 -378t-367 -142q-251 0 -441 155l86 95q168 -115 355 -115q168 0 257 92.5t89 263.5v121q-36 -76 -100.5 -127t-132 -71.5t-138.5 -20.5q-211 0 -329 128.5t-118 358.5v535h150v-528q0 -178 83.5 -264.5t233.5 -86.5q162 0 257.5 107
t95.5 299v473h149z" />
    <glyph glyph-name="uni0444" unicode="&#x444;" horiz-adv-x="2187" 
d="M1546 1038q143 0 261 -70.5t184.5 -191t66.5 -264.5t-66.5 -264t-184.5 -190t-261 -70q-121 0 -222.5 59.5t-156.5 159.5v-557h-147v555q-55 -98 -156.5 -157.5t-222.5 -59.5q-143 0 -261 70t-184.5 190t-66.5 264t66.5 264.5t184.5 191t261 70.5q131 0 240.5 -65.5
t169.5 -173.5l4 225h80l2 -225q60 108 169 173.5t240 65.5zM651 129q156 0 266.5 109.5t110.5 273.5t-110.5 273.5t-266.5 109.5q-155 0 -265 -110t-110 -273t110 -273t265 -110zM1534 129q155 0 265 110t110 273t-110 273t-265 110t-266 -110t-111 -273t111 -273t266 -110z
" />
    <glyph glyph-name="uni0445" unicode="&#x445;" horiz-adv-x="1179" 
d="M586 408l-338 -408h-174l428 528l-406 496h172l324 -379l317 379h172l-405 -502l428 -522h-174z" />
    <glyph glyph-name="uni0446" unicode="&#x446;" horiz-adv-x="1370" 
d="M1296 -227h-149v227h-957v1024h150v-883h623v883h147v-883h186v-368z" />
    <glyph glyph-name="uni0447" unicode="&#x447;" horiz-adv-x="1331" 
d="M1141 0h-148v403q-51 -86 -141 -131t-209 -45q-126 0 -217 36.5t-144 106t-77.5 161t-24.5 210.5v283h150v-274q0 -194 74.5 -287.5t259.5 -93.5q91 0 157 28t102.5 77.5t53 108.5t16.5 130v311h148v-1024z" />
    <glyph glyph-name="uni0448" unicode="&#x448;" horiz-adv-x="1875" 
d="M1688 0h-1498v1024h150v-883h524v883h150v-883h524v883h150v-1024z" />
    <glyph glyph-name="uni0449" unicode="&#x449;" horiz-adv-x="1945" 
d="M1872 -227h-148v227h-1534v1024h150v-883h524v883h150v-883h524v883h150v-883h184v-368z" />
    <glyph glyph-name="uni044A" unicode="&#x44a;" horiz-adv-x="1351" 
d="M412 692h354q92 0 164 -20.5t116.5 -53.5t73.5 -79t40 -92.5t11 -98.5q0 -53 -11 -100t-40 -93.5t-73.5 -80t-116.5 -54t-164 -20.5h-502v883h-190v141h338v-332zM414 139h366q244 0 244 209q0 92 -57 148.5t-187 56.5h-366v-414z" />
    <glyph glyph-name="uni044B" unicode="&#x44b;" horiz-adv-x="1562" 
d="M340 692h352q92 0 164 -20.5t117 -53.5t74 -79t40 -92.5t11 -98.5q0 -53 -11 -100.5t-40 -93.5t-74 -79.5t-117 -54t-164 -20.5h-502v1024h150v-332zM1374 0h-149v1024h149v-1024zM338 139h367q243 0 243 209q0 93 -56.5 149t-186.5 56h-367v-414z" />
    <glyph glyph-name="uni044C" unicode="&#x44c;" horiz-adv-x="1212" 
d="M340 692h352q92 0 164 -20.5t117 -53.5t74 -79t40 -92.5t11 -98.5q0 -53 -11 -100.5t-40 -93.5t-74 -79.5t-117 -54t-164 -20.5h-502v1024h150v-332zM338 139h367q243 0 243 209q0 93 -56.5 149t-186.5 56h-367v-414z" />
    <glyph glyph-name="uni044D" unicode="&#x44d;" horiz-adv-x="1175" 
d="M522 1038q143 0 264 -70.5t191 -191.5t70 -264t-70 -263.5t-191 -190.5t-264 -70q-119 0 -224.5 50t-178.5 138l90 96q129 -141 313 -141q143 0 248.5 95t118.5 237h-438v100h438q-14 141 -119.5 236.5t-247.5 95.5q-179 0 -313 -143l-90 96q73 89 178 139.5t225 50.5z
" />
    <glyph glyph-name="uni044E" unicode="&#x44e;" horiz-adv-x="1708" 
d="M1053 1038q143 0 264 -70.5t191.5 -191.5t70.5 -264t-70.5 -263.5t-191.5 -190.5t-264 -70q-199 0 -346 131t-170 325h-197v-444h-150v1024h150v-436h201q15 126 86.5 229t183.5 162t242 59zM1053 131q156 0 266.5 109t110.5 272q0 164 -110.5 273.5t-266.5 109.5
q-155 0 -265 -110t-110 -273t110 -272t265 -109z" />
    <glyph glyph-name="uni044F" unicode="&#x44f;" horiz-adv-x="1193" 
d="M1026 0h-147v334h-250q-41 -1 -71.5 -10t-53 -20.5t-48 -40.5t-43 -53.5t-51.5 -76.5l-90 -133h-163l108 162q74 113 105 146q27 30 57 48q-120 27 -190 114t-70 200q0 72 25 134t74.5 112t133 79t191.5 29h483v-1024zM879 881h-351q-125 0 -193.5 -56t-68.5 -155
q0 -97 69 -153t193 -56h351v420z" />
    <glyph glyph-name="uni0451" unicode="&#x451;" horiz-adv-x="1257" 
d="M438 1319q38 0 65 -24.5t27 -59.5t-27 -59.5t-65 -24.5t-65 24.5t-27 59.5t27 59.5t65 24.5zM864 1319q38 0 65 -24.5t27 -59.5t-27 -59.5t-65 -24.5t-65 24.5t-27 59.5t27 59.5t65 24.5zM649 1038q165 0 284.5 -80t176.5 -219q24 -59 29 -136.5t-11 -125.5h-847
q0 -163 107 -257.5t278 -96.5q197 0 354 110l80 -90q-199 -155 -434 -155q-238 2 -387.5 147.5t-149.5 376.5q0 145 64 264.5t183.5 190.5t272.5 71zM649 901q-152 0 -253 -94t-109 -229h706q3 53 -22 116q-39 95 -123.5 151t-198.5 56z" />
    <glyph glyph-name="Wgrave" unicode="&#x1e80;" horiz-adv-x="2412" 
d="M1165 1776l150 -240h-121l-209 240h180zM1749 0h-90l-453 1108l-454 -1108h-88l-570 1434h176l437 -1135l454 1135h90l455 -1135l436 1135h174z" />
    <glyph glyph-name="wgrave" unicode="&#x1e81;" horiz-adv-x="1935" 
d="M920 1391l149 -240h-121l-209 240h181zM1407 0h-88l-352 778l-353 -778h-88l-452 1024h157l340 -795l353 795h86l352 -793l342 793h156z" />
    <glyph glyph-name="Wacute" unicode="&#x1e82;" horiz-adv-x="2412" 
d="M1214 1536h-118l147 240h182zM1749 0h-90l-453 1108l-454 -1108h-88l-570 1434h176l437 -1135l454 1135h90l455 -1135l436 1135h174z" />
    <glyph glyph-name="wacute" unicode="&#x1e83;" horiz-adv-x="1935" 
d="M985 1151h-119l148 240h182zM1407 0h-88l-352 778l-353 -778h-88l-452 1024h157l340 -795l353 795h86l352 -793l342 793h156z" />
    <glyph glyph-name="Wdieresis" unicode="&#x1e84;" horiz-adv-x="2412" 
d="M993 1536q-38 0 -65 24.5t-27 59.5t27 59.5t65 24.5t65 -24.5t27 -59.5t-27 -59.5t-65 -24.5zM1419 1536q-38 0 -65 24.5t-27 59.5t27 59.5t65 24.5t65 -24.5t27 -59.5t-27 -59.5t-65 -24.5zM1749 0h-90l-453 1108l-454 -1108h-88l-570 1434h176l437 -1135l454 1135h90
l455 -1135l436 1135h174z" />
    <glyph glyph-name="wdieresis" unicode="&#x1e85;" horiz-adv-x="1935" 
d="M760 1151q-38 0 -65 24.5t-27 59.5t27 59.5t65 24.5t65 -24.5t27 -59.5t-27 -59.5t-65 -24.5zM1184 1151q-38 0 -65 24.5t-27 59.5t27 59.5t65 24.5t65 -24.5t27 -59.5t-27 -59.5t-65 -24.5zM1407 0h-88l-352 778l-353 -778h-88l-452 1024h157l340 -795l353 795h86
l352 -793l342 793h156z" />
    <glyph glyph-name="Ygrave" unicode="&#x1ef2;" horiz-adv-x="1441" 
d="M670 1776l149 -240h-121l-209 240h181zM799 0h-160v492l-545 942h182l445 -750l442 750h183l-547 -942v-492z" />
    <glyph glyph-name="ygrave" unicode="&#x1ef3;" horiz-adv-x="1337" 
d="M770 1151h-121l-209 240h181zM340 1024v-528q0 -178 83.5 -264.5t233.5 -86.5q162 0 257.5 107t95.5 299v473h149v-895q0 -237 -130 -378t-367 -142q-251 0 -441 155l86 95q168 -115 355 -115q168 0 257 92.5t89 263.5v121q-36 -76 -100.5 -127t-132 -71.5t-138.5 -20.5
q-211 0 -329 128.5t-118 358.5v535h150z" />
    <glyph glyph-name="endash" unicode="&#x2013;" horiz-adv-x="1019" 
d="M891 541h-762v100h762v-100z" />
    <glyph glyph-name="emdash" unicode="&#x2014;" horiz-adv-x="1363" 
d="M1235 541h-1106v100h1106v-100z" />
    <glyph glyph-name="quoteleft" unicode="&#x2018;" horiz-adv-x="546" 
d="M129 1028l184 406h107l-123 -406h-168z" />
    <glyph glyph-name="quoteright" unicode="&#x2019;" horiz-adv-x="546" 
d="M420 1434l-184 -406h-107l123 406h168z" />
    <glyph glyph-name="quotesinglbase" unicode="&#x201a;" horiz-adv-x="546" 
d="M420 164l-184 -406h-107l123 406h168z" />
    <glyph glyph-name="quotedblleft" unicode="&#x201c;" horiz-adv-x="790" 
d="M129 1028l184 406h107l-123 -406h-168zM371 1028l184 406h107l-123 -406h-168z" />
    <glyph glyph-name="quotedblright" unicode="&#x201d;" horiz-adv-x="790" 
d="M420 1434l-184 -406h-107l123 406h168zM662 1434l-185 -406h-106l123 406h168z" />
    <glyph glyph-name="quotedblbase" unicode="&#x201e;" horiz-adv-x="790" 
d="M420 164l-184 -406h-107l123 406h168zM662 164l-185 -406h-106l123 406h168z" />
    <glyph glyph-name="dagger" unicode="&#x2020;" horiz-adv-x="813" 
d="M461 1022h223v-98h-223v-1047h-109v1047h-223v98h223v412h109v-412z" />
    <glyph glyph-name="daggerdbl" unicode="&#x2021;" horiz-adv-x="813" 
d="M461 1022h223v-98h-223v-535h223v-98h-223v-414h-109v414h-223v98h223v535h-223v98h223v412h109v-412z" />
    <glyph glyph-name="bullet" unicode="&#x2022;" horiz-adv-x="796" 
d="M399 889q112 0 191.5 -79t79.5 -189q0 -114 -79 -192.5t-192 -78.5t-191.5 78.5t-78.5 192.5q0 111 79 189.5t191 78.5z" />
    <glyph glyph-name="ellipsis" unicode="&#x2026;" horiz-adv-x="1290" 
d="M227 164q40 0 69.5 -26t29.5 -62q0 -38 -29.5 -64t-69.5 -26q-41 0 -69.5 26t-28.5 64q0 37 28.5 62.5t69.5 25.5zM645 164q40 0 69 -25.5t29 -62.5q0 -38 -29 -64t-69 -26q-41 0 -69.5 26t-28.5 64q0 37 28.5 62.5t69.5 25.5zM1065 164q40 0 69 -25.5t29 -62.5
q0 -38 -29 -64t-69 -26q-41 0 -69.5 26t-28.5 64q0 37 28.5 62.5t69.5 25.5z" />
    <glyph glyph-name="perthousand" unicode="&#x2030;" horiz-adv-x="2465" 
d="M477 1448q146 0 247 -99.5t101 -240.5t-101 -240.5t-247 -99.5t-247 99.5t-101 240.5t101 240.5t247 99.5zM477 0h-106l831 1434h107zM477 1346q-104 0 -169.5 -66t-65.5 -172t65.5 -172t169.5 -66q103 0 169.5 66.5t66.5 171.5t-66.5 171.5t-169.5 66.5zM1204 666
q146 0 247 -99.5t101 -240.5t-101 -240.5t-247 -99.5t-247 99.5t-101 240.5t101 240.5t247 99.5zM1991 666q146 0 247 -99.5t101 -240.5t-101 -240.5t-247 -99.5t-247.5 99.5t-101.5 240.5t101.5 240.5t247.5 99.5zM1204 563q-104 0 -169.5 -65.5t-65.5 -171.5t65.5 -172
t169.5 -66q103 0 169.5 66.5t66.5 171.5t-66.5 171t-169.5 66zM1991 563q-105 0 -170.5 -65.5t-65.5 -171.5t66 -172t170 -66q103 0 169 66.5t66 171.5t-66 171t-169 66z" />
    <glyph glyph-name="guilsinglleft" unicode="&#x2039;" horiz-adv-x="593" 
d="M465 705l-184 -156l184 -154v-139l-336 293l336 297v-141z" />
    <glyph glyph-name="guilsinglright" unicode="&#x203a;" horiz-adv-x="593" 
d="M465 549l-336 -293v139l186 154l-186 156v141z" />
    <glyph glyph-name="fraction" unicode="&#x2044;" horiz-adv-x="966" 
d="M870 1434l-675 -1434h-101l676 1434h100z" />
    <glyph glyph-name="Euro" unicode="&#x20ac;" horiz-adv-x="1697" 
d="M1028 135q128 0 240 47.5t196 136.5l105 -98q-102 -111 -242 -173t-299 -62q-252 0 -448 153.5t-258 392.5h-193v99h174q-4 58 -4 86q0 45 6 92h-176v98h195q64 236 259 388.5t445 152.5q158 0 298.5 -63.5t242.5 -176.5l-105 -94q-85 88 -197 136t-239 48
q-189 0 -336 -108t-205 -283h693l-41 -98h-674q-6 -47 -6 -92q0 -43 6 -86h512l-39 -99h-453q56 -179 204 -288t339 -109z" />
    <glyph glyph-name="uni2116" unicode="&#x2116;" horiz-adv-x="2719" 
d="M2003 1448q143 0 264 -70.5t191.5 -191.5t70.5 -264t-70.5 -264t-191.5 -191t-264 -70t-263.5 70t-190.5 191t-70 264t70 264t190.5 191.5t263.5 70.5zM1317 0h-88l-838 1120v-1120h-160v1434h91l835 -1121v1121h160v-1434zM2003 1305q-155 0 -265 -110t-110 -273
t110 -272t265 -109q156 0 266.5 109t110.5 272q0 164 -110.5 273.5t-266.5 109.5zM1520 135h968v-135h-968v135z" />
    <glyph glyph-name="trademark" unicode="&#x2122;" horiz-adv-x="1560" 
d="M465 1335v-536h-103v536h-233v99h569v-99h-233zM1432 799h-103v461l-235 -261l-234 261v-461h-102v635h59l277 -308l278 308h60v-635z" />
    <glyph glyph-name="oneeighth" unicode="&#x215b;" horiz-adv-x="1542" 
d="M303 782v484l-110 -131l-64 47l211 252h74v-652h-111zM408 0h-101l676 1434h100zM1286 350q60 -22 94.5 -65.5t34.5 -102.5q0 -87 -71 -141t-195 -55h-6q-126 0 -198.5 53.5t-72.5 142.5q0 58 34 102t93 66q-100 44 -100 146q0 73 64 121t172 49h10q112 0 178 -47.5
t66 -122.5q0 -101 -103 -146zM1143 379q32 0 62.5 7t57.5 32t27 65q0 49 -41.5 76t-105.5 27q-63 0 -104.5 -27t-41.5 -76t40.5 -75.5t105.5 -28.5zM1143 70q76 0 124 33.5t48 91.5q0 57 -48 90.5t-124 33.5q-78 0 -125 -33t-47 -91t47.5 -91.5t124.5 -33.5z" />
    <glyph glyph-name="threeeighths" unicode="&#x215c;" horiz-adv-x="1746" 
d="M676 1366l-264 -205q44 4 90 0q104 -9 158.5 -57.5t54.5 -122.5q0 -90 -75 -151.5t-200 -61.5h-8q-194 0 -303 135l66 60q91 -97 221 -97q81 0 135.5 37.5t54.5 93.5q0 48 -46 79.5t-126 31.5q-75 -2 -117 -21l-45 35l267 215h-340v97h477v-68zM612 0h-100l676 1434h100z
M1491 350q60 -22 94.5 -65.5t34.5 -102.5q0 -87 -71 -141t-195 -55h-6q-126 0 -198.5 53.5t-72.5 142.5q0 58 34 102t93 66q-100 44 -100 146q0 74 63.5 121.5t171.5 48.5h11q112 0 177.5 -47.5t65.5 -122.5q0 -101 -102 -146zM1348 379q32 0 62.5 7t57.5 32t27 65
q0 49 -41.5 76t-105.5 27q-63 0 -104.5 -27t-41.5 -76t40.5 -75.5t105.5 -28.5zM1348 70q76 0 124 33.5t48 91.5q0 57 -48 90.5t-124 33.5q-78 0 -125 -33t-47 -91t47.5 -91.5t124.5 -33.5z" />
    <glyph glyph-name="fiveeighths" unicode="&#x215d;" horiz-adv-x="1712" 
d="M662 1337h-373v-182q68 33 172 33q122 0 188 -55.5t66 -151.5q0 -89 -74.5 -150.5t-198.5 -62.5h-10q-194 0 -303 135l66 60q91 -97 221 -97q81 0 135.5 37.5t54.5 93.5t-45 90t-127 35q-118 0 -182 -41l-51 29v324h461v-97zM578 0h-101l676 1434h100zM1454 350
q60 -22 94.5 -65.5t34.5 -102.5q0 -87 -71 -141t-195 -55h-6q-126 0 -198.5 53.5t-72.5 142.5q0 58 34 102t93 66q-100 44 -100 146q0 73 64 121t172 49h10q112 0 177.5 -47.5t65.5 -122.5q0 -101 -102 -146zM1311 379q32 0 62.5 7t57.5 32t27 65q0 49 -41.5 76t-105.5 27
q-63 0 -104.5 -27t-41.5 -76t40.5 -75.5t105.5 -28.5zM1313 70q76 0 124 33.5t48 91.5q0 57 -48 90.5t-124 33.5q-78 0 -125 -33t-47 -91t47.5 -91.5t124.5 -33.5z" />
    <glyph glyph-name="seveneighths" unicode="&#x215e;" horiz-adv-x="1509" 
d="M129 782l358 555h-344v97h482v-62l-383 -590h-113zM375 0h-101l676 1434h101zM1251 350q60 -22 94.5 -65.5t34.5 -102.5q0 -87 -71 -141t-195 -55h-6q-126 0 -198 53.5t-72 142.5q0 58 34 102t93 66q-101 44 -101 146q0 73 64 121t172 49h10q112 0 178 -47.5t66 -122.5
q0 -101 -103 -146zM1108 379q32 0 62.5 7t57.5 32t27 65q0 49 -41.5 76t-105.5 27q-63 0 -104 -27t-41 -76t40 -75.5t105 -28.5zM1110 70q76 0 124 33.5t48 91.5q0 57 -48 90.5t-124 33.5q-78 0 -125 -33t-47 -91t47.5 -91.5t124.5 -33.5z" />
    <glyph glyph-name="partialdiff" unicode="&#x2202;" horiz-adv-x="1366" 
d="M750 1448h14q98 0 177.5 -29.5t134 -83t92 -125.5t53.5 -158.5t15 -181t-19 -194.5l-25 -133q-28 -157 -114.5 -283t-221.5 -200t-293 -74q-153 0 -260 68.5t-149 179t-19 241.5q38 211 202 345t374 134q138 0 233.5 -62.5t128.5 -162.5q11 72 11 140t-11.5 132
t-37.5 117.5t-65 93.5t-97.5 63t-131.5 23h-12q-155 0 -299 -118l-86 96q75 75 179 123t227 49zM719 817q-159 0 -278 -97.5t-144 -244.5q-26 -145 58.5 -241.5t242.5 -96.5q167 0 282.5 104t141.5 255q24 133 -61.5 227t-241.5 94z" />
    <glyph glyph-name="emptyset" unicode="&#x2205;" horiz-adv-x="1345" 
d="M1206 977l-129 -129q121 -146 121 -336q0 -143 -70.5 -263.5t-191.5 -190.5t-264 -70q-190 0 -334 118l-131 -131l-70 72l129 131q-119 145 -119 334q0 143 70 264t191 191.5t264 70.5q192 0 334 -120l129 129zM297 512q0 -127 74 -231l532 534q-99 80 -231 80
q-155 0 -265 -110t-110 -273zM1049 512q0 129 -76 231l-533 -532q104 -80 232 -80q156 0 266.5 109t110.5 272z" />
    <glyph glyph-name="product" unicode="&#x220f;" horiz-adv-x="1505" 
d="M1233 1284v-1497h-160v1497h-643v-1497h-160v1497h-141v150h1247v-150h-143z" />
    <glyph glyph-name="summation" unicode="&#x2211;" horiz-adv-x="1187" 
d="M1061 1286h-682l467 -706l-467 -707h682v-149h-932l549 856l-547 854l930 2v-150z" />
    <glyph glyph-name="minus" unicode="&#x2212;" horiz-adv-x="1105" 
d="M977 549h-848v100h848v-100z" />
    <glyph glyph-name="radical" unicode="&#x221a;" horiz-adv-x="1370" 
d="M713 0h-101l-313 854l-170 -51v127l299 94l272 -793l445 1203h96z" />
    <glyph glyph-name="infinity" unicode="&#x221e;" horiz-adv-x="1411" 
d="M379 670h12q73 0 156.5 -49.5t159.5 -147.5q75 98 157.5 147.5t155.5 49.5h12q108 0 179 -79t71 -198v-22q0 -118 -71 -196.5t-179 -78.5h-12q-73 0 -155.5 49t-157.5 146q-76 -97 -159.5 -146t-156.5 -49h-12q-110 0 -180 75t-70 200v22q0 119 71 198t179 79zM406 569
h-9q-73 0 -119.5 -52t-46.5 -126v-16q0 -83 45.5 -131.5t120.5 -48.5h9q119 0 243 190q-60 92 -122.5 138t-120.5 46zM1014 569h-10q-58 0 -121 -47t-123 -139q60 -96 123 -142t121 -46h10q72 0 118 53t46 127v16q0 74 -46 126t-118 52z" />
    <glyph glyph-name="integral" unicode="&#x222b;" horiz-adv-x="710" 
d="M582 1386h-29q-76 0 -117.5 -53.5t-36.5 -128.5l72 -1175q11 -136 -70 -226t-221 -90h-51v150h29q76 0 117 54.5t38 129.5l-73 1176q-11 135 69 224t221 89h52v-150z" />
    <glyph glyph-name="approxequal" unicode="&#x2248;" horiz-adv-x="1110" 
d="M129 586l86 125q37 56 91.5 77.5t106 12.5t99.5 -37l125 -74q50 -32 111 -30.5t94 49.5l51 77h90l-86 -124q-37 -56 -91.5 -77.5t-106 -13t-99.5 36.5l-125 72q-37 22 -74 30t-73 -3t-58 -43l-53 -78h-88zM983 518l-86 -127q-37 -55 -91.5 -76.5t-106 -13t-99.5 36.5
l-125 74q-37 22 -74 29.5t-73 -4t-58 -44.5l-53 -76h-88l86 125q37 56 91.5 77.5t106 13t99.5 -36.5l125 -74q37 -21 74 -28.5t73 3.5t58 43l51 78h90z" />
    <glyph glyph-name="notequal" unicode="&#x2260;" horiz-adv-x="1105" 
d="M637 672l-78 -195h418v-100h-457l-100 -258h-101l101 258h-291v100h330l76 195h-406v100h444l99 252h102l-98 -252h301v-100h-340z" />
    <glyph glyph-name="lessequal" unicode="&#x2264;" horiz-adv-x="948" 
d="M821 924l-450 -279l450 -272v-142l-692 416l692 414v-137zM821 0h-692v100h692v-100z" />
    <glyph glyph-name="greaterequal" unicode="&#x2265;" horiz-adv-x="948" 
d="M821 647l-692 -416v142l451 272l-451 279v137zM821 0h-692v100h692v-100z" />
    <glyph glyph-name="lozenge" unicode="&#x25ca;" horiz-adv-x="1071" 
d="M537 -47l-408 536l408 535l407 -535zM537 858l-285 -369l285 -370l284 370z" />
    <glyph glyph-name="K.ss01" horiz-adv-x="1449" 
d="M391 653v-653h-160v1434h160v-629h322l442 629h184l-491 -705l508 -729h-185l-460 653h-320z" />
    <glyph glyph-name="Kcommaaccent.ss01" horiz-adv-x="1449" 
d="M391 653v-653h-160v1434h160v-629h322l442 629h184l-491 -705l508 -729h-185l-460 653h-320zM666 -381h-119l147 240h183z" />
    <glyph glyph-name="R.ss01" horiz-adv-x="1417" 
d="M231 1434h463q279 0 448 -139.5t169 -376.5q0 -177 -98 -299.5t-269 -176.5l371 -442h-185l-344 410q-65 -9 -88 -9h-307v-401h-160v1434zM391 1284v-733h316q95 0 175.5 22t143 65t98 115t35.5 165q0 92 -35.5 163t-98 115t-143 66t-175.5 22h-316z" />
    <glyph glyph-name="Racute.ss01" horiz-adv-x="1417" 
d="M696 1536h-118l147 240h182zM231 1434h463q279 0 448 -139.5t169 -376.5q0 -177 -98 -299.5t-269 -176.5l371 -442h-185l-344 410q-65 -9 -88 -9h-307v-401h-160v1434zM391 1284v-733h316q95 0 175.5 22t143 65t98 115t35.5 165q0 92 -35.5 163t-98 115t-143 66
t-175.5 22h-316z" />
    <glyph glyph-name="Rcaron.ss01" horiz-adv-x="1417" 
d="M741 1536h-137l-217 246h129l158 -129l155 131h129zM231 1434h463q279 0 448 -139.5t169 -376.5q0 -177 -98 -299.5t-269 -176.5l371 -442h-185l-344 410q-65 -9 -88 -9h-307v-401h-160v1434zM391 1284v-733h316q95 0 175.5 22t143 65t98 115t35.5 165q0 92 -35.5 163
t-98 115t-143 66t-175.5 22h-316z" />
    <glyph glyph-name="Rcommaaccent.ss01" horiz-adv-x="1417" 
d="M231 1434h463q279 0 448 -139.5t169 -376.5q0 -177 -98 -299.5t-269 -176.5l371 -442h-185l-344 410q-65 -9 -88 -9h-307v-401h-160v1434zM391 1284v-733h316q95 0 175.5 22t143 65t98 115t35.5 165q0 92 -35.5 163t-98 115t-143 66t-175.5 22h-316zM635 -381h-119
l148 240h182z" />
    <glyph glyph-name="i.loclTRK" horiz-adv-x="573" 
d="M293 1151q-38 0 -65 24.5t-27 59.5t27 59.5t65 24.5t65 -24.5t27 -59.5t-27 -59.5t-65 -24.5zM217 0v1024h150v-1024h-150z" />
    <glyph glyph-name="k.ss01" horiz-adv-x="1191" 
d="M350 451v-451h-149v1434h149v-840h236l346 430h168l-398 -502l416 -522h-168l-366 451h-234z" />
    <glyph glyph-name="kcommaaccent.ss01" horiz-adv-x="1191" 
d="M350 451v-451h-149v1434h149v-840h236l346 430h168l-398 -502l416 -522h-168l-366 451h-234zM733 -141l-211 -240h-119l148 240h182z" />
    <glyph glyph-name="uni0416.ss01" horiz-adv-x="2185" 
d="M2073 1434l-492 -705l508 -729h-182l-461 653h-275v-653h-159v653h-273l-460 -653h-185l508 729l-491 705h184l440 -629h277v629h159v-629h277l442 629h183z" />
    <glyph glyph-name="uni041A.ss01" horiz-adv-x="1449" 
d="M391 653v-653h-160v1434h160v-629h322l442 629h184l-491 -705l508 -729h-185l-460 653h-320z" />
    <glyph glyph-name="uni042F.ss01" horiz-adv-x="1417" 
d="M1188 0h-160v401h-309q-25 0 -86 9l-346 -410h-183l369 442q-169 54 -266.5 176.5t-97.5 299.5q0 237 168.5 376.5t447.5 139.5h463v-1434zM1028 1284h-315q-95 0 -176 -22t-143.5 -66t-98 -115t-35.5 -163q0 -93 35.5 -165t98.5 -115t143.5 -65t175.5 -22h315v733z" />
    <glyph glyph-name="uni0436.ss01" horiz-adv-x="1759" 
d="M952 451v-451h-147v451h-197l-366 -451h-168l415 522l-397 502h170l346 -430h197v430h147v-430h197l348 430h168l-397 -502l415 -522h-167l-367 451h-197z" />
    <glyph glyph-name="uni043A.ss01" horiz-adv-x="1191" 
d="M350 451v-451h-149v1024h149v-430h236l346 430h168l-398 -502l416 -522h-168l-366 451h-234z" />
    <glyph glyph-name="uni044F.ss01" horiz-adv-x="1181" 
d="M1014 0h-150v334h-329l-275 -334h-166l285 354q-127 26 -201 113.5t-74 202.5q0 72 25 134t75 112t133 79t191 29h486v-1024zM866 881h-350q-125 0 -193.5 -56t-68.5 -155q0 -97 69 -153t193 -56h350v420z" />
    <glyph glyph-name="zero.lf" horiz-adv-x="1744" 
d="M870 1448q150 0 286 -58t234 -156t156 -233.5t58 -283.5q0 -150 -58 -285.5t-156.5 -233t-234 -155t-285.5 -57.5q-198 0 -366 97.5t-265.5 265.5t-97.5 368q0 148 57.5 283.5t155 233.5t233 156t283.5 58zM870 1298q-157 0 -287 -75.5t-206 -209t-76 -296.5
q0 -164 76 -298t206 -209t287 -75q118 0 224 44.5t183 121t122 185t45 231.5q0 163 -76.5 296.5t-208 209t-289.5 75.5z" />
    <glyph glyph-name="one.lf" horiz-adv-x="772" 
d="M541 0h-160v1141l-180 -217l-107 82l357 428h90v-1434z" />
    <glyph glyph-name="two.lf" horiz-adv-x="1294" 
d="M1178 0h-1063v90l630 563q141 130 191.5 204.5t50.5 166.5q0 125 -95 198.5t-230 75.5h-21q-232 0 -391 -194l-105 96q97 122 227.5 185t278.5 63h23q205 -1 338 -114.5t133 -280.5q0 -94 -39 -177t-111 -162t-207 -196l-397 -368h787v-150z" />
    <glyph glyph-name="three.lf" horiz-adv-x="1314" 
d="M1149 1343l-537 -501q75 16 164 16q204 -12 313 -122t109 -279q0 -204 -136 -335.5t-370 -135.5h-20q-191 1 -334.5 81t-222.5 218l104 96q159 -246 455 -246h14q159 3 259 96.5t100 245.5q0 134 -88.5 211.5t-262.5 77.5q-136 0 -252 -55l-84 61l547 512h-665v150h907
v-91z" />
    <glyph glyph-name="four.lf" horiz-adv-x="1288" 
d="M1032 291v-291h-160v291h-778v88l848 1055h90v-994h162v-149h-162zM872 1159l-581 -719h581v719z" />
    <glyph glyph-name="five.lf" horiz-adv-x="1310" 
d="M1065 1284h-700v-459q60 43 155 71t207 28q218 0 342.5 -124t124.5 -329q0 -134 -59 -243t-176.5 -175t-274.5 -67h-20q-190 1 -330 80.5t-219 218.5l104 96q81 -125 190 -185.5t261 -60.5h14q156 3 257 96t101 250q0 152 -95 237t-259 85q-118 0 -222 -36.5t-165 -88.5
l-82 61v695h846v-150z" />
    <glyph glyph-name="six.lf" horiz-adv-x="1275" 
d="M670 954q210 0 349.5 -134t139.5 -345q0 -131 -61 -241.5t-180 -179t-273 -68.5q-158 0 -279.5 74t-185 200t-63.5 283l-2 133q0 121 19 231t62.5 209.5t107 172t158 115.5t210.5 44h14q274 0 430 -195l-102 -96q-71 72 -148 106.5t-176 34.5h-12q-87 0 -157 -32.5
t-115.5 -86t-76 -128.5t-44.5 -154t-17 -168q51 100 157.5 162.5t244.5 62.5zM637 137q159 0 260.5 96t101.5 242q0 147 -101.5 244.5t-260.5 97.5q-156 0 -258.5 -94t-102.5 -227q0 -151 97.5 -255t263.5 -104z" />
    <glyph glyph-name="seven.lf" horiz-adv-x="1128" 
d="M1032 1343l-766 -1343h-172l733 1284h-725v150h930v-91z" />
    <glyph glyph-name="eight.lf" horiz-adv-x="1239" 
d="M834 770q132 -38 210 -132.5t78 -231.5q0 -191 -133 -304t-358 -116h-15q-230 0 -365.5 113t-135.5 307q0 137 78 231.5t210 132.5q-105 35 -170 113t-65 200q0 159 118.5 259.5t309.5 105.5h27q197 0 320.5 -100.5t123.5 -264.5q0 -121 -64.5 -199.5t-168.5 -113.5z
M322 1059q0 -119 84.5 -179.5t211.5 -60.5q81 0 146 24t108 80t43 136t-43 135.5t-108 79.5t-146 24q-127 0 -211.5 -60t-84.5 -179zM618 135q155 0 253 78t98 215q0 138 -95 214t-256 79q-41 0 -84 -7t-92 -27.5t-86.5 -51.5t-62.5 -84.5t-25 -122.5q0 -138 97 -215.5
t253 -77.5z" />
    <glyph glyph-name="nine.lf" horiz-adv-x="1275" 
d="M604 479q-210 0 -349.5 134t-139.5 345q0 98 36.5 186.5t101.5 156t162.5 107.5t213.5 40q158 0 280 -74t186 -200t64 -283v-131q0 -122 -19 -232.5t-62.5 -210t-107 -172t-158 -115.5t-210.5 -44h-14q-272 0 -430 194l102 96q71 -72 148 -106.5t176 -34.5h14
q87 0 156.5 32.5t114.5 86.5t76 129t44.5 154.5t16.5 169.5q-51 -102 -157.5 -165t-244.5 -63zM639 1298q-157 0 -260 -97t-103 -243t103 -244t260 -98q155 0 257.5 95t102.5 227q0 152 -96.5 256t-263.5 104z" />
    <glyph glyph-name="zero.osf" horiz-adv-x="1417" 
d="M709 1114q153 0 283.5 -75.5t207 -205t76.5 -282.5q0 -154 -76.5 -284t-207 -205.5t-283.5 -75.5q-154 0 -285 75.5t-207 205.5t-76 284q0 153 76 282.5t207 205t285 75.5zM709 965q-169 0 -287.5 -121t-118.5 -293q0 -173 118.5 -293.5t287.5 -120.5t288 120.5
t119 293.5q0 172 -119 293t-288 121z" />
    <glyph glyph-name="one.osf" horiz-adv-x="772" 
d="M541 0h-160v807l-180 -217l-107 82l357 428h90v-1100z" />
    <glyph glyph-name="two.osf" horiz-adv-x="1294" 
d="M1178 0h-1063v90l676 408q115 72 155.5 123.5t40.5 128.5q0 89 -83 152t-218 63h-22q-115 0 -225 -49t-189 -144l-105 96q96 120 233.5 183t287.5 63h22q109 -1 198.5 -31t144.5 -80t84.5 -110.5t29.5 -124.5q0 -123 -71 -207t-247 -178l-378 -233h729v-150z" />
    <glyph glyph-name="three.osf" horiz-adv-x="1314" 
d="M1149 1012l-537 -494q72 17 174 14q198 -13 305 -122t107 -275q0 -193 -136.5 -320.5t-371.5 -131.5h-18q-191 1 -334.5 81t-222.5 218l104 96q159 -246 455 -246h14q157 1 258 92.5t101 231.5q0 134 -88 211t-263 77q-140 0 -252 -57l-84 64l545 499h-663v150h907v-88z
" />
    <glyph glyph-name="four.osf" horiz-adv-x="1288" 
d="M1032 -25v-278h-160v278h-778v91l848 1034h90v-975h162v-150h-162zM872 825l-581 -700h581v700z" />
    <glyph glyph-name="five.osf" horiz-adv-x="1310" 
d="M1065 950h-700v-446q59 42 154 69t208 27q218 0 342.5 -123t124.5 -327q0 -94 -35 -178t-99 -148t-162 -102t-216 -39h-18q-190 1 -330 80.5t-219 218.5l104 96q81 -125 190 -185.5t261 -60.5h10q156 2 259 92t103 236q0 152 -95 236.5t-259 84.5q-118 0 -222 -36.5
t-165 -88.5l-82 62v682h846v-150z" />
    <glyph glyph-name="six.osf" horiz-adv-x="1275" 
d="M670 954q210 0 349.5 -134t139.5 -345q0 -131 -61 -241.5t-180 -179t-273 -68.5q-158 0 -279.5 74t-185 200t-63.5 283l-2 123q0 116 19.5 223t63 204.5t107.5 169t160 114t213 42.5h12q275 -3 426 -196l-102 -95q-72 72 -149 106.5t-177 35.5h-10q-86 0 -155 -32
t-113.5 -83.5t-75.5 -123.5t-45.5 -145.5t-18.5 -154.5q51 100 157 161.5t243 61.5zM637 137q159 0 260.5 96t101.5 242q0 147 -101.5 244.5t-260.5 97.5q-156 0 -258.5 -94t-102.5 -227q0 -151 97.5 -255t263.5 -104z" />
    <glyph glyph-name="seven.osf" horiz-adv-x="1120" 
d="M1024 1012l-754 -1315h-174l721 1253h-723v150h930v-88z" />
    <glyph glyph-name="eight.osf" horiz-adv-x="1239" 
d="M834 750q131 -36 209.5 -130t78.5 -227q0 -186 -136.5 -296.5t-364.5 -110.5h-11q-226 2 -360.5 112.5t-134.5 294.5q0 134 77.5 227.5t208.5 129.5q-105 37 -169 115t-64 200q0 155 122.5 255t315.5 101h17q196 0 320 -99.5t124 -256.5q0 -122 -64 -200t-169 -115z
M322 1038q0 -119 84.5 -178t211.5 -59q126 0 211.5 59.5t85.5 177.5q0 80 -43 136t-108 80t-146 24q-127 0 -211.5 -60.5t-84.5 -179.5zM618 133q155 0 253 76.5t98 208.5t-95.5 206.5t-255.5 77.5q-41 0 -84 -7t-92 -27t-86.5 -50t-62.5 -82t-25 -118q0 -132 97 -208.5
t253 -76.5z" />
    <glyph glyph-name="nine.osf" horiz-adv-x="1275" 
d="M604 147q-210 0 -349.5 133.5t-139.5 344.5q0 98 36.5 186.5t101.5 155.5t162.5 107t213.5 40q158 0 280 -74t186 -200t64 -283v-121q0 -117 -19.5 -224t-63 -204.5t-107.5 -169t-159 -113.5t-212 -42h-14q-268 0 -426 194l102 94q73 -71 150 -105t176 -34h12
q86 0 155 32t113.5 83.5t75.5 123t45.5 144.5t18.5 154q-53 -100 -158.5 -161t-243.5 -61zM639 965q-157 0 -260 -97t-103 -243t103 -244t260 -98q155 0 257.5 94.5t102.5 226.5q0 98 -41 179t-124 131.5t-195 50.5z" />
    <glyph glyph-name="zero.tf" horiz-adv-x="1718" 
d="M858 1448q200 0 368.5 -98t266.5 -266.5t98 -366.5q0 -200 -98 -368t-266.5 -265.5t-368.5 -97.5q-198 0 -366 97.5t-265.5 265.5t-97.5 368q0 148 57.5 283.5t155 233.5t233 156t283.5 58zM858 1298q-157 0 -287 -75.5t-206 -209t-76 -296.5q0 -164 76 -298t206 -209
t287 -75q118 0 224 44.5t183 121t122 185t45 231.5q0 163 -76.5 296.5t-208 209t-289.5 75.5z" />
    <glyph glyph-name="one.tf" horiz-adv-x="702" 
d="M575 0h-159v1141l-180 -217l-107 82l356 428h90v-1434z" />
    <glyph glyph-name="two.tf" horiz-adv-x="1320" 
d="M1192 0h-1063v90l631 563q141 130 191 204.5t50 166.5q0 125 -95 198.5t-230 75.5h-21q-232 0 -391 -194l-104 96q97 122 227.5 185t278.5 63h22q205 -1 338 -114.5t133 -280.5q0 -94 -38.5 -177t-110.5 -162t-207 -196l-397 -368h786v-150z" />
    <glyph glyph-name="three.tf" horiz-adv-x="1339" 
d="M1163 1343l-536 -501q75 16 164 16q204 -12 312.5 -122t108.5 -279q0 -204 -135.5 -335.5t-369.5 -135.5h-21q-191 1 -334.5 81t-222.5 218l104 96q159 -246 455 -246h14q159 3 259 96.5t100 245.5q0 134 -88 211.5t-262 77.5q-136 0 -252 -55l-84 61l547 512h-666v150
h907v-91z" />
    <glyph glyph-name="four.tf" horiz-adv-x="1355" 
d="M1067 291v-291h-160v291h-778v88l848 1055h90v-994h162v-149h-162zM905 1159l-581 -719h581v719z" />
    <glyph glyph-name="five.tf" horiz-adv-x="1337" 
d="M1079 1284h-700v-459q60 43 155 71t207 28q218 0 342.5 -124t124.5 -329q0 -134 -59 -243t-176.5 -175t-274.5 -67h-20q-190 1 -330 80.5t-219 218.5l104 96q81 -125 190 -185.5t261 -60.5h14q156 3 257.5 96t101.5 250q0 152 -95.5 237t-259.5 85q-118 0 -222 -36.5
t-165 -88.5l-82 61v695h846v-150z" />
    <glyph glyph-name="six.tf" horiz-adv-x="1302" 
d="M684 954q210 0 350 -134t140 -345q0 -131 -61 -241.5t-180.5 -179t-273.5 -68.5q-158 0 -279.5 74t-185 200t-63.5 283l-2 133q0 121 19 231t62.5 209.5t107 172t158 115.5t210.5 44h14q274 0 430 -195l-102 -96q-71 72 -147.5 106.5t-175.5 34.5h-13q-87 0 -157 -32.5
t-115 -86t-76 -128.5t-44.5 -154t-16.5 -168q51 101 157 163t244 62zM651 137q159 0 261 96t102 242q0 147 -102 244.5t-261 97.5q-156 0 -258 -94t-102 -227q0 -151 97 -255t263 -104z" />
    <glyph glyph-name="seven.tf" horiz-adv-x="1196" 
d="M1067 1343l-766 -1343h-172l733 1284h-725v150h930v-91z" />
    <glyph glyph-name="eight.tf" horiz-adv-x="1263" 
d="M848 770q132 -38 210.5 -132.5t78.5 -231.5q0 -191 -133.5 -304t-358.5 -116h-14q-230 0 -366 113t-136 307q0 137 78.5 231.5t210.5 132.5q-105 35 -170.5 113.5t-65.5 199.5q0 159 118.5 259.5t309.5 105.5h27q197 0 320.5 -100.5t123.5 -264.5q0 -121 -64.5 -199.5
t-168.5 -113.5zM336 1059q0 -119 85 -179.5t212 -60.5q81 0 146 24t108 80t43 136t-43 135.5t-108 79.5t-146 24q-127 0 -212 -60t-85 -179zM633 135q155 0 252.5 77.5t97.5 215.5t-94.5 214t-255.5 79q-41 0 -84 -7t-92 -27.5t-86.5 -51.5t-62.5 -84.5t-25 -122.5
q0 -138 97 -215.5t253 -77.5z" />
    <glyph glyph-name="nine.tf" horiz-adv-x="1302" 
d="M618 479q-210 0 -349.5 134t-139.5 345q0 98 36.5 186.5t101.5 156t162.5 107.5t213.5 40q158 0 280 -74t186.5 -200t64.5 -283v-131q0 -122 -19.5 -232.5t-62.5 -210t-106.5 -172t-158.5 -115.5t-211 -44h-14q-272 0 -430 194l102 96q71 -72 148 -106.5t176 -34.5h14
q87 0 156.5 32.5t114.5 86.5t76 129t44.5 154.5t16.5 169.5q-51 -102 -157.5 -165t-244.5 -63zM651 1298q-157 0 -259.5 -97t-102.5 -243t102.5 -244t259.5 -98q155 0 258 95t103 227q0 152 -97 256t-264 104z" />
    <glyph glyph-name="zero.tosf" horiz-adv-x="1390" 
d="M696 1120q153 0 284 -76t207.5 -206t76.5 -283q0 -154 -76.5 -283.5t-207.5 -204.5t-284 -75q-154 0 -284.5 75t-206.5 204.5t-76 283.5q0 153 76 283t206.5 206t284.5 76zM694 969q-169 0 -287 -121t-118 -293t118 -293t287 -121t288.5 121t119.5 293t-119.5 293
t-288.5 121z" />
    <glyph glyph-name="one.tosf" horiz-adv-x="702" 
d="M575 0h-159v811l-180 -215l-107 82l356 428h90v-1106z" />
    <glyph glyph-name="two.tosf" horiz-adv-x="1320" 
d="M1192 0h-1063v90l676 408q115 72 155.5 123.5t40.5 128.5q0 89 -83 152t-218 63h-22q-115 0 -225 -49t-189 -144l-104 96q96 120 233 183t287 63h22q109 -1 198.5 -31t144.5 -80t84.5 -110.5t29.5 -124.5q0 -123 -70.5 -207t-246.5 -178l-379 -233h729v-150z" />
    <glyph glyph-name="three.tosf" horiz-adv-x="1339" 
d="M1163 1012l-536 -494q72 17 174 14q198 -13 304.5 -122t106.5 -275q0 -193 -136 -320.5t-371 -131.5h-19q-191 1 -334.5 81t-222.5 218l104 96q159 -246 455 -246h14q157 1 258 92.5t101 231.5q0 134 -88 211t-262 77q-140 0 -252 -57l-84 64l545 499h-664v150h907v-88z
" />
    <glyph glyph-name="four.tosf" horiz-adv-x="1355" 
d="M1067 -25v-278h-160v278h-778v91l848 1034h90v-975h162v-150h-162zM905 825l-581 -700h581v700z" />
    <glyph glyph-name="five.tosf" horiz-adv-x="1337" 
d="M1079 950h-700v-446q59 42 154 69t208 27q218 0 342.5 -123t124.5 -327q0 -94 -35 -178t-99 -148t-162 -102t-216 -39h-18q-190 1 -330 80.5t-219 218.5l104 96q81 -125 190 -185.5t261 -60.5h10q156 2 259.5 92t103.5 236q0 152 -95 236.5t-260 84.5q-118 0 -222 -36.5
t-165 -88.5l-82 62v682h846v-150z" />
    <glyph glyph-name="six.tosf" horiz-adv-x="1302" 
d="M684 954q210 0 350 -134t140 -345q0 -131 -61 -241.5t-180.5 -179t-273.5 -68.5q-158 0 -279.5 74t-185 200t-63.5 283l-2 123q0 116 19.5 223t63 204.5t107.5 169t160 114t213 42.5h13q274 -3 425 -196l-102 -95q-72 72 -149 106.5t-177 35.5h-10q-86 0 -155 -32
t-113.5 -83.5t-75.5 -123.5t-45 -145.5t-18 -154.5q51 100 156.5 161.5t242.5 61.5zM651 137q159 0 261 96t102 242q0 147 -102 244.5t-261 97.5q-156 0 -258 -94t-102 -227q0 -151 97 -255t263 -104z" />
    <glyph glyph-name="seven.tosf" horiz-adv-x="1185" 
d="M1059 1012l-754 -1315h-174l721 1253h-723v150h930v-88z" />
    <glyph glyph-name="eight.tosf" horiz-adv-x="1263" 
d="M848 750q131 -36 210 -130t79 -227q0 -186 -137 -296.5t-365 -110.5h-10q-226 2 -361 112.5t-135 294.5q0 133 78 227t209 130q-105 37 -169.5 115t-64.5 200q0 155 123 255t316 101h16q196 0 320 -99.5t124 -256.5q0 -122 -64 -200t-169 -115zM336 1038q0 -80 42.5 -135
t107.5 -78.5t147 -23.5q126 0 211.5 59.5t85.5 177.5q0 80 -43 136t-108 80t-146 24q-127 0 -212 -60.5t-85 -179.5zM633 133q154 0 252 76.5t98 208.5t-95 206.5t-255 77.5q-41 0 -84 -7t-92 -27t-86.5 -50t-62.5 -82t-25 -118q0 -132 97 -208.5t253 -76.5z" />
    <glyph glyph-name="nine.tosf" horiz-adv-x="1302" 
d="M618 147q-210 0 -349.5 133.5t-139.5 344.5q0 98 36.5 186.5t101.5 155.5t162.5 107t213.5 40q158 0 280 -74t186.5 -200t64.5 -283v-121q0 -117 -19.5 -224t-63 -204.5t-108 -169t-159.5 -113.5t-212 -42h-14q-268 0 -426 194l102 94q73 -71 150 -105t176 -34h12
q86 0 155 32t113.5 83.5t75.5 123t45.5 144.5t18.5 154q-53 -100 -158.5 -161t-243.5 -61zM651 965q-157 0 -259.5 -97t-102.5 -243t102.5 -244t259.5 -98q155 0 258 94.5t103 226.5q0 98 -41 179t-124.5 131.5t-195.5 50.5z" />
    <glyph glyph-name="zero.dnom" horiz-adv-x="856" 
d="M428 666q146 0 247 -99.5t101 -240.5t-101 -240.5t-247 -99.5t-247 99.5t-101 240.5t101 240.5t247 99.5zM428 563q-104 0 -169.5 -65.5t-65.5 -171.5t65.5 -172t169.5 -66q103 0 169.5 66.5t66.5 171.5t-66.5 171t-169.5 66z" />
    <glyph glyph-name="one.dnom" horiz-adv-x="475" 
d="M379 0h-111v483l-110 -131l-64 47l211 252h74v-651z" />
    <glyph glyph-name="two.dnom" horiz-adv-x="790" 
d="M694 0h-600v53l357 238q61 39 89.5 73t28.5 76q0 48 -44 86.5t-115 38.5h-13q-65 0 -122 -30.5t-93 -69.5l-71 65q134 138 305 138h12q112 -1 181 -63t69 -144q0 -75 -46.5 -127t-142.5 -111l-192 -121h397v-102z" />
    <glyph glyph-name="three.dnom" horiz-adv-x="776" 
d="M641 586l-264 -205q30 3 90 0q104 -10 158.5 -58.5t54.5 -121.5q0 -91 -74.5 -153t-199.5 -62h-9q-192 2 -303 135l66 61q86 -98 221 -98q81 0 135.5 37.5t54.5 93.5q0 49 -46 80.5t-126 30.5q-69 0 -116 -21l-45 37l266 213h-340v96h477v-65z" />
    <glyph glyph-name="four.dnom" horiz-adv-x="765" 
d="M588 129v-129h-111v129h-383v53l424 469h70v-430h84v-92h-84zM479 498l-256 -277h256v277z" />
    <glyph glyph-name="five.dnom" horiz-adv-x="776" 
d="M627 555h-373v-182q72 35 172 35q122 0 188 -56t66 -151q0 -89 -74 -151.5t-198 -63.5h-11q-192 2 -303 135l66 61q86 -98 221 -98q81 0 135.5 37.5t54.5 93.5q0 57 -45 91t-127 34q-117 0 -182 -39l-51 29v321h461v-96z" />
    <glyph glyph-name="six.dnom" horiz-adv-x="749" 
d="M395 446q111 0 184.5 -63.5t73.5 -163.5q0 -97 -75.5 -165t-200.5 -68q-133 0 -208 74.5t-75 189.5v59q0 55 10 105.5t32.5 97t56.5 80.5t86 54t116 20h8q142 0 220 -93l-60 -55q-72 64 -160 64h-8q-92 0 -141.5 -65.5t-58.5 -156.5q66 86 200 86zM375 74
q77 0 126.5 41.5t49.5 103.5t-49.5 104t-126.5 42q-76 0 -125 -40.5t-49 -97.5q0 -65 46.5 -109t127.5 -44z" />
    <glyph glyph-name="seven.dnom" horiz-adv-x="684" 
d="M590 592l-383 -592h-113l359 555h-344v96h481v-59z" />
    <glyph glyph-name="eight.dnom" horiz-adv-x="731" 
d="M508 350q60 -22 94.5 -65.5t34.5 -102.5q0 -87 -71 -141t-195 -55h-6q-126 0 -198.5 53.5t-72.5 142.5q0 58 34 102t93 66q-100 44 -100 146q0 74 63.5 121.5t171.5 48.5h11q112 0 177.5 -47.5t65.5 -122.5q0 -101 -102 -146zM365 379q32 0 62.5 7t57.5 32t27 65
q0 49 -41.5 76t-105.5 27q-63 0 -104.5 -27t-41.5 -76t40.5 -75.5t105.5 -28.5zM367 70q76 0 124 33.5t48 91.5q0 57 -48 90.5t-124 33.5q-78 0 -125 -33t-47 -91t47.5 -91.5t124.5 -33.5z" />
    <glyph glyph-name="nine.dnom" horiz-adv-x="749" 
d="M354 205q-113 0 -186.5 63t-73.5 164q0 97 76 165.5t201 68.5q133 0 207.5 -75t74.5 -190v-59q0 -55 -10 -105.5t-32.5 -96.5t-56.5 -80t-86 -54t-116 -20h-8q-141 0 -219 92l59 55q71 -63 162 -63h6q48 0 86.5 19t61.5 52t36.5 70.5t18.5 79.5q-66 -86 -201 -86z
M377 578q-77 0 -126.5 -42t-49.5 -104t49.5 -103.5t126.5 -41.5q75 0 124.5 40t49.5 97q0 64 -47 109t-127 45z" />
    <glyph glyph-name="zero.numr" horiz-adv-x="856" 
d="M428 1448q146 0 247 -99.5t101 -240.5t-101 -240.5t-247 -99.5t-247 99.5t-101 240.5t101 240.5t247 99.5zM428 1346q-104 0 -169.5 -66t-65.5 -172t65.5 -172t169.5 -66q103 0 169.5 66.5t66.5 171.5t-66.5 171.5t-169.5 66.5z" />
    <glyph glyph-name="one.numr" horiz-adv-x="475" 
d="M379 782h-111v484l-110 -131l-64 47l211 252h74v-652z" />
    <glyph glyph-name="two.numr" horiz-adv-x="790" 
d="M694 780h-600v56l357 237q62 40 90 73.5t28 76.5q0 46 -44 85t-115 40h-13q-65 0 -122 -31.5t-93 -71.5l-71 66q133 137 305 137h12q112 -1 181 -63t69 -144q0 -75 -46 -126.5t-143 -110.5l-192 -121h397v-103z" />
    <glyph glyph-name="three.numr" horiz-adv-x="776" 
d="M641 1366l-264 -205q44 4 90 0q104 -9 158.5 -57.5t54.5 -122.5q0 -90 -74.5 -151.5t-199.5 -61.5h-9q-194 0 -303 135l66 60q91 -97 221 -97q81 0 135.5 37.5t54.5 93.5q0 48 -46 79.5t-126 31.5q-74 -2 -116 -21l-45 35l266 215h-340v97h477v-68z" />
    <glyph glyph-name="four.numr" horiz-adv-x="765" 
d="M588 911v-129h-111v129h-383v54l424 469h70v-430h84v-93h-84zM479 1278l-256 -274h256v274z" />
    <glyph glyph-name="five.numr" horiz-adv-x="776" 
d="M627 1337h-373v-182q68 33 172 33q122 0 188 -55.5t66 -151.5q0 -89 -74 -150.5t-198 -62.5h-11q-194 0 -303 135l66 60q91 -97 221 -97q81 0 135.5 37.5t54.5 93.5t-45 90t-127 35q-118 0 -182 -41l-51 29v324h461v-97z" />
    <glyph glyph-name="six.numr" horiz-adv-x="749" 
d="M395 1229q111 0 184.5 -64t73.5 -164q0 -97 -75.5 -165t-200.5 -68q-133 0 -208 74.5t-75 189.5v60q0 55 10 105.5t32.5 96.5t56.5 80t86 54t116 20h8q142 0 220 -92l-60 -56q-72 64 -160 64h-8q-92 0 -141.5 -65t-58.5 -156q66 86 200 86zM375 856q77 0 126.5 41.5
t49.5 103.5t-49.5 104t-126.5 42q-76 0 -125 -40t-49 -97q0 -65 46.5 -109.5t127.5 -44.5z" />
    <glyph glyph-name="seven.numr" horiz-adv-x="684" 
d="M590 1372l-383 -590h-113l359 555h-344v97h481v-62z" />
    <glyph glyph-name="eight.numr" horiz-adv-x="731" 
d="M508 1133q60 -22 94.5 -65.5t34.5 -102.5q0 -89 -71 -143t-195 -54h-6q-126 0 -198.5 54t-72.5 143q0 58 34 102t93 66q-100 44 -100 143q0 74 63.5 122.5t171.5 49.5h11q112 0 177.5 -48.5t65.5 -123.5q0 -98 -102 -143zM365 1161q32 0 62.5 7.5t57.5 32t27 63.5
q0 50 -41 77t-106 27q-63 0 -104.5 -27t-41.5 -77q0 -49 40.5 -75t105.5 -28zM367 850q76 0 124 34.5t48 92.5q0 56 -48 90.5t-124 34.5q-77 0 -124.5 -34t-47.5 -91q0 -58 47.5 -92.5t124.5 -34.5z" />
    <glyph glyph-name="nine.numr" horiz-adv-x="749" 
d="M354 987q-113 0 -186.5 63t-73.5 164q0 97 76 165.5t201 68.5q133 0 207.5 -74.5t74.5 -189.5v-60q0 -55 -10 -105.5t-32.5 -96.5t-56.5 -80t-86 -54t-116 -20h-8q-141 0 -219 92l59 55q71 -63 162 -63h6q48 0 86.5 19t61.5 52t36.5 70.5t18.5 79.5q-66 -86 -201 -86z
M377 1360q-77 0 -126.5 -42t-49.5 -104t49.5 -103.5t126.5 -41.5q75 0 124.5 40t49.5 97q0 64 -47 109t-127 45z" />
    </font>
</defs>
</svg>
