<svg xmlns="http://www.w3.org/2000/svg" width="138" height="20" fill="none"><g fill="#000" clip-path="url(#a)"><path d="m4.134 8.62.31.007 2.063 1.11.896.298c.328.108.58.364.674.684l.292.985.424 1.388a.25.25 0 0 0 .184.17l.594.14a.418.418 0 0 1 .225.13l.05.056.556 1.512-.654.919a.416.416 0 0 0 .083.572l.76.604c.208-.252.583-.72 1.172-1.468a.425.425 0 0 0 .093-.242l.07-1.243 1.865-.347 1.416-1.083c.176-.301.517-1.433.76-2.41l.023-.091 1.5-1.66a.362.362 0 0 0 .093-.274l-.071-.895a.285.285 0 0 0-.142-.223l-1.625-.96c-.294-.082-2.018-.529-3.579-.932a.907.907 0 0 1-.682-1.037c-.068-.11-.186-.299-.347-.549a5.288 5.288 0 0 0-.152.152 1.139 1.139 0 0 1-.623.325l-2.313.4-.575-1.182a.078.078 0 0 0-.093-.039l-.862.277a.156.156 0 0 0-.11.145l-.007.216a.751.751 0 0 1-.338.598 1.086 1.086 0 0 1-1.028.092l-.143-.062v1.68l-1.26 1.17.501 1.067Z"/><path d="m11.136 3.779.002.003h-.003l.001-.003ZM4.098 0h-.325C1.718 0 .051 1.606.051 3.587v.501l4.047-.018V0Z"/><path d="M17.054 0h.004H4.894v3.909a.97.97 0 0 1 .272.07l.195.085a.267.267 0 0 0 .247-.018l.006-.21a.931.931 0 0 1 .655-.85l.861-.277a.882.882 0 0 1 1.065.44l.316.648 1.71-.295a.346.346 0 0 0 .186-.098c.048-.05.104-.105.16-.161a.808.808 0 0 1 .659-.228.793.793 0 0 1 .59.36c.32.5.481.787.488.861a.542.542 0 0 1-.032.217.14.14 0 0 0 .103.171c3.6.93 3.678.951 3.748.995l1.664.984c.299.176.492.482.52.818l.069.895c.024.301-.08.605-.286.835l-1.373 1.518c-.132.52-.57 2.19-.885 2.619l-.034.045-1.666 1.275-1.447.268-.036.645a1.175 1.175 0 0 1-.254.665c-.973 1.233-1.518 1.863-1.64 1.89h-.008a.602.602 0 0 1-.108.014l-.156.009-1.16-.92c-.5-.396-.6-1.084-.233-1.598l.425-.597-.325-.886-.402-.095a1.035 1.035 0 0 1-.762-.698l-.423-1.392-.292-.988a.257.257 0 0 0-.169-.17l-.963-.32-1.955-1.05-.611-.015-.94-1.997 1.421-1.32V4.835L.05 4.852l-.003-.766v12.3c0 1.981 1.667 3.587 3.722 3.587h13.285c2.056 0 3.723-1.606 3.723-3.587V3.588C20.777 1.608 19.11 0 17.054 0ZM33.853 2.08H30.27l-4.725 10.418h3.706l.726-1.816h4.107l.727 1.816h3.767l-.012-.027h.162v-2.358h-1.232L33.853 2.08ZM30.98 8.152l1.05-2.62 1.05 2.62h-2.1ZM48.648 11.745a2.71 2.71 0 0 0 .65-.568l.696.322 1.293-2.59-2.072-.96c-.343-.389-.809-.69-1.399-.9.494-.236.867-.55 1.12-.936a2.34 2.34 0 0 0 .378-1.31c0-.823-.369-1.483-1.105-1.98-.735-.494-1.824-.743-3.266-.743h-5.776v10.416h6.084c1.482 0 2.615-.25 3.397-.751Zm-5.9-7.21h1.7c.792 0 1.188.257 1.188.774 0 .516-.396.774-1.189.774H42.75V4.535Zm0 5.506V8.404h2.193c.804 0 1.205.274 1.205.819a.945.945 0 0 1-.014.154l-.133.27.026.011c-.173.256-.535.383-1.083.383h-2.195Z"/><path d="M58.065 6.493a14.535 14.535 0 0 0-2.085-.513c-.64-.12-1.097-.23-1.375-.335-.278-.104-.417-.26-.417-.47 0-.436.457-.654 1.406-.654.948 0 1.951.258 3.012.773l1.096-2.544a6.988 6.988 0 0 0-1.89-.676 10.403 10.403 0 0 0-2.186-.231c-1.08 0-2 .153-2.757.461-.757.307-1.325.729-1.706 1.265a3.012 3.012 0 0 0-.571 1.786c0 .754.206 1.352.617 1.793.411.442.895.759 1.452.952.556.194 1.251.374 2.085.543.648.129 1.114.247 1.397.357.284.11.426.273.426.49 0 .19-.107.33-.324.425-.215.094-.576.142-1.08.142-.588 0-1.2-.087-1.838-.26a7.68 7.68 0 0 1-1.73-.693l-1.174 2.56c.546.327 1.244.588 2.093.78h-.001c.85.195 1.721.292 2.617.292 1.08 0 2-.157 2.757-.469.757-.312 1.325-.733 1.706-1.264.38-.531.572-1.124.572-1.779 0-.754-.21-1.35-.627-1.786a3.654 3.654 0 0 0-1.475-.945ZM77.79 2.08h-3.583l-4.725 10.418h3.706l.726-1.816h4.108l.726 1.816h3.768L77.79 2.08Zm-2.873 6.072 1.05-2.62 1.05 2.62h-2.1ZM91.193 9.285c.66-.328 1.164-.77 1.514-1.325.35-.556.526-1.207.526-1.95 0-.794-.2-1.489-.602-2.084-.401-.596-.974-1.052-1.715-1.37-.74-.317-1.61-.476-2.61-.476h-5.203v10.416h3.644V9.877h.989l-.003.003 1.838 2.619h3.892l-2.27-3.214Zm-2.006-2.376c-.246.213-.617.32-1.111.32h-1.329V4.788h1.329c.493 0 .864.107 1.11.32.248.213.371.512.371.9s-.123.689-.37.901ZM93.635 4.803h3.166v7.695h3.645V4.803h3.166V2.08h-9.977v2.723ZM106.09 11.44c.927.864 2.219 1.296 3.876 1.296s2.949-.432 3.876-1.295c.927-.862 1.39-2.073 1.39-3.63V2.08h-3.584v5.625c0 .764-.141 1.32-.425 1.666-.283.347-.693.52-1.228.52s-.944-.172-1.227-.52c-.284-.346-.426-.902-.426-1.666V2.08h-3.644v5.73c0 1.557.462 2.767 1.389 3.63h.003ZM120.152 9.937h1.56c.997 0 1.868-.159 2.609-.476.742-.317 1.313-.773 1.715-1.369.401-.595.602-1.29.602-2.084 0-.793-.201-1.488-.602-2.084-.402-.595-.974-1.051-1.715-1.368-.741-.317-1.61-.476-2.609-.476h-5.204v10.416h3.644v-2.56Zm0-5.15h1.328c.494 0 .864.108 1.112.32.247.214.37.513.37.901s-.123.689-.37.901c-.246.213-.617.32-1.112.32h-1.328V4.788ZM136.421 7.438a3.65 3.65 0 0 0-1.475-.945 14.527 14.527 0 0 0-2.085-.513c-.64-.12-1.097-.23-1.375-.335-.278-.104-.417-.26-.417-.47 0-.436.457-.654 1.405-.654.949 0 1.952.258 3.012.773l1.097-2.544a7.011 7.011 0 0 0-1.893-.676 10.394 10.394 0 0 0-2.185-.231c-1.081 0-2 .153-2.757.461-.757.307-1.325.729-1.706 1.265a3.013 3.013 0 0 0-.571 1.786c0 .754.206 1.352.618 1.793.41.442.894.759 1.451.952.556.194 1.252.374 2.085.543.649.129 1.114.247 1.398.357.283.11.425.273.425.49 0 .19-.107.33-.324.425-.215.094-.576.142-1.08.142-.588 0-1.2-.087-1.838-.26a7.66 7.66 0 0 1-1.729-.693l-1.175 2.56c.546.327 1.244.588 2.093.78.85.195 1.722.292 2.618.292 1.08 0 1.999-.157 2.756-.469.757-.312 1.326-.733 1.707-1.264a2.979 2.979 0 0 0 .571-1.779c0-.754-.209-1.35-.626-1.786ZM63.443 4.956v7.542h3.645V4.956h5.128l1.376-2.947H60.288v.071h-.01v2.723h.01v.153h3.155ZM46.441 15.685a.164.164 0 0 0-.052-.072c-.021-.017-.052-.025-.092-.025h-.17c-.04 0-.07.01-.092.025a.172.172 0 0 0-.052.072l-1.259 3.111a.162.162 0 0 0-.01.053c0 .026.01.048.03.067.02.02.043.029.07.029h.099a.106.106 0 0 0 .077-.028c.018-.016.03-.032.032-.045l.31-.767h1.76l.31.767a.247.247 0 0 0 .035.045c.017.018.04.027.074.027h.1c.026 0 .049-.008.069-.028.02-.02.03-.041.03-.067a.164.164 0 0 0-.01-.053l-1.259-3.111Zm-.99 2.133.76-1.89.761 1.89H45.45ZM50.06 17.364a4.704 4.704 0 0 0-.617-.23 6.896 6.896 0 0 1-.578-.204.858.858 0 0 1-.33-.215.47.47 0 0 1-.103-.315c0-.198.077-.344.234-.437.155-.092.357-.139.602-.139.244 0 .445.052.599.156.154.104.24.236.26.396.007.038.022.064.047.077a.14.14 0 0 0 .062.02h.099c.037 0 .064-.01.08-.031a.1.1 0 0 0 .026-.065.676.676 0 0 0-.08-.285.946.946 0 0 0-.22-.273 1.092 1.092 0 0 0-.364-.204 1.576 1.576 0 0 0-.512-.076c-.246 0-.454.039-.625.115a.923.923 0 0 0-.39.31.75.75 0 0 0-.134.437c0 .177.036.32.107.432.07.112.183.207.336.285.152.079.346.155.581.228.25.078.454.147.613.209.16.063.278.133.356.211a.422.422 0 0 1 .116.31.542.542 0 0 1-.223.457c-.15.114-.387.17-.712.17-.215 0-.39-.03-.527-.089a.783.783 0 0 1-.309-.22.566.566 0 0 1-.124-.265.11.11 0 0 0-.032-.068c-.019-.019-.044-.028-.078-.028h-.099a.102.102 0 0 0-.075.028.09.09 0 0 0-.029.068c.007.146.06.286.16.417.1.132.242.239.43.321.188.084.416.125.685.125.26-.001.482-.037.668-.11a.954.954 0 0 0 .431-.311.812.812 0 0 0 .151-.497.714.714 0 0 0-.119-.429.92.92 0 0 0-.364-.28ZM53.07 17.364a4.704 4.704 0 0 0-.617-.23 6.896 6.896 0 0 1-.578-.204.858.858 0 0 1-.328-.215.47.47 0 0 1-.105-.315c0-.198.078-.344.234-.437.155-.092.357-.139.602-.139s.446.052.6.156c.153.104.24.236.26.396.007.038.022.064.047.077a.14.14 0 0 0 .061.02h.1c.037 0 .064-.01.08-.031a.099.099 0 0 0 .025-.065.674.674 0 0 0-.08-.285.946.946 0 0 0-.22-.273 1.092 1.092 0 0 0-.363-.204 1.576 1.576 0 0 0-.513-.076c-.246 0-.453.039-.624.115a.924.924 0 0 0-.39.31.75.75 0 0 0-.134.437c0 .177.036.32.107.432.07.112.183.207.335.285.153.079.347.155.582.228.249.078.453.147.613.209.159.063.278.133.355.211a.421.421 0 0 1 .117.31.543.543 0 0 1-.224.457c-.15.114-.386.17-.711.17-.215 0-.39-.03-.527-.089a.783.783 0 0 1-.31-.22.565.565 0 0 1-.123-.265.11.11 0 0 0-.032-.068c-.02-.019-.045-.028-.078-.028h-.1a.102.102 0 0 0-.074.028.09.09 0 0 0-.03.068c.007.146.06.286.16.417.1.132.243.239.43.321.189.084.416.125.685.125h.002c.259-.001.481-.037.667-.11a.954.954 0 0 0 .43-.311.812.812 0 0 0 .152-.497.714.714 0 0 0-.12-.429.92.92 0 0 0-.363-.28ZM56.583 16.123a1.054 1.054 0 0 0-.457-.438 1.505 1.505 0 0 0-.68-.144c-.259 0-.485.049-.679.144a1.04 1.04 0 0 0-.455.438c-.11.197-.17.444-.179.741a14.023 14.023 0 0 0 0 .805c.01.301.066.549.169.746.103.196.25.341.442.436.193.094.427.141.701.141.276 0 .51-.047.701-.142a.987.987 0 0 0 .445-.435c.106-.197.16-.446.168-.746a8.622 8.622 0 0 0 0-.805c-.007-.297-.066-.544-.177-.74h.001Zm-.137 1.522c-.014.375-.111.645-.296.811-.183.166-.419.249-.703.249h-.002c-.282 0-.516-.083-.702-.249-.186-.166-.285-.437-.298-.81a13.659 13.659 0 0 1 0-.758c.01-.25.059-.452.147-.609a.81.81 0 0 1 .353-.343c.147-.072.31-.108.5-.108s.359.036.506.108a.817.817 0 0 1 .353.343c.088.156.135.36.142.609a8.168 8.168 0 0 1 0 .757ZM58.02 16.073c.178-.165.417-.247.72-.247.264 0 .485.052.659.158.174.106.293.3.355.585.007.038.02.065.04.079.02.014.043.022.07.022h.1c.03 0 .055-.008.077-.026a.076.076 0 0 0 .027-.07 1.06 1.06 0 0 0-.322-.687 1.152 1.152 0 0 0-.405-.25 1.695 1.695 0 0 0-.602-.096c-.3 0-.547.055-.738.167a1.04 1.04 0 0 0-.425.463c-.093.196-.145.42-.154.669a14.992 14.992 0 0 0 0 .853c.01.249.062.472.154.666.092.195.234.35.425.463.19.114.436.17.738.17v-.004c.236 0 .436-.032.602-.095.166-.063.301-.147.405-.251a1.052 1.052 0 0 0 .322-.687.073.073 0 0 0-.027-.07.124.124 0 0 0-.078-.026h-.099a.116.116 0 0 0-.07.022c-.02.014-.033.04-.04.079-.062.285-.181.48-.355.585-.174.106-.395.158-.66.158-.302 0-.541-.082-.72-.247-.177-.165-.272-.428-.285-.789-.01-.274-.01-.544 0-.805.013-.361.108-.624.286-.789ZM61.004 15.59h-.095a.11.11 0 0 0-.08.028.102.102 0 0 0-.03.077v3.145c0 .03.01.057.03.076a.11.11 0 0 0 .08.028h.095a.11.11 0 0 0 .08-.028c.02-.018.03-.044.03-.076v-3.145a.102.102 0 0 0-.03-.077.11.11 0 0 0-.08-.028ZM63.427 15.685a.163.163 0 0 0-.052-.072c-.021-.017-.052-.025-.092-.025h-.17c-.04 0-.071.01-.092.025a.172.172 0 0 0-.053.072l-1.258 3.111a.162.162 0 0 0-.01.053c0 .026.01.048.03.067.02.02.043.029.07.029h.099a.106.106 0 0 0 .077-.028c.017-.016.03-.032.032-.045l.31-.767h1.76l.31.767a.251.251 0 0 0 .034.045c.018.018.042.027.075.027h.1c.026 0 .049-.008.069-.028.02-.02.03-.041.03-.067a.162.162 0 0 0-.01-.053l-1.259-3.111Zm-.99 2.133.76-1.89.761 1.89h-1.522ZM65.68 16.073c.177-.165.417-.247.72-.247.264 0 .485.052.659.158.173.106.293.3.355.585.007.038.02.065.04.079.02.014.043.022.07.022h.099c.03 0 .056-.008.078-.026a.076.076 0 0 0 .026-.07 1.06 1.06 0 0 0-.32-.687 1.152 1.152 0 0 0-.406-.25 1.695 1.695 0 0 0-.602-.096c-.3 0-.547.055-.738.167a1.04 1.04 0 0 0-.425.463c-.093.196-.145.42-.154.669a14.992 14.992 0 0 0 0 .853c.01.224.052.427.127.607.075.18.187.329.338.446.151.117.345.193.585.228l-.1.226-.031.075c-.011.027-.008.05.008.07l.08.08c.027.026.052.035.078.031a.418.418 0 0 0 .09-.028.352.352 0 0 1 .131-.022.24.24 0 0 1 .15.048.157.157 0 0 1 .065.134.174.174 0 0 1-.065.142.24.24 0 0 1-.15.05.297.297 0 0 1-.167-.039c-.038-.024-.07-.046-.092-.062-.024-.017-.05-.011-.08.014l-.07.062c-.025.023-.024.053.008.092.031.038.083.072.154.103.07.03.154.046.246.05l-.002-.003c.155.003.272-.037.35-.122a.432.432 0 0 0 .116-.3.39.39 0 0 0-.107-.282.36.36 0 0 0-.271-.111.594.594 0 0 0-.107.009.228.228 0 0 0-.082.028l.115-.23c.236 0 .436-.033.602-.096.166-.063.301-.147.405-.251a1.052 1.052 0 0 0 .321-.687.073.073 0 0 0-.026-.07.124.124 0 0 0-.078-.026h-.099a.117.117 0 0 0-.07.022c-.02.014-.033.04-.04.079-.063.285-.182.48-.355.585-.174.106-.395.158-.66.158-.302 0-.541-.082-.72-.247-.177-.165-.272-.428-.286-.789-.009-.274-.009-.544 0-.805.014-.361.109-.624.287-.789ZM69.81 15.685a.164.164 0 0 0-.053-.072c-.02-.017-.052-.025-.092-.025h-.168c-.04 0-.071.01-.093.025a.17.17 0 0 0-.052.072l-1.258 3.111a.162.162 0 0 0-.01.053c0 .026.01.048.03.067.02.02.043.029.07.029h.097a.106.106 0 0 0 .078-.028c.017-.016.029-.032.032-.045l.309-.767h1.761l.309.767a.247.247 0 0 0 .035.045c.017.018.041.027.075.027h.099c.026 0 .05-.008.07-.028a.09.09 0 0 0 .029-.067.164.164 0 0 0-.01-.053l-1.258-3.111Zm-.99 2.133.761-1.89.761 1.89H68.82ZM68.987 15.137a.345.345 0 0 0-.028.134c0 .02.008.038.023.053a.074.074 0 0 0 .057.024h.1c.037 0 .062-.011.077-.036a.927.927 0 0 1 .047-.07c.016-.021.042-.033.079-.033.045 0 .092.014.136.042.046.027.095.054.15.08a.44.44 0 0 0 .197.042c.05 0 .098-.012.143-.034a.44.44 0 0 0 .2-.211.325.325 0 0 0 .03-.134.08.08 0 0 0-.02-.053c-.014-.017-.034-.024-.06-.024h-.1c-.037 0-.063.011-.077.036l-.044.072c-.015.024-.042.036-.082.036a.258.258 0 0 1-.136-.041 2.182 2.182 0 0 0-.15-.081.456.456 0 0 0-.202-.041c-.05 0-.098.01-.142.03a.383.383 0 0 0-.198.21ZM73.921 16.123a1.061 1.061 0 0 0-.457-.438 1.504 1.504 0 0 0-.68-.144c-.26 0-.485.049-.68.144a1.04 1.04 0 0 0-.454.438c-.11.197-.169.444-.18.741a14.38 14.38 0 0 0-.004.402c0 .124.002.258.005.403.01.301.067.549.17.746.103.196.25.341.442.436.193.094.426.141.701.141.276 0 .508-.047.701-.142a.987.987 0 0 0 .445-.435c.106-.197.16-.446.168-.746a8.622 8.622 0 0 0 0-.805c-.007-.297-.066-.544-.177-.74Zm-.136 1.522c-.014.375-.111.645-.296.811-.183.166-.419.249-.704.249-.283 0-.517-.083-.703-.249-.186-.166-.285-.437-.298-.81-.004-.145-.006-.271-.006-.38 0-.108.003-.234.006-.378.01-.25.059-.452.147-.609a.81.81 0 0 1 .353-.343c.148-.072.31-.108.5-.108s.359.036.506.108a.817.817 0 0 1 .353.343c.088.156.135.36.142.609a8.168 8.168 0 0 1 0 .757ZM78.156 17.176a.89.89 0 0 0 .201-.139.722.722 0 0 0 .169-.237.844.844 0 0 0 .067-.352.88.88 0 0 0-.105-.424.776.776 0 0 0-.326-.315 1.189 1.189 0 0 0-.57-.12h-1.298a.11.11 0 0 0-.08.029c-.02.02-.03.046-.03.081v3.141c0 .03.01.057.03.076a.11.11 0 0 0 .08.028h1.335c.226 0 .415-.045.57-.136a.899.899 0 0 0 .347-.355.96.96 0 0 0 .116-.457.844.844 0 0 0-.153-.513.964.964 0 0 0-.353-.307Zm-1.658-1.3h1.03c.246 0 .432.049.56.144.128.095.192.239.192.427a.542.542 0 0 1-.191.44c-.129.106-.315.159-.56.159h-1.03v-1.17Zm1.65 2.594c-.134.125-.325.187-.57.187h-1.08v-1.322h1.08c.246 0 .436.061.57.184a.62.62 0 0 1 .202.477c0 .19-.069.35-.203.474ZM81.095 17.483c.236-.054.42-.159.553-.312.132-.153.199-.358.199-.613 0-.327-.104-.569-.312-.729-.207-.16-.485-.24-.833-.24h-1.16a.11.11 0 0 0-.08.029c-.02.02-.03.046-.03.081v3.141c0 .03.01.057.03.076a.11.11 0 0 0 .08.028v-.002h.091c.037 0 .065-.01.085-.029.02-.018.03-.043.03-.076v-1.313h1.024l.791 1.29c.02.032.043.062.07.09.027.026.066.04.119.04h.06c.027 0 .05-.009.07-.028a.09.09 0 0 0 .03-.067.127.127 0 0 0-.016-.053l-.8-1.313Zm-.417-.245h-.93v-1.361h.93c.289 0 .504.057.645.17.14.113.211.284.211.51 0 .227-.07.398-.211.51-.142.114-.356.171-.645.171ZM83.995 15.685a.164.164 0 0 0-.052-.072c-.022-.017-.052-.025-.093-.025h-.168c-.04 0-.071.01-.092.025a.17.17 0 0 0-.053.072l-1.258 3.111a.162.162 0 0 0-.01.053c0 .026.01.048.03.067.02.02.043.029.07.029h.097a.11.11 0 0 0 .078-.028c.017-.016.03-.032.032-.045l.309-.767h1.761l.31.767a.25.25 0 0 0 .034.045c.017.018.041.027.075.027h.099c.027 0 .05-.008.07-.028a.09.09 0 0 0 .029-.067.162.162 0 0 0-.01-.053l-1.258-3.111Zm-.99 2.133.761-1.89.761 1.89h-1.522ZM87.614 17.364a4.704 4.704 0 0 0-.617-.23 6.896 6.896 0 0 1-.577-.204.858.858 0 0 1-.33-.215.47.47 0 0 1-.104-.315c0-.198.078-.344.234-.437.156-.092.358-.139.602-.139.245 0 .446.052.6.156.153.104.24.236.26.396.007.038.022.064.047.077.025.013.047.02.063.02h.099c.036 0 .061-.01.079-.031a.099.099 0 0 0 .025-.065.676.676 0 0 0-.08-.285.946.946 0 0 0-.22-.273 1.092 1.092 0 0 0-.363-.204 1.576 1.576 0 0 0-.512-.076c-.246 0-.454.039-.625.115a.923.923 0 0 0-.39.31.75.75 0 0 0-.134.437c0 .177.036.32.107.432.07.112.183.207.335.285.153.079.347.155.582.228.249.078.454.147.613.209.159.063.278.133.356.211a.421.421 0 0 1 .116.31.542.542 0 0 1-.223.457c-.15.114-.387.17-.712.17-.215 0-.39-.03-.527-.089a.783.783 0 0 1-.309-.22.566.566 0 0 1-.124-.265.11.11 0 0 0-.032-.068c-.02-.019-.044-.028-.078-.028h-.099a.102.102 0 0 0-.075.028.09.09 0 0 0-.03.068c.008.146.061.286.16.417.1.132.243.239.43.321.19.084.417.125.685.125h.003c.258-.001.48-.037.666-.11a.954.954 0 0 0 .43-.311.812.812 0 0 0 .152-.497.714.714 0 0 0-.12-.429.92.92 0 0 0-.363-.28ZM89.017 15.59h-.095a.11.11 0 0 0-.08.028.102.102 0 0 0-.03.077v3.145c0 .03.01.057.03.076a.11.11 0 0 0 .08.028h.095a.11.11 0 0 0 .079-.028c.02-.018.03-.044.03-.076v-3.145a.107.107 0 0 0-.03-.077c-.019-.02-.045-.028-.079-.028ZM92.09 18.658h-1.717v-2.963a.107.107 0 0 0-.029-.077c-.019-.02-.045-.028-.079-.028h-.095a.11.11 0 0 0-.08.028.102.102 0 0 0-.03.077v3.145c0 .03.01.057.03.076a.11.11 0 0 0 .08.028h1.92c.035 0 .064-.009.084-.028a.102.102 0 0 0 .03-.076v-.072c0-.035-.01-.063-.03-.081a.122.122 0 0 0-.085-.029ZM94.878 18.658h-1.776v-1.27h1.627c.037 0 .065-.01.085-.029.02-.02.03-.045.03-.077v-.072c0-.035-.01-.062-.03-.082-.02-.019-.048-.028-.084-.028h-1.628v-1.223h1.736c.036 0 .064-.009.084-.028.02-.02.03-.046.03-.078V15.7c0-.035-.01-.062-.03-.081-.02-.02-.048-.028-.084-.028h-1.94a.11.11 0 0 0-.081.028c-.02.02-.03.046-.03.081v3.141c0 .03.01.057.03.076a.11.11 0 0 0 .08.028h1.98c.037 0 .065-.009.085-.028.02-.018.03-.044.03-.076v-.072c0-.035-.01-.062-.03-.081a.122.122 0 0 0-.084-.029ZM95.937 15.59h-.095a.11.11 0 0 0-.08.028.102.102 0 0 0-.03.077v3.145c0 .03.01.057.03.076a.11.11 0 0 0 .08.028h.095a.11.11 0 0 0 .08-.028c.02-.018.029-.044.029-.076v-3.145a.107.107 0 0 0-.03-.077c-.019-.02-.045-.028-.079-.028ZM98.644 17.483c.236-.054.42-.159.553-.312.132-.153.199-.358.199-.613 0-.327-.104-.569-.312-.729-.207-.16-.485-.24-.833-.24h-1.16a.11.11 0 0 0-.08.029c-.02.02-.03.046-.03.081v3.141c0 .03.01.057.03.076a.11.11 0 0 0 .08.028v-.002h.091c.037 0 .065-.01.085-.029.02-.018.03-.043.03-.076v-1.313h1.024l.791 1.29c.02.032.043.062.07.09.027.026.066.04.119.04h.06c.027 0 .05-.009.07-.028a.09.09 0 0 0 .03-.067.126.126 0 0 0-.016-.053l-.8-1.313Zm-.417-.245h-.93v-1.361h.93c.289 0 .504.057.645.17.14.113.211.284.211.51 0 .227-.07.398-.211.51-.142.114-.356.171-.645.171ZM101.544 15.685a.164.164 0 0 0-.052-.072c-.022-.017-.052-.025-.093-.025h-.168a.154.154 0 0 0-.092.025.163.163 0 0 0-.052.072l-1.259 3.111a.162.162 0 0 0-.01.053c0 .026.01.048.03.067.02.02.043.029.07.029h.097a.11.11 0 0 0 .078-.028.11.11 0 0 0 .032-.045l.309-.767h1.761l.309.767a.27.27 0 0 0 .035.045c.017.018.041.027.075.027h.099a.094.094 0 0 0 .069-.028.086.086 0 0 0 .03-.067.181.181 0 0 0-.009-.053l-1.259-3.111Zm-.99 2.133.761-1.89.761 1.89h-1.522ZM106.97 16.176a.867.867 0 0 0-.425-.438c-.2-.1-.475-.148-.827-.148h-1.059a.109.109 0 0 0-.08.028.108.108 0 0 0-.03.081v3.141c0 .03.01.057.03.076.02.02.046.028.08.028v.003h1.086c.342 0 .611-.048.806-.142a.83.83 0 0 0 .418-.429c.083-.192.127-.436.133-.73.004-.144.006-.27.006-.38 0-.112-.003-.238-.006-.382a1.84 1.84 0 0 0-.132-.708Zm-.175 1.194c0 .07-.003.155-.006.25-.002.25-.038.45-.107.603a.635.635 0 0 1-.333.33c-.155.07-.365.104-.63.104h-.856v-2.781h.831c.399 0 .678.084.841.251.164.169.248.428.254.78.004.095.006.178.006.248v.214ZM110.009 18.658h-1.776v-1.27h1.627c.036 0 .065-.01.085-.029a.102.102 0 0 0 .029-.077v-.072c0-.035-.009-.062-.029-.082-.02-.019-.049-.028-.085-.028h-1.627v-1.223h1.736c.036 0 .064-.009.084-.028a.102.102 0 0 0 .029-.078V15.7c0-.035-.009-.062-.029-.081-.02-.02-.048-.028-.084-.028h-1.941a.11.11 0 0 0-.08.028.108.108 0 0 0-.03.081v3.141c0 .03.01.057.03.076a.11.11 0 0 0 .08.028h1.981c.036 0 .064-.009.084-.028.02-.018.029-.044.029-.076v-.072c0-.035-.009-.062-.029-.081a.122.122 0 0 0-.084-.029ZM113.96 17.364a4.712 4.712 0 0 0-.617-.23 6.89 6.89 0 0 1-.578-.204.868.868 0 0 1-.329-.215.473.473 0 0 1-.104-.315c0-.198.078-.344.234-.437.155-.092.357-.139.602-.139s.445.052.599.156a.552.552 0 0 1 .261.396c.007.038.021.064.047.077.025.013.047.02.063.02h.099c.036 0 .061-.01.078-.031a.097.097 0 0 0 .026-.065.687.687 0 0 0-.08-.285.94.94 0 0 0-.22-.273 1.089 1.089 0 0 0-.364-.204 1.572 1.572 0 0 0-.512-.076c-.246 0-.453.039-.624.115a.922.922 0 0 0-.391.31.748.748 0 0 0-.134.437c0 .177.036.32.107.432a.84.84 0 0 0 .336.285c.153.079.346.155.582.228.249.078.453.147.612.209.16.063.279.133.356.211a.42.42 0 0 1 .117.31.543.543 0 0 1-.224.457c-.15.114-.386.17-.711.17-.216 0-.391-.03-.527-.089a.774.774 0 0 1-.309-.22.569.569 0 0 1-.125-.265.105.105 0 0 0-.032-.068c-.018-.019-.044-.028-.077-.028h-.099a.102.102 0 0 0-.075.028.09.09 0 0 0-.03.068.745.745 0 0 0 .16.417c.1.132.243.239.43.321.189.084.416.125.685.125h.003c.258-.001.48-.037.666-.11a.948.948 0 0 0 .43-.311.808.808 0 0 0 .152-.497.71.71 0 0 0-.12-.429.914.914 0 0 0-.363-.28ZM117.258 15.849a.102.102 0 0 0 .029-.078V15.7c0-.035-.009-.062-.029-.081-.02-.02-.048-.028-.084-.028h-2.279a.111.111 0 0 0-.081.028c-.02.02-.029.046-.029.081v.072c0 .032.009.06.029.078.02.018.047.028.081.028h.985v2.963c0 .03.01.057.03.076.018.02.045.028.079.028h.091c.036 0 .064-.01.084-.028.02-.018.029-.044.029-.076v-2.963h.981c.036 0 .064-.009.084-.028ZM118.894 15.685a.165.165 0 0 0-.053-.072c-.021-.017-.052-.025-.092-.025h-.168a.157.157 0 0 0-.093.025.18.18 0 0 0-.052.072l-1.258 3.111a.156.156 0 0 0-.01.053c0 .026.01.048.03.067.02.02.042.029.069.029h.098c.033 0 .06-.01.077-.028.018-.016.03-.032.032-.045l.309-.767h1.762l.309.767a.27.27 0 0 0 .035.045c.017.018.041.027.075.027h.099a.096.096 0 0 0 .069-.028.089.089 0 0 0 .029-.067.153.153 0 0 0-.009-.053l-1.258-3.111Zm-.99 2.133.761-1.89.761 1.89h-1.522ZM122.412 17.483c.236-.054.42-.159.553-.312.132-.153.199-.358.199-.613 0-.327-.104-.569-.311-.729-.208-.16-.486-.24-.834-.24h-1.159a.111.111 0 0 0-.081.029c-.02.02-.029.046-.029.081v3.141c0 .03.009.057.029.076.02.02.047.028.081.028v-.002h.091c.036 0 .064-.01.084-.029.02-.018.029-.043.029-.076v-1.313h1.025l.792 1.29c.02.032.042.062.069.09.027.026.066.04.119.04h.06c.027 0 .05-.009.07-.028a.09.09 0 0 0 .029-.067.13.13 0 0 0-.014-.053l-.802-1.313Zm-.417-.245h-.931v-1.361h.931c.289 0 .504.057.645.17.14.113.211.284.211.51 0 .227-.071.398-.211.51-.142.114-.356.171-.645.171ZM125.945 15.59h-2.279a.113.113 0 0 0-.081.028c-.02.02-.029.046-.029.081v.072c0 .032.009.06.029.078a.119.119 0 0 0 .081.028h.985v2.963c0 .03.01.057.03.076.019.02.045.028.079.028h.091c.036 0 .064-.01.084-.028.02-.018.029-.044.029-.076v-2.963h.981c.036 0 .064-.009.084-.028a.102.102 0 0 0 .029-.078V15.7c0-.035-.009-.062-.029-.081-.02-.02-.048-.028-.084-.028ZM129.081 15.588h-.089a.117.117 0 0 0-.082.029.105.105 0 0 0-.032.08v1.963c0 .358-.087.622-.261.79-.174.17-.405.255-.703.255-.299 0-.535-.084-.709-.254-.174-.17-.261-.433-.261-.791v-1.962a.108.108 0 0 0-.03-.081c-.02-.02-.048-.029-.084-.029h-.089a.108.108 0 0 0-.079.029.112.112 0 0 0-.03.08v1.947c0 .31.051.565.154.763a.982.982 0 0 0 .44.44c.19.098.419.145.688.145.271 0 .501-.049.69-.144a.975.975 0 0 0 .434-.441c.101-.198.151-.452.151-.763v-1.946a.111.111 0 0 0-.029-.081c-.019-.02-.045-.029-.079-.029ZM132.022 15.702a1.499 1.499 0 0 0-.604-.112h-1.209a.111.111 0 0 0-.081.028c-.02.02-.029.046-.029.081v3.141c0 .03.009.057.029.076.02.02.047.028.081.028h.091c.036 0 .064-.009.084-.028.02-.018.029-.044.029-.076v-1.266h1.005c.232 0 .433-.036.604-.112a.894.894 0 0 0 .399-.334.986.986 0 0 0 .142-.546c0-.218-.047-.4-.142-.547a.886.886 0 0 0-.399-.333Zm.016 1.402c-.141.121-.355.182-.644.182h-.981v-1.409h.981c.289 0 .504.06.644.182.141.12.212.294.212.522 0 .228-.071.402-.212.523ZM135.037 17.364a4.712 4.712 0 0 0-.617-.23 6.851 6.851 0 0 1-.577-.204.852.852 0 0 1-.329-.215.468.468 0 0 1-.105-.315c0-.198.078-.344.234-.437.155-.092.357-.139.602-.139s.446.052.599.156a.552.552 0 0 1 .261.396c.007.038.022.064.047.077.025.013.047.02.063.02h.099c.036 0 .061-.01.079-.031a.1.1 0 0 0 .025-.065.672.672 0 0 0-.08-.285.953.953 0 0 0-.219-.273 1.098 1.098 0 0 0-.364-.204 1.578 1.578 0 0 0-.513-.076c-.246 0-.453.039-.624.115a.928.928 0 0 0-.391.31.754.754 0 0 0-.133.437c0 .177.036.32.107.432a.83.83 0 0 0 .335.285c.153.079.347.155.582.228.249.078.454.147.613.209.159.063.278.133.355.211a.42.42 0 0 1 .117.31.543.543 0 0 1-.224.457c-.149.114-.386.17-.711.17a1.33 1.33 0 0 1-.527-.089.789.789 0 0 1-.309-.22.557.557 0 0 1-.124-.265.112.112 0 0 0-.033-.068c-.018-.019-.044-.028-.077-.028h-.099a.102.102 0 0 0-.075.028.09.09 0 0 0-.029.068c.006.146.06.286.159.417.1.132.243.239.43.321.189.084.416.125.685.125h.003c.258-.001.48-.037.666-.11a.956.956 0 0 0 .431-.311.814.814 0 0 0 .151-.497.716.716 0 0 0-.119-.429.925.925 0 0 0-.364-.28Z"/></g><defs><clipPath id="a"><path fill="#fff" d="M.047 0h137v20h-137z"/></clipPath></defs></svg>