<svg xmlns="http://www.w3.org/2000/svg" width="78" height="32" fill="none"><g fill="#000" clip-path="url(#a)"><path fill-rule="evenodd" d="M40.53 18.075c-.466 5.115 1.906 8.172 6.346 8.177 2.337.003 3.605-.922 4.24-1.496l-.751-1.957c-.536.457-1.827.866-2.648.864-2.46-.003-3.667-2.166-3.342-5.73.334-3.671 1.87-5.605 4.455-5.602 1.103.002 1.768.371 2.104.593l1.138-1.338c-.365-.744-1.95-1.577-3.718-1.58-4.307-.004-7.38 3.163-7.825 8.07ZM36.806 10.268l-3.82 12.754-1.53-12.76-3.777-.005 2.806 15.739 4.356-.004 5.755-15.72-3.79-.004ZM21.787 10.144c-.994 0-1.815.16-2.374.463l-.606.33.616-6.776c-1.424 0-3.385 1.221-3.566 3.21l-1.547 17.18c.49.733 1.924 1.711 4.42 1.715 5.532.006 7.118-4.649 7.473-8.556.418-4.592-1.316-7.562-4.416-7.566Zm-2.582 13.638c-.468 0-.864-.093-1.165-.215l.982-10.79c.459-.243.9-.303 1.462-.303 1.9.002 2.335 2.435 2.052 5.536-.315 3.464-1.21 5.774-3.33 5.772ZM7.77 9.958c-1.799-.001-4.169 1-4.963 2.045l.83 1.482c.633-.597 1.97-1.255 3.122-1.254 1.827.003 2.783 1.002 2.624 2.743l-.022.237-.347.043c-4.6.58-7.754 1.966-8.126 6.05-.293 3.217 1.575 4.92 5.402 4.925 2.329.003 4.157-.595 5.47-1.836l.828-9.102c.358-3.923-1.25-5.329-4.817-5.333Zm.436 13.613a4.626 4.626 0 0 1-1.506.28c-1.642-.002-2.422-.976-2.265-2.702.223-2.448 1.637-3.488 4.34-3.829l-.569 6.251ZM71.618 10.035c-2.497-.003-4.138.997-4.73 1.689L65.028 32c1.88.002 3.406-1.474 3.561-3.181l.316-3.458.546.331c.504.306 1.294.467 2.29.468 3.1.005 5.374-2.96 5.791-7.553.356-3.907-.382-8.565-5.913-8.572Zm-.757 13.792c-.562 0-.992-.062-1.406-.306l.982-10.79a3.443 3.443 0 0 1 1.204-.211c2.12.002 2.595 2.314 2.28 5.778-.283 3.1-1.16 5.532-3.06 5.529ZM59.205 10.02c-1.8-.002-4.17 1-4.964 2.045l.83 1.482c.632-.597 1.97-1.255 3.122-1.254 1.826.003 2.782 1.002 2.624 2.742l-.021.238-.348.044c-4.6.579-7.755 1.964-8.126 6.048-.292 3.217 1.576 4.92 5.402 4.925 2.329.003 4.158-.595 5.47-1.834l.828-9.103c.357-3.922-1.25-5.328-4.817-5.333Zm.435 13.614c-.333.125-.927.28-1.506.28-1.642-.002-2.422-.975-2.266-2.702.223-2.447 1.638-3.487 4.341-3.83l-.57 6.252Z" clip-rule="evenodd"/><path d="M41.187 8.63 44.333 0h-11.21l-.005.043c-.426 4.743 3.173 8.588 8.038 8.588h.03Z"/></g><defs><clipPath id="a"><path fill="#fff" d="M.859 0h76.748v32H.859z"/></clipPath></defs></svg>