<svg xmlns="http://www.w3.org/2000/svg" width="94" height="48" fill="none"><g fill="#000" clip-path="url(#a)"><path d="M43.455 14.33h-1.259c-.027-.139-.058-.27-.078-.405-.17-1.139-.759-1.98-1.75-2.554-2.586-1.499-5.17-3.006-7.753-4.509-2.838-1.65-5.683-3.293-8.514-4.958-1.269-.746-2.5-.75-3.771-.006-5.405 3.156-10.816 6.3-16.229 9.44-1.226.712-1.83 1.766-1.835 3.179-.003.934-.001 1.868-.001 2.802v15.927c0 .595.039 1.182.282 1.736.318.724.833 1.259 1.512 1.654 5.184 3.01 10.366 6.026 15.547 9.04.281.165.563.328.844.49 1.176.68 2.352.68 3.525-.002l9.48-5.515c2.157-1.254 4.295-2.54 6.475-3.75 1.288-.713 2.144-1.664 2.233-3.22h1.323c-.053.372-.076.725-.158 1.063-.329 1.34-1.105 2.34-2.294 3.03-3.672 2.13-7.338 4.267-11.007 6.4-1.78 1.037-3.564 2.07-5.344 3.107-1.643.958-3.289.962-4.932.008-5.424-3.152-10.845-6.311-16.271-9.46-1.7-.985-2.527-2.452-2.527-4.414.003-6.274.004-12.548 0-18.822-.001-1.962.823-3.431 2.519-4.416 5.426-3.15 10.847-6.307 16.27-9.46 1.644-.955 3.29-.954 4.934.002 5.437 3.161 10.872 6.325 16.312 9.483 1.394.808 2.215 1.999 2.438 3.602.023.164.019.331.028.527Z"/><path d="M29.468 21.088v1.633h4.226v2.306h-4.206v1.585h4.568v2.55h-7.293V18.615h7.282v2.473h-4.577ZM12.435 18.596h2.434l3.775 10.549h-2.855l-.713-2.037H12.31l-.662 2.058H8.79l3.645-10.57Zm1.303 3.02-.094-.005-.763 3.018h1.545a5573.59 5573.59 0 0 1-.688-3.013ZM86.905 25.959c-.326.542-.587 1.02-.89 1.466-.304.449-.614.903-.984 1.294-.615.65-1.333.75-2.018.357-.631-.363-.982-1.227-.808-1.987.129-.56.741-.959 1.329-.804.336.088.661.26.958.449.348.222.659.213.993 0 .525-.336.868-.83 1.208-1.362-.213-.604-.422-1.203-.635-1.8a621.83 621.83 0 0 0-.675-1.887c-.359-1.001-.734-1.153-1.679-.698-.13.062-.286.065-.526.114.083-.197.098-.293.152-.354.637-.74 1.37-1.354 2.293-1.697.272-.101.565-.172.855-.194.886-.064 1.369.253 1.665 1.092.231.66.425 1.332.637 1.999.032.102.073.2.139.38.108-.202.178-.347.26-.484.394-.669.771-1.348 1.198-1.996.192-.292.46-.55.737-.766.503-.392 1.112-.386 1.649-.039.588.381.976 1.377.801 2.06-.165.644-.803 1.002-1.499.805a3.524 3.524 0 0 1-.801-.36c-.392-.227-.75-.198-1.06.111-.393.392-.76.81-1.144 1.224.403 1.275.757 2.515 1.19 3.727.338.947 1.091 1.179 1.983.706.148-.08.318-.12.516-.194 0 .132.018.19-.003.218-.744.957-1.636 1.726-2.863 1.918-1.368.214-1.984-.387-2.279-1.321-.2-.636-.441-1.26-.696-1.976l-.003-.001ZM56.191 22.637c-.024 1.759-.473 3.384-1.613 4.753-1.284 1.542-2.967 2.143-4.925 1.914-1.252-.147-2.033-.933-2.375-2.13-.536-1.874-.285-3.672.67-5.354.878-1.544 2.147-2.609 3.934-2.906a5.155 5.155 0 0 1 1.614-.01c1.58.245 2.572 1.375 2.694 2.986.018.248.002.497.002.747Zm-3.07-.056c0-.404.05-.816-.014-1.21-.078-.484-.19-.98-.398-1.42-.236-.5-.732-.567-1.171-.228-.168.13-.335.294-.43.48-.22.425-.443.858-.582 1.313-.52 1.7-.628 3.45-.529 5.213.025.428.12.868.27 1.27.32.855 1.102.973 1.634.232.284-.395.498-.862.65-1.327.455-1.4.572-2.857.569-4.324v.001ZM26.218 20.877c-.741.294-1.43.566-2.216.879-.032-.061-.059-.159-.12-.226a1.875 1.875 0 0 0-2.247-.434c-.413.2-.648.517-.647.99v3.548c0 .427.189.747.544.968.742.464 1.823.226 2.303-.504l.14-.218 2.26 1.063c-.06.134-.095.25-.157.35-1.663 2.705-5.027 2.392-6.569 1.058-.786-.68-1.166-1.556-1.176-2.59-.012-1.244-.016-2.49 0-3.735.02-1.49.743-2.54 2.078-3.15 1.047-.477 2.148-.585 3.264-.29 1.202.32 1.999 1.12 2.543 2.29ZM77.235 24.105c-.062.995.014 1.916.46 2.768.45.858 1.239 1.224 2.181 1 .371-.09.721-.27 1.08-.406.116-.044.234-.08.381-.13.038.376-.191.52-.365.675a5.062 5.062 0 0 1-2.525 1.205c-.601.105-1.24.15-1.84.066-1.401-.193-2.373-1.18-2.555-2.636-.294-2.351.307-4.455 2.006-6.151 1.233-1.23 2.772-1.73 4.49-1.625 1.683.103 2.462 1.73 1.535 3.153-.36.552-.874.92-1.448 1.208-.824.413-1.704.644-2.613.768-.244.034-.489.065-.786.104Zm.132-1.002c.874-.34 1.575-.769 2.039-1.511.279-.445.426-.933.304-1.465-.104-.455-.453-.634-.83-.371a2.445 2.445 0 0 0-.672.747c-.457.766-.666 1.624-.84 2.6ZM45.691 27.283c0 .16.024.243-.006.298a1.041 1.041 0 0 1-.225.294c-1.498 1.276-3.193 1.808-5.125 1.267-.97-.27-1.567-.973-1.855-1.927-.667-2.209.144-6.383 3.565-7.88a5.884 5.884 0 0 1 2.854-.475c1.06.082 1.784.782 1.857 1.74.095 1.242-1.324 1.94-2.219 1.589-.368-.145-.552-.445-.602-.822-.033-.245-.016-.497-.025-.745-.009-.217 0-.438-.042-.65-.091-.466-.401-.582-.771-.294a1.302 1.302 0 0 0-.342.376c-1.018 1.834-1.48 3.775-1.08 5.873l.02.09c.463 1.75 1.753 2.343 3.383 1.557.184-.089.37-.176.611-.29h.002ZM57.21 29.007c.307-1.297.61-2.502.874-3.714.276-1.26.523-2.526.764-3.794.056-.296.039-.605.057-.944-.686.025-1.068.606-1.621.756a6.211 6.211 0 0 1-.072-.107c.04-.091.056-.21.124-.272.591-.544 1.167-1.11 1.803-1.598.278-.213.677-.32 1.034-.364.82-.1 1.302.293 1.3 1.124 0 .756-.13 1.512-.215 2.266-.028.26-.095.516-.082.798.046-.109.092-.218.14-.326.339-.783.643-1.585 1.031-2.343.215-.42.524-.815.867-1.139.582-.55 1.396-.57 2.057-.134.658.433.9 1.118.659 1.915-.058.19-.144.379-.247.55-.495.827-1.206.974-1.999.425-.795-.55-1-.514-1.49.313-.744 1.256-1.151 2.645-1.529 4.042-.186.69-.332 1.39-.48 2.09-.055.26-.142.483-.404.579-.857.315-1.688.174-2.57-.122ZM66.724 19.639c.148-.094.256-.221.365-.222 1.47-.007 2.409-.828 3.112-2.021.039-.066.086-.128.155-.23.141.01.301.018.49.03.192.738-.124 1.404-.154 2.138l2.888-.19c.161 1.114-.984 2.009-1.981 1.635-.373-.14-.736-.305-1.16-.482-.126.635-.242 1.208-.354 1.782-.215 1.114-.43 2.228-.643 3.342-.008.046-.02.091-.025.137-.067.648.013 1.26.56 1.688.568.443 1.19.361 1.801.09.246-.108.476-.254.713-.383l.095.07c-.039.116-.049.256-.12.344-1.003 1.248-2.24 2.052-3.898 1.962-1.348-.073-2.32-1.062-2.242-2.413.062-1.078.306-2.149.503-3.216.179-.978.413-1.944.6-2.92.123-.64.092-.667-.493-.97-.052-.026-.093-.074-.212-.171Z"/></g><defs><clipPath id="a"><path fill="#fff" d="M.953 0h92.65v48H.954z"/></clipPath></defs></svg>