<svg xmlns="http://www.w3.org/2000/svg" width="110" height="26" fill="none"><g fill="#000" clip-path="url(#a)"><path d="M35.618 23.683c-.259.498-.715.919-1.49.919-.96 0-1.67-.694-1.67-1.678s.688-1.677 1.614-1.677c.927 0 1.512.651 1.512 1.623 0 .06 0 .14-.007.18h-2.526c.035.66.429 1.072 1.076 1.072.524 0 .831-.267 1.055-.706l.436.267Zm-2.552-1.078h1.933c-.047-.572-.36-.885-.933-.885-.572 0-.925.333-1 .885ZM41.554 22.545v1.977h-.564v-1.925c0-.565-.273-.872-.776-.872s-.899.307-.899.872v1.925h-.564v-1.925c0-.565-.265-.872-.77-.872s-.898.307-.898.865v1.93h-.565v-3.195h.565v.398c.224-.306.592-.48 1.028-.48.483 0 .858.18 1.041.572.286-.42.707-.572 1.192-.572.776 0 1.212.5 1.212 1.3M42.624 25.92v-4.592h.564v.512c.245-.347.633-.592 1.198-.592.872 0 1.518.753 1.518 1.678 0 .924-.646 1.677-1.518 1.677-.565 0-.953-.247-1.198-.586v1.905h-.564v-.002Zm2.689-2.996c0-.733-.396-1.197-1.05-1.197-.605 0-1.075.52-1.075 1.197 0 .678.47 1.198 1.076 1.198.653 0 1.049-.459 1.049-1.198ZM46.51 22.924c0-.984.742-1.677 1.675-1.677s1.675.691 1.675 1.677c0 .986-.742 1.678-1.675 1.678s-1.675-.7-1.675-1.678Zm2.757 0c0-.733-.442-1.197-1.082-1.197-.64 0-1.082.46-1.082 1.197 0 .738.442 1.198 1.082 1.198.64 0 1.082-.466 1.082-1.198ZM51.29 24.522l-1.009-3.196h.593l.762 2.63.73-2.63h.564l.729 2.63.754-2.63h.593l-1 3.196h-.66l-.702-2.417-.694 2.417h-.66ZM58.587 23.683c-.26.498-.715.919-1.492.919-.96 0-1.668-.694-1.668-1.678s.687-1.677 1.614-1.677c.926 0 1.511.651 1.511 1.623 0 .06 0 .14-.006.18H56.02c.034.66.43 1.072 1.075 1.072.524 0 .831-.267 1.056-.706l.436.267Zm-2.553-1.078h1.933c-.047-.572-.36-.885-.933-.885-.572 0-.925.333-1 .885ZM59.485 24.522v-3.196h.565v.54c.169-.366.456-.592.925-.592.468 0 .884.347.884.899 0 .14-.02.287-.075.452l-.532-.054c.014-.093.027-.179.027-.259 0-.379-.15-.546-.47-.546-.422 0-.763.473-.763 1.186v1.57h-.564.003ZM65.496 23.683c-.258.498-.715.919-1.49.919-.96 0-1.669-.694-1.669-1.678s.687-1.677 1.613-1.677c.927 0 1.512.651 1.512 1.623 0 .06 0 .14-.006.18H62.93c.034.66.43 1.072 1.075 1.072.524 0 .831-.267 1.056-.706l.435.267Zm-2.552-1.078h1.933c-.047-.572-.36-.885-.933-.885-.572 0-.925.333-1 .885ZM66.15 22.924c0-.932.646-1.678 1.518-1.678.564 0 .953.247 1.198.586v-1.937h.564v4.627h-.564v-.512c-.245.346-.634.591-1.198.591-.872 0-1.518-.752-1.518-1.677Zm2.716 0c0-.68-.47-1.198-1.076-1.198-.654 0-1.049.46-1.049 1.198s.395 1.198 1.05 1.198c.604 0 1.075-.519 1.075-1.198ZM72.759 24.01v.512h-.564v-4.627h.564v1.937c.245-.339.633-.586 1.198-.586.872 0 1.518.746 1.518 1.678 0 .932-.646 1.678-1.518 1.678-.565 0-.953-.247-1.198-.592Zm2.124-1.086c0-.74-.395-1.198-1.048-1.198-.606 0-1.076.52-1.076 1.198 0 .678.47 1.198 1.076 1.198.653 0 1.048-.467 1.048-1.198ZM75.837 25.66l.346-.387c.11.16.265.247.43.247.265 0 .401-.227.572-.665l.129-.333h-.253l-1.238-3.196h.605l1.049 2.743 1.02-2.743h.606l-1.471 3.794c-.265.679-.599.878-1.049.878-.32 0-.599-.113-.75-.338M81.486 24.522v-4.627h1.77c1.035 0 1.585.42 1.585 1.198 0 .5-.32.885-.768.986.64.146 1.02.526 1.02 1.132 0 .852-.592 1.31-1.647 1.31h-1.96Zm.578-2.636h1.205c.633 0 .965-.273.965-.765s-.34-.733-.965-.733h-1.205v1.498Zm0 2.143h1.349c.687 0 1.076-.286 1.076-.818s-.382-.833-1.097-.833h-1.328v1.651ZM86.067 24.522v-3.196h.565v.54c.17-.366.456-.592.925-.592.469 0 .884.347.884.899 0 .14-.02.287-.075.452l-.532-.054c.014-.093.027-.179.027-.259 0-.379-.149-.546-.47-.546-.422 0-.762.473-.762 1.186v1.57h-.565.003ZM88.886 23.59c0-.56.524-1.013 1.253-1.013.442 0 .776.188.987.38v-.421c0-.506-.286-.813-.77-.813-.532 0-.817.26-.94.76l-.51-.14c.169-.68.706-1.098 1.456-1.098s1.328.446 1.328 1.271v2.004h-.564v-.412a1.226 1.226 0 0 1-.987.492c-.729 0-1.252-.387-1.252-1.012m2.239.02v-.12c-.204-.233-.538-.446-.934-.446-.427 0-.707.227-.707.546 0 .319.28.552.707.552.396 0 .716-.227.934-.532ZM92.52 23.47l.525-.094c.055.572.45.766.965.766.408 0 .715-.166.715-.512 0-.273-.156-.373-.572-.447l-.38-.06c-.56-.1-1.09-.273-1.09-.958 0-.56.49-.918 1.285-.918.795 0 1.225.398 1.32.924l-.51.134c-.068-.307-.307-.6-.832-.6-.45 0-.715.166-.715.452 0 .287.171.4.626.473l.387.066c.544.093 1.061.266 1.061.924s-.564.979-1.313.979c-.75 0-1.463-.353-1.477-1.132M99.199 24.042v.486a1.3 1.3 0 0 1-.273.026c-.585 0-.905-.353-1.328-.972l-.395-.58-.443.413v1.105h-.564v-4.626h.564v2.889l1.6-1.458h.741l-1.463 1.305.402.6c.401.599.558.824 1.028.824.041 0 .096-.006.129-.014M102.705 23.683c-.259.498-.715.919-1.492.919-.959 0-1.668-.694-1.668-1.678s.687-1.677 1.614-1.677c.926 0 1.511.651 1.511 1.623 0 .06 0 .14-.006.18h-2.526c.034.66.429 1.072 1.075 1.072.524 0 .831-.267 1.056-.706l.436.267Zm-2.553-1.078h1.933c-.047-.572-.36-.885-.933-.885-.572 0-.925.333-1 .885ZM108.641 22.545v1.977h-.565v-1.925c0-.565-.273-.872-.776-.872s-.898.307-.898.872v1.925h-.565v-1.925c0-.565-.265-.872-.77-.872s-.898.307-.898.865v1.93h-.565v-3.195h.565v.398c.224-.306.593-.48 1.028-.48.483 0 .858.18 1.042.572.285-.42.708-.572 1.191-.572.776 0 1.212.5 1.212 1.3M27.677 15.611l-1.283-3.614h-5.862l-1.239 3.614h-3.45L21.327.573h4.315l5.486 15.038h-3.452Zm-6.283-6.144h4.092l-2.079-5.864-2.013 5.864ZM32.456 15.611v-2.64l7.965-9.455h-7.678V.573h11.86v2.64l-7.966 9.456h8.252v2.942H32.456ZM46.438 8.102c0-4.543 3.342-7.832 7.9-7.832 4.557 0 7.899 3.289 7.899 7.832 0 4.544-3.32 7.811-7.9 7.811s-7.899-3.289-7.899-7.81Zm12.346 0c0-2.942-1.836-4.89-4.446-4.89-2.611 0-4.425 1.948-4.425 4.89 0 2.943 1.858 4.869 4.425 4.869 2.566 0 4.446-1.926 4.446-4.869ZM83.098 15.611V.573h3.296V12.67h7.013v2.942h-10.31ZM94.203 8.102c0-4.543 3.341-7.832 7.899-7.832s7.9 3.289 7.9 7.832c0 4.544-3.32 7.811-7.9 7.811s-7.899-3.289-7.899-7.81Zm12.346 0c0-2.942-1.836-4.89-4.447-4.89-2.61 0-4.424 1.948-4.424 4.89 0 2.943 1.858 4.869 4.424 4.869 2.567 0 4.447-1.926 4.447-4.869ZM7.655 12.97c-2.478 0-4.204-1.99-4.204-4.868s1.748-4.89 4.138-4.89c1.78 0 3.056.992 3.756 3.12l3.353-.533C13.77 2.275 11.34.27 7.722.27 3.252.27 0 3.56 0 8.103c0 4.544 3.164 7.811 7.589 7.811 3.827 0 6.35-1.817 7.323-5.495l-3.407-.542c-.597 2.164-1.88 3.095-3.849 3.095M80.937 8.213l-.34-.125-5.417.168a2.135 2.135 0 0 0-.016-.494l.11-.003 5.67-.175-.007.627v.002ZM80.718 6.252 75.156 7.7a2.398 2.398 0 0 0-.135-.494l5.562-1.45.135.495ZM80.086 4.511l-5.08 2.657a2.459 2.459 0 0 0-.254-.467l5.08-2.658.254.468ZM79.064 2.965l-4.331 3.713a2.393 2.393 0 0 0-.368-.413l4.33-3.712.369.412ZM77.717 1.684l-3.36 4.574a2.357 2.357 0 0 0-.472-.328l.03-.04 3.333-4.536.47.33h-.001Z"/><path d="m76.106.728-2.191 5.163-.02.046s-.007-.003-.01-.006a2.459 2.459 0 0 0-.51-.207l-.033-.01.057-.133L75.555.503l.551.224v.001Z"/><path d="M74.311.16 73.4 5.582l-.024.143c-.01-.005-.022-.007-.033-.01a2.431 2.431 0 0 0-.531-.084l-.044-.001.033-.192.903-5.378.608.098Z"/><path d="m72.81 5.63-.043-.001-.093-.002a2.63 2.63 0 0 0-.428.036c-.022.004-.045.007-.067.012l-.02-.296-.353-5.338.633-.04.36 5.438.012.193v-.001Z"/><path d="m72.248 5.663-.068.012a2.519 2.519 0 0 0-.555.178l-.116-.376L69.948.44l.625-.184 1.587 5.124.088.284Z"/><path d="M71.709 5.816a2.337 2.337 0 0 0-.58.333l-.237-.4-2.66-4.498.582-.33 2.695 4.556.201.34h-.001Z"/><path d="M71.216 6.086a2.418 2.418 0 0 0-.502.466l-.38-.397-3.579-3.735.504-.462 3.634 3.79.323.338Z"/><path d="M70.796 6.457a2.408 2.408 0 0 0-.323.45c-.024.042-.047.085-.067.13l-.543-.356-4.277-2.799.395-.576 4.356 2.85.46.303-.001-.002Z"/><path d="M70.473 6.906a2.407 2.407 0 0 0-.25.667l-.699-.256-4.73-1.74.255-.666 4.814 1.771.612.226-.002-.002Z"/><path d="M70.261 7.41c-.015.055-.03.11-.04.163a2.219 2.219 0 0 0-.052.384c-.002.041-.003.083-.003.124v.054l-.795-.102-4.96-.631.098-.724 5.014.638.738.093v.002Z"/><path d="m70.247 8.703-.906.088-4.878.466-.074-.745 4.982-.477.798-.077-.003.124v.054c.001.126.014.249.036.368.01.068.025.135.044.2"/><path d="m70.457 9.228-.94.314-4.56 1.515-.252-.725 4.638-1.541.862-.287a2.549 2.549 0 0 0 .155.523c.03.069.063.136.099.202"/><path d="m70.782 9.692-.9.55-4.028 2.457-.425-.665 4.086-2.493.842-.516a2.416 2.416 0 0 0 .274.482c.047.064.097.127.15.187"/><path d="m71.213 10.076-.81.792-3.298 3.231-.582-.567 3.36-3.29.75-.737a2.444 2.444 0 0 0 .378.41c.066.057.131.11.204.16"/><path d="m71.723 10.352-.653 1.026-2.416 3.798-.713-.434 2.463-3.874.605-.952a2.634 2.634 0 0 0 .456.316c.084.045.17.084.258.12Z"/><path d="m72.276 10.505-.42 1.218-1.44 4.163-.813-.269 1.466-4.24.395-1.145a2.621 2.621 0 0 0 .812.273Z"/><path d="m72.855 10.53-.132 1.34-.425 4.315-.873-.081.43-4.38.128-1.282a2.53 2.53 0 0 0 .561.092 2.36 2.36 0 0 0 .312-.003"/><path d="m74.189 16.05-.89.113-.576-4.295-.18-1.335c.043.001.087.003.131.003.06 0 .121-.002.179-.006a2.567 2.567 0 0 0 .577-.107l.193 1.428.564 4.2.002-.001Z"/><path d="m76.01 15.498-.855.316-1.53-3.963-.523-1.35a2.572 2.572 0 0 0 .858-.312l.549 1.42 1.502 3.887v.002Z"/><path d="m77.656 14.556-.775.51-2.372-3.455-.867-1.262a2.547 2.547 0 0 0 .779-.503l.903 1.316 2.332 3.396v-.002Z"/><path d="m79.028 13.27-.65.68-3.054-2.79-1.187-1.084c.1-.07.196-.147.284-.232a2.321 2.321 0 0 0 .372-.445l1.245 1.138 2.99 2.733Z"/><path d="m80.07 11.715-.484.822-3.549-2.001-1.478-.833a2.321 2.321 0 0 0 .323-.45c.064-.119.12-.241.166-.368l1.548.874 3.474 1.958v-.002Z"/><path d="m80.724 9.962-.285.927-3.843-1.132-1.714-.504a2.613 2.613 0 0 0 .213-.514c.038-.132.064-.27.079-.411l1.782.524 3.768 1.11Z"/><path d="m80.943 8.111-.062.983-3.925-.242-1.86-.115c.037-.132.063-.27.078-.41l.006-.071a2.135 2.135 0 0 0-.016-.494v-.01l.111.007 5.322.33.348.021-.002.002Z"/></g><defs><clipPath id="a"><path fill="#fff" d="M0 0h110v26H0z"/></clipPath></defs></svg>