<svg xmlns="http://www.w3.org/2000/svg" width="83" height="28" fill="none"><g fill="#000" clip-path="url(#a)"><path d="M69.452 23.196A4.808 4.808 0 0 1 64.65 28h-5.854a4.808 4.808 0 0 1-4.8-4.804v-6.153a4.808 4.808 0 0 1 4.8-4.803h5.854a4.808 4.808 0 0 1 4.8 4.803v6.153Zm-5.163-7.304h-5.13a1.32 1.32 0 0 0-1.316 1.316v5.857a1.32 1.32 0 0 0 1.316 1.316h5.13a1.32 1.32 0 0 0 1.315-1.316v-5.89c0-.69-.592-1.283-1.315-1.283Zm-51.135 8.127c-2.467.263-4.538.46-8.024.164-1.151-.099-1.282-1.02-1.282-1.184v-5.956c0-1.085.953-1.085 1.446-1.118 1.81-.165 7.86.164 7.86.164v-3.323c-2.105-.395-5.985-.658-8.813-.46-1.217.098-2.072.46-2.73.954A4.015 4.015 0 0 0 .33 15.102C-.033 16.122 0 19.05 0 19.412v2.04c0 1.777.099 2.994.493 3.916 1.02 2.336 3.124 2.402 3.848 2.5 2.335.33 8.813-.394 8.813-.394v-3.455Zm14.83-11.78v10.793a1.32 1.32 0 0 1-1.315 1.316h-5.13a1.32 1.32 0 0 1-1.315-1.316V12.24h-3.815v11.483A4.268 4.268 0 0 0 20.684 28h6.479c1.578 0 2.005-.395 2.663-1.02.099-.099.395-.428.493-.494l.494-.493c.624-.625 1.02-1.086 1.02-2.665V12.24h-3.848Zm19.304 4.936v5.857a1.32 1.32 0 0 1-1.316 1.316H39.89a1.32 1.32 0 0 1-1.316-1.316v-5.857a1.32 1.32 0 0 1 1.316-1.316h6.083c.724.033 1.316.625 1.316 1.316Zm-.592-4.935h-5.032c-1.907 0-1.578-.066-3.058 1.118v-6.58H34.76v16.517c0 1.58.394 2.007 1.02 2.665.098.099.427.395.492.493l.494.494c.624.625 1.085 1.02 2.663 1.02h7.268a4.443 4.443 0 0 0 4.44-4.442v-6.843c0-2.435-2.007-4.442-4.44-4.442Z"/><path fill-rule="evenodd" d="M81.06 0h-7.728c-1.085 0-1.94.855-1.94 1.941v7.732c0 1.086.888 1.942 1.94 1.942h7.728c1.085 0 1.94-.889 1.94-1.942V1.941A1.944 1.944 0 0 0 81.06 0Zm-7.827 5.79h-.888v3.85h.888V5.79Zm4.407 2.501h.197v.33c0 .016-.008.04-.016.065s-.017.05-.017.066v.033a.64.64 0 0 1-.592.362c-.263 0-.427-.132-.427-.362 0-.263.23-.395.592-.46.066-.034.164-.034.263-.034Zm.986-.329c0-.723-.361-1.283-1.348-1.283-.559 0-.954.132-1.118.296l.165.56c.197-.132.526-.23.855-.23.526 0 .624.263.624.394v.033c-1.15 0-1.874.362-1.874 1.119 0 .46.329.888.986.888.362 0 .691-.131.888-.362l.099.296h.723v-1.71Zm2.467.494V6.679h.888v2.896h-.724l-.099-.395a.577.577 0 0 1-.131.164c-.066.066-.132.132-.197.165-.066.066-.165.099-.263.131-.1.033-.23.066-.362.066-.165 0-.296-.033-.428-.066a1.18 1.18 0 0 1-.329-.23c-.098-.099-.164-.23-.23-.395a1.594 1.594 0 0 1-.098-.592V6.745h.887v1.546c0 .461.165.724.527.724.263 0 .46-.197.526-.362.033-.065.033-.131.033-.197Zm-7.005-1.711v-.954h.888v.954h.56v.658h-.56v1.02c0 .362.099.56.395.56.062 0 .112-.014.148-.024a.222.222 0 0 1 .05-.01v.659c-.132.065-.231.098-.494.098-.329 0-.592-.098-.724-.263-.197-.165-.263-.46-.263-.855V7.403h-.394v-.658h.394Zm6.117-.165.559-.79h.822l-.756.79h-.625Z" clip-rule="evenodd"/></g><defs><clipPath id="a"><path fill="#fff" d="M0 0h83v28H0z"/></clipPath></defs></svg>