<svg width="98" height="26" fill="none" xmlns="http://www.w3.org/2000/svg"><g clip-path="url(#a)" fill="#1D1D1B"><path d="M56.556.823c-4.341 0-6.292 1.748-6.292 5.334V9.99c0 2.379.77 3.961 2.674 4.702l-3.966 10.466h4.607l.266-.74s0-.028.027-.056l3.307-9.011h1.108v9.78h4.286V.823h-6.017Zm1.667 11.28h-1.694c-1.484 0-2.061-.841-2.061-2.085V6.156c0-1.217.586-2.059 2.06-2.059h1.695v8.005Zm-53.305 0H.66V.842h5.954c4.341 0 6.292 1.747 6.292 5.333v5.92H8.673V6.147c0-1.217-.586-2.059-2.06-2.059H4.918v8.015ZM0 12.735h4.286v9.78h1.695c1.483 0 2.06-.842 2.06-2.087v-7.684h4.232v7.712c0 3.623-1.96 5.388-6.292 5.388H0v-13.11ZM19.81.823h-4.286v11.253h4.287V.823Zm-.659 11.912h-4.286v13.082h4.286V12.735Zm11.028-.632h-6.247C22.265 10.411 21.9 8.856 21.9 5.864c0-3.485 1.905-5.205 6.164-5.205 4.259 0 6.164 1.72 6.164 5.205V9.67h-4.232V5.864c0-1.134-.53-1.93-1.932-1.93-1.401 0-1.933.768-1.933 1.93 0 1.876.266 2.8 1.722 4.099l2.327 2.14Zm-6.906.632h6.264l1.457 1.317c2.115 1.876 2.592 3.458 2.592 6.733 0 3.486-1.933 5.206-6.164 5.206-4.232 0-6.164-1.72-6.164-5.206v-3.86h4.231v3.833c0 1.134.531 1.93 1.933 1.93 1.401 0 1.932-.768 1.932-1.93 0-1.875-.265-2.8-1.722-4.099l-3.837-3.43a3.486 3.486 0 0 1-.531-.503l.009.009ZM48.853.823v3.303h-4.579v7.977h-4.286V4.126h-4.58V.823h13.446Zm-5.239 11.912h-4.286v13.082h4.286V12.735Zm46.289-1.29h-4.286v-6.24C85.645 1.72 87.55 0 91.81 0 96.067 0 98 1.72 98 5.205v6.24h-4.286v-6.24c0-1.134-.532-1.93-1.933-1.93s-1.878.769-1.878 1.93v6.24Zm-4.918 8.691v-8.032h4.287v8.032c0 1.134.503 1.93 1.877 1.93s1.933-.768 1.933-1.93v-8.032h4.259v8.032c0 3.486-1.96 5.205-6.192 5.205-4.231 0-6.164-1.72-6.164-5.205ZM70.01.156h-4.286v11.252h4.286V.156Zm-.659 11.948h-4.286v13.082h4.286V12.104Zm10.743-.659h-4.286V3.458h-4.58V.156h13.437v3.302h-4.58v7.978l.01.009Zm-.659.659h-4.286v13.082h4.286V12.104Z"/></g><defs><clipPath id="a"><path fill="#fff" d="M0 0h98v26H0z"/></clipPath></defs></svg>
