<svg xmlns="http://www.w3.org/2000/svg" width="95" height="59" fill="none"><g clip-path="url(#a)" fill="#231F20"><path d="M3.63 57.67H1.699l-.475 1.14H.09l2.63-6.054h.064l2.63 6.054H4.082l-.452-1.14Zm-.38-.965-.562-1.416-.586 1.416h1.149Zm7.463-3.719-2.186 4.012v1.812h-1.15v-1.812l-2.146-4.012H6.65l1.339 2.69 1.307-2.69h1.418Zm3.279 4.684H12.06l-.475 1.14h-1.132l2.63-6.054h.063l2.63 6.054h-1.33l-.453-1.14Zm-.38-.965-.562-1.416-.587 1.416h1.15Zm10.1-3.616v.736h-2.954v1.74h2.637v.736h-2.637v1.765h3.065v.744h-3.834v-5.722h3.723Zm4.848 4.218h-2.202l-.61 1.503h-.76l2.503-5.958h.048l2.502 5.958h-.887l-.594-1.503Zm-.261-.665-.816-2.09-.848 2.09H28.3Zm6.361 2.168-1.347-2.113a1.72 1.72 0 0 1-.19.008h-.848v2.105h-.768v-5.72h1.528c.391 0 .74.069 1.047.206.306.137.546.339.72.605.175.267.262.587.262.961 0 .354-.078.678-.234.974-.155.295-.395.52-.717.672l1.442 2.303h-.895Zm-.662-3.173a1.12 1.12 0 0 0 .273-.744c0-.169-.038-.335-.114-.498a.977.977 0 0 0-.365-.408c-.166-.108-.376-.162-.63-.162h-.886v2.136h.831c.412 0 .709-.108.891-.324Zm6.437-2.548v.736h-1.537v4.985h-.768v-4.985h-1.498v-.736h3.803Zm6.163 5.721h-.769v-2.509h-3.003v2.509h-.767v-5.722h.767v2.477h3.003v-2.477h.769v5.722Zm7.94-5.254c.352.31.527.746.527 1.305 0 .322-.064.623-.194.902-.13.28-.338.507-.626.68-.287.175-.65.262-1.088.262h-.849v2.105h-.767v-5.722h1.536c.623 0 1.11.156 1.461.467Zm-.712 2.231a1.01 1.01 0 0 0 .368-.423c.074-.166.111-.329.111-.487 0-.274-.09-.518-.27-.732-.18-.214-.46-.32-.84-.32h-.887v2.136h.848c.274 0 .498-.058.67-.174Zm5.272 1.52h-2.202l-.61 1.503h-.762l2.504-5.958h.047l2.504 5.958h-.888l-.593-1.503Zm-.262-.665-.815-2.09-.849 2.09h1.664Zm6.361 2.168-1.347-2.113a1.695 1.695 0 0 1-.19.008h-.848v2.105h-.767v-5.72h1.529c.39 0 .739.069 1.045.206.306.137.547.339.72.605.175.267.262.587.262.961 0 .354-.078.678-.233.974-.156.295-.395.52-.717.672l1.442 2.303h-.896Zm-.661-3.173a1.12 1.12 0 0 0 .273-.744c0-.169-.038-.335-.114-.498a.982.982 0 0 0-.365-.408c-.167-.108-.376-.162-.63-.162h-.887v2.136h.831c.413 0 .71-.108.892-.324Zm6.436-2.548v.736h-1.537v4.985h-.768v-4.985h-1.498v-.736h3.803Zm6.614 0V59h-.023l-4.207-4.265.017 4.076h-.777v-5.896h.04l4.198 4.313-.016-4.139h.768Zm5.768 0v.736h-2.955v1.74h2.638v.736h-2.638v1.765h3.066v.744H79.63v-5.722h3.724Zm4.998 5.721-1.347-2.113a1.695 1.695 0 0 1-.19.008h-.848v2.105H85.2v-5.72h1.529c.39 0 .739.069 1.045.206.306.137.546.339.72.605.175.267.262.587.262.961 0 .354-.078.678-.233.974-.156.295-.395.52-.717.672l1.442 2.303h-.896Zm-.661-3.173a1.12 1.12 0 0 0 .273-.744c0-.169-.038-.335-.115-.498a.982.982 0 0 0-.364-.408c-.167-.108-.376-.162-.63-.162h-.887v2.136h.831c.412 0 .71-.108.892-.324Zm5.438-1.797a2.338 2.338 0 0 0-.658-.102c-.312 0-.558.07-.74.21a.684.684 0 0 0-.274.573c0 .242.107.431.321.581.214.15.52.3.915.448.296.105.545.22.749.344.203.124.372.295.506.514.135.22.203.498.203.835 0 .306-.077.583-.23.831a1.583 1.583 0 0 1-.654.586 2.178 2.178 0 0 1-.993.214c-.354 0-.695-.057-1.023-.17a3.495 3.495 0 0 1-.864-.432l.341-.61c.196.149.43.274.706.377.274.102.53.154.768.154.306 0 .574-.08.804-.237.23-.159.345-.393.345-.705a.768.768 0 0 0-.289-.629c-.193-.155-.464-.302-.812-.439a6.54 6.54 0 0 1-.805-.356 1.7 1.7 0 0 1-.55-.479c-.153-.203-.23-.458-.23-.764 0-.448.157-.81.472-1.088.314-.277.722-.423 1.224-.439.617 0 1.19.153 1.719.46l-.293.593a3.527 3.527 0 0 0-.657-.27h-.001ZM4.042.2c.233 0 1.36.064 2.834-.006 1.58-.074 2.562.008 3.904.03 1.753.027 3.421.08 4.405.176 1.141.111.504 2.297-.279 5.044-.608 2.134-1.246 4.805-1.58 5.831-1.383 4.244-1.67 6.28-3.624 11.745-.444 1.243-1.761 3.69-2.305 5.217L6.14 31.778c-1.08 3.05-2.54 7.303-5.254 7.303-.477 0-.886.433-.886-4.332 0-1.638.12-1.562.12-6.273 0-2.09.323-3.662.112-7.84-.137-2.711-.015-4.666 0-7.194C.25 10.598.068 4.984.198 3.514.511-.018 2.475.197 4.042.2Zm40.106 19.85a15.518 15.518 0 0 0-1.586-1.744c-.965-.904-2.024-1.647-3.71-2.929a73.466 73.466 0 0 1-2.774-2.2c-1.12-.938-2.825-2.767-3.856-3.494-1.856-1.308-3.431-3.814-4.9-5.627-.91-1.124-2.271-1.798-3.036-.575-.913 1.46-1.253 6.83.208 9.796.223.453 1.099 2.195 2.294 4.57.745 1.48 1.75 3.145 2.527 5.02.84 2.025 1.87 3.712 2.791 5.538l4.074 8.079a3.94 3.94 0 0 0 3.448 2.166c.686.013 1.474.022 2.3.022 3.77 0 4.194.564 4.194-3.964 0-1.58.177-2.315.066-3.69-.11-1.36.009-2.047-.027-3.876-.07-3.575-.408-5.065-2.013-7.092ZM40.772.4C37.705.369 36.22.15 35.97.957c-.278.897 1.173 2.666 2.479 3.806 1.332 1.163 2.57 2.508 3.555 3.156.748.492 2.181 1.916 3.198 2.693 2.61 1.995 3.434 2.44 5.513-.256.988-1.28 1.944-2.26 2.591-3.357.965-1.633 1.59-2.038 2.452-3.118 1.62-2.028 2.46-2.761 2.23-3.157-.34-.588-1.423-.378-4.423-.218-3.221.173-4.326.05-6.443.049-3.625-.002-4.99-.141-6.35-.155Zm30.405.013c-1.149-.542-1.792-.226-2.8.55a41.306 41.306 0 0 0-3.917 3.43c-1.223 1.221-1.532 2.056-3.02 3.766-.89 1.024-1.544 2.583-2.68 4.62-.532.957-.695 1.777-1.338 2.807-.694 1.112-.831 2.32-1.037 3.173a34.27 34.27 0 0 0-.826 4.821c-.077.761-.02 1.846-.192 3.017-.214 1.451-.081 2.934-.059 4.298.024 1.393-.099 2.837-.022 4.092.115 1.88.167 3.685 1.067 3.685 3.717 0 4.368-1.556 5.111-3.923.332-1.058 1.29-3.45 1.93-6.114.493-2.048 1.074-3.757 1.544-5.146.53-1.568.886-2.313 1.141-3.006.434-1.175.884-2.147 1.289-3.138.672-1.644 1.013-2.182 1.618-3.51.472-1.036.894-2.267 1.596-3.674.618-1.237.865-2.214 1.129-3.05.792-2.508.688-3.508.688-4.065 0-1.804-.465-2.275-1.222-2.633ZM91.914.245c-4.807-.398-7.532-.364-9.665.495-.346.14-.698.57-1.013 2.026-.202.928-.577 2.05-.83 2.756-.534 1.49-.73 3.165-.935 4.44-.394 2.447.804 4.811 1.905 7.356.28.648.634 1.313.979 2.05.412.878.891 1.7 1.359 2.77.368.844.79 1.941 1.239 2.966.502 1.148.906 2.404 1.306 3.635 1.14 3.518 2.495 6.095 3 7.324.743 1.81 1.477 3.142 4.59 3.142 1.045 0 1.075-.949 1.116-1.903.061-1.432.025-4.66.016-8.611-.016-7.078-.43-12.655-.388-18.219.028-3.631.22-7.07.151-7.933-.087-1.076-.313-2.086-2.83-2.294ZM13.388 38.246c-.132-.226.036-.969.356-1.903.326-.95.811-2.1 1.3-3.104.546-1.123 1.393-2.43 1.853-3.55.459-1.117.866-2.066 1.107-2.552.669-1.352 1.228-2.338 1.609-2.767a.436.436 0 0 1 .641-.002c.737.784 2.268 3.421 3.48 6.049 1.73 3.747 2.912 6.028 2.107 6.993-.395.474-.952.882-3.369.834-1.02-.02-2.234.104-3.616.126-.555.008-1.153-.078-2.268-.047-1.333.036-3.087.116-3.2-.077Zm63.037-11.512c-.418-1.34-.836-1.857-1.254-1.872-.164-.006-.874-.419-2.408 2.784a38 38 0 0 0-1.626 3.9c-.526 1.48-1.197 2.93-1.487 3.62-1.315 3.134-1.208 3.515 1.43 3.489 5.493-.054 8.01.086 8.46-.477.322-.4-.132-1.124-.41-2.176-.096-.359-.514-1.729-.82-3.097-.296-1.313-.832-2.759-1.255-4.136-.224-.73-.44-1.427-.63-2.035Z"/></g><defs><clipPath id="a"><path fill="#fff" d="M0 0h95v59H0z"/></clipPath></defs></svg>
