<svg xmlns="http://www.w3.org/2000/svg" width="78" height="51" fill="none"><path d="m32.615 49.535-.133.522h-.019l-.139-.522L31.31 45.9h-.991l1.609 5.012h1.041l1.609-5.012h-.928l-1.034 3.635ZM23.037 45.9h-.909v5.012h2.915l.025-.818H23.03V45.9h.007Zm-19.27 1.327c0-.34.208-.61.852-.61.372 0 .738.082 1.116.208l.114-.761c-.347-.157-.814-.245-1.28-.245-1.143 0-1.66.628-1.66 1.452 0 1.629 2.246 1.283 2.246 2.245 0 .446-.278.692-.87.692a2.53 2.53 0 0 1-1.275-.346l-.126.78c.384.22.877.351 1.425.351 1.098 0 1.717-.565 1.717-1.534 0-1.666-2.247-1.301-2.247-2.232m9.54-1.327-1.646 5.012h.946l.31-1.088h1.842l.31 1.088h1.002L14.418 45.9H13.32Zm-.176 3.163.574-1.968.139-.528h.019l.132.528.55 1.968h-1.414Zm49.12-3.238c-1.444 0-2.031.723-2.031 2.584 0 1.861.606 2.59 2.032 2.59 1.426 0 2.031-.697 2.031-2.59 0-1.892-.586-2.584-2.031-2.584Zm0 4.364c-.794 0-1.09-.334-1.09-1.78s.296-1.773 1.09-1.773c.796 0 1.086.327 1.086 1.773s-.284 1.78-1.085 1.78Zm-10.252-4.282h-1.679v5.011h1.704c1.407 0 2.1-.679 2.1-2.534 0-1.855-.624-2.477-2.12-2.477m.007 4.206h-.789v-3.395h.783c.852 0 1.18.302 1.18 1.66 0 1.459-.36 1.735-1.174 1.735Zm21.926-2.722c0-1.038-.549-1.49-1.697-1.49h-1.647v5.01h.902v-2.018h.77l.94 2.019h1.041l-1.167-2.188c.562-.132.858-.598.858-1.333Zm-1.703.817h-.739v-1.547h.764c.53 0 .757.183.757.761 0 .579-.234.78-.776.78m-30.728-2.308-1.647 5.012h.947l.309-1.088h1.842l.31 1.088h1.003l-1.666-5.012h-1.098Zm-.177 3.163.574-1.968.14-.528h.018l.133.528.549 1.968h-1.414ZM25.068 8.054c.196.12.385.246.574.371l.158.107c.234.157.442.308.637.453l.064.05c.189.145.372.29.555.44l.145.12c.22.182.41.352.587.515l.025.026c.164.157.34.327.53.522l.133.138c.36.37.7.76 1.022 1.163l.12.151c.151.189.296.384.448.597l.018.025c.133.19.272.397.43.636.037.056.069.107.1.163.12.195.24.39.354.585l.05.082c.12.207.234.427.36.666l.088.17c.101.195.19.396.284.59l.05.114c.064.145.127.29.19.447v-4.961c0-2.465-2.013-4.465-4.48-4.465a4.44 4.44 0 0 0-2.87 1.038c.113.063.226.132.334.2l.1.064-.006-.007ZM77.994 22.09c0-.038-.02-.409-.02-.409 0-.063-.005-.12-.012-.182a.933.933 0 0 0-.013-.139l-.044-.446c0-.057-.012-.107-.019-.164l-.018-.17c-.013-.081-.02-.17-.032-.25l-.057-.34-.038-.24a13.91 13.91 0 0 1-.075-.383s-.026-.138-.038-.182c-.013-.063-.032-.126-.044-.189l-.089-.37-.057-.19-.037-.144c-.02-.076-.045-.151-.063-.22l-.108-.333c-.025-.076-.044-.145-.07-.214-.024-.07-.05-.132-.069-.201l-.056-.151c-.026-.063-.044-.126-.07-.189a4.202 4.202 0 0 0-.076-.195l-.05-.12c-.031-.069-.057-.144-.088-.213a2.899 2.899 0 0 1-.089-.208l-.031-.075-.108-.239c-.037-.075-.069-.15-.107-.22l-.025-.057c-.038-.075-.076-.157-.114-.232-.037-.076-.082-.151-.12-.227l-.012-.025-.132-.245a5.2 5.2 0 0 0-.146-.252c-.05-.081-.094-.163-.145-.239-.05-.075-.094-.157-.151-.245a7.912 7.912 0 0 1-.152-.239c-.056-.081-.107-.163-.164-.239-.05-.075-.107-.15-.157-.226a5.813 5.813 0 0 0-.177-.239c-.057-.075-.107-.15-.164-.22-.063-.075-.12-.157-.183-.233a2.893 2.893 0 0 0-.177-.213l-.19-.227a5.326 5.326 0 0 0-.182-.207c-.063-.076-.133-.145-.202-.22-.063-.07-.126-.132-.19-.202-.069-.069-.138-.144-.207-.213l-.196-.195c-.07-.07-.145-.139-.215-.208-.069-.063-.132-.125-.201-.188-.076-.07-.146-.132-.221-.202-.07-.062-.14-.119-.209-.176-.075-.063-.151-.132-.233-.194-.07-.057-.145-.114-.215-.17-.082-.063-.157-.126-.24-.183-.075-.056-.15-.107-.22-.163-.082-.057-.164-.12-.246-.176a4.917 4.917 0 0 0-.227-.157c-.082-.057-.17-.114-.253-.17a7.85 7.85 0 0 0-.24-.151l-.258-.157c-.082-.05-.164-.095-.246-.145-.089-.05-.17-.1-.259-.144-.044-.026-.271-.145-.271-.145a9.115 9.115 0 0 1-.253-.132l-.07-.032-.359-.17-.176-.081c-.196-.088-.392-.17-.587-.252l-.076-.031-.076-.031a10.77 10.77 0 0 0-.48-.177c-.075-.025-.157-.056-.239-.081l-.031-.013c-.152-.05-.297-.1-.449-.144a3.775 3.775 0 0 0-.252-.07l-.082-.025a9.299 9.299 0 0 0-.738-.182l-.114-.025c-.094-.02-.195-.044-.29-.063-.126-.025-.259-.044-.385-.07l-.151-.024-.228-.038c-.15-.025-.296-.038-.447-.057l-.152-.019a17.192 17.192 0 0 0-.726-.063h-.107c-.044-.012-.094-.012-.139-.018a17.232 17.232 0 0 0-.8-.02c-.222 0-.455 0-.72.02-.057 0-.12 0-.177.012h-.082l-.442.038c-.107.006-.214.019-.328.031-.12.013-.246.025-.366.044h-.063c-.1.02-.195.032-.296.05l-.202.038-.082.013a10.59 10.59 0 0 0-.776.157s-.17.038-.215.05c-.139.032-.277.07-.423.107-.082.025-.17.044-.252.07-.107.03-.215.062-.322.094l-.151.05c-.46.145-.865.296-1.243.453l-.486.201c.555.88.877 1.93.877 3.043v7.439a6.6 6.6 0 0 1 .492-.617l.593-.666v.076a7.038 7.038 0 0 1 6.058-1.629h.031c.082.025.17.044.252.063.082.019.164.044.24.063 0 0 .108.031.145.044.152.044.297.094.455.157a7.145 7.145 0 0 1 3.874 3.64 6.984 6.984 0 0 1 .126 5.502 4.11 4.11 0 0 1-.107.245l-.02.045c-.018.037-.03.075-.05.119a6.89 6.89 0 0 1-.195.371l-.07.12c-.063.113-.132.22-.202.326l-.037.063a7.927 7.927 0 0 1-.272.371l-.057.076a7.36 7.36 0 0 1-.637.698l-.063.063c-.114.107-.233.207-.353.314l-.025.025c-.108.088-.221.17-.348.264-.031.019-.063.044-.088.063-.113.082-.24.157-.36.233a6.169 6.169 0 0 1-.132.075c-.082.05-.17.095-.259.139l-.031.018-.145.076c-.108.05-.221.1-.335.15l-.246.095a6.83 6.83 0 0 1-1.073.308c-.46.094-.933.139-1.407.139a6.99 6.99 0 0 1-4.19-1.384 5.408 5.408 0 0 1-.466-.383v.075l-.593-.666a7.256 7.256 0 0 1-.846-1.17 2.39 2.39 0 0 1-.044.208l-.076.34-.012.062a5.17 5.17 0 0 1-.089.352l-.075.27-.026.095c-.063.22-.132.446-.208.666l-.012.044-.114.333a7.41 7.41 0 0 1-.126.34v.025a9.44 9.44 0 0 0-.158.377c-.05.114-.095.227-.145.34-.057.132-.12.27-.183.402l-.032.07c-.037.075-.069.157-.113.232a9.89 9.89 0 0 1-.303.572 16.892 16.892 0 0 1-.448.773 2.526 2.526 0 0 0-.107.17l-.044.063c-.095.145-.19.296-.29.44-.057.082-.114.158-.165.24-.107.144-.208.289-.321.433l-.038.05-.12.158c-.145.188-.303.377-.454.56l-.051.056a13.577 13.577 0 0 1-.719.787 15.86 15.86 0 0 0 5.691 3.231l.101.031a15.86 15.86 0 0 0 1.71.434c.12.025.24.044.36.063h.025l.309.057c.114.019.227.031.34.044.12.019.247.031.367.044h.031c.089.012.183.025.272.031.145.013.29.025.441.032 0 0 .19.012.246.012.227.013.46.02.713.02H62.1c.252 0 .517-.007.788-.02.057 0 .114-.006.164-.012l.152-.013c.151-.013.303-.019.46-.038.082-.006.158-.018.24-.025l.158-.019c.126-.012.246-.031.372-.05.095-.013.19-.031.278-.044l.076-.013c.132-.025.265-.044.403-.069l.366-.075c.126-.025.253-.057.379-.088l.366-.095a6.28 6.28 0 0 0 .366-.106c.126-.038.246-.076.366-.114.12-.037.24-.075.353-.12l.366-.131.335-.132c.126-.05.252-.1.372-.157.1-.044.208-.095.309-.139.132-.056.259-.12.385-.182.076-.038.158-.082.233-.12l.038-.018a9.355 9.355 0 0 0 .625-.346c.151-.088.303-.176.448-.264l.145-.095c.17-.107.34-.22.505-.333l.056-.044a16.007 16.007 0 0 0 3.85-3.779l.075-.107c.057-.081.114-.157.17-.245l.272-.409c.05-.081.107-.163.157-.245a7.5 7.5 0 0 0 .177-.302l.082-.138c.044-.082.095-.157.139-.239.057-.107.114-.207.164-.314l.076-.151c.038-.076.082-.157.12-.233.05-.1.094-.201.138-.308l.076-.17.108-.239c.044-.1.081-.2.12-.308l.075-.195c.032-.075.063-.15.088-.232.038-.1.07-.208.108-.308l.07-.208.075-.226.094-.321.057-.208c.02-.075.044-.15.063-.226l.076-.32.05-.227c.02-.075.032-.145.051-.22.025-.113.044-.226.063-.34l.044-.232c.013-.07.026-.138.032-.208.019-.125.031-.245.05-.37l.025-.22.02-.177v-.025a5.48 5.48 0 0 0 .037-.453l.025-.345c.013-.27.02-.541.02-.811 0-.202 0-.397-.013-.598M46.427 7.25l.094-.095c.126-.125.246-.232.366-.333l.019-.013a5.21 5.21 0 0 1 .372-.276l.114-.076c.113-.075.233-.15.36-.213l.075-.044c.139-.076.284-.145.442-.214l.12-.05c.126-.05.246-.095.378-.139l.12-.038c.164-.05.328-.094.486-.125l.095-.02a4.9 4.9 0 0 1 .422-.062c.045 0 .095-.013.14-.013a5.762 5.762 0 0 1 5.004 2.113v-3.15C55.032 2.037 53.019.038 50.552.038s-4.48 2.005-4.48 4.464v3.15l.088-.1c.089-.101.177-.202.265-.296M23.074 23.283c.108 2.886.985 5.69 2.556 8.112.088.132.177.27.271.402l.032.05c.088.12.17.245.265.365l.056.075.253.327.082.101c.082.1.164.195.246.295l.1.126c.077.088.159.176.24.264l.127.139c.076.081.151.163.233.245l.145.15c.076.076.152.152.228.22 0 0 .12.114.164.158.07.063.139.132.22.201l.183.164c.076.063.146.126.221.188.063.057.133.107.196.164.07.056.145.12.22.176.07.057.14.107.209.163.07.057.145.114.22.164l.026.019c.063.05.133.094.202.144.07.05.133.095.22.151.076.05.159.107.234.158l.221.144.246.151c.076.044.152.094.227.138.082.05.164.095.253.145.038.019.075.044.113.063l.095-.151c.032-.05.057-.094.082-.145.031-.063.063-.125.095-.182l.075-.15c.026-.064.057-.133.082-.196l.013-.031c.019-.038.031-.082.044-.12.025-.069.044-.138.063-.207l.013-.05c.013-.038.019-.07.031-.101.02-.07.032-.139.05-.22l.014-.057.018-.088c.013-.082.026-.163.032-.251v-.063s.013-.044.013-.063c.012-.126.019-.252.019-.377V22.73c0-.189 0-.37-.013-.553l-.013-.245c0-.101-.006-.208-.019-.309 0-.044-.025-.289-.025-.289a3.245 3.245 0 0 0-.025-.258c0-.05-.038-.327-.038-.327-.006-.075-.019-.144-.025-.22-.006-.056-.02-.113-.026-.17l-.025-.163c-.012-.07-.019-.138-.031-.207-.013-.057-.02-.114-.032-.17l-.031-.17-.038-.195a1.894 1.894 0 0 0-.044-.182l-.032-.157a2.033 2.033 0 0 0-.044-.189c-.013-.063-.032-.126-.044-.182l-.044-.158c-.013-.063-.032-.119-.045-.176l-.056-.188-.044-.151c-.02-.057-.032-.113-.051-.176a3.93 3.93 0 0 0-.07-.201l-.025-.07-.082-.245-.075-.195-.05-.132c-.026-.063-.045-.12-.07-.176-.026-.069-.057-.138-.082-.207l-.026-.057s-.075-.182-.1-.233a2.66 2.66 0 0 0-.089-.188s-.113-.245-.139-.296c-.031-.069-.063-.132-.094-.195l-.057-.12c-.025-.056-.057-.106-.082-.163-.032-.069-.07-.132-.107-.2 0 0-.12-.22-.146-.271l-.132-.226-.044-.07a3.769 3.769 0 0 0-.234-.377l-.019-.031s-.094-.151-.132-.208c-.05-.075-.101-.145-.145-.22l-.013-.019s-.1-.15-.139-.201c-.05-.07-.094-.138-.145-.201l-.025-.032s-.107-.144-.145-.2c-.05-.07-.101-.133-.151-.196l-.057-.069a3.159 3.159 0 0 0-.12-.15l-.19-.227s-.113-.139-.157-.189c-.057-.063-.114-.132-.17-.195l-.02-.025s-.12-.132-.17-.182a4.104 4.104 0 0 0-.17-.176s-.152-.164-.202-.214c-.063-.063-.133-.126-.202-.201l-.025-.025c-.05-.05-.108-.101-.158-.151-.07-.063-.133-.126-.208-.195l-.19-.17c-.069-.063-.145-.126-.227-.195-.063-.05-.126-.107-.189-.157a3.005 3.005 0 0 0-.22-.176c-.07-.057-.14-.107-.209-.164a6.647 6.647 0 0 1-.22-.17c-.07-.05-.146-.106-.222-.157-.075-.05-.151-.107-.227-.157-.076-.05-.151-.107-.227-.157-.076-.05-.151-.1-.234-.151-.075-.05-.157-.1-.24-.15-.075-.051-.157-.095-.233-.14-.082-.05-.164-.094-.246-.144a1.065 1.065 0 0 0-.113-.063l-.095.151c-.032.05-.057.094-.082.145-.032.063-.07.126-.101.188-.025.05-.05.101-.07.151-.025.063-.056.132-.081.195l-.013.025c-.019.044-.032.082-.05.126a2.36 2.36 0 0 0-.064.208l-.012.044c-.013.037-.02.069-.032.107-.019.069-.031.138-.05.22l-.013.056-.019.088c-.012.082-.025.164-.031.252 0 0-.013.1-.013.12a3.979 3.979 0 0 0-.019.377v11.487c0 .176 0 .359.013.535m25.876 10.626-.026-.031a13.8 13.8 0 0 1-.498-.61.805.805 0 0 1-.088-.12l-.057-.069c-.114-.145-.221-.295-.328-.44a3.01 3.01 0 0 1-.158-.233 13.438 13.438 0 0 1-.435-.66c-.101-.157-.19-.314-.284-.478 0 0-.089-.157-.114-.195a25.732 25.732 0 0 1-.366-.685l-.044-.088c-.101-.201-.196-.409-.29-.61-.026-.057-.101-.233-.101-.233-.07-.163-.133-.32-.202-.49-.032-.088-.07-.176-.101-.264-.057-.164-.12-.327-.17-.49l-.02-.064c-.018-.063-.043-.125-.063-.194-.063-.19-.113-.378-.17-.573 0 0-.044-.138-.05-.176-.07-.251-.133-.503-.183-.754-.007-.038-.05-.24-.057-.27a7.083 7.083 0 0 1-6.102 3.533 7.065 7.065 0 0 1-5.748-2.98v7.444c0 .157-.006.315-.019.478 0 .038-.006.07-.012.107v.05c-.02.107-.032.214-.05.321-.007.044-.02.088-.026.132l-.013.044a3.004 3.004 0 0 1-.063.283c-.012.05-.031.1-.044.157l-.012.032c-.026.088-.057.182-.082.27-.02.063-.045.126-.07.189-.031.088-.07.17-.107.258-.025.062-.057.119-.082.182-.044.082-.082.163-.133.251l-.012.026c-.026.05-.057.1-.082.15-.026.038-.044.076-.07.107 2.083.95 4.31 1.434 6.626 1.434 3.918 0 7.66-1.415 10.587-4 0 0-.139-.144-.177-.181a11.31 11.31 0 0 1-.504-.56Zm-18.879 3.509-.107-.07a19.32 19.32 0 0 1-.574-.364l-.164-.114a12.927 12.927 0 0 1-.631-.452l-.082-.063c-.183-.138-.36-.283-.537-.428l-.151-.125a12.961 12.961 0 0 1-.574-.51l-.05-.05a19.007 19.007 0 0 1-.65-.641 16.69 16.69 0 0 1-.518-.56l-.019-.019c-.145-.17-.297-.352-.48-.572l-.126-.157c-.151-.195-.296-.39-.441-.591l-.02-.025c-.132-.19-.264-.39-.428-.636l-.108-.163a11.541 11.541 0 0 1-.36-.597l-.037-.063a19.456 19.456 0 0 1-.36-.667l-.088-.176a18.214 18.214 0 0 1-.29-.61l-.045-.094a16.506 16.506 0 0 1-.189-.453v4.961c0 2.465 2.013 4.465 4.48 4.465 1.06 0 2.063-.365 2.87-1.038-.113-.069-.226-.132-.334-.201m-7.71-28.666c.044-.082.088-.17.139-.27.025-.05.057-.1.088-.157a.618.618 0 0 1 .07-.107 15.854 15.854 0 0 0-6.626-1.434c-2.126 0-4.19.409-6.139 1.22l-.883.37V4.497C9.004 2.03 6.99.03 4.524.03 2.057.031 0 2.006 0 4.464V34.15c0 2.464 2.006 4.464 4.48 4.464 2.473 0 4.48-2.006 4.48-4.464V22.56c.07-3.797 3.218-6.885 7.022-6.885a7.065 7.065 0 0 1 5.748 2.98v-7.438c0-.15.007-.314.02-.478 0-.037.006-.069.012-.107v-.05c.019-.107.032-.214.05-.32.007-.045.02-.089.026-.133l.012-.05c.02-.094.038-.189.063-.283.013-.056.032-.113.057-.188.026-.089.057-.183.082-.27.026-.064.044-.127.07-.19.031-.088.07-.17.107-.257.025-.063.057-.12.082-.183m28.412 24.78c.095-.1.183-.2.278-.308l.019-.019c.082-.088.158-.182.24-.27l.246-.302.05-.063c.07-.088.139-.17.202-.257.07-.095.139-.19.215-.29l.063-.081c.063-.088.132-.183.189-.27l.19-.284.075-.12c.057-.087.114-.169.164-.257.057-.094.114-.195.17-.295l.076-.133c.05-.088.101-.17.145-.257.057-.101.108-.202.158-.302l.063-.132c.044-.088.095-.176.133-.264l.132-.283.082-.176c.038-.082.076-.164.114-.252.044-.1.082-.195.12-.295l.069-.183c.032-.081.063-.163.095-.251.037-.1.07-.208.107-.308l.063-.195c.025-.082.057-.157.076-.24.031-.1.063-.207.088-.307l.063-.214c.025-.075.044-.15.063-.233l.076-.32.05-.227c.02-.075.032-.144.051-.22a5.97 5.97 0 0 0 .063-.352l.038-.226c.012-.07.025-.132.032-.201.018-.133.037-.264.05-.397l.025-.213.02-.176c.018-.158.024-.321.037-.485l.013-.176c0-.044.006-.094.012-.138.013-.27.02-.54.02-.805V11.224c0-2.465-2.007-4.465-4.48-4.465-2.474 0-4.48 2.006-4.48 4.464v11.488c0 .264.012.535.025.805 0 .044 0 .094.012.138l.013.17c.012.164.019.327.038.49 0 .057.012.12.019.177l.025.213c.012.133.031.264.05.396l.038.208.038.22c.019.12.038.239.063.352.013.076.032.145.05.22l.051.22c.025.107.05.22.076.327.019.076.044.151.063.233l.063.22c.032.1.057.207.088.308.026.076.05.157.076.233l.07.201c.031.1.069.201.107.302.031.082.063.163.094.251l.076.189c.038.1.076.195.12.296.038.081.07.163.107.245l.082.182.133.29.132.257.076.145c.05.1.101.195.151.295l.152.264.07.12c.056.1.113.195.17.289l.164.258.07.107c.062.1.125.2.195.295.056.088.12.17.183.258l.063.088c.076.1.145.201.22.296l.209.264.05.063c.082.1.158.2.246.301.076.095.158.183.24.27l.02.02c.094.1.182.207.277.308.07.075.145.15.22.232a3.46 3.46 0 0 0 .221-.232" fill="#000"/></svg>
